<svg xmlns="http://www.w3.org/2000/svg" width="67" height="66"><path fill="#1E2741" paint-order="stroke fill markers" fill-rule="evenodd" d="M64.62 31.173l-6.299-5.175a1.057 1.057 0 0 0-.648-.23l-8.738-3.741c.182-.277.36-.555.516-.836 3.995-6.649 3.904-13.424-.226-16.861a10.946 10.946 0 0 0-8.603-2.13 11.193 11.193 0 0 0-7.014 4.19 11.194 11.194 0 0 0-7.013-4.19 10.944 10.944 0 0 0-8.603 2.129c-4.13 3.436-4.22 10.212-.242 16.834.147.262.315.522.483.782l-9.3 3.99a1.051 1.051 0 0 0-.226.14c-.008.007-.018.008-.026.015l-6.3 5.175a1.028 1.028 0 0 0 .254 1.745l5.668 2.43v17.322a.944.944 0 0 0 .02.098c.006.1.026.198.06.292a1 1 0 0 0 .11.17c.032.058.069.112.11.162.077.071.163.13.258.177.027.014.045.038.074.05l.007.004.005.001 24.135 10.346h.004c.017.008.036.008.052.014.114.044.235.068.357.071l.005.001h.006a1.05 1.05 0 0 0 .357-.072c.017-.006.036-.006.053-.013h.003l24.148-10.352c.4-.171.651-.57.63-1l-.004-.018c0-.008.005-.015.005-.024V35.347l5.668-2.43a1.028 1.028 0 0 0 .254-1.745zM19.347 5.913a8.47 8.47 0 0 1 5.362-1.797c3.324-.004 6.387 1.774 7.996 4.641.203.295.542.472.904.472.361 0 .7-.177.903-.472a9.274 9.274 0 0 1 6.461-4.515 8.768 8.768 0 0 1 6.897 1.67c3.318 2.761 3.227 8.477-.24 14.251-2.777 4.951-10.37 9.676-14.021 11.743-3.652-2.067-11.245-6.793-14.036-11.77-3.453-5.748-3.544-11.463-.226-14.223zM5.034 31.783l4.495-3.693 21.991 9.426-4.494 3.693-21.992-9.426zM32.45 61.536l-22.048-9.451V36.34l16.38 7.02a1.06 1.06 0 0 0 1.091-.153l4.577-3.76v22.088zm1.05-25.428l-21.515-9.223 7.519-3.226c3.677 4.431 9.859 8.27 13.59 10.34.319.177.71.177 1.03 0 3.713-2.061 9.856-5.874 13.53-10.264l7.36 3.151L33.5 36.108zm23.098 15.976l-22.047 9.452V39.355l4.578 3.76c.304.25.726.31 1.09.154l16.38-7.022v15.837zM39.975 41.116l-4.419-3.63 21.992-9.428 4.419 3.63-21.992 9.428zM24.052 10.325c.278 0 .545-.109.742-.303.197-.194.308-.457.308-.732V8.255c0-.572-.47-1.035-1.05-1.035-.58 0-1.05.463-1.05 1.035V9.29c0 .275.11.538.307.732.197.194.464.303.743.303zm0 2.07c-.279 0-.546.109-.743.303a1.027 1.027 0 0 0-.307.732v1.035c0 .572.47 1.035 1.05 1.035.58 0 1.05-.463 1.05-1.035V13.43c0-.274-.11-.538-.308-.732a1.056 1.056 0 0 0-.742-.303zm-3.15 0h1.05c.58 0 1.05-.463 1.05-1.035 0-.572-.47-1.035-1.05-1.035h-1.05c-.58 0-1.05.463-1.05 1.035 0 .572.47 1.035 1.05 1.035zm5.25 0h1.05c.58 0 1.05-.463 1.05-1.035 0-.572-.47-1.035-1.05-1.035h-1.05c-.58 0-1.05.463-1.05 1.035 0 .572.47 1.035 1.05 1.035z"/></svg>