<svg xmlns="http://www.w3.org/2000/svg" width="50" height="51"><path fill="#1E2741" paint-order="stroke fill markers" fill-rule="evenodd" d="M36.503 5.368C36.118 3.45 34.447 2 32.448 2a.835.835 0 0 0-.827.842c0 .466.37.842.827.842 1.37 0 2.483 1.134 2.483 2.526 0 1.393-1.114 2.527-2.483 2.527a.835.835 0 0 0-.827.842c0 .466.37.842.827.842 1.998 0 3.67-1.45 4.055-3.368h10.842v5.894H2.656V7.053h14.067a.835.835 0 0 0 .828-.843.835.835 0 0 0-.828-.842H15.22c.343-.978 1.253-1.684 2.33-1.684 1.37 0 2.484 1.134 2.484 2.526 0 1.393-1.114 2.527-2.483 2.527a.835.835 0 0 0-.828.842c0 .466.37.842.828.842 2.281 0 4.138-1.889 4.138-4.21C21.69 3.888 19.833 2 17.552 2c-1.998 0-3.67 1.45-4.055 3.368H1V50h48V5.368H36.503zm-10.675 9.264h9.93v10.105h-9.93V14.632zm9.93 21.894h-9.93V26.421h9.93v10.105zM14.242 26.421h9.931v10.105h-9.93V26.421zm0-11.79h9.931v10.106h-9.93V14.632zm-11.586.843v-.842h9.931v10.105h-9.93v-9.263zm0 10.947h9.931v10.105h-9.93V26.421zm0 21.895V38.21h9.931v10.106h-9.93zm11.586 0V38.21h9.931v10.106h-9.93zm11.587 0V38.21h9.93v10.106h-9.93zm21.517 0h-9.931V38.21h9.93v10.106zm0-11.79h-9.931V26.421h9.93v10.105zm-9.931-11.79V14.633h9.93v10.105h-9.93zM22.517 3.685C23.886 3.684 25 4.818 25 6.21c0 1.393-1.114 2.527-2.483 2.527a.835.835 0 0 0-.827.842c0 .466.37.842.827.842 2.282 0 4.138-1.889 4.138-4.21C26.655 3.888 24.8 2 22.517 2a.835.835 0 0 0-.827.842c0 .466.37.842.827.842zm4.966 0c1.369 0 2.482 1.134 2.482 2.526 0 1.393-1.113 2.527-2.482 2.527a.835.835 0 0 0-.828.842c0 .466.371.842.828.842 2.281 0 4.138-1.889 4.138-4.21C31.62 3.888 29.764 2 27.483 2a.835.835 0 0 0-.828.842c0 .466.371.842.828.842zm-.585 31.753a.818.818 0 0 0 1.17 0l2.725-2.772 2.725 2.772a.818.818 0 0 0 1.17 0 .852.852 0 0 0 0-1.19l-2.725-2.773L34.69 28.7a.852.852 0 0 0 0-1.191.816.816 0 0 0-1.17 0l-2.726 2.773-2.725-2.773a.816.816 0 0 0-1.17 0 .852.852 0 0 0 0 1.19l2.725 2.774-2.725 2.773a.852.852 0 0 0 0 1.19z"/></svg>