<?xml version="1.0" encoding="UTF-8"?>
<!DOCTYPE svg PUBLIC "-//W3C//DTD SVG 1.1//EN" "http://www.w3.org/Graphics/SVG/1.1/DTD/svg11.dtd">
<!-- Creator: CorelDRAW 2017 -->
<svg xmlns="http://www.w3.org/2000/svg" xml:space="preserve" width="320mm" height="150mm" version="1.1" style="shape-rendering:geometricPrecision; text-rendering:geometricPrecision; image-rendering:optimizeQuality; fill-rule:evenodd; clip-rule:evenodd"
viewBox="0 0 32000 15000"
 xmlns:xlink="http://www.w3.org/1999/xlink">
 <defs>
  <style type="text/css">
   <![CDATA[
    .fil0 {fill:#D7B56D}
   ]]>
  </style>
 </defs>
 <g id="Слой_x0020_1">
  <metadata id="CorelCorpID_0Corel-Layer"/>
  <g id="_2737090515152">
   <g id="_1599863481072">
    <path class="fil0" d="M14897.25 13496.04c0.01,-4.07 8.6,4.54 8.61,8.62 0.01,1.67 3.71,3.71 3.54,3.54 -0.69,-0.7 -12.3,44.54 -12.15,-12.16zm1280.13 -107.22c-34.45,-69.56 -12.22,-125.73 21.07,-186.12 9.19,83.92 16.06,109.41 -21.07,186.12zm-3766.93 -230.08l0 0zm1454.15 -189.75l6.28 6.28c-0.41,-0.4 -8.38,-4.18 -6.28,-6.28zm3371.92 -105.4l0 0zm147.52 -42.17c0,-49.95 25.95,-2.02 12.49,0 -0.24,0.04 -12.49,53.54 -12.49,0zm42.15 -63.24l0 0zm0 0l9.82 -42.16 -9.82 42.16zm3182.26 -189.74l-42.15 -21.08 42.15 21.08zm-42.15 -21.08l-42.14 -9.82 42.14 9.82zm-3034.74 -147.58c0,108.9 -20.99,181.64 -63.21,274.07 -82.86,27.92 105.16,-21.91 -60.33,-11.3 -39.66,2.54 -62.17,19.19 -101.07,38.74 -64.85,32.57 -146.95,71.81 -217.95,77.97 359.95,-550.54 271.37,-300.66 442.56,-379.48zm-2781.83 126.51l0 0zm5732.27 -168.67l0 0zm-5437.23 -105.41l0 0zm2486.79 147.57c1.66,-78.2 6.88,-147.57 84.3,-168.64l-84.3 168.64zm-2465.72 -168.64l-21.07 21.07 21.07 -21.07zm21.08 -21.08l-21.08 21.08 21.08 -21.08zm1248.66 81.47c81.51,48.21 48.31,2.42 98.79,90.08l120.42 -83.83 -28.14 149.62c116.68,12.73 116.3,-97.74 260.57,-84.8 -57.91,213.46 -21.69,143.8 -204.01,416.66 -229.48,343.49 -156.57,129.42 -218.44,266.36 -37.48,82.97 21.45,58.36 -55.53,113.12 0.12,-137.59 20.89,-95.07 -5.6,-226.78 -25.76,-128.11 27.32,-110.35 42.33,-231.61l-63.41 -41.83c-235.79,276.42 -221.17,632.08 -252.7,920.04 -78.03,-104.84 -77.81,-568.01 -39.89,-705.54 -139.67,-27.45 -89.52,57.63 -135.58,176.03 -160.79,-309.6 -98.57,-302.98 90.35,-529 59.37,-71.05 134.36,-146.59 186.6,-214.89 81.94,-107.16 25.23,-45.54 110.15,-69.14 91.52,-25.43 42.27,-50.57 124.98,-62.7l-30.89 118.21zm-1248.66 -81.47l0 0zm2548.21 908.31c-32.3,-58.57 -17.02,-70.21 -22.88,-145.76l-94.24 42.1c-28.07,-281.35 0.99,-179.34 115.78,-491.58 81.58,-221.87 67.9,-225.65 298.19,-376.32 -15.29,66.82 -54.66,164.29 -76.78,239.4 -56.21,190.76 -162.18,690.32 -220.07,732.16zm-2442.84 -1013.73c-17.89,62.97 21.28,28.93 -40.35,36.74l40.35 -36.74zm21.07 -21.08l-21.07 21.08 21.07 -21.08zm21.08 -21.08l-21.08 21.08 21.08 -21.08zm21.07 -21.08l-21.07 21.08 21.07 -21.08zm4594.26 -21.09l6.29 6.29c-0.42,-0.41 -8.4,-4.18 -6.29,-6.29zm-4594.26 21.09l87.77 -125.59c10.46,23.9 -0.61,62.3 -9.33,78.13 -23.51,42.63 -19.55,33.31 -78.44,47.46zm-2950.43 -105.41l0 0zm5712.27 -42.78c-107.12,-47.33 -130.77,0.03 -143.18,-78.3 81.67,-59.35 82.4,0.32 178.84,-45.77l-35.66 124.07zm-1933.29 -109.12c37.89,-28.64 71.3,-160.27 85.88,-217.46 132.04,139.69 67.66,-37.47 223.59,32.05 0.08,92.63 6.11,123.01 -11.04,197.09 -37.17,160.61 -356.56,434.71 -470.56,586.04 -63.48,84.26 -126.07,147.82 -192.89,232.12 -72.03,-115.33 8.1,-157.67 -127.94,-173.81 -43.86,78.77 12.58,63.78 -49.3,161.73 -205.44,325.13 -76.74,129.15 -217.65,407.5 -15.68,-117.07 -46.74,-95.41 14.79,-209.59 53.49,-99.25 83.29,-96.53 14.72,-164.46 -119.2,98.68 -210.01,203.8 -288.15,354.45 -46.05,88.81 -67.03,132.31 -93.23,222.95l-65.49 254.59c-77.83,-184.8 31.09,-277.31 -33.34,-374.42 -95.42,35.85 -55.07,59.73 -102.83,143.96 -66.05,-106.16 -77.16,-475.43 13.7,-568.77 60.88,-62.55 399.34,-388.98 444.64,-405.59 10.18,103.12 -102.38,253.17 -59.67,325.03 81.56,-46.79 223.12,-457.99 351.35,-576.03 69.11,-63.62 477.81,-376.39 542.4,-385.47 10.99,87.2 -33.42,84.72 21.02,158.09zm-681.03 -248.66l0 0zm21.08 -21.07l-21.08 21.07 21.08 -21.07zm0 0l0 0zm252.89 210.8c65.95,-131.32 274.71,-313.28 421.39,-337.3 -50.94,67.75 -361.21,321.03 -421.39,337.3zm2168.36 -326.02c1.01,71.65 -11.29,147 -45.24,194.12 -39.94,1.25 -126.31,-24.7 -148.61,-36.35l-135.6 -90.14 63 -175.41c66.86,29.3 86.57,46.9 163.83,43.61 74.71,-3.17 119.29,-14.24 185.63,39.04l-83.01 25.13zm-2969.19 -32.36c-43.71,66.62 -187.99,108.78 -310.7,166.85 12.18,-94.63 32.7,-77.54 116.82,-107.75 75.1,-26.98 111.24,-51.73 193.88,-59.1zm-337.18 0l0 0zm337.18 0l87.6 -37.71c-24.77,66.96 -17.83,68.62 -87.6,37.71zm2314.55 -120.61l97.47 -61.91c23.29,9.14 60.34,33.02 80.12,38.08 37.3,9.53 43.12,-6.49 119.3,23.37l-69.89 141.32 -227 -140.86zm-3368.28 -26.96l0 0zm3275.94 -62.9l-34.75 -101.84 94.75 32.16 -60 69.68zm-1012.86 148.95c-4.92,2.75 -12.75,0.38 -15.33,7.12 -2.57,6.69 -11.73,5.55 -15.32,7.01 -0.18,0.08 -43.02,16.57 -47.88,18.37 -185.13,67.96 -139.29,67.99 -290.79,173.64 -75.03,52.33 -75.96,77.12 -138.95,130.47 11.17,-110.51 71.55,-154.9 77.3,-250.79 -64.42,12.67 -89.09,60.26 -160.23,99.79 -64.38,-95.23 35.79,10.42 -26.46,-104.84 -68.22,8.07 -73.13,15.99 -131.73,38.57l-91.69 30.14c-2.52,0.79 -8.49,2.73 -11.03,3.52 -25.05,7.85 -69.24,20.66 -106.71,30.95 -82.43,22.62 -76.43,17.09 -124.09,67.3 1.73,-85.35 22.61,-134.12 60.5,-203.51 -123.31,-81.63 13.74,55.83 -78.37,-37.95l1048.25 -351.11c16.03,22.54 10.31,8.04 23.88,42.15l28.65 299.17zm-2747.79 -296.87l0 0zm21.08 -42.16l-21.08 42.16 21.08 -42.16zm3323.31 -182.88l51.53 113.59c-59.48,-8.18 -102.65,-41.19 -145.02,-83.7l93.49 -29.89zm464.68 -117.69c181.12,-72.01 252.55,-43.07 328.77,-75.29 56.62,108.36 0.02,76.93 115.61,136.73l-259.5 222.07c-76.8,-23.07 -140.06,-80.1 -195.11,-135.93 9.47,-60.01 4.79,-35.15 54.19,-87.94 -58.8,-49.21 -30.19,-42.59 -43.96,-59.64zm-6085.12 5.42l6.29 6.29c-0.41,-0.41 -8.39,-4.19 -6.29,-6.29zm2107.46 0c24.45,-22.69 22.68,-24.47 0,0zm-2065.31 -42.16l0 0zm6912.45 -210.82l0 0zm-3287.63 -716.77l842.76 168.87c70.32,11.73 151.06,18.73 219.59,35 45.78,10.86 49.27,15.36 87.19,19.86 122.65,14.54 467.67,29.87 563.89,65.02 39.19,107.34 4.13,164.59 -8.8,256.96l-1094.58 -38.64c-195.63,-16.21 -365.78,65.49 -472.16,-96.88 -144.03,-219.81 -105.61,-331.49 -137.89,-410.19zm5902.68 1027.57c49.5,-93.85 141.08,-198.08 142.1,-307.19 -172.53,-9.22 -312.28,439.92 -502.17,565.59 -113.09,-474.45 274.13,-504.63 126.9,-801.5 -130.64,-263.44 -348.94,-59.1 -670.27,-332.34 345.5,-326.61 418.5,-103.52 836.92,-45.21 326.32,45.46 631.64,-14.9 844.47,-254.5 -5.27,261.71 -204.8,444.87 -333.42,636.23 -68.93,102.57 -122.76,195.09 -186.17,298.64 -35.17,57.42 -69.1,90.37 -117.72,135.24 -71.46,65.97 -90.93,93.08 -140.64,105.04zm-4806.8 -1006.5c-144.17,31.85 -761.39,-147.4 -948.36,-147.57 18.45,-45.92 7.75,-33.16 116.71,-72.98 115.06,-42.06 254.44,-102.21 375.02,-108.13 3.96,-0.2 10.16,-0.27 14.15,-0.38 4.04,-0.1 10.23,-0.24 14.33,-0.26 93.31,-0.56 465.01,24.94 456.93,155.24 -3.1,50.04 -28.98,67.23 -28.78,174.08zm-1981.01 -400.55c21.2,-21.21 64.49,27.52 23.37,10.89 -0.47,-0.2 -51.77,17.52 -23.37,-10.89zm-2655.39 -1623.3l0 0zm21.08 -63.24l6.29 6.29c-0.43,-0.42 -8.4,-4.2 -6.29,-6.29zm-442.57 21.08l0 0zm42.15 -84.32l0 0zm21.08 -42.17l-21.08 42.17 21.08 -42.17zm21.07 -42.16l-21.07 42.16 21.07 -42.16zm21.07 -42.17l-21.07 42.17 21.07 -42.17zm21.07 -42.16l-21.07 42.16 21.07 -42.16zm0 0c7.24,-83.4 57.66,-165.64 126.46,-210.81 -15.22,55.59 -77.18,175.68 -126.46,210.81zm126.46 -210.81c21.2,-77.54 80.19,-145.18 147.51,-189.74 -13.64,50.41 -100.79,159.05 -147.51,189.74zm168.59 -231.91l-21.08 42.17 21.08 -42.17zm21.08 -21.07l-21.08 21.07 21.08 -21.07zm21.07 -21.09l-21.07 21.09 21.07 -21.09zm147.52 -442.71l-21.08 21.07 21.08 -21.07zm21.08 -21.09l-21.08 21.09 21.08 -21.09zm-231.83 0l0 0zm231.83 0l0 0zm-358.27 -42.16l-21.07 21.08 21.07 -21.08zm400.41 -21.08l6.29 6.28c-0.41,-0.41 -8.39,-4.19 -6.29,-6.28zm-400.41 21.08l0 0zm2381.42 -611.37l0 0zm-1685.97 -210.82c-39.41,60.06 -103.34,93.7 -168.59,126.49 18.28,-66.46 104.69,-109 168.59,-126.49zm42.16 -21.08l-42.16 21.08 42.16 -21.08zm21.07 -21.09l-21.07 21.09 21.07 -21.09zm0 0l0 0zm-779.75 885.44c-11.06,127.35 -76.72,129.61 -109.84,225.2 -33.65,97.17 28.25,4.94 -26.13,102.39 -43.71,78.32 -43.74,4.49 -53.7,115.13 131.17,-11.82 367.06,-335.72 526.85,-379.48 -30.09,81.57 -138.63,172.31 -199.33,264.4l-365.83 561.63c-51.53,109.56 -101.07,232.72 -147.75,326.25 72.48,58.22 55.01,51.91 122.83,7.22 -47.42,200.45 -136.77,278.19 -230.35,739.34 -29.07,143.34 -28,263.21 -46.97,391.83 -16.82,113.98 -38.8,261.86 -38.8,407.8 74.16,-8.23 59.5,49.98 97.19,-178.28 42.08,-254.77 34.24,-435.98 164.5,-656.19 72.67,-122.87 382.62,-596.06 475.92,-662.34 -14.5,155.55 -483.09,1167.67 -598.81,1445.93 -31.12,74.81 -77.31,153.53 -108.94,228.46 -50.57,119.82 -115.03,160.64 14.26,205.57 43.98,-77.23 111.62,-248.39 161.62,-303.83 70.13,-77.75 156.46,-138.74 236.82,-226.89 0,442.51 -51.91,918.49 50.29,1361.81 9.72,42.16 40.38,103.55 41.64,116.7 3.57,37.31 -59.26,188.26 -78.62,242.42 -133.31,373.27 -278.78,307.98 -197.79,425.06 202.94,-123.19 488.39,-483.87 542.75,-522.7 23,271.01 187.22,1264.36 421.49,1328.15 46.2,-104.06 -175.46,-409.35 -126.44,-674.61l291.43 -418.02c-0.85,73.65 -30.75,185.6 -43.09,265.1 -15.57,100.29 -60.95,559.54 -11.11,632.38 132.82,-54.38 210.31,-574.67 331.78,-711.36 -2.16,106.93 -233.1,1062.22 -273.89,1180.65 -34.4,99.87 -96.65,296.8 -105.46,400.48 162.16,-3.93 86.85,-82.33 187.14,-255.52 43.07,-74.4 400.35,-310.53 499.77,-385.49 72.88,-54.95 165.83,-152.92 240.38,-202.26 -2.21,109.34 -37.94,138.51 -61.44,233.68 -21.29,86.24 -37.45,144.22 -68.25,226.88 -184.84,496.1 -182.73,620.58 -524.42,951.12 -2.08,2.02 -71.5,75.23 -72.05,75.92 -30.05,37.51 -37.55,20.77 -28.91,132.08l266.2 -38.37c-8.4,63.98 -279.99,324.81 -367.1,726.28 -7.9,36.41 -20.73,108.83 -20.51,134.08 0.88,102.41 30.85,99.89 56.29,110.94 1.3,-2.16 202.41,-517.05 328.11,-746.95 44.1,-80.67 128.84,-162.3 91.78,-240.68 270,-50.35 522.37,-175.14 753.15,-298.27l-80.88 313.86 102.05 -1.34c51.01,-73.64 33.8,-134.4 94.52,-204.02l355.52 -276.79c58.58,-50.01 106.25,-109.91 166.44,-149.74 -3.01,142.09 -45.82,288.96 -4.79,468.89 27.03,118.57 -22.04,33.21 66.22,103.93 49.67,-80.38 57.2,-269.82 143.9,-339.11 12.5,121.14 6.43,235.74 21.07,351.16 -53.57,42.51 -145.68,111.59 -164.99,175.88 149.01,89.92 74.09,0.23 186.07,-17.47 97.6,123.5 44.38,332.91 216.16,374.05 0,-153.03 -35.38,-282.89 -45.76,-444.53 93.14,-28.69 173.89,-124.23 261.86,-203.65l268.61 -258.33c0,238.04 21.14,388.91 117.21,599.54 39.79,87.22 196.91,372.92 304.28,412.38 74.7,-84.25 28.3,-72.02 -32.43,-180.47 -42.82,-76.49 -43.98,8.39 24.87,-206.43 35.86,-111.87 116.5,-339.77 170.74,-433.49 13.88,125.61 86.68,332.18 237.24,335.51 -19.58,-219.91 -59.35,-166.91 27.03,-394.58 40.52,-106.81 108.14,-261.36 141.57,-364.36 107.53,167.01 156.51,708.3 404.52,864.81l-236.11 314.27 63.41 89.43c123.09,-102.52 108.12,-157.06 257.17,-294.48 36.08,-33.28 6.12,1.31 30.93,-32.42 43.99,-59.86 7.68,-61.55 85.82,-117.61l6.56 205.42c163.1,12.52 93.77,-14.06 162.09,-339.09 75.85,-360.93 454.15,-654.25 578.48,-985.02 21.24,37.28 8.85,23.9 25.78,54.08 25.45,45.38 9.21,23.16 33.34,50.87l100.48 -39.21c1.74,77.56 -43.55,141.03 -74.03,214.61 -44.95,108.48 -5.37,17.71 -5.37,246.24 82.36,-19.97 140.59,-80.6 210.74,-126.49 -62.86,190.88 146.13,8.47 -37.78,383.83 -82.82,169.06 -226.51,456.82 -329.42,598.07 -41.79,57.35 -166.92,246.75 -180.73,304.08 155.65,-3.26 144.87,-85.71 235.1,-207.53 92.99,-125.55 288.54,-530.8 348.42,-579.07 166.39,-134.14 44.24,-57.73 110.17,-115.56 59.74,-52.41 -27.29,50.38 123.51,-67.71l-42.17 164.22c139.52,-3.1 74.83,-79.52 195.31,-95.36 -50.55,86.31 -106.3,708.72 -106.3,837.77 93.2,-10.1 78.26,-38.62 94.17,-137.72 57.1,-355.93 27.4,-268.07 195.46,-492.93 6.69,61.02 12.12,182.67 12.43,240.37 0.46,84.48 -40.35,78 -49.15,179.46 107.66,-9.95 156,-178.87 332.42,-248.16 7.68,87.47 -26.42,162.59 -10.71,286.33 94.25,-0.08 169.09,-121.21 227.02,-188.2 47.53,82.86 -10.29,43.05 46.89,124.96l89.99 -99.9c11.23,63.74 25.54,180.1 55.98,224.85 101.58,-61.46 196.02,-231.72 312.88,-312.29l58.25 112.15 140.83 -212.04c62.72,116.92 42.95,267.23 114.38,356.38 52.04,-37.39 121.7,-293.89 154.85,-379.58 47.41,86 61.8,208.41 98.15,274.06 157.34,-19.12 26.84,-121.17 86.1,-237.32l107.14 169.07c284.16,21.22 68.06,-170.11 234.06,-413.04 75.78,19.54 84.79,112.36 181.65,136.79 59.96,-87.5 -44.14,-98.15 -2.63,-202.22 63.21,65.57 80.93,124.92 180.96,107.93 11.05,-82.25 -60.51,-21.52 -92.65,-259.52l67.46 -18.44 -1.23 -338.46 383.1 186.67c71.59,36.2 84.89,7.21 122.31,-18.7 -39.77,-103.96 -72.07,-18.43 -214.35,-252.98 60.17,-31.15 99.31,8.24 130.06,-105.41 103.68,-38.28 27.76,-123.71 -15.38,-237.57 -37.61,-99.26 -86.41,-177.32 -132.14,-268.39l-80.74 1.27c20.85,127.36 74.03,179.18 101.81,293.87l-111.06 -16.25c-9.52,149.95 60.37,3.92 -37.06,157.97 63.23,189.48 29.53,44.32 -13.98,207.51 -71.74,-31.34 -149.86,-116.05 -226.44,-109.62 -35.32,110.77 6.99,148.38 -1.41,243.86 -8.1,92.1 -9.06,27.53 -43.81,71.99 -56.19,71.86 -12.14,31.87 -48.09,119.07l-85.87 -63.05c-35.46,68.1 8.31,204.2 15.53,279.71 -114.65,-55.78 -17.68,-157.5 -119.12,-216.68 -52.69,27.7 -83.16,90.6 -106.47,149.67 -67.67,171.51 25.7,59.49 -122.92,152.21l12.28 169.56c-48.96,-71.63 -67.99,-145.89 -157.52,-149.61 -68.88,92.91 26.89,56.91 -32.67,118.85 -67.76,-62.19 -17.87,-80.25 -106.21,-116.44 -94.51,57.59 -46.31,230.44 -119.73,298.29l-63.01 -219.36c-92.4,-11.84 -75.52,-14.83 -134.79,51.68l-44.78 -81.42c-75.91,52.77 -268.12,271.01 -332.26,260.71 -19.6,-99.73 104.81,-94.62 1.89,-229.41l-125.16 147.6 -68.87 -46.78 -174.39 191.6c-14.79,-104.95 16.47,-259.25 -28.32,-340.46 -101.61,45.15 28.56,-16.2 -135.48,145.76 -9.66,-26.63 12.04,-26.23 -11.79,-66.39 -39.01,-65.79 -30.76,13.52 -65.29,-77.56 0,-98.6 7.94,-96.16 -24.68,-186.12 -104.22,17.18 -162.46,166.85 -222.79,247.55 -10.03,-124.67 304.51,-1237.64 373.92,-1389.58l421.49 21.08c753.38,-0.11 917.04,-182.77 1183.21,-211.3 46.03,78.82 26.25,128.31 55.18,177.53l106.02 72.78 114.67 -186.32c69.28,103.85 -9.78,20.56 38.25,109.94 65.66,-26.18 38.1,-8.98 75.07,-65.91 60.87,77.31 27.41,97.84 94.92,148.6 108.64,-150.09 -168.53,-492.74 20.5,-801.17 136.77,-223.15 354.86,-370.35 540.81,-556.49 379.12,-379.5 329.22,-468.21 473.62,-622.48 97.5,-104.17 177.92,-183.73 222.91,-325.13 45.08,-141.64 123.05,-315.81 -4.23,-412.52 -209.35,38.48 -253.89,309.6 -872.95,276.01 -189.76,-10.29 -398.24,-136.46 -508.03,-133.63 -196.84,5.07 -341.3,143.23 -478.27,164.02 -116.77,-69.13 -254.63,-255.3 -408.37,-269.15 1.89,676.63 294.91,624.86 568.39,801.74 415.36,268.65 290.17,445.89 333.54,699.36 25.73,150.38 96.64,134.85 60.6,239.5 -49.71,144.34 -145.25,311.22 -264.73,412.08 -212.41,179.3 -204.52,147.95 -460.2,235.34 -447.69,153.01 -865.34,102.01 -1249.17,99.63l43.6 -189.03c61.23,28.6 146.55,73.12 180.36,-10.08 43.65,-107.42 -65.8,-126.33 -114.98,-152.05l98.73 -179.79 -59.88 -143.38c-86.19,36.07 -85.14,6.41 -163.49,68.37 17.17,133.98 67.21,30.57 -3.44,184.57 -29.13,63.54 -53.26,140.14 -86.27,193.11 -82.7,-64.32 -65.14,-34.25 -164.99,-70.48l37.94 -208.76c49.87,-18.57 19.81,18.81 113.19,-12.3 55.15,-164.45 -47.63,-163.12 -148.61,-167.13 -189.24,-7.52 -137.08,-26.82 -255.42,-128.01 41.88,-91.22 98.29,-127.21 10.24,-214.43l-120.09 206.99 -104.42 -63.17c81.56,-123.29 225.19,-187.79 316.03,-298.62 41.35,66.36 44.92,108.39 78.12,142.37 90.52,92.62 159.93,79.46 191.08,26.96 108.1,-182.15 -99.92,-199.38 -163.82,-228.97l171.52 -166.04c147.55,53.09 205.13,29.12 214.64,-17.75 11.59,-57.06 -23.84,-159.36 -79.01,-186.62 -116.34,-57.48 -132.51,12.2 -159.63,96.35 -130.4,35.7 -161.98,150.64 -296.85,191.55 -79.58,-94.19 -109.96,-123.89 -237.24,-89.75 -4.48,-8.54 -12.13,-258.54 -308.89,-122.88l27.08 106.38c-97.04,56.87 -188.14,41.99 -272.75,79.74 -246.4,-246.67 -110.35,-224.57 -116.21,-330.08l-289.66 -4.72 134.8 -247.57c0,0 526.75,108.79 623.92,-27.19 -99.38,-77.27 -457.16,-59.27 -570.82,-103.6 149.35,-292.45 50.66,-132.72 286.89,-366.54l432 -411.12c91.55,-87.57 282.49,-221.46 292.69,-339.68 -134.61,32.23 -822.09,510.42 -1084.74,664.68 -67.89,39.88 -125.58,77.95 -136.09,159.01 -5.83,45.03 -1.25,88.99 -7.41,139.35 -6.58,53.83 -14.76,69.57 -16.76,143.22 -106.48,-51.97 -291.64,-73.14 -419.89,-73.24 116.02,-232.45 376.89,-602.94 621.64,-727.93 70.61,-36.07 99.15,-15.93 81.14,-103.09 -26.87,0.39 -222.15,86.24 -267.21,107.23 -217.25,101.23 -484.11,83.45 -639.31,88.95 -277.6,9.84 -1211.25,-109.23 -1310.75,-255.93 -55.22,-89.78 -68.03,-464.93 -51.3,-591.21 25.22,-190.39 35.64,-398.18 106.23,-540.07l37.79 193.48c83.03,-62.72 136.17,-484.69 166.5,-609.54 68.56,-282.22 102,-288.56 -144.51,-483.4 -148.34,-117.25 -787.96,-608.69 -947.34,-582.71 -24.37,88.48 123.02,221.74 179.43,296.8 342.47,455.68 373.81,390.26 219.13,1175.66 -126.95,644.58 -28.19,527.91 -336.49,1119.37 -49.45,94.88 -187.68,185.29 -215.11,281.53l258.17 144.16c-140.17,73.43 -432.29,-150.29 -534.43,-77.1 14.28,83.7 101.1,81.19 179.35,104.88 161.65,48.93 486.47,189.09 679.4,210.63 -220.86,369.84 178.04,387.74 379.46,644.02 -114.97,10.49 -141.19,-27.35 -208.81,60.84 110.95,77.55 260.36,-24.99 381.88,65.75 460.1,343.54 172.02,295.43 754.89,300.8 112.75,1.05 132.32,7.13 190.57,-44.91 -58.91,-71.88 -74.4,-17.28 -184.53,-27.84 -74.82,-7.18 -141.36,-23.17 -215.9,-39.02 100.53,-49.56 44.13,29.76 84.31,-59.63 -83.52,-50.4 -183.34,-73.45 -273.97,-140.35 170.47,-18.68 263.84,16.17 418.95,16.39 196.82,0.27 1036.5,1.49 1156.64,34.53 -35.06,151.29 1.24,176.61 -2.22,296.63 -253.13,184.64 -436.1,-63.94 -559.71,-117.17 -88.45,125.01 -68.01,234.13 -68.61,310.83 -298.23,83.84 -954.71,323.06 -1269.31,458.75 -89.31,38.53 -94.89,73.43 -183.33,69.79l66.29 -231c-93.33,7.14 -192.75,39.17 -268.9,55.44 -182.19,38.92 -48.54,-22.1 -99.68,-94.88 -52.8,36.65 -79.93,66.68 -138.48,75.29 51.39,-71.03 87.39,-53.69 68.64,-128.31 -54.68,-12.48 -134.94,69.74 -237.7,135.07 -65.43,41.6 19.51,38.03 -106.72,40.82 12.25,-50.54 44.82,-144.27 69.45,-183.66 43.72,-69.94 100.26,-101.48 51.58,-169.31 -48.06,13.35 -163.71,176.24 -199.91,224.67 -2.19,-82.18 39.73,-128.36 22.89,-195.16 -222.79,-74.39 -260.85,67.65 -407.64,70.48 10.05,-111.63 151.96,-298.27 164.98,-375.86 -112.32,1.42 -104.02,66.09 -180.64,121.07 -1.85,-69.55 28.75,-169.74 39.97,-249.32 5.16,-36.56 9.05,-85.01 12.31,-105.03 13.64,-83.44 30.56,-51.31 10.95,-113.07 -34.73,-4.91 -181.66,96.24 -225.38,143.8 -64.98,70.69 -122.58,142.18 -199.73,200.75 -20.21,-28.63 -8.63,3.44 -27.59,-53.72 -18.61,-56.08 0.78,3.11 -11.4,-64.77 -57.97,-323.01 -35.79,-653.26 39.73,-955.83 14.31,-57.33 34.9,-106.28 37.32,-168.12 -65.27,13.13 -118.81,85.33 -181.91,123.3 43.21,-397.35 315.95,-784.26 234.6,-1146.67 -75.96,-338.39 -72.62,-814.22 15.36,-1148.51 123.27,-468.37 189.63,-1063.94 619.13,-1425.78 96.48,-81.28 333.7,-265.6 347.76,-389.98 -27.72,7.58 -458.37,258.64 -667.65,337.84 -32.06,12.14 -53.93,19.86 -95.66,35.62 -115.29,43.52 -90.85,1.7 -100.75,90.33 110.61,-2.34 126.82,-44.28 231.82,-21.08 -80.71,122.99 -257.14,239.98 -356.25,339.33l-707.78 873.1c-95.9,168.32 -202.58,264.42 -187.36,334.63 107.87,3.03 392.02,-506.55 577,-556.21l-88.91 177.54c-18.2,46.52 0.08,4.37 -10.92,36.4l-99.63 219.67c-0.66,1.53 -29.91,79.3 -32.29,87.32 -52.79,177.58 -155.21,450.36 -180.87,629.64 -12.03,84.02 -30.07,110.45 -29.94,219.73 87.46,-23.8 92.48,-169.37 148.62,-272.96 50.38,-92.99 76.41,-198.21 161.53,-273.23 24.65,194.2 -29.7,875.59 -48.26,1127.48l-157.76 1035.83c-25.81,104.3 -62.64,235.49 -82.19,348 -1.46,8.42 -14.9,80.99 -15.36,82.81 -9.26,37.31 -11.86,26.24 -29.24,78.47 -11.65,34.99 -15.06,55.81 -15.39,84.74 -0.19,16.1 -0.67,24.24 3.19,43.58 8.97,45.04 -4.13,15.03 15.59,45 88.31,-72.11 107.05,-238.04 270.36,-362 36.32,40.68 22.31,25.04 47.69,82.66 77.68,176.44 64.07,184.23 116.81,325.61 36.76,98.6 82.64,426.67 116.69,473.55 65.82,-11.46 120.91,-86.24 169.02,-136.31 86.53,-90.03 47.49,-99.08 162.76,-174.5 -3.45,149.67 -36.57,275.96 -53.34,442.1 -13.82,136.98 9.01,340.57 11.19,443.33 109.4,-11.84 66.23,-59.29 189.09,-232.48 53.23,-75.03 144.78,-171.41 228.78,-185.53 -34.25,205.9 -75.87,258.94 -124.64,419.83l83.69 27.82c-48.42,57.04 -85.97,194.13 -102.95,265.51 86.27,-7.78 116.68,-56.66 170.67,-124.4 0.38,-0.48 63.62,-80.98 65.2,-82.35l300.12 -163.59c180.37,-80.9 270.96,-156.52 226.92,106.93 -19.56,116.98 -103.62,406.37 -164.18,505.77 -44.39,72.83 -57.15,30.89 -35.15,100.37 48.54,6.88 26.18,-10.4 95.48,-37.38 180.97,-70.47 163.56,-104.45 231.48,-140.84 64.11,-34.35 30.9,-8.4 105.23,-75.29 94.04,-84.64 16.11,0.67 94.81,-54.59 38.45,-27.01 64.51,-70.58 108.41,-100.11 51.04,-34.32 67.76,-26.81 127.24,-83.67 33.95,-32.44 59.44,-66.76 101.42,-102.03l-76.34 331.06c-14.52,57.23 -34.61,25.03 18.53,92.39l74.96 -89.11c24.39,187.04 -38.78,379.47 -141.8,549.29l45.77 42.18 -776.15 734.24c-10.12,-130.34 -22.94,-427.17 25.21,-513.08 24.51,-43.74 97.76,-125.96 130.8,-167.02 82.75,-102.88 98.8,-69.77 72.19,-180.65 -177.11,15.98 -334.39,323.33 -416.06,440.91 -2.68,-99.88 47.73,-285.65 57.8,-398.74 -70.24,1.7 -126.48,-12.89 -151.14,228.28 -129.79,12.98 -302.73,139.1 -417.88,214.44 24.05,-267.12 436.95,-499.57 252.9,-633.18 -123.31,49.87 -438.33,637.85 -467.64,800.86 -230.34,-55.16 -430.2,87 -649.31,106.39 48.99,-69.96 159.95,-127.92 226.95,-194.62 106.96,-106.5 623.2,-591.18 580.01,-720.58 -96.35,-4.6 -579.32,455.68 -701.59,535.72l179.65 -515.99c26.41,-87.39 112.15,-478.73 109.97,-553.76l-123.17 -68.16 -377.19 294.64c46.16,-191.59 367.18,-454.69 290.48,-563.73 -114.84,30.01 -492.27,611.75 -543.38,648.05 62.57,-261.68 182.75,-711.98 168.6,-969.75 -17.7,-160.67 -17.43,31 -58.2,-101.31 50.88,-83.91 155.74,-291.9 163.58,-383.57 -186.02,16.76 -254.14,387.89 -358.27,505.96l164.98 -772.81 -72.55 -47.32c-108.4,146.48 -43.44,208.76 -165.67,346.31 -148.99,167.67 -297.01,481.77 -327.18,515.98 0,-453.57 165.47,-1137.88 168.59,-1285.99 -89.04,9.65 -64.17,-8.58 -126.88,168.22 -27,76.13 -60.71,152.66 -86.61,229.59 -46.93,139.46 -102.62,376.86 -102.62,529.79 -90.77,-130.91 -21.53,-469.9 -89.72,-563.79 -130.72,74.97 35.08,265.6 -226.4,437.3 54.53,-230.5 184.32,-472.95 229.11,-719.5 33.9,-186.57 141.73,-601.84 114.01,-784.15l-62.98 -14.26c-41.38,61.9 -228.83,1055.27 -322.29,1201.69 -10.68,-119.96 -42.53,-188.24 -7.92,-324.14 42.44,-166.61 168.2,-806.2 215.06,-912.46 -51.4,-47.93 -36,-51.7 -103.58,-72.28l-92.95 265.4c-36.36,100.11 21.23,42.36 -52.75,73.71 1.21,-52.83 24.21,-483.76 35.45,-512.65 45.5,-116.8 213.12,-350.74 154.22,-478.18 -145.27,55.09 -211.45,441.67 -379.34,505.95 105.52,-211.73 170.82,-429.26 266.91,-639.51l182.71 -516.29c37.18,-109.46 51.72,-59.01 -19.16,-121.55 68.24,-63.25 233.58,-257.6 294.95,-337.06 65.55,-84.85 291.32,-230.34 273.92,-332.41 -96.59,-9.12 -507.47,393.94 -591.28,478.74 -113.95,115.27 -432.87,596.79 -471.28,624.81 71.94,-300.92 329.25,-733.37 523.5,-994.2 59.28,-79.58 216.74,-204.67 230.16,-287.67l-41.53 -41.89c-51.94,8.93 -43.69,10.89 -125.27,97.7 -44.08,46.91 -69.05,93.96 -123.22,129.81 34.41,-126.57 441.07,-533.12 553.54,-669.01 90.1,-108.87 190.51,-215.68 284.74,-326.53 75.67,-89.01 288.65,-257.93 209.29,-371.55 -100.04,22.91 -363.47,403.23 -513.79,488.57 -335.89,190.71 -384.15,273.05 -597.01,414.72 26.72,-99.04 435.99,-624.65 536.19,-707.45l190.5 -168.38c151.1,-115.86 -19.29,-71.31 135.39,-178.79l554.85 -378.82 -48.19 -79.82c-81.98,-2.21 -406.52,221.57 -518.7,276.5 -173.34,84.91 -338.95,202.91 -505.94,294.99 -91.65,50.54 -142.06,102.24 -245.79,154.67 -76.79,38.81 -187.18,101.39 -254.59,145.88 -83.44,55.08 -460.88,271.33 -490.71,317.96l37.7 66.95c103.13,-14.86 220.51,-103.65 321.57,-136.91 114.69,-37.75 239.46,-56.24 350.95,-112.74 -25.31,93.53 -640.27,741.87 -695.46,969.76 105.94,-9.55 398.45,-388.15 484.72,-484.88z"/>
    <path class="fil0" d="M13506.33 5021.17l-38.16 22.01 38.16 -22.01zm6369.9 -824.02c-13.52,-124.6 2.03,-197.52 140.33,-182.48l-140.33 182.48zm-616.55 -272.23l0 0zm-4952.53 -590.28l-21.91 -60.33 21.91 60.33zm-2866.13 -42.17l-21.07 -21.08 21.07 21.08zm-21.07 -21.08l-21.07 -21.08 21.07 21.08zm-21.07 -21.08l0 0zm9019.9 -105.41l0 0zm-6153.77 -358.39l0 0zm6153.77 358.39c-47.64,199.07 -412.69,561.89 -566.84,681.84l101.26 46.54 -110.26 84.72c-88.82,-23.09 37.98,3.79 -112.52,-72.95 -48.98,68.75 -62.14,193.27 -37.57,280.33 41.35,146.46 77.79,58.66 71.01,263.79 -65.58,-73.97 -153.58,-234.16 -225.83,-339.98 -165.27,-242.05 -223.28,-179.2 -188.64,-331.11 40.38,73.6 -13.29,31.33 57.81,61.43 98.09,0 469.1,-25.71 446.18,-130.1 -22.24,-61.4 22.13,-24.44 -214.08,3.76 -105.74,12.62 -159.12,20.94 -274.25,20.94 0.33,-172.28 96.71,-168.23 103.89,-291.94l-187.61 21.54c189.54,-266.68 806.36,-801.87 989.93,-800.18l-25.06 139.97 193.92 4.29c-54.49,72.93 -71.05,163.71 -141.35,194.9 -78.15,34.68 -672.45,197.14 -601.95,378.45 30.71,4.2 425.17,-211.82 532.29,-237.33 -32.23,45.4 -179.12,150.37 -231.82,189.75 -152.66,114.04 -224.59,133.73 -196.52,216.74 134.96,20.29 495.72,-305.37 618.01,-385.4zm-126.45 -527.04c88.2,-91.71 139.67,-50.75 228.21,13.85 -53.31,37.56 -173.7,24.02 -228.21,-13.85zm-5437.24 -63.25l0 0zm42.16 -147.58l-42.16 -21.07 42.16 21.07zm-42.16 -21.07l0 0zm-611.15 -105.41l6.28 6.28c-0.41,-0.41 -8.38,-4.19 -6.28,-6.28zm653.31 126.48c83.84,-51.49 0.36,-133.48 33.68,-272.25 18.9,50.1 44.66,269.46 15.69,331.89l-49.37 -59.64zm-632.24 -168.65l6.29 6.29c-0.42,-0.41 -8.38,-4.19 -6.29,-6.29zm653.32 -147.57l12.17 6.1c-1.24,-0.61 -16.23,-4.06 -12.17,-6.1zm-1728.12 -21.08l0 0zm1617.32 272.25c-216.91,-114.47 -140.2,-246.47 -263.13,-245.74 -50.91,72.8 34.35,199.19 58.86,291.61 28.47,107.37 44.62,234.72 42.36,356.98 -3.26,177.17 -76.05,480.63 -190.94,610.88 -8.72,-104.39 -49.16,-232.98 -60.18,-340.34 -11.85,-115.28 27.05,-289.3 -22.51,-378.27 -108.44,15.62 -44.61,26.42 -102.96,127.75 -18.87,-323.54 354.88,-976.97 540.31,-1176.39 3.74,48.33 1.62,721.99 -1.81,753.52zm679.8 -946.87c163.59,108.26 608.56,709.51 734,734.25l-12.51 -216.24c34.8,12.54 327.22,353.49 419.4,427.81 76.33,61.55 158.71,125.49 233.84,187.71 87.24,72.27 199.98,115.07 265.47,180.77l-148.45 139.14c-191.2,-103.64 -604.73,-45.33 -796.29,43.37 -21.39,-222.82 -391.73,-877.63 -523.59,-1120.62 -89.91,-165.68 -171.87,-159.78 -171.87,-376.19zm-3919.86 -126.48l0 0zm0 0c-11.34,125.92 -71.41,62.31 -84.3,210.81 167.92,-15.14 354.16,-355.26 435.34,-418.02 42.25,56.81 71.66,185.13 117.57,265.74 47.94,84.16 83.98,34.68 52.84,319.13 -111.54,-80.76 -71.31,-157.35 -184.26,-187.94 0.14,157.03 110,280.09 189.67,400.56 -135.48,-36.68 -160.54,-263.92 -273.97,-295.14 -70.75,79.81 -93.71,318.81 -109.45,435.67 -10.83,80.37 -16.91,342.67 -32.64,391.94 -68.5,15.47 -240.6,-75.91 -308.55,-112.29 -55.43,-29.67 -35.79,-59.58 -104.52,-5.77 -3.29,49.72 33.33,70.76 62.4,116.95 21.71,34.53 37.45,90.62 50.2,143.26 -135.94,-2.62 -241.34,-121.6 -331.77,-121.07 -73.34,92.77 -110.69,215.28 -110.8,331.89 -91.62,-60.27 -30.42,-179.86 -112.6,-291.54 -149.37,103.71 80.5,649.95 77.68,678.23 -224.47,111.62 -354.93,33.01 -446.18,17.47 1.75,151.81 80,142.05 140.3,263.22 -49.19,34.29 -284.58,-74.34 -316.01,-93.62 -56.35,-34.55 -10.89,-66.19 -101.87,-25.64 -30.11,67.58 48.76,217.06 71.12,284.13 35.27,105.84 570.31,594.54 645.41,601.3 -2.97,-140.82 -96.75,-198.01 -122.83,-354.77 88.95,16.52 1115.34,123.94 1162.71,109.02 15.98,-73.86 -250,-305.49 -382.15,-454.53 -44.83,-50.56 -61.54,-111.87 -109.79,-185.15 119.82,32.08 347.39,386.04 481.98,287.85 -83.48,-111.72 -291.19,-290.45 -307.9,-414.34l89.57 70.45c3.1,-130.46 -182.74,-244.41 -239.42,-344.05 111.68,-53.91 847.93,391.8 1003.01,289.26l-180.48 -354.94c76.8,-1.51 71.08,118.9 172.05,93.53 4.17,-41.38 -123.11,-213.42 -160.61,-275.47 -49.67,-82.19 -138.15,-222.18 -87.62,-283.54 89.14,207.97 870.9,446.78 1057.43,315.31 -19.97,-76.16 -223.07,-169 -289.56,-269.5 147.48,-13.13 412.01,-77.28 465.44,-212.61l-254.7 -124.69c95.57,0.18 248.09,1.76 312.5,-49.4 -57.28,-73.11 -293.52,-97.68 -354.64,-182.5 127.44,0.06 272.64,41.37 362.82,-63.25 -77.47,-89.68 -42.44,-5.3 -170.42,-43.98l64.39 -113.71 -317.33 -158.72c-11.47,-134.23 -34.09,-278.52 -2.69,-337.11 113.92,10.26 707.74,560.99 864.06,463.79 -10.98,-95.19 -2.33,-43.35 -112.61,-98.19 -5.69,-91.23 51.16,11.8 -8.7,-135.95 -30.45,-75.16 -64.03,-106.01 -64.76,-183.88 265.36,303.7 324.19,276.73 677.34,465.61 -226.74,234.26 -511.69,524.35 -716.36,781.33 -161.01,202.15 -293.76,794.62 -407.08,1052.54 -32.97,-3.57 -29.27,-173.47 -168.3,142.76 -249.99,568.66 -136.14,950.97 -183.2,1050.53 -63.58,-65 -84.26,-140.75 -161.2,-129.24 -13.29,47.69 97.14,355.27 132.83,422.55l-143.31 -38.13c-5.13,142.03 103.37,255.03 117.22,380.46 -67.43,-53.23 -160.23,-126.59 -244.24,-124.21 27.61,134.19 378.76,458.46 497.18,477.18 15.94,-10.06 170.07,-168.21 196.9,-203.59 -28.97,-64.71 -177.09,-151.42 -251.08,-205.4 246.96,-196.23 232.84,1.22 532.49,-61.01 102.57,-21.31 150.09,-35.51 242.98,-94.46 111.05,-70.47 127.38,-68.17 127.11,-210.15 -159.63,13.87 -285.8,147.99 -505.78,147.57 44.15,-61.6 229.05,-131.11 301.59,-162.1 158.66,-67.78 434.94,-453.68 619.06,-561.69 124.91,-73.28 71.29,36.8 153.34,-14.64 49.36,-98.94 -34.64,-132.18 -103.76,-185.38 137.18,0.72 445.08,119.01 462.84,-88.11l-758.46 -107c6.7,77.47 135.18,220.97 193.06,296.74 -173.15,107.17 -516.88,322.33 -551.66,548.12 -148.96,-357.66 75.54,-706.52 110.22,-840.37 24.25,-93.62 -88.17,-252.64 -118.09,-353.32 -38.24,-128.63 -67.95,-299.93 -49.83,-441.69 63.23,74.41 102.46,259.82 178.83,280.72 36.44,-52.14 -31.54,-271.75 -36.23,-351.84 -12.38,-211.67 -20.94,-185.87 111.72,-356.32 18.06,46.57 -10.58,151.09 -5.11,246.46 9.99,174.41 7.47,117.98 119.69,198.09 11.29,104.41 51.51,346.1 154.82,375.82 70.26,-92.06 21.3,-43.22 18.79,-170.02 89.7,100.92 31.3,228.44 210.76,231.9l-37.67 -150.21c82.42,-34.06 53.77,36.76 126.98,-118.64 80.56,-171.01 191.07,-511.33 123.24,-653.33 103.88,26.04 56.1,117.01 138.49,180.69 152.08,-90.41 21.57,-124.2 -13.86,-270.44 128.68,31.18 70.22,59.88 187.87,128.3 101.2,-142.93 9.43,-375.75 28.3,-548.13 64.82,79.52 359.56,463.63 463.16,426.37 27.99,-147.97 -226.14,-445.82 -434.38,-546.71 -185.79,-90.01 -6.69,-67.82 -183.55,-175l32.09 -281.9c283.73,-78.16 497.46,570.07 583.94,783.21 78.18,192.67 307.29,894.45 286.59,1097.48 -47.92,-34.24 -110.34,-74.02 -154.72,-112.06 -61.69,-52.86 -57.22,-85.88 -127.68,-135.49 -87.45,85.76 -58.1,99.57 12.28,187.19 185.86,231.39 323.3,294.07 633.8,294.07 20.39,-77.49 71.87,-99.57 91.77,-224.54 17.93,-112.56 6.03,-207.67 19.02,-318.16 182.98,-132.98 664.58,-8.66 853.24,126.47 69.24,49.59 138.33,144.85 213.87,160.06 8.09,-166.1 -101.62,-247.49 9.58,-368.98 139.64,-134.61 765.29,198.13 937.44,199.9 -0.89,-71.19 -54.35,-116.84 -99.95,-180.7 132.78,15.2 414.98,306.21 521.44,307.19l-75.42 -266.14c88.71,14.78 227.93,184.42 306.26,253.27 60.11,52.82 86.59,79.92 139.82,134.21 21.14,21.57 66.17,69.78 73.66,74.8 55.76,37.34 39.55,2.4 103.62,32.15 -28.44,67.32 -5.44,45.09 -19.52,91.04 -39.22,128.06 -73.29,39.04 -36.01,139.61 17.05,46.02 23.62,33.16 38.07,92.8 -84.53,-33.5 -250.31,-168.02 -368.15,-222 -149.56,-68.51 -280.71,-138.59 -436.51,-144.62 -188.13,-7.27 -534.13,-45.37 -690.65,93.55 -77.92,69.15 -71.84,149.8 -100.55,205.49 -231.62,-137.65 -473.52,-189.04 -728.63,-222.07 -149.62,-19.36 -729.93,59.4 -789.27,159.06l221.78 43.73c-82.13,53.98 -101.8,-22.79 -375.86,106.66 -127.29,60.13 -202.74,101.47 -329.27,176.58 -110.1,65.35 -515.81,395.78 -476.81,504.25 102.82,19.41 199.33,-270.69 423.23,-295.28l-107.75 280.85c99.89,6.54 212.77,-189.78 504.38,-378.54 88.28,-57.14 205.27,-104.29 293.36,-149.27l326.24 -116.36c941.87,-252.72 1100,268.74 1327.83,274.19 -146.2,-608.81 680.22,-398.28 943.93,-271.27 156.21,75.23 355.99,210.18 484.56,339.1 90.68,90.93 305.28,457.04 336.6,475.96 70.82,-102.02 -14.3,-34.85 20.61,-119.76l201.94 272.19c63.07,-71.12 -24.67,-195.57 -58.53,-265.83 -60.72,-125.99 -44.54,-170.28 -26.97,-319.55 118.14,-93.45 206.42,-97.11 306.92,-241.09 116.81,-167.34 294.61,-116.24 293.4,-243.79 -56.11,-40.21 -59.93,-11.87 -134.29,3.85 -57.6,12.17 -129.53,13.64 -195.68,6.38 131.31,-98.21 261.68,-160.31 414.62,-231.53 110.03,-51.23 89.37,-27.29 89.37,-142.51l-310.07 130.45c149.84,-216.28 361.39,-551.13 396.64,-802.79 98.83,-30.53 587.2,-266.62 545.66,-339.59 -44.11,-62.59 -124.44,8.3 -210.21,42.65 -93.3,37.36 -194.77,47.4 -274.51,83.85 129.61,-538.15 50.43,-557.47 -282.91,-387.25 -53.78,27.47 -314.88,27.61 -386.26,22.85 -276.4,-18.4 -523.78,30.24 -793.74,60.17 -128.05,14.2 -259.82,25.19 -400.85,43.63 -180.61,23.63 -99.97,-67.75 -387.53,74.54 -119.29,59.03 -215.73,109.91 -327.77,178.09 -462.76,281.66 -160.9,274.81 -652.79,-5.67 -149.27,-85.11 -208.15,-141.17 -366.47,-216.46 -3.59,124.44 59.82,90.7 73.46,207.2 -296.6,-158.04 -374.31,-244.96 -626.84,-440.89 -147.22,-114.24 -450.35,-521.34 -550.44,-549.05 -46.07,87.35 40.75,112.36 -18.44,215.05 -100.95,-128.15 -581.06,-727.55 -676.78,-763.63 -42.91,72.08 -47.17,181.15 -21.52,248.87 -135.04,-23.51 -212.27,-243.46 -493.42,-69.21l-201.8 156.53c-50.86,39.93 -149.33,145.31 -183.09,194.04 -270.67,-191.09 -638.27,-412.65 -821.27,-744.42 -53.97,-97.84 -12.64,-111.19 -110.1,-121.75 -25.93,41.72 36.07,285.14 50.71,370.9 33.62,196.96 104.87,200.19 138.96,324.79l-566.22 -382.27c-161.02,-103.59 -41.32,-91.89 -106.36,-209.82 -104.07,40.76 -161.81,400.87 -98.8,481.27 -146.42,-13.81 -305.68,-351.16 -329.65,-388.54 -203.71,-317.84 9.71,-492.25 -142.37,-533.64 -3.14,148.6 -66.73,356.39 -76.52,482.51 -8.88,114.34 -35.27,446.72 -67.39,483.64 -47.13,-117.18 -141.62,-199.95 -127.79,-458.45 10.95,-204.91 -7.97,-134.63 -39,-143.89l-72.94 392.39c-55.34,-96.18 -58.14,-216.17 -65.77,-338.83 -19.49,-313.64 73.17,-164.29 -76.99,-252.83 -128.52,164.2 127.59,44.44 -479.66,599.92 -107.03,97.92 -188.17,159.04 -306.62,241.39 -100.64,69.99 -286.35,123.97 -288.99,259.06 237.91,-5.04 490.16,-257.54 674.39,-379.47z"/>
    <path class="fil0" d="M16309.24 7298l0 0zm250.78 -360.03c123.44,-68.26 517.44,-141.83 676.64,-147.52 163.9,-5.85 213.39,-26.69 247.7,131.53 158.22,729.66 -889.3,614.54 -924.34,15.99zm-250.78 360.03l-81.39 18.16c35.52,265.76 551.04,569.09 757.58,422.75 -213.24,-128.69 -570.82,-103.51 -570.82,-757.14 193.84,138.46 94.93,517.15 906.57,526.69 529.5,6.22 713.32,620.91 821.54,632.81 53.34,-118.37 -249.5,-505.1 -322.86,-604.62 -148.9,-201.98 -171.17,-551.48 -180.64,-809.22 -699.81,-351.84 -1178.69,201.76 -1568.52,96.04 -447.99,-121.5 -227.19,-680.41 -347.53,-919.36 -44.58,-88.55 -232.35,-396.24 -218.75,-470.61 56.07,-306.44 627.74,-682.88 655.63,-751.3 -243.24,-148.15 -1318.43,505.71 -1449.76,867.43 14.42,87.57 492.1,818.96 578.31,956.33 238.47,380 25.54,908.59 -25.69,1318.91 123.47,162.5 504.85,423.5 694.78,499.44 156.77,62.68 330.37,71.01 498.84,71.37 115.08,0.24 148.67,-10.25 256.02,-40.7 141.02,-40 184.28,-7.2 186.79,-129.38 -4.9,-2.83 -264.43,-13.93 -364.2,-55.58 -118.88,-49.63 -248.85,-201.64 -327.66,-214.87l140.77 223.86c-60.54,-10.16 -208.08,-89.15 -274.58,-139.4 -133.66,-101.01 -110.52,-136.5 -142.43,-300.23 -58.33,-299.36 -43.49,-485.11 -43.49,-778.69l354.9 19.95 66.59 317.36z"/>
    <path class="fil0" d="M17046.85 5000.09l60.31 -21.93 -60.31 21.93zm2276.05 -295.14l0 0zm-2276.05 295.14c-71.1,99.42 -714.64,178.98 -758.68,295.15 15.82,7.14 655.24,-61.25 787.86,-58.17 472.06,10.97 607.82,75.94 771.65,79.24l-168.76 -351.95 503.16 -34.7 570.3 761.22 -194.06 -773.63 319.74 -0.35 -24.16 248.77c255.64,7.11 899.29,19.57 1127.96,101.29 129.69,46.34 118.05,198.93 268.32,239.09l-208.58 -570.61 -125.15 40.61 84.41 210.43c-197.34,-112.4 -436.74,-180.01 -631.25,-194.07 -146.97,-10.64 -134.86,18.43 -257.46,28.76 115.01,-229 373.23,-96.38 426.99,-193.86l-216.24 -122.36 63.3 -28.91c-86.86,-134.01 -1073.4,-458.12 -1174.83,-387.3l79.83 472.27c-354.79,-398.17 -297,-258.49 -569.85,-482.63 -434.84,285.72 -360.95,288.88 -861.5,534.65 -79.7,39.14 -291.43,77.44 -318.79,144.9l505.79 42.16z"/>
    <path class="fil0" d="M15908.83 5843.36l630.88 174.4c-155.78,110.73 -432.13,231.63 -441.21,310.48l1370.52 141.45 -248.99 -261.72c164.6,-117.32 737.96,37.1 804.52,595.76 15.92,133.67 -64.04,111.42 76.03,114.8 4.73,-223.61 180.85,-452.23 180.51,-637.8 -0.27,-140.05 -74.45,-502.64 -285.89,-521.7 11.26,129.71 170.81,513.61 57.81,669.2 -18.85,-22.18 -109.41,-262.64 -164.52,-351.62 -90.73,-146.52 -155.55,-180.86 -255.92,-293.34 -101.46,37.83 49.4,123.79 -170.01,70.3 -74.22,-18.08 -158.76,-41.45 -205.01,-52.33 -295.75,-69.53 -1108.07,-67.73 -1348.72,42.12z"/>
    <path class="fil0" d="M20376.47 7070.75l-1.42 276.46c-132.5,-62.24 -87.31,-227.5 1.42,-276.46zm-228.05 -29.34c1.73,-150.19 45.73,-269.4 164.98,-312.61 0.28,146.54 -83.83,219.73 -164.98,312.61zm141.52 -1587.89c-15.81,58.33 23.14,111.42 18.57,158.88 -5.3,55.01 17.94,20.9 -35.77,67.69 -45.78,39.89 -58.86,37.76 -61.28,27.35 -6.06,-26.17 10.99,-9.44 -12.39,-54.92 -14.38,-27.96 -42.38,-54.48 -127.04,10 -30.27,23.05 -86.14,86.55 -102.98,131.73 -23.55,63.18 17.07,632.6 28.24,660.49 151.37,-13.65 94.51,-134.94 140.74,-238.69 36.31,-81.46 177.62,-115.39 234.71,-161.17 7.65,99.52 26.85,283.78 71.24,363.39 -148.26,61.13 -231.67,157 -342,267.69 -91.68,91.96 -87.59,77.97 -86.57,233.29 0.58,87.79 4.78,215.62 123.9,145.94 -6.53,48.99 -85.32,125.47 86.62,341.41 72.76,91.39 170.97,243.56 251.37,266.17 48.43,-70.08 131.45,-454.14 131.45,-543.43 0,-199.1 -60.99,-352.32 -172.91,-526.24 53.05,-45.33 84.9,-83.8 134.58,-131.4 -117.5,-99.03 -63.77,-364.2 -82.37,-507.89 -12.84,-99.07 6.93,-185.19 -20.63,-274.52 -25.23,-81.74 -48.32,-135.52 -69.72,-225.4l-107.76 -10.37z"/>
    <path class="fil0" d="M20460.93 12062.48c109.08,-2.1 73.89,-15.66 168.6,-63.25l231.81 -231.9 21.07 -21.08c46.43,-91.32 192.82,-286.56 265.28,-409.25 86.51,-146.47 140.69,-414.08 198.37,-497.26l7.03 -112.46c54.18,-16.34 442.19,-28.75 537.07,-38.96 134.56,-14.48 349.08,-52.64 487.28,-81.75l692.41 -171.75c75.91,-17.35 145.28,-52.48 137.15,-128.52 -99.96,-36.42 -1197.17,184.48 -1440.59,225.11 -275.09,45.9 -279.6,19.95 -395.67,157.14 -13.08,-168.68 47.95,-429.05 -24.68,-586.67 -98.98,71.07 18.86,59.59 -81.21,141.65l-56.33 57.25c-39.98,56.82 -38.01,34.29 -46.63,92.35l124.42 36.07c-8.91,223.33 -33.97,119.67 -135.54,151.71l-109.3 207.96c170.57,14.06 97.93,-10.42 197.84,-30.25l-82.63 226.98c-45.21,-14.61 -63.21,-46.14 -125.94,-86.62l-110.05 130.01c174.79,110.34 67.63,74.67 213.24,45.86 -9.64,167.36 -99.4,198.49 -228.64,100.38l-131.05 82.89c62.82,154.22 96.69,69.61 173.21,106.86 -5.38,104.56 -24.57,110.26 -107.18,174.07l-145.51 -94.89 -127.34 101.94c128.98,96.65 148.23,59.29 211.43,92.93 -10.27,84.23 -17.25,78.73 -86.11,131.92 -100.63,-127.05 -100.48,-178.44 -235.43,-3.62l82.81 141.24 -79.19 153.91z"/>
    <path class="fil0" d="M21072.08 11535.43c-14.6,73.56 578.17,1037.54 664.89,1169.01 105.46,159.91 247.29,409.69 345.35,582.11 54.67,96.12 107.38,203.18 172.8,290.98 77.9,104.55 107.24,286.28 220.22,164.46 -56.27,-203.12 -796.17,-1427.48 -998.38,-1726.13 -68.58,-101.29 -285.67,-530.91 -404.88,-480.43z"/>
    <path class="fil0" d="M23425.33 12787.18c-2.51,-3.22 -1036.74,-634.02 -1160.19,-716.5 -189.72,-126.78 -373.4,-254.12 -551.52,-396.97 -87.7,-70.34 -172.52,-133.07 -259.63,-204.14 -20.48,-16.7 -298.41,-259.8 -215.79,-62.85 32.45,77.36 909.01,760.83 1036.87,843.77l873.09 539.04c95.37,48.45 223.39,147.03 277.17,-2.35z"/>
    <path class="fil0" d="M21346.06 10839.74c40.79,152.78 1167.9,732.71 1398.62,814.47 97.5,34.55 347.27,129.06 479.57,191.08 80.92,37.93 52.17,42.03 121.2,-27.1 64.43,-64.51 38.27,-53.42 -58.39,-104.59 -408.62,-216.4 -1855.7,-872.33 -1941,-873.86z"/>
    <path class="fil0" d="M20629.53 11999.23c60.78,254.26 215.71,1104.77 231.19,1349.8 5.19,82.04 37.07,455.5 68.86,500.39 113.71,1.35 81.87,-70.85 80.01,-183.98 -1.61,-98.68 -1.01,-197.48 -0.45,-296.18 1.85,-322.9 -132.25,-1128.92 -300.34,-1365.01l-79.27 -5.02z"/>
    <path class="fil0" d="M21367.13 9364.01c38.63,-82.38 -51.55,-411.22 -159.59,-557.13l-641.24 -1108.33 -105.37 0c17.64,65.82 70.3,149.93 101.35,214.86 35.51,74.27 68.17,148.63 97.21,218.97 90.26,218.63 396.18,628.91 580.95,1021.05 53.93,114.46 43.37,179.87 126.69,210.58z"/>
    <path class="fil0" d="M18943.56 6475.82c-55.41,-108.99 -160.34,-231.4 -267.47,-470.32 -22.04,-49.14 -24.88,-50.8 -48.64,-77.81l-126.46 0c14.9,172.52 219.77,394.97 -87.31,844.07 -51.7,75.61 -32.45,119.73 58.76,80 64.76,-28.2 100.16,-83.36 149.9,-128.06 76.41,-68.66 235.58,-191.86 321.22,-247.88z"/>
    <path class="fil0" d="M21303.72 11114.44c15.54,35.96 655.73,519.92 740.63,586.81 113.34,89.29 648.02,595.78 711.58,614.16l82.41 -67.03 -1423.85 -1198.63 -110.77 64.69z"/>
    <path class="fil0" d="M20882.41 11746.25l-21.07 21.08c9.84,36.44 541.67,875.11 659.47,1111.17 65.86,131.99 -5.75,111.58 141.36,111.58 -2.42,-127.39 -157.86,-370.04 -227.56,-489.14 -146.15,-249.73 -250.8,-494.07 -465.62,-777.14l-86.58 22.45z"/>
    <path class="fil0" d="M15129.07 2934.09l6.3 6.27c-0.43,-0.4 -8.4,-4.18 -6.3,-6.27zm-270.33 414.95l74.8 47.62c102.9,-115.94 124.58,-311.33 196.8,-422.41 33.09,75.04 -44.06,107.31 79.02,101.09 38.23,-94.97 29.51,-578.05 -37.9,-626.62 -77.75,30.34 -52.76,97.82 -75.54,198.24 -50.28,221.81 -136.93,493.82 -237.18,702.08z"/>
    <path class="fil0" d="M14454.68 3650.86c60.5,223.58 597.12,320.27 830.21,240.26 93.34,-32.06 74.11,-35.55 76,-113.77 -199.2,0 -511.69,-28.37 -693.33,-86.6 -87.74,-28.11 -133.19,-63.29 -212.88,-39.89z"/>
    <path class="fil0" d="M16955.32 8675.55c215.23,71.85 413.82,-35.87 596.19,-134.85 198.6,-107.81 137.24,-19.96 148.66,-125.36 -248.28,0 -173.2,-47.05 -426.67,36.91 -99.53,32.97 -355.84,96.01 -318.18,223.3z"/>
    <path class="fil0" d="M21451.43 10375.94c21.2,57.99 18.35,56.07 88.35,55.24l455.57 -59.26c119.14,-29.62 497.63,-110.42 509.81,-248.97l-795.41 174.09c-52.27,10.17 -94.44,14.4 -145.54,23.07 -110.94,18.8 -86.27,-7.35 -112.78,55.83z"/>
    <path class="fil0" d="M19096.56 6353.89c31.98,260.89 138.01,168.08 18.33,388.69 62.34,61.15 153.29,201.83 224.53,212.63 66.72,-68.65 78.49,-240.84 29.98,-313.66 -89.54,-134.4 -50.77,-238.28 -114.29,-328.91 -39.96,5.22 -110.71,7.53 -158.55,41.25z"/>
    <path class="fil0" d="M16841.52 7956.95c-3.05,189.67 484.65,110.46 604.95,57.29 101.49,-44.85 40.15,1.09 65.82,-64.52 -25.38,-30.75 -228.79,-135.82 -317.84,-104.08 -55.19,19.66 -101.75,49.75 -165.21,67.19 -86.49,23.77 -127.66,0.47 -187.72,44.12z"/>
    <path class="fil0" d="M19573.98 6220.1c23.28,78.9 86.51,142.95 127.42,214.39 47.38,82.71 66.28,183.24 166.7,186.16 -1.02,-34.28 -122.19,-392.81 -40.09,-588.53 29.42,-70.12 69.07,-84.61 49.21,-152.98 -89.04,-30.88 -127.36,93.08 -232.69,243.85 -33.02,47.27 -35.15,39.5 -70.55,97.11z"/>
    <path class="fil0" d="M19495.6 12400.24c-38.74,60.8 -66.5,76.44 -20.62,141.64 78.38,-20.12 64.41,-62.3 128.6,-81.61 46.55,-14 123.97,27.94 166.48,-181.56 3.34,-16.4 6.71,-81.63 6.6,-82.31 -8.11,-46.34 -65.15,-76.05 -116.11,-116.95 -301.21,255.74 -264.85,242.4 -164.95,320.79z"/>
    <path class="fil0" d="M18375.57 7025.98c87.71,133.68 84.21,290.29 230.8,293.11 37.38,-42.18 28.62,-36.78 52.25,-95.31 20.36,-50.46 24.24,-58.8 37.33,-110.52 23.85,-94.25 46.2,-165.02 -10.71,-231.48l-309.67 144.2z"/>
    <path class="fil0" d="M19655.7 6764.17c18.88,139.78 114.76,316.7 236.21,389.88 159.27,-255.59 68.15,-294.28 -142.1,-444.53l-94.11 54.65z"/>
    <path class="fil0" d="M18676.82 9188.13c37.62,31.06 78.82,34.84 126.97,31.02 74.4,-5.87 83.92,-10.33 123.2,-79.92 105.67,-187.33 -214.38,-262.74 -244.65,-246.49 -69.37,37.26 -38.57,254.35 -5.52,295.39z"/>
    <path class="fil0" d="M15134.48 3624.36c83.18,60.45 383.65,39 475.27,53.46 77.16,12.17 70.77,49.97 132.29,-25.16 -19.01,-48.56 4.78,-23.41 -36.66,-51.35 -15.58,-10.5 -55.94,-20.73 -78.49,-26.86 -62.49,-17.01 -109.76,-28.67 -180.82,-29.88 -104.72,-1.78 -291.43,-33.25 -311.59,79.79z"/>
    <path class="fil0" d="M17704.97 10211c-86.29,46.48 -25.34,143.36 47.21,181.57 310.43,163.5 232.64,-332.3 -47.21,-181.57z"/>
    <path class="fil0" d="M17949.44 7150.43c38.29,49.94 138.39,134.33 187.87,142.15 48.76,-61.7 98.4,-263.33 46.8,-312.61 -43.37,-41.42 -38.31,-23.04 -119.55,49.73 -60.57,54.27 -72.34,50.48 -115.12,120.73z"/>
    <path class="fil0" d="M17073.34 7081.77c147.57,149.69 216.53,26.68 184.69,-98.3l-63.66 -107.1 -80.81 2.29c-58.09,85.37 -52.51,98.58 -40.22,203.11z"/>
    <path class="fil0" d="M18040.97 10000.08c1.13,89.93 83.31,210.38 180.64,222.87 49.08,-48.6 84.34,-163.51 22.59,-223.91 -34.85,-34.08 -180.76,-22.15 -203.23,1.04z"/>
    <path class="fil0" d="M18361.91 10980.09c38.12,-62.03 26.33,-130.63 -72.05,-151.8 -59.63,-12.83 -114.39,31.26 -122.83,92.63 -16.03,116.59 100.81,212.27 194.88,59.17z"/>
    <path class="fil0" d="M18429.77 10624.81c123.58,93.64 241,-36.77 118.78,-135.07 -98.43,-79.16 -286.28,8.17 -118.78,135.07z"/>
    <path class="fil0" d="M17545.61 10166.74c53.67,-21.4 69.22,-66.01 -21.34,-143.83 -137.37,-118.02 -156.01,-32.21 -138.14,54.64 21.82,106.01 36.72,138.13 159.48,89.19z"/>
    <path class="fil0" d="M19947.91 12396.17c29.9,-40.62 45.18,-99.23 39.21,-138.08 -3.37,-21.83 -29.55,-94.4 -37.4,-105.86 -192.22,-18.43 -178.25,154.7 -1.81,243.94z"/>
    <path class="fil0" d="M18801.45 9506.17c53.71,53.87 74.6,78.35 149.33,54.81 38.5,-122.33 -191.84,-416.22 -149.33,-54.81z"/>
    <path class="fil0" d="M18539 11444.14c58.97,54.93 82.71,50.65 132.39,31.66 71.78,-27.45 70.45,-22 19.82,-97.07 -38.33,-56.87 -43.34,-67.57 -118.09,-46.67 -70.92,19.81 -90.7,59.34 -34.12,112.08z"/>
    <path class="fil0" d="M18644.17 11820.59c108.4,-27.54 69.77,-179.9 -59.32,-149.47 -142.26,33.54 -59.62,179.69 59.32,149.47z"/>
    <path class="fil0" d="M17893.61 9963.37c37.15,-21.29 15.62,-89.59 -36.26,-126.58 -92.93,-66.23 -253.66,13.12 -114.47,117.11 38.38,28.68 93.09,42.5 150.73,9.47z"/>
    <path class="fil0" d="M18751.15 10526.5c-142.74,17.85 -18.57,174.1 32.62,167.13 127.33,-17.34 90.6,-182.52 -32.62,-167.13z"/>
    <path class="fil0" d="M18447 10249.01c71.6,-44.39 49.78,-92.76 8.6,-124.1 -91.43,-69.58 -132.43,-29.32 -125.78,74.23 3.56,55.65 32.15,102.58 117.18,49.87z"/>
    <path class="fil0" d="M17173.3 10397.02c-30.56,-60.86 -66.25,-134.71 -122.18,-146.05 -110.57,-22.42 -81.39,64.59 -21.85,123.5 25.53,25.26 55.07,48.44 80.81,68.33l63.22 -45.78z"/>
    <path class="fil0" d="M18636.82 11020.95c78.18,-63.98 -101.71,-194.59 -146.34,-82.88 -26.34,65.91 39.4,170.35 146.34,82.88z"/>
    <path class="fil0" d="M19126.22 9269.55c-20.41,-145.76 -98.93,-120.41 -115.41,-22.36 -20.72,123.4 139.17,191.9 115.41,22.36z"/>
   </g>
  </g>
 </g>
</svg>
