<?xml version="1.0" encoding="UTF-8"?>
<!DOCTYPE svg PUBLIC "-//W3C//DTD SVG 1.1//EN" "http://www.w3.org/Graphics/SVG/1.1/DTD/svg11.dtd">
<!-- Creator: CorelDRAW 2017 -->
<svg xmlns="http://www.w3.org/2000/svg" xml:space="preserve" width="320mm" height="150mm" version="1.1" style="shape-rendering:geometricPrecision; text-rendering:geometricPrecision; image-rendering:optimizeQuality; fill-rule:evenodd; clip-rule:evenodd"
viewBox="0 0 32000 15000"
 xmlns:xlink="http://www.w3.org/1999/xlink">
 <defs>
  <style type="text/css">
   <![CDATA[
    .fil0 {fill:#D7B56D}
   ]]>
  </style>
 </defs>
 <g id="Слой_x0020_1">
  <metadata id="CorelCorpID_0Corel-Layer"/>
  <g id="_2737090484080">
   <g id="_1599802805392">
    <path class="fil0" d="M6985.58 1119.15c326.31,201.29 628.12,-39.01 1317.61,959.76 293.03,424.46 627.85,1001.3 772.53,1480.24 -239.1,-56.74 -323.4,-204.61 -562.44,-215.97 41.36,196.41 572.35,974.96 725.18,1141.07l-425.72 -19.38c208.96,706.79 421.09,554.87 -39.29,1336.25 -289.84,491.95 -426.61,710.94 -570.9,1271.91 -148.23,576.25 -177.16,1062.1 -178.6,1667.33 -0.57,243.56 -4.3,1506.32 178.59,1727.81 138.98,-3852.54 481.17,-2534.61 1671.15,-5337.52 524.38,883.09 68.46,789.21 1113.27,1345.61 -421.64,342.36 -637.2,206.73 -1101.32,143.22 150.04,431.68 655.41,472.84 1059.94,471.39 -111.24,247.06 -523.1,502.09 -583.14,668.56 404.3,-176.04 818.7,-442.78 1225.86,-624.26 814.88,-363.22 875.68,-204.68 1634.57,-11.55 -391.52,-600.86 -1491.76,-864.95 -2000.28,-1407.09 -239.73,-255.59 -306.12,-496.93 -466.36,-716.76 -98.67,142.52 -88.45,308.18 -129.98,503.28 -503.09,-661.72 -629.71,-734.4 -866.21,-1829.96 -180.1,-834.26 -203.53,-1455.12 -463.19,-2298.49 761.39,79.05 1997.12,1185.06 2996.86,1334.76 -96.56,-193.37 -2084.51,-1469.91 -2421.24,-1662.43 -977.54,-558.9 -2083.15,-1032.75 -2886.89,72.22z"/>
    <path class="fil0" d="M20201.96 2707.31c1017.54,-125.35 2178.19,-1253.2 3028.13,-1334.26 -556.61,1412.8 -186.96,2944.31 -1340.04,4151.99l-112.72 -527.98c-418.53,650.5 -379.99,798.74 -1110.21,1193.42 -358.83,193.95 -1193.14,614.06 -1384.17,933.42 1545.5,-467.07 1592.5,140.35 2847.47,636.31 -56.54,-202.59 -362.45,-371.02 -503.05,-571.35 -71.32,-101.61 -21.17,3.69 -50.5,-94.96 400.75,1.94 904.03,-18.53 1023.93,-467.19 -491.92,77.57 -639.44,203.28 -1092.94,-155.93 361.18,-178.35 504.58,-99.36 728.2,-508.8 145.27,-265.97 242.72,-605.27 391.98,-838.24 195.04,416.32 294.89,736.7 546.31,1164.19 230.08,391.25 470.45,700.39 662.42,1126.71 537.2,1193.09 381.06,1828.74 448.15,3054.77 307.09,-330.56 193.55,-2723.68 40.83,-3355.31 -133.38,-551.65 -272.41,-820.97 -557.53,-1294.17 -458.89,-761.54 -319.69,-624.4 -94.17,-1339.04l-399.66 55.84c136.38,-437.28 597.37,-755.29 700.14,-1186.66 -222,32.17 -298.09,184.14 -551.91,219.34 155.33,-510.7 477.33,-1045.28 776.22,-1484.82 625.15,-919.36 822.09,-770.29 1311.02,-933.06 -582.95,-1142.45 -2044.15,-575.68 -2882.9,-94.89 -258.46,148.14 -2371.34,1554.98 -2425,1650.67z"/>
    <path class="fil0" d="M16247.65 5665.85c384.7,-192.43 589.8,-412.02 1092.5,-590.66 1028.28,-365.4 2773.77,-968.6 3174.92,-2069.04 -551.41,267.43 -460.13,542.51 -1848.09,951.31 -809.15,238.32 -1614.54,302.43 -2479.27,286.19 -3181.76,-59.74 -3586.36,-1037.16 -4238.68,-1285.01 182.89,661.4 1244.35,1356.96 1879.82,1590.5 1183.97,435.13 1377.85,540.13 2418.8,1116.71z"/>
    <path class="fil0" d="M13276.07 8278.36c76.01,-95.27 97.27,-122.68 233.96,-100.32 60.28,9.85 88.6,42.37 93.79,117.22 8.06,116.42 -71.3,260.96 -191.75,213.2 -82.01,-32.5 -211.25,-135.79 -136,-230.1zm620.86 240.22c148.04,170.46 214.96,241.59 267.34,467.13 -318.05,518.44 -1389.48,898.73 -1907.79,462.92 -558.76,-469.81 -648.42,-1706.37 348.93,-1555.56 -687.65,762.79 208.49,1539.6 912.36,1165.13 267.73,-142.44 263.73,-349.62 379.16,-539.62zm-3104.94 -554.09c395.23,250.67 407.51,41.34 624.47,597.03 688.58,1763.54 1081.85,1261.14 2274.29,1168.85l-609.73 282.14c749.7,141.93 1232.17,-303.68 1624.13,-658.43 -82.33,-792.76 -674.49,-1766.46 -1404.05,-2083.4 -840.06,-364.92 -1965.08,30.23 -2509.11,693.81z"/>
    <path class="fil0" d="M19531.43 8271.2c105.72,-169.15 214.14,-79.81 269.21,57.31 71.71,178.48 -81.97,232.34 -192.27,190.35 -90.38,-34.39 -145.29,-138.29 -76.94,-247.66zm324.16 -376.11c981.81,-225.93 970.87,1100.34 426.3,1538.29 -576,463.25 -1576.46,51.91 -1955.42,-449.73l254.46 -496.06c805.61,1637.62 2174.76,-11.27 1274.66,-592.5zm-472.59 2134.43l-596.09 -282.51c717.49,44.03 1270.16,385.53 1852.74,-317.72 170.53,-205.86 320.72,-578.78 419.62,-837.96 206.36,-540.78 240.73,-386.53 621.84,-626.64 -740.38,-976.59 -2316.48,-1135.2 -3134.81,-205.43 -234.65,266.61 -795.6,1245.51 -734.77,1562.55 78.67,409.96 1131.54,795.77 1571.47,707.71z"/>
    <path class="fil0" d="M18488.08 6285.24l204.9 -577.04c-464.96,205.9 -1883.6,2779.46 -3811.87,998.66 -227.88,-210.45 -820.38,-905.46 -1017.88,-1007.33 10.47,286.26 115.42,328.43 151.62,569.05 -859.05,-317.96 -1298.02,-762.9 -1619.85,-879.38 440.42,658.83 1058.22,910.12 1388.62,1205.66l-613.92 -6.77c305.23,231.89 1153.79,493.31 1603.52,770.37 2011.84,1239.38 906.44,1329.89 2908.66,78.96 263.45,-164.59 1558.8,-779.71 1612.4,-837.24l-562.97 24.2c271.35,-318.53 1261.35,-780.71 1375.16,-1259.56 -470.01,308.76 -1058.73,829.97 -1618.39,920.42z"/>
    <path class="fil0" d="M17801.53 13153.01c713.42,-599.84 1102.45,-827.69 2109.11,-822.59 -242.39,-250.79 -628.44,-185.44 -973.15,-199.58 809.32,-554.7 1107.18,-130.81 1391.03,-317.69 -1019.2,-205.46 -1505.21,-269.49 -2281.29,510.64 -1437.17,1444.69 -1731.71,1984.94 -3590.93,-9.17 -797.33,-855.19 -1267.23,-655.07 -2291.27,-496.3 116.41,78.25 270.82,51.75 392.1,44.51 384.49,-22.93 735.25,1.66 1002.71,273.66 -319.54,16.66 -677.22,-9.54 -944.32,172.76 299.48,118.82 776.51,49.19 1188.98,243.26 377.72,177.72 1359.91,923.54 1630.39,1229.5 120.29,136.07 608.08,565.14 757.59,668.29 290.66,-91.99 1307.99,-1044.15 1609.05,-1297.29z"/>
    <path class="fil0" d="M23165.92 8501.5c-48.6,25.98 -33.26,17.77 -98.09,36.11 -203.32,57.53 85.66,-41.85 -98.45,22.94 -0.44,371.27 70.83,662.96 240.19,974.5 -428.1,-16.96 -229.72,383.8 -343.35,1310.17 -217.14,-101.49 -88.43,-116.3 -246.94,-94.12 -267.21,421.1 -478.39,697.04 -654.18,1142.41l-214.66 -260.07c-568.22,678.09 -544.34,646.27 -1293.62,1064.5 247.05,8.87 667.01,-142.4 934.8,-189.91 414.5,-73.56 784.41,-7.87 1177.52,-92.71l-166.85 -181.92c109.65,-157.46 231.56,-336.77 333.48,-474.98 181.89,-246.67 172.71,-297.51 408.39,-177.14l183.6 -1075.01c79.14,0.71 177.91,113.58 210.75,-10.83 143.38,-543.1 150.5,-869.56 -66.36,-1402.09 8.42,-5.26 24.11,-21.05 27.28,-12.04l59.01 -19.44c33.5,-8.24 3.02,12.64 105.76,-20.05 -40.45,-804.81 -427.09,-1561.09 -1233.2,-1753.34 87.6,214.09 269.69,337.4 421.87,574.92 151.26,236.07 215.04,376.42 313.05,638.1z"/>
    <path class="fil0" d="M9041.81 9096.98c-222.12,493.65 -204.48,862.52 -88.74,1371.01 23.1,101.47 66.29,88.59 129.72,74.93 12.64,-2.73 80.44,-14.77 91.66,-12.62l169.95 1046.39c312.58,-156.56 253.31,-7.07 748.04,642.13l-175.68 190.63c383.97,82.99 738.69,32.24 1132.49,95.84 262.61,42.4 786.15,197.03 991.6,195.96 -1445.11,-919.12 -472.4,-283.22 -1308.46,-1064.23l-180.65 251.74c-184.39,-456 -462.89,-764.37 -634.5,-1127.24 -55.88,-118.17 -220.6,49.24 -285.52,81.08 -44.93,-455.8 -34.95,-778.24 -117.3,-1279.15 -231.49,-112.78 -84.47,-17.16 -208.71,-15.5 78.69,-182.62 199.67,-439.93 225.43,-636.13 108.26,-824.25 -334.78,42.66 -134.04,-572.31 139.73,-428.08 518.05,-732.49 650.56,-1047 -772.98,267.94 -1075.78,893.29 -1196.93,1690.49 -2.56,16.77 -4.93,29.7 -6.18,39.75 -4.31,34.68 141.1,55.33 197.26,74.23z"/>
    <path class="fil0" d="M16299.43 9950.26c80.26,47.71 88.92,29.22 174.24,169.73 47.39,78.02 63.13,127.33 86.56,213.56 192.52,708.67 -198.94,1598.67 -227.67,1530.27 -3.9,-9.31 -19.26,22.62 -51.99,33.02l18.86 -1946.58zm-52.07 3507.53c223.84,-325.54 520.33,-1571.46 577.77,-2009.8 81.77,-624.08 116.89,-1711.54 -578.9,-1957.32 -654.33,390.8 -656.81,1252.08 -553.09,1953.16 66.45,449.11 339.34,1687.43 554.22,2013.96z"/>
    <path class="fil0" d="M17660.32 7799.95c-199.04,143.35 -315.52,435.52 -656.28,691.45 -80,-222.83 47.99,-143.41 -92.9,-354.69 -598.52,1191.42 -1251.65,51.49 -1344.25,-19.75l-19.58 348c-400.01,-207.55 -436.9,-495.7 -713.35,-666.92 147.52,505.71 866.71,1556.85 1413.15,1561.46 517.93,4.37 1371.95,-1056.22 1413.21,-1559.55z"/>
   </g>
  </g>
 </g>
</svg>
