<?xml version="1.0" encoding="UTF-8"?>
<!DOCTYPE svg PUBLIC "-//W3C//DTD SVG 1.1//EN" "http://www.w3.org/Graphics/SVG/1.1/DTD/svg11.dtd">
<!-- Creator: CorelDRAW 2017 -->
<svg xmlns="http://www.w3.org/2000/svg" xml:space="preserve" width="320mm" height="150mm" version="1.1" style="shape-rendering:geometricPrecision; text-rendering:geometricPrecision; image-rendering:optimizeQuality; fill-rule:evenodd; clip-rule:evenodd"
viewBox="0 0 32000 15000"
 xmlns:xlink="http://www.w3.org/1999/xlink">
 <defs>
  <style type="text/css">
   <![CDATA[
    .fil0 {fill:#D7B56D}
   ]]>
  </style>
 </defs>
 <g id="Слой_x0020_1">
  <metadata id="CorelCorpID_0Corel-Layer"/>
  <g id="_2737083594208">
   <g id="_1599866304112">
    <path class="fil0" d="M16466.46 14482.06c51.15,-118.6 128.55,-42.17 235.33,-148.17 180.79,-179.47 361.78,-400.39 517.35,-620.47 40.25,-90.89 95.74,-138.52 145.63,-217.44 90.3,-142.83 188.34,-182.5 297.48,-296.22 315.66,-328.88 992.23,-491.88 1192.18,-906.92 55.92,-116.08 70.85,5.03 146.51,-104.59 -4.21,-106.63 -90.98,-88.42 -98.74,-230 -29.4,-536.99 -31.62,-910.79 -394.24,-1350.48 -58.35,-70.75 -269.94,-303.2 -346.11,-324.22 -40.18,24.45 -57.93,66.52 -71.1,109.89 235.24,239.46 357.32,316.73 515.6,642.43 134.86,277.51 183.6,681.82 146.7,986.85 -62.13,513.52 -514.57,617.23 -919.33,804.23 -132.58,61.24 -244.16,186.22 -344.32,232.69 -6.61,-419.36 680.33,-927.11 594.25,-1532.85 -90.86,-639.32 -534.28,-814.69 -1085.96,-1027.04 -752.58,-289.69 -542.69,-311.58 -767.02,-632.2l-111.21 36.84c-15.57,218.15 240.64,454.99 417.8,546.23 413.79,213.12 963.27,301.38 1242.48,696.78 347.98,492.79 50.87,965.74 -232.02,1391.47 -335.35,504.68 -129.11,565.87 -175.51,724.8 -20.02,68.59 -760.63,1013.98 -845.26,1075.48 19.72,-102.26 76.06,-211.59 102.68,-318.28 39.57,-158.6 37.77,-165.73 121.91,-303.65 383.17,-627.98 650,-1165.21 174.89,-1868.1 -345.96,-511.83 -799.04,-911.45 -1066.86,-1470.07 -170.25,-355.11 -65.01,-385.54 -18.63,-649.15 -364.52,-195.7 -794.71,-512.52 -1130.56,-774.03 -223.31,-173.89 -845.07,-738.96 -929.45,-981.74 28.21,-88.06 158.26,-232.09 221.13,-308.16 231.03,-279.54 159.1,-84.79 315.99,-210.6 109.36,-87.7 151.31,-266.32 89.76,-393.1 -79.73,-164.24 -213.01,-160.8 -371.05,-158.47 28.72,-164.91 289.87,-605.89 411.3,-767.57 45.06,-60 170.36,-167.33 186.98,-200.98 -34.45,-44.37 -50.58,-48.89 -103.5,-70.92 -229.45,186.53 -396.29,501.81 -525.7,765.72 -34.93,71.24 -73.28,146.28 -102.92,220.77 -42.6,107.03 3.89,205.03 -50.21,274.13 -51.11,65.25 -288.63,239.77 -355,277.23 -42.53,-91.65 -128.3,-820.5 -155.12,-992.58 -56.89,-364.96 -64.09,-668.79 4.72,-1021.04 34.09,-174.5 365.28,-523.49 508.51,-625.55 250.32,-178.36 544.07,-255.5 846.69,-277.34 37.11,-42 48.5,-70.1 57.13,-122.47 -328.01,-44.36 -555.77,71.91 -842.23,189.08 -114.13,46.69 -229.8,127.33 -308.12,218.26 -61.92,71.9 -170.64,238.74 -237.34,283.12 13.81,-225.34 186.91,-723.17 266.66,-954.01 109.05,-315.63 210.99,-533.05 402.7,-805.08 153.57,-217.91 403.25,-430.65 611.09,-596.4 127.24,-101.47 663.15,-384.18 811.92,-373.71 331.57,336.43 735.05,452.53 1139.13,463.78 339.99,9.46 675.99,-37.57 1013.93,-265.99 95.22,25.49 372.55,300.05 371.92,427.34 -56.3,31.9 -142.42,64.16 -161.88,128.78 -39.74,132.03 7.32,151.54 115.43,176.23 51.78,-52.34 68.9,-101.28 159.59,-92.88 54.41,225.77 -150.04,121.6 -246.65,286.42 -139.34,237.74 93.6,580.17 190.25,791.71 116.94,255.94 161.6,178.13 257.67,269.87 -120.42,104.9 -284.82,19.37 -598.56,422.37 -57.93,74.41 -168.33,249.92 -250.89,279.27 -142.62,50.69 -284.17,-41.95 -403.86,-108.25l-99.9 81.1c66.42,100.63 189.99,123.23 297.27,164.14 133.6,50.94 146.8,111.73 229.49,210 232.15,275.91 167.66,299.36 565.51,344.93 -153.42,125.18 -703.47,249.93 -916.51,290.82 -348.6,66.91 -765.91,54.6 -1116.76,3.44 -381,-55.56 -1038.5,-219.6 -1202.05,-623.43 -94.51,-233.38 -30.49,-264.07 39.57,-461.76l-95.09 -77.86c-182.05,171.79 -142.35,556.44 7.26,738.46 178.98,217.76 319.54,300.63 590.58,400.19 284.85,104.65 502.51,141.02 801.5,186.88 326.76,50.12 609.83,27.21 934.99,23.43 -135.15,68.73 -409.01,209.09 -409.72,378.3 -91.65,15.88 -169.01,16.07 -202.52,124.53 190.36,42.27 415.71,46.39 607.74,74.59 207.43,30.45 313.43,56.12 438.52,223.46 218.05,291.67 234.81,681.12 318.27,1014.93 -125.94,-1.91 -125.32,-34.65 -216.88,-61.41 -107.23,-31.33 -121.02,50.83 -218.21,-17.85 -119.16,-84.2 -27.83,-96.38 -368.12,-157.46 -408.4,-73.32 -351.5,-277.53 -442.89,-629.48 324.13,127 451.42,503.1 566.97,601.08 48.92,-15.29 80.93,-25.42 116.93,-62.97 -97.71,-258.4 -343.01,-517.56 -577.31,-649.73 -45.85,-25.87 -91.08,-46.29 -135.77,-69.06 -51.83,-26.4 -67.5,-57.94 -98.57,-69.16 226.79,43.24 338.48,81.6 547.21,169.07 202.83,84.99 270.81,165.36 345.92,367.15 350.82,38.12 -80.37,-390.51 -224.32,-491.29 -139.96,-97.98 -216.76,-86.49 -372.54,-121.49 -112.99,-25.38 -295.45,-90.89 -390.98,-103.58 -23.19,52.22 -18.27,48.24 -48.89,97.17l-122.64 -10.04c63.4,-271.62 148.49,-116.94 290.78,-219.92 -80.66,-179.53 -265.03,-126.48 -371.23,-2.56 -155.74,181.73 -44.82,283.65 -14.53,443.68 -165.04,204.01 -202.82,274.41 -267.04,534.16 -44.84,181.32 -99.25,518.13 -69.59,700.59 77.63,477.63 508.84,780.86 604.48,963.54l-298.84 86.3c21.47,184.25 219.75,76.14 363.25,45.18 153.53,-33.15 307,-68.61 460.69,-101.91 213.84,-46.32 800.57,9.88 1014.06,81.99 270.61,91.41 549.7,163.99 787.74,334.81 723.42,519.14 1219.45,858.84 1663.18,1689 84.05,157.24 7.53,267.24 -148.37,323.25l-819.64 304.65c-336.7,133.39 -257.74,111.39 -374.8,65.2 -22.73,67.84 -41.94,92.1 -18.41,160.42 138.06,46.49 343.84,-71.15 490.16,-107.18 299.01,-73.62 608.66,-172.47 870.44,-344.39 468.25,-307.53 -43.74,-881.12 -290.3,-1148.9l-605.68 -566.42c98.89,-62.94 226.56,-102.95 229.68,-264.58 2.45,-125.85 -120.43,-206.72 -197.7,-284.25 161.85,-14.79 250.37,188.33 571.45,83.44 224.77,-73.43 307.21,-191.43 310.9,-426.08 231.39,-111.03 490.01,-445.06 166.59,-618.45 -791.33,-424.22 -1704.96,-674.9 -2568.3,-339.33 59.2,-391.83 81.4,-167.75 -37.04,-593.56 -190.4,-684.5 -320.74,-1003.26 -1120.03,-1029.44 56.92,-66.02 176.76,-138.59 263.29,-200.32 310.8,-221.72 172.17,-64.44 241.11,-216.1 102.7,-13.36 98.44,56.02 147.86,156.31 208.36,422.87 455.52,618.32 877.77,828.37 380.15,189.1 687.03,225.17 1093.77,42.9 186.84,-83.72 336.06,-101.48 528.81,-152.48 183.56,-48.57 329.09,-143.98 522.9,-156.32 348,-22.16 292.99,110.52 494.92,179.91 45.17,-32.32 72.43,-70.39 80.16,-120.75 -83.67,-73.18 -77.57,-12.6 -122.4,-159.75 -22.68,-74.46 -42.76,-150.21 -66.72,-224.19 -140.13,-432.69 -548.89,-706.76 -1009.66,-678.99 -959.77,57.84 -1254.27,366.73 -1937.47,71.83 114.47,-38.26 423.57,-242.88 536.27,-328.35 346.56,-262.85 678.91,-644.5 621.24,-1119.74 -19.99,-164.67 -158.92,-495.75 -267.15,-614.61l-102.29 43.13c-15.93,166.08 322.8,391.15 210.86,874.59 -54.91,237.17 -303.6,534.36 -484.18,660.97 -37.47,-50.65 -45.02,-150.86 -54.9,-218.18 -11.03,-75.08 -28.65,-148.3 -19.66,-221.45 103.28,-88.16 171.67,-67.55 240.46,-216.93 198.5,-431.05 -257.03,-505.18 -432.71,-821.78 193.29,-32.74 266.97,-12.11 346.77,-216.24l95.16 -11.17c-37.34,-54.79 -113,-105.38 -141.45,-166.87 -21.16,-45.72 -60.86,-173.77 -74.87,-225.45 73.59,-37.31 72.72,-25.34 116.58,-100.18 -29.95,-104.05 -43.58,-7.54 -42.62,-153.34 -45.28,-30.01 -18.1,-14.49 -82.29,-24.63 8.74,-87.73 19.88,-68.87 -87.41,-130.65l-50.47 67.57c-41.68,-73.65 -51.54,-206.78 -90.11,-298.42 -145.52,-345.76 -518.11,-504.52 -549.8,-610.16 -28.21,-94 115.47,-498.13 143.34,-629.27l55.35 -333.33c36.53,-248.85 293.58,-97.76 143.03,-342.29 -63.59,-103.29 -214.59,-171.73 -314.17,-83.73 4.36,87.49 41.81,70.14 27.05,145.57l-180.97 386.02c-60.02,-150.18 47.95,-196.09 5.23,-297.27 -39.32,-93.13 -99.18,-194.96 -215.3,-153.74 -120.34,98.87 -15.84,170.51 -38.01,303.91 -224.95,10.01 -183.67,-349.3 -181.19,-500.9 37.96,-19.47 130.94,20.62 104.82,-118.24 -23.83,-126.55 -108.56,-174.75 -214.82,-181.23 -78.24,-4.76 -129.83,2.42 -113.43,101.7 16.88,102.08 151.65,147.83 -56.82,472.7 -81.97,127.76 -327.55,419.5 -448.35,163.2 33.57,-84.46 97.78,-163.95 14.6,-250.76 -68.96,-71.97 -159.33,-53.94 -212.45,27.36l-41.65 -254.38c52.93,-27.09 117.72,-5.65 122.25,-97.33 9.36,-189.26 -367.58,-213.88 -412.27,-122.77 -25.64,83.85 46.75,109.6 70.51,157.43 -35.84,126.34 -136.16,572.52 -214.46,626.64 -52.52,-61.13 -79.69,-190.06 -108.15,-270.54 100.75,-69.22 56.95,-136.23 -3.57,-219.78 -51.59,-70.16 -102.93,-89.65 -193.28,-92.2 -104.24,-2.93 -164.51,23.22 -129.81,137.56 21.26,70.06 84.92,66.16 113.05,179.2 28.44,114.28 52.93,233.13 79.25,347.99 30.22,131.85 115.58,599.11 92.72,746.28 -225.54,123.58 -497.11,144.27 -813.8,345.81 -105.95,67.42 -232.96,169.81 -327.37,251.41 -88.53,76.54 -216.36,207.46 -300.74,266.13 -135.43,-67.88 -312.89,-221.1 -494.63,-312.22 -589.07,-295.35 -1286.31,-123.18 -1791.78,268.79 -347.26,269.29 -497.55,512.8 -676.53,905.51 -105.01,230.4 -325.92,820.06 -301.34,1091.98 5.95,65.8 33.77,49.6 96.53,82.33 54.39,-20.96 7.05,25.54 49.51,-48.63 43.39,59.48 11.82,44.82 77.84,67.97 213.47,-566.44 320.57,-1192.05 890.87,-1535.79 212.09,-127.83 677.72,-328.69 924.05,-304.84 223.69,21.67 635.6,264.03 765.42,447.03 -122.97,307.83 -190.04,325.76 -291.52,726.33 -250.1,-60.17 -320.39,-70.35 -566.05,47.04 -357.9,171.02 -605.97,424.54 -584.46,839.36 6.62,127.73 60.75,470.12 112.76,581.67l119.75 -18.58c1.77,-99.89 -81.92,-372.05 -95.36,-512.89 -17.96,-188.12 7.1,-329.23 111.76,-476.42 104.96,-147.6 643.02,-493.47 795.44,-298.32 87.66,112.24 -80.54,800.94 -76.52,1083.33 0.96,66.88 8.54,252.69 -3.63,308 -44.6,202.7 -209.61,18.28 -113.02,719.06 -215.25,-83.44 -119.89,-135.25 -242.78,-192.99 -112.66,29.92 -115.72,130.2 -201.02,171.76 -64.59,-70.72 -218.28,-307.25 -281.9,-403.44 -314.32,-475.28 -464.82,-665.82 -287.87,-1255.12 30.53,-101.7 73.48,-156.75 101.57,-249.21l-97.28 -80.61c-106.53,139.52 -218.18,492.01 -226.65,675.78 -10.4,225.87 39.21,256.67 50.2,397.43 5.75,73.61 -33.77,72.84 -64.03,144.09 -24.28,57.18 -33.15,111.03 -64.59,167.36 -199.54,-17.84 -336.83,-138.3 -495.12,-250.56 -106.98,-75.88 -435.64,-177.13 -559.15,-164.05l1.04 126.19c227.05,49.54 377.35,78.07 568.35,216.89 159.73,116.09 364.97,257.88 577.36,187.61 66.56,-74.75 -3.84,-98.09 107.85,-172 59.05,44.83 321.56,414.43 380.88,499.64 108.95,156.51 285.36,492.43 460.52,176.3 81.79,74.61 337.98,291.73 402.25,114.44 65.97,-182.01 -97.85,-423.42 1.65,-602.68 32.18,65.1 212.78,1291.04 204.27,1370.86 -56.21,127.71 -482.48,343.41 -576.36,939.5 -103.28,655.83 228.33,1127.58 596.59,1612.95 109.18,143.9 227.35,260.67 332.92,416.08 116.28,171.21 207.28,292.77 247.76,503.03 21.75,112.89 74.44,555.45 102.21,610.24 101.15,20.32 298.31,-50.1 378.79,-120.04 75.88,-65.94 160.08,-223 199.85,-314.65 135.69,-312.69 58.39,-514.75 -43.53,-807.14 5.48,26.06 160.24,179.09 206.3,191.56 52.22,-41.15 28.83,-37.76 57.09,-81.18 37.82,-58.11 23,-16.89 74.76,-67.41 -26.69,-611.36 34.54,-889.62 -441.78,-1308.03 -146.03,-128.26 -354.59,-258.91 -459.49,-408.68 -110.6,-157.91 -320.53,-323.18 -298.1,-537.49 66.56,75.84 127.35,177.09 199.12,261.59 193.08,227.34 429.39,483.86 664.39,663.86 187.05,143.26 983.52,592.26 1066.46,700.58 54.04,147.94 -218.71,267.68 285.32,1029.1 181.48,274.17 400.68,520.72 594.69,785.45 233.86,319.12 435.34,446.04 488.91,888.71 27.36,226.13 -16.53,388.65 -98.77,594.05 -30.67,76.58 -128.74,248.47 -183.03,365.38 -120.25,258.91 -273.13,398.1 -292.22,864.21 -1.58,38.44 7.15,96.33 7.22,152.86zm2886.74 -4342.5c-193.43,-220.03 -269.05,-272.96 -539.74,-400.66 -117.17,-55.27 -549.47,-296.02 -623.65,-283.48 349.29,-34.7 927.17,-65.3 1145.62,255.86 214.02,314.65 359.36,206.16 17.77,428.28zm-3071.29 -1065.14c447.32,-42.72 606.83,-115.3 1014.59,-274.83l941.55 -352.26c725.03,-191.73 1447.46,12.28 2101.95,329.89 82.49,40.03 153.25,54.37 169.46,154.31 17.58,108.3 -14.27,159.52 -90.18,230.37 -99.61,92.98 -104.12,71.22 -201.24,25.51 -79.84,-37.57 -188.56,-31.09 -276.65,-47.28 -321.49,-59.06 -662.17,-266.39 -981.2,-314.95 -325.65,-49.58 -834.31,-19.53 -1143.09,85.51 -467.07,158.91 -1078.09,172.42 -1113.4,185.18l-13.9 109.47c314.28,92.1 1430.06,-239.87 1856.28,-266.68 581.02,-36.54 954.54,252.94 1260.2,320.99 103.5,23.04 336.06,47.05 418.78,103.32 25.15,94.74 -159.59,254.92 -255.24,288.29 -131.05,45.71 -285.72,-80.51 -434.51,-101.02 -219.71,-30.27 -223.31,-88.68 -402.58,-164.78 -373.37,-158.48 -1152.89,-60.8 -1568.86,-77.24 -182,-7.19 -362.67,-27.4 -545.65,-21.35 -138.03,4.57 -334.18,58.39 -473.81,86.47 -45.68,-39.73 -83.96,-115.86 -130.49,-163.39 -47.19,-48.18 -97.64,-80.99 -132.01,-135.53zm-107.71 -138.82c-64.8,-97.59 -141.03,-317.43 -172.09,-437.14 -79.2,-305.22 -21.33,-706.44 74.26,-1008.7 12.91,-40.82 89.64,-155.64 120.68,-182.57l174.65 -108.24c108.16,97.25 137.77,376.67 161.2,527.44 73.35,472.04 849.5,440.86 900.27,463.12 45.79,20.08 153.71,92.94 219.74,125.32 93.93,46.07 177.17,58.66 248.77,93.41 -225.07,125.16 -556.13,218.85 -807.87,323.47 -297.99,123.82 -580.09,228.16 -919.61,203.89zm-2007.2 2517.5c-32.4,-69.4 -86.94,-460.42 -105.91,-568.32 -65,-369.79 -608.62,-856.3 -808.57,-1203.14 -179.52,-311.37 -341.11,-547.27 -350.39,-990.71 -8.1,-386.98 295.23,-860.89 414.51,-896.46 -0.32,10.69 -132.45,343.07 -147.81,452.95 -70.31,503.09 196.13,946.98 450.3,1372.33 210.77,352.71 801.7,1366.59 722.31,1759.78l-174.44 73.57zm-760.29 -3515.93c67.98,-148.28 205.63,-329.22 319.43,-444.3 228.78,-231.38 262.35,-192.46 447.23,-310.13l-41.89 -109.5 -98.5 4.5c143.1,-151.57 344.87,134.33 210.99,247.78l-44.67 -107.91c-59.84,15.16 -489.82,590.53 -539.35,684.62 -132.36,251.46 -0.36,728.1 192.89,921.95 111.35,111.69 229.71,183.09 359.52,272.59 71.47,49.29 291.21,209.8 343.59,268.1 215.24,239.55 253.87,702.22 236.11,1010.03 -33.85,-18.22 -263.83,-237.61 -312.68,-286.27 -219.52,-218.7 -486.91,-865.1 -652.74,-1142.14l-112.18 66.77 527.79 1056.24c198.78,290.14 488,799.91 232.11,1143.99 -33.9,-92.68 -24.5,-234.43 -164.42,-593.89 -145.11,-372.81 -603.37,-1128.89 -781.7,-1502.39 -211.12,-442.17 -349.98,-681.82 -121.53,-1180.04zm4519.47 -1655.71c366.63,144.43 422.64,132.76 813.96,103.01 313.82,-23.85 553.37,-102.44 850.23,-141.86 389.01,-51.66 864.81,-9.19 1052.82,388.45 26.26,55.52 141.53,286.1 150.72,321.29 -138.47,-9.32 -181.42,-39.19 -343.85,-21.08 -220.28,24.56 -824.19,244.78 -928.88,249.69l-52.34 -118.99c-99.36,-5.24 -395.94,34.15 -571.97,21.64 -270.13,-19.21 -560.46,-257.32 -727.61,-462.55 -74.62,-91.6 -263.67,-218.28 -243.08,-339.6zm-398.34 28.11c37.95,-32.65 192.65,-92.76 244.72,-73.61 60.73,132.78 -77.26,184.94 -14.34,370.1 19.05,56.07 139.56,227.57 166.83,251.91 -13.33,-25.58 -167.4,-157.85 -221.28,-247.04 -62.02,-102.66 -113.78,-200.78 -175.93,-301.36zm13.63 -927.27c156.88,-31.95 261.24,-5.05 404.93,35.72 202.18,57.35 129.4,-120.6 264.49,-158.74 28.49,30.69 90.42,338.55 75.98,390.26 -63.45,91.46 -397.52,106.76 -489.71,49.19 -47.19,-29.46 -241.03,-259.45 -255.69,-316.43zm129.53 -169.53c19.84,-86.72 276,-358.9 388.16,-434.61 161.9,-109.28 510.12,-240.01 453.47,110.73 -82.9,-3.23 -51.67,-22.97 -113.08,-39.49 -80.93,109.55 -173.34,199.86 -302.41,254.77 -289.12,123.01 -263.97,56.03 -426.14,108.6zm664.36 -1223.82c-23.53,-142.04 28.62,-224.7 -109.87,-310.02l-128.5 48.04c-59.61,-61.61 -34.38,-94.66 -18.97,-167.67 -56.93,-8.79 -91.92,4.57 -114.86,-9.57 24.93,-114.32 256.54,-39.52 315.36,67.41 35.12,63.83 82.31,249 91.1,319.59 5.04,40.27 31,26.69 -34.26,52.22zm-7291.85 631.95c40.84,-649.24 484.74,-1290.21 1002.88,-1649.93 299.61,-208.01 654.23,-326.17 1028.13,-276.52 358.17,47.56 587.41,185.55 884.32,428.96 -8.12,54.99 -207.66,360.98 -262.28,395.46 -95.09,-71.8 -104.98,-134.27 -324.88,-275.65 -415.47,-267.13 -924.59,-184.06 -1338.05,54.85 -869.8,502.6 -852.74,1100.56 -990.12,1322.83zm4586.37 -2905.1c36.85,188.18 208.37,311.15 360.79,157.62 116.08,-116.91 151.13,-301.35 209.68,-438.34 48.03,270.03 209.52,813.94 568.33,747.42 319.27,-59.18 476.41,-639.06 577.1,-745.2 22.84,137.28 101.48,375.04 99.32,495.59l83.6 48.68 -63.56 313.99c-602.6,305.66 -1288.76,305 -1815.42,-166.17l-19.84 -413.59zm713.56 -273.71c314.25,78.09 466.61,-89.87 585.22,-352.27 64.18,243.22 33.36,243.88 257.44,345.09 -67.75,105.93 -116.98,222.67 -172.07,337.14 -133.59,277.53 -406.71,354.1 -552.02,36.19 -27.74,-60.69 -109.65,-307.21 -118.57,-366.15zm-639.63 34.93c118.13,-148.66 102.53,-73.24 168.66,-287.67 22.13,-71.73 73.53,-325.11 102.94,-360.16 62.74,462.14 97.41,200.67 131.1,377.65 26.31,138.21 -46.7,232.33 -103.46,388.26 -39.01,107.15 -68.65,145.45 -177.52,171.31 -74.53,-89.92 -94.83,-177.88 -121.72,-289.39z"/>
    <path class="fil0" d="M15937.95 4274.95c-38.36,-280.2 210.28,-375.11 453.68,-376.27 308.51,-1.48 292.87,490.24 284.53,515.41l-150.51 0.93c57.99,-85.81 26.48,-268.46 -54.55,-334.87 -73.12,9.72 -96.65,97.13 -187.4,69.02 -58.26,-102.34 14.09,-83.62 -31.08,-161.62 -161.94,-51.77 -296.43,141.75 -314.67,287.4zm465.31 -714.19c-95.51,57.67 -40.74,-30.62 -110.01,83.28l-105.72 -37.55c-43.66,49.05 -46.98,94.25 -112.84,139.17 -86.04,58.68 -229.53,134.68 -294.58,248.91 -57.99,101.83 -24.72,131.68 -51.78,220.1 -134.02,37.11 -497.71,98.72 -556.32,248.98 126.47,111.68 32.45,64.45 390.85,-68.83 225.26,-83.76 198.28,13.07 377.81,130.71 155.8,102.11 331.37,74.75 506.96,42.08 362.05,-67.36 545.78,178.66 575.66,-64.9 -53.73,-51.8 -136.14,-41.1 -211.95,-68.16 -13.43,-58.97 35.78,-180.27 -1.37,-315.94 -31.3,-114.31 -89.22,-170.99 -122.81,-258.36l87.16 -65.95 -74.03 -119.48 -71.12 58.95 -28.37 -163.38 -47.37 23.7 -10.24 -107.99 -106.3 -35.69 -33.63 110.35z"/>
    <path class="fil0" d="M15194.5 7925.02c41.17,-164.29 315.01,-299.97 395.21,-749.7l-86.11 -82.03c-117.51,146.26 -52.51,286.61 -227.29,484.82 -110.75,125.58 -240.79,232.72 -305.84,391.63 -71,173.42 -80.37,437.28 -21.71,613.13 49.89,149.61 73.23,397.27 184.75,515.45l110.6 -35.42c-0.42,-85.48 -95.58,-210.85 -118.76,-331.08 -10.76,-55.83 -9.67,-337.78 0.82,-393.68 23.4,-124.71 259.39,-433.67 371.68,-487.97 28.74,184.1 105.78,594.44 83.75,748.78 -42.16,295.35 -147.53,325.88 -331.44,522.37l99.24 86.81c219.04,-203.02 152.11,-148.72 300.7,-354.52 161.39,-223.51 99.54,-264.33 60.6,-522.03 -25.34,-167.71 -92.75,-415.38 -69.73,-577.73 31.69,-223.55 269.15,-205.11 99.11,-405.36 -42.64,37.88 -80.02,102.85 -131.6,153.64 -48.1,47.38 -95.03,87.88 -137.75,134.37 -74.2,80.78 -192.37,233.05 -276.23,288.52z"/>
    <path class="fil0" d="M18805.56 13472.28c228.99,-57.78 416.8,-282.66 559.74,-461.13 148.75,-185.72 394.43,-373.58 362.65,-642.98l-101.33 -63.67c-45.62,69.05 -20.3,180.33 -117.26,322.95 -58.91,86.65 -134.69,160.25 -201.61,241.41 -88.37,107.15 -332.07,385.49 -445.55,436.66 -66.36,-69.35 -61.1,-111.74 -166.8,-171.63l-81.71 100.44c12.86,20.95 177.76,227.48 191.87,237.95z"/>
    <path class="fil0" d="M15758.99 3327.47l84.92 92.9c66.52,-24.83 113.6,-76.37 162.48,-117.94 50.52,-42.97 295.58,-188.18 363.36,-183.07 117.81,8.88 80.58,50.06 226.6,-9.9l-20.22 -140.46c-457.3,-133.13 -466.63,66.61 -638.71,213.25 -56.87,48.46 -120.82,92.66 -178.43,145.22z"/>
    <path class="fil0" d="M15614.09 7012.74c69.24,12.14 81.42,-27.12 194.82,-6.08 123.79,161.1 -56,223.61 -33.17,307.23 215.09,86.41 251.89,-233.88 192.43,-345.16 -72.84,-136.33 -382.12,-192.11 -354.08,44.01z"/>
    <path class="fil0" d="M12033.53 4633.18c128.41,93.33 157.55,-80.08 216.51,-184.72 57.47,-102 125.97,-195.18 171.3,-305 -24.27,-37.56 -56.77,-54.51 -100.56,-79.48 -23.8,26.29 -299.81,472.57 -287.25,569.2z"/>
   </g>
  </g>
 </g>
</svg>
