<?xml version="1.0" encoding="UTF-8"?>
<!DOCTYPE svg PUBLIC "-//W3C//DTD SVG 1.1//EN" "http://www.w3.org/Graphics/SVG/1.1/DTD/svg11.dtd">
<!-- Creator: CorelDRAW 2017 -->
<svg xmlns="http://www.w3.org/2000/svg" xml:space="preserve" width="320mm" height="150mm" version="1.1" style="shape-rendering:geometricPrecision; text-rendering:geometricPrecision; image-rendering:optimizeQuality; fill-rule:evenodd; clip-rule:evenodd"
viewBox="0 0 32000 15000"
 xmlns:xlink="http://www.w3.org/1999/xlink">
 <defs>
  <style type="text/css">
   <![CDATA[
    .fil0 {fill:#D7B56D}
   ]]>
  </style>
 </defs>
 <g id="Слой_x0020_1">
  <metadata id="CorelCorpID_0Corel-Layer"/>
  <g id="_2737063091024">
   <g id="_1599858763264">
    <path class="fil0" d="M17489.51 13798.41l-2.35 -272.87c-225.44,19.34 -27.94,56.48 -127.26,245.56 -47.74,90.86 -128.73,106.51 -219.96,92.19 -14.9,-218.52 34.71,-647.81 128.06,-837.89 479.54,-192.23 1190.06,231.28 691.73,617.99 -20.42,-120.35 13.43,-231.87 -103.23,-241.25 -62.74,103.87 -20.03,517.01 -366.99,396.27zm-4100.8 -190.28c-513.9,-458 329.57,-820.8 674.39,-613.85 115.1,155.18 147.44,644.49 142.96,849.03 -279.98,7.35 -226.79,-196.7 -242.53,-286.9 -16.73,-95.88 3.94,-17.11 -26.24,-64.83 -176.93,46 -38.09,130.37 -111.82,290.82 -119.19,36.11 -183.35,-17.65 -246.02,-114.83 -119.04,-184.6 -14.63,-188.45 -101.43,-303.71 -102.39,51.25 -81.15,123.08 -89.31,244.27zm4707.47 -670.46c-391.57,-240.07 -304.56,-157.1 -727.83,-195.99 13.87,-101.77 314.73,-706.32 402.84,-1101.33 45.95,-206.1 104.14,-397.49 147.27,-609.61 40.6,-199.7 59.04,-466.45 106.82,-648.85 185.6,34.53 395.71,242.95 477.46,413.11 201.59,419.57 90.42,1103.8 -99.14,1535.43 -76.37,173.91 -166.28,515.09 -307.42,607.24zm923.14 -1254.22c189.46,35.09 412.55,-123.03 722.63,-54.17 -118.85,17.94 -340.82,7.5 -309.43,153.43 163.28,50.44 254.4,-50.45 428.05,89.15 82.64,66.43 207.99,148.3 243.89,247.36l-218.57 17.36c-8.61,85.49 131.49,204.61 189.79,270.75 167.36,189.92 293.42,384.49 430.92,593.25 76.28,115.81 207,201.3 235.4,248.31 -113.12,-0.84 -405.92,-104.2 -509.36,-163.93 -135.97,-78.49 -326.26,-264.63 -482.42,-217.17 -9.57,157.38 332.69,304.5 398.88,440.8 -304.11,62.82 -420.24,-165.99 -606.25,-291.96 -98.28,-2.14 -103.93,13.48 -200.64,-9.84 -113.16,-27.28 -66.76,-61.41 -174.4,17.74 16.02,162.01 341.25,179.11 422.09,325.93 -99.23,-13.03 -261.42,-100.55 -717.9,-157.08 -156.21,-19.35 -482.12,-253.3 -422.07,-390.58 126.18,-288.45 320.64,-378.62 416.73,-923.38 25.06,-142.04 18.03,-305.32 43.46,-418.6 81.39,-34.71 188.19,-38.28 276.2,-18.03 -41.87,87.52 -188.5,107.87 -167,240.66zm-5696.68 -1319.52c167.63,1363.89 625.67,2221.01 639.14,2335.38 -271.02,28.59 -464.55,-12.87 -675.94,211.06 -228.64,-114.33 -514.18,-1054.74 -538.02,-1350.6 -20.29,-251.72 -16.48,-542.78 89.06,-775.29 64.34,-141.74 322.92,-438.66 485.76,-420.55zm2520.69 796.64l-168.03 745.2 -125.85 -612.33 215.09 19.07 78.79 -151.94zm-1979.21 -2962.58c138.99,22.94 145.39,-63.09 240.92,-59.89 -6.5,84.27 -263.45,336.91 -244.24,616.86 75.75,74.52 72.92,42.57 168.04,70.23 74.1,281.46 -44.34,392.13 -59.54,476.39 -21.85,121.09 -42.12,389.86 103.98,439.68 110.88,37.79 122.22,-87.52 161.9,-181.92 72.63,76.01 86.35,380.41 265.55,495.46 214.04,137.43 178.26,318 361.47,418.32 110.4,60.45 118.07,-10.84 186.04,131.46 81.05,169.69 143.64,96.19 204.91,205.26 0.11,0.18 125.39,601.12 139.17,666.65 100.39,477.63 146.46,944.14 137.22,1432.47 -34.75,1834.95 -393.78,1260.43 -503.88,1333.78 -125.75,83.78 -90.88,147.7 -298.2,89.8 -71.57,-66.98 -64.37,-123.38 -117.54,-158.22 -57.81,-37.88 -110.97,-16.22 -199.72,-72.04 -25.96,-67.39 -70.71,-753.76 -97.82,-922.85 -180.4,-1125.22 -447.95,-1204.98 -676.49,-2392.77 -178.21,-926.19 -189.7,-1808.25 130.61,-2686.67 74.34,-203.89 196.71,-641.89 474.44,-401.47 -14.85,45.32 -488.46,308.34 -376.82,499.47zm609.94 -511.13c51.96,-111.47 236.06,-158.46 352.77,-126.17 215.02,59.49 582.41,441.2 1114.53,265.8 191.13,-63 510.57,-351.75 689.71,-251.27 79.91,44.82 33.51,145.35 123.46,241.38 74.9,79.96 198.96,130.34 234.57,242.07 -76.73,74.24 -141.35,34.61 -213.33,132.33 29.45,128.37 193.23,155.29 241.91,292.98 -36.79,57.45 -82.02,-4.94 -114.03,84.33 57.79,136.22 365.1,355.91 308.72,600.18 -147.36,8.09 -172.15,-277.56 -316.3,-279.79 -51.07,78.58 -56.4,487.01 -118.81,668.1 -68.9,-27.7 97.75,-302.75 -17.68,-433.24 -116.94,5.56 -172.2,258 -223.32,370.94 -75.75,167.34 -64.83,400.35 -127.89,489.89l-204.14 -131.79c-135.28,113.88 55.32,392.77 -73.95,596.83 -115.9,-84.05 22.28,-387.67 -216.36,-437.29 -213.38,79.31 -14.08,201.14 8.05,366.27 14.55,108.62 11.63,396.87 -75.97,469.32 -60.89,-120.55 57.08,-572.09 -164.42,-561.28 -94.08,102.49 104.09,528.67 -78.48,695.34 -140.3,-55.74 -168.02,-409.41 -180.7,-534.15 -15.51,-152.5 -74.72,-134.53 -125.71,-249.47 -48.29,-108.84 -2.49,-150.86 -80.78,-256.03 -240.01,-73.68 -136.01,242.18 -126.54,377.8 -88.84,94.04 -28.58,-449.85 -161.66,-502.66 -80.19,87.47 -67.3,183.39 -80.37,296.87 -128.04,12.72 -109.03,-674.58 -160.49,-747.98 -148.36,-2.17 -122.71,194.76 -221.25,247.56 -191.05,-131.09 107.82,-443.49 90.83,-568.97 -143.04,-99.89 -192.74,117.45 -290.84,195.75 -58.5,-47.45 60.05,-222.44 127.09,-265.66 82.86,-53.4 301.14,-158.11 171.07,-287.58 -116.96,4.91 -161.26,64.05 -264.4,107.31 -79.81,-78.35 294.66,-176.34 277.38,-310.81 -185.03,-70.48 -353.95,157.65 -507.32,111.32 -75.98,-305.54 674.53,-621.95 681.74,-776.36 -105.91,-90.09 -205.42,-14.23 -277.09,-131.87zm2342.09 -279.82c390.93,-196.25 345.31,-118.8 561.64,279.83 731.99,1348.81 490.7,3188.4 -96.66,4545.26 -110.91,256.23 -186.63,599.94 -231.64,876.74 -33.39,205.35 -77.83,928.11 -113.44,1028.35 -101.42,66.64 -111.82,16.72 -216.84,55.27 -72.08,118.43 -108.15,268.45 -312.17,158.52 -70.52,-38 -71.02,-86.5 -160.35,-78.55 -104.05,9.26 -83.43,44.47 -203.38,11.49 -169.12,-157.59 -223.54,-1131.65 -224.27,-1386.49 -1.44,-500.59 29.92,-976.69 148.05,-1465.41 53.4,-220.91 80.78,-469.71 132.96,-673.65 72.98,-285.22 311.78,-246.2 393.44,-418.23 136.35,-287.3 -11.1,-416.64 250.21,-553.01 236.3,-123.33 207.25,-333.62 233.01,-536.44 111.03,38.21 173.98,159.26 322.75,135.01 127.77,-138.22 32.12,-388.03 -29.26,-537.86 -102.31,-249.73 14.76,-223.4 -177.19,-516.9 66.29,-30.62 67.28,28.42 157.93,-58.54 23.1,-263.19 -237.67,-431.12 -235.28,-497.61 107.61,-10.05 125.36,29.2 238.24,-19.5 54.04,-177.11 -312.68,-293.55 -437.75,-348.28zm-2603.67 -128.12l211.43 105.08c-86.54,30.52 -211.71,42.57 -302.9,24.65l91.47 -129.73zm-954.71 -3197.57l-104.24 -195.52 135.17 -5.18 -30.93 200.7zm4883.98 -3058.19c140.08,136.55 120.08,402.25 155.82,567.61 43.31,200.41 76.12,442.12 104,647.45 70.25,517.31 203.05,1545.91 -56.39,2056.75 -117.61,231.57 -176.15,284.15 -162.31,571.01 9.28,192.14 114.95,385.15 174.38,574.39 47.38,150.86 76.1,142.68 131.88,255.28 47.86,96.59 -24.06,124.98 -27.29,233.48 71.33,102.01 359.22,218.48 320.1,343.25l-237.44 56.5 17.17 177.9c-69.41,33.06 -278.79,71.82 -378.18,103.2 -350.73,110.69 -656.6,293.63 -1000.8,429.78 -218.92,86.59 -468.86,189.9 -679.69,292.55 -760.2,370.11 -765.52,457.31 -1402.72,122.04 -535.92,-281.99 -2033.46,-782.92 -2053.19,-794.5 -30.68,-142.28 51.69,-190.44 -134.63,-257.27 -111.09,-39.85 -277.58,-38.17 -337.52,-74.93 47.65,-215.23 525.65,-223.26 459.21,-554.82l-191.36 -63.33c22.91,-74.46 339.59,-564.32 411.84,-738.35 56.62,-136.39 78.22,-344.43 41.97,-487.02 -12.66,-49.83 -149.26,-296.24 -180.21,-314.73 44.61,74.38 43.06,63.71 118.93,82.82 114.2,-91.38 4.86,-100.21 182.86,-219.83 108.16,-72.69 173.72,-95.65 163.06,-243.52l-117.01 8 -61.6 -123.14 -147.91 -4.83c8.82,-124.53 109.73,-80.67 98.36,-249.02l-203.05 -46.77c11.43,-138.35 172.78,-96.7 217.59,-255.47l-142.96 -89.35c119.45,-104.45 258.15,-57.67 346.41,-155.34 -61.9,-162.65 -293.99,-119.67 -412.33,-42 -129.12,84.76 -136,152.58 -198.73,233.53 -61.84,79.81 -20.04,-33.93 -53.73,95.07l170.74 29.15c-110.73,121.69 -135.82,158.71 -120.47,338.78 95.37,44.79 86.64,20.31 201.27,27.14l-67.96 226.93c-270.12,-541.04 -481.2,-1109.22 -461.53,-1750.63 123.89,53.21 312.29,163.4 437.75,231.36 145.61,78.85 266.47,212.03 389.82,310.29 281.03,223.87 438.42,647.76 557.76,819.31l78.39 -11.65c189.26,-230.3 -318.69,-866.9 -528.97,-1024.58 -106.86,-80.13 -966.31,-538.93 -1073.64,-569.69 -42.91,63.38 42.45,89.13 3.74,160.19 -74.65,137.06 -37.91,112.47 -54,252.79 -51.73,-85.99 -115.92,-526.82 -97.47,-618.6 14.6,0.55 360.81,228.04 417.73,260.89 159.27,91.9 346.06,151.48 520.71,209.25 345.59,114.33 644.22,286.13 952.33,475.07 507.9,311.44 588.98,564.46 934.81,508.69 258.49,-41.69 408.04,-69.81 676.38,-36.22 145.39,18.21 470.03,121.85 563.54,103.17 26.22,-23.02 228.86,-461.87 326.92,-583.01 143.45,-177.22 286.74,-362.37 427.91,-542.09 364.28,-463.73 399.61,-441.8 750.39,-704.54 112.16,-84 141.66,-157.94 229.32,-248.39zm-5985.91 78.47c-208.17,178.66 90.43,1126.82 163.88,1389.69 123.4,441.57 247.4,906.37 384.26,1341.94 160.14,509.67 602.17,665.45 299.4,1190.05l-485.29 816.88c-22.15,87.65 83.18,82.18 104.03,161 -88.96,115.68 -359.77,306.09 -321.29,491.26 122.04,113.1 338.67,-4.46 486.19,75.79 -11,70.82 -130.73,64.53 -162.95,185.12 70.11,87.16 1183.07,263.55 1360.29,480.42 -22.81,66.63 -262.05,430.78 -323.72,548.11 -578.7,1100.9 -319.68,2186.62 -369.94,2295.91 -42.36,92.09 -816.97,197.36 -843.55,1400.83 -21.04,952.72 639.45,1398.15 676.4,1593.83 -26.85,259.44 -133.51,435.73 100.5,679.02 176.83,183.81 471.57,156.92 698.39,195.19 57,39.08 63.96,70.01 96.47,91.48 59.48,39.29 84.43,17.65 161.98,49.34 91.58,323.46 25.39,286.76 391.65,313.75 130.13,114.71 170.89,185.61 375.17,115.11 199.67,-68.92 205.09,83.27 397.56,-35.1 116.79,-71.83 96.75,-215.45 165.36,-351.07 71.66,-141.63 127.19,-229 158.15,-389.06 28.93,148.28 80.62,254.84 140.39,390.65 112.15,254.87 75.62,477.76 406.87,407.15 163.29,-34.81 36.91,-27.22 204.22,15.96 220.3,56.86 236.01,-51.74 367.52,-138.18 279.14,42.99 341.82,-73.31 362.19,-316.13 249.93,-26.54 112.73,-20.52 267.8,-123.55 614.74,-5.27 977.54,-203.85 793.5,-870.16l52.69 -70.65c122.05,209.45 354.85,345.59 607.61,369.15 147.37,13.73 292.01,18.84 438.26,36.71 150.84,18.42 304.74,72.26 452.71,61.79l23.37 -129.97c524.02,157.8 466.14,-5.41 667.45,33.4 189.34,36.5 501.49,97.25 651.76,-48.46 -45.39,-122.2 -273.61,-214.56 -357.28,-354.62 -88.55,-148.2 -174.52,-304.68 -294.47,-431.68l52.44 -89.81c-110.33,-339.01 -224.95,-451.73 -487.16,-658.13l73.68 -91.75c-113.31,-210.6 -394.28,-270.01 -606.52,-264.53l61.43 -83.72c-194.71,-146.61 -445.32,-94.99 -649.02,-83.23 -85.2,-133.02 -74.4,-452.33 -265.79,-742 -208.18,-315.1 -297.62,-280.76 -574.95,-445.77 -41.85,-213.55 176.63,-1307.7 -370.51,-2328.71 -53.03,-98.95 -110.47,-195.37 -163.56,-294.89 -51.8,-97.11 -144.21,-172.94 -184.71,-269.45 82.95,-136.98 1355.46,-500.19 1524.79,-654.4l-42.86 -143.69c125.11,-15.74 225.26,0.76 325.9,-56.09 44.34,-156.72 -39.66,-140.32 -158.5,-219.68 -107.52,-71.81 -69.59,-127.98 -107.85,-233.32 -36.68,-100.99 -182.81,-201.76 -337.23,-600.6 -258.37,-667.33 45.24,-907.27 133.37,-1532.4 110.49,-783.71 -205.45,-1926.23 -225.65,-2549.94 -5.53,-170.9 28.34,-232.19 -57.86,-390.1 -45.14,-82.68 -78.39,-215.2 -145.57,-269.66 -80.3,21.98 -523.18,557.77 -637.51,667.18 -234.71,224.57 -429.06,399.43 -646.72,647.79 -721.08,822.79 -554.69,1044.49 -883.65,934.12 -181.29,-60.84 -382.4,-81.68 -573.8,-67.08 -187.19,14.28 -332.47,134.8 -501.4,3.08 -127.39,-99.32 -214.69,-193.51 -361.31,-292.3 -1042.36,-702.33 -1195.9,-422.25 -2174.67,-1063.27 -135.89,-89 -241.56,-295.05 -312.34,-298.55z"/>
    <path class="fil0" d="M17231.28 2571.04c44.03,-335.31 410.03,-829.87 731.17,-963.46 230.05,492.75 258.41,1370.3 158.45,1896.17l-131.7 -150.06c16.43,-26.07 29.35,-34.46 40.2,-54.31l46.39 -122.94c20.26,-40.74 21.11,51.49 45.92,-89.99 -331.81,-235.82 -90.85,-142.95 -119.15,-421.15l-393.6 -9.78c63.25,-90.72 133.36,-161.99 119.73,-284.64 -224.23,-80.46 -363.74,82.04 -497.41,200.16zm-293.4 732.46l212.48 21.02c-5.27,-226.84 -16.72,-334.53 18.07,-557.84 151.4,-90.09 46.6,73.81 151.19,-121.55 42.84,-80.01 45.6,-97.2 142.93,-110.55 -24.18,126.4 -90.32,117.72 -74.25,265.91l378.76 -29.46 -93.21 207.59 217.91 102.6c-18.74,61.66 -32.88,47.11 -39.3,65.75l-8.09 245.23c43.28,181.66 10.58,28.51 -30.25,172.26 -24.67,86.87 -5.96,6.72 -4.1,96.63 2.21,106.35 -24.77,9.85 3.33,127.51l159.65 15.6 -27.06 -208.35 150.94 3.51c-29.69,231.17 -186.43,395.26 -2.91,537.45 324.95,-222.01 574.3,-1901.86 -141.44,-2745.83 -544.21,180.37 -1149.96,1177.99 -1014.65,1912.52z"/>
    <path class="fil0" d="M17332.59 5860.71c-33.36,3.21 -114.42,105.48 -109.43,100.56 26.84,-26.45 1.25,-191.91 -73.87,-215.9l201.37 77.19 -18.07 38.15zm-927.41 223.29c94.36,47.42 192.45,-103.76 283.2,-172.28 -16.45,125.36 77.98,222.07 89,195.82 3.99,-9.5 -135.87,49.7 -154.39,51.49 -109.53,10.62 -174.49,-4.04 -218.41,107.54 170.81,187.91 600.76,171.98 802.46,45.18 121.82,-76.59 426.26,-443.93 467.15,-578.27 -140.82,-128.17 -583.93,-315.42 -788,-282.71 -170.9,27.4 -232.31,125.24 -302.67,261.06 -50.11,96.74 -77.21,80.54 -123.15,145.72 -50.84,72.09 -30.91,133.1 -55.19,226.45z"/>
    <path class="fil0" d="M13975.54 5809.38c57.04,-23.76 215.23,-84.2 224.15,-65.94 2.38,4.89 -60.79,45.9 -84.7,98.62 -26.25,57.87 -13.65,127.95 -14.66,133.81l-124.79 -166.49zm-317.74 -77.65c64.65,153.15 300.46,477.96 444.41,564.49 357.22,214.76 492.73,67.96 812.91,-3.15 -34.46,-131.84 -88.84,-140.2 -223.02,-132.43 -37.13,2.15 -162.43,20.65 -142.88,16.77 73.34,-14.57 159.23,-163.04 129.42,-285.26 -8.13,-33.3 50.92,132.53 83.97,150.49l119.23 64.78c92.17,-229.29 -65.71,-254.75 -131.98,-378.82 -81.32,-152.25 -64.67,-223.2 -283.53,-281.37 -216.2,-57.47 -683.58,150.98 -808.53,284.5z"/>
    <path class="fil0" d="M15589.97 6818.99c-442.23,215.8 -92.81,627.39 166.33,551.13 131.74,-38.77 240.55,-235.44 196.19,-385.35 -41.21,-139.29 -235.34,-227.84 -362.52,-165.78z"/>
   </g>
  </g>
 </g>
</svg>
