<?xml version="1.0" encoding="UTF-8"?>
<!DOCTYPE svg PUBLIC "-//W3C//DTD SVG 1.1//EN" "http://www.w3.org/Graphics/SVG/1.1/DTD/svg11.dtd">
<!-- Creator: CorelDRAW 2017 -->
<svg xmlns="http://www.w3.org/2000/svg" xml:space="preserve" width="320mm" height="150mm" version="1.1" style="shape-rendering:geometricPrecision; text-rendering:geometricPrecision; image-rendering:optimizeQuality; fill-rule:evenodd; clip-rule:evenodd"
viewBox="0 0 32000 15000"
 xmlns:xlink="http://www.w3.org/1999/xlink">
 <defs>
  <style type="text/css">
   <![CDATA[
    .fil0 {fill:#D7B56D}
   ]]>
  </style>
 </defs>
 <g id="Слой_x0020_1">
  <metadata id="CorelCorpID_0Corel-Layer"/>
  <g id="_2737002459584">
   <g id="_1599866437232">
    <path class="fil0" d="M16986.6 10420.32c51.32,19.18 94.59,56.44 153.97,70.97 64.54,15.79 152.81,9.8 205.67,24.19 -1.65,67.01 -64.55,275.77 -85.83,359.68 -80.03,315.54 2.64,495.01 -452.62,924.65 -126.26,119.16 -167.42,78.38 -339.42,102.59 -172.16,24.25 -395.28,172.6 -551.28,58.99 -72.45,-52.76 -32.28,-67.11 -133.3,-109.7 -50.82,-21.42 -23.78,24.59 -116.48,-95.9 -34.05,-44.28 -79.61,-97.01 -99.55,-131.26 404.48,-202.74 272.53,-396.21 754.9,-567.99 319.4,-113.74 587.07,-111.04 663.94,-636.22zm-4351.5 -751.65c89.91,48.53 192.59,396.16 296.35,474.47 127.11,-4.06 41,-46.89 184.47,-7.28 181.07,49.99 327.87,115.28 571.64,102.3 338.59,-18.04 411.65,-212.42 679.29,-210.44 639.23,817.24 479.72,1084.19 1126.88,985.84 182.88,-27.79 256.85,-47.13 422.21,-121.07 229.57,-102.64 264.94,-441.77 427.77,-676.28 101,-145.46 52.63,-312.89 41.4,-469.84 93.97,5 189.23,43.29 276.7,78.33 82.4,33.02 323.41,401.67 29.49,740.09 -294.29,338.84 -552.65,253.86 -865.5,571.91 -130.82,132.98 -207.92,246.02 -388.55,332.59 -103.76,49.73 -142.97,-5.55 -255.31,-48.11 -300.5,-113.84 -259.18,-451.82 -1247.83,-574.93l-41.8 -85.94c-455.05,58.43 -454.73,-170.84 -760.17,-384.28 -158.8,-110.98 -247.03,-98.42 -321.2,-273.89 -30.55,-72.3 -168.12,-383.6 -175.84,-433.47zm177.59 -166.39c140.49,-115.83 121.11,-154.92 339.49,-145.2 133.31,5.94 300.46,45.05 429.66,75.8 171.78,40.89 501.86,256.32 605.95,397.86 -206.49,115 -261.44,184.72 -528.07,222.78 -326.43,46.6 -380.24,-102.88 -608.25,-162.92l-56.54 88.79c-36.74,-83.35 -34.69,-144.13 -89.42,-232.62 -39.4,-63.71 -87.5,-170.9 -92.82,-244.49zm-1505.17 -464.32c81.21,-167.32 193.63,-84.79 331.05,-17.86 254.79,124.12 453.32,305.72 624.16,530.34 69.99,92 223.63,253.85 228.85,355.61 -332.23,-40.82 -432.96,-360.11 -615.91,-441.48 -79.17,70.44 -24.93,76.29 -62.57,152.17 -39.41,-34.77 -197.94,-216.78 -226.1,-265.44l-168.72 -350.09c-46.31,2.78 -78.28,-4.19 -110.76,36.75zm6003.53 -1415.6c213.76,55.29 661.4,290.15 752.89,475.4 94.39,191.11 95.48,216.29 275.47,343.17 66.77,47.07 121.22,117.92 201.49,122.22 71.28,3.82 176.22,-49.36 124.01,-121.22 244.84,137.53 860.08,181.07 1187.63,98.74 133.16,-33.47 227.69,-102.77 335.05,-134.5l44.77 93.88 -92.64 95.63 190.35 343.02c-366.19,-42.68 110.71,241.76 6,994.18 -331.14,-197.69 -686.25,-321.82 -1056.74,-428.32 -159.25,-301.65 -160.37,-319.08 -419.39,-544.66l-783.5 -654.03c-96.51,-66.58 -207.98,-118.23 -299.67,-180.52 -99.32,-67.48 -191.14,-123.5 -290.85,-187.49 -60.51,-38.81 -156.78,-237.19 -174.87,-315.5zm-54.53 -1506.11c-3.36,29.66 33.95,234.41 41.2,296.84 48.95,420.92 4.26,552.1 -311.74,792.66l-76.86 -94.49c85.11,-38.02 14.31,-56.44 102.84,-156.82 163.65,-185.57 226.38,-366.94 161.54,-632.5 88.78,-70.83 75.36,-64.7 83.02,-205.69zm1082.32 334.96c-229.6,46.82 -330.37,416.36 -274.83,468.33 139.02,60.52 147.3,-98.09 214.65,-169.54 669.99,322.54 904.2,520.5 1597.5,196.52 155.76,-72.8 308.41,-180.18 441.68,-292.77 120.21,59.13 323.9,220.86 366.86,352.62 -100.77,122.32 -99.39,67.62 -15.13,241.28 28.24,58.19 60.01,136.47 74.88,208.93 17.96,87.46 18.52,79.11 -53.97,110.16 -64.69,27.72 -48.95,21.96 -49.3,95.86 -0.19,40.85 -3.31,71.85 -33.17,117.94l-129.69 -10.89c-111.88,35.2 -240.79,562.03 -1121.25,556.7 -301.9,-1.83 -440.56,-15.24 -724.84,-117.5 -89.35,-32.14 -246.96,-43.47 -299.14,-117.88 -56.26,-80.21 -107.98,-192.01 -177.48,-263.48 -310.19,-318.87 -313.47,-904.53 -148.95,-1297.33 98.93,-236.23 236.99,-252.73 375.93,-462.53 170.02,-256.7 172.16,-293.06 276.04,-575.4 85.78,12.69 239.2,135.28 339.05,177.39l616.27 181.51c241.47,54.53 545.29,63.71 743.2,89.1 -71.2,452.32 6.29,506.3 -217.32,629.76 -208.22,114.96 -359.99,183.25 -600.36,257.55 -335.67,103.76 -337.19,104.58 -684.68,-21.58 -76.94,-27.94 -378.23,-176.79 -425.81,-229.23 -48.96,-53.92 -3.66,-41.83 -90.14,-125.52zm2169.88 108.6c-105.51,-74.02 -40.02,-164.49 -20.57,-307.74 14.89,-109.62 27.3,-276.05 53.19,-378.04 57.44,-41.11 158.46,-135.25 209.82,-156.75 18.43,296.08 -71.56,601.52 -242.44,842.53zm-858.96 -917.5l62.81 -50.76 170.68 126.54c-84.31,-32.09 -160.85,-19.25 -233.49,-75.78zm-3433.19 -37.09c-15.09,-249.89 -24.02,-238.53 171.61,-350.38 66.34,42.33 -19.16,32.51 96.07,73.81 61.46,22.02 82.77,11.01 145.62,53.38 208.33,140.47 417.81,477.21 432.88,765.51 -179.23,107.85 -50.17,46.2 -56.55,318.59 -2.76,118.35 -32.18,278.92 -106.1,355.66 -190.77,-68.65 -123.78,-2.28 -301.29,-211 -193.24,-227.2 14.8,-185.61 80.26,-248.69l-34.89 -89.83c-122.46,-6.96 -183.65,32.06 -268.74,29.41 40.68,-95.23 80.93,-191.5 130.58,-293.22 43.74,-89.64 152.52,-215.6 89.84,-310.17 -128.3,-2.39 -235.98,193 -332.21,268.46 56.84,-329.55 181.31,-384.7 232.62,-519.81l-74.04 -70.96c-116.27,49.8 -126.15,157.62 -205.66,229.24zm489.96 -532.6l261.22 302.4c-59.32,-34.59 -59.47,-59.42 -108.12,-84.39 -48.92,-25.11 -91.99,-37.3 -147.13,-70.9l-5.97 -147.11zm-2696.8 578.86c-147.54,-31.4 -447.29,-243.44 -452.87,-403.13 67.98,-120.96 389.58,-235.71 527.92,-231.06 7.48,117.48 -29.88,553.21 -75.05,634.19zm5445.58 -68.73l-107.52 -23.97c22.06,-119.9 163.99,-222.06 274.46,-260.06 544.28,-187.23 775.46,319.8 1230.73,-208.63 -13.55,107.19 -89.26,61.59 -138.78,196.83 -64.91,177.25 42.07,279.07 -233.89,446.76 -57.73,35.08 -245.13,45.69 -294.18,0.12 -1.55,-1.43 -116.39,-171.54 -139.44,-197.69 -50.84,-57.71 -122.07,-115.61 -204.51,-154.61 -333.88,-157.92 -362.06,154.37 -386.87,201.25zm-2041.41 -916.86c49.27,-66.2 320.63,-75.29 410.71,-41.08 16.88,74.51 44.14,226.4 26.5,295.92l-121.17 31.86c-71.48,-166.04 -94.2,-307.35 -316.04,-286.7zm-3263.76 67.46c-525.24,12.86 -885.65,494.73 -878.45,555.76 23.22,46.53 268.26,329.58 313.3,364.18 306.57,235.5 414.7,157.9 396.83,285.72 -122.36,-4.25 -683.82,-368.14 -814.18,-604.9 -82.63,-150.11 -29.61,-183.08 78.53,-289.97 28.54,-28.21 43.96,-35 65.18,-55.28 98.67,-94.28 277.15,-321.32 423.72,-413.27 136.95,-85.91 505.72,-292.59 654.33,-330.7 -43.88,147.04 -159,361.05 -239.26,488.46zm5006.76 -1675.54l-758.2 -263.4c-75.29,-29.84 -168.42,-84.01 -239.25,-101.5 48.6,-299.48 119.82,-442.83 373.64,-604.97 104.76,-66.91 399.98,156.92 416.9,178.83 23.7,30.7 95.8,189.43 106.05,229.11 53.03,205.25 117.08,336.43 100.86,561.93zm-2605.28 -2162.12c141.92,54.14 480.62,354.78 608.25,482.18 49.2,49.12 155.07,172.21 182.28,195.35l132.83 -56.36 138.06 218.8 174.72 -60.45c22.15,245.62 58.92,518.09 102.23,749.39 52.8,281.95 85.09,418.39 169.97,691.08 -100.78,-15.11 -348.39,-141.53 -449.41,-194.32 -68.53,-35.81 -133.24,-81.25 -205.5,-113.1 -81.65,-35.95 -194.71,-17.64 -263.31,-56.71 -54.27,-163.44 47.2,-340.28 175.96,-439.76 86.54,-66.86 478.85,-199.48 131.99,-282.44 -418.36,-100.05 -562.78,383.26 -606.34,700.78 -66.11,-136.89 -113.21,-833.6 120.51,-1114.31 227.96,-273.81 -300.73,-84.38 -388.08,490.9 -41.92,276.16 45.18,714.79 89.42,992.94 -23.71,114.67 -290.26,172 -169.46,897.1 31.66,190.07 187.65,759.39 459.88,687.29 50.01,-267 -386.2,-758.67 -175.01,-1299.6 -24.94,57.39 69.21,212.94 100.82,286.95 54.52,127.61 59.6,241.18 199.64,253.43 98.78,-222.48 51.81,-668.83 77.75,-942.46 199.37,-58.2 130.42,64.28 559.94,254.54 92.01,40.75 210.88,80.62 311.01,109.51 170.64,49.24 160.57,86.2 288.84,-34.1l-119.52 -420.81c84.23,27.89 152.61,104.88 238.3,144.57 55.44,25.66 231.43,97.37 289.94,111.27 226.92,53.9 367.86,42.26 559.51,193.76 -383.97,71.7 -574.74,-328.6 -689.47,-68.3 106.29,222.36 382.25,427.85 446.29,709.66 -90.81,32.13 -307.15,65.73 -252.72,238.78 64.14,28.1 221.46,-0.43 297.78,-18 200.94,-46.26 51.37,-54.87 258.87,-0.73 344.99,90.01 1261.87,409.2 1449.47,644.33 -32.65,121.64 -186.55,246.51 -307,276.06 -346.11,84.88 -539.97,-190.14 -1039.44,38.97 -234.07,107.39 -182.43,137.81 -310.7,296.91l-495.59 -218.19c-134.25,79.25 -87.33,144.93 -159.36,273.1l-149.21 268.66c-282.96,472.76 -479.33,409.79 -577.69,1097.77 -34.91,244.23 33.84,489.85 92.17,717.84 -176.1,-56.02 -440.47,-220.44 -588.02,-62.11 -49.97,-57.76 -111.04,-150.39 -149.16,-191.36 441.16,-266.45 432.39,-505.13 398.42,-1019.9 -17.64,-267.34 -52.2,-434.43 -142.56,-661.43 -39.86,-100.15 -218.22,-484.03 -308.79,-481.74 315.8,79.71 346.35,222.63 457.93,312.87 58.6,-26.89 77.92,-54.86 117.95,-105.35 -31.72,-72.87 -107.06,-151.13 -180.13,-200.57 95.91,-31.71 258.26,-24.42 370.37,-69 152.71,-60.73 197.94,-18.86 360.22,27.68 252.8,72.49 308.56,-373.05 286.49,-548.85 -25.43,-202.61 -265.1,-602.67 -414.4,-745.6 -125.68,-120.33 -185.3,-364.06 -384.09,-311.29 -89.74,260.44 614.58,876.13 566.85,1409.56 -352.14,-110.21 -134.04,-258.58 -256.68,-435.67 -55.7,-58.33 -226.54,-119.66 -306.95,-142.44 -129.02,-36.54 -242.6,1.57 -357.94,57.06 -152.09,73.16 -284.05,191.25 -359.38,338.42 -55.09,107.62 0.13,96.05 4.39,199.3 -111.6,2.35 -244.15,-149.12 -356.51,-206.24 -163.62,-83.17 -271.66,-89.17 -442,-127.04 -94.64,-94.63 -161.24,-394.63 -166.85,-542.62 -16.73,-440.96 -3.48,-889.7 59.57,-1331.21 13.74,-96.35 81.42,-533.37 67.74,-570.01 -245.39,-72.39 -234.78,277.36 -289.03,454.81 -126.65,414.22 -208.62,1329.71 -39.24,1732.37 40.54,96.38 93.91,205.12 105.77,308.26 -345.51,91.1 -448.26,640.87 -679.56,1038.55 -344.79,592.81 -30.62,347.35 -749.96,568.67 -102.57,31.55 -234.61,88.66 -322.94,110.53 -8.8,-69.21 155.71,-762.21 173.93,-919.89 15.05,-130.29 24.36,-316.6 37.99,-466.1 19.23,-211.07 69.78,-215.18 163.55,-390.64 134.08,-250.89 237.66,-515.58 301.99,-795.71 55.63,-242.18 125.94,-762.39 55.67,-992.36l-87.4 -13.58c-36.09,52.78 -163.03,768.45 -222.1,951.84 -53.06,164.68 -25.43,143.38 -193.1,207.53 -416.9,159.52 -641.89,353.6 -988.63,608.37 -249.9,183.62 -697.54,665.47 -397.83,971.1 116.94,119.22 306.72,255.99 448.32,350.54 550.79,367.89 476.6,221.28 439.97,469.7 -11.25,76.27 11.36,99.33 3.86,142.48 -105.9,60.89 -229.55,106.11 -339.96,176.69 -437.4,279.56 -769.81,621.74 -1059.66,1053.83 -114.13,170.12 -78.31,178.86 -281.29,257.74 -365.25,141.93 -546.4,130.95 -934.67,126.36 20.38,-169.75 22.02,-726.07 88.8,-833.77 121.95,-196.69 208.51,-519.44 151.46,-758.28l-110.78 -18.71c-70.23,93.42 -23.81,156.64 -82.35,238.56 -14.79,-61.64 133.94,-1338.1 165.89,-1474.62 56.24,-240.35 189.6,-729.08 309.54,-945.08 41.83,-75.33 162.69,-183.72 88.35,-265.2 -76.66,-35.99 -162.54,29.87 -219.79,83.3 43.03,-45.32 41.18,-66.22 95.95,-112.44 116.73,-98.53 228.31,-233.42 352.31,-326.78 169.89,-127.92 455.1,-221.5 435.4,-480.22 73.21,-40.01 204.09,-81.35 284.56,-113.29 809.28,-321.28 991.04,-688.92 1781.06,-1051.99 -22.38,142.73 -247.49,475.66 -236.57,560.33 206.92,66.05 597.28,-536.22 689.16,-771.8 169.33,-434.2 318.31,-531.18 773.93,-696.17 70.64,-25.58 542.78,-117.43 617.99,-102.71 87.39,17.11 50.04,55.37 200.06,42.75 12.33,-73.1 -53.27,-164.21 -105.74,-219.71zm1834.08 68.97c-11.05,52.37 -9.64,72.85 -25.45,119.47 -22.91,67.52 -49.66,33.92 -9.99,120.75 138.7,38.25 389.42,-161.04 738.8,144.86 94.4,82.66 23.98,31.52 -116.79,29.25 -62.35,75.89 -89.63,54.4 -93.98,136.17 73.9,32.73 262.57,13.69 451.77,147.14 134.95,95.18 216.35,175.62 308.29,311.64 138.35,204.72 342.18,633.32 339.97,880.56l-111.49 70.21c8.53,124.96 126.95,461.75 158.38,614.26 47.75,231.85 48.46,469.68 61.92,705.98 -57.17,-4.97 -356.51,-106.7 -427.74,-133.07 -39.42,-101.31 -15.01,-343.85 -403.55,-297.69 -67.45,-75.03 -70.75,-153.46 -125.54,-210.22l293.74 -4.56c89.72,71.5 77.72,151.82 192.37,186.23 68.99,-49.64 85.95,-138.99 67.29,-233.07 -20.57,-103.75 -80.17,-102.21 -117.89,-168.3 -66.83,-117.09 24.59,-82.32 -110.95,-169.84 -50.13,-32.37 -109.02,-79.85 -151.38,-123 49.39,-174.48 12.52,-234.94 25.17,-394.45 88.54,59.71 78.79,123.38 170.64,87.72 112.9,-74.96 -273.51,-568.75 -352.61,-640.64 -181.69,-165.15 -141.55,2.5 -100.47,-171.74 -195.15,-140.2 -284.82,-266.66 -569.06,-97.66 -212.03,126.08 -262.87,209.09 -388.56,418.43 -60.71,-231.64 -59.67,-490.55 -113.08,-711.71 -34.45,-142.69 -276.93,-429.05 -259.2,-551.32 43.39,49.81 211.03,-94.03 280.27,-134.86 522.58,-308.16 1052.16,-29.83 1087.16,-29 -325.61,-105.38 -65.67,-17.68 -344.8,-7.73 -124.13,4.42 -245.9,51.76 -353.24,106.19zm-1074.49 13454.96c73.88,166.04 59.66,199.7 274.01,172.88 8.53,-171.63 -159.35,-507.68 -240.71,-663.29 -54.1,-103.45 -131.8,-182.27 -186.77,-270.87 -49.05,-79.06 -39.44,-290.49 -154.84,-307.64 -146.88,20.5 -31.15,57.53 -153.58,99.22 -35.33,-183.02 72.32,-145.02 38.26,-359.58 -33.63,-211.8 306.96,-628.4 -38.53,-1048.66 320.91,-110.31 494.78,-385.02 557.55,-705.5 49.9,-254.76 157.92,-841.38 134.98,-1078.68 -111.45,-2.18 -78.34,52.93 -232.85,37.64 60.59,-67.24 170.66,-139.51 262.57,-164.56 64.36,-17.53 103.46,-18.53 167.95,-7.41 114.16,19.71 112.92,-1.55 144.88,91.12l-121.3 38.83c32.33,111.21 167.96,293.51 223.81,495.88 94.57,342.82 18.27,265.73 -40.13,571.43l-303.2 1133.04c-120.29,379.03 -81.42,888 5.67,1269.42 62.63,274.21 167.38,528.41 312.77,766 81.88,133.78 105.68,89.31 268.6,96.22 23.57,-72.28 -115.98,-353.88 -153.27,-447.64 -204.71,-514.74 -301.11,-1078.39 -196.28,-1625.72 57.87,-302.05 483.39,-1908.98 472.14,-2026.86l-147.8 -4.08 -54.01 145.68 -119.13 -208.34c131.99,-79.78 74.11,-172.39 10.18,-295.34 -25.86,-49.72 28.56,-26.8 -30.44,-111.51 -115.03,-165.13 -304.07,-182.96 -490.83,-131.8 -116.93,32.03 -179.51,92.29 -274.37,159.32 -26.03,-124.82 -11.35,-265.22 35.05,-380.83 56.94,-141.87 173.78,-153.17 114.22,-293 -208.95,-11.22 -344.43,356.15 -362.37,527.54 -10.58,100.95 23.8,171.02 23.91,256.81 -61.39,-105.39 -133.95,-270.04 -133.37,-409.87 -350.9,-162.37 -507.32,-174.07 -572.19,-203.42 -39.42,-17.82 -288.76,-358.56 -361.19,-416.95l-184.5 75.73c19.92,103.06 322.01,436.52 381.37,572.04 -46.06,86.47 -164.9,172.71 -245.76,248.77 -256.72,241.51 -156.26,338.87 -571.09,431.58 -118.94,26.6 -315.3,21.59 -370.49,124.11 -73.13,-55.69 -162.08,-247.95 -227.24,-338.06 -78.33,-108.34 -166.09,-210.88 -246.84,-311.69l-257.06 -300.86c-333.47,-335.79 -1104.48,-781.81 -1566.55,-509.73 -178.89,105.34 -161,166.8 -189.24,328.54 -221.32,-164.57 -587.21,-859.76 -1328.69,-692.78 -121.11,27.27 -169.63,17.42 -165.06,131.67 89.95,50.49 96.49,-18.73 170.79,33.62 -33.65,70.44 -76.34,78.81 -86.12,170.63 -9.13,85.78 8.98,176.25 51.99,239.14 111.28,5.14 94.15,-35.19 151.54,-78.07 79.26,184.93 117.61,293.08 263.84,439.74 68.77,68.96 385.97,323.24 411.76,172.23l134.13 101.02c-115.83,-4.49 -359.73,-58.78 -461.24,-99.41 -335.04,-134.11 -646.58,-588.27 -741.59,-931.28 -26.32,-95 -83.58,-135.16 -86.04,-187.15 -3.87,-82.58 77.26,-96.4 129.24,-136.67 153.09,-118.56 86.57,-144.88 323.24,-232.24 184.59,-68.14 324.65,-32.95 514.66,-41.08 157.04,-6.71 383.68,-111.25 440.96,-112.94 80.29,-2.39 86.3,74.45 190.06,-21 44.52,-40.95 76.39,-112.04 116.17,-163.6 243.07,-315.05 471.01,-635.17 754.33,-921.13 296.88,-299.63 1124.1,-709.33 1545.25,-696.18 -7.32,77.31 -33.39,50.99 15.29,121.33 239.48,9.1 350.95,-296.18 437.93,-482.08l240.93 -478.2c119.83,-260.51 158.88,-588.3 443.85,-727.79 281.42,-137.77 652.46,172.38 662.16,169.97 -89.53,-63.12 -271.68,51.7 -357.45,97.96 -42.1,-112.83 61.96,-161.23 -110.79,-154.97 -173.19,257.76 -231.33,892.29 -203.9,1201.99 12.72,143.68 62.65,456.58 146.17,569.99 220.09,298.87 392.28,529.86 678,761.04 204.47,165.43 198.64,172.28 308.17,407.27 163.2,350.08 197.45,996.77 280.12,1160.07 169.57,-7.22 141.78,-207.98 152.54,-360.01 10.75,-151.77 20.11,-304.1 -12.57,-455.45 74.39,106.29 1347.41,930.57 1405.15,1165.81 -105.48,-27.19 -205.6,-89.49 -298.76,-35.68 -120.36,133.81 584.58,425.93 678.66,455.36 105.29,32.95 202.39,32.87 313.39,83.94 447.98,206.13 559.68,306.26 856.1,698.03 345.99,457.26 497.45,1209.58 570.39,1769.81 16.52,126.82 16.7,226.54 27.49,349.32 10.75,122.26 78.46,207.54 202.45,206.26 64.65,-430.52 -67.06,-925.06 -81.17,-1339.19 107.56,34.98 1429.5,1692.67 1737.19,2086.37 292.5,374.25 338.29,773.13 419.16,878.79 241.67,25.57 206.76,-43.3 161.82,-261.65 -22.45,-109.12 -69.75,-264.87 -107.06,-370.69 -175.99,-499.12 -1240.22,-1769.91 -1659.9,-2173.28 -82.66,-79.44 -156.61,-162.7 -238.33,-240.64 -143.55,-136.95 -421.48,-288.25 -438.35,-498.56 -12.84,-159.92 -2.48,-198.38 -53.41,-364.62 -90.29,-294.76 -398.79,-501.83 -412.09,-543.2 2.72,-82.03 37.55,-148.93 40.36,-251.82 2,-73.11 -37.34,-247.94 -30.42,-269.11 18.69,-57.05 86.02,-91.63 98.66,-191.5 16.55,-130.66 -50.59,-160.23 -58.06,-241.97 -17.4,-190.51 79.88,-198.21 -58.79,-418.82 -93.52,-148.75 -156.42,-254.91 -187.95,-431.42 102.74,-19.34 121.07,-75.23 207.55,-100.49 95.45,-27.9 121.11,-55.41 180.83,-140.89 63.05,-90.24 80.83,-101.24 111.58,-209.59 38.75,-136.49 5.97,-151.88 127.86,-205.41 -1.39,-222.02 -12.95,-381.2 -99.41,-586.74 -95.97,-228.12 -224.33,-292.52 -280.39,-398.12 181.3,-291.64 349.12,-645.42 257.1,-1017.49 -41.83,-169.16 16.72,-185.92 64.07,-354.95 129.64,-462.79 28,-578.22 -370.51,-798.44 -75.9,-41.94 -243.55,-114.36 -298.44,-156.61 137.59,-382.84 -82.46,-817.98 -43.21,-1174.8 32.93,-299.49 -105.99,-527.56 -203.02,-793.8 -24.66,-67.65 -70.65,-158.26 -88.02,-215.82 -12.63,28.21 -38.37,-18.06 26.48,50.27l186.19 196.97c77.76,80.52 149.12,244.22 264.55,231.3 105.43,-202.45 -280.09,-748.88 -430.57,-902.44 109.69,-55.1 84.66,-37.24 46.05,-182.54 -59.01,-222.14 -209.31,-413.6 -400.93,-542.57 -175.02,-117.79 -598.03,-401.76 -779.53,-455.35 -33.8,-91.51 15.65,-97.17 -82.72,-132.56 -29.84,-10.73 -143.98,-40.31 -177.55,-46.7 -112.02,-21.36 -253.9,18.97 -361.61,53.7 -383.31,123.6 -376.12,242.42 -552.65,329.27 -21.36,-204.4 209.86,-494.46 144.98,-652.13 -122.22,-1.38 -201.34,158.7 -252.84,259.44 -69.78,136.5 -51.06,300.33 -62.26,451.71 -124.1,-110.28 -198.41,-210.91 -348.68,-307.89 -114.9,-74.15 -320.84,-213.34 -451.59,-211.55l-58.47 84.77c64.75,100.07 211.37,194.83 279.93,280.49 3.27,-26.77 -78.82,-58.45 -105.82,-75.69 -42.9,-27.4 -86.95,-63.58 -131.37,-88.85 -162.55,-92.45 -195.11,-135.45 -295.46,20.18 36.85,73.42 68.98,72.86 120.51,135.49 -58.05,-3.73 -261.61,-91.91 -391.54,-102.56 -136.29,-11.16 -370.21,-26.45 -474.93,51.45 22.3,157.02 287.83,135.23 403.07,242.98 -252.16,91 -907.18,-31.9 -1220.62,612.68 -155.76,320.32 -14.06,181.25 -467.81,452.72 -845.55,505.87 -676.51,561.62 -1749.03,1026.08 -215.02,93.12 -474.45,126.87 -661.2,256.54 -171.31,118.95 -349.17,318.04 -382.91,533.45 135.1,148.62 325.69,-189.04 516.27,-217.33 -158.71,67.61 -503.21,410.15 -617.06,536.39 -255.63,283.44 -294.97,774.88 -119.58,664.47 48.56,-30.57 26.63,-67.26 79.77,-99.92 7.86,38.26 -82.84,273.02 -105.13,347.12 -207.54,689.56 -132.23,1445.57 -340.3,2134.03 -40.14,132.85 -222.82,679.53 -218.63,771.9l117.7 33.16c36.39,-53.1 48.17,-91.22 97.46,-127.93 42.07,-31.34 94.56,-42.66 101.06,-89.1 -14.06,126.46 -15.19,483.85 -104.63,564.81 -118.72,107.46 -279.6,194.14 -352.28,345.37 -70.49,146.7 -46.91,393.68 11.5,540.06 103,258.12 237.58,127.35 146.3,476.66 -147.56,564.58 -496.73,810.82 -828.57,1225.75 -50.13,62.7 -93.72,129.99 -147.79,191.38 -53.62,60.88 -142.45,121.32 -159.8,197.83 180.08,96.69 149.11,16.11 331.43,-1.7 -9.23,95.54 -132.98,259.21 -192.32,342.7 -227.32,319.87 -424.73,226.06 -732.66,881.57 -200.74,427.3 -53.95,929.34 101.96,1338.59 47.95,125.86 161.99,247.52 213.76,352.43 -39.65,114.47 -214.07,314.07 -217.14,411.18l212.94 25.27c53.51,-62.74 173.49,-343.51 217.46,-441.12 71.6,-158.91 155.09,-270.66 240.86,-410.85 59.17,126.91 48.83,622.09 139.48,712.17 132.71,-38.47 48.4,-369.26 54.1,-695.96 8.59,-492.35 -18.84,-900.73 156.23,-1371.41 63.1,-169.65 195.84,-304.39 321.84,-432.51 120.24,-122.25 271.58,-254.33 379.36,-378.64 66.77,-77.03 109.28,-138.94 207.75,-167.88 94.8,-27.85 197.13,-85.43 281.85,-97.46 404.59,-57.47 806.7,154.48 1144.59,362.26 195.07,119.97 501.54,309.43 665.91,470.6 81.73,80.14 134.17,99.38 210.67,167.29 133.7,118.69 187.17,283.14 333.73,425.3 386.7,375.09 731.21,781.28 1124.37,1149.37 491.13,459.85 484.64,832.41 783.15,706.99 10.39,-146.65 -365.11,-641.6 -487.79,-761.26 -460.81,-449.47 -843.16,-732.6 -1234.28,-1301.08 -153.24,-222.72 -257.82,-275.32 -381.29,-573.71 -35.65,-86.15 -58.8,-166.7 -132.62,-203.93 -101.24,78.21 -16.08,122.91 -51.72,210.12 -42.98,-32.59 -69.05,-65.64 -119.47,-105.2 -383.95,-301.16 -803.86,-572.47 -1271.76,-723.17l-340.55 -99.73c-94.97,-26.79 -283.3,-43.13 -386.47,-45.87 -141.45,-3.76 -361.07,-55.86 -313.62,131.31l239.55 31.87c-12.57,19.21 -651.37,180.8 -719.97,398.31 69.39,81.49 24.63,10.36 98.51,69.37 -502.66,467.85 -770.4,994.55 -721.82,1681.15 11.76,166.24 5.89,183.81 -81.09,315.41 -49.98,75.6 -110.75,194.28 -177.97,243.15 -173.75,-131.72 -319.95,-591.11 -371.68,-802.71 -92.39,-377.91 283.6,-891.21 569.14,-1135.46 239.44,-204.84 86.61,-44.49 262.69,-337.88 77.33,-128.82 136.17,-246.46 200.1,-380.68 74.79,-156.97 146.97,-230.14 202.75,-404.08l-63.88 -58.18c69.04,-101.7 129.95,-143.53 190.34,-243.53 52.07,-86.24 112.63,-166.64 169.54,-249.98 155.05,-227.07 179.6,-347.59 252.25,-606.18 177.1,127.79 162.19,377.06 723.63,507.8l-15.35 127.39c68.58,20.55 355.29,-16.72 456.16,-21.39 248.61,-11.51 787.83,191.65 983.75,402.5 42.19,45.41 87.63,108.87 117.68,138.22 -171.27,10.41 -323.42,-97.1 -328.02,90.73 211.02,120.2 1063.51,207.12 1386.8,315.25 140.11,46.84 267.26,130.99 380.85,176.04 -77.09,25.55 -77.03,-10.97 -138.8,33.56 -33.16,219.12 425.64,11.38 929.16,489.99 105.87,100.64 246.33,243.8 341.26,377.41 51.08,71.87 101.6,131.59 149.8,208.83 57.39,91.92 73.73,156.09 182.21,169.61 63.11,-142.61 -177.39,-354.88 -181.56,-459.41 484.08,41.86 652.47,-261.44 799.1,130.04 73.93,197.38 -68.53,753.54 -174.54,932.47 45.57,61.94 17.51,21.82 85.9,59.05 -10.85,93.95 -20.32,195.55 10.52,285.37 34.81,101.36 177.7,146.53 314.02,304.53 111.2,128.88 226.78,380.56 297.08,538.51z"/>
    <path class="fil0" d="M15582.4 8639.62c-55.02,-136.65 -80.89,-306.62 -130.7,-460.49 -69.27,-213.97 -106.68,-277.68 -109.03,-515.67 -3.46,-350.44 145.44,-718.81 568.49,-620.93 39.05,9.04 168.67,78.86 194.88,103.28 80.15,74.67 21.96,125.9 6.38,224.03 -39.7,249.98 169.68,785.23 -385.53,1094.36 -148.86,82.9 -117.01,5.61 -144.49,175.42zm17.11 144.06c19.35,97.43 -13.54,61.22 46.09,99.69 122.79,-44.04 62.33,-160.44 155.4,-244.9 78.74,-71.44 157.8,-85.81 243.56,-175.61 127.36,-133.35 256.09,-337.31 281.69,-522.55 27.32,-197.68 11.88,-167.91 -33.67,-344.8 -34.37,-133.5 -11.83,-252.02 -39.46,-382.72 -36.53,-172.81 -32.97,-144.84 -176.73,-237.51 -301.02,-194.06 -625.27,-159.14 -895.71,83.83 -131.1,117.76 -109.69,106.13 -139.29,280.76 -20.97,123.8 -24.26,273.74 -4.39,399.23 70.46,445.09 175.47,525.91 356.74,873.03 68.29,130.75 66.52,187.51 205.77,171.55z"/>
    <path class="fil0" d="M20894.33 14584.65c100.11,12.28 121.64,13.46 213.79,-21.01 10.52,-115.29 -21.64,-256.77 -12.12,-394.02 6.52,-94 49.93,-305.26 28.82,-369.54 -278.69,-36.05 -333.06,602.38 -230.49,784.57z"/>
   </g>
  </g>
 </g>
</svg>
