<?xml version="1.0" encoding="UTF-8"?>
<!DOCTYPE svg PUBLIC "-//W3C//DTD SVG 1.1//EN" "http://www.w3.org/Graphics/SVG/1.1/DTD/svg11.dtd">
<!-- Creator: CorelDRAW 2017 -->
<svg xmlns="http://www.w3.org/2000/svg" xml:space="preserve" width="320mm" height="150mm" version="1.1" style="shape-rendering:geometricPrecision; text-rendering:geometricPrecision; image-rendering:optimizeQuality; fill-rule:evenodd; clip-rule:evenodd"
viewBox="0 0 32000 15000"
 xmlns:xlink="http://www.w3.org/1999/xlink">
 <defs>
  <style type="text/css">
   <![CDATA[
    .fil0 {fill:#D7B56D}
   ]]>
  </style>
 </defs>
 <g id="Слой_x0020_1">
  <metadata id="CorelCorpID_0Corel-Layer"/>
  <g id="_2737062186128">
   <g id="_1599866302096">
    <path class="fil0" d="M15719.51 7801.31c1094.88,-500.61 606.17,-579.93 973.91,-1008.96l12.84 616.17c392.76,-30.15 743.78,-158.91 1122.95,-190.39 528.1,-43.84 719.96,24.23 844.79,-525.14 -200.54,122.08 -418.47,296.58 -628.36,121.08 362.42,-144.78 515.93,-46.76 636.54,-475.85 -306.39,158.13 -490.33,196.37 -867.95,102.74 192.22,-52.55 367.73,-45.79 587.35,-137.91 221.75,-93.02 304.41,-191.63 467.36,-276.13l-168.76 -38.19c-122.07,-66.01 -7.67,16.17 -80.71,-147.65 -280.91,117.52 -453.32,154.55 -776.71,29.51 172.74,-84.43 178.39,-103.02 251.05,-217.05 -336.57,-223.17 -544.93,-64.04 -742.95,-462l487.52 -74.58c-88.45,-135.83 -307.44,-135.43 -431.63,-231.45 -259.73,-200.82 -255.68,-500.42 -619.12,-680.08 -347.17,-171.64 -278.07,4.23 -189.44,-362.39l-458.24 -11.46c62.3,-190.38 138.3,-286.02 223.2,-444.93 -285.83,-43.61 -365.9,35.83 -623.28,111.21 70.5,-176.89 116.67,-212.62 206.81,-319.48 -108.41,-6.7 -238.13,9.02 -335.31,-19.85 -10.33,-3.07 -27.36,-10.06 -36.19,-13.94 -155.64,-68.4 -113.18,-191.76 -577.68,-57.08 -262.84,76.2 -203.48,62.54 -272.51,223.8 -99.32,-164.7 -72.83,-210.84 -105.12,-401.89 -208.56,119.21 -233.81,219.92 -259.7,463.93 -36.22,341.38 -8.61,284.23 -166.19,577.3 -113.09,210.37 -209.48,215.01 -315.56,426.9 -296.66,592.62 -168.99,706.71 -784.62,1441.98 -107.05,127.86 -260.22,239.45 -212.99,495.22 36.1,195.5 202.61,348.43 312.27,420.31 302.84,7.09 1210.44,-440.84 1470.88,-608.5 -331.68,1078.61 -301.56,1003.07 -1059.91,1810.92 -333.4,355.17 -272.93,519.48 -507.63,913.4 -50.26,84.37 -676.13,595.21 -789.67,694.81 -855.23,750.2 -695.69,-220.93 -1673.83,1234.43 -279.96,416.59 -1098.07,1373.72 -893.85,1950.9 527.53,162.83 865.19,-426.97 780.37,-766.27 233.01,-35.58 482.47,-59.2 669.6,-151.54 389.06,-191.96 106.1,-63.01 124.25,-212.47 11.68,-96.18 55.89,-104.04 121.58,-191.7 -329.1,104.76 -333.57,271.97 -380.3,-57.85l-332.39 209.09c42.88,-413.09 166.34,-495.37 412.86,-710.27 104.8,-91.35 470.44,-416.01 638.15,-476.34 290.76,-104.56 615.03,-50.4 964.35,-146.84 305.92,-84.47 592.38,-178.83 891.77,-241.35 -35.71,-198.37 -58.2,-190.17 -101.91,-365.68l12.35 -409.88c56.13,142.71 85.91,170.18 125.85,284.06 160.43,457.39 28.64,54.05 20.17,318.86 -11.01,344.97 110.18,225.79 280.05,489.29 -191.1,479.47 -333.14,822.18 -669.96,1159.3 -160.8,160.95 -133.68,172.11 -275.49,343.2 -213.38,257.44 -573.84,326.57 -585.16,647.62 -4.13,117.27 75.3,379.24 95.09,520.02 24.94,177.42 5.11,452.32 104.77,580.87 166.44,214.71 1248.49,396.26 1450.41,-204.21 119.51,-355.39 -85.95,-316.62 -117.4,-585.74 -43.75,25.65 -93.92,63.56 -134.59,89.09 -128.03,80.43 -137.98,31.67 -260.05,71.26 -396.64,128.67 -105.88,234.33 -460.88,267.65 -316.02,-295.67 -183.9,-602.19 107.9,-814.83 275.69,-200.9 412.91,-363.11 725.61,-572.11 300.88,-201.08 494.23,-310.71 782.73,-517.83 123.73,-88.82 231.25,-171.92 361.6,-256.39 271.54,-175.97 179.04,-146.3 372.86,-317.25 -96.73,255.63 -168.47,310.61 -381.14,412.35 -3.9,928.39 59.95,1272.03 -741.94,1696.45 -136.71,72.36 -108,39.59 -113.06,200.53l-4.9 155.58c-7.26,230.89 -7.32,182.48 202.94,48.96 174.57,-110.85 330.95,-220.02 566.14,-316.51 298.22,-122.33 651.66,-149.23 773.75,-402.78 252.48,-524.26 -9.98,-1074.66 1149.3,-1283.74 -210.01,960.28 -640.22,1115.03 -1091.76,1774.24 -273.12,398.72 -1371.4,892.64 -1588.65,1231.79 718.12,-75.04 1488.84,-292.24 2061.98,-698.37 226.26,-160.31 229.76,-383.05 390.02,-598.54 106.72,-143.48 903.4,-554.47 1153.61,-702.02 515.41,-303.95 652.03,-512.88 1018.66,-867.98 -102.49,1256.83 828.01,996.94 1147.44,1066.85 630.52,138 579.21,160.04 1214.56,-103.29 -113.01,-90.56 29.37,-16.03 -130.47,-65.45 -0.37,-0.11 -151.29,-20.56 -152.08,-20.66 229.2,-136.69 247.08,-132.63 321.83,-386.64 -522.06,220.37 -639,205.46 -1013.19,-115.72 563.23,167.12 952.12,112.72 1344.34,-210.6 221.92,-182.95 361.31,-191.4 556.09,-370.87 195.43,-180.08 241.81,-252.03 346.87,-535.6 -218.88,73.32 -227.06,250.07 -599.27,352.52 96.68,-118.22 149.14,-120.37 227.09,-224.41 270.74,-361.29 -46.68,39.61 24.94,-196.26 125.59,-162.97 328.48,-143.48 600.94,-583.07 293.41,-473.4 694.22,-324.88 840.83,-1315.05l-342.29 384.67c-50.13,63.89 -120.9,159.28 -177.52,207.1 -309.81,261.71 -142.06,47.74 -165.9,39.67 -127.94,-43.28 81.42,-109.73 -104.06,-11.35 -6.56,3.48 -162.14,123.52 -212.14,155.08 -181.79,114.74 -342.72,164.43 -577.17,185.24 370.84,-264 745.04,-395.07 960.88,-890.7 -445.57,202.36 -742.49,430.34 -1382.52,415.09 -715.22,-17.04 -519.39,-311.55 -1482.94,-97.59 -120.34,-194.07 -0.51,-152.74 -160.08,-324.64 -121.72,-131.13 -201.29,-106.68 -347.06,-221.2 342.87,63.62 767.13,128.86 985.9,-122.76 -151.76,-84.17 -69.76,-7.88 -223.51,-63.69 -15.27,-5.54 -32.87,-9.86 -47.84,-16.25l-89.68 -115.12c75.55,6.26 26.46,-4.51 120.68,18.36 261.59,63.47 650.82,156.5 862.07,-70.53l-351.66 -147.44 233.28 -94.72c-122.89,-67.23 -181.46,-120.38 -277.75,-166.52 486.24,246.71 1288.37,313.45 1625.73,-127.85l-1113.6 -428.67c795.53,406.03 2081.63,159.71 2412.42,-441.16 -989.78,47.15 -817.74,348.4 -2199.83,24.56 207.42,-68.95 220.1,41.93 425.85,-4.06 176.49,-39.46 17.9,32.12 144.86,-64.79 -219.95,-47.43 -305.87,-127.27 -485.69,-193.64 687.13,155.68 944.41,290.13 1734.67,73.96 425.89,-116.5 1132.48,-457.1 1264.75,-773.32 -765.75,245.44 -2005.34,606.74 -2692.2,252.54 -10.65,-5.49 -29.89,-16.65 -43.87,-26.46 332.73,52.3 715.34,173.67 1018.25,16.08 -370.09,-220.05 -1004.82,-32.12 -1432.46,-434.35 1184.93,245.34 1697.13,421.45 2959.28,-64.15 201.27,-77.45 677.5,-219.49 730.09,-461.94 -1380,422.42 -3503.38,434.2 -4706.2,-332.17 1369.5,161.49 2505.67,926.16 4799.96,-53.62 203.44,-86.89 428.95,-166.81 547.87,-341.2 -2852.63,556.67 -2504.66,356.49 -5317.89,-4.8 2158.38,152.81 4166.54,536.67 6056.63,-779.09l656.7 -536.4c-151.49,-10.58 -1411.7,768.92 -2694.63,867.72 -591.06,45.53 -3080.59,-0.93 -3504.19,-134.21 1391.24,12.99 3432.69,12.23 4736.98,-319.23 1194.27,-303.49 2586.72,-1269.16 3001.67,-1949.34 -230.69,-4.89 -611.4,382.15 -798.97,501.22 -964.03,611.94 -2041,964.46 -3249.38,1010.04l-4670.12 223.56c-269.57,20.88 -431.03,63.58 -656.37,74.01 1861.92,-431.28 3935.95,-277.18 5960.32,-581.65 1375.64,-206.91 2470.79,-623.73 3419.57,-1533.81 146.66,-140.68 650.24,-714.68 695.07,-945.33 -540.08,221.1 -1081.94,1653.48 -4562.77,1973.78 -2128.86,195.91 -4109.61,-49.75 -6019.41,594.19 -1737.98,586.01 -1711.41,2234.13 -165.61,2415.56 370.25,43.46 1024.42,32.39 1283.39,390.92 556.41,770.25 -991.25,1453.25 -1532.64,1598.94 -1020,274.46 -964.45,28.12 -2717.54,598.28z"/>
    <path class="fil0" d="M9261.29 3704.72c-1037.15,20.24 -2046.42,-59.23 -2970.05,-323 -656.97,-187.59 -1135.48,-368.72 -1643.26,-769.25l-486.71 -347.73c-11.34,-6.88 -31.13,-19.36 -47.74,-27.02 341.38,677.44 1365.9,1264.37 2302.35,1641.8 1145.75,461.8 2256.48,406.96 3517.85,406.05l-285.77 75.89c-96.01,13.07 -244.62,17.08 -350.05,26.63 -200.59,18.15 -421.75,38.64 -639.84,45.11 -785.56,23.26 -1625.97,-119.12 -2350.11,-390.78 -373.54,-140.13 -634.03,-349.39 -902.7,-459.33 172.64,558.52 1614.98,1091.51 2232.06,1240.34 1196.88,288.65 2232.6,-28.49 3362.16,-8.98 -2851.91,708.63 -3895.92,-37.18 -4492.04,-73.93 459.64,696.27 2445.07,987.42 3740.35,655.29 425.65,-109.14 810.33,-318.4 1245.28,-321.43 -520.41,46.91 -1367.19,472.01 -2091.8,588.06 -1043.98,167.17 -1466.9,-113.22 -2330.46,-233.85 88.21,237.95 642.14,474.59 936.22,571.42 491.1,161.7 911.3,147.95 1433.96,147.99l-456.14 123.62c206.55,170.24 874.69,-26.32 1109.38,-58.43 -628.19,502.16 -1877.49,87.35 -2524.74,-158.62 85.19,272.19 592.65,538.74 957.55,661.53 648.68,218.29 879.99,93.89 1483.56,8.49 -160.33,78.37 -200.02,49.85 -331.11,189.4l-100.6 138.85c-627.02,43.67 -728.69,-36.49 -1264.06,-180.35 563.58,875.25 1610.94,454.22 1961.07,629.09l-796.88 157.57c-18.73,4.39 -40.56,12.43 -55.63,16.35 -15.02,3.89 -37.67,9.26 -54.98,17.71 195.15,196.71 391.15,272.79 709.89,258.14 291.89,-13.43 541.28,-129.57 738.09,-238.68l-275.16 166.83c9.26,-0.62 38.08,-3.66 45.4,23.25 32.95,121.06 46.21,32.51 80.87,58.23 165.33,122.68 52.04,-53.99 31.92,27.16 -220.12,77.31 -210.8,38.98 -340.44,227.46 495.13,103.36 631.29,87.51 1021.64,-152.1 -191.39,363.25 -103.81,130.58 -439.06,309.6l696.13 308.84c360.86,101.67 635.58,-77.01 791.13,-221.92 -81.27,195.07 -112.48,128.59 -201.72,339.81 422.98,-35.92 632.3,-190.27 799.01,-471.05l-139.92 413.4c385.17,-20.45 78.78,-106.19 407.49,-625.74 158.04,-249.8 411.99,-272.49 413.9,-581.58 -2377.7,-185.29 -3067.77,-1679.22 -1556.3,-1913.26 2033.98,-314.96 1526.48,-1747.97 -454.14,-2262.42 -2691.65,-699.12 -4594.96,93.17 -6662.53,-1074.51 -677.57,-382.68 -1014.54,-745.92 -1546.9,-1117.15 341.88,794.6 1384.42,1550.9 2260.85,1893.93 1452.45,568.48 2325.84,368.32 3235.51,545.56l277.22 97.71z"/>
   </g>
  </g>
 </g>
</svg>
