<?xml version="1.0" encoding="UTF-8"?>
<!DOCTYPE svg PUBLIC "-//W3C//DTD SVG 1.1//EN" "http://www.w3.org/Graphics/SVG/1.1/DTD/svg11.dtd">
<!-- Creator: CorelDRAW 2017 -->
<svg xmlns="http://www.w3.org/2000/svg" xml:space="preserve" width="320mm" height="150mm" version="1.1" style="shape-rendering:geometricPrecision; text-rendering:geometricPrecision; image-rendering:optimizeQuality; fill-rule:evenodd; clip-rule:evenodd"
viewBox="0 0 32000 15000"
 xmlns:xlink="http://www.w3.org/1999/xlink">
 <defs>
  <style type="text/css">
   <![CDATA[
    .fil0 {fill:#D7B56D}
   ]]>
  </style>
 </defs>
 <g id="Слой_x0020_1">
  <metadata id="CorelCorpID_0Corel-Layer"/>
  <g id="_2737090467344">
   <g id="_1599870624256">
    <path class="fil0" d="M17053.2 9118.19c-44.79,-49.73 -26.21,-43.93 -80.01,-47.76 -41.83,76.63 110.65,253.49 118.79,342.2 -70.72,13.99 -63.62,-14 -101.16,-87.65 -35.54,-69.71 -34.79,-99.29 -109.17,-90.15 -1.9,92.97 75.94,176.31 42.78,230.91 -99.99,-18.91 -22.07,-113.97 -127.49,-138.64 -65.64,58.01 -8.23,119.09 -7.95,204.46l-73.58 38.75c-41.16,-53.19 -56.6,-135.4 -112.07,-162.12 -37.16,57.18 -5.04,154.09 8.93,222.14 -40.13,32.89 -41.4,39.41 -91.63,49.77 -36.96,-68.92 -41.32,-242.05 -148.91,-231.01 -20.81,75.47 29.99,230.36 43.95,304.92l-66.13 33.62c-19.64,-107.86 -45.7,-295.14 -173.46,-302.06 0.12,115.65 77.88,294.87 66.86,381.71l-74.45 34.92c-22.84,-103.92 -16.55,-406.11 -144.18,-430.16 -46.58,108.69 62.13,358.29 80.29,485.28l-112.08 56.54c-3.45,-94.76 -75.25,-511.47 -162.19,-546.74 -97.32,141.83 70.11,430.99 134.46,564.36l-947.6 666.73c-398.42,258.46 -771.46,399.4 -1255.64,309.25 -198.21,-36.9 -412.82,-113.46 -588.61,-212.16 -252.71,-141.89 -229.99,-70.59 -419.17,-385.89l-572.71 -1028.72c-162.14,77.15 105.73,681.3 185.72,805.95 142.36,221.82 237.18,456.38 402.32,674.72 162.87,215.36 900.23,1076.93 1179.26,920.86 -20.67,-88.79 -127.74,-128.61 -205.8,-142.77 -104.64,-18.98 -438.42,-480.37 -470.07,-566.37 104.4,28.24 200.18,69.06 311.43,96.8 113.85,28.4 234.02,26.58 350.42,31.28 191.07,7.71 286.72,72.15 707.85,66.52 266,-3.55 374.9,-27.49 591.63,-175.62 551.86,-377.16 662.36,-623.02 1302.38,-1013.3 238.98,-145.73 804.43,-459.64 1067.69,-485.89 -37.33,44.62 -356.04,209.79 -443.6,273.55 -507.74,369.78 -372.78,344.3 -705.85,710.61 -445.23,489.66 -794.65,1081.51 -1353.01,1459.14 -218.67,147.89 -376.33,40.29 -580.46,81.11 -25.12,144.17 99.82,192.34 221.16,188.3 152.53,-5.07 215.54,30.13 384.36,-19.8 208.71,-61.72 329.85,-243.17 463.06,-403.71 262.96,-316.94 505.97,-668.98 788.19,-964.23 538.47,-563.37 467.65,-397.28 985.83,-767.13 171.63,-122.49 327.25,-243.03 486.14,-381.34 60.01,-52.23 162.85,-201.19 219.07,-216.47 95.03,-25.81 257.6,-20.6 281.31,-142.83 -235.07,-310.39 -969.27,-37.38 -1152.51,-34.21 -29.94,-89.92 -79.24,-185.36 -144.39,-257.67z"/>
    <path class="fil0" d="M18016.47 1452.14c94.47,41.09 126.17,-77.16 280.65,-236.6 81.81,-84.45 201.64,-217.22 299.01,-274.47 -22.07,68.21 -257.29,302.28 -331.04,404.02 -51.49,71.03 -101.72,83.84 -78.07,162.25 75.38,-16.46 164.58,-192.52 346.89,-312.85 135.05,-89.14 326.71,-188.47 487.5,-198.94 -25.38,40.28 -138.93,96.73 -225.35,155.3 -197.9,134.11 -242.42,180.63 -402.67,353.09 -50.09,53.91 -154.48,156.34 -146.14,233.69 90.93,3.87 352.28,-333.29 796.72,-402.96 -81.25,60.46 -613.43,243.78 -682.81,530.75 73.28,-1.52 290.03,-186.46 571.82,-228.69 62.3,-9.33 65.74,-22.4 73.82,21.39 -52.47,16.44 -576.53,98.3 -582.19,337.4 100.39,14.97 167.58,-19.87 281.94,21.01 452.05,161.56 110.9,330.48 383.31,533.67 190.66,142.22 268.32,273.82 368.91,180.21 164.9,-153.45 98.71,-398.46 275.17,-357.72 42.9,72.84 41.2,209.77 108.99,276.29 99.95,98.11 189.93,3.87 180.27,-134.53 -21.05,-301.51 -65.94,-323.81 9.82,-654.15 56.21,-245.04 122.32,-413.59 61.13,-667.48 -39.81,-165.18 -117.18,-368.05 -275.75,-445.78 -69.59,-34.12 -57.68,-52.07 -111.2,-83.03l-391.74 -173.12c-205.56,-63.94 -433.86,-16.55 -608.49,104.82 -146.47,101.79 -750.45,688.25 -690.5,856.43z"/>
    <path class="fil0" d="M14621.09 2447.61c143.24,63.86 351.96,-107.01 564.09,-197.01 180.73,-76.69 15.18,-128.69 474.02,-330.32 150.09,-65.96 299.6,-49.87 394.45,77.85 2.9,42.78 -7.6,270.48 -12.17,320.91 -31.78,351.28 45.94,383.45 -84.29,592.32 -55.31,88.71 -114.25,153.33 -188.88,116.14 15.72,-90.78 269.4,-186.04 175.74,-352.8 -63.45,6.24 -28.86,-12.15 -66.93,61.08 -71.62,137.76 -127.66,135.97 -253.71,128.32 -251.61,-15.27 -52.28,12.48 -232,-40.38 -193.22,-56.83 -285.13,30.38 -419.38,114.1 -70.85,44.19 -121.67,43.22 -199.66,72.9 -213.34,81.17 -141.03,158.95 -268.98,281.62 -175.94,-59.23 -201.98,-45.61 -325.77,89.51 -60.72,66.29 -42.92,76.93 -127.81,130.11 -98.91,61.97 -167.37,194.72 63.35,233.25 109.69,18.32 70.49,33.91 156.62,69.26 82.2,33.75 293.21,85.31 356.87,15.46 -13.7,-111.44 -187.21,-104.9 -243.71,-143.63 -51.77,-94.88 37.35,-191.45 143.3,-162.96 68.69,18.48 93.27,126.2 206.81,142.17 28.66,-182.71 -300.95,-296.81 130.25,-531.39 230.11,-125.18 467.57,-143.13 722.77,-99.21 -85.75,31.28 -108,118.09 -193.76,144.56 -178.69,55.15 -306.58,85.67 -381.28,328.42 -16.07,52.24 -27.55,107.38 -25.36,161.93 3.02,75.46 31.85,99.59 65.43,146.24 -54.88,149.79 -42.46,211.92 39.42,336.87 24.79,37.82 54.97,97.81 70.81,139 27.38,71.18 8.49,132.63 43.75,176.87 74.02,-24.63 90.99,-182.38 22.8,-277.34 -164.04,-228.45 -68.44,-340.03 120.84,-538.63 76.4,-80.16 178.58,-109.28 175.83,-222.21 -177.53,-35.56 -368.29,184.52 -445.34,315.59 42.28,-247.87 17.78,-266.23 228.74,-392.12 143.76,-85.78 155.49,-24.31 227.56,-60.68 76.44,-38.56 78.32,-117.87 195.76,-121.48 -22.94,45.99 -25.73,39.58 -21.72,93.91l58.54 32.01c-94.22,165.64 -344.81,255.88 -265.59,462.95 348.81,29.28 232.25,-226.53 423.64,-397.64 23.79,143.51 -85.48,194.85 34.72,302 182.66,-35.15 56.99,-245.15 98.92,-411.63 108.07,42.23 133.08,190.2 173.3,289.04 27.22,66.89 150,252.33 207.73,266.82 70.64,-68.74 38.74,-229.31 -2.13,-313.95 -50.61,-104.82 -161.05,-71.33 -174.12,-229.92 87.73,8.46 120.91,64.97 208.8,46.59 1.62,-92.97 -24.17,-149.12 -116.36,-182.4 -129.72,-46.83 -109.95,-6.16 -206.66,-118.03 -37.2,-82.99 69.38,-368.17 334.32,20.99 63.9,93.88 141.47,166.49 231.83,233.84 303.42,226.17 40.57,487.31 206,704.64 -54.24,16.21 -115.92,77.19 -126.26,129 -115.39,-27.31 -48.6,-35.53 -93.58,-112.59 -95.01,-162.75 -274.77,-31.16 -195.94,99.94 52.53,87.34 99.97,6.2 151.85,106.6 44.4,85.9 -106.08,259.99 73.96,339.25 102.12,-105.28 81.56,-146.1 101.13,-280.97 59.97,-48.05 199.67,-69.93 257.65,-176.39 -10.91,-95.78 -38.14,-76.05 -106.61,-113.88 2.04,-100.81 16.35,-120.53 4.94,-229.14 -31.28,-297.68 60.22,-347.58 25.69,-476.91 -11.74,-43.97 -68.09,-119.64 -91.8,-165.32 -189.41,-364.91 -417.51,-172.05 -577.39,-448.47 151.29,-163.2 326.69,-44.6 507.91,-12.53 131.07,23.18 466.25,65.3 587.11,49.42 94.48,-244.82 -632.62,-300.61 -761.71,-307.2 -62.26,-3.17 -336.3,93.88 -392.57,-92.27 -38.62,-127.81 78.24,-303.13 237.08,-301.3 206.02,171.5 137.94,226.67 449.79,271.59 113.48,16.35 246.16,10.93 344.67,28.4 110.82,19.65 193.17,111.69 270.16,77.37 5.06,-70.95 -240.99,-165.12 -314.66,-192.44 -99.54,-36.9 -222.13,-153.98 -329.01,-217.55 -176.35,-104.88 -246.5,-70.99 -413.39,-118 -445.26,-125.39 -188.62,-33.15 -477.06,-69.25 -627.81,-78.6 -659.67,157.51 -1153.32,417.44 -100.67,53 -274.9,149.11 -280.04,271.66z"/>
    <path class="fil0" d="M12709.28 2963.97c170.42,70.28 98.54,-249.58 305.18,-208.85 61.6,160.76 -52.15,148.74 -7.5,316.48 229.62,22.44 156.94,-185.35 343.38,-241.99 255.27,-77.54 195.23,-61.7 274.55,-336.93 -71.12,-33.8 -128.13,-81.9 -215.77,-114.37 -100.51,-37.22 -190.79,-31.21 -281.61,-59.49 102.77,-137.79 505.92,-18.02 590.92,-69.49 -39.19,-118.27 -519.61,-331.61 -548.38,-374.12 407.01,-41.01 568.17,273.48 629.02,290.15 49.66,-97.66 -121.38,-301.09 -192.39,-371.17 -194.96,-192.41 -232.07,-155.87 -388.31,-247.42 93.49,-60.51 394.06,106.77 507.16,225.21 52.59,55.08 62.18,110.42 132.03,102.01 26.72,-120.43 -89.39,-210.14 -130.32,-309.12 129.07,90.77 256,306.15 443.73,284.76 37.02,-211.77 -559.93,-589.98 -609.38,-499.84 -7.78,60.24 53.16,66.62 79.45,130.94 -277.77,-183.05 -274.91,-224.68 -668.56,-259.2 38.36,-207.34 473.64,-420.42 867.4,-143.11l633.81 477.6c53.9,45.5 46.67,45.52 89.08,12.87 -6.74,-127.24 -368.87,-502.18 -551.48,-580.93 -90.12,-38.86 -183.36,-65.32 -272.59,-113.1 -203.76,-109.12 -335.92,-225.56 -587.73,-173.18 -212.08,44.12 -381.1,69 -533.58,237.09 -246.84,272.09 -377.18,679.6 -317.06,1055.55 37.19,232.57 133.46,327.59 285.7,483.03 60.75,62.03 151.11,127.77 155.11,218.96 3.14,71.65 -35.19,247.65 -31.86,267.66z"/>
    <path class="fil0" d="M17309.92 8396.69c-69.26,-52.17 -171.2,1.56 -325.55,-127.42 -61.22,-51.15 -202.05,-147.45 -273.65,-175.74 -1089.71,-430.66 -748.24,-567.73 -596.53,-829.56 99.1,-171.02 85.74,-314.16 409.65,-476.23 178.95,-89.55 356.51,-337.9 362,-537.21 3.69,-133.94 -108.43,-17.88 -111.17,-15.5 -149.9,130.47 -344.38,-39.58 -551.52,42.32 -140.21,55.44 -142.25,103.64 -331.96,112.94 -434.2,21.29 -330.47,-227.06 -701.3,-67.79 -171.3,73.57 -218.96,-55.08 -318.5,-44.79 -7.88,134.89 69.72,288.47 143.18,378.52 153.31,187.92 156.36,81.86 338.15,174.68 189.7,96.85 168.31,349.79 318.81,469.75 286.85,228.62 13.25,346.3 -95.22,437.26 -105.54,88.5 -154.5,170.44 -248.29,265.61 -140.3,142.37 -579.44,162.58 -631.3,402.35 91.21,35.02 203.67,-38.79 295.84,-63.64 498.59,-134.46 557.65,-84.65 1096.21,-84.65 211.71,0 543.55,-39.01 722.81,71.8 96.76,59.81 120.7,139.03 236.73,164.08 93.62,20.2 235.93,13.56 261.61,-96.78z"/>
    <path class="fil0" d="M11673.99 9970c41.67,388.98 267.94,776.99 493.28,1090.9 50.65,70.56 128.86,161.88 169.2,232.71 129.43,227.31 205.73,454.45 410.38,779.86 301.36,479.18 330.71,493.04 819.96,769.89 830.41,469.91 1010.49,-26.33 791.93,-148.22 -155.69,-86.83 -278.32,-4.88 -428.06,-376.79 -75.86,-188.41 -196.08,-316.64 -377.41,-407.29 -420.31,-210.12 -564.65,-387.62 -870.09,-722.85 -386.41,-424.09 -381.74,-487.01 -583.12,-1009.75 -72.73,-188.82 -155.57,-357.37 -254.2,-533.57 -218.95,-391.18 -186.14,191.88 -171.87,325.11z"/>
    <path class="fil0" d="M16021.63 13247.26c59.62,4.1 184.08,-261.61 222.12,-324.89 66.64,-110.86 146.58,-235.8 223.69,-339.22 288.48,-386.9 787.06,-777.74 1178.35,-1089.31 210.25,-167.43 388.43,-365.14 604.07,-521.51 901.72,-653.87 1939.21,-611.58 2131.22,-699.82 245.55,-112.85 110.55,-231.37 175.5,-288.8 126.01,-111.42 113.4,113.53 240.58,-256.02 41.66,-121.06 101.63,-367.22 55.64,-484.44 -63.15,11.61 -43.75,48.06 -68.72,133.22 -125.08,27.69 54.41,-18.59 -63.21,-32.82 -42.49,79.42 -35.8,227.48 -109.87,348.02l-43.15 -142.44c-134.36,5.31 -74.55,145.68 -158.45,287.95 -31.02,52.59 -144.44,202.52 -198.81,217.13 -117.2,31.51 -157.48,-173.14 -467.77,-32.91 -137.7,62.23 -103.35,65.89 -104.95,111.28 59.82,26.2 199.14,-6.6 281.04,2.01 -184.02,81.5 -490.99,129.56 -700.28,182.57 -202.91,51.4 -456.57,148.28 -648.45,234.43 -390.66,175.4 -798.5,366.02 -1133.95,636.02 -353.89,284.84 -1033.96,988.44 -1240.31,1413.91 -55.1,113.64 -255.2,550.17 -174.29,645.64z"/>
    <path class="fil0" d="M13460.68 7770.6c96.36,-152.29 131.22,-284.3 119.13,-469.25 -26.71,-408.44 -355.25,-31.89 -514.6,-1272.43 -22.51,-175.25 -39.81,-373.89 -24.61,-549.57 30.69,-354.78 -30.7,-670.47 43.99,-1114.53 17.54,-104.3 96.61,-421.53 35.42,-495.84 -103.29,26.26 -253.94,737.84 -275.11,864.84 -28.87,173.17 -41.83,341.39 -68.13,509.83 -28.54,182.7 -221.01,218.14 -183.3,382.11l115.37 -58.24c-18.19,114.66 -158.69,184.59 -138.43,316.87 75.23,-3.07 99.94,-29.87 163.89,-58.29 -19.49,85.64 -228.76,225.09 -157.9,365.93l101.7 -78.55c-0.21,141.23 -109.64,233.96 -140.7,372.01 178.08,98.49 475.96,357.95 581.21,522.77 106.37,166.58 53.84,271.08 93.78,451.98 29.65,134.26 103.55,293.15 248.29,310.36z"/>
    <path class="fil0" d="M18234.85 2853.13c6.65,15.3 395.38,274.61 445.92,297.81 409.72,188.06 495.34,395.14 636.89,874.45 30.81,104.31 50.73,205.69 76.79,309.42 23.24,92.52 70.93,195.34 95.34,291.31 85.53,336.39 88.24,1059.61 -1.29,1397.85 -107.21,405.06 -278.9,593.73 -154.71,895.29 48.24,117.15 83.78,166.84 216.49,179.46 170.72,-48.99 -31.97,-382.67 58.88,-647.83 33.8,-98.65 67.09,-184.16 99.06,-287.61 29.69,-96.12 34.04,-251.2 79.35,-329.22l99.27 112.18c61.46,-90.92 -59.49,-213.21 -78.25,-296.7 40.83,26.05 73.27,64.94 115.19,69.03 42.64,-128.9 -104.06,-157.9 -107.6,-283.61 79.23,13.57 65.86,43.31 125.57,59.53 62.89,-115.07 -123.79,-175.94 -135.4,-264.07 65.93,28.26 88.56,87.06 144.11,63.29 20.9,-57.06 -0.94,-46.71 -47.69,-100.06 -32.78,-37.4 -59.23,-65.27 -95.09,-100.95 63.86,-26.34 26.92,23.69 90.28,-11.56 1.52,-92.82 -93.26,-155.8 -141.12,-227.04 67.65,-36.03 18.01,21.92 73.08,-13.49 -3.55,-129.23 -113.84,-208.38 -138.55,-306.14 -101.08,-399.89 -16.12,-696.04 -348.98,-1031.5 -197.39,-198.93 -230.47,-281.52 -490.59,-424.79 -99.01,-54.52 -543.38,-345.9 -616.95,-225.05z"/>
    <path class="fil0" d="M16381.31 11230.86c76.09,36.46 410.55,-235.77 524.12,-316.61 194.6,-138.52 311.62,-226.96 530.77,-337.86 491.68,-248.82 1303.19,-476.21 1913.95,-707.04 210.46,-79.55 428.96,-116.09 609.48,-257.72 210.13,-164.85 227.82,-320.6 317.26,-548.76 53.78,-137.2 172.44,-620.59 57.11,-722.37 -71.83,31.49 -67.52,144.99 -116.04,324.79 -94.77,351.16 -191.57,557.15 -507.15,777.49 -301.14,210.25 -847.51,404.65 -1206.49,497.41 -380.92,98.42 -897.04,298.4 -1255.6,465.25 -202.51,94.24 -368.84,160.97 -531.31,320.75 -86.77,85.34 -352.53,391.08 -336.1,504.67z"/>
    <path class="fil0" d="M12613.8 8523.57c-2.88,-70.74 5.93,-151.07 -8.96,-217.47 -21.8,-97.13 -36.21,-76.24 -84.24,-102.05l19.63 -242.19c-65.88,-10.24 -97.58,-4.7 -137.85,56.92l61.47 -368.95c-57.64,-23.87 -24.04,-24.93 -88.17,0.55 -4.9,-216.39 83.08,-445.17 -23.03,-665.05 -136.9,-283.68 -77.49,-436.54 -108.62,-625.03 -119.1,-35.86 -101.1,64.23 -105.37,173.96 -13.9,357.51 111.66,487.58 119.96,703.26 11.09,288.11 -242.95,575.21 -210.67,913.92 92.56,31.1 44.6,-25.82 124.2,-24.56 -0.64,149.49 -76.29,351.2 -25.34,501.11l66.39 8.49c40.35,-78.09 35.57,-179.88 91.83,-260.8 18.67,155.35 -74.96,422.95 -38.58,543.55 84.35,2.36 89.69,-80.07 150.37,-138.72 12.15,103.09 8.79,439.34 133.83,459.58 47.66,-54.17 26.98,-108.98 63,-175.02 61.21,78.75 69.66,259.5 162.32,336.69 103.58,-44.4 26.82,-41.88 76.48,-125.02 73.55,145.82 327.29,577.16 499.01,575.39 -8.71,-65.72 -225.22,-492.53 -269.96,-590.25 -40.14,-87.7 -196.11,-472.76 -310.46,-493.11 -108.66,-19.34 56.96,37.91 -30.47,-4.01 -14.95,-54.54 -15.06,-126.78 -33.36,-174.5 -30.41,-79.33 -50.1,-51.12 -93.41,-66.69z"/>
    <path class="fil0" d="M18793.92 6467.16c-75.43,86.69 -157.14,123.88 -238.11,247.29 -49.01,74.69 -138.24,243.29 -124.3,332l40.18 22.79c67.88,-60.48 108.78,-219.24 326.37,-371.01 112.37,-78.4 116.46,-90.95 244.01,-33.79 130.83,58.63 98.43,158.92 158.83,178.14 109.72,-148.39 -87.95,-600.52 -107.33,-779.15 -62.12,-572.78 297.05,-668.7 94.52,-1635.64 -27.07,-129.24 -180.16,-598.84 -258.63,-689.21 -76.98,-88.65 -226.28,-60.24 -251.94,77.27 -18.46,98.9 49.39,284.67 80.11,383.82 79.07,255.24 196.03,438.5 226.07,705.34 36.26,321.96 -37.14,492.42 -115.97,787.9 -34.4,129 -61.31,246.45 -90.11,375.9 -42.62,191.62 -58.4,212.93 16.3,398.35z"/>
    <path class="fil0" d="M17661.85 4151.43c28.57,-45.66 -5.74,-66.64 21.54,-120.57 51.13,-9.58 49.32,-20.75 70.38,48.99 35.51,117.61 -26.06,185.09 -147.29,204.78 -253.69,41.2 -270.5,-147.96 -137.91,-172.76 35.6,40.04 36.57,63.99 56.99,78.99 52.97,38.94 104.95,10.63 136.29,-39.43zm461.46 -173.79c-272.2,59.21 -411.84,-249.44 -848.91,104.54 -107.92,87.41 -192.63,185.67 -249.31,314.85 -54.06,123.21 -41.27,387.23 27.14,494.53 64.61,-22.42 39.71,-43.31 96.48,-83.43 36.03,34.65 32.08,45.63 81.19,61.71l126.56 -285.72c82.17,-169.88 128.3,-95.44 290.34,-129.63 291.16,-61.45 240.53,-384.95 485.54,-352.83 0.37,189.6 -105.96,298.88 -270.5,356.62 -85.2,29.89 -367.43,208.96 -258.87,314.56 71.59,-26.08 215.11,-208.66 350.71,-214.23 164.26,-6.74 314.78,25.87 374.95,-175.89 28.13,-94.32 30.95,-120 95.01,-195.9 200.85,-237.98 -159.53,-479.88 112.54,-597.23 60.06,-25.91 154.91,-36.46 111.48,-146.81 -0.07,-0.19 -299.85,-529.72 -438.08,-304.57 -73.2,119.22 83.42,264.58 90.21,450.36 3.23,88.64 23.63,179.45 -50.77,231.04 -136.64,94.76 -56.24,32.13 -125.71,158.03z"/>
    <path class="fil0" d="M18598.51 4835.64c-48.86,-46.65 -96.91,-92.81 -165.38,-29.5 -90.83,84 -27.28,67.49 -159.12,71.44 -133.94,4.02 -212.43,160.92 -230.45,272.69l-149.52 -4.43c16.03,106.25 173.81,184.94 275.05,202.43 134.4,23.21 344.65,90.95 334.15,-104.23 -121.89,-21.65 -193.79,-2.65 -322.88,-38.48 37.04,-121.96 141.67,-63.52 221.27,-109.69 62.18,-36.05 -1.44,-37.3 133.92,-107.36l63.61 -39.01c23.7,301.81 -226.62,850.61 -387.6,938.96 -130.04,-119.26 -6.18,-71.9 -201.99,-120.04 -84.84,-20.87 -136.09,-89.83 -186.18,-152.47 -50.62,-63.3 -255.37,-349.82 -299.84,-366.34 -61.64,61.91 9.34,140.96 95.24,282.4 273.94,451.08 614.84,407.33 591.44,768.56 -169.62,-59.81 -211.77,-195.26 -292.58,-329.41 -45.92,-76.25 -234.82,-304.34 -328.94,-260.32 -19.49,23.51 -24.45,-26.18 -14.27,57.65 20.78,171.22 267.39,316.63 288.29,339 144.17,154.36 174.8,351.95 259.18,461.89 34.78,-7.02 135.5,-29.83 173.06,-54.26l-2.45 -147.75c24.79,-19.36 62.09,-42.63 88.16,-75.08 -120.23,-546.45 647.74,-1052.03 346.56,-1918.5 -33.46,-96.26 -48.74,-181.72 -162.09,-185.05 -86.92,117.87 76.47,331.56 33.36,646.9z"/>
    <path class="fil0" d="M13724.1 5739.75c-115.64,16.79 -241.89,129.58 -312.14,-22.97 -83.54,-181.41 -10.97,-1001.09 23.64,-1209.85 16.37,-98.74 265.63,-661.01 83.58,-654.41 -66.45,2.41 -183.57,159.44 -212.76,219.37 -36.58,75.07 -62.61,247.54 -79.7,336.02 -134.05,694.38 101.24,1154.8 91.25,1559.01 -5.23,211.75 -13.18,545.29 172.76,684.49 270.58,202.55 265.25,413.5 429.98,431.64 10.96,-115.73 -154.03,-299.1 -255.67,-477.72 -101.17,-177.78 -160.67,-427.07 -111.53,-633.28 105.02,-145.64 315.23,193.06 456.1,-185.24 27.65,-74.26 58.7,-225.32 96.58,-273.16 71.17,-89.87 179.07,-93.59 174.36,-173.45 -47.4,-30.72 -8.89,-32.09 -94.81,-7.97 -104.63,29.38 -170.16,88.98 -205.82,104.1 -23.6,10 -229.19,73.95 -178.62,210.94 75.3,20.13 80.82,-24.26 139.27,-38.22 0.5,62.38 -23.38,140.36 -64.91,186.77 -111.16,25.12 -72.53,-15.76 -151.56,-56.07z"/>
    <path class="fil0" d="M20567.45 4706.59c-311.07,-180.74 -401.51,-468.36 -591.99,-451.1 -10.04,47.67 -8.54,32.4 24.24,84.63l138.39 203.95c-75.04,19.62 -40.15,-19.21 -67.41,45.66l261 380.61c-57.63,-20.63 -97.69,-39.58 -153.18,-10.84 19.33,112.78 166.05,209.33 205.92,320.43 -69.09,-1.69 -52.15,-20.86 -110.01,18.08 3.37,121.84 182.7,258.71 198.21,354.57l-87.76 10.98c12.54,76.88 349.73,423.45 418.71,573.22 28.83,62.58 36.31,200.08 93.24,226.98 105.13,-90.65 -31.48,-307.95 -42.62,-378.51 68.1,36.81 93.43,106.17 182.49,102.43 -10.1,-255.64 -306.49,-469.31 -311.8,-619.65 93.79,28.86 153.39,131.04 249.71,95.47 -59.08,-126.36 -288.02,-251.04 -363.92,-461.91 88.26,8.21 91.88,93.95 192.58,44.8 -10.97,-65.86 -395.33,-352.76 -384.1,-477.85 100.61,-2.53 199.58,113.86 309.79,114.2 15.88,-68.49 -65.56,-120.41 -161.49,-176.15z"/>
    <path class="fil0" d="M17487.47 8652.84c92.72,-41.93 6.44,-212.97 257.54,-531.18 136.01,-172.36 717.67,-520.58 926.79,-617.93 95.97,-44.68 430.53,-218.35 469.46,-297.12 -83.73,-100.98 -204.43,-28.15 -297.6,19.23 -90.83,46.17 -181.64,84.16 -270.75,131.78 -90.04,48.12 -179.19,79.48 -261.26,141.21 -329.98,248.18 -779.68,388.58 -1193.09,413.2 -77.38,4.61 -326.18,-19.3 -366.87,4.55 17.91,63.33 132.98,129.03 178.48,184.4 276.28,336.23 284.98,156.88 438.91,298.82 106.44,98.14 43.21,213.66 118.39,253.04z"/>
    <path class="fil0" d="M17402.92 12935.07c52.55,10.2 248.66,-142.72 318.84,-176.62 114.1,-55.11 282.29,-101.34 408.46,-110.76 312.43,-23.34 683.36,12.17 996.85,39.33 255.29,22.13 1066.65,-110.31 1241.75,-270.99 88.16,-80.9 162.65,-208.37 134.13,-333.3 -41.08,-180 -188,84.11 -264.85,137.47 -145.39,100.95 -246.92,52.67 -416.45,96 -267.65,68.39 -577.93,168.68 -849.86,180.36 -289.11,12.41 -707.11,-40.62 -964.13,32.77 -120.61,34.43 -653.08,260.64 -604.74,405.74z"/>
    <path class="fil0" d="M17766.06 13373.44c-106.4,-33.45 -497.93,-127.04 -562.06,-39.17 56.05,30.32 14.21,25.38 114.27,49.02 47.8,11.29 88.83,27.98 136.99,40.48 423.19,109.9 388.84,156.87 707.67,322.99 610.21,317.94 797.73,212.95 1084.96,280.21 138.14,32.35 364.37,131.71 484.53,208.68 181.54,116.29 220.7,184.81 457.45,219.15 211.02,30.61 347.8,-34.85 524.38,-135.33 105.5,-60.03 348.13,-205.25 302.25,-350.46 -74.16,-234.69 -323.82,71.32 -398.31,142.23 -146.31,139.28 -233.03,252.48 -456.38,226.38 -321.57,-37.57 -402.89,-434.49 -885.09,-481.12 -158.9,-15.36 -270.04,67.46 -612.28,-17.03 -353.12,-87.17 -527.15,-349.33 -898.38,-466.03z"/>
    <path class="fil0" d="M14672.91 4119.64c68.8,160.07 -72.43,274.71 -220.55,189.14 -133.05,-76.87 -173.7,-291.81 6.63,-264.72 6.52,72.01 -48.58,159.26 60.3,187.12 125.99,32.24 66.1,-86.59 153.62,-111.54zm-1022.19 167.61c93.88,-19.76 111.82,-165.54 219.36,-171.71 43.8,71.85 -2.81,52.46 28.5,121.99 102.86,-32.39 227.86,-172.18 309.44,-38.68 73.69,120.57 66.84,178.4 197.52,268.12 141.47,97.13 263.71,25.72 323.4,144.33 82.33,163.57 21.05,321.93 65.08,382.33 153.36,60.34 168.67,-306.33 169.5,-408.07 6.86,-843.34 -761.18,-565.67 -1060.64,-596.09 -94.89,-526.53 51.43,-327.36 139.28,-564.74 24.38,-65.89 34.88,-171.02 -27.04,-206.87 -104.08,42.44 26.38,94.65 -163.8,223.68 -298.26,202.37 -77.6,392.66 -139.25,587.02 -30.86,97.29 -145.46,193.73 -61.35,258.69z"/>
    <path class="fil0" d="M17205.36 12569.9c63.38,-1.53 388.87,-469.89 452.69,-548.98 313.79,-388.85 793.09,-623.36 1117.35,-877.04 92.75,-72.56 526.22,-392.29 445.82,-513.07 -56.17,16.31 -524.02,348.3 -599.55,407.8 -188.05,148.14 -767.84,332.96 -1158.69,836.33 -92.34,118.92 -361.15,559.6 -257.62,694.96z"/>
    <path class="fil0" d="M20602.71 6726.51c-45.48,-176.61 -288.27,-665.89 -403.19,-636.68 -0.66,87.31 170.33,339.56 192.35,453.38 -58.67,-47.28 -118.09,-117.92 -184.47,-78.6 21.76,53.94 321.75,362.39 346.95,610.28 -49.25,-49.57 -138.38,-210.36 -202.63,-191 -55.79,44.44 156.76,229.31 136.9,537.68l-96.89 -78.97c-66.09,65.87 107.96,266.58 102.13,448.95l-113.71 -44.05c-31.18,63.9 52.83,142.2 78.47,234 87.21,312.38 -130.45,738.32 -8.42,857.57 75.14,-13.86 99.99,-211.21 104.21,-283.89 14.5,-249.81 71.48,-158.63 108.25,-280.07 44.13,-145.72 -55.17,-584.19 -6.74,-735.29 68.5,49.41 26.2,69.42 124.27,65.92 17.02,-309.06 -103.78,-593.09 -177.48,-879.23z"/>
    <path class="fil0" d="M17591.68 2240.93c62.95,32.36 235.01,28.54 363.19,92.05 140.94,69.82 146.73,88.7 310.09,141.19 5.67,59.94 -27.75,12.67 4.93,91.12 96.69,15.04 439.13,114.11 506.92,156.74 -81.93,59.19 -194.47,39.48 58.7,161.51 88.25,42.54 164.01,84.47 250.97,135.49 89.47,52.5 416.88,291 485.06,289.84 -2.61,-103.38 -196.75,-263.16 -227.43,-305.86 -57.76,-80.38 19.81,-54.55 -62.13,-130.42 -120.86,-111.9 -319.86,-210.45 -472.04,-270.62 52.14,-29.8 34.4,8.89 38.85,-56.37 -201.85,-128.9 -288.97,-148.08 -521.78,-201.26 53.89,-20.02 76.64,-9.51 122.89,-56.55 -134.05,-94.4 -782.37,-231.62 -858.22,-46.86z"/>
    <path class="fil0" d="M17296.01 3710.79c58.34,-22.73 54.7,-155.62 56.83,-219.21 7.08,-211.26 -77.89,-125.57 -26.28,-242.61 189.2,3.26 69.93,326.81 98.89,370.21 77.23,54.84 107.79,49.54 193.38,20.1 77.9,-26.8 168.43,-26.39 249.31,-13.24 549.26,89.29 428.17,-343.41 70.46,-310.9 -153.06,13.91 -184.72,186.49 -316.84,125.44 35.94,-251.95 67.19,-193.57 -101.91,-349.76 -80.44,-74.3 -172.02,-247.05 -301.13,-173.13 -77.19,44.18 -25.49,117.45 -28.02,171.14 -8.26,175.86 -89.58,122.49 52.05,406.73 43.31,86.93 11.82,171.81 53.26,215.23z"/>
    <path class="fil0" d="M21130.38 11187.84c-23.01,166.65 -54.41,319.96 -93.96,482.99 -58.47,241.04 -157.25,344.96 -55.99,416.77 74.06,-31.43 208.64,-262.61 244.59,-342 67.68,-149.5 113.26,-278.11 132.46,-443.02 112.02,-961.78 -380.77,-1150.81 -284.09,-882.63 107.56,298.37 105.57,416.06 56.99,767.89z"/>
    <path class="fil0" d="M16334.85 7548.46c-15.52,147.09 292.15,251.38 408.97,270.01 271.63,43.31 349.75,-44.85 582.48,-69.65 167.41,-17.83 369.14,-87.66 518.33,-155.56 141.53,-64.41 330.99,-215.39 338.54,-350.53 -89.81,23.04 -244.13,167.7 -369.36,222.7 -644.45,283.01 -1233.92,47.64 -1478.96,83.03z"/>
    <path class="fil0" d="M14498.49 7877.63c-134.81,-15.33 -546.77,-114.82 -640.47,-91.6 4.77,186.66 457.22,257.35 551.92,357.93 43.11,45.8 101.16,125.97 151.19,157.43 61.1,-30.83 86.47,-85.38 150.6,-126.88 119.09,-77.1 467,-225.47 467.67,-316.12 -196.68,-43.96 -444.22,46.16 -680.91,19.24z"/>
    <path class="fil0" d="M15398.14 7471.87c-48.54,0.49 -159.57,35.25 -219.61,44.14 -662.97,98.23 -1205.92,-164.28 -1327.73,-137.11 -42.43,121.29 130.01,236.35 231.87,270.2 285.38,94.84 1059.4,81.15 1353.59,-52.41 93.15,-42.28 60.15,-125.81 -38.12,-124.82z"/>
    <path class="fil0" d="M14612.8 8708.77c41.31,-32.87 63.68,-51.43 73.39,-103.29 -116.56,-14.47 -389.27,37.19 -376.69,188.47 79.47,-7.21 123.67,-48.11 217.08,-43.03 -68.89,46.02 -315.87,131.34 -264.78,249.23 48.19,-3.96 85.22,-41.45 141.99,-57.33 52.46,-14.68 114.03,-21.22 168.73,-35.05 -77.84,59.79 -273.53,169.39 -200.55,285.16 89.67,-48.81 206.46,-162.26 318.49,-180.32 -57.15,54.76 -80.95,100.06 -129.02,154.68 -51.2,58.17 -125.23,101.32 -73.89,166.5 83.04,-91.57 166.06,-146.01 284.33,-188.96 -50.92,87.56 -208.8,206.57 -169.75,317.74 0.4,-0.12 407.59,-280.14 359.55,-423.76 -75.83,-5.92 -85.5,26.29 -143.41,60.73 26.53,-77.85 112.48,-102.42 79.25,-193.37 -93.3,-7.01 -116.13,56.57 -185.21,77.84 14.5,-36.82 68.55,-86.48 64.21,-137.27 -5.36,-62.82 -7.7,2.07 -11.74,-38.9 -6.41,-65.04 32.32,-17.96 21.22,-131.14l-173.2 32.07z"/>
    <path class="fil0" d="M16490.7 7301.93c230.64,109.82 1048.54,209.47 1386.88,-125.06 82.29,-81.35 228.03,-246.16 182.68,-367.23 -54.92,-0.29 -252,171.62 -319.91,212.59 -97.12,58.6 -264.73,139.28 -371.43,176.25 -127.51,44.18 -342.34,83.71 -476.74,74.34 -141.16,-9.83 -386.41,-131.57 -401.48,29.11z"/>
    <path class="fil0" d="M19626.46 9417.9c74.89,-27.66 29.37,-223.16 41.84,-301.8l85.57 144.35c106.68,-123.72 -107.57,-338.32 -177.07,-446.96 -67.74,-105.86 -203.43,-337.49 -276.55,-413.94 -76.19,-79.69 -386.28,-337.36 -251.95,-20.94 53.42,125.86 99.49,403.98 192.23,494.3 98.78,-89.39 14.16,-134.81 21.29,-263.03 54.99,55.15 133.53,206.87 168.11,286.62 31.21,71.97 18.29,137.37 8.81,215.52 -9.04,74.54 -43.41,128.56 11.58,163.47 46.42,-21.86 65.6,-112.02 90.39,-155.47 72.52,199.88 17.29,299.28 85.75,297.88z"/>
    <path class="fil0" d="M14734.95 7241.18c-124.26,-35.87 -594.57,-142.95 -687.07,-83.68 -10.61,264.48 1349.89,481.92 1364.94,35.58 -269.09,-15.41 -246.86,172.54 -677.87,48.1z"/>
    <path class="fil0" d="M16385.71 14093.89c-1.89,-93.98 -59.79,-205.61 -140.34,-244.87 -487.57,-237.64 -552.93,-572.37 -694.5,-448.95 -219.02,190.93 586.5,735.78 834.84,693.82z"/>
    <path class="fil0" d="M14871.49 2670.43c110.46,43.3 232.47,-7.08 333.93,-46.26 294.52,-113.74 680.55,74.24 706.75,-161.48 9.04,-81.42 -27.73,-106.31 -11.32,-185.82 15.03,-72.89 55.73,-103.29 -21.13,-160.95 -138.11,23.36 -72.49,186.85 -128.3,267.88 -34.6,50.22 -284.47,37.17 -354.1,39.19 -101.73,2.97 -633.69,74.14 -525.83,247.44z"/>
    <path class="fil0" d="M14216.54 5092.62c-71.84,-5.7 -30.12,51.87 -122.58,26.89 -64.1,-36.29 -40.1,-107.17 -129.26,-178.56l-189.65 -132.24c-104.6,-67.64 -132.16,-40.89 -138.11,-190.78 -4.53,-114.09 69.06,-189.77 -2.59,-231.69 -68.96,90.73 -87.61,274.96 -84.1,392.45 5.42,181.13 91,196.74 200.16,278.71 142.07,106.69 22.04,244.12 231.65,242.49 103.32,-0.79 313.21,-74.69 234.48,-207.27z"/>
    <path class="fil0" d="M13980.6 6464.47c63.03,-106.81 -1.11,-112.35 23.53,-184.45 18.76,-54.88 131.87,-68.77 193.36,-256.04 36.41,-110.89 16.88,-56.89 111,-116.46 137.79,-87.21 127.09,-144.87 216.39,-233.61 72.43,-71.99 178.42,-210.78 39.79,-278.67 -38.52,64.49 -19.13,90.33 -87.26,167.59 -78.44,88.95 -250.45,116.69 -355.64,368.34 -67.11,160.54 -185.21,147.41 -243.31,238.37 -68.61,107.43 -75.16,324.46 102.14,294.93z"/>
    <path class="fil0" d="M14317.2 4687.41c-78.82,35.5 -156.41,23.55 -157.77,140.42 54.46,54.78 109.03,61.12 187.74,41.06 100.42,-25.59 97.13,-59.57 97.47,-141.55 90.47,-37.26 73.14,20.05 93.72,-80.01 -182.62,-82 24.71,127.26 -300.93,-204.52 -121.19,-123.48 -145.33,-178.83 -349.94,-146.4 -144.38,22.88 -136.4,163.88 61.13,240.5 133.86,51.91 281.22,46.1 368.58,150.5z"/>
    <path class="fil0" d="M18725.88 8347.02c-66.54,-28.75 -109.01,-54.59 -164.65,-16.51 17.02,70.9 124.78,120.47 172.15,185.22 228.41,312.22 2.56,709.2 19.37,801.17 72.28,5.65 160.65,-162.16 195.36,-232.1 135.81,-273.62 72.56,-610.41 -222.23,-737.78z"/>
    <path class="fil0" d="M13588.38 3322.25c39.99,3.01 115.32,-100.49 199.17,-185.01 60.44,-60.92 158.43,-139.37 205.61,-196.51 60.47,-73.24 251.21,-499.48 241.46,-567.41 -164.74,44.51 -217.35,341.13 -356.88,451.71 -145.45,115.28 -373.19,397.8 -289.36,497.22z"/>
    <path class="fil0" d="M16184.9 1629.1l7.29 53.32c71.43,23.9 242.41,8.05 344.16,27.12 91.41,17.15 224.97,94.74 290.8,93.02 63.47,-1.65 546.14,-145.24 577.17,-175.3 -59.18,-78.31 -172.49,-58.29 -263.73,-26.78 -280.98,97.02 -644.69,-57.09 -955.69,28.62z"/>
    <path class="fil0" d="M14255.61 6759.72c-113.93,-0.76 -218.73,-29.56 -277.19,11.66 86.84,120.06 628.96,190.66 775.99,188.93 77.96,-0.92 209.86,0.62 251.48,-63.56 -50.25,-42.08 -383.31,-125.17 -465.46,-135.18 -80.32,-9.78 -199.48,-1.28 -284.82,-1.85z"/>
    <path class="fil0" d="M16873.76 6948.19c63.34,29.2 198.19,-32.86 273.17,-53.27 86.92,-23.66 185.24,-46.75 273.97,-62.7l469.83 -58.55c67.08,-5.81 86.95,0.57 87.56,-61.99 -181.27,-122.26 -1064.12,47.12 -1104.53,236.51z"/>
    <path class="fil0" d="M16184.9 1629.1l-6.02 -57.75c-188.62,24.57 -359.34,-23.68 -506.12,8.64 -107.61,23.69 -370.31,70.36 -383.94,192.21 67.7,35.61 326.79,-71.86 430.81,-80.08 209.51,-16.57 247.38,56.93 465.27,-63.02z"/>
    <path class="fil0" d="M14105.35 3015.42l242.43 -234.81c82.48,-76.94 200.14,-216.15 124.28,-340.46 -116.63,-0.48 -151.57,153.38 -233.22,248.48 -52.92,61.65 -209.28,253.07 -133.49,326.79z"/>
    <path class="fil0" d="M18166.03 5712.16c44.7,-138.88 -210.52,-442.85 -314.09,-362.69 -128.96,99.8 209.39,403.72 314.09,362.69z"/>
    <path class="fil0" d="M15089.44 9276.21c8.44,-113.85 100.56,-123.98 77.48,-233.29 -195.45,-4.51 -337.85,441.68 -317.19,511.93 84.36,-30.79 168.32,-216.56 239.71,-278.64z"/>
    <path class="fil0" d="M15524.84 10013.3c6.46,-13.89 44.29,-291.44 47.64,-332.16 6.27,-76.38 15.24,-262.07 -56.05,-296.58 -76.46,94.86 -109.28,590.69 8.41,628.74z"/>
    <path class="fil0" d="M15686.91 9471.12c-50.13,108.54 -47.21,557.35 96.93,580.2 48.63,-104.77 -7.56,-344.62 -35.74,-465.59 -22.02,-94.51 -19.68,-101.5 -61.19,-114.61z"/>
    <path class="fil0" d="M15336.4 9946.56c63.94,-18.3 52.49,-238.87 64.59,-308.63 15.27,-88.09 57.56,-246.77 -35.84,-295.24 -85.42,64.25 -92.6,522.25 -28.75,603.87z"/>
    <path class="fil0" d="M15089.44 9276.21c-18.14,116.39 -176.34,332.18 -60.33,428.89 19.49,-21.5 48.03,-160.88 93.3,-234.68 43.12,-70.3 85.79,-184.83 111.58,-222.47l-1.8 -93.99c-85.05,-9.04 -75.66,70.62 -142.75,122.25z"/>
    <path class="fil0" d="M15233.99 9247.95c-5.83,78.37 -54.76,180.42 -64.01,304.25 -14.02,187.7 -41.51,259.07 35.22,290.36 33.1,-64.11 98.73,-494.01 86.31,-580.58 -25.27,-16.47 15.04,-20.41 -57.52,-14.03z"/>
    <path class="fil0" d="M14166.86 6652.51c23.3,-18.6 176.3,-230.33 195.01,-266.03l-48.62 -41.16c-95.18,23.72 -111.5,-3.51 -163.69,79.67 -43.37,69.13 -54.46,122.65 -37.48,201.96l54.78 25.56z"/>
    <path class="fil0" d="M17384.13 9289.83c-6.48,-109.04 -202.32,-345.2 -312.13,-364.05 -9.93,78.03 79.92,178.73 127.8,239.12 39.43,49.72 119.07,155.56 184.33,124.93z"/>
    <path class="fil0" d="M17418.59 9003.65c-51.34,-120.85 -261.98,-245.56 -397.34,-255.12 0.91,86.41 112.68,128.46 181.19,172.05 72.64,46.21 138.39,110.03 216.15,83.07z"/>
    <path class="fil0" d="M17598.65 6369.42c-60.07,209.09 153.38,237.22 186.9,153.7 34.04,-84.81 -52.48,-238.77 -186.9,-153.7z"/>
   </g>
  </g>
 </g>
</svg>
