<?xml version="1.0" encoding="UTF-8"?>
<!DOCTYPE svg PUBLIC "-//W3C//DTD SVG 1.1//EN" "http://www.w3.org/Graphics/SVG/1.1/DTD/svg11.dtd">
<!-- Creator: CorelDRAW 2017 -->
<svg xmlns="http://www.w3.org/2000/svg" xml:space="preserve" width="320mm" height="150mm" version="1.1" style="shape-rendering:geometricPrecision; text-rendering:geometricPrecision; image-rendering:optimizeQuality; fill-rule:evenodd; clip-rule:evenodd"
viewBox="0 0 32000 15000"
 xmlns:xlink="http://www.w3.org/1999/xlink">
 <defs>
  <style type="text/css">
   <![CDATA[
    .fil0 {fill:#D7B56D}
   ]]>
  </style>
 </defs>
 <g id="Слой_x0020_1">
  <metadata id="CorelCorpID_0Corel-Layer"/>
  <g id="_2737063134352">
   <g id="_1599796279280">
    <path class="fil0" d="M10418.3 10410.19c233.75,1338.95 3730.76,5352.7 6748.75,3481.25 1117.44,-692.93 726.38,-1651.05 249.82,-2576.61 -329.94,-640.78 -992.34,-1980.74 -1118.83,-2649.59 -103.26,-546 50.8,-1058.54 -425.91,-1464.06 -1452.07,-1235.2 -3239.04,757.47 -3858.35,1138.4 -1038.13,638.5 -1828.25,737.28 -1595.48,2070.61z"/>
    <path class="fil0" d="M21407.69 8287.99c450.78,-2665.57 -1044.82,-1064.04 -2131.82,-692.02 -371.13,127.02 -1128.93,606.75 -1373.1,901.86 -358.59,433.38 -156.2,1344.33 -75.67,1870.7 627.74,4103.29 3287.58,-347.89 3580.59,-2080.54z"/>
    <path class="fil0" d="M19535.46 5537c271.71,-1046.86 -20.92,-2830.51 -1519.8,-2185.95 -595.73,256.18 -1395.98,1748.13 -1634.02,2362.59 -1016.98,2625.18 2347.45,2930.26 3153.82,-176.64z"/>
    <path class="fil0" d="M16853.81 3336.2c337.26,-1570.66 -1314.53,-1398.91 -1974.8,-695.28 -426.03,454.01 -1411.96,1655.12 -1419.18,2268.74 -10.58,900.18 1564.74,1726.89 2303.28,1051.98 339.99,-310.7 982.14,-2119.86 1090.7,-2625.44z"/>
    <path class="fil0" d="M12307.81 3808.26c-613.67,195.88 -1335.71,741.8 -1615.82,1086.36 -350.89,431.63 -368.18,2458.57 39.24,2745.3 526.87,370.79 1769.86,-661.65 2134.87,-1039.92 465.26,-482.15 381.37,-1618.49 165.55,-2398.13 -136.07,-491.56 -168.88,-570.74 -723.84,-393.61z"/>
    <path class="fil0" d="M21758.98 5372.14c329.42,-401.14 287.93,-1094.05 2.81,-1533.77 -216.51,356.2 -113.15,305.66 -417.04,644.34 -207.98,231.79 -464.17,623.77 -180.18,931.37 231.41,250.64 385.97,211.88 594.41,-41.94z"/>
    <path class="fil0" d="M19680.22 2365.87c279.4,-366.64 326.75,-923.38 64.48,-1289.61 -257.64,383.52 -224.71,365.65 -554.52,691.71 -167.98,166.06 -215.82,352.77 -168.97,517 119.97,420.63 413.36,403.23 659.01,80.9z"/>
    <path class="fil0" d="M17280.16 380.06c-323.61,30.06 -1299.03,814.15 -912.52,1221.23 191.39,201.56 619.48,-62.54 708.87,-303.56 47.76,-128.8 178.21,-764.08 203.65,-917.67z"/>
    <path class="fil0" d="M13008.44 2751.23c185.27,-40.6 293.51,-158.44 382.71,-427.6 84.12,-253.82 215.19,-665.27 190.28,-914.13 -330.05,241.56 -856.87,522.48 -936.94,964.89 -61.24,338.38 35.59,448.78 363.95,376.84z"/>
   </g>
  </g>
 </g>
</svg>
