<?xml version="1.0" encoding="UTF-8"?>
<!DOCTYPE svg PUBLIC "-//W3C//DTD SVG 1.1//EN" "http://www.w3.org/Graphics/SVG/1.1/DTD/svg11.dtd">
<!-- Creator: CorelDRAW 2017 -->
<svg xmlns="http://www.w3.org/2000/svg" xml:space="preserve" width="320mm" height="150mm" version="1.1" style="shape-rendering:geometricPrecision; text-rendering:geometricPrecision; image-rendering:optimizeQuality; fill-rule:evenodd; clip-rule:evenodd"
viewBox="0 0 32000 15000"
 xmlns:xlink="http://www.w3.org/1999/xlink">
 <defs>
  <style type="text/css">
   <![CDATA[
    .fil0 {fill:#D7B56D}
   ]]>
  </style>
 </defs>
 <g id="Слой_x0020_1">
  <metadata id="CorelCorpID_0Corel-Layer"/>
  <g id="_2737006342336">
   <g id="_1599866361136">
    <path class="fil0" d="M9500.48 7703.3c97.31,-14.5 73.21,-21.05 147.27,-63.45l0.93 -289.62c213.33,211.26 186.6,331.74 256.19,448.85 64.33,108.21 73.08,29.64 41.73,149.04 -154.63,-1.93 -119.33,-137.9 -216.56,-93.37 -66.92,112.2 135.75,231.1 134.35,341.06 -150.83,-121.45 -282.44,-106.61 -363.91,-492.51zm5563.82 -2032.06c-107.61,-182.55 73.83,-332.79 276.35,-395.38 172,-53.15 350.49,-35.01 472.47,-5.12 116.54,28.56 141.87,69.63 195.81,244.53 29.84,96.72 81.57,440.47 110.05,483.35 165.26,-46.4 -62.82,-361.93 238.9,-622.74 182.97,-158.17 491.4,-193.9 686.38,-29.56 117.82,99.32 180.45,314.09 77.07,438.66 -88.18,-215.15 -28.4,-337.01 -315.85,-369.13 -305.32,-34.12 -449.83,92.49 -477.67,368.5 -27.13,268.9 -40.49,545.6 -71.35,816.58 -15.31,134.42 7.31,195.94 -106.52,249.75 -45.72,-70.15 -202.53,-1026.7 -241.19,-1199.01 -51.79,-230.89 -206.14,-293.81 -421.46,-268.83 -252.91,29.36 -402.14,276.07 -422.99,288.4zm4565.52 -1921.8c62.96,103.5 126.6,194.1 66.08,409.22 -21.26,75.58 -120.37,284.21 -188.79,285.92 -115.35,-140.03 120.92,-239.69 -35.99,-420.22 -132.33,-152.25 1.07,-270.73 158.7,-274.92zm-1032.3 -700.4c51.15,115.87 102.04,91.71 163.4,124.95 24.56,13.31 23.34,21.91 59.99,40.23 77.11,-47.23 131.86,-94.79 155.1,-174.34 -21.45,55.68 -29.2,115.34 -19,174.09 120.36,57.8 234.33,33.96 331.28,76.14 -136.91,76.02 -643.6,-60.4 -724.06,-223.18 -3.9,-30.67 97.43,-207.68 159.93,-265.43 1.99,-1.85 6.48,-5.55 9.76,-8.28 -9.43,73.66 -21.19,70.03 -58.38,134.2l-78.02 121.62zm-277.14 -201.48c53.89,55.74 153.66,64.8 104.12,167.7 -80.13,-11.59 -216.04,-180.81 -259.17,-248.21 57.05,2.96 258.04,-109.78 328.46,-139.46 -40.78,125.34 -157.21,99.49 -173.41,219.97zm-287.1 -322.94l-19.77 -67.92c75.65,-45.8 231.64,-89.11 314,-74.76 -55.3,64.01 -76.4,47.13 -152.7,78.3 -66.48,27.16 -77.47,84.71 -141.53,64.38zm2615.53 -265.6c26.97,220.27 -178.68,567.52 -325.55,719.96 -144.65,150.13 -573.01,379.06 -712.96,325.38 111.77,-54.12 321.31,-67.11 349.18,-215.63 98.85,72.32 103.93,31.57 171.2,-48.16 86.78,-102.85 98.98,-59.5 178.63,-128.01 17.73,-122.48 -35.3,-111.71 -63.4,-172.47 64.04,53.56 19.14,66.15 131.54,78.67 121.17,-111.9 208.21,-346.25 22.23,-454.07 71.61,-34.56 77,46.86 155.92,28.5 90.08,-20.96 51.4,-80.4 93.21,-134.17zm-2802.18 -313.39l353.6 52.66c-65.47,27.49 -84.15,46.74 -158.18,57.24 -87.72,12.44 -114.68,-3.34 -188.2,48.51 29.56,135.93 116.02,147.56 80.66,217.47 -84.94,-153.61 -138.73,-416.92 -115.8,-609.51 66.79,83.02 10.82,116.91 27.92,233.63zm1050.67 118.53c-36.27,-182.32 -8.2,-344.49 55.84,-509.5 47.78,-123.1 62.68,-78.12 175.79,-109.63 193.74,-53.98 547.03,-77.53 693.75,-31.34 96.28,30.31 204.59,267.3 230.58,361.79 52.02,189.04 55.52,584.49 -191.97,628.78 -34.07,6.09 -60.99,6.46 -109.43,17.38 -65.68,14.8 -64,5.61 -110.81,13.49l-210.75 39.65c-133.47,44.62 -441.55,37.51 -498.21,-261.13 18.8,93.66 484.91,243.56 701.11,159.64 311.28,-120.81 430.7,-241.41 283.74,-591.99 -75.7,-180.56 -198.75,-361.92 -417.79,-309.4 -162.5,38.97 -308.13,2.85 -494.3,222.18 -76.52,90.15 -120.71,244.89 -107.55,370.08zm1058.5 -856.82c222.24,-41.71 532.78,137.13 588.75,231.54 98.2,165.64 130.06,542.48 110.55,731.09 -58.83,-30.66 -126.21,-53.34 -188.13,-45.49 36.03,-30.89 66.36,-14.51 140.06,-16.91 -6.97,-128.75 -25.39,-45.12 -49.96,-136.46 -15.88,-59.04 13.79,-82.07 24.8,-149.45l-81.37 -27.38c59.37,-39.07 113.52,-36.47 82.36,-131.01 -18.05,-54.71 -75.13,-88.62 -115.57,-111.27 19.08,-56.54 87.56,-107.49 -22.05,-151.23 -130.52,-52.08 -60.95,11.69 -152.57,-112.58 -203.05,64.66 -106.31,50.87 -195.82,203.78 -26.84,-69.83 -14.89,-123.63 -35.24,-181.41 -24.01,-68.15 -72.16,-62.28 -105.81,-103.22zm-1012.91 -505.49c-29.89,-92.07 -147.18,-253.31 -97.56,-368.1l65.82 -9.15 31.74 377.25zm-595.85 -89.26c48.78,-128.99 74.01,-83.76 172.62,-152.75 57.51,-40.23 166.43,-90.33 240.68,-96.25 -28.27,40.83 -40.62,28.46 -79.06,54.17 -42.3,28.27 -18.06,26.66 -79.8,55.53 -79.17,37.01 -87.27,58.79 -159.02,93.57 13.03,92.26 84.35,176.7 96.17,275.04 -59.63,-47.21 -59.82,-50.72 -89.33,-124.36 -40.19,-100.32 -28.55,-51.73 -102.26,-104.95zm-174.15 126.17c-37.24,51.91 -139.4,76.06 -190.06,156.93 19.77,42.44 179.61,136.78 245.22,242.43 -69.79,-47.61 -275.5,-125.77 -349.16,-123.68 -19.75,32.9 -29.32,112.02 -61.65,171.08 -28.49,52.04 -70.92,110.37 -62.15,167.03 59.45,41.51 298.89,119.41 397.41,178.25 -157.09,15.97 -216.8,-69.84 -353.5,-40.91l-31.66 123.09c-174.61,-54.08 -400.43,1.37 -589.02,-7.31 -143.92,-6.61 -417.11,25.61 -492.05,153.99 83.19,41.87 80.13,-23.03 160.32,48.75 -37.68,110.12 -403.84,107.15 -606.11,178.29 -95.42,33.57 -259.59,174.77 -320.19,256.48 -67.12,90.49 -120.07,211.62 -127.67,330.32 151.65,-9.65 326.79,-99.44 485.78,-86.92 99.45,7.83 378.5,30.12 429.76,82.81 -302.32,-50.03 -646.73,-3 -895.23,177.74 -78.84,57.34 -157.19,105.55 -216.29,190.68 -43.36,62.46 -207.43,261.51 -182.21,338.65 91.46,12.94 457.33,-287 723.67,-157.94 -9.37,27.18 -67.42,10.63 -121.25,13.88 -46.04,2.78 -139.12,12.44 -181.32,25.58 -57.4,17.87 -233.12,91.98 -285.97,123.29 -442.08,261.86 -481.6,804.17 -1037.21,999.91 -145.49,51.26 -123.42,85.9 -193.02,217.17 -187.4,353.41 -413.41,650.14 -699,928.02 -595.09,578.96 -1560.59,930.26 -2327.42,1750.11 -66.55,71.15 -124.96,144.9 -185.97,221.04 -129.84,162.04 -42.13,138.07 -52.36,321.39 -14.53,260.44 -134.03,423.02 -402.29,368.15 -599.57,-122.64 -984.82,-944.4 -757.6,-1120.08 40.52,-31.34 199.47,-11.32 307.86,-62.88 -9.51,-94.33 -155.95,-150.02 -246.94,-161.44 -67.69,-8.5 -83.12,8.87 -152.22,30.21 -162.4,50.14 -267.79,146.06 -349.23,296.94 -65.32,120.99 -68.81,269.9 -98.58,321.77 -115.92,-23.66 -84.59,-89.2 -100.63,-178.55 -93.27,33.06 -317.06,352.54 -65.19,707.29 110.47,155.62 227.99,275.12 373.36,391.87 55.47,44.53 98.64,59.28 153.86,104.94 -160.68,251.29 -153.55,283.87 -71.45,561.36l102.12 9.22c135.11,-210.31 -168.79,-399.61 530.48,-357.37 131.59,7.96 234.27,3.57 358.3,2.87 371.27,-2.12 166.71,-15.43 366.13,-61.86 24.33,53.04 132.09,544.17 214.13,752.1 125.68,318.49 152.73,350.95 411.12,556.55 -1.82,108.21 -39.49,157.43 -17.76,292.11 24.15,149.72 124.09,219.63 -131.01,449.18 -59.26,53.33 -123.48,106.49 -192.13,164.92 -89.72,76.37 -341.99,230.37 -386.46,311.95 -143.39,263.06 106.19,373.35 182.88,445.93 -16.72,66.62 -129.22,285.76 -165.72,367.53 -191.94,429.99 -421.98,801.46 -353.09,1292.17 7.96,56.66 48.72,185.87 47.88,222.07 -1.75,75.37 -68.31,93.74 -114.37,155.1 -254.64,339.2 -324.62,979.46 177.1,1115.26 80.9,-84.1 40.44,-225.6 209.79,-353.76 87.32,-66.09 201.26,-233.06 240.58,-337.76 109.2,-290.75 110.5,-718.08 129.92,-1038.4 18.77,-309.8 9.61,-662.49 263.92,-879.48 52.27,-44.6 27.25,-20.41 79.63,-51.77l251.12 -192.13c108.25,-94.03 20.69,-297.62 220.54,-346.38 197.18,394.55 239.22,296.39 707.16,365.17 104.9,15.42 371.42,51.47 456.15,98.17 213.16,117.47 131.51,236.02 199,363.43 85.43,50.21 435.57,-9.05 554.25,24.1 10.66,7.58 86.49,407.49 523.62,307.03 215.7,-49.58 475.3,-152.29 424.01,-417.43 -80.77,-52.9 -215.25,-63.97 -310.78,-121.47 -189.87,-114.29 -111.92,-183.13 -138.11,-338.08 -380.74,-242.58 -820.29,-183.76 -1235.47,-292.43 -221.78,-58.05 -243.98,-123.12 -205.43,-367.21 16.4,-103.93 124.69,-82.36 319.22,-273.11 124.42,-122 182.49,-180.26 265.95,-348.08 238.18,-478.86 84.67,-676.55 44.57,-1010.12 221.53,-147.21 182.6,-277.58 238.49,-470.56 163.28,-19.2 365.32,20.55 568.42,-7.29 610.49,-83.66 759.6,-322.65 1222.8,-629.43l334.58 -235.46c158.87,-111.8 205.23,-151.59 394.83,-208.69 306.69,-92.37 465.06,-90.42 664.19,-406.33 111.32,-176.6 77.54,-143.67 287.63,-120.7 169.29,18.5 367.72,22.04 614.86,-181.51 132.78,-109.37 117.29,7.04 378.96,27.53 96.15,7.53 460.47,-8.18 491.92,1.09 16.15,113.3 -391.64,542.84 -515.33,634.89l-138.19 97.75c-75.69,59.84 -239.38,97.07 -336.54,134.49 14.48,107.46 98.82,159.58 78.85,255.79 -72.91,-10.81 -204.3,-77.9 -338.45,-35.87 -228.56,71.64 -368.61,217.25 -444.65,440.71 -30.19,88.74 -70.84,213.92 -60.06,311.11 4.66,42.12 -1.33,28.37 16.91,56.32 55.49,49.63 303.5,18.45 378.84,1.42 382.91,-86.57 434.75,-309.38 844.58,-379.51 87.25,-14.93 163.65,2.25 244.05,-10.76 196.96,-390.94 149.84,-551.64 605.12,-1007.75 120.1,-120.3 257.92,-308.53 368.84,-444.49 77.27,-94.68 439.58,-155.06 572.18,-242.13 49.86,-127.74 45.89,-280.71 40.73,-417.5 -131.26,-108.54 -603.02,-155.39 -628.26,-288.69 75.66,-58.85 300.14,-97.59 393.31,-104.22 226.75,-16.11 199.62,16.8 349.49,145.2 168.76,144.56 348.03,330.02 498.25,486.66 158.48,165.26 163.49,42.94 374.25,118.67 122.35,43.96 186.21,129.06 297.89,195.51 178.51,106.22 639.5,52.28 753.3,-127.41 -34.33,-74.74 -170,-211.1 -232.45,-275.78 -170.96,-177.07 -103.64,-133.81 -174.21,-333.91 -241.93,-37.91 -343.28,21.84 -673.03,-97.84 -204.17,-74.11 -388.33,-147.63 -557.77,-286.84 -162.59,-133.59 -593.06,-469.14 -861.6,-621.17 -158.26,-89.6 -133.89,-82.65 -251.04,45.84 -42.31,46.42 -87.08,91.58 -149.94,125.94 -250.31,136.89 -458.03,200.43 -744.07,193.08 -137.97,-3.55 -243.97,13.68 -386.45,-32.27 -8.99,-44.06 9.05,-214.43 8.57,-281.57 -2.31,-327.56 -167.37,-427.46 -255.05,-663.3 89.2,-51.28 152.79,-7.31 221.79,-99.39 65.25,-87.08 53.68,-181 138.5,-196.29 12.11,22.09 120.08,505.79 137.25,580.48 17.75,77.22 58.88,192.57 85.79,270.21 78.87,227.49 181.09,144.07 448.01,154.85 159.74,6.45 134.29,-7.8 242.02,-113.39 438.83,-430.08 372.79,-640.04 552.29,-926.55 100.49,-160.4 475,-265.94 650.12,-812.14 45.46,-141.75 -3.81,-159.61 116.88,-254.27 91.6,-71.84 164.27,-24.4 219.08,-164.1 -20.33,-82.44 -83.21,-95.42 -55.62,-165.76 89.44,-37.41 119.98,40.72 222.09,20.9 50.15,-70.41 5.22,-83.01 68.4,-135.37 56.19,-46.55 76.38,-18.89 95.47,-113.36 -46.49,-74.33 -116.65,-37.46 -168.03,-113.41 60.69,-39.19 106.03,-0.79 196.55,-38.58 38.69,-52.68 74.45,-158.38 68.71,-220.97 -66.86,-59.6 -137.65,-58.85 -208.31,-101.37 54.46,-75.85 146.44,-34.55 219.92,-50.75 26.7,-73.93 6.53,-88.56 18.42,-162.15 9.6,-59.39 34.55,-79.83 38.73,-138.22 -96.67,-68.75 -122.25,25.31 -157.49,-49.76 40.43,-61.96 107.11,-30.63 179.13,-84.83 87.48,-210.58 -112.73,-219.66 -209.56,-284.01 11.5,-75.44 81.43,-57.96 63.41,-198.33 -16.3,-126.97 -40.88,-139.63 -147.86,-89.48 29.93,-109.4 55.28,-193.6 10,-306.56l-114.92 -16.77c-40.12,-84.97 -12.56,-124.67 -115.27,-194.08 -123.14,-83.22 -157.21,-15.22 -240.61,-14.87l-8.63 -142.09c-101.98,-58.61 -28.79,22.1 -176.86,-94.24 -306.38,-240.73 -165.5,1.21 -278.49,62.59 -37.58,-94.45 21.88,-130.66 -57.91,-209.19 -140.94,17.89 -49.08,140.51 -213.38,-16.78 -57.44,-54.98 -163.76,-91.59 -234.89,-55.52 -52.56,87.81 4.16,126 -42.57,202.48 -48.88,-58.22 -33.18,-183 -101.9,-240.2 -120.13,11.99 -233.29,97.28 -348.76,-21.59 28.88,-63.31 40.49,-20.89 46.14,-105.07 -41.56,-24.95 -291.13,-7.47 -360.94,-6.87 -76.92,0.66 -243.49,91.08 -324.29,125.02 -55.65,23.38 -335.7,97.1 -340.85,101.06 -88.05,67.97 83.62,207.43 91.81,309.95z"/>
    <path class="fil0" d="M17620.24 1128.76c-34.77,15.62 -68.79,-9.35 -142.92,5.52l-4.38 338.24c64.49,31.13 138.25,26.28 220.63,14.32 53.9,-173.19 -5.82,-321.8 284.23,-652.23 12.95,-14.75 57.45,-62.64 73.11,-77.31 3.54,-3.32 14.13,-12.1 17.86,-15.4 75.26,-66.46 53.73,-27.74 61.53,-92.42 -134.48,-153 -346.79,-7.2 -396.92,111.12 -69.98,165.21 -13.3,88.4 -149.56,173.04 -132.14,82.09 15.62,145.31 36.42,195.12z"/>
   </g>
  </g>
 </g>
</svg>
