<?xml version="1.0" encoding="UTF-8"?>
<!DOCTYPE svg PUBLIC "-//W3C//DTD SVG 1.1//EN" "http://www.w3.org/Graphics/SVG/1.1/DTD/svg11.dtd">
<!-- Creator: CorelDRAW 2017 -->
<svg xmlns="http://www.w3.org/2000/svg" xml:space="preserve" width="320mm" height="150mm" version="1.1" style="shape-rendering:geometricPrecision; text-rendering:geometricPrecision; image-rendering:optimizeQuality; fill-rule:evenodd; clip-rule:evenodd"
viewBox="0 0 32000 15000"
 xmlns:xlink="http://www.w3.org/1999/xlink">
 <defs>
  <style type="text/css">
   <![CDATA[
    .fil0 {fill:#D7B56D}
   ]]>
  </style>
 </defs>
 <g id="Слой_x0020_1">
  <metadata id="CorelCorpID_0Corel-Layer"/>
  <g id="_2736999647280">
   <g id="_1599866436528">
    <path class="fil0" d="M20271.26 11282.46c-18.03,57.55 -429.45,282.4 -518.74,358.63 -63,53.77 -153.37,173.94 -239.81,182.42 -122.46,12.03 -225.21,-23.31 -283.86,-134.71 -291.3,-553.25 854.7,-589.15 1042.41,-406.34zm1021.15 -37.45c78.88,-58.85 515.9,-218.79 635.05,-214.21 18.98,282.81 -175.2,274.54 -215.34,589.18 -78.97,-69.05 4.22,-84.95 -193.94,-215.89l-225.77 -159.08zm-717.75 -615.26c75.59,-52.12 400.97,21.1 850.7,-370.71 33.11,92.32 79.17,244.49 57.61,340.51 -33.89,150.92 -126.49,148.21 -245.52,162.31 -134.93,15.99 -608.3,-54.43 -662.79,-132.11zm-4344.68 -2186.18l977.24 80.22c-65.31,89.25 -108.69,108.87 -181.04,237.36 -60.03,106.65 -230.18,104.34 -340.56,82.33 -239.71,-47.8 -455.58,-398.46 -455.64,-399.91zm4097.91 -3107.97c-2.17,-74.24 364.61,-381.26 443.88,-426.98 989.83,-570.89 1131.77,-37.38 1489.45,185.47 111.35,69.39 249.87,75.41 312.16,110.42 -41.08,67.83 -359.31,200.69 -446.99,222.81 -244.88,61.76 -352.68,53.32 -601.76,41.5 -274.68,-13.02 -323.77,-16.02 -588.69,-78.2 -224.36,-52.64 -443.58,-21.84 -608.05,-55.02zm2900.85 -4001.75c268.38,408.07 200.65,1142.8 -19.17,1558.09 -244.68,462.27 -552.27,716.98 -1009.65,953.66 -436.43,225.85 -874.11,437.46 -1318.57,643.62 -221.76,102.84 -426.9,210.22 -634.42,339.88 -52.15,32.58 -270.43,187 -296.35,197.09 -103.77,40.41 -143.38,-161.86 -194.48,-238.48 -53.53,-80.29 -438.9,-500.19 -439.5,-529.64 -1.94,-95.29 423.35,-387.42 516,-441.52 506.67,-295.88 961.51,-288.86 1506.28,-455.31 661.49,-202.11 1425.75,-576.94 1702.41,-1236.39 109.81,-261.73 162.56,-509.11 187.45,-791zm353.79 1429.74c141.42,-375.31 62.55,-1058.28 -98.74,-1425.02 -80.88,-183.88 -414.71,-1041.68 -580.46,-1079.02 -27.5,330.45 152.14,505.49 108.69,930.18 -28.94,282.86 -118.32,571.29 -250.83,822.94 -293.5,557.41 -651.51,705.84 -1216.72,912.7 -883.27,323.27 -1403.05,241.53 -2396.85,804.08 -366.89,207.69 -289.8,231.99 -549.66,507.74 -174.8,185.5 -399.19,340.95 -635.58,436.77 -359.48,145.71 -532.38,97 -905.37,43.4 -628.27,-90.28 -1182.01,-281.67 -1822.23,-305.3 -163.62,-6.03 -936.88,55.55 -1006.8,18.97 -93.76,-49.05 90.64,-223.9 132.94,-297.65 201.57,-351.44 354.08,-898.77 326.47,-1281.8 -20.36,-282.58 -191.68,-513.39 -296.85,-767.65 -129.66,52.17 -151.23,306.65 -258.06,470.84 -98.74,151.75 -170.08,278.06 -290.77,419.1 -457.55,534.63 -1185.11,793.65 -1827.6,1026.41 -370.88,134.37 -696.56,161.88 -1074.34,344.6 -663.59,320.97 -1325.62,815.26 -1168.38,1646.15 57.72,305.04 412.19,607.33 678.17,741.96 417.72,211.46 947.68,125.8 1041.37,385.46 -274.79,350.43 -631.1,427.87 -716.63,567.08 -127.49,207.48 130.44,256.37 300.27,245.94 209.46,-12.88 423.45,10.81 640.82,-0.28 412.6,-21.04 825.9,-43.13 1238.43,-60.13 334.44,-13.79 757.16,124.09 1012.63,-181.22 1,-224.51 -287.62,-357.09 -481.81,-388.5 -295.97,-47.88 -1131.19,188.17 -1436.9,294.18 -209.76,72.74 -456.38,233.81 -675.06,132.49 12.44,-39.84 364.51,-421.31 418.22,-458.45 388.38,-268.55 1254.94,-379.18 1742.57,-454.2 90.48,-13.93 290.91,-6.38 312.87,-105.9 -140.9,-111.86 -2376.39,54.63 -2817.91,-98.36 -349.09,-120.96 -674.49,-306.72 -764.68,-694.02 -108.68,-466.72 97.67,-704.65 462.46,-936.81 315.95,-201.09 663.18,-344.69 1026.83,-432.95 400.15,-97.13 704.75,-198.42 1080.9,-367.85 497.56,-224.11 957.06,-455.43 1278.54,-907.39 69.95,-98.33 211.4,-389.82 265.32,-437.42 17.3,81.96 -75.48,482.35 -102.33,585.55 -48.37,185.88 -108.11,327.36 -203.21,493.38 -240.41,419.69 -661.55,821.52 -1119.12,996.85 -199.06,76.27 -297.22,46.28 -516.19,179.58 -220.87,134.46 -388.7,334.89 -479.14,577.72 -39.8,106.9 -96.71,185.26 20.33,231.68 108.61,-73.86 173.42,-569.82 779.86,-624.96l1332.75 27.43c99.6,85.61 367.13,513.99 400.39,644.23 110.59,433.12 -118.47,780.09 -109.45,829.8 146.61,66.56 497.07,-405.56 546.38,-795.41 67.4,-532.83 -149.59,-601.08 -360.5,-986.61 111.6,-260.45 911.42,-288.5 1158.34,-251.29 196.1,29.54 391.57,102.12 591.37,144.37 193.8,41 393.49,90.35 587.28,135.34 439.47,102 803.76,232.12 1254.73,100.62 645.24,-188.17 677.26,-425.16 906.27,-560.86 148.44,41.23 415.14,502.58 470.77,653.81 191.38,520.23 47.05,632.32 73.41,983.74 51.96,692.57 941.79,861.43 826.2,1363.83 -196.57,854.37 1.29,1466.19 481.43,2157.87 74.32,107.06 223,209.37 154.66,357.78 -78.32,170.08 -661.92,281.11 -831.36,240.21 -191.78,-46.29 -2103.44,-1734.31 -2477.65,-1993.73 -350.9,-243.25 -1521.27,-172.35 -1979.93,-262.78 -252.9,-49.88 -576.69,-181.45 -797.26,-315.91 -284.7,-173.55 -349.06,-291.32 -567.01,-511.06 -25.62,117.07 260.67,546.28 351.31,645.43 200.92,219.8 309.02,307.99 556.51,471.88 267.77,177.32 324.85,262.05 529.99,500.68 253.92,295.4 197.76,299.94 595.59,433.76 982.55,330.51 1120.58,-254.13 1694.67,171.07 273.76,202.77 930.55,818.28 846.65,1183.36 -98.35,106.77 -341.35,110.43 -405.8,390.93 -31.61,137.62 112.45,459.04 192.46,576.15 207.46,303.68 274.89,964.54 -87.96,1158.79 -136.26,72.94 -750.84,-571.86 -854.24,-690.86 -270.37,-311.14 -390.89,-606.44 -708.61,-876.85 -320.28,-272.62 -738.07,-408.61 -1151.79,-435.35 -782.6,-50.57 -1548.44,-669.96 -1719.26,-1451.41 -58.05,-265.56 -9.56,-434.96 66.77,-682.26 39.12,-126.77 44.99,-617.91 4.15,-740.93 -187.82,68.34 -324.58,117.35 -531.57,149.99 -105.42,16.62 -551.66,49.08 -590.72,83.18 95.1,66.16 563.09,115.67 707.37,103.4 -339.48,725.96 -351.73,1299.02 82.84,1987.11 153.63,243.26 397.54,469.18 631.19,634.12 265.75,187.6 529.51,247.96 787.27,477.83 578.68,516.04 658.29,1170.02 451.67,1897.79 -197.38,695.22 -820.82,1165.7 -990.68,1535.9 27.38,-3.35 259.37,-166.25 312.65,-196.34 113.22,-63.94 206.17,-112.18 323.52,-161.59 111.09,-46.77 237.24,-93.42 362.27,-126.01 83.05,-21.66 373.06,-59.53 395,-110.39 -1.21,-386.3 -31.53,-940.58 7.82,-1307.41 44.44,-414.35 185.8,-597.37 432.75,-891.14 256.7,32.27 676.59,625.76 1155.24,932.76 406.81,260.91 938.65,553.83 1410.96,659.92 449.57,100.98 1398.12,98.26 1781.4,-180.76 732.02,-532.92 442.02,-613.07 614.32,-946.54 65.01,-125.81 127.34,-217.04 154.52,-361.52 89.84,-477.47 -34.49,-346.66 228.66,-813.77 141.55,-251.25 146.61,-577.83 -42.27,-807.06 -703.52,-853.76 -1475.95,-1581.88 -1267.79,-2811.75 80.55,-475.96 -36.14,-448.69 -256.9,-757.68 -74.79,-104.69 -353.93,-582.1 -338.61,-684.01 50.02,-25.82 328.25,-96.64 409.21,-121.21 333.34,-101.2 444.25,-248.27 784.84,-250.46 171.71,-1.11 331.54,7.6 501.49,12.24 524.6,14.3 1183.71,-280.62 1257.41,-847.02 -261.1,-10.97 -479.52,-70.24 -696.09,-209.89 -95.01,-61.27 -459.2,-323.99 -535.37,-399.7 878.09,-366.15 1360.68,-687.29 1710.87,-1616.63z"/>
    <path class="fil0" d="M16091.5 5432.24c245.45,639.03 1440.85,1027.87 1948.98,1446.53 158.1,130.26 307.05,251.98 456.91,392.21 268.79,251.5 575.92,615.68 811.59,899.16 67.28,80.92 119.99,166.25 184.78,247.71 42.88,53.91 118.65,230.43 184.08,221.98 0.29,-5.94 -267.97,-699.88 -296.51,-777.15 -103.72,-280.82 -171.9,-572.17 -253.5,-858.88 -74.11,-260.41 -149.05,-649.19 -182.64,-917.9 -16.22,-129.76 -91.61,-874.35 -110.51,-902.28 -146.08,121.77 -201.26,726.32 -744.05,870.03 -182.6,48.34 -280.21,46.41 -468.57,20.62 -245.93,-33.69 -624.42,-130.14 -843.16,-244.56 -81.33,-42.55 -677.4,-397.56 -687.4,-397.47z"/>
    <path class="fil0" d="M10423.85 8208.72c52.99,-249.14 -877.98,716.3 -915.87,757.42 -611.28,663.32 -1084.33,1417.63 -1375.9,2270.54 -84.05,245.9 -131.48,464.7 -191.42,715.05 -65.26,272.53 147.2,361.39 367.66,485.34 69.26,38.94 688.93,315.86 600.63,81.51 -103.49,-274.65 -167.27,-304.27 -227.49,-689.11 -80.35,-513.39 -13.07,-1065.01 203.59,-1538.75 261.4,-571.6 684.17,-1154.3 1097.62,-1629.27 41.6,-47.79 441.14,-452.56 441.18,-452.73z"/>
    <path class="fil0" d="M15770.52 9633.85c15.21,-46.72 -272.12,-368.74 -322.8,-439.56 -269.33,-376.45 -131.01,-473.51 -185.36,-570.4 -171.92,35.55 -225.28,549.28 -123.34,710.59 103.87,164.38 440.56,315.91 631.5,299.37z"/>
   </g>
  </g>
 </g>
</svg>
