<svg xmlns="http://www.w3.org/2000/svg" width="32" height="30"><path fill="#282828" paint-order="stroke fill markers" fill-rule="evenodd" d="M29.619 2.387c-.803-.815-2.414-.35-5.07 1.463-2.256 1.54-4.962 3.872-7.62 6.567-3.94 3.995-6.936 7.918-7.933 10.34a3.448 3.448 0 0 0-.51-.143c-1.032-.207-2.153.057-3.075.726a4.543 4.543 0 0 0-1.726 2.558 7.507 7.507 0 0 1-1.527 2.913.67.67 0 0 0 .06.926C3.144 28.578 4.328 29 5.559 29c1.187 0 2.419-.392 3.505-1.178.509-.37.894-.777.969-.858.923-1.005 1.314-2.324 1.12-3.528 2.343-.852 6.429-4.003 10.548-8.18 2.657-2.695 4.957-5.44 6.475-7.728 1.788-2.693 2.246-4.327 1.443-5.141zM9.077 26.06a5.72 5.72 0 0 1-.773.682c-1.517 1.098-3.373 1.225-4.722.38a8.81 8.81 0 0 0 1.37-2.898 3.238 3.238 0 0 1 1.218-1.806c.63-.456 1.383-.64 2.063-.504.56.113 1.032.437 1.327.914.58.936.376 2.296-.483 3.232zm1.63-3.868c-.013-.023-.211-.431-.58-.734.318-.863 1.003-2.03 1.958-3.368l2.048 2.077c-1.44 1.052-2.622 1.737-3.425 2.025zm4.484-2.827l-2.313-2.346c.4-.522.832-1.063 1.293-1.616l2.614 2.652c-.553.473-1.086.91-1.594 1.31zm11.7-12.28c-1.472 2.158-3.644 4.727-6.115 7.233a68.031 68.031 0 0 1-3 2.867l-2.748-2.787c.872-1 1.823-2.027 2.826-3.044 2.47-2.506 5.004-4.708 7.132-6.202 2.62-1.838 3.525-1.841 3.698-1.817.024.176.021 1.093-1.792 3.75zM8.523 24.27a.649.649 0 0 0-.888.261.481.481 0 0 1-.063.09c-.049.052-.21.21-.376.33a2.463 2.463 0 0 1-.813.39.664.664 0 0 0 .165 1.305.68.68 0 0 0 .166-.021 3.75 3.75 0 0 0 1.241-.595 6.08 6.08 0 0 0 .575-.506c.097-.107.182-.226.25-.354a.668.668 0 0 0-.257-.9z"/></svg>