<svg xmlns="http://www.w3.org/2000/svg" width="37" height="36"><path paint-order="stroke fill markers" fill-rule="evenodd" d="M12.594 34.955a.502.502 0 0 1-.353-.146L2.19 24.737a.5.5 0 0 1 0-.706L24.056 2.124a.512.512 0 0 1 .705 0l10.048 10.07a.5.5 0 0 1 0 .707L12.946 34.81a.501.501 0 0 1-.352.146zM3.25 24.385l9.344 9.364L33.75 12.547l-9.343-9.364L3.25 24.385zM23.132 9.183a.5.5 0 0 1-.353-.146l-2.46-2.465a.498.498 0 1 1 .705-.706l2.46 2.464a.5.5 0 0 1-.352.853zm-2.02 5.185a.5.5 0 0 1-.353-.146l-4.038-4.046a.498.498 0 1 1 .705-.706l4.038 4.045a.5.5 0 0 1-.352.853zm-5.177 2.027a.5.5 0 0 1-.353-.147l-2.46-2.465a.498.498 0 1 1 .705-.706l2.46 2.465a.5.5 0 0 1-.352.853zm-2.021 5.187a.501.501 0 0 1-.353-.146L9.523 17.39a.498.498 0 1 1 .705-.707l4.038 4.046a.5.5 0 0 1-.352.853zm-5.176 2.023a.5.5 0 0 1-.353-.146l-2.46-2.465a.498.498 0 1 1 .705-.706l2.46 2.465a.5.5 0 0 1-.352.852z"/></svg>