<svg xmlns="http://www.w3.org/2000/svg" width="32" height="31"><path fill="#191919" paint-order="stroke fill markers" fill-rule="evenodd" d="M23.37 19.968l5.742-3.315-4.516-7.822-5.742 3.315 3.315-5.741-7.822-4.517-3.315 5.741V1H2v23.484A4.521 4.521 0 0 0 6.516 29H30v-9.032h-6.63zm.895-9.903l3.613 6.257-6.314 3.646H7.122l17.143-9.903zm-9.587-6.943l6.257 3.613-3.646 6.314L4.783 20.27l9.895-17.148zM2.903 1.903h7.226v7.29L2.903 21.71V1.903zm3.613 26.194a3.617 3.617 0 0 1-3.613-3.613c0-.622.158-1.208.436-1.72l.004.002.079-.137c.304-.506.728-.93 1.233-1.235l.185-.108a3.588 3.588 0 0 1 1.676-.415h22.58v7.226H6.517zm0-5.871a2.26 2.26 0 0 0-2.258 2.258 2.26 2.26 0 0 0 2.258 2.258 2.26 2.26 0 0 0 2.258-2.258 2.26 2.26 0 0 0-2.258-2.258zm0 3.613a1.357 1.357 0 0 1-1.355-1.355c0-.747.608-1.355 1.355-1.355s1.355.608 1.355 1.355-.608 1.355-1.355 1.355zm5.42 0H27.29v.903H11.935v-.903zm-2.259 0h1.355v.903H9.677v-.903z"/></svg>