<svg xmlns="http://www.w3.org/2000/svg" width="40" height="48"><path fill="#B09868" paint-order="stroke fill markers" fill-rule="evenodd" d="M19.99 1C9.522 1 1 9.274 1 19.439c0 1.157.11 2.324.338 3.462.01.067.05.27.129.617a17.803 17.803 0 0 0 1.271 3.635c2.046 4.678 6.545 11.862 16.418 19.558a1.374 1.374 0 0 0 1.688 0c9.863-7.696 14.372-14.88 16.418-19.558a17.604 17.604 0 0 0 1.4-4.252A18.39 18.39 0 0 0 39 19.439C38.98 9.274 30.458 1 19.99 1zM36 22.447c0 .02-.01.039-.01.058-.01.048-.04.193-.089.415v.02a15.015 15.015 0 0 1-1.102 3.143c-.01.01-.01.029-.02.039-1.857 4.272-5.93 10.79-14.789 17.898-8.86-7.107-12.93-13.626-14.789-17.898-.01-.01-.01-.03-.02-.039a16.013 16.013 0 0 1-1.102-3.144v-.02c-.06-.22-.08-.366-.09-.414 0-.02-.01-.038-.01-.067a15.304 15.304 0 0 1-.297-3.01c0-8.727 7.32-15.834 16.308-15.834 8.989 0 16.308 7.107 16.308 15.835 0 1.022-.099 2.035-.298 3.018zM19.99 7.934c-6.644 0-12.057 5.256-12.057 11.707 0 6.452 5.413 11.707 12.057 11.707 6.645 0 12.058-5.255 12.058-11.707 0-6.451-5.413-11.707-12.058-11.707zm0 20.81c-5.174 0-9.376-4.088-9.376-9.103s4.211-9.103 9.376-9.103c5.165 0 9.376 4.088 9.376 9.103s-4.201 9.104-9.376 9.104z"/></svg>