<?xml version="1.0" encoding="UTF-8"?>
<!DOCTYPE svg PUBLIC "-//W3C//DTD SVG 1.1//EN" "http://www.w3.org/Graphics/SVG/1.1/DTD/svg11.dtd">
<!-- Creator: CorelDRAW 2017 -->
<svg xmlns="http://www.w3.org/2000/svg" xml:space="preserve" width="80mm" height="80mm" version="1.1" style="shape-rendering:geometricPrecision; text-rendering:geometricPrecision; image-rendering:optimizeQuality; fill-rule:evenodd; clip-rule:evenodd"
viewBox="0 0 8000 8000"
 xmlns:xlink="http://www.w3.org/1999/xlink">
 <defs>
  <style type="text/css">
   <![CDATA[
    .fil0 {fill:#D7B56D}
   ]]>
  </style>
 </defs>
 <g id="Слой_x0020_1">
  <metadata id="CorelCorpID_0Corel-Layer"/>
  <g id="_2400630128368">
   <path class="fil0" d="M3877.42 6516.85l287.46 0c-23.3,34.81 -133.78,135.09 -139.62,205.34 -23.2,-16.99 -14.55,-21.76 -30.17,-51.97 -9.77,-18.86 -24.48,-39.71 -35.48,-54.87l-82.19 -98.5zm911.69 -106.77l0 0 16.01 -9.45 -16.01 9.45zm-3244.32 -2579.04l0 0c0,-304.46 24.42,-462.92 98.58,-730.97 12.09,-43.74 23.42,-75.23 38,-118.07 13.95,-41.04 25.38,-75.61 41.71,-114.34 15.07,-35.79 29.34,-75.37 46.92,-109.13 63.77,-122.49 141.68,-276.82 225.35,-390.67 10.8,-14.69 20.6,-24.63 32.89,-41.02 11.36,-15.15 19.69,-26.33 31.64,-42.28l103.33 -126.65c13.98,-16.71 25.85,-25.58 40.59,-41.55l319.49 -288.32c281.3,-211.89 608.59,-355.55 951.65,-436.43 193.95,-45.72 289.82,-51.41 476.67,-57.21 39.32,-1.22 40.4,-9.03 73.18,-8.09l140.38 7.55c89.93,0.06 324.15,38.55 402.28,57.67 302.67,74.06 421.22,128.67 665.24,254.67 29.82,15.4 71.36,39.18 98.6,57.45 84.89,56.85 192.65,122.87 268.85,191.11 246.73,220.93 306.38,270.99 506.43,569.54 147.14,219.57 259.91,502.56 323.75,760.42 88.4,356.98 87.13,775.55 -1.75,1128.74 -21.65,86.05 -39.43,157.03 -67.52,236.38 -55.27,155.99 -108.9,278.32 -192.49,423.52 -53.63,93.13 -180.48,288.69 -252.14,363.88l-74.02 82.03c-31.98,34.37 -61.12,76.99 -111.15,118.83 -18.14,15.15 -22.65,15.46 -40.87,33.06 -132.62,128.05 -285.75,233.26 -444.75,327.31 -19.05,11.27 -29.46,14.92 -48.45,25.46l-158.97 79.24c-210.75,106.31 -626.1,212.74 -856.64,219.33 -24.08,0.69 -50.27,-1.58 -74.22,-0.3 -35.91,1.91 -34.71,7.38 -73.8,8.71l-286.29 -18.14c-79.51,-7.87 -193.17,-29.06 -265.83,-46.3 -174.52,-41.42 -310.37,-89.4 -463.03,-152.98 -319.76,-133.15 -665.14,-402.75 -879.79,-656.13 -84.72,-99.99 -125.81,-161.86 -195.08,-264.89 -14.36,-21.37 -16.57,-21.2 -29.23,-44.67 -94.97,-175.74 -154.21,-257.71 -226.9,-471.26 -84.63,-248.64 -142.61,-501.46 -142.61,-785.5zm2275.12 -2759.74l0 0c1.65,-1.15 4.43,-4.54 5.26,-2.96 0.01,0.03 88.61,-32.93 144.32,-118.5 13.08,-20.06 21.5,-37.94 39.34,-51.02 30.48,57.6 25.6,54.65 71.74,100.74l68.45 54.75c8.05,4.72 8.9,4.54 16.25,8.4l16.04 8.59c-62.37,0 -89.33,-8.21 -147.84,-8.21 -80.52,0 -130.69,8.21 -213.56,8.21zm969.2 5338.78l0 0c-19.59,29.25 -45.85,50.12 -71.94,75.9 -78.86,77.95 -141.57,194.8 -164.11,304.05 -43.59,211.26 0.71,407.34 133.81,519.01 114.83,96.36 266.67,139.39 406.36,70.45 161.48,-79.67 223.91,-302.9 81.91,-378.04 -15.51,11.37 -127.06,198.28 -314.72,68.32 -220.28,-152.56 -113.49,-503.07 120.87,-664.63 93.01,-64.12 182.15,-103.5 297.36,-129.76 484.83,-110.5 754.33,133.99 1189.28,197.14 163.6,23.75 303.42,-21.86 409.91,-68.16 50.76,-22.07 102.44,-58.3 143.03,-95.16 187.71,-170.43 160.01,-545.75 -107.67,-602.27 -78.94,-16.67 -160.52,4.79 -207.19,32.79 -51.89,31.14 -87.2,71.74 -86.5,153.58 0.81,96.74 58.63,-3.05 163.08,51 146.53,75.82 114.45,275.7 -35.16,378.93 -169.64,117.04 -515.66,81.44 -646.41,-66.97 -89.44,-101.52 -25.24,-300.35 150.09,-207.58 90.47,-188.52 -205.21,-288.43 -319.11,-97.34 -67.58,113.41 -17.94,208.97 31.63,302.68 -48.21,-4.01 -90.44,-22.53 -137.95,-34.52 -45.39,-11.46 -99.93,-22.62 -150.86,-29.82 -78.77,-11.15 -175.8,-14.25 -261.51,-9.62 -37.21,2.01 -38.86,8.26 -82.1,8.26l315.73 -209.94c261.94,-198.73 498.99,-442.92 672.56,-723.73l69.01 -111.69c11.43,-16.73 2.34,-4.84 10.46,-14.18 -1.2,53.17 -9.25,48.54 -1.62,108.27 39.31,308.16 358.12,407.56 461.56,212.05 -34.34,-18.17 -35.32,-14.61 -63.94,-42.84 -173.98,-171.67 7.64,-390.85 228.59,-408.63 238.94,-19.24 445.54,145.05 539.04,347.37 53.53,115.85 70.57,199.61 68.71,367.26 -1.23,112.17 -57.81,267.78 -102.22,341.3 -243.9,403.64 -770.1,573.15 -1232.16,442.12 -328.12,-93.03 -757.37,-290.45 -1074.81,-137.19 -96.83,46.74 -185.37,133.18 -194.69,248.84 -15.72,194.89 154.62,373.2 339.59,265.68 56.17,-32.65 70.97,-66.03 70.97,-150.82 -85.29,0 -165.52,-6.43 -185.96,-101.63 -56.03,-260.89 386.45,-301.77 358.46,-121.15 -8.3,53.7 -55.48,41.77 -90.37,58.52 37.61,161.41 241.79,63.4 195.96,-80.59 -17.44,-54.79 -38.22,-52.58 -64.55,-91.9 138.75,11.55 271.07,67.3 399.28,109.96 225.86,75.17 469.56,139.11 739.12,100.3 388.53,-55.94 663.91,-263.88 819.16,-552.49 43.07,-80.09 67.5,-159.88 82.93,-253.82 40.51,-246.66 -12.69,-488.77 -140.45,-696.19 -194.54,-315.79 -670.94,-472.14 -983.71,-230.85 -23.44,18.07 -28.41,29.63 -53.92,36.44 63.2,-131.7 110.91,-287.51 146.19,-428.75 42.41,-169.74 66.57,-320.8 75.59,-507.58l8.21 -188.91c0.02,-362.18 -98.62,-857.95 -275.72,-1178.08l-66.39 -130.74c-14.07,-27.9 -21.98,-37 -37.31,-61.24l-280.08 -393.43c-100.87,-120.27 -222.3,-238.39 -346.1,-335.62l-221.96 -164.08c-43.29,-28.86 -75.87,-49.35 -121.99,-75.13 -218.95,-122.35 -446.37,-222.69 -688.94,-288.47 -41.05,-11.13 -122.5,-31.04 -162.73,-34.39l10.65 -5.76c154.39,-80.67 180.32,-275.58 30.84,-307.08 -50.08,-10.57 -97.5,8.03 -98.99,74.65 28.43,13.64 59.39,9.05 75.9,39.53 49.39,91.08 -87.96,151.66 -189.55,123.42 -115.74,-32.18 -215.49,-160.13 -137.75,-274.71 57.27,-84.39 145.98,-31.81 165.81,-64.83 35.59,-59.31 -95.1,-230.11 -273.4,-149.54 -14.23,6.43 -24.92,12.36 -36.79,20.71 -37.49,26.4 -59.41,60.02 -80.6,100.09 -20.68,-15.15 -23.44,-29.75 -39.69,-50.66 -11.3,-14.53 -29.91,-32.75 -45.63,-44.72 -70.39,-53.61 -200.01,-58.62 -270.21,2.68 -40.87,35.68 -46.93,61.11 -46.93,133.77 98.27,0 150.29,4.36 179.83,74.79 58.32,139.12 -91.96,275.92 -227.96,261.38 -95.59,-10.22 -116.14,-44.83 -116.14,-139.05 33.74,-22.59 127.6,-34.11 51.31,-92.34 -57.94,-44.24 -143.54,-2.25 -163.04,62.77 -32.62,108.89 59.35,220.27 136.37,226.69l0 16.42c-36.73,0.82 -121.23,23.54 -156.16,32.76 -142.04,37.48 -290.35,87.08 -421.58,153.35 -23.21,11.72 -36.75,19.67 -60.6,29.76 -34.78,14.71 -35.38,16.17 -65.43,33.13 -156.63,88.49 -390.7,226.11 -513.83,348.58l-333.69 339.83c-29.82,37.69 -56.8,70.75 -86.8,110.31 -58.05,76.52 -102.63,150.54 -154.06,231.99l-98.18 181.07c-157.65,300.3 -244.37,648.21 -270.32,986.36 -25.09,327.32 6.6,584.98 66.85,878.68 9.74,47.46 26.33,108.74 41.37,155.76 29.41,91.82 60.77,195.07 105.82,280.21 -38.61,-10.32 -65.81,-44.14 -100.93,-63.34 -209.2,-114.32 -469.15,-88.32 -669.67,31.95 -122.21,73.29 -218.78,181.56 -286.53,304.84 -7.28,13.26 -8.71,14.55 -14.64,26.43 -44.87,89.94 -78.98,190.89 -94.26,299.98 -80.89,576.9 358.54,1045.14 913.65,1114.52 370.74,46.33 657.86,-81.42 988.56,-181.49 47.76,-14.45 95.35,-18.8 142.67,-29.82 -20.18,30.14 -48.76,44.83 -61.08,86.82 -14.78,50.32 0.35,100.97 19.35,127.39 50.13,69.64 164.53,53.69 173.16,-49.94 -198.48,0 -39.71,-264.4 182.59,-125.11 53.42,33.48 106.33,97.69 86.68,197.22 -6.17,31.3 -32.49,62.5 -58.83,80.85 -38.18,26.64 -69.65,19.52 -128.33,19.52 0,83.81 13.82,115.16 65.79,147.78 42.13,26.43 115.85,47.32 179.97,24.05 236.64,-85.86 270.14,-489.03 -180.6,-581.94 -58.16,-11.99 -142.41,-12.37 -213.05,-8.84 -121.86,6.08 -240.63,46.04 -352.08,83.24 -54.13,18.07 -109.21,33.54 -168.49,53.27 -248.08,82.55 -479.4,136.67 -755.83,72.26 -64.29,-14.97 -112.49,-33.6 -168.18,-53.59 -199.88,-71.74 -384.21,-218.83 -487.17,-391.66 -115.93,-194.57 -149.77,-451.6 -66.44,-669.3 41.67,-108.82 112.43,-217.2 207.56,-285.25 93.02,-66.56 202.37,-115.43 328.68,-115.51 219.79,-0.15 424.18,213.56 267.87,399.94 -17.31,20.65 -42.71,37.72 -70.73,44.25 0.87,39.86 17.47,50.86 43.16,71.81 77.02,62.85 207.53,25.42 272.55,-18.92 110.78,-75.57 144.23,-196.27 144.23,-332.16l101.13 153.49c98.26,156.14 224.9,295.96 354.8,425.49 107.21,106.9 225.77,213.52 354.63,294.25 19.77,12.4 21.25,14.56 39.19,26.51l201.58 126.96 -164.27 -8.22c-70.37,0 -108.94,2.2 -171.07,9.63 -85.54,10.23 -230.57,59.44 -288.87,64.29 34.09,-50.93 73.04,-104.69 65.66,-196.69 -17.82,-221.94 -290.05,-290.53 -356.85,-119.07 -26.25,67.36 -8.39,58.48 3.71,110.42 236.46,-125.11 335.3,302.31 -189.34,344.57 -73.83,5.96 -155.37,-9.35 -210.17,-27.2 -62.16,-20.27 -106.27,-42.7 -150.06,-88.12 -1.19,-1.22 -2.83,-3 -3.98,-4.23 -112.84,-120.94 -84.27,-360.83 109.52,-348.24 47.12,3.07 69.57,36.23 75.02,-15.33 9.06,-85.7 -28.7,-133.29 -75.82,-164.04 -123.77,-80.75 -271.9,-46.29 -358.29,41.58 -128.09,130.3 -107.04,374.42 28.95,509.52 262.77,261.06 623.33,183.11 931.33,81.14 127.02,-42.05 224.43,-84.75 373.22,-111.38 307.94,-55.1 691.29,13.66 883.55,273.34 199.22,269.1 62.73,612.89 -190.24,568.72 -72.85,-12.73 -105.84,-57.27 -139.52,-107.56 -72.91,19.47 -102,122.31 -73.39,213.03 79.5,252.07 447,248.82 591.03,58.2 152.82,-202.27 147.38,-461.77 5.57,-695.87 -45.9,-75.78 -105.9,-107.78 -145.38,-166.73 86.55,20.16 175.41,58.22 249.27,95.7 152.84,77.57 269.71,188.85 357.05,332.88 32.1,52.96 90.09,175.29 91.83,253.14 -116.6,31.13 -66.71,221.62 58.58,227.38 118.42,5.45 178.44,-198.95 56.4,-227.38 43.69,-91.03 26.12,-288.85 348.37,-522.27 33.64,-24.37 70.25,-44.55 108.82,-63.66 76.76,-38.04 167.45,-88.31 257.39,-95.79z"/>
   <path class="fil0" d="M3877.42 381.37c0,80.71 55.57,131.42 123.19,131.42 113.09,0 166.17,-124.51 96.69,-203.46 -74.8,-85.01 -219.88,-20.89 -219.88,72.04z"/>
  </g>
 </g>
</svg>
