<?xml version="1.0" encoding="UTF-8"?>
<!DOCTYPE svg PUBLIC "-//W3C//DTD SVG 1.1//EN" "http://www.w3.org/Graphics/SVG/1.1/DTD/svg11.dtd">
<!-- Creator: CorelDRAW 2017 -->
<svg xmlns="http://www.w3.org/2000/svg" xml:space="preserve" width="80mm" height="80mm" version="1.1" style="shape-rendering:geometricPrecision; text-rendering:geometricPrecision; image-rendering:optimizeQuality; fill-rule:evenodd; clip-rule:evenodd"
viewBox="0 0 8000 8000"
 xmlns:xlink="http://www.w3.org/1999/xlink">
 <defs>
  <style type="text/css">
   <![CDATA[
    .fil0 {fill:#D7B56D}
   ]]>
  </style>
 </defs>
 <g id="Слой_x0020_1">
  <metadata id="CorelCorpID_0Corel-Layer"/>
  <g id="_2400635202464">
   <path class="fil0" d="M4213.58 7591.05l-260.1 -847.64 0 -109.2c79.01,-5.16 714.4,-506.32 842.17,-622.74 46.83,-42.68 156.9,-139.73 191.49,-181.18 34.05,-40.78 83.51,-300.02 261.82,-214.34 141.36,137.86 -133.89,238.26 -136.67,240.16 152.58,169.52 533.96,63.72 575.67,-82.82l-356.97 175.94c-15.08,-39.25 -9.05,-47.69 -8.17,-104.03 6.35,-5.28 144.6,-19.45 238.17,-99.81 196.02,-168.33 297.82,-460.91 297.17,-687.84 -0.74,-264.06 -39.71,-178.1 -84.44,-249.83 -0.93,-1.5 -48.73,-217.35 -66.17,-265.86 -49.01,-136.32 -137.64,-15.77 -193.71,-73.67 -102.37,-105.71 0.59,-234.8 0.79,-240.33 -2.87,-26.23 -92.19,-175.28 -113.58,-450.54 -18.41,-236.78 33.07,-387.01 53.62,-607.46l-63.91 -12.52c10.54,-126.09 117.21,-409.64 -7.98,-510.55 -50.41,-40.64 -333.72,-141.58 -419.07,-175.3 -274.53,-108.46 -680.5,-194.25 -1000.7,-193.91 -3.16,0 -6.34,0.02 -9.53,0.04l0 -86.8c5.13,-0.1 10.26,-0.21 15.42,-0.29 390.17,-6.45 715.7,106.93 992.4,182.52 107.56,29.38 393.83,151.72 477.71,205.87 126.27,81.53 92.97,381.23 57.14,472.06 12.87,-3.46 123.38,-274.35 156.32,-331.13 53.97,-93.04 150.17,-211.38 217.25,-283.85 132.71,-143.4 509.01,-259.05 692.26,-82.54 233.59,225 -30.81,620.92 -223.51,537.61 -29.22,-12.64 -123.01,-58.61 -132.95,-110.35 -23.35,-121.59 26.03,-162.3 61.42,-178.31 52.86,-23.92 128.35,5.97 219.4,59.71 7,-330.08 -543.54,-191.25 -579.42,-75l244.02 -119.77 37.41 81.97c-4.64,4.73 -184.01,78.65 -233.19,117.75 -90.64,72.04 -99.84,134.11 -156.65,197.52l-81.61 -16.14 -21.57 43.86 283.93 -12.69 -5.74 91.29c-147.68,0.17 -125.8,-19.56 -262.96,57.55 -45.58,25.63 -133.39,141.16 -133.32,204.62l111.46 -171.72c19.57,4.51 45.1,50.07 58.04,67.35 -72.46,96.54 -132.08,193.22 -164.8,324.64 -22.35,89.76 -46.27,354.99 -10.58,431.2l-69.38 7.39c-25,36.56 58.95,217.52 99.72,260.52 75.07,79.17 146.86,129.26 266.92,129.33 -1.6,-75.65 -35.02,-116.49 35.02,-184.83 201.45,-158.25 265.48,207.77 145.64,237.27l-247.54 94.91 94.46 144.99 91.99 -1.39 35.71 327.46 26.92 -107.58 80.04 1.87c-1.59,75.39 -37.77,126.65 -35.32,233.28 2.99,130.42 -47.63,482.27 -39.64,508.93 35.65,119.05 200.11,186.34 156.38,87.76 -80.53,31.91 -96.66,-46.56 -54.68,-74.34 67,-44.34 226.32,22.77 132.34,154.98 -90.62,127.5 -212.14,59.7 -291.62,-23.53 -81.96,104.1 -188.47,289.53 -19.64,430.3 259.43,208.11 228.69,-327.66 60.39,-172.9 31.04,47.35 22.34,75.63 6.33,87.64 -17.28,12.97 -49.09,14.72 -72.54,-11.37 -44.94,-49.98 0.33,-167.81 108.02,-181.99 103.99,-13.7 219.34,130.57 190.04,231.73 -80.14,276.69 -337.51,173.11 -421.89,31.98 -56.92,-95.22 3.63,-321.92 42.9,-451.85 -90.88,104.93 -137.97,241.21 -289.17,315.3 -258.16,126.5 -269.75,43.89 -482.07,32.27l-14.93 -2.76 -18.04 138.76c-104.75,72.64 -66.68,-43.56 -208.89,140.73 -42.74,55.39 -150.82,167.3 -164,199.64l271.51 110.55 -32.66 55.95c-131.26,0 -156.23,95.6 -217.85,89.73 -105.16,-10.02 -120.72,-73.41 -197.03,-121.81l-73.13 59.72c48.69,77.43 169.9,119.5 168.04,197.96 -1.73,72.81 -149.07,162.96 -134.9,226.62l-77.38 10c-11.93,-35.06 12.87,-26.35 -5.76,-80.82 -9.88,-28.88 -21.85,-51.31 -30.67,-80.85 -15.75,-52.72 -22.11,-111.15 -64.82,-151.75 -59.91,-56.97 -68.48,51.41 -53.96,95.22 12.07,36.43 48.55,111.94 65.31,150.76 62.45,144.58 108.95,130.06 68.13,303.95 -26.68,113.69 -44.36,147.17 -79.86,244.42 -12.1,33.16 0,58.01 -5.1,81.26l-81.42 0.35 -19.7 -69.26c-42.29,-11.51 -201.31,-296.66 -181.19,-372.64 19.8,-74.78 43.26,-133.73 62.62,-223.66 34.16,-158.78 12.94,-110.2 -56.75,-195.56 0.63,-1.6 490.98,-403.27 532.52,-435.74 81.37,-63.6 348.18,-293.57 397.46,-324.27 34.35,-21.4 95.34,-64.98 52.88,-128.67l-218.95 206.52c-42.35,114.41 -765.02,627.45 -848.69,626.38l260.1 847.64zm588.59 -1474.02l0 0 885.79 -343.74 225.5 -379.15 -15.98 -8.33 -209.52 387.48 -885.79 343.74zm1089.76 -745.75l0 0c-9.82,-40.4 4.39,18.08 0,0zm12.48 -685.63l0 0 29.4 259.53 10.18 -1 -39.58 -258.53zm144.87 -351.42l0 0 -279.73 64.09c-88.05,-0.09 -207.37,-137.39 -208.28,-88.74 -1.04,55.96 199.7,110.38 208.28,88.74l279.73 -64.09zm-483.69 -1083.67l0 0 11.65 -17.48 -11.65 17.48zm332.17 -652.53l0 0c0,-19.52 0,19.52 0,0z"/>
   <path class="fil0" d="M4720.57 1508.13l-63.16 9.07 0 -7.71 63.16 -1.36zm-767.09 413.72l0 0c109.87,-1.66 221.29,8.12 412.23,34.43 50.14,6.91 365.63,85.35 368.52,84.44l4.53 -83.54 -75.95 -24.02 1.34 -238.44 50.59 12.32c10.23,-9.97 5.97,-59.87 6.35,-76.14l-60.51 -31.37 26.94 -23.21 47.79 34.48 245.79 -252.01 39.17 39.24 54.26 -36.1 -22.36 -87.3c83.12,-38.77 92.68,-51.27 162.95,-93.16 134.77,-80.36 111.55,-15.56 197.2,-23.99l-22.75 -96.11 -202.45 8.45 -18.25 -47.76 -81.05 4.17c0.74,39.26 35.39,236.54 -99.04,173.4l-20.74 -8.41 61.6 -151.77 27.35 7.17 -38.92 -60.28 -9.01 28.26 -221.07 -19.85 -22.01 -29.18 0.35 198.63 -75.83 79.93c16.44,18.33 35.55,23.19 64.89,36.96 65,-25.25 61.8,-108.31 168.4,21.52 -97.16,95.27 -68.47,118.19 -235.82,122.33 -121.34,3 -149.53,-34.13 -170.48,-141.84l3.95 16.81 125.18 -29.38 5.03 -21.66 -82.95 -88.9 7.53 -128.75c-14.13,3.43 -72.46,9.91 -82.09,3.37l-29.97 95.25c-72.76,-33.53 -112.03,35.93 -103.4,109.2l74.02 15.82c-13.67,57.79 -117.65,96.16 -196.52,60.08 -83.27,-38.1 -81.2,-99.48 -117.93,-155.97l92.13 -29.2 4.24 -71.24 -120.96 -41.58c20.26,-59.93 49.02,-140.56 108.27,-182.71 32.03,-22.78 72.58,-22.45 95.48,12.06 42.05,63.39 -4.23,66.9 0,92.78l75.96 14.15c59.18,-137.08 22.86,-323.23 -166.84,-271.35 -158.98,43.47 -142.02,313.88 -228.14,313.96 108.02,-68.71 -53.54,-361.16 250.58,-355.4l-0.26 -95.8 -202.81 -9.89 -0.9 18.3c12.82,-143.78 60.21,-11.47 -7.41,-190.67 -14.07,-37.3 -54.09,-169.51 -56.68,-199.68l-9.52 -2.39 0 1309.43c23.79,1.16 41.53,-0.23 49.36,-17.72 17.35,-38.72 30.09,-51.79 30.09,-89.13l69.93 29.13 -91.54 98.77 15.77 11.92 -73.61 -4.83 0 423.97zm142.85 -419.77l0 0c30.87,-31.75 160.43,25.33 264.12,7.68 76.83,-13.08 56.1,-44.42 113.94,5.64 39.18,33.91 71.12,38.64 106.33,63.05l-484.39 -76.37zm6.53 -110.06l0 0 29.12 -46.63c129.49,84.82 186.4,92.07 320.53,23.32l19.36 33.86 -2.33 19.67 -366.68 -30.22zm-23.31 -110.7l0 0c-75.16,-20.33 -47.96,-201.39 0,0z"/>
   <path class="fil0" d="M5105.21 2230.98l69.92 -29.13 -93.28 74.26 23.36 -45.13 279.72 -174.78 -209.8 145.65 -69.92 29.13zm279.72 -174.78l0 0 75.76 -34.96 -75.76 34.96zm75.76 -34.96l0 0 34.96 -17.47 -34.96 17.47zm34.96 -17.47l0 0c47.11,-71.65 171.35,-98.03 219.71,-337.83 31.63,-156.83 -113.3,-298.08 -269.97,-266.38 -150.94,30.54 -257.39,205.45 -198.56,328.59 10.56,21.65 24.82,41.37 45.16,50.83 183.18,85.22 224.39,-59.34 216.51,-172.8l-44.88 -2.84c0.26,212.74 -175.74,103.47 -127.25,-20.82 43.4,-111.22 181.39,-137.57 261.56,-53.89 133.23,139.06 -102.2,407.07 -282.58,458.01 -48.18,-68.45 -41.4,-182.62 -123.78,-235.89 -59.48,-38.46 -206.63,-22.95 -217.38,69.77 -8.74,75.45 87.11,175.72 123.89,176.12l18.87 -33.11c-108.69,-106.13 -18.96,-148.8 24.66,-110.23 36.31,32.1 75.89,82.45 -34.68,239.59 -29.61,42.09 -60.23,75.92 -94.97,115.42 -43.15,49.1 -42.2,25.92 -118.42,1.61 -152.28,-48.57 -500.11,-185.02 -639.17,-188.68l0 81.57c155.47,13.84 721.31,227.53 762.93,225.2 40.89,-2.28 -1.9,-32.95 63.59,19.92 58.47,47.2 147.14,103.82 227.1,131.95 78.05,27.46 105.7,44.71 175.81,77.57 100.43,47.07 64.81,60.63 73.27,155.14l72.27 26.88c46.03,-79.59 -30.9,-137.23 10.59,-182.78 16.88,-18.54 99.57,-103.84 106.82,-128.37l-72.82 -35.07 -99.08 109.7 -260.81 -118.84 6.33 -13.56c9.13,-58.15 91.77,-53.88 133.83,-40.02 43.24,14.26 74.21,71.03 100.23,99.04l68.74 -45.71 -153.44 -177.65c118.28,-39.98 185.96,-44.21 248.25,-160.39 11.91,-22.22 23.58,-91.04 43.61,-114.09 32.23,-37.11 74.85,-63.43 105.8,-98.15 54.72,-61.39 163.35,-135.34 183.14,-215.92 17.21,-70.12 -2.64,-240.65 -78.23,-284.11l-64.84 33.6c72.43,178.47 35.88,267.74 -95.44,387.76 -56.56,51.7 -248.71,243.02 -316.37,248.86z"/>
   <path class="fil0" d="M5536.45 4940.15l-64.34 -18.45c-19.38,53.92 17.03,307.93 -115.01,544.12 -19.22,34.39 -91.49,110.81 -94.55,138.51 114.42,79.14 203.6,-159.27 246.23,-243.26 57.89,-114.01 45.28,-244.72 45.15,-391.79 101.6,48.8 95.11,339.45 74.76,430.14 -60.23,268.45 -174.22,216.2 -254.27,334.9l6.97 80.03c110.53,-12.11 298.11,-251.39 355.86,-376.32 39.19,-84.76 97.17,-437.7 56.24,-534.35l-106.29 -17.38 -13.07 -348.3 -83.81 -2.89 -48.24 88.02 -19.37 1.68 -94.26 -253.4 -60.87 -1.22c-8.11,92.92 -32.1,156.15 -10.32,244.61 19.34,78.52 108.61,133.19 109.25,162.21l-127.55 -21.29 -2.21 65.25 199.7 119.18z"/>
   <path class="fil0" d="M5839.48 4211.88c-5.93,-174.61 -65.65,-291.67 -53.22,-513.02 8.45,-150.39 32.77,-375.7 82.36,-483.26l-73.31 -44.88c-39.64,173.64 -96.85,320.8 -95.85,534.12 1.05,226.8 6.42,250.19 46.1,453.05 16.61,84.91 0.12,53.99 93.92,53.99z"/>
   <path class="fil0" d="M4213.58 7591.05l-260.1 -847.64 0 -109.2c79.01,-5.16 714.4,-506.32 842.17,-622.74 46.83,-42.68 156.9,-139.73 191.49,-181.18 34.05,-40.78 83.51,-300.02 261.82,-214.34 141.36,137.86 -133.89,238.26 -136.67,240.16 152.58,169.52 533.96,63.72 575.67,-82.82l-356.97 175.94c-15.08,-39.25 -9.05,-47.69 -8.17,-104.03 6.35,-5.28 144.6,-19.45 238.17,-99.81 196.02,-168.33 297.82,-460.91 297.17,-687.84 -0.74,-264.06 -39.71,-178.1 -84.44,-249.83 -0.93,-1.5 -48.73,-217.35 -66.17,-265.86 -49.01,-136.32 -137.64,-15.77 -193.71,-73.67 -102.37,-105.71 0.59,-234.8 0.79,-240.33 -2.87,-26.23 -92.19,-175.28 -113.58,-450.54 -18.41,-236.78 33.07,-387.01 53.62,-607.46l-63.91 -12.52c10.54,-126.09 117.21,-409.64 -7.98,-510.55 -50.41,-40.64 -333.72,-141.58 -419.07,-175.3 -274.53,-108.46 -680.5,-194.25 -1000.7,-193.91 -3.16,0 -6.34,0.02 -9.53,0.04l0 -86.8c5.13,-0.1 10.26,-0.21 15.42,-0.29 390.17,-6.45 715.7,106.93 992.4,182.52 107.56,29.38 393.83,151.72 477.71,205.87 126.27,81.53 92.97,381.23 57.14,472.06 12.87,-3.46 123.38,-274.35 156.32,-331.13 53.97,-93.04 150.17,-211.38 217.25,-283.85 132.71,-143.4 509.01,-259.05 692.26,-82.54 233.59,225 -30.81,620.92 -223.51,537.61 -29.22,-12.64 -123.01,-58.61 -132.95,-110.35 -23.35,-121.59 26.03,-162.3 61.42,-178.31 52.86,-23.92 128.35,5.97 219.4,59.71 7,-330.08 -543.54,-191.25 -579.42,-75l244.02 -119.77 37.41 81.97c-4.64,4.73 -184.01,78.65 -233.19,117.75 -90.64,72.04 -99.84,134.11 -156.65,197.52l-81.61 -16.14 -21.57 43.86 283.93 -12.69 -5.74 91.29c-147.68,0.17 -125.8,-19.56 -262.96,57.55 -45.58,25.63 -133.39,141.16 -133.32,204.62l111.46 -171.72c19.57,4.51 45.1,50.07 58.04,67.35 -72.46,96.54 -132.08,193.22 -164.8,324.64 -22.35,89.76 -46.27,354.99 -10.58,431.2l-69.38 7.39c-25,36.56 58.95,217.52 99.72,260.52 75.07,79.17 146.86,129.26 266.92,129.33 -1.6,-75.65 -35.02,-116.49 35.02,-184.83 201.45,-158.25 265.48,207.77 145.64,237.27l-247.54 94.91 94.46 144.99 91.99 -1.39 35.71 327.46 26.92 -107.58 80.04 1.87c-1.59,75.39 -37.77,126.65 -35.32,233.28 2.99,130.42 -47.63,482.27 -39.64,508.93 35.65,119.05 200.11,186.34 156.38,87.76 -80.53,31.91 -96.66,-46.56 -54.68,-74.34 67,-44.34 226.32,22.77 132.34,154.98 -90.62,127.5 -212.14,59.7 -291.62,-23.53 -81.96,104.1 -188.47,289.53 -19.64,430.3 259.43,208.11 228.69,-327.66 60.39,-172.9 31.04,47.35 22.34,75.63 6.33,87.64 -17.28,12.97 -49.09,14.72 -72.54,-11.37 -44.94,-49.98 0.33,-167.81 108.02,-181.99 103.99,-13.7 219.34,130.57 190.04,231.73 -80.14,276.69 -337.51,173.11 -421.89,31.98 -56.92,-95.22 3.63,-321.92 42.9,-451.85 -90.88,104.93 -137.97,241.21 -289.17,315.3 -258.16,126.5 -269.75,43.89 -482.07,32.27l-14.93 -2.76 -18.04 138.76c-104.75,72.64 -66.68,-43.56 -208.89,140.73 -42.74,55.39 -150.82,167.3 -164,199.64l271.51 110.55 -32.66 55.95c-131.26,0 -156.23,95.6 -217.85,89.73 -105.16,-10.02 -120.72,-73.41 -197.03,-121.81l-73.13 59.72c48.69,77.43 169.9,119.5 168.04,197.96 -1.73,72.81 -149.07,162.96 -134.9,226.62l-77.38 10c-11.93,-35.06 12.87,-26.35 -5.76,-80.82 -9.88,-28.88 -21.85,-51.31 -30.67,-80.85 -15.75,-52.72 -22.11,-111.15 -64.82,-151.75 -59.91,-56.97 -68.48,51.41 -53.96,95.22 12.07,36.43 48.55,111.94 65.31,150.76 62.45,144.58 108.95,130.06 68.13,303.95 -26.68,113.69 -44.36,147.17 -79.86,244.42 -12.1,33.16 0,58.01 -5.1,81.26l-81.42 0.35 -19.7 -69.26c-42.29,-11.51 -201.31,-296.66 -181.19,-372.64 19.8,-74.78 43.26,-133.73 62.62,-223.66 34.16,-158.78 12.94,-110.2 -56.75,-195.56 0.63,-1.6 490.98,-403.27 532.52,-435.74 81.37,-63.6 348.18,-293.57 397.46,-324.27 34.35,-21.4 95.34,-64.98 52.88,-128.67l-218.95 206.52c-42.35,114.41 -765.02,627.45 -848.69,626.38l260.1 847.64zm588.59 -1474.02l0 0 885.79 -343.74 225.5 -379.15 -15.98 -8.33 -209.52 387.48 -885.79 343.74zm1089.76 -745.75l0 0c-9.82,-40.4 4.39,18.08 0,0zm12.48 -685.63l0 0 29.4 259.53 10.18 -1 -39.58 -258.53zm144.87 -351.42l0 0 -279.73 64.09c-88.05,-0.09 -207.37,-137.39 -208.28,-88.74 -1.04,55.96 199.7,110.38 208.28,88.74l279.73 -64.09zm-483.69 -1083.67l0 0 11.65 -17.48 -11.65 17.48zm332.17 -652.53l0 0c0,-19.52 0,19.52 0,0z"/>
   <path class="fil0" d="M4720.57 1508.13l-63.16 9.07 0 -7.71 63.16 -1.36zm-767.09 413.72l0 0c109.87,-1.66 221.29,8.12 412.23,34.43 50.14,6.91 365.63,85.35 368.52,84.44l4.53 -83.54 -75.95 -24.02 1.34 -238.44 50.59 12.32c10.23,-9.97 5.97,-59.87 6.35,-76.14l-60.51 -31.37 26.94 -23.21 47.79 34.48 245.79 -252.01 39.17 39.24 54.26 -36.1 -22.36 -87.3c83.12,-38.77 92.68,-51.27 162.95,-93.16 134.77,-80.36 111.55,-15.56 197.2,-23.99l-22.75 -96.11 -202.45 8.45 -18.25 -47.76 -81.05 4.17c0.74,39.26 35.39,236.54 -99.04,173.4l-20.74 -8.41 61.6 -151.77 27.35 7.17 -38.92 -60.28 -9.01 28.26 -221.07 -19.85 -22.01 -29.18 0.35 198.63 -75.83 79.93c16.44,18.33 35.55,23.19 64.89,36.96 65,-25.25 61.8,-108.31 168.4,21.52 -97.16,95.27 -68.47,118.19 -235.82,122.33 -121.34,3 -149.53,-34.13 -170.48,-141.84l3.95 16.81 125.18 -29.38 5.03 -21.66 -82.95 -88.9 7.53 -128.75c-14.13,3.43 -72.46,9.91 -82.09,3.37l-29.97 95.25c-72.76,-33.53 -112.03,35.93 -103.4,109.2l74.02 15.82c-13.67,57.79 -117.65,96.16 -196.52,60.08 -83.27,-38.1 -81.2,-99.48 -117.93,-155.97l92.13 -29.2 4.24 -71.24 -120.96 -41.58c20.26,-59.93 49.02,-140.56 108.27,-182.71 32.03,-22.78 72.58,-22.45 95.48,12.06 42.05,63.39 -4.23,66.9 0,92.78l75.96 14.15c59.18,-137.08 22.86,-323.23 -166.84,-271.35 -158.98,43.47 -142.02,313.88 -228.14,313.96 108.02,-68.71 -53.54,-361.16 250.58,-355.4l-0.26 -95.8 -202.81 -9.89 -0.9 18.3c12.82,-143.78 60.21,-11.47 -7.41,-190.67 -14.07,-37.3 -54.09,-169.51 -56.68,-199.68l-9.52 -2.39 0 1309.43c23.79,1.16 41.53,-0.23 49.36,-17.72 17.35,-38.72 30.09,-51.79 30.09,-89.13l69.93 29.13 -91.54 98.77 15.77 11.92 -73.61 -4.83 0 423.97zm142.85 -419.77l0 0c30.87,-31.75 160.43,25.33 264.12,7.68 76.83,-13.08 56.1,-44.42 113.94,5.64 39.18,33.91 71.12,38.64 106.33,63.05l-484.39 -76.37zm6.53 -110.06l0 0 29.12 -46.63c129.49,84.82 186.4,92.07 320.53,23.32l19.36 33.86 -2.33 19.67 -366.68 -30.22zm-23.31 -110.7l0 0c-75.16,-20.33 -47.96,-201.39 0,0z"/>
   <path class="fil0" d="M5105.21 2230.98l69.92 -29.13 -93.28 74.26 23.36 -45.13 279.72 -174.78 -209.8 145.65 -69.92 29.13zm279.72 -174.78l0 0 75.76 -34.96 -75.76 34.96zm75.76 -34.96l0 0 34.96 -17.47 -34.96 17.47zm34.96 -17.47l0 0c47.11,-71.65 171.35,-98.03 219.71,-337.83 31.63,-156.83 -113.3,-298.08 -269.97,-266.38 -150.94,30.54 -257.39,205.45 -198.56,328.59 10.56,21.65 24.82,41.37 45.16,50.83 183.18,85.22 224.39,-59.34 216.51,-172.8l-44.88 -2.84c0.26,212.74 -175.74,103.47 -127.25,-20.82 43.4,-111.22 181.39,-137.57 261.56,-53.89 133.23,139.06 -102.2,407.07 -282.58,458.01 -48.18,-68.45 -41.4,-182.62 -123.78,-235.89 -59.48,-38.46 -206.63,-22.95 -217.38,69.77 -8.74,75.45 87.11,175.72 123.89,176.12l18.87 -33.11c-108.69,-106.13 -18.96,-148.8 24.66,-110.23 36.31,32.1 75.89,82.45 -34.68,239.59 -29.61,42.09 -60.23,75.92 -94.97,115.42 -43.15,49.1 -42.2,25.92 -118.42,1.61 -152.28,-48.57 -500.11,-185.02 -639.17,-188.68l0 81.57c155.47,13.84 721.31,227.53 762.93,225.2 40.89,-2.28 -1.9,-32.95 63.59,19.92 58.47,47.2 147.14,103.82 227.1,131.95 78.05,27.46 105.7,44.71 175.81,77.57 100.43,47.07 64.81,60.63 73.27,155.14l72.27 26.88c46.03,-79.59 -30.9,-137.23 10.59,-182.78 16.88,-18.54 99.57,-103.84 106.82,-128.37l-72.82 -35.07 -99.08 109.7 -260.81 -118.84 6.33 -13.56c9.13,-58.15 91.77,-53.88 133.83,-40.02 43.24,14.26 74.21,71.03 100.23,99.04l68.74 -45.71 -153.44 -177.65c118.28,-39.98 185.96,-44.21 248.25,-160.39 11.91,-22.22 23.58,-91.04 43.61,-114.09 32.23,-37.11 74.85,-63.43 105.8,-98.15 54.72,-61.39 163.35,-135.34 183.14,-215.92 17.21,-70.12 -2.64,-240.65 -78.23,-284.11l-64.84 33.6c72.43,178.47 35.88,267.74 -95.44,387.76 -56.56,51.7 -248.71,243.02 -316.37,248.86z"/>
   <path class="fil0" d="M5536.45 4940.15l-64.34 -18.45c-19.38,53.92 17.03,307.93 -115.01,544.12 -19.22,34.39 -91.49,110.81 -94.55,138.51 114.42,79.14 203.6,-159.27 246.23,-243.26 57.89,-114.01 45.28,-244.72 45.15,-391.79 101.6,48.8 95.11,339.45 74.76,430.14 -60.23,268.45 -174.22,216.2 -254.27,334.9l6.97 80.03c110.53,-12.11 298.11,-251.39 355.86,-376.32 39.19,-84.76 97.17,-437.7 56.24,-534.35l-106.29 -17.38 -13.07 -348.3 -83.81 -2.89 -48.24 88.02 -19.37 1.68 -94.26 -253.4 -60.87 -1.22c-8.11,92.92 -32.1,156.15 -10.32,244.61 19.34,78.52 108.61,133.19 109.25,162.21l-127.55 -21.29 -2.21 65.25 199.7 119.18z"/>
   <path class="fil0" d="M5839.48 4211.88c-5.93,-174.61 -65.65,-291.67 -53.22,-513.02 8.45,-150.39 32.77,-375.7 82.36,-483.26l-73.31 -44.88c-39.64,173.64 -96.85,320.8 -95.85,534.12 1.05,226.8 6.42,250.19 46.1,453.05 16.61,84.91 0.12,53.99 93.92,53.99z"/>
   <path class="fil0" d="M3693.38 7591.05l260.1 -847.64 0 -109.2c-79.01,-5.16 -714.39,-506.32 -842.16,-622.74 -46.83,-42.68 -156.91,-139.73 -191.51,-181.18 -34.03,-40.78 -83.5,-300.02 -261.81,-214.34 -141.35,137.86 133.9,238.26 136.67,240.16 -152.58,169.52 -533.95,63.72 -575.67,-82.82l356.97 175.94c15.08,-39.25 9.05,-47.69 8.17,-104.03 -6.34,-5.28 -144.6,-19.45 -238.17,-99.81 -196.01,-168.33 -297.81,-460.91 -297.18,-687.84 0.75,-264.06 39.72,-178.1 84.45,-249.83 0.94,-1.5 48.73,-217.35 66.17,-265.86 49.01,-136.32 137.65,-15.77 193.71,-73.67 102.37,-105.71 -0.59,-234.8 -0.79,-240.33 2.87,-26.23 92.19,-175.28 113.59,-450.54 18.39,-236.78 -33.07,-387.01 -53.62,-607.46l63.91 -12.52c-10.55,-126.09 -117.22,-409.64 7.97,-510.55 50.41,-40.64 333.72,-141.58 419.08,-175.3 274.53,-108.46 680.49,-194.25 1000.7,-193.91 3.15,0 6.34,0.02 9.52,0.04l0 -86.8c-5.12,-0.1 -10.25,-0.21 -15.42,-0.29 -390.17,-6.45 -715.7,106.93 -992.39,182.52 -107.56,29.38 -393.84,151.72 -477.72,205.87 -126.26,81.53 -92.97,381.23 -57.14,472.06 -12.86,-3.46 -123.38,-274.35 -156.32,-331.13 -53.96,-93.04 -150.17,-211.38 -217.24,-283.85 -132.72,-143.4 -509.02,-259.05 -692.26,-82.54 -233.6,225 30.81,620.92 223.5,537.61 29.23,-12.64 123.01,-58.61 132.94,-110.35 23.36,-121.59 -26.02,-162.3 -61.41,-178.31 -52.85,-23.92 -128.34,5.97 -219.4,59.71 -6.99,-330.08 543.54,-191.25 579.43,-75l-244.02 -119.77 -37.43 81.97c4.65,4.73 184.02,78.65 233.2,117.75 90.63,72.04 99.83,134.11 156.64,197.52l81.62 -16.14 21.58 43.86 -283.93 -12.69 5.73 91.29c147.68,0.17 125.81,-19.56 262.95,57.55 45.58,25.63 133.41,141.16 133.33,204.62l-111.46 -171.72c-19.57,4.51 -45.1,50.07 -58.04,67.35 72.46,96.54 132.09,193.22 164.8,324.64 22.35,89.76 46.27,354.99 10.59,431.2l69.38 7.39c25,36.56 -58.95,217.52 -99.73,260.52 -75.07,79.17 -146.85,129.26 -266.92,129.33 1.6,-75.65 35.03,-116.49 -35.02,-184.83 -201.45,-158.25 -265.48,207.77 -145.63,237.27l247.54 94.91 -94.47 144.99 -91.98 -1.39 -35.72 327.46 -26.92 -107.58 -80.04 1.87c1.59,75.39 37.77,126.65 35.33,233.28 -2.99,130.42 47.62,482.27 39.64,508.93 -35.65,119.05 -200.12,186.34 -156.39,87.76 80.53,31.91 96.66,-46.56 54.68,-74.34 -67,-44.34 -226.31,22.77 -132.34,154.98 90.62,127.5 212.15,59.7 291.61,-23.53 81.96,104.1 188.48,289.53 19.65,430.3 -259.43,208.11 -228.69,-327.66 -60.39,-172.9 -31.04,47.35 -22.34,75.63 -6.33,87.64 17.28,12.97 49.09,14.72 72.54,-11.37 44.93,-49.98 -0.33,-167.81 -108.02,-181.99 -103.99,-13.7 -219.34,130.57 -190.04,231.73 80.15,276.69 337.51,173.11 421.89,31.98 56.92,-95.22 -3.62,-321.92 -42.89,-451.85 90.88,104.93 137.97,241.21 289.16,315.3 258.17,126.5 269.75,43.89 482.07,32.27l14.94 -2.76 18.03 138.76c104.76,72.64 66.68,-43.56 208.9,140.73 42.74,55.39 150.81,167.3 163.98,199.64l-271.49 110.55 32.65 55.95c131.26,0 156.23,95.6 217.86,89.73 105.15,-10.02 120.72,-73.41 197.02,-121.81l73.14 59.72c-48.7,77.43 -169.91,119.5 -168.05,197.96 1.73,72.81 149.08,162.96 134.9,226.62l77.39 10c11.92,-35.06 -12.87,-26.35 5.76,-80.82 9.88,-28.88 21.84,-51.31 30.67,-80.85 15.75,-52.72 22.11,-111.15 64.81,-151.75 59.91,-56.97 68.48,51.41 53.97,95.22 -12.08,36.43 -48.56,111.94 -65.33,150.76 -62.44,144.58 -108.93,130.06 -68.12,303.95 26.69,113.69 44.36,147.17 79.86,244.42 12.1,33.16 0,58.01 5.11,81.26l81.41 0.35 19.7 -69.26c42.29,-11.51 201.32,-296.66 181.2,-372.64 -19.81,-74.78 -43.26,-133.73 -62.62,-223.66 -34.18,-158.78 -12.95,-110.2 56.75,-195.56 -0.64,-1.6 -490.99,-403.27 -532.53,-435.74 -81.37,-63.6 -348.19,-293.57 -397.46,-324.27 -34.34,-21.4 -95.33,-64.98 -52.88,-128.67l218.96 206.52c42.35,114.41 765.02,627.45 848.68,626.38l-260.1 847.64zm-588.58 -1474.02l0 0 -885.8 -343.74 -225.5 -379.15 15.99 -8.33 209.51 387.48 885.8 343.74zm-1089.76 -745.75l0 0c9.81,-40.4 -4.39,18.08 0,0zm-12.48 -685.63l0 0 -29.4 259.53 -10.19 -1 39.59 -258.53zm-144.87 -351.42l0 0 279.72 64.09c88.04,-0.09 207.37,-137.39 208.28,-88.74 1.05,55.96 -199.7,110.38 -208.28,88.74l-279.72 -64.09zm483.69 -1083.67l0 0 -11.66 -17.48 11.66 17.48zm-332.18 -652.53l0 0c0,-19.52 0,19.52 0,0z"/>
   <path class="fil0" d="M3186.39 1508.13l63.16 9.07 0.01 -7.71 -63.17 -1.36zm767.09 413.72l0 0c-109.87,-1.66 -221.29,8.12 -412.22,34.43 -50.15,6.91 -365.64,85.35 -368.53,84.44l-4.53 -83.54 75.95 -24.02 -1.34 -238.44 -50.59 12.32c-10.22,-9.97 -5.97,-59.87 -6.34,-76.14l60.5 -31.37 -26.94 -23.21 -47.79 34.48 -245.79 -252.01 -39.17 39.24 -54.25 -36.1 22.35 -87.3c-83.12,-38.77 -92.69,-51.27 -162.94,-93.16 -134.78,-80.36 -111.57,-15.56 -197.21,-23.99l22.76 -96.11 202.43 8.45 18.27 -47.76 81.05 4.17c-0.74,39.26 -35.4,236.54 99.03,173.4l20.74 -8.41 -61.6 -151.77 -27.35 7.17 38.92 -60.28 9.01 28.26 221.07 -19.85 22.01 -29.18 -0.34 198.63 75.83 79.93c-16.45,18.33 -35.56,23.19 -64.9,36.96 -64.99,-25.25 -61.81,-108.31 -168.39,21.52 97.16,95.27 68.46,118.19 235.81,122.33 121.35,3 149.53,-34.13 170.48,-141.84l-3.94 16.81 -125.18 -29.38 -5.04 -21.66 82.96 -88.9 -7.54 -128.75c14.13,3.43 72.46,9.91 82.09,3.37l29.98 95.25c72.76,-33.53 112.02,35.93 103.39,109.2l-74.02 15.82c13.67,57.79 117.65,96.16 196.53,60.08 83.25,-38.1 81.2,-99.48 117.92,-155.97l-92.12 -29.2 -4.25 -71.24 120.96 -41.58c-20.27,-59.93 -49.02,-140.56 -108.27,-182.71 -32.03,-22.78 -72.58,-22.45 -95.47,12.06 -42.06,63.39 4.22,66.9 0,92.78l-75.96 14.15c-59.18,-137.08 -22.87,-323.23 166.84,-271.35 158.97,43.47 142.01,313.88 228.14,313.96 -108.03,-68.71 53.53,-361.16 -250.59,-355.4l0.26 -95.8 202.82 -9.89 0.88 18.3c-12.8,-143.78 -60.2,-11.47 7.42,-190.67 14.08,-37.3 54.1,-169.51 56.69,-199.68l9.51 -2.39 0 1309.43c-23.78,1.16 -41.53,-0.23 -49.37,-17.72 -17.33,-38.72 -30.08,-51.79 -30.08,-89.13l-69.93 29.13 91.54 98.77 -15.78 11.92 73.62 -4.83 0 423.97zm-142.84 -419.77l0 0c-30.88,-31.75 -160.44,25.33 -264.13,7.68 -76.82,-13.08 -56.1,-44.42 -113.93,5.64 -39.18,33.91 -71.14,38.64 -106.33,63.05l484.39 -76.37zm-6.54 -110.06l0 0 -29.11 -46.63c-129.49,84.82 -186.41,92.07 -320.53,23.32l-19.36 33.86 2.33 19.67 366.67 -30.22zm23.32 -110.7l0 0c75.14,-20.33 47.95,-201.39 0,0z"/>
   <path class="fil0" d="M2801.76 2230.98l-69.94 -29.13 93.28 74.26 -23.34 -45.13 -279.73 -174.78 209.79 145.65 69.94 29.13zm-279.73 -174.78l0 0 -75.75 -34.96 75.75 34.96zm-75.75 -34.96l0 0 -34.97 -17.47 34.97 17.47zm-34.97 -17.47l0 0c-47.11,-71.65 -171.35,-98.03 -219.71,-337.83 -31.62,-156.83 113.3,-298.08 269.97,-266.38 150.94,30.54 257.39,205.45 198.56,328.59 -10.56,21.65 -24.82,41.37 -45.15,50.83 -183.19,85.22 -224.4,-59.34 -216.51,-172.8l44.86 -2.84c-0.24,212.74 175.75,103.47 127.26,-20.82 -43.39,-111.22 -181.38,-137.57 -261.56,-53.89 -133.24,139.06 102.2,407.07 282.58,458.01 48.17,-68.45 41.41,-182.62 123.79,-235.89 59.47,-38.46 206.62,-22.95 217.37,69.77 8.74,75.45 -87.11,175.72 -123.88,176.12l-18.87 -33.11c108.68,-106.13 18.95,-148.8 -24.67,-110.23 -36.3,32.1 -75.88,82.45 34.68,239.59 29.62,42.09 60.23,75.92 94.97,115.42 43.16,49.1 42.21,25.92 118.43,1.61 152.26,-48.57 500.1,-185.02 639.16,-188.68l0 81.57c-155.46,13.84 -721.3,227.53 -762.93,225.2 -40.89,-2.28 1.91,-32.95 -63.58,19.92 -58.48,47.2 -147.14,103.82 -227.1,131.95 -78.06,27.46 -105.7,44.71 -175.81,77.57 -100.44,47.07 -64.82,60.63 -73.28,155.14l-72.27 26.88c-46.02,-79.59 30.9,-137.23 -10.59,-182.78 -16.88,-18.54 -99.57,-103.84 -106.81,-128.37l72.81 -35.07 99.08 109.7 260.82 -118.84 -6.34 -13.56c-9.13,-58.15 -91.76,-53.88 -133.82,-40.02 -43.25,14.26 -74.21,71.03 -100.24,99.04l-68.73 -45.71 153.43 -177.65c-118.27,-39.98 -185.97,-44.21 -248.24,-160.39 -11.91,-22.22 -23.59,-91.04 -43.61,-114.09 -32.24,-37.11 -74.85,-63.43 -105.8,-98.15 -54.73,-61.39 -163.37,-135.34 -183.14,-215.92 -17.22,-70.12 2.63,-240.65 78.22,-284.11l64.84 33.6c-72.42,178.47 -35.88,267.74 95.44,387.76 56.57,51.7 248.71,243.02 316.37,248.86z"/>
   <path class="fil0" d="M2370.52 4940.15l64.33 -18.45c19.39,53.92 -17.02,307.93 115,544.12 19.24,34.39 91.5,110.81 94.56,138.51 -114.42,79.14 -203.59,-159.27 -246.22,-243.26 -57.89,-114.01 -45.28,-244.72 -45.15,-391.79 -101.61,48.8 -95.12,339.45 -74.77,430.14 60.22,268.45 174.23,216.2 254.26,334.9l-6.96 80.03c-110.53,-12.11 -298.1,-251.39 -355.86,-376.32 -39.19,-84.76 -97.16,-437.7 -56.24,-534.35l106.29 -17.38 13.08 -348.3 83.8 -2.89 48.25 88.02 19.36 1.68 94.27 -253.4 60.86 -1.22c8.12,92.92 32.1,156.15 10.32,244.61 -19.34,78.52 -108.61,133.19 -109.25,162.21l127.55 -21.29 2.21 65.25 -199.69 119.18z"/>
   <path class="fil0" d="M2067.48 4211.88c5.93,-174.61 65.66,-291.67 53.23,-513.02 -8.45,-150.39 -32.78,-375.7 -82.37,-483.26l73.32 -44.88c39.63,173.64 96.84,320.8 95.85,534.12 -1.06,226.8 -6.43,250.19 -46.11,453.05 -16.61,84.91 -0.12,53.99 -93.92,53.99z"/>
   <path class="fil0" d="M3693.38 7591.05l260.1 -847.64 0 -109.2c-79.01,-5.16 -714.39,-506.32 -842.16,-622.74 -46.83,-42.68 -156.91,-139.73 -191.51,-181.18 -34.03,-40.78 -83.5,-300.02 -261.81,-214.34 -141.35,137.86 133.9,238.26 136.67,240.16 -152.58,169.52 -533.95,63.72 -575.67,-82.82l356.97 175.94c15.08,-39.25 9.05,-47.69 8.17,-104.03 -6.34,-5.28 -144.6,-19.45 -238.17,-99.81 -196.01,-168.33 -297.81,-460.91 -297.18,-687.84 0.75,-264.06 39.72,-178.1 84.45,-249.83 0.94,-1.5 48.73,-217.35 66.17,-265.86 49.01,-136.32 137.65,-15.77 193.71,-73.67 102.37,-105.71 -0.59,-234.8 -0.79,-240.33 2.87,-26.23 92.19,-175.28 113.59,-450.54 18.39,-236.78 -33.07,-387.01 -53.62,-607.46l63.91 -12.52c-10.55,-126.09 -117.22,-409.64 7.97,-510.55 50.41,-40.64 333.72,-141.58 419.08,-175.3 274.53,-108.46 680.49,-194.25 1000.7,-193.91 3.15,0 6.34,0.02 9.52,0.04l0 -86.8c-5.12,-0.1 -10.25,-0.21 -15.42,-0.29 -390.17,-6.45 -715.7,106.93 -992.39,182.52 -107.56,29.38 -393.84,151.72 -477.72,205.87 -126.26,81.53 -92.97,381.23 -57.14,472.06 -12.86,-3.46 -123.38,-274.35 -156.32,-331.13 -53.96,-93.04 -150.17,-211.38 -217.24,-283.85 -132.72,-143.4 -509.02,-259.05 -692.26,-82.54 -233.6,225 30.81,620.92 223.5,537.61 29.23,-12.64 123.01,-58.61 132.94,-110.35 23.36,-121.59 -26.02,-162.3 -61.41,-178.31 -52.85,-23.92 -128.34,5.97 -219.4,59.71 -6.99,-330.08 543.54,-191.25 579.43,-75l-244.02 -119.77 -37.43 81.97c4.65,4.73 184.02,78.65 233.2,117.75 90.63,72.04 99.83,134.11 156.64,197.52l81.62 -16.14 21.58 43.86 -283.93 -12.69 5.73 91.29c147.68,0.17 125.81,-19.56 262.95,57.55 45.58,25.63 133.41,141.16 133.33,204.62l-111.46 -171.72c-19.57,4.51 -45.1,50.07 -58.04,67.35 72.46,96.54 132.09,193.22 164.8,324.64 22.35,89.76 46.27,354.99 10.59,431.2l69.38 7.39c25,36.56 -58.95,217.52 -99.73,260.52 -75.07,79.17 -146.85,129.26 -266.92,129.33 1.6,-75.65 35.03,-116.49 -35.02,-184.83 -201.45,-158.25 -265.48,207.77 -145.63,237.27l247.54 94.91 -94.47 144.99 -91.98 -1.39 -35.72 327.46 -26.92 -107.58 -80.04 1.87c1.59,75.39 37.77,126.65 35.33,233.28 -2.99,130.42 47.62,482.27 39.64,508.93 -35.65,119.05 -200.12,186.34 -156.39,87.76 80.53,31.91 96.66,-46.56 54.68,-74.34 -67,-44.34 -226.31,22.77 -132.34,154.98 90.62,127.5 212.15,59.7 291.61,-23.53 81.96,104.1 188.48,289.53 19.65,430.3 -259.43,208.11 -228.69,-327.66 -60.39,-172.9 -31.04,47.35 -22.34,75.63 -6.33,87.64 17.28,12.97 49.09,14.72 72.54,-11.37 44.93,-49.98 -0.33,-167.81 -108.02,-181.99 -103.99,-13.7 -219.34,130.57 -190.04,231.73 80.15,276.69 337.51,173.11 421.89,31.98 56.92,-95.22 -3.62,-321.92 -42.89,-451.85 90.88,104.93 137.97,241.21 289.16,315.3 258.17,126.5 269.75,43.89 482.07,32.27l14.94 -2.76 18.03 138.76c104.76,72.64 66.68,-43.56 208.9,140.73 42.74,55.39 150.81,167.3 163.98,199.64l-271.49 110.55 32.65 55.95c131.26,0 156.23,95.6 217.86,89.73 105.15,-10.02 120.72,-73.41 197.02,-121.81l73.14 59.72c-48.7,77.43 -169.91,119.5 -168.05,197.96 1.73,72.81 149.08,162.96 134.9,226.62l77.39 10c11.92,-35.06 -12.87,-26.35 5.76,-80.82 9.88,-28.88 21.84,-51.31 30.67,-80.85 15.75,-52.72 22.11,-111.15 64.81,-151.75 59.91,-56.97 68.48,51.41 53.97,95.22 -12.08,36.43 -48.56,111.94 -65.33,150.76 -62.44,144.58 -108.93,130.06 -68.12,303.95 26.69,113.69 44.36,147.17 79.86,244.42 12.1,33.16 0,58.01 5.11,81.26l81.41 0.35 19.7 -69.26c42.29,-11.51 201.32,-296.66 181.2,-372.64 -19.81,-74.78 -43.26,-133.73 -62.62,-223.66 -34.18,-158.78 -12.95,-110.2 56.75,-195.56 -0.64,-1.6 -490.99,-403.27 -532.53,-435.74 -81.37,-63.6 -348.19,-293.57 -397.46,-324.27 -34.34,-21.4 -95.33,-64.98 -52.88,-128.67l218.96 206.52c42.35,114.41 765.02,627.45 848.68,626.38l-260.1 847.64zm-588.58 -1474.02l0 0 -885.8 -343.74 -225.5 -379.15 15.99 -8.33 209.51 387.48 885.8 343.74zm-1089.76 -745.75l0 0c9.81,-40.4 -4.39,18.08 0,0zm-12.48 -685.63l0 0 -29.4 259.53 -10.19 -1 39.59 -258.53zm-144.87 -351.42l0 0 279.72 64.09c88.04,-0.09 207.37,-137.39 208.28,-88.74 1.05,55.96 -199.7,110.38 -208.28,88.74l-279.72 -64.09zm483.69 -1083.67l0 0 -11.66 -17.48 11.66 17.48zm-332.18 -652.53l0 0c0,-19.52 0,19.52 0,0z"/>
   <path class="fil0" d="M3186.39 1508.13l63.16 9.07 0.01 -7.71 -63.17 -1.36zm767.09 413.72l0 0c-109.87,-1.66 -221.29,8.12 -412.22,34.43 -50.15,6.91 -365.64,85.35 -368.53,84.44l-4.53 -83.54 75.95 -24.02 -1.34 -238.44 -50.59 12.32c-10.22,-9.97 -5.97,-59.87 -6.34,-76.14l60.5 -31.37 -26.94 -23.21 -47.79 34.48 -245.79 -252.01 -39.17 39.24 -54.25 -36.1 22.35 -87.3c-83.12,-38.77 -92.69,-51.27 -162.94,-93.16 -134.78,-80.36 -111.57,-15.56 -197.21,-23.99l22.76 -96.11 202.43 8.45 18.27 -47.76 81.05 4.17c-0.74,39.26 -35.4,236.54 99.03,173.4l20.74 -8.41 -61.6 -151.77 -27.35 7.17 38.92 -60.28 9.01 28.26 221.07 -19.85 22.01 -29.18 -0.34 198.63 75.83 79.93c-16.45,18.33 -35.56,23.19 -64.9,36.96 -64.99,-25.25 -61.81,-108.31 -168.39,21.52 97.16,95.27 68.46,118.19 235.81,122.33 121.35,3 149.53,-34.13 170.48,-141.84l-3.94 16.81 -125.18 -29.38 -5.04 -21.66 82.96 -88.9 -7.54 -128.75c14.13,3.43 72.46,9.91 82.09,3.37l29.98 95.25c72.76,-33.53 112.02,35.93 103.39,109.2l-74.02 15.82c13.67,57.79 117.65,96.16 196.53,60.08 83.25,-38.1 81.2,-99.48 117.92,-155.97l-92.12 -29.2 -4.25 -71.24 120.96 -41.58c-20.27,-59.93 -49.02,-140.56 -108.27,-182.71 -32.03,-22.78 -72.58,-22.45 -95.47,12.06 -42.06,63.39 4.22,66.9 0,92.78l-75.96 14.15c-59.18,-137.08 -22.87,-323.23 166.84,-271.35 158.97,43.47 142.01,313.88 228.14,313.96 -108.03,-68.71 53.53,-361.16 -250.59,-355.4l0.26 -95.8 202.82 -9.89 0.88 18.3c-12.8,-143.78 -60.2,-11.47 7.42,-190.67 14.08,-37.3 54.1,-169.51 56.69,-199.68l9.51 -2.39 0 1309.43c-23.78,1.16 -41.53,-0.23 -49.37,-17.72 -17.33,-38.72 -30.08,-51.79 -30.08,-89.13l-69.93 29.13 91.54 98.77 -15.78 11.92 73.62 -4.83 0 423.97zm-142.84 -419.77l0 0c-30.88,-31.75 -160.44,25.33 -264.13,7.68 -76.82,-13.08 -56.1,-44.42 -113.93,5.64 -39.18,33.91 -71.14,38.64 -106.33,63.05l484.39 -76.37zm-6.54 -110.06l0 0 -29.11 -46.63c-129.49,84.82 -186.41,92.07 -320.53,23.32l-19.36 33.86 2.33 19.67 366.67 -30.22zm23.32 -110.7l0 0c75.14,-20.33 47.95,-201.39 0,0z"/>
   <path class="fil0" d="M2801.76 2230.98l-69.94 -29.13 93.28 74.26 -23.34 -45.13 -279.73 -174.78 209.79 145.65 69.94 29.13zm-279.73 -174.78l0 0 -75.75 -34.96 75.75 34.96zm-75.75 -34.96l0 0 -34.97 -17.47 34.97 17.47zm-34.97 -17.47l0 0c-47.11,-71.65 -171.35,-98.03 -219.71,-337.83 -31.62,-156.83 113.3,-298.08 269.97,-266.38 150.94,30.54 257.39,205.45 198.56,328.59 -10.56,21.65 -24.82,41.37 -45.15,50.83 -183.19,85.22 -224.4,-59.34 -216.51,-172.8l44.86 -2.84c-0.24,212.74 175.75,103.47 127.26,-20.82 -43.39,-111.22 -181.38,-137.57 -261.56,-53.89 -133.24,139.06 102.2,407.07 282.58,458.01 48.17,-68.45 41.41,-182.62 123.79,-235.89 59.47,-38.46 206.62,-22.95 217.37,69.77 8.74,75.45 -87.11,175.72 -123.88,176.12l-18.87 -33.11c108.68,-106.13 18.95,-148.8 -24.67,-110.23 -36.3,32.1 -75.88,82.45 34.68,239.59 29.62,42.09 60.23,75.92 94.97,115.42 43.16,49.1 42.21,25.92 118.43,1.61 152.26,-48.57 500.1,-185.02 639.16,-188.68l0 81.57c-155.46,13.84 -721.3,227.53 -762.93,225.2 -40.89,-2.28 1.91,-32.95 -63.58,19.92 -58.48,47.2 -147.14,103.82 -227.1,131.95 -78.06,27.46 -105.7,44.71 -175.81,77.57 -100.44,47.07 -64.82,60.63 -73.28,155.14l-72.27 26.88c-46.02,-79.59 30.9,-137.23 -10.59,-182.78 -16.88,-18.54 -99.57,-103.84 -106.81,-128.37l72.81 -35.07 99.08 109.7 260.82 -118.84 -6.34 -13.56c-9.13,-58.15 -91.76,-53.88 -133.82,-40.02 -43.25,14.26 -74.21,71.03 -100.24,99.04l-68.73 -45.71 153.43 -177.65c-118.27,-39.98 -185.97,-44.21 -248.24,-160.39 -11.91,-22.22 -23.59,-91.04 -43.61,-114.09 -32.24,-37.11 -74.85,-63.43 -105.8,-98.15 -54.73,-61.39 -163.37,-135.34 -183.14,-215.92 -17.22,-70.12 2.63,-240.65 78.22,-284.11l64.84 33.6c-72.42,178.47 -35.88,267.74 95.44,387.76 56.57,51.7 248.71,243.02 316.37,248.86z"/>
   <path class="fil0" d="M2370.52 4940.15l64.33 -18.45c19.39,53.92 -17.02,307.93 115,544.12 19.24,34.39 91.5,110.81 94.56,138.51 -114.42,79.14 -203.59,-159.27 -246.22,-243.26 -57.89,-114.01 -45.28,-244.72 -45.15,-391.79 -101.61,48.8 -95.12,339.45 -74.77,430.14 60.22,268.45 174.23,216.2 254.26,334.9l-6.96 80.03c-110.53,-12.11 -298.1,-251.39 -355.86,-376.32 -39.19,-84.76 -97.16,-437.7 -56.24,-534.35l106.29 -17.38 13.08 -348.3 83.8 -2.89 48.25 88.02 19.36 1.68 94.27 -253.4 60.86 -1.22c8.12,92.92 32.1,156.15 10.32,244.61 -19.34,78.52 -108.61,133.19 -109.25,162.21l127.55 -21.29 2.21 65.25 -199.69 119.18z"/>
   <path class="fil0" d="M2067.48 4211.88c5.93,-174.61 65.66,-291.67 53.23,-513.02 -8.45,-150.39 -32.78,-375.7 -82.37,-483.26l73.32 -44.88c39.63,173.64 96.84,320.8 95.85,534.12 -1.06,226.8 -6.43,250.19 -46.11,453.05 -16.61,84.91 -0.12,53.99 -93.92,53.99z"/>
  </g>
 </g>
</svg>
