<?xml version="1.0" encoding="UTF-8"?>
<!DOCTYPE svg PUBLIC "-//W3C//DTD SVG 1.1//EN" "http://www.w3.org/Graphics/SVG/1.1/DTD/svg11.dtd">
<!-- Creator: CorelDRAW 2017 -->
<svg xmlns="http://www.w3.org/2000/svg" xml:space="preserve" width="320mm" height="240mm" version="1.1" style="shape-rendering:geometricPrecision; text-rendering:geometricPrecision; image-rendering:optimizeQuality; fill-rule:evenodd; clip-rule:evenodd"
viewBox="0 0 32000 24000"
 xmlns:xlink="http://www.w3.org/1999/xlink">
 <defs>
  <style type="text/css">
   <![CDATA[
    .fil0 {fill:#D7B56D}
   ]]>
  </style>
 </defs>
 <g id="Слой_x0020_1">
  <metadata id="CorelCorpID_0Corel-Layer"/>
  <path class="fil0" d="M11610.18 22698.69c12.04,-12.04 42.94,17.93 12.63,5.86 -0.26,-0.12 -31.53,13.07 -12.63,-5.86zm-6786.37 -8676.06l0 0c2,59.25 6.45,118.53 14.71,177.97 23.16,166.81 26.64,339.59 68.4,508.62l113.79 508.29 241.66 640.57c47.54,92.82 78.88,193.42 134.61,283.9l38.61 63.14c67.99,113.01 121.53,246.92 205.2,349.07l200.86 285.49c35.09,61.88 203.68,231.73 203.68,294.02 0,20.49 -19.53,40.46 -31.64,58.84l-155.33 308.42c-1.63,3 -6.63,11.38 -8.26,14.34l-144.54 353.12c-1.12,2.37 -2.78,5.07 -3.9,7.44 -44.05,94.93 -64.47,246.55 -49.2,363.27l29.94 162.4c37.05,160.22 121.68,306.35 237.62,418.36l100.85 80.15c1.82,1.48 4.3,3.7 6.08,5.22l18.31 15.64c76.32,60.69 169.33,94.63 252.55,143.32 39.42,23.08 23.3,26.64 64.25,37.57 -22.98,47.8 -25.01,90.19 -27.64,141.1 -1.41,26.68 -0.3,32.42 -0.56,58.54l3.15 154.07c12.63,212.61 84.07,402.69 201.9,577.87l249.77 225.32c80.89,55.77 178.26,76.55 258.96,125.57 60.88,36.98 120.8,72.07 171.37,122.72 91.64,91.74 127.06,131.95 127.06,246.22 0,156.29 -185.86,253.73 -320.92,219.13l-160.58 -43.02c-50.51,-20.27 -75.55,-66.77 -96.93,-117.98 -15.64,-37.31 -21.01,-67.77 -21.01,-126.01 -25.38,-5.89 -26.01,-11.3 -56.62,-11.3 -97.82,0 -146.8,237.17 -83.37,366.15 26.57,53.91 49.99,75.48 97.86,105.71l141.24 62.36c194.05,51.43 443.38,64.44 608.56,-75.36l85.78 -95.19c1.37,-1.93 3.4,-4.56 4.81,-6.49 1.45,-1.89 3.56,-4.44 5.04,-6.29 133.28,-172.93 92.6,-478.65 -17.71,-661.47 -16.38,-27.12 -9.15,-19.94 -21.23,-46.65 -17.3,-38.46 -5.6,-13.6 -25.79,-42.09 -55.58,-78.48 -121.72,-160.59 -202.94,-215.54 -2.04,-1.37 -4.81,-3.11 -6.85,-4.44l-27.46 -17.83c-144.5,-98.59 -291.97,-61.73 -422.96,-266.96 -52.35,-82.04 -108.6,-180.67 -131.68,-275.53l-25.35 -110.34c-4.74,-48.61 -11.85,-94.19 -11.85,-135.21 102.82,68.81 238.1,97.19 361.74,101.71 47.91,1.78 63.29,12.34 108.2,7.01 100.97,-11.93 194.27,-20.01 301.79,-49.62 85.34,-23.49 93.01,-37.38 159.48,-78.03l116.6 -98.3c59.88,-60.32 99.64,-128.94 133.69,-205.79 22.05,-49.84 28.46,-77.48 17.41,-129.43 14.01,7.41 11.27,6.67 27.79,17.45l90.01 57.03c25.75,15.52 41.42,20.97 65.65,36.2 123.76,77.59 238.85,155.84 370.9,217.24l69.7 43.39c2.18,1.26 5.07,2.81 7.26,4.11l49.13 29.98c65.22,36.72 220.91,89.89 270.49,136.72 112.56,106.31 87.63,129.32 133.46,262.45l21.46 46.39c10.81,21.86 1.51,1.81 10.67,23.23l72.99 130.61c16.49,27.49 24.49,32.35 43.35,58.43 78.22,107.9 291.05,332.81 394.1,420.33l11.74 10.86c1.71,1.59 3.97,4.07 5.6,5.7 16.74,16.01 7.3,11.82 29.71,26.86l-213.79 306.51c-8.49,14.15 -13.19,18.23 -23.05,33.49l-63.62 106.01c-4.41,8.22 -15.71,32.57 -18.34,38.27l-43.28 103.75c-1,2.56 -2.18,5.56 -3.15,8.12 -73.58,182.96 -96.74,315.46 -126.2,507.1l2.11 337.07c43.21,237.21 94.04,338.29 208.98,536.67 41.06,70.92 116.27,153.96 170.41,214.13 39.27,43.61 107.45,89.74 159.95,122.79l34.02 22.61c1.89,1.37 4.48,3.44 6.45,4.85l19.41 14.49c58.88,40.35 121.98,69.25 191.49,91.3 9.04,2.89 24.46,6.96 34.68,10.56l182.52 66.32c49.21,17.67 103.42,29.09 149.92,42.35 53.06,15.16 97.19,24.53 152.69,40.39 128.21,36.68 398.43,74.11 541.38,70.92l173.97 7.96c272.96,-5.15 539.74,-21.6 794.63,-94.26l220.43 -73.7c163.36,-73.4 314.17,-211.34 413.65,-355.48 35.69,-51.73 81.74,-121.05 101.75,-180.97 11.67,-34.68 19.86,-36.75 20.82,-81.03 -35.9,0.82 -47.16,2.96 -72.32,18.19l-110.94 81.33c-114.9,74.59 -160.51,80.63 -261.96,133.91l-406.21 136.76c-29.61,9.64 17.78,0.34 -33.79,11.97l-329.92 43.69c-149.73,33.72 -459.68,19.08 -592.77,2.37l-399.28 -64.66c-41.91,-8.78 -42.8,-6.45 -82.08,-19.71 -142.43,-48.06 -298.83,-77.96 -430.36,-157.77 -77.48,-46.95 -163.96,-103.23 -224.1,-171.85l-166.44 -229.43c-74.14,-130.84 -123.57,-325.66 -113.23,-473.72 11.85,-169.7 63.02,-324.33 118.12,-482.28 15.53,-44.65 43.72,-79.48 66.51,-125.76 23.79,-48.43 45.13,-88.55 73.77,-129.79l171.22 -224.62 57.99 43.83c2.04,1.34 4.93,3.01 6.97,4.34 2,1.33 4.93,3.04 6.93,4.41l673.99 457.08c149.21,85.52 320.99,164.41 488.46,212.8 156.96,45.39 303.36,105.37 467.28,133.35 141.43,24.16 312.39,70.21 453.75,80 57.13,3.96 87.11,9.3 140.09,15.45 104.9,12.15 145.95,-0.78 256.15,14.78 220.28,31.16 455.52,34.5 669.54,57.14 103.97,11.04 211.02,-3.34 313.91,-0.89 103.05,2.44 212.46,10.08 315.43,0.07 53.66,-5.22 94.86,-15.71 142.21,-15.71 0,75.22 -8.41,122.94 -81.48,144.99 -106.82,32.23 -255.81,28.2 -361.19,-18.97 -151.65,-67.85 -233.43,-100.34 -75.73,143.58 68.91,106.71 205.01,178.59 324.88,206.86l216.12 32.54 13.05 67.51c-105.42,24.49 -212.87,33.45 -312.84,26.19 -191.64,-13.89 -482.76,-86.37 -663.84,-170.63l-214.01 -102.67c-16.31,-7.67 -3.15,-1.59 -22.13,-11.82l-144.02 -93.52c-12.34,-8.15 -21.75,-13.93 -33.72,-22.79l-106.89 -85.4c-59.84,-53.55 -49.73,-64.74 -121.69,-47.99 21.79,45.35 21.57,88.45 41.5,139.47 23.64,60.58 40.13,72.92 67.66,124.64 82.22,154.37 276.71,216.65 357.23,287.5 49.76,43.83 117.2,81.59 180.78,113.3l385.16 169.04c147.32,54.17 292.2,69.81 448.27,83.07 49.87,4.23 124.57,16.53 156.66,16.97 34.16,0.45 70.51,-4.22 100.85,-1.67 54.4,4.56 81.56,29.09 150.77,29.09 4,47.61 43.65,76.7 74.14,118.13l374.87 383.05c118.97,97.67 245.58,181.11 391.05,242.29 22.83,9.59 36.28,15.85 54.8,24.41 30.5,14.05 24.09,13.75 54.14,24.98l84 29.12c100.78,31.09 184.26,54.95 292.27,69.7l383.09 19.6c18.34,-0.41 21.53,0.4 46.46,-0.08 16.93,-0.33 16.08,-0.74 36.61,-0.22 409.77,10.6 508.51,6.11 886.6,-110.49 84,-25.9 303.5,-127.09 378.38,-187.19 71.81,-57.69 105.12,-69.25 193.83,-145.51l438.03 -466.83c26.76,-14.52 464.24,-33.79 557.83,-54.13 134.21,-29.16 252.37,-72.62 375.24,-121.24 6.81,-2.7 17.04,-6.41 24.34,-9.56 177.67,-75.99 333.99,-183.22 498.66,-281.78l185.15 -142.88c85.11,-93.74 156.18,-223.5 156.18,-352.78 -26.61,2.23 -29.35,3.23 -46.47,10.78l-113.75 100.49c-1.78,1.52 -4.26,3.67 -6.11,5.15l-349.85 215.69c-74.63,46.2 -402.92,155.54 -495.29,172.03 -131.76,23.61 -265.45,50.1 -402.36,50.1 -79.44,0 -116.08,-17.23 -180.92,-22.64 4.48,-54.51 18.08,-35.94 22.6,-90.48 112.97,0 221.83,-31.02 324.1,-71.78 72.55,-28.86 125.72,-71.77 172.07,-133.31l45.17 -56.66c20.71,-26.12 107.64,-168.07 35.5,-168.07 -39.87,0 -38.72,20.27 -64.77,37.02l-114.72 45.76c-1.29,0.56 -4.26,1.85 -5.59,2.37 -10.12,3.82 -43.58,9.93 -59.32,11.19l-104.6 2.63c-72.07,0.85 -119.5,-14.23 -182.56,-31.09 0,-69.32 9.85,-72.03 11.26,-135.76l261.78 6.41c167.07,-6.74 330.29,9.3 496.84,-4.59 59.25,-4.93 121.38,-10.64 169.03,-13.04 60.51,-3.04 114.94,-4.56 133.51,-5.08 176.4,-4.89 327.02,-49.73 495.24,-44.69 14.6,0.45 38.28,2.26 65.4,-1.59 61.14,-8.71 82.18,-14.52 150.44,-18.9 167.99,-10.67 392.68,-62.06 563.94,-104.56l399.5 -120.83c37.31,-14.26 73.96,-36.2 120.16,-49.5l356.53 -163.81c23.23,-12.67 27.08,-16.45 48.61,-30.53 23.82,-15.6 32.05,-17.27 57.54,-32.94 25.68,-15.82 21.79,-15.94 48.5,-30.65 90.45,-49.65 179.64,-117.9 265.93,-175.22 6.45,-4.26 13.23,-9.45 19.49,-14.41l65.85 -47.28c31.64,-20.05 193.63,-131.2 206.49,-166.74 47.21,1.04 39.54,-2.41 64.03,26.46l40.16 50.28c107.79,123.64 203.16,263.07 261.04,417.62 28.2,75.22 68.96,148.17 79.52,231.02 4.44,34.5 0.44,15.49 13,60.14 26.16,92.93 28.64,182.11 28.64,277.71l-144.24 432.63c-1.78,2.85 -6.78,11.19 -8.49,14.12 -48.83,83.25 -106.45,165.99 -181.82,225.35 -1.85,1.48 -4.44,3.6 -6.3,5.04 -1.92,1.41 -4.59,3.45 -6.44,4.82l-126.09 88.89c-6.82,4.52 -0.52,2.48 -20.31,13.56 -14.3,8 -9.52,4.07 -23.19,10.82l-29.28 15.89c-21.49,12.38 -14.19,11.12 -45.68,22.2 -26.83,9.45 -34.24,10.34 -62.03,17.15l-169.81 56.44c-121.46,47.83 -281.27,79.47 -411.21,98.26 -61.44,8.85 -80.7,1.33 -121.54,11.74 -146.47,37.32 -485.54,26.83 -643.97,10.75 -39.39,-4 -95.67,-15.34 -138.28,-20.05 -141.25,-15.59 -230.7,-35.01 -359.68,-70.14 -13.63,-3.7 -44.57,-9.96 -62.8,-16.41l-105.9 -41.09c-25.53,-10.64 -1.7,-1.52 -23.38,-10.6 -260.78,-108.82 -288.9,-142.32 -504.43,-264.67 -25.31,-14.37 11.78,-1.89 -28.72,-16.56 -41.94,74.66 80.4,236.62 134.61,306.57l154.03 162.63c1.74,1.59 4.15,3.93 5.82,5.48l11.89 10.71c143.99,129.35 350.67,211.61 541.57,239.1 124.2,17.9 253.4,45.43 375.79,52.84l72.54 8.41c20.42,0.52 21.16,-0.85 36.09,-0.52l319.07 6.56c34.75,0 40.68,-6.45 70.88,-6.26 196.49,1.07 593.1,-65.7 772.51,-134.35 159.37,-61.03 326.62,-93.45 473.65,-182.34l126.79 -88.11c26.64,-15.01 41.35,-24.31 60.66,-41.21l78.96 -79.33c21.15,-20.04 9.52,-8.33 26.16,-30.42l50.61 -62.5c67.73,-73.15 130.43,-175.93 171.55,-269.56l54.36 -160.59c13.41,-58.02 36.54,-123.87 42.8,-165.88 18.15,-120.61 23.53,-280.61 2.44,-405.47l-40.53 -185.71c-12.19,-74.59 -30.31,-106.6 -48.02,-178.19 -27.94,-113.01 -93.15,-207.9 -140.58,-311.87 -56.8,-124.68 -144.84,-230.1 -230.17,-335.4 -22.09,-27.35 -38.8,-37.02 -58.29,-66.11 37.02,-55.28 100.9,-97.85 145.21,-148.87l183.82 -189.49c2.52,-2.82 92.71,-103.86 142.65,-185.3 50.47,-82.22 99.23,-187.71 126.58,-280.68 27.6,-93.85 -2.63,-68.43 89.66,-113.9 108.75,-53.61 207.94,-127.42 316.99,-180.74l315.21 -193.75c75.03,-62.47 161.22,-108.6 242.36,-164.81 37.94,-26.31 80.48,-69.44 122.83,-80.78 0,81.3 -13.67,69.37 0.89,122.94l26.23 76.18c1.04,2.56 2.15,5.6 3.15,8.16 1.37,3.29 5.08,12.93 6.52,16.11 21.83,47.1 57.25,87.89 89.15,125.76 10.68,12.67 9.64,12.75 20.35,24.94 1.51,1.74 3.78,4.22 5.33,5.96 1.56,1.71 3.85,4.15 5.45,5.82l11.3 11.3c82.66,79.07 160.18,134.95 276.49,164.66l199.12 37.69c134.61,10.56 97.63,6.33 238.06,-0.97 275.86,-14.3 320.1,-191.34 305.76,0.3 -12.41,165.22 -81.77,321.54 -175.11,447.82 -26.6,36.05 -24.71,14.45 -28.68,61.8 -50.43,4.23 -32.64,8.01 -66.32,35.46 -39.06,31.87 -79.7,58.33 -130.13,73.48 -33.46,10 -48.76,9.41 -81.41,20.42l-327.95 282.78 -145.62 360.08c-11.41,101.23 -16.12,260.74 41.83,355.97l44.69 68.43c26.46,33.65 51.06,70.03 86.89,94.08 43.5,29.27 61.91,44.13 120.42,60.51l341.89 36.2c32.27,-3.63 -5.38,3.56 29.82,-4.04 70.63,-15.19 161.26,-40.72 221.02,-71.88 136.47,-71.03 159,-168.89 159,-316.1 0,-28.12 -23.83,-77.07 -36.76,-99 -9.08,-15.34 -2.15,-4.97 -13.71,-20.2 -22.6,-29.71 -31.05,-28.08 -40.05,-61.77 -44.61,0 -45.91,3.56 -79.15,11.31 0,85.74 -31.53,191 -76.81,228.57 -79.14,65.62 -322.76,100.68 -431.74,8.49l-12.15 -10.45c-1.78,-1.52 -4.41,-3.63 -6.08,-5.22 -57.58,-52.06 -72.73,-122.94 -72.73,-198.79 0,-55.43 45.2,-92.41 71.66,-131.95l61.17 -74.55c177.19,-154.99 359.9,-176.33 546.94,-335.32 100.63,-85.63 181.52,-199.76 233.51,-320.73l9.63 -24.35c56.99,-143.02 75.81,-293.38 92.37,-451.23 4.93,-47.13 -21.15,-258.4 -31.2,-279.34 49.99,-4.15 319.7,-170.59 359.34,-206.16l46.91 -43.61c50.43,-48.13 101.27,-95.63 140.58,-153.47 5.78,-8.45 14.19,-21.72 17.86,-27.42l50.83 -96.19c90.34,-202.27 119.46,-434.85 53.32,-650.98 -41.42,-135.24 -124.98,-364.82 -195.78,-482.84l-179.01 -341.36 148.7 -190.64c11.97,-16.19 13.71,-23.08 25.68,-42.13 55.02,-87.3 122.2,-166.63 172.51,-257.33l460.94 -862.44 290.35 -761.58c9.44,-41.54 20.3,-68.22 28.23,-118.8l112.49 -836.8 0.15 -353.92c-6.26,-68.14 9.26,-79.04 -12.86,-234.4 -9.78,-69.18 -7.96,-118.2 -19.3,-184.37 -10.52,-61.73 -9.86,-106.05 -20.01,-159.96 -5.56,-29.16 -7.15,-53.62 -13.67,-89.04l-50.47 -232.28c-12.23,-62.81 -27.94,-100.31 -42.98,-160.63 -9.74,-38.79 -12.78,-47.28 -22.12,-79.7l-123.79 -385.2c-27.65,-107.64 -68.51,-199.12 -103.38,-303.83l-67.81 -169.67c-1.11,-2.4 -2.59,-5.29 -3.7,-7.67 -7.38,-15.6 -8.71,-14.3 -18.23,-38.27 -5.75,-14.3 -6.19,-19.19 -11.82,-33.46 -2.93,-7.48 -13.42,-29.35 -18.01,-38.5 -67.99,-135.06 -130.54,-271.15 -208.39,-402.43l-89.33 -148.25c-30.94,-52.17 -57.8,-117.38 -94.6,-165.51l-61.8 -85.26c-4.04,-6.19 -17.04,-23.23 -24.05,-32.46l-221.39 -287.56c-1.52,-1.86 -3.55,-4.52 -4.93,-6.41l-133.42 -160.7c-10.56,-11.38 -11.97,-13.34 -21.09,-24.16l-77.99 -80.37c-21.57,-20.27 -26.53,-30.49 -48.21,-53.58l-310.91 -299.83c-38.61,-34.35 -69.36,-59.8 -109.01,-94.63l-23.93 -21.31c-7.86,-7.3 -3.63,-3.85 -11.49,-11.15l-163.85 -141.47c-1.85,-1.48 -4.52,-3.48 -6.41,-4.92l-45.16 -34.02c-30.24,-24.75 -45.69,-52.58 -84.19,-62.84l0 -33.94c69.85,-5.82 132.43,-71.14 242.25,-97.04 50.4,-11.9 74.81,-30.39 117.76,-51.95l219.05 -120.24c19.46,-12.45 30.16,-16.48 49.47,-29.75 20.01,-13.75 31.83,-26.42 49.13,-41.31 105.45,-90.41 235.51,-229.32 319.95,-370.05l109.38 -229.88c51.99,-131.53 83.3,-275.74 101.23,-419.21 3.37,-27.12 8.3,-67.66 9.26,-79.92 1.49,-17.31 0.34,-22.53 0.82,-33.09l-1 -153.33c-13.9,-129.2 -23.57,-242.95 -66.66,-361.89 -10.08,-27.72 -14.12,-49.28 -23.53,-78.29 -22.42,-69.25 -42.87,-79.44 -67.36,-136.25 -12.82,-29.82 -15.12,-46.31 -30.57,-71.21 -15.23,-24.46 -27.75,-32.09 -45.39,-56.43l-87.48 -116.05c-95.6,-101.75 -84.33,-105.9 -203.75,-203.46 -135.51,-110.75 -289.68,-188.89 -448.9,-263.7l-144.84 -58.73c-28.49,-10.38 -54.06,-16.23 -77.7,-24.16 -99.82,-33.5 -385.79,-103.27 -496.17,-103.27l-366.75 2.34c-1.59,0.11 -5.93,0.52 -7.93,0.59 -73.7,3.22 -98.86,20.64 -179.26,19.97 -110.38,-0.89 -195.68,13.71 -310.39,25.6l-131.54 20.05c-46.17,12.01 -111.75,31.98 -169.15,33.27 -82.73,-123.6 -404.54,-421.14 -508.95,-429.81l55.43 -68.95c75.55,-89 184.63,-136.65 266.93,-219.43l160.55 -201.46c12.08,-18.74 14.85,-26.3 25.3,-42.57 27.79,-43.43 20.05,-26.16 41.17,-83.18 37.05,-99.86 71.92,-195.31 79.33,-307.91 16.75,-253.55 -95.37,-539.16 -258,-736.69l-280.04 -240.28c-96.42,-61.29 -205.91,-97.79 -313.92,-138.51 -159.47,-60.17 -343.14,-87.48 -511.95,-87.48 -102.94,0 -202.42,19.34 -295.46,43.87l-611.12 191.97 -634.27 327.14c-142.43,83.78 -84.55,25.38 -180.11,102.64 -14.56,11.74 -50.02,29.86 -70.95,42.16l-421.74 279.6c-44.76,31.57 -10.52,-6.59 -56.76,32.91 -25.09,21.45 -35.13,30.57 -62.88,50.98 -40.8,30.13 -116.57,74.81 -121.17,116.39 -58.58,6.41 -71.36,45.72 -120.97,82.62l-481.21 333.07c-61.73,38.31 -124.5,95.26 -191.01,125.72l-50.28 28.86c-2,1.38 -4.52,3.49 -6.48,4.86 -48.43,33.31 -91.08,46.76 -145.36,58.25 11.41,-48.91 29.98,-115.72 42.76,-160.85 21.27,-75.18 46.39,-106.71 47.72,-167.15l158.41 11.31c70.32,0 59.28,-25.79 65.88,-62.59l8.67 -98.89c-0.23,-3.08 -2.19,-18.08 -2.78,-20.9 -51.1,-246.18 -115.79,-12.37 -10.12,-434.55 17.53,-69.89 51.43,-179.52 51.43,-254 83.04,0 166.7,1.7 222.06,-83.37 120.6,-185.45 -71.81,-285.53 -142.88,-391.72 54.06,-12.6 132.5,-71.81 172.71,-110.05 104.45,-99.6 174.55,-201.31 217.64,-347.81 42.99,-146.1 -27.38,-101.56 95.86,-186.93 167.85,-116.2 294.46,-300.32 348.81,-499.51 68.89,-252.55 -1.66,-415.22 10.97,-467.13 13.56,-56.17 123.31,-234.95 147.69,-392.24 15.31,-99.08 24.24,-127.87 24.24,-247.18 102.82,-23.97 139.57,0.82 168.29,104.27 16.64,60.03 -2.96,69.58 -26.64,117.35 -26.2,52.98 13.64,-48.84 -5.11,12.22 -23.42,76.33 159.47,18.6 262.37,-83.77 39.2,-38.98 57.54,-66.55 80.44,-123.13 3.74,-9.08 8.89,-22.12 13.15,-32.12 68.48,-161.63 3.26,-358.9 -166.51,-411.29 -120.61,-37.2 -246.26,-3.26 -325.99,88.44 -18.31,-68.43 -144.77,-180.96 -226.25,-180.96 -87.29,0 -255.22,21.23 -282.75,124.42 22.35,30.46 50.1,29.57 74.55,61.18 46.62,60.17 41.91,143.72 -6,199.93 -36.09,42.39 -119.2,21.64 -226.87,21.64l-96.23 50.88c-49.5,23.41 -231.77,177.55 -231.77,231.91 0,47.76 30.28,27.08 78.89,23.6 81.18,-5.74 294.35,-75.73 294.35,66.88 0,62.55 -61.47,75.33 -110.86,81.44 -344.37,42.39 -184.34,-2.26 -465.98,-2.26 4.04,48.39 36.76,67.07 66.47,103.2 51.54,62.58 43.5,26.49 103.23,66.47 -8.22,35.09 -14.49,32.75 -22.64,67.84 -45.98,-3.81 -34.86,-4.63 -57.32,-33.12 -38.98,-49.47 -87.78,-143.51 -146.28,-159.14 -109.35,103.74 -125.06,287.82 -87.37,426.69 28.64,105.27 27.3,166.45 -0.26,277.42 -15.64,62.69 -48.1,113.23 -48.1,178.15 0,139.73 186.86,370.34 316.73,373.23 0,-84.22 7.71,-174.78 -1.7,-258.48 -4.3,-38.42 -14.08,-69.92 -9.75,-125.9 7.26,-94.97 46.91,-113.27 147.14,-113.27l-22.01 419.1c-0.63,115.6 -59.69,227.69 -132.65,308.5l-79.41 67.59c-83.51,71.17 -97.44,53.13 -207.01,53.13 -69.18,0 -2.89,-114.31 13.01,-145.32 37.05,-72.48 87.26,-61.95 122.68,-114.83 -32.83,-44.87 -248.81,-138.72 -248.81,-373.27 0,-52.84 37.87,-65.73 -11.3,-101.82 -52.43,14.01 -32.83,44.09 -61.92,130.43 -21.78,64.51 -27.82,78.88 -70.73,121.49 -34.65,34.35 -63.1,61.47 -107.05,85.26 -45.46,24.64 -100.34,26.01 -144.91,47.39 11.75,50.25 62.51,105.31 90.48,147.06 -5.67,24.53 -23.67,69.18 -33.86,90.49 -65.44,-34.61 -116.35,-64.85 -147.44,-135.36 -33.6,-76.25 -10.96,-288.9 -10.96,-396.24 123.2,0 134.9,9.89 222.05,105.93 25.57,28.2 11.01,28.68 60.73,29.8 67.7,-141.14 15.49,-358.16 -109.27,-456.35 -40.42,-31.83 -36.31,-4.74 -49.09,-52.65 58.02,-15.49 118.42,-83.44 149.66,-133.13 97.22,-154.47 72.8,-332.92 -31.24,-471.64 -31.5,-41.91 -99.01,-92.3 -148.73,-111.42 -473.05,-181.97 -732.46,275.56 -542.08,553.38 30.86,45.06 98.19,115.9 153.91,128.87l-48.65 28.75c-38.98,10.56 -28.42,5.08 -65.32,26.68 -42.98,25.16 -80.11,53.14 -115.42,88.45 -62.36,62.36 -243.33,347.33 -82.03,270.59 132.05,-62.88 159.32,-16.15 266.18,-7.26 0,95.26 9.04,217.28 -25.08,280.34 -9.41,17.45 -0.67,4.04 -14.01,19.94 -12.45,14.89 -8.37,8.78 -16.93,16.97 -37.24,35.57 -67.03,58.58 -115.12,77.14 -37.17,14.38 17.67,12.78 -32.5,12.78 -114.34,0 -204.16,-7.11 -281.75,-102.74 -29.38,-36.17 -34.9,-85.63 -34.9,-134.8 0,-54.88 127.98,15.75 180.93,-56.54 -8.16,-30.76 -13.75,-28.05 -34.83,-44.28l-62.96 -50.17c-103.93,-112.31 -139.68,-224.02 -139.68,-380.61 -56.18,0 -48.73,-6.89 -68.74,33.05 -19.01,37.72 -5.78,28.13 -34.31,67.51l-77.03 92.64c-1.63,1.66 -4.11,3.92 -5.82,5.52l-130.13 96.11c-35.94,20.57 -102.71,47.8 -125.13,78.44 33.65,45.87 59.44,10.82 104.46,65.25 14.15,17.19 53.91,91.82 53.91,115.72 0,55.95 -90.48,147.02 -169.7,147.02 -113.05,0 -218.28,-64.65 -291.54,-138.24 -131.16,-131.83 -104.3,-407.88 -104.3,-596.96 0,-36.27 3.85,-45.8 16.56,-73.92l28.68 -61.8c71.14,47.65 46.17,120.72 45.17,282.82 -0.37,69.33 -20.9,113.94 25.01,133.5 34.05,14.53 108.57,7.93 144.47,2.23 155.62,-24.87 313.21,-172.56 316.95,-339.37l79.14 0c37.95,0 10.86,-7.67 57.99,-21.19 182.52,-52.36 295.94,-224.54 261.71,-423.18 -23.98,-138.69 -94.79,51.02 -265.78,-39.28 -36.54,-19.31 -69.74,-44.24 -90.04,-79.66l-31.68 -104.05 147.02 -11.3c0,-129.72 -10.71,-206.87 -106.93,-255.03 -77.92,-38.98 -152.51,-50.36 -243.7,-50.36 -53.8,0 -92.19,25.01 -138.72,31.76 -53.17,7.7 -99.97,-9.16 -166.7,-9.16 62.06,-92.63 187.82,-140.17 295.57,-142.58 48.09,-1.07 179.04,46.65 12.48,-199.34l-59.95 -64.51c-23.12,-17.97 -55.17,-41.76 -78.44,-57.32 93.89,-128.13 158.36,-122.01 158.36,-395.87 0,-68.07 -52.46,-21.16 -70.88,-3.82 -104.56,98.41 -168.92,94.3 -313.65,94.3 38.76,-80.77 -26.05,-252.51 -81.63,-314.24 -96.93,-107.72 -151.47,-165.59 -258.03,-36.72 -64.84,78.44 -90.52,166.59 -101.75,271.52 -7.41,68.99 -25.12,90.78 -101.52,90.78 -63.77,0 -125.24,-12.38 -168.33,-46.58 -39.1,-30.9 -68.74,-61.1 -80.52,-111.78 -30.53,2.52 -30.79,5.29 -56.58,11.3 0,327.54 60.21,254.99 169.66,418.51 -32.64,8.71 -58.13,38.53 -80.92,66.1l-104.93 132.58c-2.11,2.55 -8.41,9.59 -10.53,12.07 -10.22,11.71 -13.11,13.79 -21.45,23.79l-43.31 70.22c-92.23,143.36 61.91,32.64 316.46,126.35l56.4 22.75c22.71,13.23 27.64,14.78 35.35,43.83 -229.73,0 -149.77,-33.35 -314.25,-71.1 -58.91,-13.49 -135.09,0.52 -188.45,32.09 -18.12,10.67 -25.97,16.93 -39.61,28.3l-33.75 34.09c-21.72,24.57 -43.54,42.83 -54.8,69.66l-25.13 133.17c0,41.24 27.65,32.31 66.51,35.27 76.89,5.86 95.23,21.31 76.7,95.34 -8.93,35.53 -12.15,39.76 -29.31,62.51l-15.52 18.41c-68.81,71.37 -249.85,68.66 -279.38,-41.87 -146.95,3.26 -94.59,331.74 13.64,438.78 81.7,80.81 183.37,115.46 314.39,115.46 0,381.2 460.01,449.12 485.54,315.87 14.34,-74.92 -2.3,-328.25 29.83,-366.04 23.79,-27.94 8.93,-17.71 61.43,-17.71 88.96,185.37 23.57,444.15 -46.61,609.41 -6.67,15.71 -9.64,21.12 -18.57,37.97 -35.31,66.59 -65.54,128.5 -136.46,157.66 -40.83,16.79 -79,31.98 -126.35,31.98 -172.7,0 -283.49,-122.53 -147.77,-226.95 2.04,-1.59 15.05,-10.89 19.9,-14.04 2.04,-1.33 4.74,-3.22 6.78,-4.52 2.08,-1.3 4.93,-3.04 7,-4.3 32.13,-19.19 36.46,-12.75 57.51,-44.28 -23.49,-32.08 -79.52,-50.8 -114.94,-77.29 -31.75,-23.75 -72.07,-70.21 -102.78,-100.86 -127.58,-127.42 -125.76,-203.75 -178.15,-217.72 -36.76,24.64 -23.75,18.68 -38.13,63.62 -34.72,108.34 -93.56,213.98 -156.36,307.39 -27.38,40.72 -50.95,76.55 -76.92,115.35 47.72,25.27 107.71,33.94 180.96,33.94 -63.4,119.79 -124.46,237.54 -282.75,237.54 -170.92,0 -349.92,-249.36 -200.53,-381.49 16.97,-14.97 77.18,-41.8 90.74,-43.95 25.94,-4.11 83.78,16.86 112.76,37.87 1.92,1.41 4.41,3.59 6.26,5.04l11.74 10.89c33.13,26.01 -12.63,19.42 58.18,20.97 0,-120.97 -20.64,-216.35 -93.71,-302.12 -53.28,-62.48 -149.66,-136.62 -256.92,-138.99 34.68,-51.8 75.73,-76.92 101.04,-136.46 68.58,-161.44 61.95,-334.63 -75.18,-466.24 -22.34,-21.42 -81.96,-68.58 -111.01,-81.29 -18.64,-8.19 -62.62,-22.35 -75.44,-26.35 -204.72,-63.73 -518.04,72.96 -518.04,382.31 0,19.9 13.12,109.9 19.09,127.95 27.82,84.36 91.52,164.7 166.14,207.12 86.26,49.02 19.27,53.73 -56.32,178.45 -47.2,77.77 -151.73,442.07 -30.23,310.43 40.72,-44.02 49.72,-77.11 109.97,-94.97 91.63,-27.2 79.25,-2.34 164.62,17.56 0,265 26.94,397.65 -226.24,531.6 0,-173 76.74,-139.91 79.14,-248.85 -84.07,-6.96 -172.29,-96.15 -216.72,-156.51 -108.08,-146.91 -52.17,-185 -99.93,-284.6 -114.49,26.68 30.61,133.43 -84.07,323.14 -3.74,6.11 -10.71,15.3 -13.86,20.04l-17.71 27.53c-35.24,51.62 -106.27,101.49 -167.15,115.64 8.53,102.42 173,159.26 126.32,272.42 -22.57,54.61 -66.1,33.01 -148.95,33.01 -32.69,0 -159.07,-136.54 -184.12,-166.52 -37.46,-44.79 -87.3,-210.72 -87.3,-274.63l0 -350.63c0,-50.25 15.57,-58.32 56.51,-67.88 104.97,218.83 67.92,275.15 67.92,497.69 97.3,0 165.66,-9.82 227.46,-89.19 168.52,-216.31 63.44,-345.11 4.86,-505.25 -44.58,-121.6 39.09,-160.73 39.09,-276.49 0,-121.94 -0.52,-209.83 -41.8,-320.13l-26.08 -64.44c-67.07,17.9 -141.62,169.67 -180.93,169.67 -30.53,0 -31.2,-5.41 -56.58,-11.34 114.68,-216.72 143.1,-226.43 -96.23,-198.79 -78.22,9.04 -257.22,37.72 -300.05,7.15 -40.31,-28.75 -54.95,-77.81 -18.53,-120.75 42.06,-49.62 254.11,-24.49 312.99,-38.24 -29.31,-109.82 -78.41,-214.09 -179.93,-272.45 -184.82,-106.16 -291.68,27.35 -350.33,-68.03 -2.41,-3.93 -9.86,-19.6 -11.31,-22.79 -11.7,-26.15 -12.59,2.12 -12.59,-55.24 0,-58.77 40.79,-83 45.24,-135.73 47.54,-3.96 79.81,-15.3 101.74,-45.24 -47.94,-71.58 -176.29,-91.37 -265.07,-74.62l-51.47 17.45c-80.33,25.64 -189.41,51.62 -215.01,147.66 -118.13,-56.69 -313.25,-41.5 -403.03,60.76 -198.79,226.65 -51.5,561.35 256,561.35 43.24,0 4.11,3.49 33.9,-11.3 -9.19,-34.53 -32.94,-63.03 -55.06,-92.04 -23.71,-31.09 -52.46,-41.13 -40.87,-93.15 24.46,-109.71 122.98,-142.91 220.32,-120.24 -15.71,189.6 -21.97,265.56 57.84,462.5l105.34 177.41c74.96,96.93 31.27,78.22 12.86,192.12 -22.31,137.79 -16.34,273.04 33.86,405.91l114.31 225.06c21.9,36.01 34.72,44.28 63.21,72.51 23.83,23.64 43.02,46.32 68.18,67.51 27.46,23.01 49.91,33.42 78.55,57.21 103.16,85.7 73.77,-6.93 102.38,157.77 28.46,164.29 195.45,411.88 358.82,455.53 -27.57,41.16 -16.08,18.08 -49.8,40.61 -47.21,31.49 -97,101.97 -113.53,158.29 -21.82,74.51 -3.19,242.21 95.45,242.21l158.4 -22.6c2.67,119.64 111.6,515.03 106.08,590.14 -4.07,55.54 -65.69,123.75 -91.33,171.92 -26.16,49.02 -8.45,59.77 -3.49,120.16 47.25,3.93 81.22,26.68 126.98,30.5 37.46,3.11 88.78,-8.82 133.17,-19.16 3.82,45.76 94.23,281.75 101.86,373.24 -42.28,-9.86 -69.99,-20.16 -107.86,-39.21l-233.29 -139.98c-45.13,-36.02 -90.37,-51.02 -136.76,-89.45 -101.93,-84.29 -216.68,-153.77 -323.62,-230.58 -1.96,-1.37 -4.63,-3.37 -6.52,-4.78 -1.93,-1.4 -4.56,-3.48 -6.41,-4.92l-345.92 -276.2c-18.31,-14.56 -20.46,-19.41 -35.91,-31.97 -31.68,-25.75 -17.97,-10.86 -49.54,-29.64l-267.3 -185.12c-30.19,-25.01 -61.87,-32.5 -94.15,-52.87l-91.7 -55.29c-17.23,-10.3 -30.2,-19.19 -47.58,-31.68 -20.19,-14.49 1.48,-0.92 -19.71,-14.23l-516.37 -275.33c-32.57,-20.01 -60.14,-32.72 -96.3,-50.77l-233.8 -105.49c-2.48,-1.07 -5.41,-2.33 -8.01,-3.33 -2.52,-1.04 -5.48,-2.19 -8.11,-3.19l-184.56 -64.28c-18.27,-5.56 -33.94,-7.93 -53.91,-13.94l-121.76 -36.6c-22.93,-7.12 -30.64,-11.05 -60.17,-19.75 -63.77,-18.75 -50.47,-5.75 -105.12,-17.79 -33.53,-7.41 -21.9,-9.04 -52.06,-16.52 -165.96,-41.36 -399.47,-35.28 -581.43,1.89l-524.97 215.38c-31.79,16.01 -23.08,10.27 -48.2,30.94 -61.29,50.28 -129.24,98.78 -179.45,159.92l-169.63 248.92 -85.55 257.11c-76.37,241.62 -2.96,533.56 145.32,733.35 53.62,72.36 105.64,140.39 176.15,197.08 77.22,62.14 251.07,164.63 277.9,265.04 -70.85,18.9 -170.82,130.17 -237.51,135.73 -5.78,52.69 -0.89,22.41 -46.54,55.28 -160.07,115.23 -141.99,223.39 -291.53,193.08 -34.57,-7 -47.17,-14.97 -82.19,-20.45 -124.75,-19.68 -294.12,-47.54 -416.4,-53.62 -151.99,-7.59 -337.14,-34.16 -491.5,-24.93l-58.32 3.07c-235.47,41.32 -360.45,34.76 -591.07,120.83l-574.02 285.64 -166.51 150.21c-1.75,1.56 -4.3,3.67 -6.08,5.23l-11.9 10.71c-1.7,1.59 -4.07,3.92 -5.78,5.55l-169.48 215.02c-10.26,15.6 -11.78,18.64 -22.12,34.5l-18.23 26.97c-105.74,159.88 -166.88,369.27 -176.07,562.32 -12.49,259.66 -6.89,283.71 30.05,521.62 7.59,48.8 24.64,74.33 38.16,120.2 8.49,28.72 8.41,38.61 16.71,62.44 34.32,98.08 90.12,225.43 151.85,311.94 1.37,1.97 3.44,4.56 4.81,6.49 1.97,2.7 7.38,10.56 9.34,13.3l123.98 158.77c1.56,1.74 3.74,4.3 5.3,6.04l175.04 164.29c1.81,1.45 4.52,3.45 6.37,4.89 1.93,1.45 4.63,3.41 6.48,4.86l180.12 113.94c2.4,1.11 5.37,2.52 7.67,3.63l311.68 129.42c37.09,20.68 68.55,44.24 114.68,54.99 -6.18,9.26 -8.45,14.89 -18.34,26.86 -22.56,27.31 -3.85,5.78 -28.49,28.05l-324.1 286.68c-10.45,10.52 -13.42,12.6 -23.42,21.86l-225.24 215.83c-1.78,1.6 -4.38,3.67 -6.04,5.26 -1.75,1.63 -4.23,3.86 -5.86,5.49l-25.86 30.71c-1.52,1.75 -3.74,4.27 -5.34,5.93l-268.63 285.61c-11.6,15.89 -32.38,43.13 -44.98,56.87l-363.9 507.03c-1.37,2 -3,4.89 -4.41,6.89 -1.29,2.04 -3,4.89 -4.37,6.93l-169.92 282.49c-16.49,30.28 -21.42,36.8 -38.65,63.22 -17.71,27.23 -18.15,37.9 -32.6,69.14l-15.83 29.42c-1.26,2.14 -2.96,4.92 -4.26,7.07 -1.26,2.15 -3,4.89 -4.26,7.01l-86.85 173.33c-1.07,2.48 -2.15,5.56 -3.26,8.04 -1.08,2.48 -2.15,5.59 -3.26,8.08l-49.99 108.34c-9.44,19.19 -6.59,10.86 -15.71,29.53 -86.48,177.71 -187.59,451.41 -240.84,641.42 -2.52,8.97 -6.37,22.71 -10.52,34.72 -30.35,88.63 -112.94,361.67 -122.35,443.19 -5.89,50.54 -1.59,45.57 -14.19,87.92 -9.86,33.2 -12.79,49.02 -17.31,82.41 -22.6,167.03 -57.32,315.69 -74.21,482.83 -3.93,38.91 -4.12,41.43 -3.93,66.59 0.67,94.89 -3,188.89 -5.15,282.6l0 205.64zm9681.93 8562.94l0 0c46.39,-22.27 176.26,-47.39 269.89,-80.78l16.83 -5.78c228.13,-71.03 403.8,-186.48 591.62,-245.36 29.57,-9.26 -3,1.22 24.9,-9.04l135.06 -45.95c88.11,-25.23 252.55,-133.39 352.92,-133.39 82,0 205.2,61.55 279.64,93.6l37.65 18.93c18.15,9.82 27.12,14.68 45.98,21.86l452.49 169.59c36.38,14.83 49.43,31.28 79.62,44.8 106.38,47.65 347.41,127.28 463.2,158.92 34.39,9.41 73.55,20.71 111.83,23.9 -3.56,42.24 -13.79,40.57 -41.43,60.36 -90.7,64.88 -72.58,77.14 -147.58,112.6 -61.99,29.31 -58.32,42.09 -107.64,73.33l-271.3 124.57c-175.89,50.5 -201.94,81.44 -417.47,103.64 -36.28,3.74 -65.73,3.78 -78.74,5.78 -121.5,19.01 -142.32,27.53 -292.61,11.63l-393.01 -31.57c-68.22,-11.67 -158.66,-13.15 -228.43,-31.68 -136.43,-36.27 -278.01,-60.28 -408.4,-123.23 -30.79,-14.9 -55.91,-21.61 -88.78,-35.65 -119.2,-51.06 -216.05,-137.8 -314.84,-216.76 -27.75,-22.23 -53.02,-36.87 -71.4,-64.32zm-2035.9 -237.55l0 0c11.97,-12 42.87,17.97 12.6,5.89 -0.26,-0.11 -31.57,13.08 -12.6,-5.89zm6673.28 -361.93l0 0c1.08,-1.15 3.37,1.78 3.37,3.37 -0.22,-0.22 -4.55,-2.26 -3.37,-3.37zm-2714.56 -305.39l0 0 122.02 13.71c30.71,7.26 61.76,5.86 99.52,13.6l955.07 334.36c27.83,12.64 134.06,42.58 169.41,45.51 -8.3,35.42 -21.27,53.28 -35.39,89.11 -13.86,35.2 -17.97,60.1 -59.32,76.44 -96.41,38.12 -360.04,-44.54 -471.98,-73.96l-426.74 -172.7c-18.78,-9.34 -23.6,-11.01 -46.53,-21.38 -2.41,-1.08 -5.34,-2.45 -7.71,-3.56l-322.69 -141.06c-48.14,-22.79 -32.54,-33.87 -88.78,-46.98 16.26,-30.72 73.1,-113.09 113.12,-113.09zm-2341.29 395.87l0 0c65.69,-5.48 123.72,-34.42 185.56,-51.98 36.46,-10.34 65.43,-13.78 100.19,-24.23 23.97,-7.23 18.08,-5.82 43.31,-13.16l176.97 -60.58c18.15,-5.89 34.12,-8.33 52.91,-14.93 16.82,-5.93 17.45,-8.08 39.61,-16.97l86.55 -37.87c159.22,-71.96 438.56,-172 606.85,-186.82 67.18,-5.89 112.2,52.95 144.47,101.16 -25.27,26.64 -37.23,30.56 -72.77,51.61l-447.6 197.12c-2.44,1.08 -5.33,2.52 -7.67,3.59l-103.45 43.69c-33.16,14.64 -60.43,24.94 -95.44,40.24l-339.48 111.19c-6.97,1.49 -29.2,2.6 -52.84,4.6 -42.5,3.59 -294.98,120.24 -317.17,-146.66zm2748.46 -757.84l0 0 135.02 -79.81c33.8,-10.93 6.34,-7.82 33.43,1.78 63.32,22.38 145.84,73.18 178.85,89.37l23.23 8.89c51.13,21.68 115.27,71.7 191.82,96.12l532.9 124.09c36.35,13.52 25.16,33.94 10.82,73.29l-13.38 34.46c-0.37,1.3 -4.22,24.08 -6.85,36.38l-347.86 19.98c-149.76,-12.53 -258.03,-68.81 -363,-112.16 -135.47,-55.92 -151.84,-98.23 -245.37,-173.11l-129.61 -119.28zm-2612.77 384.57l0 0c-50.99,0 4.63,5.19 -33.65,5.67l-192.52 -5.67 -13.64 -158.1c57.8,-4.85 103.97,-25.2 151.03,-32.46l310.31 -74.25c53.84,-13.3 431.08,-247.63 490.77,-222.24 32.6,13.85 82.92,62.62 102.12,91.18 -36.69,19.38 -53.36,32.13 -83.78,63.33 -63.69,65.47 -132.43,123.94 -211.28,173.29l-91.22 55.8c-22.27,11.42 -32.53,14.75 -54.24,24.87l-30.05 15.19c-62.22,30.05 -143.84,44.31 -212.84,58.8 -134.02,28.12 -65.28,4.59 -131.01,4.59zm-7091.8 -678.65l0 0 56.54 0 0 11.33 -56.54 0 0 -11.33zm17995.28 -90.49l0 0c0,-28.94 17.9,-1.81 6.75,0 -0.11,0.04 -6.75,31.57 -6.75,0zm-3585.48 -350.63l0 0 3.37 3.37c-0.22,-0.22 -4.52,-2.26 -3.37,-3.37zm2827.68 -124.42l0 0 3.37 3.37c-0.22,-0.22 -4.52,-2.26 -3.37,-3.37zm-3675.97 0l0 0c12.01,-12.01 42.87,17.93 12.6,5.89 -0.26,-0.11 -31.57,13.04 -12.6,-5.89zm-1685.24 780.44l0 0c-309.94,0 -347.44,8.75 -725.12,-33.2 -153.32,-17.04 -178.59,-17.08 -322.36,-50.39 -72.7,-16.86 -467.05,-94.71 -502.1,-142.62l224.8 -69.28c278.41,-77.07 538.71,-77.93 838.39,-77.74 306.1,0.15 180.12,-54.84 379.68,16.19 79.59,28.31 293.2,64.21 385.94,77.78 125.47,18.3 272.05,24.78 397.25,14.74l185.41 -0.74c73.44,0.11 211.87,-29.27 291.2,-40.61 105.34,-15.08 385.98,-114.64 486.2,-169.89l559.91 -401.46c1.93,-1.41 4.59,-3.45 6.45,-4.89l12.48 -10.19c11.19,-9.38 12.64,-10.93 23.87,-21.35 66.28,-61.43 56.17,-78.44 200.41,-35.79 43.91,12.97 145.1,89.37 170.34,123.76 -16.53,22.49 -87.37,80.03 -116.72,98.22 -59.36,36.69 -82.7,77.04 -151.99,109.9l-42.72 22.49c-2.12,1.23 -5.15,2.82 -7.34,4.12l-187.23 130.35c-1.66,1 -4.44,3.04 -6,3.96 -1.52,0.89 -4.41,2.63 -5.82,3.41l-38.79 20.97c-61.69,44.32 -69.88,32.31 -149.44,76.85l-138.46 53.88c-83.85,28.27 -191.68,77.73 -275.16,98.08 -62.99,15.34 -107.19,28.53 -166.7,48.24l-276.19 63.1c-47.65,7.52 -52.13,8.22 -95.59,17.52 -180.71,38.65 -669.51,69 -864.93,74.63l-89.67 -0.04zm-8437.81 -995.35l0 0 312.69 252.85c64.51,55.06 31.39,40.91 115.35,99.6 1.96,1.37 4.56,3.33 6.52,4.74 1.96,1.37 4.56,3.41 6.48,4.82l139.32 86.92c2.08,1.3 4.82,3.08 6.97,4.38 172.52,104.67 210.42,110.97 382.05,172.14 147.36,52.54 161.33,43.95 296.38,76.93 35.54,8.67 59.96,5.22 120.54,14.89 117.64,18.75 117.79,13.08 219.79,13.04 21.09,0 24.2,-0.59 43.36,-0.33 310.87,4 300.16,10.52 627.49,-46.09 191.89,-33.2 191.67,-74.44 375.27,-87l51.02 -8.71c220.68,0 406.39,38.83 610.03,57.32l280.42 47.58c84.67,13.78 190.16,45.46 285.9,53.43 -90.15,62.65 -70.55,40.94 -151.25,63.73 -40.31,11.37 -41.83,21.34 -80.4,29.38 -24.94,5.19 -35.32,1.7 -80.22,12.78l-371.75 81.44c-171.11,27.2 -396.69,56.7 -571.51,61.88l-1055.63 -42.87c-69.4,-6 -122.9,-18.08 -189.01,-26.19 -44.09,-5.41 -52.09,-3.78 -80.81,-9.93 -25.31,-5.41 -63.84,-12.08 -92.52,-19.38 -42.94,-10.86 -46.39,-9.64 -94.89,-18.27 -91.67,-16.34 -425.22,-114.6 -514.04,-153.29 -23.12,-10.08 -6.52,-4.67 -40.94,-15.56l-279.78 -116.12c-115.5,-57.25 -288.46,-192.83 -376.72,-245.37l-228.1 -167.77c49.58,-74.07 78.48,-60.36 138.39,-110.42 30.17,-25.27 39.5,-35.87 79.45,-44.94l110.15 -25.61zm10224.83 90.49l0 0c-10.96,41.16 -4.48,22.93 -78.18,68.84 -2.07,1.3 -4.96,2.96 -7.04,4.26l-489.95 200.05c-25.19,7.26 -52.46,9.41 -85.4,16.38 -169.11,35.72 -310.28,49.42 -483.95,29.16 -67.32,-7.86 -135.43,-3.71 -156.21,-13.3 32.38,-48.28 54.83,-48.84 136.79,-66.81 76.48,-16.82 170.74,-61.73 244.33,-71.22 92.78,-11.96 344.26,-81.59 483.54,-102.34l436.07 -65.02zm-9659.33 0l0 0 118.98 13.45c190.71,38.98 153.47,-9.19 372.08,72.36 139.8,52.17 475.1,166.89 621.45,204.2l59.73 19.49c2.11,0.89 6.08,2.81 7.75,3.55 1.74,0.75 5.3,2.15 7.63,3.64 -164.7,13.71 -182.74,20.19 -361.93,0.03 -143.47,-16.19 -139.77,-17.52 -265.97,-50.76l-189.34 -59.51c-121.27,-41.09 -216.72,-98.26 -326.47,-159.84 -0.7,-0.37 -26.83,-17.49 -27.27,-17.94 -27.9,-28.75 -0.74,1.56 -16.64,-28.67zm9727.21 0l0 0c1.15,-1.12 3.38,1.77 3.38,3.37 -0.23,-0.22 -4.49,-2.26 -3.38,-3.37zm-67.88 0l0 0 -5078.49 -113.13 5078.49 113.13zm-10779.06 -124.43l0 0 3.41 3.37c-0.23,-0.22 -4.56,-2.26 -3.41,-3.37zm-497.7 -475.05l0 0 199.16 18.27c138.69,12.22 27.05,-39.54 258.56,89.59 30.94,17.27 40.05,27.79 77.62,46.76 87.67,44.2 115.24,82.41 165.96,94.23l0 33.94c-37.42,3.11 -180.59,64.54 -240.21,86l-24.57 11.07c-40.42,18.49 2.52,5.97 -40.64,16.01l-371.72 -341.7c-45.91,-58.65 -13.78,-34.5 -24.16,-54.17zm-33.9 -11.3l0 0c1.11,-1.15 3.37,1.78 3.37,3.37 -0.26,-0.22 -4.48,-2.26 -3.37,-3.37zm12464.34 407.17l0 0 -230.95 -97c-38.94,-15.49 2.82,-4.52 -40.5,-16.08 38.76,-52.88 78.15,-55.92 143.58,-105.31 38.87,-29.31 39.35,-24.9 83.89,-40.5 32.9,-11.56 58.39,-23.9 89.18,-35.23l373.31 -124.39c-23.3,44.17 -51.69,80.37 -87.41,116.16l-137.31 122.9c-80.78,60.47 -135.17,140.21 -193.79,179.45zm2522.33 -1278.13l0 0c0,-18.68 37.5,-105.31 81.7,-121.87 113.53,-42.43 418.07,-48.91 542.2,97.45l66.06 103.6 -94.04 64.36c-71.32,52.72 -27.9,50.02 -118.34,62.65 -184.19,25.68 -477.58,-13.97 -477.58,-206.19zm-17746.47 56.57l0 0c32.05,-60.54 57.62,-104.78 112.64,-147.5 57.21,-44.43 131.02,-63.29 204.01,-67.48 84.3,-4.81 255.7,-23.75 326.03,47.32 43.46,43.95 55.99,81.11 37.5,135.28l-21.42 46.43c-19.68,36.38 -37.79,45.83 -69.92,65.8 -37.35,23.16 -51.76,22.31 -100.78,34.94 -65.25,16.86 -149.4,30.94 -214.54,19.68 -242.81,-42.06 -48.98,-15.64 -273.52,-134.47zm-100.41 -304.98l0 0c15.74,19.34 13.93,13.6 21.19,44.84l-33.9 0 12.71 -44.84zm9.89 -23.04l0 0 3.37 3.37c-0.22,-0.22 -4.48,-2.26 -3.37,-3.37zm19160.3 -407.21l0 0 2.55 15.97c3.97,65.32 5,123.23 -14.89,186.56l-51.84 140.46 -97 95.27c-136.62,134.79 14.11,51.69 -183.3,144.72 -41.95,19.75 8.7,11.53 -51.36,16.49 -31.94,-60.28 -55.43,-125.09 -96.34,-175.07 -1.52,-1.82 -3.7,-4.37 -5.18,-6.15 -1.49,-1.82 -3.71,-4.34 -5.23,-6.15l-171.26 -156.74c-25.79,-15.93 -16.15,-9.59 -44.16,-23.64 -122.8,-61.65 -317.29,-93.33 -435.63,-95.96 10.15,-15.23 6.37,-10.38 20.71,-24.53l18.04 -15.9c2.49,-2.15 9.9,-8.04 12.45,-10.15l349.89 -294.87c27.61,-28.12 32.68,-28.19 59.88,-53.2l322.92 -321.77c54.72,-61.43 89,-81.78 98.33,-116.6l22.64 0c8.27,31.01 114.76,144.13 171.19,315.13 9.33,28.16 13.52,53.61 26.01,87.07 35.53,95.04 51.58,201.57 51.58,299.06zm-19465.69 -712.57l0 0c29.6,21.68 65.58,78.93 93.67,109.9l564.24 544.23c12.82,11.34 16.6,14.9 29.27,27.31l82.22 76.18c33.2,30.57 71.4,51.32 90.22,79.37 -125.79,0 -224.83,20.16 -337.1,70.07l-31.53 13.74c-124.69,51.02 -289.31,231.29 -321.33,368.64 -62.06,-5.15 -199.93,-79.37 -247.69,-125.5l-22.53 -22.75c-8.82,-9.04 -9.04,-8.41 -16.9,-17.04 -36.75,-40.57 -77.33,-131.84 -99.41,-183.38 -101.08,-236.58 27.94,-621.85 157.4,-841.91l59.47 -98.86zm18515.58 158.33l0 0c12.04,-12 42.94,17.97 12.67,5.89 -0.3,-0.11 -31.57,13.08 -12.67,-5.89zm-1040.52 0l0 0c11.97,-12 42.87,17.97 12.6,5.89 -0.26,-0.11 -31.57,13.08 -12.6,-5.89zm-147.1 0l0 0 1719.29 -588.14 3.37 3.37c-0.22,-0.22 -4.52,-2.26 -3.37,-3.37l-1719.29 588.14zm1187.62 -950.11l0 0c0.11,-3.78 11.97,-1.26 14.15,-0.92 1.71,0.29 13.12,-25.72 10.01,3.33 -0.23,1.82 -24.57,26.01 -24.16,-2.41zm1108.47 -350.63l0 0c1.15,-1.15 3.37,1.78 3.37,3.37 -0.22,-0.22 -4.48,-2.26 -3.37,-3.37zm-667.28 -113.12l0 0 3.33 3.37c-0.22,-0.22 -4.48,-2.22 -3.33,-3.37zm67.84 -169.66l0 0c0,-30.72 40.42,0 10.11,0.63 -11.41,0.22 -10.11,25.08 -10.11,-0.63zm904.87 -429.82l0 0c1.11,-1.11 3.37,1.78 3.37,3.38 -0.23,-0.23 -4.49,-2.27 -3.37,-3.38zm56.5 -1730.55l0 0 282.79 11.3c0,165.41 -14.16,341.37 -40.13,503.63 -22.12,137.76 -43.69,316.24 -84.22,446.56 -67.4,216.53 -122.61,448 -214.5,656.42 -82.52,187.16 -220.61,503.18 -288.38,605.48l-37.65 70.03c-22.41,53.4 -56.61,88 -84.26,135.76l-496.32 691.37c-1.59,1.67 -3.96,4.08 -5.56,5.74l-328.28 350.34c-12.6,12.3 -10.79,10.82 -22.46,22.75 -1.63,1.67 -3.96,4.15 -5.59,5.78l-217.35 212.42c-1.6,1.74 -3.52,4.52 -5.12,6.23 -24.9,26.97 -15.08,27.75 -59.06,31.42 -4.63,55.65 -55.06,63.03 -91.85,100.37 -1.67,1.67 -3.97,4.12 -5.56,5.79l-385.5 315.76c-34.49,29.01 -31.53,-0.11 -37.35,53.13 -40.79,3.37 -49.65,16.82 -74.4,38.72 -40.98,36.2 -63.69,72.92 -129.24,74.37 -5.78,52.76 -6.67,27.23 -46.24,55.54l-396.36 270.97c-24.27,19.23 -19.04,18.52 -45.46,33.75l-692.48 393.35c-38.57,14.64 -24.38,9.75 -53.32,25.83l-417.88 204.24c-69.21,27.08 -43.68,29.6 -97.71,60.65 -22.64,13.04 -30.46,13.78 -50.43,28.72 -65.32,48.79 -143.09,57.13 -214.68,90.7l-127.17 52.1c-0.33,0.11 -15.93,4.04 -28.04,7.52l-233.84 82.92c-19.9,8.79 -17.98,10.27 -45.84,22.05 -26.71,11.34 -30.94,10.97 -58.25,20.97l-451.19 182.23c-2.81,0.96 -5.82,1.85 -8.63,2.78 -2.89,1 -6,1.66 -8.82,2.63l-900.72 264.04c-17.52,4.52 -40.35,7 -65.62,13.56 -28.68,7.44 -36.12,14.04 -58.1,21.01 -38.68,12.3 -92.41,18.97 -128.9,29.45 -148.81,42.69 -349.97,73.26 -477.87,121.76l-107.68 27.6c-81.88,19.05 -167.92,36.98 -251.51,54.47 -104.19,21.86 -265.71,63.99 -366.68,72.96l-1498.04 153.77c-51.36,2.77 -107.64,-3.01 -157.88,1.14 -49.69,4.12 -83.93,8.93 -148.29,11.08 -103.93,3.49 -181.04,-6.37 -281.67,10.75 -107.42,18.27 -241.37,-3.08 -328.22,6.45 -102.56,11.26 -68.14,-26.16 -68.14,-300.32 0,-43.9 19.97,-22.3 73.4,-27.68l353.82 -11.63c267.56,2.78 630.12,-14.71 901.09,-46.69l364.6 -40.9c42.61,-3.6 139.32,-19.2 200.97,-24.72 125.61,-11.26 737.69,-108.49 866.26,-142.17 48.72,-12.74 50.69,-15.3 111.05,-24.64l2024.67 -565.46c11.41,-4.19 35.39,-12.41 50.8,-17.12l729.61 -277.01c21.3,-11.41 18.27,-12.48 44.2,-23.67l65.88 -24.57c2.56,-1.04 5.6,-2.15 8.15,-3.19l238.07 -112.6c113.16,-42.5 216.76,-107.9 327.88,-158.44 101.93,-46.31 250.92,-142.84 346.89,-184.74 125.27,-54.69 245.14,-131.95 357.85,-207.68l804.68 -563.95c4.67,-3.92 12,-10.41 18.12,-15.82l52.98 -48.76c11.86,-10.56 22.94,-20.38 36.46,-31.38 57.36,-46.5 94.56,-72.48 146.36,-125.13 26.46,-26.94 42.46,-35.87 66.55,-57.88l140.87 -130.61c22.46,-18.34 15.53,-12.37 33.83,-34.05 15.05,-17.86 16.38,-21.53 30.57,-37.24l81.89 -76.51c15.52,-16.64 6.56,-7.34 15.89,-18.05l162.11 -177.18c45.91,-48.84 90.74,-86.63 135.54,-135.95l184.82 -199.71c1.44,-1.82 3.63,-4.41 5.15,-6.19l32.57 -35.28c12.67,-14.26 17.23,-20.52 32.05,-35.83l151.43 -187.89c1.41,-1.89 3.45,-4.52 4.93,-6.37l163.07 -221.5c1.44,-1.86 3.63,-4.38 5.04,-6.27 1.41,-1.89 3.52,-4.48 4.93,-6.41l17.82 -27.42c18.23,-28.6 29.05,-49.24 47.57,-76.81 7.42,-11.04 20.42,-26.82 28.72,-39.16l219.43 -391.32c45.87,-76.92 76.29,-167.1 115.27,-246.73 54.8,-112.05 88.3,-227.1 130.24,-344.81l57.47 -180.01c45.76,-140.39 68.77,-286.9 100.82,-429.62 22.86,-101.94 44.5,-392.58 48.32,-500.55 0.85,-25.23 -1.04,-19.97 -0.71,-37.68 0.41,-24.12 6.34,-20.31 5.67,-43.06zm-10598.1 6345.4l0 0 11.38 328.03c-90.71,0 -193.38,9.23 -247.63,8.3 -78.11,-1.33 -121.35,-5.22 -187.67,-1.37 -62.62,3.63 -125.28,-4.89 -185.6,-0.48l-335.99 -9.15c-78.7,5.52 -29.79,-15.01 -107.27,-17.23 -2.37,-0.08 -5.6,0.11 -8,0.03 -2.52,-0.03 -5.64,-0.03 -8.3,-0.14 -6.52,-0.23 -19.57,-1.34 -28.2,-1.67 -245.29,-9.82 -493.95,-59.25 -757.43,-80.33l-798.16 -109.97c-95.45,-7.01 -246.33,-39.06 -340.62,-63.25l-1102.7 -265.97c-22.08,-7.45 -26.45,-9.37 -48.87,-18.97l-156.06 -47.46c-45.39,-17.46 -53.25,-24.42 -107.72,-39.39l-261.03 -89.59c-2.71,-0.89 -5.6,-2.04 -8.3,-2.97l-82.59 -30.57c-16.86,-6.78 -41.95,-14.19 -58.88,-20.23 -33.76,-12 -65.81,-23.49 -98.97,-36.79l-32.05 -13.19c-2.59,-1 -5.52,-2.26 -8.08,-3.26 -68.84,-27.24 -140.24,-40.35 -208.2,-74.52l-401.24 -153.02c-25.35,-9.53 -34.16,-12.23 -58.1,-21.05 -40.28,-14.9 -64.47,-25.16 -97.19,-38.57 -30.68,-12.6 -67.47,-23.12 -100.41,-35.31l-579.88 -257.15c-35.05,-17.78 -52.69,-26.94 -92.82,-42.91 -124.24,-49.39 -428.81,-221.05 -542.56,-294.38 -2.04,-1.33 -4.86,-3.15 -6.89,-4.48l-1122.81 -800.01c-33.09,-30.98 -46.95,-27.61 -79.63,-56.14 -27.31,-23.9 -38.98,-40.75 -69.51,-66.17 -19.01,-15.82 -20.12,-17.79 -36.28,-31.57l-114.45 -100.45c-81.3,-82.22 -174.56,-149.21 -250.33,-236.06l-171.26 -168.04c-23.71,-27.05 -13.23,-12 -35.16,-32.68l-136.25 -146.54c-7.37,-8.41 -7.74,-9.27 -15.71,-18.2l-219.68 -244.14c-1.59,-1.7 -3.78,-4.22 -5.37,-5.93 -1.56,-1.74 -3.78,-4.22 -5.3,-5.96 -4.63,-5.23 -9.78,-11.19 -15.79,-18.19l-76.66 -92.97c-92.74,-107.49 -168.29,-224.65 -246.81,-341.37l-137.32 -213.27c-11.85,-19.2 -14.52,-18.94 -27.49,-40.43l-230.21 -459.71c-17.15,-36.24 -27.75,-63.58 -43.68,-103.38 -15.94,-39.61 -24.75,-54.91 -40.76,-94.96l-17.75 -50.14c-34.38,-118.9 -89.52,-243.92 -122.68,-363.71l-82.59 -335.88c-39.57,-241.47 -83.59,-444.19 -90.63,-701.93 -1.34,-49.17 8.44,-162.77 -10.9,-203.2 103.6,0 231.14,-8.59 316.69,11.3 0,71.78 2.89,248.93 19.83,320.25l14.34 98.12c3.26,56.13 4.18,48.06 11.82,88.55 5.74,30.2 6.04,48.73 10.44,103.49l29.72 161.26c21.05,164.14 79.03,319.17 119.64,470.31 16.75,62.1 112.61,326.88 152.37,401.87l21.63 46.24c4.6,10.16 6.97,14.34 11.31,22.61l182.07 349.59c18.86,31.94 32.61,53.58 51.14,84.55 21.08,35.28 25.41,52.25 51.57,84.15l590.88 766.44c1.56,1.78 3.6,4.41 5.15,6.18l43.02 47.43c70.44,74.18 130.43,154.07 206.98,222.87 2.41,2.19 9.41,8.6 11.71,10.94l98 105.52c13.08,12.19 23.68,20.31 35.61,32.27l131.28 128.87c24.64,28.72 7.59,9.53 35.24,32.65l142.72 128.72c25.94,24.57 35.09,36.31 64.44,59.99l110.75 92.89c14.34,13.26 19.97,20.97 33.83,33.98 31.79,29.71 45.8,28.93 80,55.76l316.39 237.84c1.96,1.37 4.71,3.26 6.67,4.63 1.89,1.41 4.56,3.41 6.48,4.82l165.7 117.05c17.42,11.71 18.34,16.04 38.02,29.87l287.31 176.44c23.01,12.82 17.34,11.89 40.79,27.09l164.48 95.63c30.01,19.23 53.73,28.35 87.22,48.5 21.01,12.6 24.53,16.93 40.54,27.31l217.98 110.05c38.16,17.37 55.39,28.27 90.48,45.28 2.34,1.14 5.41,2.4 7.75,3.52l2261.85 837.31c225.39,74 458.9,119.8 686.29,184.67 172.81,49.32 329.58,71.85 507.14,114.94l340.81 66.7c36.28,5.74 11.19,2.3 45.76,10.56l1251.27 177.07 649.8 48.1c66.99,3.41 184.04,17.3 229.5,17.56 28.91,0.19 314.18,-9.89 426.63,16.3zm-10281.37 -8641.52l0 0 3.37 3.37c-0.22,-0.22 -4.52,-2.26 -3.37,-3.37zm113.05 -237.55l0 0c12.04,-12 42.94,17.97 12.63,5.89 -0.3,-0.11 -31.53,13.05 -12.63,-5.89zm1345.98 -588.17l0 0 3.37 3.37c-0.22,-0.22 -4.49,-2.22 -3.37,-3.37zm-361.9 -712.56l0 0 3.37 3.37c-0.22,-0.23 -4.52,-2.26 -3.37,-3.37zm2284.75 -859.67l0 0 3.37 3.38c-0.22,-0.19 -4.48,-2.23 -3.37,-3.38zm-984.01 -203.56l0 0 3.37 3.37c-0.22,-0.22 -4.56,-2.26 -3.37,-3.37zm11.26 836.98l0 0c-57.17,4.78 -72.1,38.87 -109.86,71.07l-582.62 514.55c-7.15,7.93 -15.82,18.49 -21.15,24.12l-218.99 222.1c-1.63,1.66 -3.96,4.11 -5.59,5.78 -1.59,1.66 -3.89,4.07 -5.56,5.74l-198.49 219.98c-16.01,16.97 -22.68,29.9 -38.83,51.65l-83.3 97.71c-75.14,82.11 -132.57,195.57 -197.26,277.79 -23.53,29.9 -51.51,74.29 -70.85,110.08l-53.99 93.08c-1.33,2.03 -3.15,4.81 -4.48,6.85l-70.21 133.32c-39.54,83.89 -90.01,158.44 -125.8,247.51 -19.41,48.5 -39.09,80.78 -62.51,129.8 -10.89,22.86 -6.33,13.3 -13.74,31.45 -48.69,119.09 -123.39,318.62 -155.29,444.19l-45.95 135.02c-13.26,31.2 -4.41,5.75 -12.97,32.31 -4.44,13.9 -5.15,21.42 -9.44,35.76l-152.59 718.34 -292.45 7.19c-53.32,-11.45 -7.56,-196.38 -1.08,-255.44l84.7 -390.32c57.29,-253.59 140.29,-495.17 236.18,-736.61l346.63 -693.99 281.04 -420.18c5.12,-6.45 9.56,-12.42 14.56,-19.42l884.08 -959.52c12.68,-13.45 3,-5.19 16.05,-17.89l442.52 -371.9c1.78,-1.52 4.26,-3.75 6.04,-5.26l1034.7 -695.82c7.82,-4.74 10.74,-6.19 21.45,-12.52 2.15,-1.26 5,-2.89 7.15,-4.15 85.78,-51.62 196.35,-97.71 277.68,-152.14 9,38.64 28.56,60.58 49.13,97.89 43.31,78.41 113.71,162.63 57.43,200.09l-483.32 275.34c-2.15,1.29 -4.89,3.11 -6.96,4.37 -2.15,1.26 -5,2.93 -7.12,4.19 -2.18,1.29 -5.07,2.85 -7.18,4.11l-190.46 126.27c-102.67,78.7 -218.72,141.92 -319.13,223.77l-179.67 137.02c-47.76,31.71 -26.2,-10.6 -32.5,46.72zm15043.22 -1153.71l0 0 924.76 568.28c1.82,1.44 4.34,3.63 6.23,5.11l335.73 252.37c1.85,1.44 4.48,3.52 6.45,4.92l726.05 619.94 559.31 639.6c70.92,104.79 157.25,200.12 223.43,308.21 134.02,218.87 285.93,434.25 395.24,667.98 14.89,31.94 26.53,61.66 44.13,91.6l170.18 361.37c48.43,127.8 108.94,256.15 142.17,389.5 78.56,315.58 136.54,534.23 164.93,875.63l-294.09 0c-15.49,-37.46 -11.04,-121.68 -27.46,-198.71 -0.15,-0.52 -12.56,-42.83 -12.74,-43.8 -29.35,-137.54 -26.83,-187.15 -77.7,-363.48l-115.87 -393.1c-36.12,-116.83 -62.73,-217.16 -111.34,-329.8 -12.41,-28.87 -6.74,-12.27 -19.45,-48.4 -84.6,-239.99 -219.88,-455.11 -340.52,-677.43 -62.43,-114.98 -166.18,-281.2 -253.81,-379.61l-143.14 -184.93c-46.65,-57.87 -93.59,-118.68 -152.02,-164.62l-182.38 -190.94c-11.63,-11.26 -22.12,-21.67 -34.35,-33.46l-214.53 -192.71c-76.92,-65.28 -158.25,-118.23 -229.06,-189.45 -41.43,-41.68 -87.63,-94 -131.13,-128.94l-211.72 -172.93c-1.82,-1.4 -4.48,-3.44 -6.41,-4.85l-313.54 -240.7c-15.9,-10.89 -24.68,-14 -41.91,-25.97l-222.02 -151.21c-18.67,-11.93 -25.82,-14.71 -43.24,-24.68 -83.44,-47.76 -169.63,-112.38 -275.12,-165.92l-426.03 -218.72 88.78 -126.13c26.83,-33.76 18.86,-36.35 42.83,-70.29l49.36 -63.73zm-1300.74 203.6l0 0 -13391.81 -124.42 3.37 3.37c-0.22,-0.22 -4.48,-2.26 -3.37,-3.37l13391.81 124.42zm1560.88 -588.17l0 0 -12848.94 588.17c31.57,-43.05 2.22,-7.78 49.72,-29.45l427.15 -183.64c140.02,-64.17 315.43,-121.79 466.64,-178.11l168.18 -57.99c39.43,-10.52 25.01,-2.78 61.07,-18.15 28.23,-12.12 29.53,-15.6 64.73,-25.75l672.76 -198.13c38.58,-8.59 117.46,-17.89 148.33,-32.68 0,59.03 -27.31,115.76 -48.21,155.37 -1.22,2.22 -2.93,5 -4.15,7.22l-233.25 332.29c-131.61,132.39 -192.08,159.22 -367.19,232.25 -81.89,34.12 -195.82,74.25 -284.31,88.96 -230.61,38.39 -257.73,55.32 -533.3,54.84 -59.58,-0.11 -137.65,6.63 -161.81,5.33 -173.25,-9.44 -250.29,-55.06 -389.61,-132.57l-14.41 -8.15c-19.67,-10.75 15.04,1.89 -22.34,-11.64l12848.94 -588.17zm-1560.88 588.17l0 0c-42.61,0 -47.39,-4.37 -81.63,8.86 -95.15,36.76 -51.47,39.02 -217.35,88.04 -206.42,61.02 -478.35,76.14 -693.04,24.19 -149.73,-36.24 -397.8,-99.3 -525.44,-164.51l-119.02 -73.29c-89.59,-72.44 -15.63,8.45 -164.73,-140.62 -65.85,-65.8 -84.56,-81.37 -130.91,-163.14l-149.03 -348.67 508.96 113.12c21.97,6.78 45.21,10.9 71.96,18.49l781.11 282.16c28.49,12.08 43.72,16.71 65.88,24.57l189.41 82.03c20.12,9.38 29.94,16.71 51.06,28.16l239.36 122.57c29.35,15.75 28.87,19.08 56.54,33.94 48.17,25.87 87.19,23.53 116.87,64.1zm1368.62 -837.02l0 0c12.04,-12 42.87,17.97 12.56,5.89 -0.22,-0.11 -31.53,13.08 -12.56,-5.89zm701.22 9591.67l0 0 -559.31 368.19c-2.11,1.23 -4.97,2.89 -7.15,4.15l-334.4 197.16c-82.22,49.73 -175.89,76.66 -254.63,129.95 -18.97,12.78 -28.6,24.45 -52.8,37.68 -20.23,11 -39.09,17.78 -61.14,29.38l-971.48 442.3c-22.09,8.34 -6.64,2.78 -33.83,11.45l-782.19 247.14c-69.32,24.72 -134.02,57.99 -208.68,74.03l-585.06 161.44c-107.35,26.57 -191.68,61.84 -299.54,73.77l-293.6 68.33c-23.05,4.74 -49.66,6.82 -77.04,13.49l-501.73 92.48c-40.05,4.34 -102.19,19.19 -147.8,27.05l-1184.88 133.24c-132.13,16.3 -312.8,16.08 -487.8,15.08 -76.14,-0.44 -102.63,11.12 -169.07,11.93 -63.73,0.78 -128.76,-0.44 -192.75,-0.48l-1586.97 -16.75c-122.75,4.26 -293.27,-22.34 -425.88,-27.9l-1203.66 -153.84c-51.1,-11.38 -113.57,-12.19 -157.14,-24.6l-310.25 -62.99c-55.06,-8.78 -102.19,-21.98 -161.29,-31.05 -111.49,-17.16 -752.54,-186.19 -884,-224.43 -53.17,-15.49 -91.9,-29.79 -135.8,-45.17 -28.68,-10.04 -40.43,-9.49 -72,-18.49l-429.33 -136.24c-29.79,-11.82 -42.35,-18.08 -66.03,-24.46l-275.37 -97.85c-49.76,-19.49 -97.49,-34.31 -141.73,-50.54 -51.72,-19.01 -78.18,-31.68 -129.05,-51.95l-266.6 -106.64c-27.16,-11.34 -36.83,-16.82 -63.4,-27.08l-451.37 -193.38c-46.24,-21.64 -87.93,-37.32 -130.87,-61.36l-1275.51 -771.74c-1.89,-1.48 -4.48,-3.52 -6.41,-4.93l-547.9 -424.84c-1.81,-1.45 -4.48,-3.52 -6.3,-5.01l-187.11 -174.85c-5.78,-5.37 -17.46,-15.86 -23.9,-21.3 -148.66,-125.69 -289.35,-270.86 -420.85,-416.18 -2.22,-2.45 -8.74,-9.23 -11,-11.63 -1.56,-1.71 -3.86,-4.12 -5.45,-5.82l-355.04 -402.84c-9.93,-14.52 -7.97,-13.56 -18.16,-27.09l-121.16 -161.58c-25.71,-34.02 -52.13,-75.66 -72.03,-108.94 -24.42,-40.87 -45.39,-69.84 -70.77,-110.23 -97.3,-154.99 -175.82,-332.59 -245.03,-501.44 -70.99,-173.14 -133.91,-392.31 -167.85,-578.69l-82.22 -970.07 60.51 -537.31 207.68 -698.11c47.2,-116.46 116.31,-281.34 183.37,-382.12 1.34,-2 3.34,-4.67 4.67,-6.71 61.95,-94.93 99.97,-197.71 157.59,-294.76l306.13 -463.01c84.4,-95.26 140.28,-210.12 230.76,-300.87 32.76,-32.86 52.32,-64.21 80.18,-100.78 14.53,-19.01 24.2,-30.16 40.8,-49.76 20.42,-24.2 26.86,-31.53 48.54,-53.25l664.43 -636.3c40.91,-35.46 61.06,-57.32 105.41,-86.82 72.26,-48.02 134.54,-119.83 205.02,-168.25l76.85 -58.88c14.78,-9.34 13.96,-6.93 29.34,-15.9l83.85 -63.21c2.04,-1.33 4.93,-3 6.93,-4.37 90.52,-61.1 257.07,-189.42 348.22,-239.92l81.07 -54.65c20.94,-13.82 15.57,-8.67 35.69,-20.9 26.82,-16.23 25.12,-18.56 55.17,-35.31 102.34,-57.1 196.93,-113.86 306.46,-157.29 243.99,-96.71 193.9,-124.02 435.15,-104.75 80.44,6.45 196.56,1.15 306.24,21.79 106.79,20.08 200.83,18.45 302.87,35.68 24.23,4.08 42.13,14.9 72.07,18.45l392.61 48.51c174.07,17.74 360.82,35.97 535.34,16.45 81.44,-9.12 197.86,-10.93 282.12,-28.5l291.31 -59.28c72.51,-10.71 205.05,-62.25 276.93,-96.34l207.72 -131.61 148.84 -145.21c85.44,-113.38 199.49,-288.83 224.72,-431.29 6.82,-38.8 4.52,-46.54 13.01,-77.52 11.19,-41.02 12.86,-33.09 12.97,-88.81 0.33,-288.98 -6,-208.2 281.64,-272.6l740.42 -131.69c106.01,-23.93 186.9,-23.75 301.87,-47.54 155.99,-32.34 1026.48,-108.56 1231.53,-114.45l2082.81 53.87c137.39,-0.48 315.28,32.98 459.38,51.4l140.09 18.08c37.39,4.59 44.02,7.59 78.48,12.97 173.41,27.04 351.26,42.49 525.82,84.11 38.98,9.3 32.01,12.04 73.66,16.85 41.09,4.78 54.76,5.19 90.22,11.53 55.32,9.89 283.23,45.2 305.06,68.25 11.74,28.38 4.74,6.78 6.59,38.5 11.9,200.19 86.89,373.82 169.34,554.68 58.8,129.01 198.52,294.42 311.94,378.01l128.98 97.23c240.25,159.55 241.4,113.75 365.71,166.07l105.83 30.97c104.67,17.57 134.46,22.49 215.16,18.83 36.72,-1.67 158.59,5.15 257.26,5.15l579.84 -5.08c17.16,-0.63 18.64,1.74 43.05,0.3l847.48 -74.41c303.05,0.63 339.03,-7.55 635.01,122.87 28.9,12.75 24.67,12.34 53.69,25.46 19.56,8.81 30.9,13.48 54.13,25.08 104.79,52.5 200.57,92.45 299.91,152.47l203.19 124.83c1.97,1.41 4.67,3.34 6.67,4.71 8.3,5.85 20.2,13.78 26.9,18.3l197.01 142.29c125.43,106.67 212.46,164.99 313.17,275.04l245.22 263.78c1.48,1.81 3.56,4.41 5.11,6.19l91.45 78.18c36.53,27.19 45.09,43.02 78.88,68.17l310.84 277.31c2.26,2.37 8.48,9.52 10.71,11.93l454.15 529.89c1.41,1.85 3.64,4.41 5.08,6.23l39.57 50.91c79.04,124.01 168.07,244.66 234.21,376.56l86.45 151.1c1.07,2.52 2.11,5.6 3.22,8.08 1.08,2.45 2.37,5.45 3.48,7.86l87.19 172.96c1,2.56 2.19,5.52 3.15,8.11 6.11,15.94 14.12,41.36 21.34,57.84 12.49,28.46 12.3,20.49 23.2,44.73 9.44,21.08 12.41,35.86 21.52,57.65 15.94,38.42 32.98,75.07 48.28,110.05 53.95,123.01 109.09,272.85 132.13,409.06l108.38 684.74c14.05,168.1 34.43,370.38 17.12,543.52l-49.83 586.73 -137.03 481.84c-10.56,20.01 -11.37,16.89 -21.49,46.35l-162.14 380.76c-33.75,68.88 -63.8,135.2 -100.08,205.31l-361.23 554.93c-13.71,17.27 -4.07,3.12 -14.78,19.2l-87.19 116.34c-14.15,14.45 -4.74,2.75 -18.04,15.94l-48.95 64.13c-14.41,13.9 -4.63,2.01 -18.6,15.31 -5.37,5.04 -16.63,18.26 -21.27,24.01l-216.87 235.58c-1.51,1.78 -3.4,4.56 -4.96,6.34l-279.42 252.18c-148.28,131.5 -294.45,264.7 -455.82,381.16l-266.56 197.23c-1.33,0.96 -4.48,3.04 -6.52,4.78zm-13923.44 -9738.69l0 0 3.41 3.37c-0.22,-0.22 -4.48,-2.26 -3.41,-3.37zm-248.81 904.86l0 0c-28.42,-42.42 -71.03,-75.07 -101.3,-124.9l-79.7 -146.55 1539.8 -711.08c22.42,-8.82 0.63,-0.7 24.46,-9.48 40.68,-14.93 56.02,-22.31 88.55,-35.83l173.45 -64.07c70.1,-23.19 123.01,-41.53 186.97,-61.95 27.16,-8.67 57.5,-15.49 87.55,-25.49 148.73,-49.5 383.98,-88.19 540.23,-127.13l164.11 -28.2c14.41,30.09 21.23,52.73 39.83,84.52 4.59,7.78 10.45,16.38 13.15,20.79l25.27 42.65c10.82,16.97 2.56,3.03 13.94,20 21.75,32.57 85.81,147.33 88.74,182.67 -26.42,2.19 -30.79,3.89 -47.88,8.71 -36.64,10.38 -24.12,10.04 -40.72,15.79 -30.53,10.52 -65.8,11.56 -94.18,18.97l-636.42 189.23c-69.89,15.78 -12.53,-13.68 -96.34,28.08l-883.78 303.87c-33.13,10.3 -60.4,10.38 -89.01,24.05l-167.62 69.95c-30.68,10.86 -54.06,22.05 -87.59,36.83l-438.56 194.87c-72.59,31.12 -144.21,75.36 -222.95,93.7zm10270.07 -1334.68l0 0c69.44,0 46.1,2.78 96.34,16.79 33.39,9.3 69.47,12.97 104.49,19.9 59.91,11.85 127.24,27.79 191.12,46.42 66.06,19.27 122.46,29.46 191.12,46.39 73.18,18.01 126.49,45.06 189.08,59.77l496.5 159.55c96.19,39.79 293.02,104.38 393.54,160.7l280.08 138.39c2.38,1.11 5.38,2.44 7.67,3.59l44.13 23.79c10.34,4.45 13.23,4.26 24.94,8.97l385.94 168.33c87.3,32.46 327.55,137.76 392.69,179.67 30.68,19.75 14.04,-12.9 7.41,8.33 14.23,36.28 10.34,2.52 -7,27.2 -10.45,14.78 -0.49,-1.96 -15.42,17.04l-106.23 132.47c-1.63,1.67 -4.33,3.7 -6,5.33 -65.62,66.07 -13.9,154.88 -284.2,-0.7l-180 -91.41c-31.35,-18.12 -48.06,-30.35 -87.96,-47.83 -26.01,-11.38 -23.09,-8.49 -45.87,-21.98 -144.25,-85.22 -757.55,-346.37 -898.35,-391.05l-926.5 -295.16 -428.45 -91.71c15.38,-23.05 27.28,-46.32 43.54,-69.58l70.59 -99.08c9.78,-15.57 10.74,-20.49 20.6,-35.95 18.3,-28.75 36.09,-40.35 46.2,-78.18zm-10598.1 689.96l0 0c-8.19,-30.79 -18.19,-41.57 -43.72,-58.06 -35.2,-22.64 -24.12,-5.19 -61.36,-40.46 -170.7,-161.44 -235.28,-428.33 -162.14,-643.79 21.19,-62.62 16.86,-108.83 30.34,-173.22 29.72,-141.47 91.19,-268.56 101.2,-306.06 62.21,0 183.44,34.57 242.28,63.1 131.06,63.66 247.55,135.58 361.16,227.02l17.82 16.08c18.82,16.97 33.76,27.87 52.69,49.06l103.71 111.23c112.68,110.87 114.05,159.33 161.11,257.41l-320.7 222.21c-2.22,1.22 -5.07,2.89 -7.22,4.11 -2.19,1.22 -5.08,2.81 -7.3,4l-360.64 204.9c-46.79,17.12 -71.88,38.83 -107.23,62.47zm12803.71 -531.59l0 0c11.82,-50.62 13.23,-43.35 38.9,-85.52 54.8,-90.11 45.28,-84.11 122.28,-160.51 98.11,-97.38 205.86,-219.1 326.62,-284.16 21.9,-11.82 42.91,-25.16 64.77,-37.05 22.93,-12.57 43.09,-22.01 67.54,-34.2 74.81,-37.46 233.92,-99.86 318.69,-99.86 11.08,47.72 39.98,88.15 52.84,128.09l94.19 482.69c0,73.44 3.63,161.99 -24.2,225.69 -37.49,85.81 -49.65,151.65 -143.32,240.25l-17.78 16.08c-1.74,1.59 -4.19,3.92 -5.86,5.48 -35.08,31.79 -54.65,39.8 -80.33,78.07l-82.59 -41.79c-106.78,-60.29 -387.38,-157.18 -477.94,-200.72 -44.39,-21.34 -232.47,-200.68 -253.81,-232.54zm-5824.96 -588.18l0 0c164.33,0 459.08,-1.56 613.96,16.12 34.28,3.93 119.76,0.63 187.42,8.15l618.85 63.1c8.52,0.37 37.69,3.3 47.73,4.71 31.68,4.48 58.43,8.85 101.34,13.3 38.01,3.93 51.68,0.48 85.25,4.48l917.51 112.57c49.39,11.86 39.42,9.74 78.33,12.6 77.21,5.67 115.23,26.04 182.37,42.64l345.52 84.26c-3.3,39.57 -9.56,45.84 -29.5,72.37 -32.75,43.57 -106.93,147.99 -117.6,187.78l-1995.44 -277.97 -1035.74 -38.72 0 -305.39zm-9953.46 180.97l0 0 3.38 3.37c-0.23,-0.22 -4.49,-2.26 -3.38,-3.37zm-79.14 0l0 0 3.37 3.37c-0.22,-0.22 -4.48,-2.26 -3.37,-3.37zm16061.16 -180.97l0 0 3.37 3.37c-0.22,-0.22 -4.48,-2.26 -3.37,-3.37zm-6447.11 33.94l0 0c0,77.55 8.93,155.25 0.67,239.14 -5.56,56.54 9.22,32.31 -136.36,32.31l-910.09 62.73c-84.03,13.71 -104.71,8.63 -181.59,21.38 -76.15,12.63 -128.13,11.82 -186.08,17.3l-276.34 37.83c-25.79,3.41 -37.83,3.6 -84.59,8.38l-294.91 45.17c-53.02,6.78 -38.53,13.89 -90.15,23.41 -37.68,6.93 -39.68,0.63 -71.77,4.49 -93,11.15 -141.13,32.42 -259.92,47.09 -176,21.75 -167.48,37.09 -260.37,57.95 -47.84,10.78 -46.62,2.93 -81.56,9.38l-175.55 49.46 -69.85 -122.42c-10.96,-19.34 -12.41,-19.79 -25.67,-42.24 -67.7,-114.87 -25.35,-14.42 -96.75,-163.37 82.74,0 79.03,-18.71 158.29,-22.67l699.63 -103.42c51.1,-7.56 28.12,-13.15 149.66,-26.16 14.67,-1.59 63.84,-12.04 81.11,-14.37l1082.9 -150.14c90.89,-1.08 152.81,-18.97 260.45,-23.23l102.41 -2.78c218.65,-25.98 398.46,-19.16 587.29,-19.16 133.09,0 79.14,-28.05 79.14,33.94zm6684.66 -237.54l0 0 3.37 3.37c-0.22,-0.22 -4.52,-2.26 -3.37,-3.37zm746.46 1459.1l0 0c113.68,-9.45 77.04,-9.82 133.62,-115.2l39.46 -73.66c76.55,-183.37 110.19,-279.53 133.5,-512.18 15.97,-160.03 -10.6,-444.71 -56.65,-623.41 -18.49,-71.85 -42.39,-136.91 -57.66,-202.53l285.42 -42.47c151.54,-21.01 416.14,-10.04 625.41,12.75 226.25,24.6 196.12,27.57 397.36,90.15 101.52,31.57 176.55,72.81 266.22,118.34 54.8,27.83 59.06,9.97 169.81,79.08 108.57,67.73 196.87,131.79 274.12,234.8 88.93,118.57 124.05,201.16 170.41,338.62 25.6,75.85 31.94,128.13 41.38,218.73 16.75,160.03 14.49,531.7 -89.55,649.46l-109.94 138.91c-19.56,21.3 -12.37,10.78 -28.75,27.79l-163.29 153.43c-28.46,24.39 -7.63,11.23 -37.05,30.8l-159.92 101.41c-157.33,70.47 -207.94,132.57 -368.87,173.67 -53.54,13.63 -153.47,17.85 -224.5,-3.04 -68.32,-20.12 -131.5,-46.13 -185.34,-86.11 -1.96,-1.41 -4.66,-3.34 -6.55,-4.78l-51.47 -39.06c-10.08,-6.19 -12.78,-6.82 -21.64,-12.3l-820.46 -548.12c-10.75,-7.15 -22.71,-15.27 -33.61,-22.97l-121.46 -82.11zm-14409.79 56.58l0 0c-46.54,0 -123.87,46.98 -166.44,71.06l-27.83 17.42c-15.3,8.85 -12.93,6.63 -22.3,11.67l-923.95 602.96c-102.82,74.48 -197.75,73.29 -310.47,46.58 -115.23,-27.31 -160.59,-74.26 -279.34,-127.8l-244.18 -151.69c-64.77,-44.61 -231.58,-195.86 -274.34,-257.3 -79.59,-114.27 -87.74,-70.84 -139.31,-267.89 -59.47,-227.17 -32.72,-510.85 31.19,-729.79 15.2,-52.13 47.99,-115.09 72.11,-154.1 48.57,-78.56 26.79,-78.11 87.74,-138.54 137.91,-136.88 108.23,-145.36 306.94,-258.52l87.04 -37.46c135.39,-55.65 175.48,-103.3 386.2,-167.96 31.02,-9.49 57.43,-14.01 89.6,-23.53 240.02,-71.03 864.7,-76.59 1069.71,-22.05 41.65,11.08 62.06,14.71 110.57,14.71 -58.55,87.41 -95.08,307.06 -114.13,405.36 -13.37,68.73 -34.27,361.6 -21.08,441.97 5.78,34.94 2.85,23.49 5.11,46.87 18.2,185.48 48.06,289.94 123.54,458.38l16.52 40.02c4.08,8.67 8.56,15.56 16.01,29.23 16.56,30.27 32.35,72.22 50.36,97.45 58.32,81.37 27.27,-29.27 70.73,52.95zm2047.24 -2194.34l0 0 58.06 -1.89c143.88,7.85 398.88,18.45 516.11,38.57 252.55,43.31 179.3,18.41 451.41,90.26 85.3,22.49 191.01,36.35 312.69,84.33 20.38,8.04 36.54,15.9 55.06,24.12l74.41 38.72c127.61,77.26 204.38,134.17 302.31,240.62 35.27,38.39 94.82,98.23 107.53,152.62 -27.31,11.27 1.11,-0.77 -18.86,4.64 -25.42,6.85 -3.71,1.44 -26.31,7.81l-227.32 31.76c-256.37,22.64 -200.05,89.56 -425.4,-2.37l-123.24 -35.24c-145.1,-30.2 -525.74,-41.17 -631.53,-0.15l-154.66 37.57c-104.86,28.13 -139.35,54.66 -226.65,90.12l-202.2 114.45c-1.85,1.45 -4.44,3.6 -6.29,5 -1.93,1.45 -4.53,3.49 -6.49,4.9 -1.89,1.4 -4.67,3.29 -6.59,4.66 -10.9,7.64 -9.34,5.82 -20.49,13.45l-301.65 275.23c-25.05,30.46 -75.55,83.52 -110.72,92.89l-55.57 -102.74c-60.51,-95.93 -51.51,-116.39 -143.47,-207.17 -9.97,-9.78 -7.01,-5.89 -17.86,-16.11 -55.58,-52.4 -8.82,-30.13 -112.72,-113.46l-176.48 -151.55c-51.76,-51.94 -195.34,-139.65 -262.52,-178.59 -23.71,-13.75 -46.31,-29.35 -70.1,-42.98 -2.23,-1.22 -5.15,-2.78 -7.3,-4.04 -2.11,-1.26 -5,-2.93 -7.08,-4.19 -62.84,-37.42 -1.48,-22.38 -63.06,-27.49 63.95,-95.41 276.67,-206.98 393.02,-251.74 17.34,-6.67 33.75,-11.34 49.76,-18.08l447.45 -129.35c216.61,-31.87 163.1,-44.65 445.19,-58.06l191.56 -6.52zm10948.69 1289.43l0 0 -702.96 -484.65c-10.41,-7.18 -12.45,-7.96 -20.71,-13.15l-41.21 -26.68c-83.14,-49.43 -503.32,-79.11 -637.53,-86.33 -124.79,-6.74 -538.67,14.26 -658.06,43.46 -39.83,9.75 -179.74,42.32 -236.87,26.53 -102.49,-28.31 -102.01,-20.3 -173.89,-33.83 -40.65,-7.67 -17.34,-9.74 -62.33,-13.48 12.08,-45.28 99.45,-159.92 132.76,-195.24l142.95 -139.83c179.71,-167.22 523.08,-260.11 751.81,-300.09 35.49,-6.23 32.45,-10.3 61.39,-18.53 41.17,-11.75 34.2,-3.45 60.84,-9.6 302.39,-69.73 895.01,-85.33 1196.4,-42.94 81.96,11.56 153.99,14.78 231.02,29.2 125.87,23.6 255.93,56.72 381.39,104.97 9.48,3.67 13.67,5.07 24.9,9.08l260.44 124.08c81.41,52.77 161.85,79.19 228.47,178.71 -23.68,12.52 -46.57,21.57 -69.4,32.42l-464.16 327.55 -196.08 188.52c-118.35,124.91 -160.55,253.74 -209.17,299.83zm-2296.01 -1289.43l0 0 3.37 3.37c-0.22,-0.22 -4.52,-2.26 -3.37,-3.37zm3189.58 -475.06l0 0c1.11,-1.11 3.37,1.78 3.37,3.38l-3.37 -3.38zm11.34 -67.88l0 0 3.37 3.37c-0.22,-0.22 -4.48,-2.22 -3.37,-3.37zm-3687.31 -79.18l0 0c2.89,-23.23 59.76,2.82 10.63,1.08 -4.37,-0.15 -13.74,24.3 -10.63,-1.08zm124.46 -90.48l0 0c12,-12.01 42.83,17.97 12.6,5.89 -0.26,-0.11 -31.57,13.08 -12.6,-5.89zm-1775.76 -395.87l0 0c88.04,7.33 787.82,158.95 882.6,191.89 39.8,13.82 81.59,24.46 124.02,34.31l-30.76 93.56c-51.72,110.42 -23.53,72.48 -87.55,172.74 -133.02,208.42 -221.76,252.29 -434.74,379.61l-511.33 246.51c-32.87,5.74 -118.83,1.15 -157.14,1.15 -47.5,0 -99.08,2 -146.03,-1.19 -82.48,-5.56 -336.1,-62.8 -424.1,-96.04 -115.57,-43.61 -141.47,16.79 -121.87,-83.77 11.41,-58.59 94.63,-129.32 144.36,-163l246.73 -205.68c11.64,-9.26 34.9,-26.05 46.72,-32.5l225.29 -159.25c32.23,-26.71 114.71,-129.76 137.5,-167.92l106.3 -210.42zm-3687.31 237.54l0 0c36.65,-3.07 78.48,-19.08 116.94,-30.12l507.92 -125.46c66.66,-13.08 354.23,-63.33 393.1,-81.96 5.63,67.65 133.65,242.54 186.37,299.98l10.82 11.82c9.52,10.67 6.15,7.74 15.71,18.23l650.2 514.77c34.65,36.79 21.01,37.05 34.65,89.78l29.75 94.71c-119.64,9.96 -303.35,73.17 -455.67,98.63 -72.59,12.12 -95.19,13.08 -178.19,14.12 -105.71,1.29 -219.58,22.45 -320.21,-29.65l-249.7 -123.53c-41.91,-18.93 -86,-40.61 -120.42,-60.58l-235.18 -138.06c-41.12,-28.34 -74.55,-45.65 -112.04,-80.22 -124.46,-114.53 -184.6,-245.55 -246.52,-398.2 -10.22,-25.13 -5.26,-9.16 -14.04,-31.2 -3.96,-9.75 -12.41,-40.69 -13.49,-43.06zm-4569.57 -101.82l0 0c0,-245.44 98.75,-472.79 285.94,-630.23l120.42 -83.22c68.58,-39.57 146.65,-63.32 223.87,-92.86 168.63,-64.47 363.05,-58.39 538.34,-34.23 51.32,7.07 44.95,6.63 84,17.78 30.98,8.82 53.39,8.04 86.93,14.9 56.61,11.56 111.9,34.42 156.88,46.68 40.16,10.97 48.94,12.53 78.62,23.16 25.76,9.19 23.24,8.56 40.98,15.64 2.52,1 5.45,2.22 8.05,3.26 152.95,61.1 490.02,245.7 635.01,349.04 25.41,18.12 35.57,23.6 61.87,39.9 23.83,14.79 36.65,23.83 60.73,41.09 102.45,73.63 222.62,133.43 323.4,208.2 39.42,29.28 75.96,57.21 118.01,85.56l331.22 245.66c1.85,1.44 4.52,3.44 6.37,4.89l560.61 400.84c1.93,1.4 4.52,3.44 6.45,4.85 1.89,1.41 4.52,3.45 6.48,4.82 100.38,71.29 436.82,267.48 542.34,294.72 46.54,12 35.83,11.11 75.26,26.49l158.51 56.39c152.03,53.77 305.43,100.64 451.38,170.74 43.2,20.75 112.38,52.17 153.62,61.25 105.52,23.23 64.51,15.64 129.98,73.62 49.87,44.13 72.55,33.94 116.01,98.86l-409.36 64.92c-156.21,25.86 -295.79,-6.15 -454.49,34.86 -61.39,15.9 -50.32,13.05 -112.38,-16.52l-796.37 -504.92c-30.13,-14.86 -31.87,-10.04 -61.48,-28.98 -14.56,-9.33 -7.41,-6.11 -26.97,-18.26l-156.96 -80.63c-89.22,-37.35 -166.99,-70.62 -260.81,-101.12l-723.16 -182.63c-124.53,-29.27 -456.49,-74.1 -574.95,-78.48 -148.99,-5.56 -387.27,-27.93 -510.96,-9.19 -57.06,8.64 -117.27,3.78 -176.74,4.3 -80.7,0.67 -95.45,23.09 -169.11,23.09 -163.58,0 -330.88,1.22 -476.53,-43.8 -142.95,-44.13 -193.16,-52.58 -299.24,-187.12 -13.9,-17.63 -24.34,-29.08 -35.09,-44.09 -47.06,-65.62 -116.68,-203.94 -116.68,-279.23zm13007.31 531.63l0 0c-113.57,0 -174.52,-23.64 -294.12,-22.64l-151.36 -5.92c-80.71,-14.05 -158.59,-25.79 -242.18,-3.97 -99.08,25.83 -251.48,7.93 -365.71,14.75 -104.01,6.22 -227.58,34.05 -330,46.5l-432.36 78.37c-77.48,25.9 -245.55,57.5 -302.1,81.55 -21.23,9 -24.82,13.71 -47.87,20.9 -22.45,6.96 -46.8,10.19 -64.1,15.08l-141.24 50.91c-2.89,1.26 -11.56,5.74 -14.71,7.15l-249.04 113.79c-80.85,49.32 -196.64,98.52 -267.07,151.43 -67.36,50.65 -137.1,95.6 -196.9,153.7 -74.63,72.44 -342.18,227.98 -426.26,252.4 -56.54,16.38 -70.21,5.71 -71.77,75.29 -26.97,-12.97 -93.07,-15.41 -119.68,-17.82l-636.68 -63.17c-38.24,-3.49 -67.91,-1.49 -94.7,-7.41l-110.31 -36.02c28.01,-41.87 69.7,-59.8 109.79,-93.78 130.68,-110.71 38.31,-53.54 201.9,-114.79l306.61 -123.2c26.75,-8.56 1.04,0.37 32.38,-12.93l388.32 -143.25c195.64,-75.59 355.63,-160.07 532.26,-270.78 31.2,-19.53 29.09,-14.08 61.77,-40.02l351.41 -236.73c1.81,-1.48 4.37,-3.67 6.22,-5.15l155.33 -116.08c2.03,-1.34 4.92,-3.01 6.93,-4.38l303.2 -239.69c111.19,-65.7 214.13,-150.44 323.47,-219.46l26.38 -18.86c43.91,-34.8 78.89,-54.58 131.32,-83.6l192.49 -124.2c160.21,-106.15 337.36,-192.45 504.32,-287.41l190.86 -80.67c30.53,-8.45 50.61,-11.3 81.37,-20.41l449 -83.41c163.04,-4.26 265.56,2.74 436.23,60.73 261.37,88.81 456.15,271.71 541.15,533.34 66.7,205.12 46.84,323.84 -56.02,509.1 -20.08,36.24 -5.67,16.34 -30.94,48.24 -64.99,82.19 -140.17,162.44 -244.07,197.98 -140.87,48.2 -284.67,64.54 -443.52,64.54zm-6073.84 -769.14l0 0c50.69,0 -5.41,-4.7 36.09,-5.89l641.79 29.24c46.46,3.63 63.95,9.89 125.42,10.37 62.14,0.52 67.48,11.52 124.2,11.52 -4.29,51.95 -55.61,107.2 -87.48,138.73l-113.05 113.2c-26.3,24.67 -33.71,30.56 -60.87,52.17 -69.85,55.43 -71.18,34.94 -128.06,98.22l-58.58 54.47c-1.74,1.59 -4.15,3.93 -5.78,5.52 -13.26,12.67 -14.49,14.34 -28.23,28.38 -1.6,1.67 -3.86,4.12 -5.56,5.78 -1.59,1.63 -3.93,4.04 -5.6,5.67l-212.46 206.02c-1.63,1.63 -4,4.07 -5.63,5.74 -11.15,11.45 -13.56,15.56 -27.45,29.05l-17.75 16.19c-57.55,56.47 -114.57,116.53 -193.6,123.09 -9.42,-25.94 -0.67,-9.26 -18.49,-26.71 -21.09,-20.57 -63.07,-33.95 -127.21,-99.05l-320.72 -312.65c-137.14,-134.17 -51.25,-54.76 -197.83,-164.11l-251.7 -248.29c-8.93,-19.6 -19.86,-3.29 -0.3,-22.23 16.9,-16.3 381.76,-38.68 452.27,-42.35 66.88,-3.48 114.79,-10.82 169.52,-12.45l260.37 -5.82c30.23,-2.29 27.53,6.19 56.69,6.19zm-7103.13 -452.45l0 0 3.41 3.37c-0.26,-0.22 -4.53,-2.26 -3.41,-3.37zm497.69 -384.57l0 0 3.37 3.37c-0.22,-0.22 -4.52,-2.26 -3.37,-3.37z"/>
 </g>
</svg>
