<?xml version="1.0" encoding="UTF-8"?>
<!DOCTYPE svg PUBLIC "-//W3C//DTD SVG 1.1//EN" "http://www.w3.org/Graphics/SVG/1.1/DTD/svg11.dtd">
<!-- Creator: CorelDRAW 2017 -->
<svg xmlns="http://www.w3.org/2000/svg" xml:space="preserve" width="320mm" height="240mm" version="1.1" style="shape-rendering:geometricPrecision; text-rendering:geometricPrecision; image-rendering:optimizeQuality; fill-rule:evenodd; clip-rule:evenodd"
viewBox="0 0 32000 24000"
 xmlns:xlink="http://www.w3.org/1999/xlink">
 <defs>
  <style type="text/css">
   <![CDATA[
    .fil0 {fill:#D7B56D}
   ]]>
  </style>
 </defs>
 <g id="Слой_x0020_1">
  <metadata id="CorelCorpID_0Corel-Layer"/>
  <path class="fil0" d="M22817.67 16121.36l-21874.84 468.92 0 -82.63c15.41,-20.17 53.73,-6.45 102.75,-0.87l190.38 29.61c55.19,6.64 185.75,24.99 246.24,24.91 156.09,-0.2 298.87,-53.85 398.03,-173.53 109.52,-132.18 180.57,-316.42 295.38,-427.96 29.34,-28.47 50.77,-41.16 82.64,-62.03l407.75 -170.93 -52.27 -237.1c-33.05,-234.11 -5.26,-453.38 43.14,-679.46 63.61,-297.33 273.2,-575.83 74.88,-871.89 -76.31,40.41 -109.64,96.59 -191.84,7.12 -51.47,-55.95 -19.25,-162.62 21.83,-216.59 50.69,-66.7 134.35,-98.45 214.69,-127.27 253,-90.74 500.55,37.52 639.37,244.7 256,-171.44 196.62,-122.1 446.73,-210.94 208.49,-74.01 621.89,-5.18 817.33,117.55 20.52,12.89 41.63,27.32 63.62,41.59 164.12,106.56 233.58,180.37 350.26,333.66 43.49,57.06 55.99,74.53 82.87,140.76 50.45,124.46 69.43,148.7 89.71,277.39l23.01 170.57c1.86,24.95 -4.11,60.02 -6.44,102.52 -0.75,13.72 -1.78,32.98 -2.37,45.67 -4.63,106.79 -117.47,434.32 -196.86,517.15 -123.4,128.58 -175.98,135.7 -343.35,173.81 -3.08,0.71 -11.74,3.24 -14.98,3.88 -19.22,3.75 -47.45,5.29 -68.24,1.22 -5.42,-1.07 -81.37,-25.15 -87.38,-27.91 -69.91,-32.23 -39.26,-34.48 -125.5,-58.68l-28.62 -10.83c-2.61,-1.38 -5.73,-3.56 -8.11,-5.1l-14.63 -11.66c-2.09,-1.74 -4.94,-4.43 -6.92,-6.25l-153.99 -187.92c-1.51,-2.46 -3.64,-5.58 -5.11,-8.03l-40.8 -117.03c-70.61,-339.83 176.14,-531.47 458.64,-644.59l165.43 -58.24c-50.26,-104.69 -78.64,-213.54 -158.75,-301.59 -162.81,-179.11 -408.82,-245.21 -644.11,-185.43 -225.25,57.25 -257.19,63.69 -460.81,196.86l-74.06 57.48c-95.52,62.55 -54.87,78.88 -127.94,135.1 -128.22,98.73 -228.73,383.48 -246.83,543.06 -14.04,123.31 -8.03,336.62 15.38,462.15 15.77,84.69 100.03,325.4 158.15,367.98 -5.1,-60.57 -36.22,-87.5 -55.63,-154.79 -14.59,-50.41 -31.16,-89.55 -42.58,-154.75 -38.08,-218.8 -25.74,-548.27 117.11,-723.58l54.83 -63.5c19.89,-16.41 39.98,-28.15 62.83,-43.06l145.42 -44.12c67.61,2.29 154.04,-14.51 214.65,12.42l69.03 39.45c45.83,35.79 71.84,70.62 98.73,125.73 25.26,51.72 32.62,100.87 29.97,155.19 -7.28,148.54 -230.27,375.53 -103,812.07 54.21,185.94 230.59,274.31 395.18,328.2 90.94,29.77 114.39,65.28 231.38,47.49 167.05,-25.39 336.31,-53.97 503.79,-101.46 140.64,-39.85 769.72,-266.48 843.26,-366.79 -117.86,-2.65 -272.89,-90.7 -349.99,-176.18l-90.81 -133.36c-23.57,-41.75 -23.77,-63.34 -30.21,-91.41 -37.33,-161.87 -42.03,-297.76 -36.81,-455.95 2.61,-77.46 64.05,-74.57 13.4,-213.67 -43.85,-120.67 -88.48,-181.36 -158.82,-276.13 -36.57,-49.14 -22.85,-36.97 -17.64,-99.87 61.68,-5.14 66.67,-29.65 126.21,-21.71 120.27,15.98 212.04,86.12 268.46,192.67l301.36 -251.02c25.58,-15.23 15.77,-7.28 45.86,-19.89 242.57,-102.01 390.2,-16.13 520.87,-5.26 0,153.45 -91.65,185.83 -158.9,301.4 -54.68,93.94 -68.6,213.7 -2.09,319.9 143.72,229.63 550.05,167.76 700.33,167.76 -99.6,-135.9 -243.28,-235.06 -279.93,-509.41 -12.22,-91.13 3.01,-192.39 40.21,-282.58 63.54,-153.88 171.28,-264.31 327.81,-329.74 62.98,-26.33 123.79,-55.55 188.44,-58.6 58.71,-2.76 110.66,-6.48 166.33,13.21 74.21,26.29 124.51,37.36 183.38,80.77l63.42 54.92c76.46,79.39 101.81,200.5 71.48,306.06 -80.1,279.3 -383.24,283.17 -555.7,85.01 -42.43,-48.83 -59.78,-62.23 1.34,-99.79 2.49,-1.54 6.05,-3.05 8.7,-4.47l18.46 -8.15c51.4,-21.66 74.97,-16.72 123.32,-11.74 88.92,9.21 149.38,-26.65 155.7,-103.43 -52.39,-71.56 -169.14,-94.53 -263.28,-52.9 -76.07,33.61 -148.43,104.5 -188.44,179.9 -44.28,83.42 -75.83,220.06 -30.44,302.46 10.67,19.49 62.67,89.44 77.85,106.28 126.16,139.76 571.83,157.28 736.11,85.24 80.7,-35.38 188.01,-48.31 263.8,-77.81 54.6,-21.27 78.01,-32.3 132.89,-51.67l531.74 -191.64c35.43,-15.15 16.72,-11.07 65.4,-26.61l493.07 -125.14c54.84,-10.08 92.2,-13.72 146.77,-24.24 175.07,-33.64 471.01,-27.16 633.63,-0.27 70.02,11.58 82.63,15.18 162.58,21.74 53.06,4.35 100.19,26.53 149.13,36.06l211.49 37.32c36.46,8.74 26.81,10.05 60.93,17.99l43.06 -377.78c45.43,-259.13 76.74,-277.08 195.87,-409.1 2.57,-2.84 9.6,-11.31 12.21,-14.11l84.02 -60.65c26.18,-14.39 40.29,-25.11 65.91,-39.26 46.06,-25.47 107.5,-52.15 155.19,-49.35 282.14,16.73 567.32,-36.85 836.3,-26.61l272.85 -40.92c118.81,-29.37 138.19,-164.71 182.11,-265.02 41.71,-95.56 19.89,-60.22 125.61,-84.85 15.94,23.84 35.86,49.54 55.55,75.95 108.06,144.67 209.32,342.48 214.62,534.52 1.97,72.75 -97.47,55.63 197.76,118.41 177.01,37.68 358.97,-2.88 520.48,-68.08l63.77 -28.79c30.72,-20.95 38,-33.09 73.94,-58.47 62.67,-44.32 110.47,-119.72 137.2,-191.56l7.07 -19.26c1.19,-2.92 2.69,-6.32 3.92,-9.21 31.94,-74.65 33.88,-114.42 28.46,-222.6 -6.32,-129.29 -108.57,-227.46 -205.04,-294.67 -159.89,-111.34 -413.8,-85.33 -519.01,71.72 40.76,-9.49 35.03,-14.04 64.29,-27.8 76.5,-35.9 132.17,-38.78 217.61,-17.35l197.61 118.13 75.68 148.03c28.35,86.12 -1.74,122.33 -30.56,185.12l-50.26 81.25c-40.64,48.99 -88.29,87.06 -147.16,115.85 -212.55,103.9 -323.06,-14.24 -413.68,-56.46 -27.64,-12.89 -29.89,-6.33 -57.77,-21.2 -75,-39.97 -121.73,-137.51 -161.11,-207.17 -124.23,-219.91 -38.59,-498.18 128.81,-665.86 200.3,-200.58 515.06,-199.86 764.43,-108.73l246.59 174.24c4.19,4.04 19.57,19.42 19.81,19.65l155.19 265.66c20.95,61.05 49.06,150.2 50.92,214.18 4.94,166.73 -5.26,339.39 -95.01,484.57 -66.38,107.23 -71.92,133.2 -174.68,233.04 -151.86,147.55 -382.56,219.43 -580.13,274.74 -168.51,47.13 -466.51,66.15 -635.02,16.57 -94.26,-27.72 -187.09,-58.2 -274,-81.13l-214.21 -62.83c-78.76,-20.4 -114.23,-20.16 -197.93,-51.08 -221.25,-81.8 -361.22,-76.43 -584.57,-80.89 -326.38,-6.57 -446.14,171.2 -339.23,491.53 35.31,105.65 163.92,382.17 258.66,451.6 9.64,-41.59 14.15,-95.96 24.27,-133.52 46.78,-173.02 130.28,-366.43 293.77,-456.5 2.65,-1.46 6.17,-3.24 8.7,-4.71l16.64 -9.68c24.2,-14.24 2.06,-3.64 21.51,-13.25l36.14 -10.99c132.45,-36.77 239.83,-56.89 390.47,-31.2 147.84,25.23 290.41,82.12 391.15,187.61l76.03 94.89c23.84,38.35 36.81,47.96 58.99,85.72l40.01 117.82c5.42,37.33 13.69,81.29 11,134.43 -4.08,80.3 -46.14,167.33 -84.81,218.33 -57.21,75.44 -133.96,125.65 -220.07,161.31 -31.63,13.09 -2.06,5.26 -50.37,15.42 -44.24,9.25 -76.19,12.73 -131.86,13.13 -271.35,2.1 -372.48,-125.77 -346.43,-374.98 8.78,-83.54 63.54,-149.37 136.76,-163.17 2.14,-0.39 6.01,-1.15 8.15,-1.54l48.23 -2.73c1.07,-2.77 5.81,1.11 8.35,2.65 50.45,25.58 52.54,102.76 52.54,157.79 83.11,1.86 120.67,35.15 171.87,-38.66 1.62,-2.34 3.8,-5.46 5.3,-7.95 1.58,-2.57 3.56,-5.73 4.94,-8.42 50.93,-99.52 -28.23,-164.08 -118.53,-192.67 -146.85,-46.5 -333.54,35.62 -399.77,175.47 -38.55,81.41 -11.54,216.75 33.96,295.47 51.96,89.71 128.5,136.32 193.15,214.57 81.01,97.97 217.53,197.69 330.93,260.95l153.76 96.11c18.58,10.95 17.32,8.98 33.41,19.22 17.95,11.39 32.7,24.24 53.81,38.27l262.37 145.34c239.21,96.16 345.37,95.88 525.5,171.68 44.32,18.66 24.63,17.15 74.41,30.76 79.59,21.66 274.51,19.09 336.31,13.79 275.46,-23.48 416.69,-67.09 576.89,-291.23 1.63,-2.25 4,-5.34 5.66,-7.55 2.21,-3.13 9.13,-11.75 11.43,-14.91 19.57,-27.68 20.16,-32.58 32.34,-59.66l50.45 -146.81c84.09,-363.43 140.63,-354.37 161.07,-430.76 87.66,7.31 136.92,70.26 172.63,143.05 96.9,197.61 41.43,332.87 -19.93,535.66l-79.23 210.02c-1.59,3.88 -5.94,15.03 -7.48,18.86 -12.89,32.11 -15.22,39.1 -33.09,72.16 -24.99,46.38 -46.18,85.75 -72.35,124.9 116.51,-27.17 206.34,-166.93 274.39,-251.66 58.75,-73.11 112.01,-158.82 148.34,-246.28 48.48,-116.8 106.52,-424.52 87.11,-564.13 -3.8,-27.28 -16.33,-78.28 -20.8,-110.7 -11.7,-85.37 -30.76,-130.56 -62.55,-200.5 -122.37,-269.17 -324.29,-498.41 -628.93,-554.75 -73.89,-13.68 -180.05,-12.85 -250.79,2.09l-190.92 72.08c-115.38,64.45 -170.37,190.33 -223.99,302.11 133.8,-11.15 215.68,-167.96 459.55,-91.22 35.63,11.19 67.3,23.25 98.06,46.54l28.7 23.96c94.85,80.26 101.38,104.22 146.57,221.65 50.45,130.95 23.96,118.45 13.36,172.66 -6.92,35.07 3.56,67.41 -10.83,143.92l-9.29 62.86c-22.98,75.32 14.23,-38.43 -7.28,19.06l-42.23 76.98c-86.35,100.66 -146.29,166.26 -283.05,203.62 -244.26,66.7 -460.53,-54.8 -596.5,-243.24 -92.88,-128.89 -139.18,-247.86 -152.07,-414.35 -5.97,-77.18 21.43,-185.75 36.26,-238.61 32.54,-115.57 138.78,-302.07 224.81,-380.16l13.68 -12.65c156.22,-141.51 298.28,-239.8 504.19,-298.47 121.02,-34.52 219.99,-25.86 350.34,-13.96l99.84 17.4c71.84,16.88 52.03,-1.51 115.84,29.89 236.48,116.24 282.82,125.85 477.93,337.49 2.61,2.81 10.28,10.6 12.89,13.44l121.27 168.04c93.23,138.98 196.06,301.56 245.57,464.65 12.81,42.19 21.74,78.88 30.56,114.14 11.23,44.84 26.09,71.05 34.32,106.44 5.73,24.63 1.38,20.28 6.2,51.64 9.97,65.04 3.29,111.65 66.15,109.91l369.68 5.3c0,-136.88 48.47,-282.42 102.56,-410.28 52.07,-123.01 98.57,-246.72 171.67,-354.38 21.79,-32.11 32.27,-58.91 54.53,-90.15 63.38,-88.76 155.85,-219.51 236.39,-289.73l332.12 -207.3c32.26,-14.63 63.26,-30.4 85.13,-35.07 133.95,-28.74 287.44,-61.24 429.22,-37.52l253.4 75.48c138.54,62.63 245.64,147.44 355.8,249.21 68.24,63.06 163.09,204.49 196.78,289.81 63.73,161.47 85.4,301.43 53.85,479.12 -0.4,2.09 -0.68,5.93 -0.99,8.02l-136.53 273.25c-133.55,180.88 -359.12,301.67 -594.13,232.84 -102.13,-29.89 -174.32,-94.14 -206.82,-122.06 -45.04,-38.82 -77.46,-93.07 -101.85,-148.03 -1.23,-2.84 -2.85,-6.2 -4.07,-9.09l-22.19 -57.33c-1.1,-3.16 -2.53,-6.6 -3.67,-9.73l-12.85 -37.83c-4.59,-30.68 0.35,-31.08 4.74,-52.51 20.96,-102.4 -31.27,-131.07 -0.23,-210.89 15.53,-39.98 4.78,-4.95 23.44,-42.51 10.24,-20.68 12.57,-31.23 18.86,-46.89 13.88,-34.59 2.45,-10.87 20.92,-44.8l24.27 -41.51c45.67,-77.34 142.69,-141.07 235.49,-159.1 236.63,-46.02 283.88,90.9 417.76,102.05 -15.82,-32.94 -20.96,-58.95 -39.7,-91.85l-111.62 -151.47c-28.66,-31.08 -36.77,-39.26 -72.47,-59.07 -27,-14.94 -58.83,-27.83 -89.43,-42.03 -213.74,-99.36 -481.45,-30.12 -663.25,104.66 -237.23,175.86 -351.89,447.21 -399.69,731.33 -23.72,140.79 37.84,421.04 79.59,541.59 33.45,96.55 93.35,200.26 159.89,274.15 1.78,2.02 4.55,4.75 6.45,6.73 69.62,75.79 134.35,215 248.89,224.53l-71.72 -138.66c-24.4,-46.69 -10.8,-28.39 -28.23,-77.06l-82.04 -207.29c-15.78,-41.72 1.81,-33.65 -38,-132.73 -61.4,-152.7 -34.79,-336.31 68.44,-463.7 38.95,-48.08 49.7,-65.75 125.26,-72.04 8.89,33.53 17.67,40.25 35.18,70.02 111.66,189.39 101.78,330.3 180.49,516.48 21.28,50.34 49.51,74.89 78.92,118.42 46.85,69.43 136.05,140.71 216.43,178.12 190.73,88.68 346.59,52.5 511.23,67.29 125.57,11.27 190.09,-31.95 299.97,-75.56 48.27,-19.17 29.22,-11.66 83.27,-21.94l223.7 -65.71c56.62,-20.8 88.84,-20.92 144.23,-53.06 62.87,-36.49 139.06,-63.14 196.67,-105.8l283.28 -177.01c115.69,-74.85 234.9,-148.11 332.6,-246.13l27.75 -24.91c76.55,-70.81 152.7,-153.36 200.26,-246.91 107.15,-210.54 -7.39,-394.11 -217.26,-451.68 -94.61,-25.94 -165.31,3.95 -238.89,48.28 -70.3,42.3 -69.78,141.66 -14.07,191.75 52.11,46.9 85.12,16.93 155.42,15.34 0,-29.41 -1.54,-46.89 4.11,-75.63 5.66,-28.23 12.22,-69.86 45.55,-84.41 55.71,-24.36 137,14.59 161.24,54.4 220.97,362.44 -180.73,634.11 -570.93,412.97 -248.57,-140.87 -288.9,-510.11 -77.69,-718.64l168.71 -133.79c147,-99.01 323.69,-125.77 505.45,-112.05 77.1,5.81 182.27,45.82 234.89,80.77l115.69 94.78c114.22,111.21 202.23,395.25 202.23,494.77 62.67,-41.95 81.97,-91.17 123.99,-152.18 77.54,-112.37 230.94,-450.18 177.57,-596.31 -33.49,-91.45 -82.91,-145.1 -182.67,-172.58 -189.46,-52.19 -461.64,-22.5 -643.51,15.18 -44.88,9.29 -88.65,28.78 -141.59,42.54l-406.88 119.33c-234.54,67.37 -361.06,101.22 -624.38,99.91 -149.06,-0.71 -287.8,-40.53 -430.73,-81.92 -122.56,-35.51 -250.51,-97.42 -354.33,-171.75 -218.41,-156.38 -381.54,-454.69 -357.35,-704.13 15.62,-160.25 39.7,-304.72 122.77,-430.65l262.73 -263.36c221.13,-160.68 579.07,-148.35 822.66,21.59l156.25 198.79c52.15,109.09 84.34,314.09 51.84,401.39 -23.65,63.66 -41.08,128.26 -81.29,182.75 -22.62,30.56 -1.39,2.96 -25.62,27l-13.57 12.77c-1.85,1.94 -4.54,4.71 -6.4,6.72 -64.61,71.21 -74.25,64.53 -150.16,112.88 -23.69,15.07 -29.42,19.49 -56.98,35.07 -162.66,91.73 -386.6,27.8 -493.91,-121.06 -96.98,-134.55 -105.21,-278.03 -3.2,-389.17 1.47,-1.58 4.31,-4.47 5.81,-5.81l12.66 -7.87c67.84,-43.06 -37.37,33.01 18.26,-9.29 1.23,-0.95 4.11,-3.4 5.34,-4.47l16.01 -18.74c13.49,-13.92 -1.38,-0.99 20.4,-19.26 11.19,-9.37 20.21,-15.26 30.41,-22.77l80.06 -38.35c159.42,-42.23 143.64,-8.62 276.89,26.92 -27.17,-51.36 -51.01,-69.35 -101.46,-95.8 -137.23,-71.92 -321.36,-11.66 -425.03,56.03 -70.46,46.02 -132.81,119.08 -166.02,202.19 -21.19,52.9 -20.36,96.75 -18.42,166.81 2.92,105.53 47.88,185.04 99.28,269.1 17.55,28.62 63.57,73.38 89.15,94.97 80.58,67.96 136.96,84.45 254.87,113.43 273.79,67.33 367.3,25.58 609.67,-30.84 -48.32,-100.62 22.1,-248.49 63.1,-344.57 40.09,-94.02 77.42,-175.55 145.97,-248.53l53.97 -77.58c86.67,20.21 98.25,15.34 130.12,93.43 14.2,34.71 19.38,47.68 35.35,83.07 19.41,43.13 36.18,120.04 74.65,148.94 30.84,23.13 292.02,62.82 329.11,63.1l130.51 8.82c136.53,18.38 296.46,-7.16 469.04,12.21 70.89,7.99 125.41,8.74 212.87,10.72 119.84,2.69 230.31,50.21 318.48,128.73 63.34,56.35 110.74,115.26 149.21,192.71l35.11 70.14c27.28,64.49 80.94,383.04 83.03,471.33 0.91,37.88 4.51,37.44 5.62,84.45 195.39,-45.5 402.97,-97.54 594.73,-113.55 191.24,-15.93 361.88,-39.42 553.05,-9.21l30.4 6.01c471.3,85.48 435.16,82.59 882.65,226.23l132.84 51.32c27.48,9.26 35.11,15.42 65.28,26.81l137 53.06c18.82,6.33 16.29,0.28 55.79,16.29 40.33,16.33 34.99,18.5 63.06,29.85 165.74,66.98 170.29,36.49 326.86,107.35 111.89,50.6 355.56,20.12 499.32,13.44 103.95,-4.78 188.36,-59.7 253.72,-127.71 120.03,-124.86 102.67,-272.49 27.12,-402.77 -202.95,-349.83 -591.21,-121.78 -375.14,-19.29 35.35,16.76 57.65,12.85 104.03,6.95 45.27,-5.77 98.68,0.95 146.29,31.91 51.44,33.45 19.45,65.91 -18.31,109.44 -63.81,73.62 -154.91,113.99 -258.02,124.47 -303.22,30.8 -406.81,-433.34 -160.53,-582.43 93.95,-56.9 199.31,-97.15 308.75,-97.07l37.84 0.12c27.72,1.62 78.84,9.84 107.47,20.6 84.41,31.71 182.03,69.98 250.98,130.43l54.68 50.57c1.74,2.06 4.27,5.02 5.97,7.16 1.7,2.17 3.88,5.38 5.54,7.59 14.98,20.13 8.62,15.85 26.77,38.98 11.74,14.99 13.6,14.75 24.43,28.2 32.97,41 24.71,36.33 43.73,87.77 114.1,307.96 -3.84,565.35 -204.93,781.31 -12.69,13.68 -10.99,7.98 -25.14,27.4 137.67,0 253.99,25.69 410.95,-9.97 139.73,-31.75 234.98,-72.55 293.81,-180.25 1.5,-2.65 3.32,-6.05 4.74,-8.7 25.15,-47.05 26.93,-78.76 27.44,-129.68 0.64,-62.32 -27.04,-135.26 -51.4,-172.7 -66.89,-102.72 -146.29,-144.71 -146.29,-287.76 148.47,-12.34 69.99,-58.95 406.02,-30.52 47.29,4.03 71.68,15.34 105.45,32.06 94.13,46.66 171.59,118.58 246.28,187.77l97.26 86.86c16.21,-24.16 47.33,-61.44 69.55,-88.33 129.8,-157.2 302.74,-85.56 338.2,-82.63 6.64,79.75 -4.19,86.11 -53.61,143.68l-30.64 35.07c-42.27,50.73 -66.43,118.89 -90.62,185.59 -42.47,116.68 18.58,203.98 3.52,476.91 -9.26,168.35 -44.88,297.24 -143.72,421.78 -74.53,93.91 -249.96,180.89 -368.89,183.54 16.05,21.9 36.1,28.19 62.59,42.66l496.71 226.63c160.68,73.34 454.41,152.3 638.18,177.33 189.78,25.9 190.97,56.58 354.85,-12.46 97.74,-41.12 191.8,-63.53 273.13,-134.62 75.24,-65.75 138.38,-131.66 167.64,-240.04 31.87,-117.78 36.41,-232.04 15.62,-358.13 -2.97,-17.83 -7.08,-64.13 -13.09,-92.16 -5.81,-27.36 -15.14,-42.82 -27.52,-77.65 -10.44,-29.34 -14.55,-50.1 -26.85,-78.37l-34.08 -71.17c-47.6,-122.49 -24,-219.83 34.52,-320.73 24.2,-41.55 30.52,-36.77 68.36,-63.18 100.9,-70.3 276.84,-82.67 388.3,-28.43l33.96 18.82c19.26,11.07 36.26,20.29 56.15,35.94l98.88 111.58c36.73,56.02 36.5,78.72 55.08,142.18 68.16,233.27 51.87,390.59 17.51,600.34 -18.46,112.8 -102.12,220.42 -108.13,292.38 81.96,-94.22 144.19,-249.25 170.21,-369.05 53.81,-247.86 33.25,-251.06 27.2,-472.63 -3.88,-140.36 -53.38,-239.99 -103.35,-356.95 -28.31,-66.26 -81.41,-149.65 -129.92,-198.83 -96.28,-97.54 -71.72,-114.39 -203.5,-204.26 -456.71,-311.63 -1112.8,-345.79 -1260.15,286.69 90.42,43.42 165.74,57.02 324.6,135.74 34.08,16.84 45.59,21.11 75.01,43.41l65.75 52.58c30.92,26.26 0.91,-7.11 31.94,33.85 124.43,164.12 123.64,198.52 127.08,408.54 1.86,113.56 -103.59,212.91 -155.35,281.39 -57.88,76.67 -63.45,83.11 -128.81,92.68 -46.85,6.88 -82.48,55.67 -141.74,71.72l-85.64 11.55c-1.03,0 -4.43,-0.2 -5.42,-0.16l-55.23 1.34c-36.02,-4.78 -59.11,-13.32 -97.82,-21.86 -66.94,-14.79 -29.65,-0.04 -77.45,-27.76l-32.86 -19.73c-2.49,-1.5 -5.93,-3.28 -8.3,-4.82 -178.52,-114.9 -132.45,-159.61 -217.14,-295.82 -23.61,-37.96 -17.96,-15.9 -34.4,-70.81 -19.26,-64.37 -36.38,-110.16 -50.14,-173.5 -5.29,-24.51 -16.13,-89.07 -17.43,-101.77l-0.32 -63.73c-0.16,-2.57 -0.47,-6.41 -0.75,-8.9 -0.44,-3.63 -2.85,-13.28 -3.36,-16.72l0.71 -47.49c0.32,-1.82 1.74,-5.61 2.06,-7.43l32.81 -239.2c9.81,-55.51 41.28,-109.4 63.38,-158.79l61.56 -122.56c2.41,-3.4 18.62,-25.43 22.14,-30.49 57.89,-84.53 126.64,-176.14 207.3,-239.87 159.34,-126.01 330.3,-216.12 527.47,-273.45 112.92,-32.85 375.53,-35.98 495.21,-1.03l217.9 71.41c2.96,1.19 6.44,2.65 9.37,3.8 84.93,33.84 153.72,88.88 229.04,139.29 25.58,-48.4 41.08,-75.88 84.53,-112.76 36.22,-30.76 72.79,-61.53 110.35,-86.91 92.44,-62.51 266.84,-87.42 391.9,-58.28 35.39,8.23 45.15,13.76 69.07,23.09 23.37,9.1 49.74,15.19 69.19,22.82l109.25 74.88 73.34 189.74c-100.9,150.64 -131.03,93.27 -207.06,54.49 -37.2,-18.98 -32.02,0.71 -50.17,43.45 -141.67,333.3 41.08,452.94 93.62,788.9 10.12,65.04 18.15,75.43 28.07,116.51 115.42,476.67 -22.33,659.93 -22.33,837.69 34.71,2.89 117.78,15.58 144.9,26.1 512.02,198.55 391.07,388.06 660.28,654.9 44.64,44.16 39.19,33.29 93.31,64.53 43.18,24.86 55.24,44.71 109.84,61.2 38.07,11.51 98.76,10.68 142.89,13.52 186.34,11.98 374.38,-66.54 558.75,-70.65 0,46.18 0.95,108.53 -14.32,143.52l-13.36 26.06c-1.34,2.61 -3.12,6.01 -4.55,8.58 -22.77,41.19 -65.79,81.48 -106,104.45 -138.3,79.12 -302.42,115.45 -460.97,157.6 -92,24.48 -66.58,23.41 -148.86,-7.75 -26.45,-10 -50.77,-15.1 -80.5,-24.99l-109.28 -48.47c-32.7,-13.4 -7.91,0.2 -36.73,-15.93 -16.17,-9.06 -32.03,-24.32 -54.13,-37.92 -167.6,-102.96 -451.12,-198.56 -643.52,-263.99 -27.55,-9.33 4.55,-0.95 -39.34,-13.33 -195.94,-55.15 -180.45,-49.89 -393.04,-40.96 -57.73,2.41 -109.84,18.07 -167.72,29.54 -157,31.19 -95.76,36.57 -252.65,38.11 -47.24,0.48 -36.89,8.07 -92.55,11.23 -126.05,7.2 -276.14,-10.32 -394.32,-13.56 -308.23,-8.5 -583.41,-64.88 -834.99,-164.64 -148.23,-58.79 -303.93,-102.52 -450.18,-168.03 -24.67,-11.07 -48.4,-22.54 -72.28,-32.94 -23.96,-10.52 -50.45,-20.2 -74.53,-30.72 -49.34,-21.59 -85.28,-37.72 -137.35,-59.86 -79.55,-33.84 -204.73,-120.23 -285.7,-122.01l152.3 189.62c1.46,2.49 3.4,5.77 4.86,8.22 66.7,113.08 105.13,231.81 106.87,367.55 2.81,218.68 -168.23,437.17 -280.52,549.1 -40.4,40.33 -61.68,65.67 -109.28,101.14 -72.71,54.32 -178.91,125.92 -263.16,153.88 -32.15,10.67 -15.78,-0.32 -62.35,19.49 -124.43,52.9 -317.73,85.28 -433.65,61.24 -465.48,-96.63 -321.68,-41.67 -776.61,-210.02 -139.37,-51.6 -463.18,-228.92 -571.04,-310.14l-779.77 -561.79c-18.58,-13.05 -35.3,-22.5 -54.44,-37.64l-234.81 -172.86c12.25,46.06 57.37,95.09 86.54,137 41.04,59.03 101.06,128.97 134.35,194.45 35.9,70.53 96.12,106.2 123.6,188.24 13.44,40.29 17.71,142.02 -8.07,197.88l-54.91 76.79c-18.98,28.86 5.49,22.53 -42.19,49.89l-57.13 22.66c-3.8,1.58 -14.43,6.72 -18.11,8.14 -113.36,44.92 -236.6,-1.3 -324.49,-70.37 -53.37,-41.95 -54.17,-61.52 -81.84,-128.54l-222.92 -474.1c-52.03,-88.84 -169.38,-327.1 -232.04,-373 4.07,48.83 19.09,75.95 22.18,121.54 11.31,168.91 -9.1,288.82 -58.48,447.09l-31 87.34c-1.22,2.85 -2.8,6.25 -3.99,9.14 -1.23,2.92 -2.65,6.4 -3.83,9.33 -32.07,78 -69.59,141.82 -124.19,204.57 -6.92,7.94 -9.26,10.51 -18.35,21.15l-112.37 124.34c-0.03,0.04 -20.32,15.62 -22.37,17.12 -121.38,88.77 -137.87,84.1 -245.85,148.75l-113.67 44.12c-17,4.55 -41.52,12.1 -59.31,19.61l-17.87 8.42c-2.85,1.23 -6.05,3.05 -8.89,4.27 -11.43,4.94 -8.62,4.79 -28.23,11.23 -166.34,54.76 -350.82,66.46 -511.23,19.65 -78.16,-22.81 -156.81,-49.42 -225.4,-90.26 -27.96,-16.61 -64.25,-44.92 -91.77,-66.11 -0.55,-0.44 -21.11,-17.83 -21.35,-18.07 -14.31,-12.73 -4.55,-5.26 -20.28,-19.21l-98.29 -98.97c-55,-60.1 -101.93,-132.05 -131.31,-210.66 -14.87,-40.01 -25.11,-80.42 -37.48,-120.31 -6.21,-20.01 -10,-39.73 -16.73,-62.19l-29.97 -181.8c-8.58,-91.25 0.32,-213.03 14.12,-295.11l28.47 -129.4 138.46 -242.88c41.91,-47.65 81.29,-68.64 128.93,-107.78 157.68,-129.61 364.58,-118.54 554.36,-80.35 85.44,17.16 148.39,51.25 226.79,81.65 118.1,45.82 244.98,137.55 297.2,255.18 21.95,49.3 60.62,104.97 63.62,157.91 10.32,176.54 -9.09,325.04 -146.41,449.39 -27.04,24.51 -62.78,45.19 -95.2,63.61 -39.38,22.38 -61.57,19.02 -109.48,21.04 -34.88,1.5 -103.99,-8.19 -137,-17.72 -182.75,-52.9 -323.5,-253 -278.86,-445.7 0.51,-2.26 1.02,-6.29 1.54,-8.47 0.51,-2.09 1.07,-6.08 1.62,-8.06 9.8,-34.48 56.26,-62.71 98.29,-51.95 38.47,9.84 15.58,0.91 40.17,32.46 23.37,30.01 42.82,58.43 75.87,82.83 66.19,48.75 163.65,44.36 252.57,23.68 2.97,-36.18 1.27,-28.62 13.17,-52.62 -165.39,-246.92 -514.9,-113.79 -586.7,-73.62 -207.62,116.32 -225.29,517.11 102.2,663.13 217.02,96.74 296.38,36.69 445.36,-23.73l120.59 -63.5c67.61,-35.62 53.41,-24.31 106.23,-77.92 20.17,-20.52 24.56,-25.43 43.61,-48.44l37.01 -41.91c49.58,-52.82 55.27,-58.79 85.36,-125.1 66.55,-146.76 116.6,-274.59 46.89,-438.39 -15.26,-35.74 -10.71,-31.99 -30.08,-62.04 -9.14,-14.27 -9.02,-12.13 -21.51,-31.03 -8.23,-12.38 -7.24,-12.06 -15.38,-24.08l-129.01 -134.07c-62.16,-52.71 -112.17,-67.97 -181.01,-108.34 -84.53,-49.66 -160.48,-85.16 -270,-111.45l-307.8 -60.5c-212.95,-22.85 -420.57,49.62 -602.01,131.15 -51.63,23.21 -76.82,44.68 -129.09,68.16l-122.17 61.96c-29.41,12.81 -11.27,3.44 -35.58,17.04l-882.33 551.31c-41.43,26.18 -78.28,38.24 -118.93,65.16 -218.29,144.51 -476.03,235.21 -731.84,294.08l-348.37 58.52c-59.43,2.61 -124.74,0.2 -184.88,0.2l-340.81 -20.25c-161.36,-17.83 -263.8,-46.81 -397.87,-148.58l-55 -37.08c-73.22,-23.77 -174.68,1.77 -223.94,43.21l-26.73 25.94c-91.17,79.94 -181.16,65.99 -255.97,243.75 -35.58,84.45 -39.42,193.06 -93.9,274.35l-105.21 0c-10.48,-125.49 -51.87,33.49 -52.63,-355.09 -0.47,-202.43 1.94,-158.43 55.44,-312.78 23.72,-68.56 120.94,-170.33 184.64,-209.91 53.61,-33.33 229.32,-63.22 299.18,-69.03 -71.05,-106.12 -184.4,-188.04 -286.73,-357.74l-41.39 -76.9c-29.18,-52.9 -64.88,-107.19 -79.63,-170.29 -127.27,61.05 -156.22,102.09 -228.06,57.76l-24.15 -15.97c-40.21,-24.16 -64.29,-37.48 -116.05,-41.79 -21.62,92.48 -62.55,138.34 -102.56,213.11 -10.63,19.81 -11.31,25.07 -21.55,44.16 -21.15,39.34 -9.17,16.05 -26.01,39.78l-244.54 294.71c156.57,75.12 308.31,23.17 432.03,199.31 126.71,180.37 106.47,271.31 114.06,471.02 4.75,122.92 8.34,161.59 -59.38,289.65l-105.21 0c-20.48,-38.63 -36.62,-88.49 -52.75,-131.42 -31.19,-83.27 -34.04,-173.61 -95.48,-246.4 -25.98,-30.72 -56.38,-59.51 -91.1,-79.91l-154.98 -108.06c-9.49,-6.64 -6.92,-7.19 -24.75,-14.74 -137.44,-58.4 -217.86,14.43 -295.35,63.57 -184.29,116.84 -226.44,84.97 -375.14,124.07l-64.09 6.21c-172.9,0.32 -376.52,30.48 -537.2,-14.47 -90.22,-25.26 -370.23,-37.72 -612.36,-149.97 -24.99,-11.58 -28.15,-10.51 -57.01,-21.86l-758.22 -438.67c-31.63,-16.33 -31.15,-9.1 -60.93,-31.16 -149.21,-110.71 -145.5,-92.32 -253.95,-166.89 -24,-16.53 -28.43,-23.96 -52.94,-39.1 -17.59,-10.83 -33.8,-17.4 -52.11,-26.81 -21.98,-11.31 -35.15,-19.61 -59.46,-32.62l-464.61 -232.48c-95.41,-47.52 -218.77,-65.43 -336,-84.93 -191.44,-31.82 -486.94,45.31 -650.75,128.42l-110.66 60.34c-23.61,10.55 -30.96,13.6 -53.82,25.1 -138.06,69.67 -377.94,340.9 -329.9,522.38 9.37,35.42 13.01,32.1 23.37,69.62l71.6 178.32c102.4,150.6 180.57,251.1 356.04,327.89 138.46,60.57 254.86,106.79 417.95,58.71 110.55,-32.58 133.68,-63.02 209.99,-131.94 123.59,-111.61 134.11,-356.91 22.02,-484.57 -38.43,-43.85 -73.82,-76.11 -125.29,-98.25 -2.89,-1.23 -6.25,-2.81 -9.18,-4 -114.89,-46.77 -285.42,-66.98 -389.88,-7.43 -315.95,180.33 20.6,246.48 155.19,128.89 44.44,-38.78 23.88,-75.08 84.84,-99.04 50.22,-19.73 96.91,20.28 107.15,57.57l6.45 23.56c6.72,25.54 11.46,26.41 10.71,67.37 -1.22,69.43 -34.95,138.23 -70.77,194.06l-80.7 90.3c-18.26,15.78 -23.8,20.99 -44.12,34.71 -130.28,87.78 -331.21,80.98 -438.71,-27.59 -84.93,-85.88 -129.81,-152.22 -158.31,-289.82 -18.03,-87.3 1.22,-116.63 22.73,-190.53 8.62,-29.57 9.09,-40.6 17.2,-62.15 53.26,-142.61 175.67,-235.49 302.15,-303.45 75.16,-40.37 188.43,-85.13 277.04,-97.78l271.58 -26.25c71.96,11.94 132.06,40.48 193.42,68.63l169.5 121.94c1.86,1.97 4.55,4.82 6.33,6.8l12.65 13.68c112.29,124.94 154.71,244.7 180.13,411.71 12.06,79.51 24.72,183.85 16.53,267.15 -3.76,38.08 -10.99,95.96 -22.46,141.94 -31.47,125.89 -72.23,276.25 -160.84,378.42l-257.55 242.17c-113.35,72.55 -235.36,100.5 -375.37,123.87 -89.71,14.99 -223.11,9.61 -307.44,-20.48l-248.14 -87.81c-1.66,-0.68 -5.18,-2.22 -6.84,-2.97l-330.26 -205.12c-57.49,-52.31 -90.82,-79.08 -175.27,-206.15l-82.64 -167.29c-30.8,-69.82 -60.37,-175.62 -74.01,-267.86 -15.03,-101.38 6.01,-231.06 8.02,-323.7 -67.49,49.46 -194.68,316.86 -241.22,403.17l-200.02 431.24c-21.19,47.32 -6.4,27.04 -41.51,63.73 -117.67,123.2 -273.41,151.19 -429.74,79.87 -76.7,-35.03 -27.75,-17.87 -56.66,-61.68 -1.58,-2.37 -3.59,-5.62 -5.25,-7.87 -28.23,-38.51 -50.22,-66.34 -58.36,-122.96 -21.08,-147.12 82.71,-230.31 145.77,-344.14 59.67,-107.78 148.31,-208.48 216.2,-309.86 -36.62,9.77 -45.95,20.17 -73.35,45l-555.23 404.9c-47.24,31.24 -78.24,55.71 -123.87,86.59l-122.92 87.5c-45.94,30.09 -75.83,58.32 -121.58,88.88 -49.34,33.01 -86.15,54.44 -131.15,92.44 -65.31,55.15 -394.35,229.08 -475.32,261.22 -157,62.32 -378.93,146.69 -538.5,171.72 -84.85,13.32 -277.76,66.34 -370.36,64.6 -107.58,-1.97 -261.54,-33.41 -351.29,-71.52 -45.55,-19.3 -32.97,-8.94 -62.03,-19.93l-319.75 -202.51c-65.31,-54.84 -203.85,-232.4 -235.17,-304.05 -88.6,-202.79 -148.97,-308.87 -26.21,-581.16 49.7,-110.2 60.41,-124.03 142.18,-212.91l52.23 -52.99c8.34,-7.07 21.35,-16.21 28.66,-23.92 19.61,-20.52 10.6,-1.14 21.51,-31.11l-503.35 233.19c-109.41,43.18 -196.71,91.06 -309.51,124.59l-269.29 98.96c-113.63,44.36 -400.4,128.18 -509.6,134.86l-409.57 37.68c-379.29,42.58 -875.29,-123.28 -1053.45,-80.38 -273.56,65.87 -308.04,101.5 -537.59,186.15 -38.51,14.19 -69.63,26.09 -105.53,39.14 -167.76,60.89 -174.96,95.84 -293.77,153.44 -33.21,16.14 -20.87,9.18 -55.78,23.09l-28.08 11.43c-2.96,1.19 -6.36,2.61 -9.41,3.76 -74.56,27.71 -149.61,62.98 -226.51,44.87 -176.14,-41.47 -497.74,-111.38 -593.62,-275.69 -4.55,-7.79 -23.68,-52.12 -24.47,-55.36 -1.15,-4.74 -2.18,-9.25 -3.2,-13.56l21874.84 -468.92zm-13679.96 0l0 0 8089.55 -170.96 -8089.55 170.96zm16928.94 -197.25l0 0c12.96,35.94 -0.68,27.04 52.62,39.46 -13.05,-35.94 0.67,-27.05 -52.62,-39.46zm-20164.8 -13.17l0 0 -26.29 13.17 26.29 -13.17zm20099 -26.29l0 0 -20059.5 0 20059.5 0zm-20059.5 0l0 0 25.58 -15.1 -25.58 15.1zm52.59 -26.29l0 0 -2643.9 -13.17 2643.9 13.17zm-2643.9 -13.17l0 0 25294.71 -105.21 -25294.71 105.21zm-78.91 -144.63l0 0c9.88,37.29 -2.81,19.26 26.29,39.42 -9.01,-37.52 1.98,-19.77 -26.29,-39.42zm7024.12 -578.63l0 0c40.41,18.7 71.57,-3.25 124.94,-15.78 36.26,-8.54 57.37,-8.18 98.65,-36.81 -42.07,0 -185.15,25.9 -223.59,52.59zm11062.32 -65.76l0 0c19.85,13.05 -30.08,13.17 39.46,13.17 -17.63,-13.36 27.64,-13.17 -39.46,-13.17zm-10772.98 0l0 0c-54.24,4.63 -23.36,0.99 -39.42,13.17 67.14,0 21.79,0.16 39.42,-13.17zm-3143.77 13.17l0 0 13916.75 -13.17c-19.84,-13.04 30.05,-13.16 -39.45,-13.16 17.59,13.36 -27.68,13.16 39.45,13.16l-13916.75 13.17zm3143.77 -13.17l0 0c54.29,-4.62 23.41,-0.98 39.46,-13.16 -67.13,0 -21.78,-0.16 -39.46,13.16zm11088.69 -578.59l0 0c-22.06,22.02 14.36,6.68 14.59,6.8 35.31,14.03 -0.67,-20.8 -14.59,-6.8zm-11430.65 0l0 0c-22.02,22.02 14.35,6.68 14.63,6.8 35.23,14.03 -0.67,-20.8 -14.63,-6.8zm11483.24 -13.17l0 0c109.56,0 275.22,-39.46 499.84,-39.46 126.4,0 229.75,15.9 353.27,28.23 225.96,22.54 505.21,129.53 684.28,262.69 40.76,30.33 68.2,55.99 108.81,88.49l114.81 108.77c56.46,56.73 119.05,108.13 167.17,174.79 54.72,75.72 110.78,195.4 93.23,291.79 -9.25,50.37 -47.8,88.21 -75.32,122.89 -82.48,103.98 -262.29,144.94 -382.77,94.69 -16.48,-6.88 -353.42,-221.02 -242.72,83.82 20.09,55.27 60.22,89.83 96.04,128.62l130.87 132.13c13.6,10.87 20.88,14.55 30.88,21.79 82.99,60.17 162.81,130.91 252.53,181.44l158.19 65.47c112.13,51.91 193.02,68.6 312.82,68.6 130.95,0 237.58,-64.41 325.95,-147.52 23.37,-21.94 34.6,-40.17 54.01,-64.37 56.46,-70.14 72.63,-154.86 80.38,-248.37 73.74,6.13 8.06,-0.52 60.25,18.66 19.93,7.31 45.91,15.46 59.47,19.49 138.14,41.4 316.42,35.43 447.45,-36.61 31.51,-17.32 169.46,-97.54 169.46,-133.04l0 -65.76c-79,0 -177.96,3.36 -251.23,-11.9 -203.14,-42.34 -133.44,-0.91 -323.89,-267.87 -50.81,-71.2 -35.35,-91.49 -135.22,-114.73 0,-88.57 -24.67,-107.67 -39.46,-170.97l308.32 165.23c20.32,10.64 31.43,16.89 51,27.96l223.55 118.37c58.44,23.57 127.23,86.59 225.25,129.92l593.42 314.05c52.39,27.84 10.91,-13.56 45.43,33.49 -81.61,-18.98 -135.26,-51.99 -207.54,-57.57 -115.13,-8.85 -267.27,-9.6 -360.5,28.91 -81.37,33.64 -172.19,70.53 -234.82,133.44l-110.86 125.84c-111.5,177.77 -110.83,345.64 13.09,511.94l82 75.83c3.08,2.34 11.54,9.33 14.51,11.83l20.56 18.89c44.83,36.81 106,62 164.36,73.23 87.26,16.88 108.69,20.36 180.8,-5.22 90.23,-31.99 227.9,-54.76 227.9,-180.69 0,-9.01 -12.14,-45.55 -15.62,-51.12 -13.4,-21.51 -2.96,-19.18 -33.76,-20.72 -41.28,-2.01 -298.52,93.07 -335.17,-134.51 -23.24,-144.59 99.44,-161.86 213.55,-161.86 46.02,0 194.13,79.23 235.68,119.48 113.55,110.03 129.88,256.4 56.7,396.37 -75.79,145.06 -191.13,257.62 -356.59,300.96 -47.45,12.41 -113.55,37.04 -172.47,36.69 -246.83,-1.5 -679.18,-116.4 -906.32,-223.67 -2.77,-1.3 -6.21,-2.88 -9.02,-4.15 -106.55,-47.96 -215,-98.68 -310.41,-163.05 -107.18,-72.36 -382.17,-251.86 -459.35,-329.79l-857.49 -655.02c-60.69,-51.91 -445.32,-283.84 -543.05,-325 -211.81,-89.16 -410.05,-192.47 -636.92,-244.3l-125.06 -32.78c-3.95,-1.5 -15.26,-5.97 -18.86,-7.47l-18.14 -8.19c-1.94,-0.87 -6.21,-2.41 -8.94,-4.15 143.05,0 358.96,83.27 522.25,109.05l127.08 26.92c230.39,42.66 431.51,108.41 601.25,-16.6l38.95 -26.89c2.21,-1.66 5.53,-3.68 7.71,-5.46 25.62,-21.47 31.27,-44.08 31.27,-87.02 47.84,-3.99 47.13,-1.78 58.04,-48.24 9.21,-39.53 -23.37,-165.46 -41.95,-204.6 -0.55,-1.27 -20.64,-39.58 -22.77,-42.94l-28.11 -37.72c-127.83,-182.15 -360.87,-208.84 -570.65,-245.37 -38.59,-6.72 -44.76,-8.46 -84.14,-9.37l-323.26 -16.69zm-11430.62 657.52l0 0 -464.8 87.57c-40.92,8.82 -34.44,12.85 -84.34,21.12 -217.34,35.94 -289.1,71.48 -456.86,-36.66 -131.42,-84.69 -50.76,-56.06 -103.9,-119.72 -77.53,-92.95 -31.08,-61.4 -25.98,-159.77 2.06,-39.69 -18.07,-10.36 11.31,-74.13l39.02 -67.26c124.9,-209.23 385.89,-256.99 628.34,-288.5 79.91,-10.4 253.99,-7 378.3,-7l0 -13.17c-67.42,0 -178,-18.26 -247.63,-28.66 -138.78,-20.68 -570.96,-4.91 -706.06,35.27 -373.32,110.98 -379.53,68.08 -737.27,367.54l-245.56 241.02c-151.63,245.29 -110.55,453.46 132.88,517.31 59.07,15.5 90.03,35.75 169.54,22.14 85.68,-14.66 116.99,-64.52 176.1,-87.65 91.77,-35.82 130.28,7.43 155.7,24.51 0,91.34 -46.06,176.74 -101.73,240.16l-107.11 103.31c-78.92,76.5 -276.01,222.95 -360.07,258.14l-233.79 95.05c-183.93,31.67 -221.57,62.63 -411.98,-34.6 -69.51,-35.46 -138.3,-91.01 -179.98,-148.78 -46.93,-65.08 -69.98,-147.55 -78.56,-250.27l-115.29 42.54c-294.6,83.54 -636.16,-119.52 -607.1,-210.18 22.02,-68.68 156.65,3.64 372.88,-63.46 84.61,-26.25 177.33,-251.82 256.76,-321.92 34.47,-30.44 76.23,2.69 92.75,-196.54 -58.35,4.86 -93.98,47.13 -138.62,71.8 -18.94,10.48 -25.42,10.76 -44.36,21.35 -24.35,13.6 -20.79,15.18 -47.6,31.36l-126.92 70.33c-92.75,43.81 -196.07,88.88 -270.75,150.17l-443.85 240.11c-52.51,28.11 -326.9,161.24 -348.49,190.73 118.81,-9.88 141.31,-103.51 496.87,-48.59l44.05 7.31c209.39,59.86 412.42,237.19 452.35,456.27 8.93,48.95 0.39,108.21 -10.52,159.81 -18.9,89.12 -49.26,140.08 -106.2,196.31l-26.17 26.49c-66.54,61.44 -149.77,114.06 -240.63,126.4 -298.75,40.68 -449.94,-160.48 -369.52,-248.5 19.93,-21.82 16.45,-12.96 58.04,-3.24 136.88,31.87 270.16,10.68 296.89,-144.15 31.28,-181.4 -154.87,-183.42 -257.98,-138.46 -35.35,15.42 -19.57,8.26 -58.08,20.91 -106.4,34.95 -199.19,130.28 -226.51,232.4 -39.42,146.89 63.18,312.59 167.32,412.82 27.6,26.57 18.82,19.41 51.99,40.05 109.24,68.05 154.12,103.19 325.63,122.37 102.45,11.47 572.87,-76.43 692.19,-126.09 24.44,-10.16 41.68,-13.24 68.64,-23.44 46.18,-17.52 87.81,-37.76 131.11,-52.98l211.52 -104.18c63.94,-38.4 158.35,-76.31 255.02,-152.66l136.73 -100.03c2.09,-1.78 4.78,-4.55 6.91,-6.29l892.57 -672.5c80.38,-69.66 142.14,-103.19 213.78,-154.51 38.99,-27.95 56.82,-45.71 99.72,-71.29 259.21,-154.67 127.74,-96.31 460.49,-262.84l428.99 -176.1c40.64,-11.19 45.58,-8.82 79.82,-38.55zm8405.23 -2419.68l0 0 -5314.08 -8416.21 5314.08 8416.21zm-5853.42 -8718.68l0 0 3.92 3.92c-0.28,-0.24 -5.18,-2.61 -3.92,-3.92zm6208.58 -92.04l0 0 15.15 25.62 -15.15 -25.62zm-2696.51 -539.18l0 0 -789.18 -13.12 789.18 13.12zm-789.18 -13.12l0 0c-49.18,-17.8 -1.74,7.27 -37.64,-28.19 -11.27,-11.15 -17.79,-20.96 -31.47,-34.28l-41.51 -37.41c-1.9,-1.93 -4.59,-4.74 -6.45,-6.68 -0.28,-0.28 -15.06,-17.08 -18.58,-20.91l-359.16 -364.23c-69.11,-60.84 -320.38,-192.47 -432.07,-225.6 -128.7,-38.11 -247.51,-34.59 -373.83,8.7l-207.26 121.62c-113.35,115.8 -82.79,72 -171.67,222.87 -100.9,171.44 -94.14,235.09 -138.19,399.61 -32.06,119.88 -8.42,251.62 31.51,357.22l41.72 87.9c72.11,141.19 34.83,52.78 100.34,150.56 171.28,0 131.55,3.08 247.95,-54.56 74.56,-36.93 113.03,-82.84 169.06,-133.44 153.21,-138.27 101.53,-406.1 160.48,-444.45 146.93,-95.44 474.65,151.79 576.62,307.13 74.49,113.59 32.38,24.95 121.78,193.81l-459.67 66.43c-82.63,10.99 -159.33,29.65 -243.15,46.22l-1112.36 334.49c1.3,-59.98 35.7,-97.11 59.58,-150.84 97.07,-218.48 104.07,-420.64 94.58,-657 -6.8,-170.68 50.92,-470.5 138.93,-621.81l107.35 -155.7c92.95,-114.58 185.71,-213.03 309.82,-295.19 41.19,-27.32 80.65,-57.33 127.19,-83.27l194.64 -81.52c8.94,-2.65 31.83,-10.48 39.86,-12.77 34.32,-9.89 63.93,-14.36 97.46,-20.92 126.64,-24.71 256.32,-58.83 365.05,-6.72 133.36,63.89 189.11,-60.45 148.66,-188.12 -25.42,-80.1 -73.58,-141.82 -119.68,-209.75l-141.35 -147.95c-10.63,-9.8 0.56,-2.06 -20.91,-18.54 -38.67,-29.7 -97.38,-59.39 -147.71,-75.88 -179.55,-58.79 -366.76,-8.77 -500.51,112.25l-713.5 601.73c0,-63.42 -3.24,-135.18 -0.24,-197.49 7.51,-157.88 111.1,-291.08 71.37,-410.6 -0.76,-2.26 -2.22,-5.86 -2.93,-8.03l-5.02 -14.75c-0.59,-1.78 -1.66,-5.45 -2.18,-7.27 -2.88,-9.93 3.68,-6.37 -8.38,-32.54 -99.91,-23.25 -184.84,18.38 -246.4,95.64 -20.6,25.9 -17.04,29.06 -35.7,56.3 -18.58,27.12 -28.59,33.21 -46.85,58.4l-73.7 123.55c-46.26,93.31 -92.88,195.76 -117.67,303.14 -24.98,107.9 -23.32,259.76 -19.45,389.13l72.2 692.7c5.93,93.59 -63.18,534.44 -150.68,635.06 0,-75.75 26.57,-164.24 26.29,-394.51 -0.43,-336.15 2.14,-321.4 -105.13,-618.17 -32.38,-89.75 -114.46,-193.26 -202.35,-231.77 -14.99,-6.56 -29.1,-9.61 -30.88,-10.87 -6.68,-4.55 -10.04,43.61 -16.77,-33.41 -66.1,0 -139.56,-3.6 -171,131.5l-26.29 0c-18.62,-51.44 -277.48,-208.84 -331.13,-234.46 -102.36,-48.87 -209.91,-91.45 -330.93,-72.51l-240.07 88.76c-1.9,1.34 -4.99,4.03 -6.88,5.54 -2.02,1.58 -4.95,4.38 -6.92,6.08 -42.78,37.21 -39.98,42.67 -67.69,92.13 -26.37,47.17 -30.92,38.55 -14.75,98.17 19.3,70.53 48.75,139.33 100.19,190.93 80.46,80.65 239.44,149.89 342.08,223.5 29.42,21.08 58.12,38.95 84.65,59.98l290.33 288.35c21.55,32.34 34.08,55.47 58.08,86.59l29.34 36.49c71.91,103.4 116.55,229.96 146.84,352.88 16.01,65.04 25.18,189.15 7.43,271.54 -34.87,161.71 -86.31,260.12 -195.39,370.12 -49.78,50.21 -96.71,91.29 -159.86,129.52l-171.04 78.84c-68.87,27.4 -196.46,51.52 -271.54,57.29 -107.46,8.27 -227.94,0.99 -315.47,-25.34 -156.89,-47.17 -200.14,-63.38 -325.2,-187.69l-89.91 -120.51c-214.85,-391.07 -52.03,-879.32 416.57,-914.98 71.48,-5.46 197.77,27.08 235.49,52.66 26.17,17.71 14.82,12.22 34.71,31.04 43.49,40.96 81.33,63.34 98.73,126.01 20.56,74.25 -12.3,160.88 -67.45,197.8 -2.42,-108.45 -101.18,-204.8 -185,-249.4 -68.48,-36.45 -118.73,-36.85 -198.6,-36.42l-99.68 25.86c-41.98,22.86 -49.69,47.37 -116.39,81.29 -2.61,1.35 -6.17,2.97 -8.62,4.47 -2.46,1.46 -5.74,3.6 -7.95,5.22 -44.6,31.71 -70.69,82.59 -90.03,133.72 -52.98,140.63 -24.27,283.8 79.83,385.37 32.22,31.43 59.54,58.16 105.6,78.52 197.57,87.5 376.68,134.63 590.66,48.83 58.32,-23.4 58.59,-22.97 101.65,-56.18 118.06,-91.18 199.67,-207.1 240.35,-351.45 20.01,-70.97 27.28,-180.02 20.09,-263.56 -7.24,-84.18 -49.27,-210.62 -115.53,-280.36 -130.52,-137.32 -287.96,-220.7 -469.63,-267.12 -88.69,-22.7 -150.37,-30.84 -247.31,-14.51 -99.91,16.8 -153.17,21.35 -233.28,56.3 -3.75,1.66 -14.43,6.44 -18.22,8.03 -11.71,4.9 -15.94,6.08 -28.43,11.11l-101.77 56.06c-122.53,80.58 -224.1,171.79 -289.93,301.87 -10.04,19.85 -19.1,31.39 -29.85,49.11 -13.64,22.46 -8.66,11.31 -23.29,42.42 -65.4,138.94 -75.75,298.2 -60.65,443.3l39.85 227.07c32.58,104.41 78.57,214.53 137.04,306.29l277.2 314.61c48.2,48.11 108.81,86.43 170.69,118.69l196.58 105.92c44.87,18.58 67.49,26.69 110.23,47.6 74.8,36.62 163.57,43.5 228.09,74.41l-490.62 561.6c-123.4,165.9 -255.85,326.7 -361.58,506.4l-167.91 279.22c-55.47,90.02 -117.31,188.79 -158.19,288.98l-358.97 864.1c-7.15,22.73 -12.29,48.23 -21.03,71.05l-66.58 196.46c-11.98,40.49 -10.28,21.07 -17.32,61.6l-65.28 267.27c-47.01,252.18 -66.66,295.87 -105.25,576.15 -28.62,207.18 -63.53,480.54 -62.62,679.89l7.27 526.09c8.07,272.77 67.06,610.23 122.37,877.31 3.72,17.83 11.27,37.36 16.65,62.31 6.52,30.92 4.7,49.97 11.38,80.58l415.23 1176.13 300.64 567.32c24.79,47.92 47.09,68.72 72.08,112.09 40.45,70.26 84.81,155.35 153.61,201.45 103.98,-55 144.74,-218.17 172.54,-327.65 16.64,-65.91 28.54,-128.18 25.7,-198.36 -2.1,-50.85 -9.29,-59.94 -27.28,-91.97 -91.02,-161.67 -188.91,-319.03 -259.17,-490.54 -43.34,-105.84 -85.33,-172.9 -135.62,-311.48l-200.57 -601.69c-10.24,-35.86 -14.71,-72.47 -24.2,-107.26 -6.92,-25.47 -17.12,-72.32 -21.23,-97.19 -55.04,-334.09 -122.85,-652.92 -122.02,-995.72 0.32,-159.53 -12.21,-314.48 0.68,-472.71 5.97,-73.74 24.55,-156.41 25.66,-237.35 1.5,-113.15 66.22,-514.58 89.43,-637.66 6.13,-32.42 13.4,-67.85 22.06,-106.48 1.66,-7.47 10.68,-40.52 12.22,-48.87l30.44 -131.14c59.63,-298 174.33,-558.44 278.31,-839.59 63.18,-170.84 240.63,-521.46 385.45,-745.6l334.02 -481.41c21.15,-25.19 7.99,-7.79 27.64,-38.04 25.14,-38.67 23.21,-33.13 52.82,-65.59l114.46 -135.46c10,-10.12 21.31,-24.08 30.6,-35.15l18.19 -21.27c1.86,-1.98 4.63,-4.67 6.53,-6.6l159.02 -169.78c1.85,-2.01 4.27,-5.06 6.12,-7.04 1.78,-2.01 4.31,-5.02 6.09,-7.03 1.86,-1.98 4.47,-4.91 6.33,-6.84 130.36,-136.17 385.53,-391.82 532.49,-506.56 31.83,-24.87 40.17,-38.43 68.05,-63.46 44.44,-39.85 93.19,-68.72 142.45,-107.42 193.38,-151.95 392.42,-283.17 610.63,-402.14 29.41,-16.06 44.08,-27.44 75.35,-42.98l220.23 -108.65c213.07,-107.07 511.7,-218.53 741.02,-265.73l231.97 -63.34c74.25,-17.12 135.61,-25.31 212.04,-37.88l428.03 -59.27c93.23,-8.89 113.08,-2.17 206.55,-16.29 374.46,-56.66 828.36,-56.66 1199.54,-37.24 55.78,2.92 180.17,16.29 211.05,19.73 126.44,13.95 292.14,12.49 423.29,43.05l186.82 36.58c43.01,10.16 71.2,9.29 87.22,12.21 24.87,4.51 60.61,22.5 94.73,29.54 277.83,57.29 423.21,131.07 670.48,210.81l232.37 96.48c15.73,6.6 25.89,8.42 47.16,18.58 27.4,13.05 46.34,27.6 76.59,41.75 35.62,16.65 56.77,22.02 92.52,39.02 61.68,29.34 98.92,60.81 156.53,86.2 2.88,1.26 10.36,3.99 13.12,5.22 227.7,103.47 659.22,399.25 850.98,571.55 51.16,45.99 130.63,91.81 173.72,141.87 33.81,39.26 15.46,23.4 59.47,58.95 27,21.86 50.92,37.64 71.72,59.78 18.5,19.65 5.02,9.05 24.36,28.27l408.42 420.13 727.3 1048.22c18.94,31 6.25,6.72 23.84,41.87 7.24,14.32 13.21,27.09 21.9,43.89 30.13,58.4 52.43,112.41 82.6,167.24 8.7,15.82 9.92,15.74 17.99,34.64l39.22 92.28c90.7,201.09 156.93,396.92 226.28,602.24l132.64 472.16c9.85,45.55 8.98,68.24 19.66,112.41 17.47,72.75 19.33,115.21 33.68,190.21 25.7,134.08 32.9,294.84 53.38,432.47 30.76,206.7 64.21,894.03 21.51,1174.03l-60.66 439.11c-7.7,48.43 -15.81,41.99 -26.52,104.97 -5.42,32.03 -10.56,75.88 -20.76,110.71 -13.76,46.97 -9.21,47.21 -20.21,98.17l-63.89 185.95c-9.05,31.59 -13.52,77.49 -22.46,109.08 -20.24,71.37 -48.75,118.18 -69.43,180.41 -10.04,30.17 -19.25,64.33 -31.15,100.39 -40.25,122.33 -94.77,233.19 -153.09,346.67 -73.5,142.97 -138.54,288.27 -220.86,423.57 -92.4,151.98 -115.49,179.81 -66.5,378.77 27.48,111.53 57.09,154.87 107.03,249.48 77.45,146.84 132.57,2.25 181.51,-77.53 13.37,-21.83 16.65,-34.87 32.74,-59.35l134.63 -220.46c88.44,-148.66 161.95,-311.68 242.21,-467.97 145.38,-283.21 251.54,-603.47 339.39,-909.92l190.57 -986.43c9.21,-89.2 21.71,-228.45 26.22,-312.23 10.08,-187.33 12.29,-603.51 -10.52,-848.96l-161.63 -1037.19c-6.61,-22.97 -13.37,-37.33 -22.82,-69.19l-159.33 -535.66c-6.8,-28.03 -30.13,-79 -43.57,-116.24 -136.05,-376.09 -331.25,-717.54 -528.27,-1063.1l-219.12 -320.13c-31.15,-37.96 -45.82,-68.17 -75.4,-108.73l-319.38 -390.79c-95.01,-113.36 -285.31,-287.13 -345.84,-377.47 103.23,-2.29 207.57,-59.82 293.02,-88.41l334.84 -178.12c29.06,-21.15 47.72,-32.42 77.1,-54.36 191.96,-143.29 360.35,-381.11 429.82,-609.24 28.46,-93.47 75.87,-325.67 59.1,-447.53 -16.68,-120.55 -55.86,-227.77 -112.12,-335.08 -4.79,-9.13 -16.81,-31.99 -23.17,-42.62 -12.14,-20.44 -34.88,-51.12 -49.74,-68.64 -12.69,-15.02 -17.64,-19.49 -31.32,-34.44l-12.41 -13.87c-1.86,-1.94 -4.51,-4.83 -6.33,-6.77 -1.89,-1.93 -4.66,-4.7 -6.56,-6.64l-147.91 -128.22c-203.66,-152.34 -489.8,-177.76 -732.04,-109.87l-89.24 29.14c-2.69,1.3 -5.97,3.12 -8.62,4.5 -2.61,1.35 -5.73,3.44 -8.34,4.83 -80.15,43.57 -152.74,84.77 -220.86,147.43 -71.96,66.19 -124.9,127.04 -151.9,229.44 -24,91.21 -27.8,126.44 -27.96,236.08 -0.2,179.5 91.29,345.09 201.53,442.98l21.27 18.19c274.27,234.5 832.74,140.52 921.58,-212.48 10.17,-40.29 17.44,-64.72 8.39,-112.32 -29.46,-155.66 -45,-126.45 -113.12,-255.18 -65.56,5.46 -43.81,29.65 -82.99,-21.47 -52.9,-68.95 -44.05,-48.43 -108.53,-74.29 -2.1,-0.87 -5.77,-2.45 -7.95,-3.12l-78.48 -2.5c-11.39,0.04 -31,-1.14 -56.3,3.6 -39.58,7.4 -66.74,19.1 -97.9,33.89l-62.59 42.66c-1.97,1.82 -4.7,4.62 -6.64,6.52 -1.94,1.9 -4.63,4.71 -6.52,6.6 -52.67,52.35 -103.99,116.09 -110.27,192.2 -54.25,-39.74 -74.81,-122.25 -54.05,-197.73 12.69,-46.06 26.13,-64.84 55.71,-89.91l43.41 -35.47c3.04,-2.41 11.42,-9.44 14.51,-11.78 2.57,-1.86 23.21,-15.77 23.48,-15.97 185.71,-110.83 464.3,-34.95 604.18,124.03 137.79,156.65 152.74,370.19 107.9,574.68 -36.97,168.87 -154.75,324.45 -305.86,404.35 -248.26,131.35 -661.95,117.55 -928.04,-37.4l-233.59 -200.42c-122.64,-146.01 -181.2,-325.19 -138.26,-562.03 23.01,-127.15 100.98,-298.27 177.33,-401.3 21.7,-29.34 34.04,-38.87 57.29,-74.3 26.01,-39.69 30.88,-50.64 62.86,-81.76 21.47,-20.92 9.14,-6.92 31.91,-33.84 100.9,-119.45 232.92,-209.59 360.31,-297.29l104.93 -66.11c66.46,-34.2 139.61,-65.51 184.37,-131.22 9.88,-14.55 19.92,-36.69 27.2,-51.76 65.16,-135.81 72.51,-240.03 -70.02,-321.08l-135.1 -69.39c-97.27,-22.66 -133.84,-33.77 -203.19,-16.49 -325.39,81.17 -481.53,281.59 -563.37,303.45 -15.34,-57.45 -50.22,-106 -101.42,-122.17 -19.37,-6.13 -36.17,-8.58 -69.58,-9.33 -3.76,42.5 -37.13,45.51 -67.93,62.71 -35.82,19.96 -3.72,-1.9 -33.45,20 -41.59,30.57 -69.55,81.13 -98.72,124.9 -104.27,156.06 -111.18,312.23 -141.63,397.56 -32.66,91.29 -23.76,182.94 -21.23,274.59 1.34,47.01 -3.04,94.21 2.41,151.15 7.47,78.24 18.54,129.21 18.54,205.24 -8.02,-9.21 -7.71,-6.45 -17.15,-22.3 -67.1,-112.45 -117.87,-492.84 -103.95,-610.98 36.81,-311.36 68.12,-636.16 49.9,-954.64 -6.88,-119.09 -65.71,-269.69 -127.16,-370.47 -8.46,-13.95 -8.38,-14.19 -18.94,-33.6 -11.97,-22.03 -22.1,-41.6 -33.17,-58.92 -24.91,-38.98 -54.56,-70.81 -83.66,-113.67 -69.15,-102.08 -126.44,-136.76 -257.79,-136.76l-29.41 63.58c-47.09,97.66 42.62,219.32 65.75,386.68 8.94,65 3.08,140.63 3.08,207.3l-239.95 -207.26c-42.9,-37.8 -69.47,-78.37 -115.81,-107.7l-66.74 -51.68c-1.9,-1.94 -4.39,-4.9 -6.36,-6.8l-128.98 -107.74c-1.97,-1.82 -4.78,-4.59 -6.76,-6.37 -11.7,-10.39 -22.85,-18.42 -37.48,-28.3 -169.02,-113.52 -230.7,-211.49 -465.79,-204.14 -63.5,1.98 -97.98,8.19 -166.62,38.08 -71.04,30.99 -111.85,58.67 -167.2,109 -2.02,1.82 -4.75,4.59 -6.72,6.41 -2.02,1.82 -4.71,4.58 -6.76,6.4 -2.02,1.78 -4.83,4.47 -6.96,6.21 -43.22,36.26 -35.7,16.84 -69.11,62.39 -1.66,2.25 -3.6,5.62 -5.26,7.91 -1.62,2.25 -3.68,5.53 -5.3,7.79l-86.03 124.42c-45.55,75.01 -57.89,179.7 -51.92,248.85 3.24,37.25 10.99,44.09 55.51,56.82 87.86,25.11 87.54,-21.07 170.77,-39.62 128.22,-28.58 527.75,85.76 656.76,171.16 16.84,11.11 24,14.16 40.53,25.27 142.17,95.6 239.59,170.68 353.66,317.09 191.32,245.57 204.81,376.52 249.48,654.11 14.71,91.22 1.59,221.34 0.91,320.5l28.08 244.06c9.72,74.73 54.99,184.01 81.92,248.97l81.05 155.58c-111.18,-25.89 -209.19,-82.75 -315.83,-118.17 -9.37,-3.13 -44.75,-14.91 -58.12,-20.8l-276.13 -92.16c-85.16,-24.48 -153.41,-41.16 -234.22,-68.25 -58.72,-19.65 -62.75,-8.69 -123.08,-21.58l-231.3 -56.03c-190.06,-35.35 -405.38,-78.84 -602.75,-83.27 19.41,-83.3 112.01,-182.38 157.71,-236.79l197.18 -184.2c134.82,-97.54 200.46,-92.68 368.49,-78.68 0,162.93 31.79,327.17 144.55,447.25 123.56,131.62 217.34,183.93 421.08,183.93l32.93 -59.19c1.78,-2.14 4.47,-4.9 6.17,-7.04l71.21 -111.93c1.26,-2.37 3.36,-5.81 4.63,-8.3 8.06,-15.58 12.77,-30.01 19.8,-46.89 70.78,-168.44 37.01,-267.16 17.64,-429.82l-60.02 -205c-15.1,-40.73 -23.17,-50.77 -43.53,-87.98 -100.55,-183.61 -208.92,-323.3 -419.85,-382.44 -223.99,-62.79 -399.53,-20.88 -588.64,89.86 -62.55,36.62 -110.27,60.46 -168.32,107.86 -51.83,42.39 -98.01,67.57 -144.66,118.38 -28.99,31.51 -29.02,38.98 -61.01,70.54l-252.65 260.31c-32.18,35.47 -40.05,50.26 -84.21,73.58 14.07,-60.33 141.03,-294.63 194.09,-358.29l83.3 -100.82c1.78,-2.06 4.55,-4.78 6.37,-6.8 16.8,-19.34 19.97,-23.05 35.15,-43.77l122.45 -127.43c68.79,-67.65 -57.37,52.59 13.16,-13.17l42.31 -36.61c76.98,-68.56 100.62,-141.78 30.96,-222.12 -132.1,-152.46 -202.24,-191.84 -302.59,-394.43 -17.91,-36.02 -5.53,-11.23 -23.84,-41.95l-32.58 -59.46c-101.41,-174.29 -278.07,-568.87 -329.19,-749.25 -13.48,-47.72 -23.72,-54.36 -39.89,-104.77 -21.91,-68.36 -35.98,-137.87 -58.04,-218.09l-82.4 -377.75c-10,-42.62 -10,-11.58 -14.39,-64.68 -88.65,1.98 -56.66,11.47 -98.53,177.64l-54.92 221.34c-10.24,35.98 -16.09,71.01 -27.12,104.3l-217.62 610.93c-61.83,150.64 -221.84,474.26 -311.4,609.24 -1.54,2.34 -3.63,5.58 -5.18,7.95l-56.18 88.49c-32.14,46.25 -36.06,33.64 -66.9,64.6l-78.2 79.63c-58.95,81.45 -93.94,143.64 -50.93,212.24l71.25 73.66c101.18,91.88 223.07,203.85 293.53,324.56l73.46 137c79.71,138.07 54.92,111.89 94.69,194.69zm-1788.69 19397.04l0 0 -605.36 12.85c-1.34,-61.95 -27.99,-92.83 -69.86,-114.85 -75.36,-39.74 -615.96,56.93 -719.28,62.35l-435.35 22.38c-144.43,3.63 -314.95,31.51 -458.95,30.36 -41.56,-0.32 -74.41,0.04 -115.29,3.28l-1581.79 62.24c-3.17,0 -7.95,-1.7 -9.37,1.58 -1.31,3.24 -7.4,1.06 -9.29,1.18 -15.19,1.03 -17.99,0.75 -27.72,1.11 -30.68,1.11 -22.81,0.43 -50.33,3.76 -959.27,29.21 -1916.75,74.8 -2876.06,71.24 -114.7,-0.43 -174.68,13.64 -289.3,13.25l-776.13 -0.04c-45.31,0 -40.4,-50.93 -162.97,-32.38 -37.84,5.69 -60.22,5.53 -99.67,7.55l-1015.22 3.12c-140.99,1.03 -517.07,-15.1 -649.76,-0.31 -157.84,17.55 -379.17,9.6 -545.43,8.77l-564.87 14c-39.62,3.36 -40.53,9.25 -80.07,10.52 -16.21,0.51 -34.67,-1.94 -41.31,-1.9l-537.28 3.12c-72.99,1.03 -83.94,13.41 -157.01,14.32 -166.37,2.05 -441.95,26.72 -594.61,17.31l-175.74 5.02c-77.57,5.3 -137.79,-16.21 -137.79,56.03 0,71.48 183.61,47.84 236.08,53.34 1.74,0.19 41.2,3.71 42.58,3.71l166.42 4.04c112.72,-6.45 542.81,28.78 711.44,24.03 213.5,-5.97 537.71,20.6 770.2,29.42 2.76,0.08 6.64,-0.08 9.25,0.04 207.33,9.37 410.64,-4.47 625.13,6.92l2072.69 12.26c156.29,-25.39 349.32,-34.32 512.77,-20.17 828.23,1.31 1681.93,-5.85 2508.23,38 170.14,8.97 376.25,-11.82 545.63,13.84l836.77 31.43c97.74,0.35 96.4,17.16 196.11,13.44 42.86,-1.58 74.25,0.75 114.42,5.62 27.52,3.36 19.85,2.64 50.38,3.79 2.72,0.12 6.56,-0.08 9.29,0.04l587.25 28.59c48.75,-2.77 9.77,-3.48 49.23,-2.1 80.42,2.89 153.44,11.11 216.94,16.01l559.14 32.7c42.94,6.25 64.17,6.45 111.26,8.3l140.84 5.93c26.21,1.82 20.56,2.22 57.05,4.75l368.89 24.43c21.23,-0.31 3.75,-0.55 40.17,1.39l403.44 30.6c73.3,7.91 153.88,21.67 213.03,-41.08 24.63,-26.13 24.63,-13.32 25.82,-66.27 764.7,0 1551.5,30.37 2315.06,52.63 60.21,0 -8.5,-6.48 46.97,-4.19 13.72,0.55 49.81,6.09 66.34,7.27 164.8,11.9 66.19,-23.84 214.45,63.74 40.93,24.16 93.47,35.7 148.51,38.39l51.95 0c67.61,-3.08 134.59,-17.59 184.64,-36.97 68.96,-26.69 26.81,-12.77 69.51,-49.97 41.08,-35.75 113.2,-22.5 166.65,-22.9l669.34 -8.1c560.37,-16.77 1122.24,-39.9 1683.2,-39.9 125.69,0 -11.98,162.7 351.53,114.74 212.91,-28.07 466.67,-31.27 693.77,-56.14l788.62 -48.2c15.22,-0.99 17.95,-0.71 27.72,-1.06 99.04,-3.6 180.41,-21.91 277.79,-20.01l756 -32.22c2.3,-0.12 6.65,-0.24 9.22,-0.36 22.57,-0.91 20.87,0.87 48.78,-2.21l348.61 -19.89c74.92,-1.94 129.13,-13.8 223.19,-13.56 1240.89,-44.09 2473.49,-64.61 3714.73,-68.64 8.82,-1.03 20.49,-2.17 26.06,-2.77 139.09,-14.43 261.31,12.34 389.49,18.9 42.5,2.22 89.35,-0.99 132.45,-0.28 166.29,2.81 1198.9,16.93 1359.55,-7.39 129.84,-19.65 567.4,1.86 743.94,-9.57l963.22 -31.63c142.85,-16.88 301.87,7.28 443.85,-4.5l435.35 -12.18c26.73,-0.2 48.99,-2.06 74.37,-3.4 76.98,-4.08 208.84,-15.19 284.63,-3.36 50.89,7.94 140.21,7.86 140.21,-72.4 0,-59.46 -82.36,-39.61 -144.99,-39.1 -81.33,0.63 -101.57,-13.84 -183.38,-13.96l-1658.01 -25.66c-116.05,0.64 -210.74,-13.56 -342.12,-13.04 -127.59,0.55 -181.72,-15.9 -334.26,-9.81l-559.85 -16.8c-285.66,0.67 -1344.88,-23.21 -1464.96,8.3 -222.56,58.4 -572.07,4.78 -810.72,4.86 -944.32,0.24 -1897.18,-33.25 -2841.74,-52.07 -70.93,-0.87 -77.53,-12.14 -143.76,-14.11l-291.75 -8.11c-178.99,1.31 -398.38,-3.24 -593.5,-25.98l-155.46 -5.25c-65.48,-13.17 -139.53,-2.93 -211.21,-10.88 -272.06,-30.2 -532.42,-16.09 -817.57,-46.89 -3.2,-0.35 -25.85,-2.69 -25.93,-2.73l-240.27 -14.9c-280.53,-22.1 -894.07,-47.49 -1114.69,-78.52 -47.88,-6.77 -111.82,-9.37 -158.12,5.65 -108.13,35.03 -29.41,122.29 -167.08,122.29l-253.68 -10.75c-609.99,-54.33 -1338.15,-40.02 -1962.42,-58.92 -91.57,-2.76 -196.46,18.98 -261.34,-6.01 -82.08,-31.67 -176.89,-165.78 -444.44,-57.64 -52.35,21.19 -72.75,58.36 -117.71,66.42 -188.87,33.93 -1710.76,41.87 -1945.38,40.88zm1683.4 -4892.21l0 0 -909.17 3.48c-37.24,1.94 14.83,-1.58 -27.95,0.32l-1391.1 35.62c-4.03,-180.61 -246.52,-103.78 -344.29,-101.53 -130.6,3.04 -305.87,35.82 -431.76,35.82l-52.94 6.68c-13.84,1.47 -45.82,4.31 -78.24,6.25l-244.78 17.87c-26.93,1.19 -36.89,1.7 -60.26,3.6 -10.04,0.79 -45.03,3.83 -75.63,6.13 -179.11,13.32 -369.44,37.04 -554.05,26.13 -82.39,-4.86 -105.48,8.74 -170.84,11.98 -126.01,6.25 -278.11,20.32 -410.09,15.03 -37.56,-1.55 -48.39,0.91 -80.18,3.48l-2497.25 92.51c-201.56,-0.15 -453.1,-20.67 -676.61,13.13 -168.11,25.42 -356.75,-1.9 -531.7,7.55l-526.13 13.21c-86.07,0 -175.55,-5.89 -260.44,3.6 -38.27,4.27 -56.89,6.05 -92.79,5.18l-234.85 2.8c-1.39,3.05 -7.44,-1.06 -9.38,-1.14l-18.58 -0.87c-24.91,-0.64 -14.07,5.14 -49.26,-1.78 -62.04,-12.26 -36.34,-23.77 -92.68,-40.09 -53.65,-15.58 -174.12,10.16 -230.5,10.59l-2484.4 21.39c-81.13,-0.31 -102.68,12.61 -170.8,14.28 -69.71,1.66 -94.18,-9.69 -138.62,-6.81 -276.57,17.95 -589.08,-9.05 -864.62,28.71 -102.32,14 -346.7,10.24 -450.93,7.04l-347.85 9.68 0 92.05c178.83,0 361.46,26.33 526.21,26.33 58.16,0 -6.21,-5.61 46.3,-3.91l214.81 5.81c154.67,17.35 380.15,0.35 529.8,23.44 116.96,18.07 575.32,13.29 778.19,24.79l2554.89 18.7c2.29,-0.23 21.19,-4.19 25.9,-4.94 2.25,-0.35 6.13,-0.95 8.42,-1.3 2.17,-0.36 6.09,-0.75 8.34,-1.07 2.22,-0.32 6.05,-0.67 8.34,-1.03 194.29,-29.85 148.07,-21.07 363.04,-21.07 257.31,0 540.84,-7.04 776.8,12.45 460.1,38.08 1106.46,-43.09 1519.59,19.42l992.09 33.88c112.4,-0.43 172.26,14.35 276.21,13.17 62.86,-0.72 94.41,4.86 136.01,9.76l418.39 14.63c126,14.04 250.19,5.14 381.18,12.93l1666.48 105.88c177.84,-8.02 734.06,62.95 828.59,50.49 67.81,-8.93 105.02,-46.61 120.87,-114.78 60.73,1.35 44.12,13.13 92.08,13.13l2249.94 39.14c31.08,0.12 54.33,0.52 84.26,3.76 76.19,8.22 109.95,-7.51 166.29,34.44 52.63,39.22 134.23,76.07 204.06,75.39 76.19,-0.71 183.37,-14.98 252.68,-63.1l45.99 -32.85c2.53,-1.47 5.65,-3.6 8.26,-4.95 2.69,-1.3 5.93,-3.16 8.86,-4.31l2496.45 -56.53c27.36,-0.6 20.13,-0.8 60.38,-4.12 12.89,154.56 192.43,127.63 296.69,112.49l729.43 -46.7c94.34,-5.02 192.04,-20.87 263.09,-25.3 172.18,-10.75 607.02,-46.14 778.77,-44.76l154.52 -8.5c178.31,-7.03 306.97,-26.53 487.58,-26.45l302.18 -13.36c11.71,-0.59 371.82,-27.68 377.63,-14.75 785.69,-27.68 3795.63,-159.38 4082.16,-77.85 31.11,8.9 -4.67,2.1 33.49,8.26l2842.01 -36.88c30.96,-3.96 109.33,4.38 176.03,3.4 74.68,-1.11 91.13,-14.04 170.05,-14.16 65.83,-0.12 131.86,0.36 197.77,0.44l1105.12 -19.3c27.24,-1.74 95.36,-7 144.47,-7 56.58,-84.41 65.51,-108.05 -65,-105.96 -52.94,0.83 -105.65,0.71 -158.59,0.75 -116.2,0.16 -183.14,-13.91 -289.26,-13.32 -185.63,1.07 -439.46,14.23 -617.7,-0.51l-592.55 -25.66c-100.86,0.39 -201.76,-0.08 -302.62,0.07 -196.5,0.24 -404.83,-26.53 -591.41,-26.76 -101.06,-0.16 -202.27,0.31 -303.33,0.75 -100.27,0.39 -174.32,-13.52 -289.06,-13.48l-1371.89 -4.75c-66.42,9.33 -84.37,31.08 -127.62,31.08 -706.62,0 -1436.89,-34.24 -2129.03,-33.89l-1226.27 -27.87c-23.64,0.71 -2.25,0.4 -40.05,-1.9l-618.53 -26.49c-108.14,-12.14 -253.52,1.9 -366.83,-1.5 -68.48,-2.02 -89.71,-13.48 -170.77,-13.48l-1386.98 -75.01c-54.41,0.95 -33.02,-17.12 -72.83,-17.12l-640.99 -29.89c-258.02,-34.59 -303.69,-20.6 -462.59,-36.92 -75.44,-7.75 -205.95,-34.6 -275.7,25.46 -29.49,25.42 -7.23,8.38 -12.53,15.5 -25.07,33.52 -27.4,13.16 -28.86,78.44 -49.5,-1.11 -42.07,-6.92 -79.16,-9.13 -10.12,-0.64 -27.52,-0.16 -28.43,-0.2l-159.33 -0.71c-195.28,-10.32 -569.31,-3.48 -732.08,-16.96l-938.99 -28.2c-183.85,7.04 -380.98,-23.68 -548.03,-23.68 -64.25,0 -66.27,5.34 -131.15,-39.77 -78.72,-54.68 -186.66,-62.35 -288.35,-50.97 -136.48,15.22 -141.15,123.64 -378.45,114.42l-57.06 2.61zm-4866.9 -8113.79l0 0c0,30.61 10.24,37.33 8.85,67.57l-9.13 551.16c0.2,35.11 2.45,63.46 4.82,93.98l202.52 1329.22c11.7,36.62 8.85,11.67 19.37,59.47l181.8 541.35c99.79,220.86 87.22,210.9 196.82,210.9 52.94,0 64.68,-19.77 89.15,-55.52l10.72 -15.65c83.9,-116.2 176.42,-247.87 176.42,-402.26 0,-32.66 -18.86,-78.92 -29.14,-115.53 -4.75,-16.76 -9.81,-36.53 -17.44,-61.48 -13.44,-44.32 -7.35,-25.86 -22.26,-56.62 -62.71,-128.97 -100.82,-331.44 -130.24,-474.77 -32.14,-156.96 -77.1,-319.27 -90.7,-487.94 -28.94,-360.66 -93.66,-789.92 -42.74,-1174.35 21,-158.42 17,-318.51 46.58,-492.6 3.71,-21.63 15.77,-51.08 19.33,-72.71 6.05,-36.29 1.5,-59.23 9.1,-96.11 8.61,-41.6 27.08,-104.19 35.14,-145.15l102.13 -454.05c32.3,-101.89 72.83,-178.36 97.3,-284.08l104.03 -277.4c91.33,-195.59 166.65,-394.19 271.15,-583.69l636.91 -980.78 339.28 -423.53c70.06,-84.49 117.82,-127.11 13.24,-197.13 -112.33,29.97 -456.9,262.81 -528.5,339.55l-502.96 575.55c-67.65,97.7 -142.97,181.24 -204.45,282.18l-357.7 615.49c-70.93,135.18 -172.46,331.28 -220.23,476.82l-157.63 434.13c-119.01,388.5 -199.67,794.67 -243.16,1202.07l-8.38 71.91zm8431.59 -3931.95l0 0 172.94 208.48c57.61,72.91 104.5,144.99 166.14,215.29 31.39,35.82 56.81,64.84 80.97,103.07l318.24 444.56c27.84,37.29 47.84,82.84 74.77,122.53 11.23,16.57 3.99,5.02 16.8,22.62l21.51 31.15c15.02,25.7 16.13,33.93 32.26,59.74 28.35,45.16 51.2,73.35 76.71,120.63l136.52 244.9c12.38,20.17 22.77,39.74 33.25,59.82l243.67 557.52c10.28,28.04 13.33,38.16 24.4,67.69 61.83,165.59 124.23,338.76 159.77,510.87 18.38,88.88 50.41,144.08 60.89,228.49l76.46 396.96c27.17,97.3 33.26,229.16 49.07,332.31l31.35 560.37c0,198.17 -27.95,622.41 -59.7,821.4l-66.86 361.14c-18.9,132.29 -112.17,478.61 -153.4,589.03 -13.37,35.75 -28,70.54 -39.26,105.41 -45.47,140.88 -48.24,202.08 18.58,343.59 30.01,63.65 144.67,278.03 208.56,278.03 48.79,0 103,-9.18 122.17,-41.68 82.28,-139.57 244.9,-541.19 264.94,-687.09 2.65,-19.09 3.64,-37.32 13.25,-66.77l107.07 -433.06c11.62,-55.63 10.79,-105.53 22.06,-161.99 39.85,-199.23 65.12,-430.25 80.82,-632.29 24.86,-318.2 17.31,-738.13 -19.42,-1066.45l-98.13 -559.38c-7.99,-34.32 -9.77,-64.33 -16.05,-89.12l-37.76 -159.53c-27.2,-113.4 -56.58,-242.33 -109.68,-350.59l-8.82 -17.51c-36.85,-84.49 -87.26,-260.44 -142.77,-383.28l-543.25 -1008.65c-53.85,-93.7 -98.96,-130.91 -146.6,-195.36l-295.19 -375.53c-1.94,-1.93 -4.86,-4.42 -6.8,-6.32l-102.6 -120.99c-37.25,-43.92 -47.57,-66.3 -94.1,-103.23 -45.79,-36.3 -68.44,-63.14 -112.69,-97.74 -107.14,-83.78 -224.57,-183.1 -347.85,-244.03l-146.49 -63.93c-19.29,28.79 -43.33,53.1 -65.75,78.92z"/>
 </g>
</svg>
