<?xml version="1.0" encoding="UTF-8"?>
<!DOCTYPE svg PUBLIC "-//W3C//DTD SVG 1.1//EN" "http://www.w3.org/Graphics/SVG/1.1/DTD/svg11.dtd">
<!-- Creator: CorelDRAW 2017 -->
<svg xmlns="http://www.w3.org/2000/svg" xml:space="preserve" width="80mm" height="80mm" version="1.1" style="shape-rendering:geometricPrecision; text-rendering:geometricPrecision; image-rendering:optimizeQuality; fill-rule:evenodd; clip-rule:evenodd"
viewBox="0 0 8000 8000"
 xmlns:xlink="http://www.w3.org/1999/xlink">
 <defs>
  <style type="text/css">
   <![CDATA[
    .fil0 {fill:#D7B56D}
   ]]>
  </style>
 </defs>
 <g id="Слой_x0020_1">
  <metadata id="CorelCorpID_0Corel-Layer"/>
  <g id="_2400594446464">
   <path class="fil0" d="M6853.01 5181.64l-125.01 -3223.22c-85.8,-1.91 -305.64,-89.76 -437.5,107.14 24.42,33.32 96.95,59.79 152.55,62.57 44.79,2.25 136.57,-31.66 169.86,-43.74 185.58,-67.39 460.91,109.57 549.76,287.59 53.97,108.17 65.34,205.05 65.34,363.22 -1.32,0.62 -3.82,-0.85 -4.28,0.71 -4.64,15.77 -13.47,-12.26 -51.56,32.49 -24.39,28.64 -21.09,45.64 -60.23,56.09 0,-108.33 16.23,-213.16 -14.41,-315.94 -20.9,-70.11 -91.42,-173.57 -164.17,-192.99 -7.7,33.09 -14.72,24.97 -17.85,62.5 -50.27,-36.83 -59.41,-169.65 -241.07,-169.65 0,92.91 21.2,120.32 26.79,187.51 -37.98,-8.85 -68.38,-17.86 -116.09,-17.86 -14.62,175.98 14.02,218.2 95.32,351.12 64.42,105.34 142.44,197.32 110.05,336.38 -8.02,-9.23 -2.44,4.02 -13.58,-22.14l-32.64 -83.43c-13.31,-28.11 -39.74,-76.95 -71.55,-91.02 -71.9,-31.81 -49.97,211.1 -42.95,241.23 -29.94,-15.84 -46.21,-32.13 -89.28,-35.71 0.93,42.04 9.16,76.89 8.96,133.91 -0.19,47.69 -0.04,95.38 -0.24,143.08 -0.73,168.41 41.35,174.57 -30.26,362.2 -30.81,80.77 -73.85,162.16 -130.41,226.73 -16.36,18.68 -13.98,23.6 -44.47,26.94 77.37,-115.56 -0.53,-300.61 -8.93,-401.79 -47.02,12.56 -77.63,73.08 -106.01,108.28 -77.1,95.57 -102.45,195.11 -126.96,310.56 -32.21,151.78 -83.67,273.43 -183.39,388.02l-227.96 298.83 -68.86 145.44c-36.78,102.57 -85.2,221.13 -105.9,331.59 -10.79,57.41 -22.9,146.42 -20.61,202.7 4.39,109.23 49.95,271.8 93.3,344.89 53.57,90.29 116.3,185.84 210.67,235.77 -7.92,-29.63 -105.33,-156.36 -130.95,-208.35l-53.24 -116.4c-17.44,-53.4 -30.46,-70.76 -30.45,-139.22 0.1,-338.35 227.87,-340.86 330.7,-232.46 0,-148.14 -77.02,-113.72 -116.06,-187.5 55.99,-26.87 106.16,46.88 226.69,94.72 62.67,24.87 148.93,23.44 216.74,0.5 27.94,-9.45 39.78,-17.79 65.5,-23.79l0 -17.86c-93.53,-2.08 -136.62,-111.28 -166.95,-181.27 -16.1,-37.19 -29.44,-39.1 -38.41,-77.66l37.19 -25.31c26.54,-18.05 39.99,-34.68 43.16,-72.9 -107.82,72.2 -157,-1.38 -225.15,-51.64 -100.99,-74.5 -176.32,43.8 -239.13,60.57 19.6,-84.17 86.71,-152.11 149.61,-207.53 136.24,-119.97 295.83,-236.49 495.85,-206.22 56.78,8.59 103.42,23 122.93,38.22 48.38,37.79 53.04,65.27 53.04,143.38 84.51,-56.59 63.92,-141.37 62.5,-205.35 57.27,-4.77 74.59,-10.64 91.97,59.93 13.98,56.77 -0.55,100.37 -20.45,145.51 -38.87,88.12 -96.41,124.92 -223.31,124.92 5.3,-63.59 17.73,-118.97 -33.88,-153.68 -91.49,-61.55 -230.73,40.86 -141.2,176.97 27.83,42.32 68.57,74.55 123.67,82.32 84.68,11.92 170.05,-26.67 231.91,-67.98 13.5,-9.01 17.97,-13.49 29.99,-23.58l71.43 -80.35c10.63,-16.44 9.6,-18.03 17.66,-35.92 31.48,-69.89 20.12,-158.91 3.99,-228.14 89.15,7.41 114.7,182.5 17.97,294.76 -73.77,85.63 -114.39,43.68 -153.09,168.35 -6.02,19.42 -30.86,69.31 -17.51,82.65 29.62,29.62 157.94,-5.52 182.39,-16 44.67,-19.17 97.03,-63.87 123.6,-99.62 134.79,-181.37 33.71,-229.8 25.21,-331.93 91.17,21.24 100.47,204.02 85.65,272.91 -18.95,88.12 -110.66,178.91 -175.11,217.99 -100.28,60.8 -161.47,34.26 -246.26,146.59 -31.67,41.96 -48.33,74.54 -60.95,135.48 -4.52,21.78 -11.64,69.64 -13.15,85.78 -3.97,42.4 7.19,49.66 8.04,87.68l17.85 0c12.26,-45.89 81.72,-95.6 131,-110.07 52.9,-15.53 132.45,-13.72 172.58,-68.5 101.35,-23.61 406.53,-323.85 247.13,-639.98l-61.79 -98.95c-39.03,-43.21 -51.89,-65.27 -99.3,-106.04 -1.97,-1.69 -7.69,-6.51 -9.66,-8.19l-59.76 -47.39c-223.66,-168.35 -518.34,-147.14 -747.06,0.47 -36.42,23.51 -66.71,47.49 -99.92,69.72 12.95,-48.47 109.01,-133.96 151.79,-169.64 1.42,-1.19 3.48,-2.84 4.89,-4.03l252.75 -184.76c1.54,-1.08 3.6,-2.69 5.14,-3.79 156.65,-112.56 224.28,-188.86 390.52,-296.97 77.9,-50.66 154.85,-27.03 241.05,-53.6 86.79,-26.77 172.11,-145.11 316.64,-114.33 56.16,11.96 55.97,34.76 92.58,59.26 32.6,-139.95 -69.51,-151.94 -125,-178.57 21.61,-32.26 27.43,-40.78 55.61,-69.4 31.12,-31.63 32.7,-37.77 85.21,-49.48 40.33,-9 153.91,-5.37 127.04,109.95 95.75,-22.31 86.49,-124.78 21.69,-173.48 -28.46,-21.39 -37.72,-18.15 -66.34,-31.88l75.44 -129.93c51.43,-53.91 79.13,-37.24 156.7,-30.79 -55.34,-104.58 -103.6,-133.92 -249.99,-133.92 5.71,-24.55 12.13,-46.88 17.85,-71.43 -112.01,0 -208.36,74.38 -269.19,150.46 -17.16,21.47 -42.89,62.91 -70.09,72.75 0.35,-15.98 35.09,-150.74 45.47,-258.1 10.12,-104.7 3.29,-170.06 -12.18,-275.18 -31.79,-215.85 -194.1,-418.9 -374.19,-536.54 -138.53,-90.49 -321.58,-163.52 -490.59,-167.51 -55.28,-1.3 -173.68,20.51 -204.22,23.04 0,103.3 12.98,23.01 268.11,35.46 52.96,2.59 218.36,54.51 258.66,89.55l125.01 3223.22z"/>
   <path class="fil0" d="M2478.01 5226.28l-678.58 -3187.5 -410.72 -80.36 1089.3 3267.86zm0 0c15.77,67.7 52.86,83.86 53.95,187.14 1.66,156.04 -42.37,244.2 -115.94,366.97l-98.73 151.25c32.58,-17.24 35.77,-23.89 62.61,-44.51 30.96,-23.78 28.41,-25.32 52.21,-54.94 104.82,-130.44 189.07,-305.12 188.84,-480.9l-28.17 -218.6c-9.59,-58.25 -31.58,-151.06 -55.31,-206.95l-62.41 -160.81c-75.15,-149.25 -81.21,-140.17 -177.13,-260.37 -17.46,-21.92 -29.72,-43.19 -48.2,-67.86 -11.23,-14.98 -12.32,-16.99 -23.19,-30.39 -113.44,-139.81 -164.53,-200.16 -209.07,-407.01 -8.26,-38.39 -14.15,-54.82 -21.02,-86.11 -24.26,-110.33 -23.81,-125.67 -105.1,-234.19 -29.11,-38.85 -72.8,-103.56 -109.79,-113.44 -3.88,46.79 -85.9,286.83 -8.92,401.79 -30.03,-3.29 -42.5,-16.81 -76.59,-66.27l-76.67 -137.6c-104.72,-222.3 -51.24,-263.11 -51.89,-412 -0.2,-47.69 -0.1,-95.37 -0.21,-143.07 -0.13,-58.84 5.19,-88.91 8.94,-133.92 -43.54,3.62 -53.43,18.44 -89.3,26.78 11.57,-24.1 27.73,-263.57 -42.95,-232.3l-29.84 25.43c-28.47,33.26 -49.15,72.61 -63.46,115.26 -9.79,29.11 -7.05,35.87 -24.46,55.9 -47.95,-205.81 128.06,-306.7 191.17,-487.39 30.88,-88.36 21.87,-107.83 14.2,-200.11 -47.71,0 -78.12,9.01 -116.09,17.86 5.96,-71.44 26.79,-26.61 26.79,-187.51 -80.75,0 -106.1,21 -151.98,53.38 -60.63,42.77 -50.9,88.29 -89.08,116.27 -3.14,-37.53 -10.16,-29.41 -17.87,-62.5 -57.38,15.33 -139,111.7 -162.08,186.13 -30.28,97.63 -16.49,215.03 -16.49,322.8 -53.52,-14.29 -65.52,-92.62 -110.13,-90.47 -0.39,0.02 -2.71,0.51 -3.01,0.54 -0.3,0.03 -1.98,0.98 -2.93,0.64 0,-249.88 53.01,-465.11 276.65,-580.49l107.28 -53.44c263.31,-90.14 347.52,100.76 525.79,-9.91 17.53,-10.88 21.61,-11.62 27.78,-34.73 -21.8,-24.07 2.18,-7.37 -26.78,-17.85 -173.32,-164.42 -265.04,-83.61 -410.72,-80.36 10.85,-9.44 3.27,-4.5 20.79,-14.92 116.81,-69.38 278.16,-88.86 410.65,-70.91l26.56 6.04c16.02,4.99 -6.53,8.71 33.8,8.85 41.31,0.14 34.98,-15.75 34.98,-54.07l-193.78 -22.47c-181.69,-4.57 -358.01,75.8 -500.93,167.04 -48.03,30.66 -130.46,94.77 -166.34,137.23 -104.02,123.03 -179.68,234.57 -206.61,400.54 -53.51,329.85 29.7,431.03 31.94,531.95 -29.92,-10.83 -106.83,-113.38 -135.99,-140.78 -40.44,-37.97 -127.69,-82.43 -203.29,-82.43 6.24,26.79 15.41,50.86 17.87,80.36 -86.46,-41.49 -227.15,35.86 -250,133.92 48.48,-25.65 107.54,-20.14 156.97,12.75 1.27,0.84 3.74,2.16 4.87,3.05l70.29 135.99c-31.16,14.96 -36.42,8.07 -65.14,33.08 -60.57,52.75 -74.33,150.19 20.49,172.28 -10.7,-45.99 -17,-58.86 19.5,-87.6 99.95,-78.7 197.05,19.88 248.38,96.53 -42.89,20.58 -71.96,17.96 -103.89,56.84 -32.32,39.36 -34.05,66.2 -21.13,121.73 60.65,-40.61 87.04,-92.38 212.74,-52.01 75.01,24.08 125.33,82.18 189.83,104.81 189.8,66.58 108.49,-63.12 413.84,175.45 96.57,75.46 185.18,154.64 289.02,219.91l132.06 91.15c65.26,48.8 199.93,161.35 217.88,228.55 -37.08,-24.82 -68.88,-50.67 -110.87,-76.63 -42.9,-26.53 -86.92,-46.87 -131.27,-65.15 -193.29,-79.66 -433.58,-58.7 -610,75.36 -77.67,59.01 -142.56,118.63 -192.04,200.81 -57.1,94.82 -95.03,180.7 -76.08,298.36 25.62,159.01 107.52,268.42 222.15,358.23 163.65,128.23 176.53,74.51 270.51,122.33 39.08,19.87 89.49,53.23 100.82,95.62l17.85 0c1.72,-77.23 14.56,-73.84 -3.72,-165.93 -47.32,-238.57 -214.12,-237 -302.97,-286.31 -133.27,-73.96 -220.35,-228.62 -176.96,-379.61 11.92,-41.45 30.73,-110.32 81.86,-114.58 -9.5,114.09 -108.59,133.92 21.51,326.71 51.62,76.47 222.54,172.28 305,124.28 23.07,-13.44 -24.29,-132.55 -38.17,-150.04 -17.97,-22.63 -33.54,-32.43 -59.06,-48.09 -184.22,-113.12 -146.75,-343.08 -50.7,-351.07 -3.16,38.03 -14.31,41.87 -17.76,80.58 -6.21,69.97 3.86,117.59 32.93,172.11 10.14,19.05 31.7,44.2 45.88,61.25l51.61 46.61c102.15,76.9 275.34,120.69 362.31,-1.65 146.85,-206.59 -233.94,-297.02 -171.4,-28.54 -128.79,0 -183.67,-35.05 -223.3,-124.92 -16.81,-38.11 -34.45,-80.55 -22.11,-138.11 16.83,-78.52 26.75,-72.9 93.62,-67.33 -1.42,63.98 -22.02,148.76 62.51,205.35 0,-88.77 21.7,-144.1 99.62,-168.23 116.19,-35.99 263.86,-3.91 367.53,40.37 88.41,37.76 326.98,242.88 354.27,360.01 -76.57,-20.45 -134.14,-140.41 -253.43,-48.07 -49.65,38.45 37.44,-31.36 -9.76,8.1 -67.21,56.21 -121.27,84.49 -201.09,31.04 4.09,49.18 39.51,78.38 80.36,89.28 -1.71,20.46 -95.88,265.43 -205.36,267.86l0 17.86c134.28,31.28 174.01,97.17 389.12,-30.52 20.01,-11.87 36,-22.95 55.27,-34.49 28.38,-17 33.01,-21.55 64.54,-6.42 -40.48,76.5 -116.08,39.62 -116.08,187.5 32.5,-34.25 75.77,-71.22 150.54,-61.91 29.18,3.63 54.72,15.3 83.3,24.19l15.38 4.28c32.42,10.68 -4.55,1.31 27.58,24.51z"/>
   <path class="fil0" d="M3192.29 1386.99c-141.89,0 -95.12,-31.66 -160.72,-107.14 -5.49,65.96 -76.92,231.65 110.14,291.65 27.85,8.93 56.71,10.94 77.37,20.85 -13.77,26.02 -32.8,54.31 -35.72,89.28 179.83,0 237.25,-147.48 311.1,-278.18 27.99,-49.57 62.45,-99.34 110.06,-131.25 49.64,-33.26 30.2,-20.42 87.77,-19.14 0,95.4 -62.08,118.36 -125.3,169.35 -58.38,47.07 -22.33,112.76 -17.57,169.94 189.29,-4.22 220.04,-303.08 336.4,-282.79 136.27,23.77 -53.86,212.58 -90.29,243.17 -14.98,12.59 -1.22,2.14 -19.69,16.02 -103.14,77.39 -92.48,123.13 -92.48,246.81 132.49,0 123.07,-96.49 196.42,-116.08 52.84,94.06 -107.14,96.89 -107.14,187.51 0,35.14 -14,142.86 35.72,142.86 38.64,0 69.45,-72.49 81.52,-105.99 8.82,-24.49 16.98,-46.4 25.22,-72.99 10.7,-34.49 9.47,-43.67 45.04,-53.17 69.69,104.08 -76.61,190.08 21.59,308.78 71.41,86.33 83.81,83.96 153.27,0 1.17,-1.43 2.9,-3.42 4.04,-4.87l7.79 -10.07c73.77,-106.87 -55.59,-196.25 9.74,-293.84 32.54,8.69 34,16.55 43.14,46.16 63.05,204.43 144.37,241.99 144.37,114.56l0 -71.43c0,-88.75 -116.08,-75.38 -116.08,-160.72 0,-34.14 -2.74,-3.24 8.94,-26.79 28.5,7.62 22.56,6.89 41.74,29.68l15.69 20.02c32.99,40.03 83.38,66.38 138.99,66.38 0,-176.71 -0.62,-174.26 -126.34,-275.44 -31.86,-25.63 -123.66,-124.26 -123.66,-170.98 0,-24.11 4.26,-24.62 8.93,-44.65 162.68,-78.06 166.51,263.21 375,267.86 6.83,-82.05 44.21,-128.49 -28.13,-177.23 -38.08,-25.67 -39.04,-20.26 -69.04,-55.95 -32.19,-38.28 -45.69,-50.31 -45.69,-106.11 52.47,-1.17 85.38,-5.41 144.41,69.89 35.85,45.72 61.94,102.26 88.3,152.77l38.9 59.29c1.11,1.54 2.68,3.63 3.76,5.18 1.09,1.55 2.56,3.73 3.63,5.29 55.96,81.56 111.7,136.15 229.93,136.15 -2.92,-34.97 -21.95,-63.26 -35.72,-89.28 20.05,-9.63 45.91,-11.23 70.61,-18.69l86.77 -47.15c85.43,-87.73 36.32,-172.15 30.13,-246.66 -65.48,75.33 -19.54,107.14 -160.71,107.14 -57.62,0 -119.56,-39.71 -155.79,-67.43 -23.09,-17.68 -38.44,-29.98 -59.77,-47.37 -20.98,-17.08 -42.34,-34.58 -63.28,-52.79 -11.79,-10.25 -15.16,-14.38 -28.03,-25.54 -1.41,-1.21 -3.42,-2.91 -4.82,-4.12 -1.4,-1.19 -3.43,-2.89 -4.83,-4.08 -50.84,-43.03 -94.23,-78.51 -157.82,-101.12 -139.43,-49.57 -327.45,-22.61 -354.94,151.81 -15.76,99.99 67.22,458.36 -36.81,534.56 -105.51,-77.32 -18.45,-427.79 -37.93,-533.43 -38.91,-211.15 -277.18,-205.71 -424.78,-116.77 -69.38,41.81 -122.73,94.47 -182.44,147.92 -22.62,20.26 -40.03,31.69 -65.22,50.84 -37.59,28.58 -96.05,67.52 -155.69,67.52z"/>
   <path class="fil0" d="M2397.64 4020.92c0,-376.78 60.52,-594.67 230.52,-903.42 37.51,-68.12 91.61,-138.33 139.41,-199.85 173.54,-223.27 505.49,-460.45 763.94,-530.73 141.44,-38.45 272.98,-80.6 428.73,-80.19 48.89,0.12 61.37,-9.11 98.11,-9.11l181.23 15.29c221.51,29.11 139.83,18.05 338.56,72.15 87.01,23.69 232.87,92.21 309.41,137.03l22.17 13.55c149.63,96.88 228.75,159.62 351.83,282.09l137.98 165.6c136.84,206.37 190.63,298.78 265.01,556.42 86.14,298.33 70.41,706.01 -43.52,990.26 -42.8,106.8 -40.34,109.76 -93.74,209.84 -80.6,151.1 -190.17,292.49 -310.44,412.77 -263.14,263.17 -688.08,463.58 -1060.57,466.23 -49.08,0.35 -53.93,9.81 -97.92,9.81l-183.94 -13.08c-64.5,-9.39 -122.64,-18.6 -175.43,-29.9 -108.4,-23.21 -219.82,-59.91 -308.84,-101.9 -190.26,-89.75 -341.17,-182.05 -490.26,-331.16l-186.16 -215.64c-33.32,-51.67 -45.44,-54.15 -80.88,-124.47 -54.81,-108.76 -73.65,-103.8 -135.9,-274.82 -50.96,-140.03 -99.3,-367.38 -99.3,-516.77zm-71.43 -125l0 0c0,292.56 39.02,552.78 164.4,808.83l74.97 139.31c15.81,26.33 25.47,39.61 42.33,64.81l127.58 167.07c1.12,1.28 10.57,13.19 11.94,14.83l49.73 57.42c324.56,344.51 780.26,551.31 1261.19,551.31 496.53,0 990.62,-225.6 1307.62,-603.11l181.76 -246.81 139.15 -289.43c156.57,-450.5 139.06,-912.88 -63.65,-1345.17l-146.09 -246.78c-40.8,-52.07 -63.8,-94.76 -118.46,-149.38 -1.29,-1.3 -3.29,-3.04 -4.59,-4.34l-88.13 -90.43c-18.49,-18.49 -30.5,-31.04 -48.94,-49.29 -22.08,-21.84 -35.27,-28.58 -58.14,-49 -22.69,-20.27 -34.73,-28.47 -59.79,-47.36 -108.81,-82.07 -210.04,-143.99 -335.48,-200.24 -49,-21.98 -99.33,-40.6 -155.01,-59.27 -117.81,-39.51 -321.66,-82.48 -452.17,-83.54 -49.21,-0.4 -53.37,-8.94 -98.13,-9.73l-188.13 17.83c-132.41,10.28 -153.82,20.59 -271.33,50.09 -40.81,10.23 -46.97,13.26 -83.22,23.94 -150.21,44.29 -368.93,153.95 -486.7,254.36 -69.68,59.4 -70.79,44.84 -173.7,147.74 -118.46,118.47 -100.64,100.15 -207.64,238.78 -93.02,120.51 -158.51,261.66 -214.23,401.84 -56.96,143.23 -107.14,384.45 -107.14,535.72z"/>
   <path class="fil0" d="M3004.78 6226.28c-46.49,-69.43 -78.83,-67.49 -44.63,-214.28 49.73,4.13 23.42,22.04 80.34,26.79 -75.44,-112.67 -31.28,-133.14 -82.54,-194.24l-47.92 -41.36c-79.83,-53.39 -98.93,-18.75 -128.45,-59.05 57.84,-1.28 60.97,-25.87 241.18,-26.9 120.9,-0.7 301.21,75.75 375.1,178.47 59.93,83.33 44.42,114.93 44.42,232.36 62.65,-14.59 105.57,-47.42 139.18,-101.89 39.95,-64.76 28.28,-120.79 21.55,-201.68l42.33 38.02c38.57,50.06 95.48,183.88 44.49,245.23 -15.33,18.44 -32.9,21.59 -57.66,31.63 -83.1,33.7 -117.94,129.18 -119.78,221.56 -0.8,39.94 -14.18,66.27 116.5,51.98 24.26,-2.65 42.22,-10.2 62.24,-18.15l12.81 -5.04c8.38,-3.11 11.46,-3.63 20,-6.8 60.37,-22.4 91.63,-60.16 129.06,-85.22 -19.42,72.75 -136.21,157.2 -207.48,176.45 -107.72,29.07 -238.25,19.65 -247.87,-96.09 50.37,-11.74 60.74,-25.53 89.28,-44.64 0,-36.84 7.52,-105.31 -50.28,-128.36 -56.21,-22.42 -111.8,0.8 -135.23,32.15 -47.74,63.9 -12.43,197.84 57.97,268.38 37.62,37.69 56.6,49.41 118.36,60.47 98.85,17.67 193.18,-22.57 266.1,-82.86l100.22 -87.28c-16.15,60.5 -99.64,146.5 -173.03,175.18 -108.96,42.57 -184.11,21.91 -184.11,164.1 60.13,0 133.92,22.37 232.52,-26.4 172.98,-85.56 242.56,-271.9 258.31,-456.41 4.64,-54.27 -8.33,-84.5 -17.62,-124.33 66.33,48.6 93.59,316.8 -78,493.43l-43.38 45.9c-25.82,31.67 -49.77,97.28 -44.67,145.28 5.8,54.77 38.85,95.82 69.8,125.93 103.75,100.85 96.61,45.35 174.73,182.41 11.03,19.32 2.11,5.98 10.81,15.98 0,-81.65 -9.03,-129.82 -8.93,-214.28 0.08,-67.99 4.95,-157.27 -0.47,-222.75 -10.85,-131.07 4.16,-304.76 -9.65,-436.78 -6.17,-59.11 -23.46,-128.25 -46.31,-176.9 -91.49,-194.88 -261.15,-371.63 -466.92,-434.86 -54.05,-16.62 -124.26,-36.36 -182.19,-41.03 -64.2,-5.17 -137.7,-16.04 -212.8,-7.82 -167.53,18.34 -377.22,71.57 -503.95,165.69 -97.3,72.26 -170.65,115.74 -238.42,216.94 37.74,-8.79 61.95,-31.27 87.02,-55.83 97.04,-95.04 234.4,-7.28 234.4,109.41 24.41,-12.91 36.82,-17.63 54.39,-71.37 14.72,-45.08 -0.49,-63.93 -18.68,-98.28 127.81,10.63 -0.5,166.96 163.82,309.4l40.98 30.46c19.46,10.9 31.08,16.58 63.06,17.28z"/>
   <path class="fil0" d="M4352.99 6520.93c-22.27,-42.12 -68.49,-80.61 -80.34,-125 53.02,35.51 117.33,129 231.82,161.04 122.91,34.39 222.61,2.92 282.44,-84.29 48.38,-70.52 89.28,-247.1 -25.07,-271.55 -29.91,-6.39 -70.57,-2.21 -87.89,6.8 -37.71,19.61 -59.26,85.2 -35.85,125.97 14.12,24.59 46.99,41.35 80.98,44.17 -1.17,52.06 -41.94,82.09 -86.14,101.39 -117.18,51.18 -340.51,-74.24 -369.22,-181.75 19.03,12.74 25.61,22.07 44.56,35.8 79.36,57.47 151.2,86.36 251.16,81.47 41.1,-2.01 43.7,-3.04 45.06,-45.06 2.74,-84.95 -36.15,-196.3 -113.47,-228.09 -24.82,-10.2 -71.03,-7.69 -82.98,-87.43 -6.74,-44.95 16.15,-103.9 31.05,-134.87 16.76,-34.82 40.58,-82.71 74.62,-95.03 -6.83,82.13 -23.41,133.96 21.47,201.74 34.44,51.98 72.49,86.28 139.25,101.83 0,-150.74 -12.93,-198.61 107.81,-293.97 28.21,-22.26 55.36,-37.83 88.54,-54.31 111.64,-55.45 206.13,-79.57 344.84,-59 54.65,8.1 84.57,22.57 119.51,23.35 -27.71,37.84 -14.49,3.76 -94.01,39.9 -0.64,0.3 -23.04,11.96 -23.49,12.24 -69.5,41.11 -80.74,74.39 -95.82,145.24 -9.67,45.33 -24.4,65.61 -45.6,97.27 56.93,-4.75 30.63,-22.66 80.36,-26.79 8.91,38.28 19.66,84.86 11.77,118.18 -13.87,58.52 -31.59,59.03 -56.41,96.1 39.28,-0.87 60.68,-12.61 89.56,-35.43 172.93,-136.77 65.67,-263.8 143.63,-311.72 21.68,-13.32 -0.5,-7.06 34.66,-9.99 -38.68,73.12 -23.41,138.36 35.72,169.65 0,-116.34 136.85,-204.55 234.4,-109.42 24.76,24.16 49.33,52.71 87.03,55.84 -61.06,-91.17 -141.34,-150.62 -233.91,-212.53 -117.62,-78.66 -257.86,-131.39 -398.49,-155.07 -278.08,-46.81 -586.43,6.64 -781.95,203.25l-76.91 83.82c-239.39,288.46 -136.18,502.4 -168.16,787.2l-10.23 445.12c1.4,-1.61 3.24,-6.49 3.74,-5.18l28.07 -52.3c52.44,-83.93 195.56,-129.12 220.72,-252.64 15.01,-73.68 -26.22,-146.33 -76.2,-196.56 -19.24,-19.33 -28.35,-30.76 -45.05,-53.17 -83.77,-112.48 -86.86,-156.08 -86.96,-297.61 -0.05,-60.77 10.69,-126.35 44.96,-151.47 -20.31,87.22 -27.75,135.09 -0.39,241.46 53.38,207.48 142.08,327.06 346.12,368.41 57.4,11.63 66.44,-2.73 127.49,-2.73 0,-158.55 -115.1,-131.13 -196.61,-169.46 -25.63,-12.05 -52.61,-30.23 -80.19,-44.82z"/>
   <path class="fil0" d="M5567.29 2663.77c0,306.88 57.82,340.62 199.11,577.69 21.3,35.78 47.83,59.97 74.04,95.6 67.27,91.53 48.31,174.56 47.95,291.34 -0.59,193.38 134.26,139.69 134.26,-18.19 0,-90.82 -1.21,-121.23 -44.39,-205.61 -31.87,-62.29 -60.74,-77.79 -71.67,-124.75 91.18,7.58 301.43,86.7 453.34,-64.49 110.62,-110.1 127,-172.22 127,-301.58 0,-129.58 -96.06,-212.23 -200.45,-237.05 -22.45,-5.34 -115.39,-12.96 -138.84,-12.96 5.37,64.32 31.68,118.34 55.21,168.02 56.82,119.91 69.81,77.58 69.81,215.91 0,72.52 -56.15,134.43 -110.39,157.5 -30,12.76 -51.71,8.88 -77.13,21.08 6.23,-23.27 21.56,-44.69 34.6,-63.63 13.52,-19.64 8.56,-8.03 20.59,-32.98 47.54,-98.57 -0.36,-159.81 -1.61,-215.89 -225.26,150.84 -94.5,223.21 -276.78,223.21 -26.77,0 -36.92,-3.08 -59.83,-11.6 -51.73,-19.26 -85.41,-76.21 -109.82,-122.33 57.01,13.29 30.76,26.78 116.07,26.78 9.54,-40.97 27.21,-64.89 -45.91,-105.87 -130.23,-72.98 -132.66,-78.81 -132.66,-215.55 32.07,36.89 21.35,66.99 71.42,80.36 13.75,-58.95 80.36,-145.35 80.36,-276.79 0,-77.37 -20.48,-180.04 42.7,-287.66l93.53 -138.62c28.36,-36.36 38.71,-32.7 60.21,-64.79 -10.53,-19.91 -14.89,-26.89 -26.79,-44.65 -42.99,10.02 -54.51,33.45 -94.26,66.45l-65.4 68.55c-79.87,86.05 -128.23,159.82 -166.06,271.43 -6.72,19.85 -12.43,31.19 -19.44,51.99 -17.54,52.09 -38.77,164.47 -38.77,229.08z"/>
   <path class="fil0" d="M2138.71 2020.92c15.21,22.71 18.68,22.05 39.09,41.26 44.27,41.62 -32.21,-35.27 9.06,8.8l19.69 24.96c1.11,1.51 2.68,3.62 3.77,5.15 1.1,1.52 2.66,3.65 3.75,5.19 1.1,1.54 2.62,3.67 3.71,5.21 57.48,82.64 95.75,129.04 115.05,233.17 29.6,159.68 -29.43,135.8 30.08,309.21 7.24,21.12 16.54,45.52 24.42,64.85 11.4,27.89 21.66,42.15 28.18,70.06 39.27,-10.49 36.07,-24.01 56.84,-59.23l14.58 -21.13c0,114.74 6.35,113.66 -60.11,172.03 -77.48,68.05 -145.04,35.32 -118.46,149.39 85.3,0 59.07,-13.49 116.07,-26.78l-85.54 110.88c-1.67,1.03 -3.93,2.33 -5.66,3.27 -33.19,18.05 -59.23,19.78 -96.3,19.78 -129.56,0 -104.19,-105.13 -180.84,-167.38l-78.08 -46.9c-8.68,104.24 -72.52,106.36 53.56,294.64 -98.23,0 -187.5,-67.32 -187.5,-169.65 0,-138.33 12.98,-96 69.8,-215.91 23.54,-49.68 49.84,-103.7 55.21,-168.02 -31.29,0 -97.62,5.78 -131.82,11.05 -100.08,15.45 -207.47,113.69 -207.47,221.1 0,132.32 2.6,194.47 122.57,314.93 27.78,27.88 70.47,56.24 109.46,69.1 179.39,59.16 265.44,6.79 348.32,-0.1 -22.02,94.49 -116.07,99.46 -116.07,330.36 0,159.16 133.92,207.28 133.92,35.71 0,-337.82 -7.9,-195.79 132.25,-421.34 140.58,-226.25 189.19,-273.73 189.19,-560.81 0,-142.24 -64.33,-324.23 -119.69,-416.01l-71.89 -97.77c-1.2,-1.41 -2.92,-3.41 -4.1,-4.82 -1.67,-2.01 -6.4,-7.79 -8.06,-9.8l-90.87 -96.64c-1.42,-1.18 -3.49,-2.82 -4.91,-4.01 -1.42,-1.19 -3.45,-2.87 -4.85,-4.07 -30.48,-25.84 -36.07,-44.25 -79.57,-54.38 -11.89,17.76 -16.25,24.74 -26.78,44.65z"/>
   <path class="fil0" d="M6085.14 1878.06c-24.45,-8.86 -129.72,-116.13 -205.35,26.79 101.05,2.25 284.44,221.24 148.16,442.79 -36.99,60.12 -85.66,106.42 -136.47,149.26 -34.97,29.48 -41.4,37.66 -83.12,59.73 0,47.54 -8.05,49.94 -8.92,89.29l164.34 -121.37c153.98,-154.25 248.65,-294.13 228.35,-539.19 -11.2,-135.29 -92.93,-252.41 -184.9,-341.88 -22.11,-21.5 -77.35,-58.58 -107.21,-71.37l-66.14 -23.14c-225.77,-81.58 -311.42,53.68 -506.31,81.05 -118.66,16.67 -175.61,-28.29 -304.92,33.75 6.75,29.01 21.64,54.37 39.04,77.04 44.92,58.52 88.83,67 156.34,85.34 43.95,11.94 54.55,-1.66 108.19,-1.66 0,112.33 -7.32,164.16 42.56,234.22 36.41,51.14 96.54,96.13 180.66,96.13 -13.23,-19.75 -23.71,-27.76 -40.85,-48.43 -53.28,-64.3 -69.1,-130.92 -66.74,-219.81 1.29,-48.68 24.06,-109.17 41.73,-145.82 20.49,-42.51 53.19,-84.66 110.5,-85.94 -7.85,33.68 -136.67,187.6 -42.18,327.89 18.32,27.17 44.15,51.09 81.84,53.92 75.79,5.69 -17.54,-163.59 95.91,-273.01l56.41 -32.89c89.52,-35.4 182.85,-8.41 247.23,56.31l51.85 91z"/>
   <path class="fil0" d="M2192.28 1592.35c-31.25,7.27 -33.65,17.46 -66.17,40.96 -55.36,39.98 -80.64,73.46 -113.13,127.94l-55.64 105.08c-78.57,211.59 -18.91,436.14 125.38,585.57 78.41,81.19 131.5,139.48 234.57,194.02 -0.89,-39.35 -8.93,-41.75 -8.93,-89.29 -53.49,-28.3 -113.06,-79.3 -150.47,-126.31 -21.32,-26.79 -43.08,-42.03 -62.36,-71.57 -147.17,-225.68 37.44,-451.59 141.4,-453.9 -49.78,-94.07 -137.34,-89.58 -205.36,-17.86 4.08,-49.03 37.29,-88.57 68.23,-119.27 27.01,-26.79 37.22,-46.01 137.28,-50.86 131.49,-6.36 182.84,64.06 208.88,166.46 7.59,29.88 5.62,51 4.86,84.43 -0.98,42.28 -9.59,67.02 26.39,70.47 20.89,2 50.33,-16.71 62.51,-26.99 141.54,-119.59 -12.69,-337.59 -17.08,-356.39 102.08,2.28 149.08,162.53 152.06,222.97 4.14,83.95 -0.16,107.21 -26.87,161.15l-56.47 86.4c-13.13,15 -13.63,13.88 -24.08,29.48 81.06,0 134.26,-38.49 180.14,-96.64 50.21,-63.62 43.08,-126.1 43.08,-233.71 108.28,0 15.76,20.29 151.28,-9.44 41.81,-9.17 80.77,-34.88 109.37,-69.19 17.36,-20.81 36.16,-53.08 42.93,-82.09 -155.92,-82.5 -293.06,17.25 -457.12,-78.61 -102.35,-59.81 -234.79,-75.56 -348.29,-39.29l-43.79 18.72c-2.11,0.78 -4.54,1.47 -6.69,2.23 -34.45,12.29 -25.81,-1.9 -45.91,25.53z"/>
   <path class="fil0" d="M4986.94 2360.2c70.73,16.48 142.41,68.8 251.59,28.38 60.64,-22.46 130.57,-101.05 132.33,-180.17 -141.12,-67.7 -259.34,8.78 -321.61,17.69 -86.87,12.42 -281.47,0.88 -321.25,-53.4 91.67,7.63 155.64,32.18 248.01,-1.99 56.85,-21.03 134.16,-79.39 135.93,-158.72 -36.93,0 -83.34,6.43 -107.15,17.86 11.5,-43.12 78.66,-101 13,-191.56 -50.14,-69.13 -116.98,-76.31 -191.58,-76.31 16.42,61.43 92.72,67.6 80.31,159.66 -13.55,100.48 -183.07,157.85 -333.65,84.77 -42.14,-20.46 -109.79,-75.01 -121.66,-119.42 -36.4,8.48 -44.36,26.48 -62.5,53.57 120.22,138.3 157.99,237.88 339.29,357.14 190.18,125.1 208.42,154.7 437.64,258.81l171.79 60.36c52.41,12.16 140.62,36.79 194.15,37.97l0 -53.57c-64.95,0 -517.95,-141.11 -544.64,-241.07z"/>
   <path class="fil0" d="M3129.79 2360.2c-26.1,97.73 -481.92,241.07 -544.65,241.07l0 53.57c60.07,-1.33 133,-24.36 186.78,-36.43 87.93,-19.74 245.57,-89.48 323.42,-131.92 147.63,-80.47 161.77,-100.18 277.2,-178.18 48.58,-32.84 89.39,-60.88 130.1,-102.05 42.25,-42.73 68.04,-68.9 106.61,-116.6l100.89 -131.24c-12.53,-23.69 -23.18,-38.81 -35.7,-62.5 -20.87,13.96 -11.85,7.77 -27.66,25.91 -0.71,0.8 -6.18,8.19 -12.01,14.77 -12.41,14.05 -2.91,5.33 -17.82,17.91 -173.47,146.29 -391.53,79.99 -406.75,-32.87 -12.42,-92.06 63.89,-98.23 80.31,-159.66 -65.52,0 -119.71,0.58 -175.23,56.92 -91.86,93.21 -14.57,168.9 -3.36,210.95 -40.73,-9.5 -54.86,-17.86 -107.14,-17.86 2.6,116.2 149.19,179.17 249.96,178.72 37.28,-0.16 96.9,-14.93 133.98,-18.01 -40.54,55.33 -232.52,63.32 -321,53.15 -59.99,-6.89 -93.52,-34.09 -154.51,-42.36 -50.55,-6.85 -131.9,6.17 -167.35,24.92 1.76,79.11 71.69,157.73 132.33,180.17 112.66,41.69 173.5,-10.18 251.6,-28.38z"/>
   <path class="fil0" d="M576.21 3762c0,107.38 121.87,139.81 207.73,149.4 42.68,4.76 86.91,-11.08 86.91,29.16 0,99.28 -208.13,-78.36 -350.65,51.15 -22.71,20.63 -27.2,35.17 -45.11,53.09 -22.37,22.37 -40.56,21.57 -59.59,47.55 110.44,25.73 182.93,127.51 347.79,35.3 46.45,-25.98 90.26,-92.2 134.35,-26.37 -9.53,35.73 -7.22,26.68 -41.96,38.4 -18.05,6.09 -36.53,11.88 -58.94,21.42 -137.14,58.45 -186.47,191.7 -68.74,270.54 4.56,-54.9 39.47,-88.45 80.35,-107.16 30.47,-13.95 35.66,-14.24 64.55,-33.65 133.92,-89.95 298.59,-265.72 134.32,-424.14 -31.4,-30.27 -65.25,-46.61 -103,-66.63 -47.41,-25.15 -104.6,-40.39 -163.55,-50.75 -68.09,-11.96 -105.15,-13.64 -119.81,-76.6 -35.74,9.54 -44.65,43.33 -44.65,89.29z"/>
   <path class="fil0" d="M7040.51 3985.21c0,90.59 15.69,112.87 67.46,182.55l130.5 119.49c64.98,44.6 142.38,49.66 150.26,144.39 18.42,-12.34 26.17,-19.27 41.02,-39.34 9.05,-12.23 6.5,-6.59 13.61,-22.33 4.98,-11.01 7.13,-16.28 10.55,-34.2 15.16,-79.51 -71.62,-148.94 -133.84,-174.76 -47.03,-19.53 -88.68,-13.65 -100.98,-59.73 42.72,-63.81 84.64,-3.81 134.09,26.61 71.72,44.13 174.5,53.75 251.57,1.92 36.78,-24.73 49.49,-26.51 96.47,-37.46 -14.17,-19.34 -35.71,-29.27 -53.66,-44.56 -31.98,-27.23 -66.31,-107.23 -196.33,-107.23 -59.43,0 -205.36,70.73 -205.36,0 0,-50.61 62.25,-8.39 182.31,-49.84 92.04,-31.77 134.71,-96.49 103.29,-182.19 -9.68,-26.44 -6.75,-28.12 -35.61,-35.82 -24.09,103.43 -128.66,48.74 -277.56,124.22 -1.8,0.91 -4.02,2.19 -5.79,3.13 -1.76,0.93 -3.96,2.29 -5.7,3.24 -65.98,36.02 -166.3,96.41 -166.3,181.91z"/>
   <path class="fil0" d="M2602.99 5663.79c62.25,-16.63 2.11,-16.4 195.67,-54.34 58.57,-11.48 164.46,-16.92 170.41,-88.52 -48.54,-12.97 -18.45,-26.79 -98.22,-26.79 5.19,-62.37 17.87,-9.23 17.87,-142.86 -62.78,0 -86.24,27.61 -125.01,53.57 0,-54.07 -17.24,-81.16 -35.72,-116.07l-27 17.63c-1.39,1.19 -3.35,2.99 -4.67,4.25 -1.35,1.27 -3.14,3.21 -4.41,4.53 -39.6,41.14 -41.19,76.7 -49.63,137.88 -5.72,41.54 -5.14,79.66 -10.91,114.08 -8.68,51.71 -19.39,58.1 -28.38,96.64z"/>
   <path class="fil0" d="M5353.01 5395.92c-57.71,-13.44 -46.15,-44.64 -125,-44.64 0,128.58 13.07,85.34 17.85,142.86 -65.04,0 -56.86,15.74 -98.21,26.79 5.84,70.33 108.63,76.53 163,86.99 86.01,16.57 136.72,20.76 203.07,55.87 -8.38,-35.99 -20.25,-48.12 -29.5,-95.51 -5.03,-25.73 -4.55,-77.81 -9.78,-115.22 -12.18,-87.36 -22.86,-131.02 -85.71,-164.28 -16.73,31.62 -34.67,60.29 -35.72,107.14z"/>
   <path class="fil0" d="M3995.86 869.14c-86.74,-58.08 -151.79,-22.83 -151.79,89.28 19.73,-9.46 46.81,-6.75 76.44,3.65 29.29,10.28 42.28,27.57 58.95,48.46 37.01,46.37 54.59,78.28 69.97,144.32l17.86 0c23.6,-101.28 113.28,-240.61 205.36,-196.43 0,-112.11 -65.05,-147.36 -151.79,-89.28 -2.23,-26.81 -7.81,-37.45 -16.36,-55.07 -16.81,-34.65 -19.32,-18.49 -28.28,-52.08l-35.71 0c-11,41.19 -38.87,37.73 -44.65,107.15z"/>
   <path class="fil0" d="M1799.43 4145.92c-32.85,-44.84 -232.48,-135.8 -291.61,-163.75 -272.12,-128.63 -446.03,-49.01 -369.83,47.96 15,19.08 34.36,25.31 57.11,32.62 156.74,50.33 261.18,-14.54 517.04,54.39 37.7,10.15 50.19,20.14 87.29,28.78z"/>
   <path class="fil0" d="M6317.29 4145.92c34.2,-7.96 48.82,-17.77 80.27,-26.88 245.34,-71.12 434.71,-2.57 556.39,-68.62 63.29,-34.37 99.86,-203.45 -260.67,-99.95 -75.33,21.63 -343.5,151.1 -375.99,195.45z"/>
   <path class="fil0" d="M6120.86 6029.86c-88.35,0 -84.56,-24.07 -159.05,-37.42 -58.44,-10.49 -126.02,-8.89 -155.26,35.61 -74.23,113.02 60.83,238.2 28.61,305.38 91.98,-7.66 87.43,-88.89 40.17,-156.73 -22.09,-31.71 -32.11,-18.56 -13.39,-57.55 61.46,16.41 18.03,44.75 82.17,105.32 56.33,53.21 63.22,28.33 141.03,46.46 -31.29,-59.16 -2.66,-88.41 -56.77,-130.72 -89.11,-69.67 -96.06,-11.73 -112.87,-74.64 37.78,-17.47 67.27,25.27 109.63,34.15 62.63,13.11 94.56,-16.89 95.73,-69.86z"/>
   <path class="fil0" d="M1995.85 6029.86c1.15,51.07 28.97,79.46 87.87,71.28 49.98,-6.93 77.85,-53.9 117.49,-35.57 -15.94,59.72 -26.13,9.67 -112.92,74.59 -52.8,39.51 -26.24,73.17 -56.72,130.77 77.82,-18.13 84.71,6.75 141.04,-46.46 64.32,-60.75 20.6,-88.89 82.17,-105.32 18.5,38.53 9.79,24.86 -9.41,52.34 -52.11,74.6 -57.17,154.17 36.2,161.94 -25.84,-53.84 21.61,-91.02 37.27,-141.33 35.52,-113.98 7.68,-229.23 -156.23,-200.97 -79.57,13.72 -78.4,38.73 -166.76,38.73z"/>
   <polygon class="fil0" points="3004.78,6226.28 3004.78,6235.21 3015.21,6227.77 "/>
   <polygon class="fil0" points="5111.94,6226.28 5103,6226.28 5110.44,6236.7 "/>
   <polygon class="fil0" points="2602.99,5663.79 2594.07,5663.79 2601.52,5674.2 "/>
   <polygon class="fil0" points="1995.85,6029.86 1995.85,6020.93 1985.44,6028.37 "/>
   <polygon class="fil0" points="6120.86,6029.86 6129.8,6029.86 6122.36,6019.44 "/>
  </g>
 </g>
</svg>
