<svg xmlns="http://www.w3.org/2000/svg" width="10" height="21"><path fill="#939393" paint-order="stroke fill markers" fill-rule="evenodd" d="M4.5 18.412c-.408-.4-.806-.99-1.158-1.736-.772-1.636-1.244-3.836-1.327-6.193-.084-2.358.23-4.589.884-6.28.595-1.539 1.417-2.474 2.2-2.505.112-.004.23-.012.35-.02.733-.048 1.558-.1 2.095.464.367.391.517 1.005.459 1.874-.173 2.567-1.14 2.596-2.258 2.63l-.198.007c-.185.007-.777.298-.655 3.718.04 1.116.135 1.998.283 2.62.094.392.3 1.049.633 1.036l.201-.009c1.117-.052 2.081-.096 2.435 2.449.12.862.014 1.485-.325 1.904-.492.607-1.323.617-2.056.625-.122.002-.24.003-.352.007-.388.016-.805-.193-1.21-.59zM7.198 2.45c-.394-.386-1.097-.339-1.72-.298-.125.008-.246.017-.363.02-.582.023-1.289.89-1.8 2.21-.63 1.631-.932 3.792-.85 6.084.08 2.291.535 4.421 1.28 5.999.602 1.277 1.369 2.086 1.95 2.064.117-.005.238-.006.363-.008.638-.007 1.36-.016 1.72-.459.246-.304.32-.818.222-1.527-.294-2.12-.925-2.091-1.97-2.043l-.204.009c-.496.02-.861-.45-1.086-1.394-.156-.655-.256-1.57-.297-2.72-.101-2.838.245-4.175 1.088-4.209l.202-.006c1.046-.032 1.678-.051 1.822-2.19.047-.715-.064-1.221-.331-1.506a1.795 1.795 0 0 0-.026-.026z"/></svg>