<svg xmlns="http://www.w3.org/2000/svg" width="25" height="16"><path fill="#FAF6F6" paint-order="stroke fill markers" fill-rule="evenodd" d="M22.985 2.094C22.985 1.49 22.48 1 21.858 1h-.001l-19.731.026c-.301 0-.584.115-.797.322A1.08 1.08 0 0 0 1 2.124l.016 10.782c0 .292.118.568.33.774.214.207.496.32.796.32h.002l19.731-.026c.621-.001 1.126-.493 1.126-1.098l-.016-10.782zm-2.364.004L12 7.924 3.365 2.121l17.256-.023zm-4.975 6.926l5.112 3.855-17.53.024 5.143-3.88a.538.538 0 0 0 .1-.768.574.574 0 0 0-.79-.097l-5.54 4.177-.013-9.714 9.554 6.42a.574.574 0 0 0 .642 0l9.535-6.446.015 9.739-5.537-4.176a.574.574 0 0 0-.79.097.538.538 0 0 0 .1.769z"/></svg>