<svg xmlns="http://www.w3.org/2000/svg" width="22.969" height="22.97"><path data-name="Forma 1" d="M15.785 0h-8.6A7.18 7.18 0 0 0 .013 7.18v8.61a7.173 7.173 0 0 0 7.172 7.18h8.6a7.173 7.173 0 0 0 7.172-7.18V7.18A7.179 7.179 0 0 0 15.785 0zm5.021 15.79a5.033 5.033 0 0 1-5.021 5.03h-8.6a5.033 5.033 0 0 1-5.021-5.03V7.18a5.024 5.024 0 0 1 5.021-5.02h8.6a5.025 5.025 0 0 1 5.021 5.02v8.61zM11.483 5.75a5.74 5.74 0 1 0 5.737 5.74 5.739 5.739 0 0 0-5.737-5.74zm0 9.33a3.59 3.59 0 1 1 3.585-3.59 3.592 3.592 0 0 1-3.585 3.59zM17.65 4.55a.765.765 0 1 1-.764.76.763.763 0 0 1 .764-.76z" fill="#b09867" fill-rule="evenodd"/></svg>