<?xml version="1.0" encoding="UTF-8"?>
<!DOCTYPE svg PUBLIC "-//W3C//DTD SVG 1.1//EN" "http://www.w3.org/Graphics/SVG/1.1/DTD/svg11.dtd">
<!-- Creator: CorelDRAW 2017 -->
<svg xmlns="http://www.w3.org/2000/svg" xml:space="preserve" width="320mm" height="150mm" version="1.1" style="shape-rendering:geometricPrecision; text-rendering:geometricPrecision; image-rendering:optimizeQuality; fill-rule:evenodd; clip-rule:evenodd"
viewBox="0 0 32000 15000"
 xmlns:xlink="http://www.w3.org/1999/xlink">
 <defs>
  <style type="text/css">
   <![CDATA[
    .fil0 {fill:#D7B56D}
   ]]>
  </style>
 </defs>
 <g id="Слой_x0020_1">
  <metadata id="CorelCorpID_0Corel-Layer"/>
  <path class="fil0" d="M22036.48 12779.55c-281.81,0 -534.97,-212.48 -534.97,-465.28l0 -209.34c0,-371.45 571.74,-649.31 925.13,-320.34 415.83,387.14 124.24,994.96 -390.16,994.96zm-11398.65 -511.78l0 0c0,-219.82 -14.55,-291.4 191.46,-483.18 353.39,-328.97 925.13,-51.11 925.13,320.34 0,229.15 25.19,373.52 -162.39,535.5 -385.63,333.06 -954.2,16.84 -954.2,-372.66zm8118.69 -325.68l0 0c0,-531.06 600.72,-743.71 958.39,-446.57 205.02,170.3 280.02,569.38 24.86,848.26 -296.81,324.37 -983.25,136.96 -983.25,-401.69zm-4792.09 558.29l0 0c-261.15,0 -393.66,-42.55 -548.87,-288.58 -136.22,-215.86 -68.52,-851.27 502.32,-851.27 800.45,0 718.32,1139.85 46.55,1139.85zm2721.72 -69.78l0 0c-261.07,0 -393.66,-42.59 -548.88,-288.58 -136.18,-215.87 -68.56,-851.27 502.33,-851.27 525.68,0 764.7,610.05 425.41,960.47 -86.41,89.26 -213.5,179.38 -378.86,179.38zm3698.77 -1628.36l0 0 50.02 12.79 -50.02 -12.79zm-7513.88 0l0 0 -45.37 26.73 45.37 -26.73zm4582.74 -279.17l0 0c64.61,43.25 33.02,28.61 81.56,81.32 54.09,58.81 34.36,17.44 81.32,81.52l-348.99 0 92.65 -70.23c65.79,-54.01 28.78,-45.17 93.46,-92.61zm-837.37 -116.33l0 0 31.79 61.18c71.82,135.98 89.39,97.82 154.28,194.71 -213.18,49.69 -207.06,13.74 -372.22,0 51.96,-70.92 151.95,-109.32 186.15,-255.89zm-977.1 279.17l0 0c59.14,-80.71 31.42,-1.27 139.64,-162.84 315.4,211.22 -53.64,162.84 -139.64,162.84zm6280.93 -302.4l0 0c86.2,22.99 29.99,23.47 116.24,46.5 -114.86,239.43 -7.95,384.09 93.14,535.06 -140.91,0 -290.95,-35.91 -418.77,-46.55 4.16,-3.58 10.96,-14.43 12.76,-10.47l62.93 -53.4c135.24,-122.32 198.18,-326.73 133.7,-471.14zm-10607.83 116.29l0 0c0,222.95 90.53,295.18 232.7,418.72 -127.86,10.64 -277.86,46.55 -418.77,46.55 101.09,-150.97 207.96,-295.63 93.1,-535.06 86.25,-23.03 30.04,-23.51 116.25,-46.5 -12.15,52.17 -23.28,53.43 -23.28,116.29zm11747.72 -139.57l0 0c-59.96,89.51 -178.98,173.93 -163.73,394.11 7.21,104.1 46.18,176.78 107.81,243.34l35.22 34.61c42.67,41.77 29.91,16.67 67.17,72.34 -173.68,0 -350.66,-66.19 -511.78,-69.78 93.58,-81.31 145.22,-76.42 206,-212.81 83.84,-188.18 30.65,-164.14 26.65,-345.52 58.37,-30.85 174.74,-100.88 232.66,-116.29zm-12864.3 0l0 0c57.88,15.41 174.25,85.44 232.62,116.29 -3.99,181.38 -57.19,157.34 26.66,345.52 47.81,107.29 81.31,119.11 154.03,171.69l52.01 41.12c-161.17,3.59 -338.15,69.78 -511.78,69.78 67.66,-101.16 195.28,-135.12 210.15,-350.29 15.25,-220.18 -103.69,-304.6 -163.69,-394.11zm12864.3 0l0 0 45.37 -26.78 -45.37 26.78zm-1977.39 162.84l0 0c0,187.41 93.22,245.01 162.87,348.95l-488.51 -23.28c105.49,-144.04 279.13,-64.81 279.13,-511.78l93.06 0c-27.03,56.25 -46.55,101.74 -46.55,186.11zm-8956.1 -186.11l0 0 93.05 0c0,446.97 173.64,367.74 279.13,511.78l-488.51 23.28c82.58,-123.34 249.61,-257.32 116.33,-535.06zm-1930.81 23.27l0 0 -50.01 -12.8 50.01 12.8zm11509.64 -400.87l0 0c31.96,60.73 59.63,148.12 75.16,214.76 -102.1,-23.8 -97.17,-60.49 -209.34,-69.78l134.18 -144.98zm-10230.14 214.76l0 0c15.49,-66.64 43.21,-154.03 69.78,-209.34l144.95 134.18c-117.55,14.67 -112.66,51.36 -214.73,75.16zm7792.97 209.39l0 0c0,165.77 96.15,249.37 162.88,348.9l-464.91 -28.24 96.68 -60.78c153.75,-119.71 196.87,-339.57 112.34,-515.82 67.01,-32.12 152.11,-51.03 232.57,-69.78 -60.2,89.96 -139.56,171.72 -139.56,325.72zm-5420.2 -325.72l0 0c80.46,18.75 165.57,37.66 232.62,69.78 -171.68,357.92 138.26,519.78 209.38,581.57l-464.91 28.29c180.49,-284.63 254.96,-333.1 22.91,-679.64zm4373.36 -69.78l0 0 232.09 27.55c-24.17,101.95 -177.19,264.66 -28.82,513.62 64.28,107.77 93.1,84.87 145.68,156.73l-441.97 0c45.66,-68.2 102.76,-98.28 139.36,-163.04 111.32,-196.75 62.45,-372.43 -46.34,-534.86zm-3303.24 279.17l0 0c0,241.54 168.34,357.5 209.3,418.73l-441.96 0c41.7,-56.99 209.34,-134.84 209.34,-395.5 0,-111.15 -69.98,-180.04 -93.01,-279.12l232 -27.56c-42.39,71.98 -115.67,191.7 -115.67,283.45zm5466.7 535.06l0 0 -511.49 -28.33c81.35,-61.06 327.58,-179.14 242.56,-493.08 -27.43,-101.33 -75.73,-170.17 -143.15,-229.68 -95.38,-84.29 -153.14,-78.75 -285.77,-109.65l325.63 -442c64.89,278.72 270.32,371.37 395.46,558.29 -130.03,68.85 -216.72,178.86 -226.63,353.72 -11.82,209.79 126.93,276.52 203.39,390.73zm-7513.88 0l0 0c77.57,-115.8 203.19,-168.79 204.13,-371.9 0.94,-183.05 -98.93,-304.56 -227.36,-372.55 125.21,-186.92 330.56,-279.57 395.45,-558.29 75.45,50.5 103.78,133.57 155.14,217.05 56.57,91.87 119.22,148.24 170.54,224.95 -175.56,40.89 -355.8,69.46 -428.96,339.33 -57.76,213.34 47.64,364.72 202.13,469.11 40.92,27.68 10.35,2.57 40.71,29.02l-511.78 23.28zm3535.98 -953.79l0 0 488.47 0c-89.06,77.36 -213.58,74.47 -255.89,255.89 -90.04,-65.99 -19.08,-77.04 -207.14,-234.82l-25.44 -21.07zm-50.01 -12.8l0 0 50.01 12.8 -50.01 -12.8zm678.13 -33.75l0 0c170.7,0 241.13,-46.51 372.14,-46.51 140.17,0 208.73,46.51 348.94,46.51l0 46.55c-168.3,13.98 -196.3,115.06 -302.44,186.11 -50.34,-188.68 -238.65,-209.39 -418.64,-209.39l0 -23.27zm-1256.19 209.39l0 0c-96.07,-64.32 -126.11,-150.12 -279.21,-162.84l0 -46.55c135.73,0 204.94,-46.51 325.68,-46.51 157.9,0 225.15,46.51 418.77,46.51l0 23.27c-165.69,0 -154.81,-6.84 -272.4,53.28 -111.36,56.9 -110.59,77.69 -192.84,132.84zm8188.38 -651.39l0 0 -213.75 135.24c-78.91,47.57 -136.01,81.36 -218.18,130.72 -309.9,186.31 -609.41,377.84 -1067.67,303.17 -203.11,-33.06 -349.85,-65.5 -501.03,-196.91 602.6,0 952.4,-26.7 1544.4,-223.61 103.74,-34.44 374.91,-141.81 456.23,-148.61zm-14678.7 0l0 0c78.39,6.56 343.94,110.91 438.83,142.74 348.33,116.82 606.63,161.53 969.52,216.84 183.91,28.05 398.02,12.64 592.24,12.64 -39.25,34.12 20.59,-11.94 -37.78,32.04 -287.24,216.31 -766.37,204.78 -1076.48,105.2 -175.18,-56.33 -485.94,-261.64 -672.62,-374.22l-213.71 -135.24zm14678.7 0l0 0 -14678.7 0 14678.7 0zm-3675.5 -279.13l0 0c226.26,337.86 809.7,895.58 1261.44,586.83 26.33,-17.94 45.08,-34.85 64.53,-51.77 -116.29,-27.11 -263.68,-143.8 -349.44,-208.9 -102.06,-77.52 -178.82,-168.95 -272.89,-262.12 -341.65,-338.64 -285.04,-508.49 -424.48,-668.88 -4.48,203.89 -35.25,584.54 -279.16,604.84zm-8304.75 674.62l0 0c392.19,0 776.23,-374.7 977.06,-674.62 -243.87,-20.3 -274.6,-400.95 -279.21,-604.84 -79.16,91.1 -137.28,285.28 -186.36,371.9 -125.01,220.55 -611.85,710.08 -860.44,768 98.03,85.19 210.73,139.56 348.95,139.56zm11166.03 -790.95l0 0 49.07 -20.7c29.76,-11.86 16.79,-3.59 50.46,-19.36 92.49,-43.41 169.93,-122.57 179.67,-239.06l209.35 139.56c-166.83,38.89 -306.6,139.56 -488.55,139.56zm-13329.46 -279.12l0 0c12.47,150.16 115.52,212.19 230.09,258.42l49.08 20.7c-181.96,0 -321.72,-100.67 -488.55,-139.56l94.11 -68.76c68.4,-46.96 27.19,-47.28 115.27,-70.8zm10002.94 -465.28l0 0 -6397.22 0 6397.22 0zm-2675.21 -93.05l0 0 -1046.8 0 1046.8 0zm1488.81 -604.8l0 0c176.57,0 199.19,-47.2 302.44,-116.33 0,154.11 41.25,181.26 93.01,279.12 -71.25,-16.59 -150.53,-44.34 -212.6,-66.48l-182.85 -96.31zm-4419.87 162.79l0 0c51.81,-97.86 93.02,-125.01 93.02,-279.12 103.24,69.13 125.86,116.33 302.44,116.33 -24.42,21.23 6.97,0.04 -39.91,29.87l-142.94 66.44c-62.08,22.14 -141.32,49.89 -212.61,66.48zm5303.83 46.55l0 0c110.22,-164.55 162.92,-97.21 162.92,-395.45 255.04,170.78 564.81,131.37 735.31,-195.16 3.22,-6.24 13.05,-25.36 15.82,-30.7l16.51 249.13c-46.63,22.34 -68.07,20.63 -122.98,39.86 -42.47,14.92 -77.52,30.41 -113.43,49.41 -239.31,126.6 -348.5,282.91 -694.15,282.91zm-6722.85 -651.35l0 0 64.65 121.43c156.8,263.06 465.07,293.76 702.99,134.47 0,298.24 52.66,230.9 162.87,395.45 -405.72,0 -510.52,-228.13 -807.58,-332.32 -54.9,-19.23 -76.34,-17.52 -122.93,-39.86l0 -279.17zm8072.13 186.07l0 0c-29.18,125.22 -109.93,323.31 63.1,518.43 171.32,193.12 311.57,169.56 471.88,156.24 -39.5,74.71 -99.62,182.23 -84.82,293.26 50.01,375.45 419.01,485.13 712.89,288.26 39.21,168.26 84.25,301.91 247.66,357.43 198.87,67.54 390.16,-33.26 427,-171.28l46.55 0c35.75,153.5 177.72,255.85 372.22,255.85l-345.52 30.37c-22.91,-0.33 -83.11,-5.95 -118.49,-6.77 -184.19,-4.11 -301.13,-15.89 -457.49,-55.88 -178.08,-45.53 -239.43,-58.61 -381.31,-130.43 -353.23,-178.78 -586.62,-304.28 -847.16,-688.24 -146.29,-215.58 -173.64,-294.12 -248.88,-518.79 -20.54,-61.39 -52.3,-125.42 -67.05,-188.84 78.05,-20.83 145.76,-96.97 209.42,-139.61zm-8490.9 0l0 0c63.63,42.64 131.33,118.78 209.39,139.61 -109.61,470.61 -423.09,942.58 -827.64,1219.54 -200.66,137.4 -475.1,244.97 -716.77,306.76 -156.35,39.99 -273.29,51.77 -457.49,55.88l-463.97 -23.6c194.47,0 336.43,-102.35 372.18,-255.85l46.59 0c51.28,192.31 538.36,398.51 674.62,-186.15 293.88,196.87 662.88,87.19 712.9,-288.26 14.79,-111.03 -45.33,-218.55 -84.83,-293.26 149.43,12.43 295.88,42.18 471.88,-156.24 172.54,-194.55 92.86,-391.05 63.14,-518.43zm8490.9 0l0 0 -8490.9 0 8490.9 0zm-1046.84 953.79l0 0c-68.19,128.93 -192.92,295.59 -211.34,370.76 -45.08,183.82 83.72,290.7 118.33,420.19 -313.69,26.09 -101.94,392.11 -876.14,15.41 -393.34,-191.45 -962.88,-244.07 -1412.62,-94.24 -88.25,29.39 -240.57,95.75 -316.67,102.11 178.2,-371.41 109.64,-536.53 23.23,-907.28 79.04,21.11 183.06,107.77 263.19,155.62 348.87,208.4 471.72,189.49 817.45,230.82 106.42,12.72 95.29,-11.9 198.86,-14.22 -70.39,-48.87 -222.75,-81.12 -461.12,-236.82 -341.73,-223.24 -911.39,-790.66 -911.39,-1228.71 182.81,48.79 299.95,594.97 1074.27,1065.87 398.6,242.4 832.45,327.8 1292.34,253.86 245.62,-39.46 261.03,-121.63 401.61,-133.37zm-3722.01 -93.05l0 0c-30.24,129.69 -90.32,317.8 -94.15,466.01 -3.06,116.45 79.52,362.39 117.39,441.27 -74.68,-6.24 -218.48,-69.13 -299.23,-96.2 -80.86,-27.06 -238.4,-77.04 -331.37,-87.35 -326.86,-36.31 -831.47,48.71 -1083.16,167.89 -823.77,390.12 -558.54,20.1 -891.67,-7.62 66.48,-248.88 250.06,-261.76 18.67,-600.15 -50.51,-73.78 -70.93,-113.72 -111.69,-190.8 95.14,7.95 115.88,37.22 186.11,69.82 441.23,204.74 1107.33,53.24 1507.84,-190.31 356.94,-217.04 595.55,-447.79 823.03,-782.14 40.03,-58.9 67.01,-91.35 108.26,-147.63 44.35,-60.49 61.67,-114.42 143.03,-136.1 0,524.54 -801.88,1230.3 -1246.45,1405.45 -19.97,7.86 -46.3,17.97 -65.91,27.22l-45.44 24.3c-3.18,1.71 -10.07,5.34 -14.72,8.56l371.69 -0.53c476.65,-24.21 775.18,-336.27 907.77,-371.69zm1977.32 -1023.53l0 0c46.3,69.09 175.79,211.22 255.89,232.62 -57.92,-109.44 -46.51,-95.3 -46.51,-255.9 -73.65,35.34 -105.94,23.28 -209.38,23.28zm-3163.68 232.62l0 0c76.79,-20.55 90.57,-54.38 145.67,-110.22 47.53,-48.26 74.68,-69.33 110.18,-122.4 -103.41,0 -135.73,12.06 -209.39,-23.28 0,160.6 11.46,146.46 -46.46,255.9zm6118.01 -255.9l0 0 -8816.54 0 8816.54 0zm-3186.91 -325.67l0 0c-2.32,-102.23 -15.78,-72.47 -23.32,-162.84l139.57 0c-24.38,36.4 -31.23,39.83 -59.23,80.34l-57.02 82.5zm-2558.92 -162.84l0 0 139.6 0c-7.58,90.37 -20.99,60.61 -23.27,162.84l-57.11 -82.5c-27.92,-40.51 -34.85,-43.94 -59.22,-80.34zm-3070.71 488.51l0 0c-200.78,-46.79 -394.39,-153.13 -611.56,86.29 -56.33,62.12 -115.11,181.47 -121.18,291.4 -8.19,147.96 39.25,222.55 104.67,320.21 -191.86,0 -274.03,14.51 -379.11,109.4 -88.33,79.69 -132.63,194.22 -132.63,355.84 -140.46,-37.5 -208.9,-112.54 -369.66,-44.07 -176.28,75.04 -138.86,159.58 -235.22,230.18 -47.53,-178.17 -329.43,-235.39 -480.85,-155.18 -65.87,34.93 -108.01,72.23 -123.99,131.9 -122.32,-89.63 -205.11,-305.25 -447.38,-168.5 -89.59,50.58 -68.73,74.02 -134.15,121.99 -87.59,-182.48 -135.6,-271.62 -325.67,-372.22 0,-750.23 552.46,-375.19 860.69,-581.56 0,-328.28 -291.27,-589.88 -583.85,-626.08 -162.51,-20.13 -253.93,17.49 -369.94,44.51 112.95,-168.7 303.22,-232.62 581.57,-232.62 -11.25,-506.89 -553.24,-767.26 -1020.96,-578.99 -191.94,77.24 -186.35,158.31 -328.24,253.32 -5.95,-267.59 -157.95,-587.47 -343.4,-773.26 -100.27,-100.39 -223.74,-139.15 -353.92,-204.41 -122.2,-61.22 -304.81,-69.17 -489.09,-69.17 0,286.22 48.96,632.35 111.12,889.18 103.65,428.51 427.45,954.28 660.76,1339.83 129.13,213.38 244.23,416.97 369.2,631.09 136.8,234.28 78.79,97.37 47.98,352.73 -76.1,629.83 494.38,561.47 592.65,658.28 80.18,78.95 174.62,407.03 221.9,522.46 103.53,252.63 338.84,886.49 625.1,910.34 -140.83,293.43 57.88,560.29 348.94,628.07 -142.37,296.74 -29.1,1237.48 -86.73,1658.04 -14.47,105.49 8.11,251.33 -7.99,340.92 -21.97,122.61 -253.98,265.96 -323.76,397.45 -112.82,212.57 -3.1,362.32 88.08,516.15 121.87,205.59 162.06,247.61 450.85,209.14l2299.03 -167.08c101.13,-2.61 202.91,-15.85 323.92,-25.03 417.39,-31.71 897.58,-66.6 1307.71,-111.39 596.53,-65.06 1401.09,-101.5 1997.9,-118.94l676.09 -42.68c273.66,-8.15 1616.01,102.68 1975.56,111.24l3302.79 256.34c208.49,0.61 444,47.36 651.1,46.79 651.1,-1.75 924.6,214.15 1127.35,-129.41 85.43,-144.95 217.25,-314.96 113.47,-529.8 -72.59,-150.37 -292.09,-300.81 -321.8,-376.06 -79.93,-201.76 25.68,-1764.3 -104.51,-2035.68 151.63,-35.3 254.02,-93.5 325.72,-209.26 74.75,-120.73 91.71,-276.11 23.15,-418.81 394.88,-32.85 653.34,-1135.09 827.51,-1405.74 96.56,-149.95 649.76,-23.72 615.44,-641.68 -18.96,-340.76 -116.98,-139.2 119.91,-530.5 34.73,-57.43 62.65,-99.9 96.07,-159.9 379.73,-682.73 848.02,-1288.1 925.42,-2098.69 12.64,-132.35 44.35,-327.96 44.35,-467.4 -184.28,0 -366.88,7.95 -489.08,69.17 -316.91,158.8 -425.21,223.57 -573.37,543.21 -49.08,105.89 -120.9,297.55 -123.91,434.46 -141.85,-95.01 -136.35,-176.08 -328.29,-253.32 -467.72,-188.27 -1009.67,72.1 -1020.96,578.99 278.35,0 468.66,63.92 581.61,232.62 -219.17,-51.03 -440.9,-77.56 -652.41,68.81 -132.75,91.87 -301.38,288.25 -301.38,512.76 308.19,206.37 860.69,-168.67 860.69,581.56 -76.67,40.56 -145.67,78.18 -203.39,145.56 -75.81,88.53 -75.24,128.6 -122.28,226.66 -92.24,-67.58 -144.09,-176.81 -296.69,-158.8 -185.54,21.85 -186.72,133.37 -284.87,205.31 -68.48,-256.3 -546.23,-196.18 -604.84,23.28 -118.94,-87.15 -148.53,-303.06 -436.38,-252.02 -84.05,14.91 -95.54,46.46 -168.42,65.91 0,-338.76 -189.25,-465.24 -511.83,-465.24 194.92,-291.11 99.74,-660.11 -269.95,-754.72 -164.55,-42.1 -240.16,29.35 -358.12,56.82 351.23,-524.54 1130.56,-63.7 980.89,-418.44 -83.52,-197.97 -333.99,-301.5 -538.93,-349.23 40.8,-174.94 167.08,-224.51 185.58,-465.93 18.18,-236.69 -45.97,-385.67 -45.97,-627.42 -73.13,17.04 -79.77,31.83 -149.27,60.12 -239.3,97.38 -441.59,117.35 -611.16,435.64 -54.78,102.8 -72.47,198.71 -123.54,295.15 -59.63,-39.91 -65.75,-55.31 -138.91,-93.71 -48.26,-25.31 -113.6,-61.71 -177.02,-79.11 -177.47,-48.63 -285.69,15.36 -381.88,79.8 19.97,37.75 28.94,64.81 56.45,106.35l200.74 311c92.45,152.48 161.5,284.79 161.5,536.4l-39.54 -76.71c-191.25,-396.47 -619.47,-358.93 -802.24,-113.64 -92.9,124.69 -88.78,192.14 -88.78,399.73 -342.91,-79.89 -225.32,-98.76 -511.74,93.06 0,-161.57 -68.4,-249.53 -171.76,-316.75 -148.9,-96.88 -239.71,-43.16 -386.57,-8.96 0,-112.58 2.03,-137.98 -51.28,-204.5 -43.49,-54.21 -71.41,-90.69 -158.03,-97.86 65.59,-89.51 419.38,-167.16 293.84,-596.16 -73.49,-251.04 -310.63,-333.87 -596.28,-357.63 105.04,-451.01 442.7,-669.53 934.06,-492.14 154.48,55.76 189.33,124.65 368.68,166.47 4.93,-221.66 175.51,-843.98 -203.03,-1192.81 -222.67,-205.26 -565.34,-251.45 -871.29,-207.18 -114.94,16.59 -220.63,48.46 -321.43,50.75 225.69,-337.13 904.22,-117.96 976.98,-116.33 0,-307.66 131.2,-772.73 -311.57,-1107.5 -416.37,-314.83 -868.15,-133.08 -1200.47,-55.63 246.4,-465.65 386.04,-766.78 108.71,-1364.94 -84.82,-182.93 -224.43,-390.48 -348.13,-535.83l-313.41 -337.98c-51.81,-45.08 -84.9,-55.68 -121.83,-110.79 -204.82,137.16 -499.52,484.43 -637.9,688.11 -176.81,260.5 -350.82,653.35 -312.87,1006.9 32.04,297.96 139.32,439.84 252.87,654.53 -212.72,-49.57 -319.68,-116.62 -604.59,-117.19 -259.28,-0.49 -434.63,57.06 -582.46,163.04 -455.21,326.16 -324.98,804.85 -324.98,1117.28 106.67,-2.37 140.46,-31.72 248.88,-53.56 63.67,-12.8 187.21,-21.65 286.34,-16.59 185.62,9.54 364.03,70.27 441.84,186.48 -100.8,-2.29 -206.57,-34.16 -321.52,-50.75 -561.96,-81.28 -1004.98,116.17 -1104.92,717.91 -56.17,337.65 25.63,458.18 30.61,682.08 273.91,-63.83 682.81,-485.58 1123.1,-29.76 48.91,50.67 80.26,90.53 106.1,149.8 22.54,51.72 62,156.07 73.53,205.63 -638.87,53.15 -704.17,491.65 -564.4,727.24 92.44,155.91 190.92,129.42 262,226.55 -160.31,13.28 -209.34,155.78 -209.34,302.36 -146.86,-34.2 -237.67,-87.92 -386.53,8.96 -103.41,67.22 -171.8,155.18 -171.8,316.75 -286.43,-191.82 -168.83,-172.95 -511.75,-93.06 0,-252.34 -36.97,-502.49 -357.99,-573.16 -189.29,-41.7 -398.03,55.02 -485.25,195.2 -18.06,28.98 -27.35,49.03 -40.4,75.93 -3.66,7.54 -20.05,43.37 -22.21,47.57l-24.66 45.08c0,-238.77 59.06,-368.96 152.57,-521.97l266.16 -431.78c-199.93,-133.89 -316.1,-124.4 -543.5,-8.47 -86.82,44.26 -88.89,57.63 -154.44,101.49 -118.45,-223.9 -125.21,-516.88 -578.34,-677.84 -48.83,-17.37 -97.21,-28.9 -156.32,-52.95 -69.53,-28.29 -76.18,-43.08 -149.3,-60.12 0,238.65 -58.74,372.55 -47.16,605.12 13.29,264.62 143.96,304.64 186.76,488.23 -206.81,48.18 -435.27,142.54 -530.69,332.72 -191.13,380.78 617.76,-95.09 972.65,434.95z"/>
 </g>
</svg>
