<?xml version="1.0" encoding="UTF-8"?>
<!DOCTYPE svg PUBLIC "-//W3C//DTD SVG 1.1//EN" "http://www.w3.org/Graphics/SVG/1.1/DTD/svg11.dtd">
<!-- Creator: CorelDRAW 2017 -->
<svg xmlns="http://www.w3.org/2000/svg" xml:space="preserve" width="320mm" height="150mm" version="1.1" style="shape-rendering:geometricPrecision; text-rendering:geometricPrecision; image-rendering:optimizeQuality; fill-rule:evenodd; clip-rule:evenodd"
viewBox="0 0 32000 15000"
 xmlns:xlink="http://www.w3.org/1999/xlink">
 <defs>
  <style type="text/css">
   <![CDATA[
    .fil0 {fill:#D7B56D}
   ]]>
  </style>
 </defs>
 <g id="Слой_x0020_1">
  <metadata id="CorelCorpID_0Corel-Layer"/>
  <path class="fil0" d="M15357.3 8129.28c-473.21,-421.82 -923.82,-1308.88 -1184.22,-1895.03 -156.76,-352.86 -341.29,-683.36 -491.95,-1049.86 -356.97,-868.37 -185.92,-323.34 86.53,-979.36 272.02,-877.37 -553.2,-1364.76 -1310.38,-1052.18 -625.93,258.39 -647.15,1285.64 -73.34,1543.63 198.82,89.38 433.04,89.1 588.32,154.17 240.1,642.61 432.32,1085.38 536.12,1785.16 57.32,386.51 200.69,1541.78 1.65,1861.57 -171.99,-230.09 -554.52,-591.67 -770.26,-834.28 -691.13,-777.22 -1496.86,-2155.31 -1896.47,-3115.8 -223.95,-538.3 160.43,-804.8 -88.94,-1259.36 -100.99,-184.13 -295.45,-321.88 -510.87,-399.83 -559.71,-202.55 -1165.87,48.9 -1252.08,675.31 -68.89,500.41 271.93,1057.96 970.25,1047.84 468.43,-6.79 399.57,172.48 841.79,836.28 1077.79,1617.87 2028.9,4221.19 2376.61,6094.25 52.35,282 423.11,2564.77 428.12,2572.17 1638.95,381.93 3236.87,562.57 4880.16,19.43 74.52,-113.63 621.95,-3107.08 747.44,-3558.24 160.44,-576.87 370.61,-1167.81 544.22,-1677.89 257.01,-755.11 702.73,-1638.7 1060.86,-2359.62 156.76,-315.59 710.44,-1347.35 926.95,-1623.32 187.9,-239.49 283.99,-440.11 339.38,-437.11 335.75,18.19 600.45,69.93 845.01,-207.43 399.81,-453.45 293.17,-1331.07 -496,-1468.35 -462.29,-80.42 -889.35,9.1 -1065.41,507.06 -198.14,560.4 138.12,846.92 145.16,905.05 6.35,52.4 -39.92,157.25 -130.16,317.2 -300.87,533.31 -569.16,1054.23 -889.63,1580.86 -339.9,558.55 -788.84,1276.34 -1064.84,1596.36 -103.74,120.29 -718.64,782.02 -815.92,768.5 -186.08,-368.44 -47.37,-1421.38 8.25,-1840.09 87.74,-660.36 324.21,-1237.77 566.08,-1844.32 152.45,16.54 684.07,69.83 879.91,-435.95 336.82,-870 -456.74,-1407.28 -1236.39,-1173.84 -176.18,52.75 -324.12,196.35 -415,370.88 -95.21,182.78 -127.85,399.51 -64.87,581.32 255.27,736.77 455.85,80.41 141.3,977.76 -120.98,345.14 -323.73,726.58 -485.31,1058.73 -237.48,488.24 -757.32,1574.78 -1143.91,1913.58 -453.55,-1277.98 -609.7,-2671.48 -610.16,-4022.25 -0.14,-435.14 -5.43,-1277.68 76.91,-1680.37 12.63,-61.69 317.64,-162.91 467.49,-390.88 217.63,-331.11 256.69,-820.13 -60.17,-1159.74 -234.9,-251.75 -542.52,-379.99 -844.31,-353.23 -336.91,29.86 -627.06,250.18 -773.77,550.42 -101.65,207.98 -134.1,450.9 -56.77,669.83 213.51,604.53 641.22,639.65 714.06,683.24 106.29,165.78 108.3,1445.35 106.13,1755.36 -11.6,1657.04 -377.87,2984.45 -547.57,3992.37z"/>
 </g>
</svg>
