<?xml version="1.0" encoding="UTF-8"?>
<!DOCTYPE svg PUBLIC "-//W3C//DTD SVG 1.1//EN" "http://www.w3.org/Graphics/SVG/1.1/DTD/svg11.dtd">
<!-- Creator: CorelDRAW 2017 -->
<svg xmlns="http://www.w3.org/2000/svg" xml:space="preserve" width="320mm" height="150mm" version="1.1" style="shape-rendering:geometricPrecision; text-rendering:geometricPrecision; image-rendering:optimizeQuality; fill-rule:evenodd; clip-rule:evenodd"
viewBox="0 0 32000 15000"
 xmlns:xlink="http://www.w3.org/1999/xlink">
 <defs>
  <style type="text/css">
   <![CDATA[
    .fil0 {fill:#D7B56D}
    .fil1 {fill:#EDEDF0}
   ]]>
  </style>
 </defs>
 <g id="Слой_x0020_1">
  <metadata id="CorelCorpID_0Corel-Layer"/>
  <g id="_2737062188240">
   <g id="_1861758921168">
    <path class="fil0" d="M10408.45 12118.11l11.51 -12.98 11.44 -13 -18.23 -51.94 6.79 -12.98 0 -12.97 21.23 -13.01 35.8 -103.87 7.92 -7.81 7.54 -18.18 18.46 -18.25 12.98 0 12.98 -7.7 16.56 -12.98 9.47 -7.29 12.96 -5.71 13.03 -12.98 25.95 -12.98 4.96 -12.98 206.71 1.83 75.7 9.74 44.58 14.39 18.9 7.2c234.52,103.36 192.56,400.31 82.91,542 -191.41,247.34 -429.03,54.37 -589.62,-29.92l23.16 -8.36 -73.69 -199.27zm11396.09 -233.73l0 0c-7.21,-148.69 350.46,-356.91 458.72,-466.61 155.71,-157.83 114.27,668.67 94.76,697.58 -0.02,0.05 -474.18,446.44 -479.14,449.79 -121.13,81.02 -69.72,-584.82 -74.34,-680.76zm-1355.9 402.55l0 0 -4 -25.98 -42.43 -77.92 2.19 -12.98 -12.17 -64.92 9.48 -13 0 -12.98 2.69 -12.98 11.46 -71.41 5.51 -45.47 16.79 -25.95 13.01 -12.98 12.98 -13 12.9 -12.98 39.06 -61.11 13.03 -5.01 23.42 -11.8 35.44 -12.98 45.07 -9.66 12.98 -3.32 13 -31.1 65 14.36 12.97 -25.87c309.23,87.37 453.79,239.4 316.6,523.87 -163.42,338.79 -402.01,198.14 -604.98,25.17zm-11253.81 -857.04l0 0 16.71 -1.86 90.96 74.27 12.97 15.12 321.19 276.06 29.66 6.34 61.19 833.37 -144.72 -138.51 10.84 -12.97 -395.12 -491.31 13.03 -15.12 14.84 -12.98 -45.41 -155.84 24.54 -12.98 0 -12.98 9.38 -13 -14.08 -142.84 14.08 -12.98 -20.06 -181.79zm7537.1 51.93l0 0c-49.3,-438.98 709.49,-541.13 759.67,-36.95 49.91,500.82 -701.91,550.98 -759.67,36.95zm4019.64 -51.93l0 0c76.72,356.12 519.41,298.7 590.28,103.48 38.2,-105.23 73.27,-240.6 -27.97,-353.96 -198.33,-222.06 -176.02,-93.06 -381.98,-107.61l-12.97 23.35 -64.95 34.49 -13.03 33.27 -34.91 20.26 -4.07 3.89 -19.2 35.05 -11.15 13 -17.33 38.94 -4.29 14.8 -4.44 24.16 0.73 13 0 12.98 -12.82 38.96 14.97 38.96 3.13 12.98zm-6563.44 -190.29l0 0c188.38,-101.45 177.52,-146.07 408.54,-66.14 124.35,43.03 216.73,193.62 208.3,347.53 -16.03,293.33 -440.18,471.94 -652.09,207.57l-3.68 -15.46 -83.17 -179.34 11.62 -38.96 26.25 -168.79 6.31 -12.72 73.98 -65.2 3.94 -8.49zm-3950.09 -32.4l0 0 -4.89 27.91 -47.08 101.14 -13.03 -3.79 27.92 150.1 -28.62 8.61c134.4,77.84 263.71,378.95 529.25,142 173.52,-154.79 120.51,-360.64 -47.73,-521.28l-27.27 6.34 -11.75 -22.33 -12.95 -0.67 -96.75 -11.47 -185.87 21.49 -3.26 12.98 -13.01 14.73 -64.96 74.24zm5946.65 -304.45l0 0c-4.81,41.73 -375.19,862.24 -384.8,869.94 -51.68,41.44 -396.65,-713.4 -433.65,-809.15 -34.73,-90.04 366.15,-843.63 381.9,-851.88 43.66,-22.9 444.59,721.45 436.55,791.09zm3668.76 98.34l0 0 12.98 4.59c283.89,349.58 -66.49,701.89 -413.63,853.97 -457.44,200.44 -776.28,5.3 -1123.21,-247.97l-7.55 -12.98 -51.94 -64.94 -1.59 -12.98 -90.56 -129.85 2.53 -12.98 -44.7 -38.96 6.71 -12.98 -69.22 -228.51 0 -50.14 -10.06 -64.18 10.06 -45.23 3.83 -27.47 61.16 -84.01 12.98 -6.68 26.01 0 3.65 -13.21 8.54 -25.96 13.76 -18.23 89.52 -72.67 14.44 -19.11 134.79 -68.89 99.12 -62.67 13.01 -6.16 25.95 -0.34 13.01 -22.62 13 0 24.84 -2.01 45.46 -9.45c242.09,-182.53 755.31,85.34 956.19,213.89l12.98 14.41 90.98 89 13 17.23 103.96 168.09zm-5745.19 -402.27l0 0 18.56 -12.98 18.78 -41.65 29.56 -34.26 12.97 -1.46 52.02 -44.44 12.98 -21.05 103.95 -26.92c311.32,-45.23 506.46,361.71 265.15,565.37 -119.41,100.79 -244.31,106.35 -392.08,17.44 -180.54,-108.63 -127.17,-219.58 -121.89,-400.05zm2704.02 38.96l0 0c0.45,335.52 234.15,478.23 501.55,333.31 320.51,-173.73 39.77,-597.28 -59.25,-567.04l-12.9 2.58 -188.38 -2.58 -6.53 12.98 -12.95 9.6 -64.97 2.98 -13.03 7.37 -63.19 72.95 -68.94 114.85 -11.41 13zm-2666.68 -93.59l0 0 -1893.54 -23.29 30.37 -12.98 73.61 -20.96 12.98 -11.47 558.73 39.64 26.01 15.51 25.96 2.25 13.03 3.13 272.82 178.27 13.03 4.39 89.31 100.9 27.6 4.31c150.75,203.86 84.16,382.44 -36.58,581.5 -181.8,299.8 -193.19,226.56 -425.72,405.53 -287.55,221.28 -980.27,125.42 -1170.58,-199.24l-4.31 -12.04 -44 -13.94 -14.23 -12.98 -85.94 -103.87 -7.91 -13.01 -12.8 -25.95 -4.02 -12.98 -13 -111.48 14.07 -44.36 -1.12 -48.57 24.13 -3.37 -7.52 -64.92 9.42 -14.57 51.97 -68.86 3.5 -7.47 -3.5 -45.64 46.45 -6.29 -13.05 -25.99 5.58 -17.88 23.53 -34.05 32.75 -12.98 34.68 -44.86 -0.21 -7.11 -9.06 -25.95 42.35 -12.98 60.45 -90.9 41.86 -13 59.51 -56.54 12.98 -23 20.42 -11.36 35.46 -12.98 35.07 -22.09 13 -12.59 71.53 -10.81 39.43 -32.43 31.96 -12.98 1893.54 23.29zm9203.19 -1711.4l0 0c-59.06,298.91 -389.7,546.7 -350.82,118.35 40.92,-450.45 413.83,-437.26 350.82,-118.35zm-365.99 -573.51l0 0 -8.7 17.31 8.7 -17.31zm-738.5 -543.22l0 0 -10109.15 -1727.07 10109.15 1727.07zm-10109.15 -1727.07l0 0 -210.88 -230.63c-52.05,19.63 -378.01,539.49 -416.24,668.72 -59.93,202.42 -89.07,262.56 -87.92,483.53 0.34,65.12 10.99,540.09 4.02,553.27 -187.7,74.43 -513.38,-6.52 -857.31,204 -234.93,143.77 -448.59,371.97 -532.65,638.06 -120.64,381.85 -101.37,508.23 10.58,888.83 51.34,174.43 332.15,556.07 507.68,603.02 205.33,-48.02 -37.65,-523.64 239.77,-865.69 254.6,-313.95 488.57,-355.26 861.62,-228.72 317.81,107.79 367.64,557.71 311.23,830.59 -91.1,440.71 -15.98,526.62 -397.46,835.66 -454.15,367.9 -1108.77,440.78 -1638.21,208.67 -226.21,-99.2 -1117.54,-1229.47 -934.41,-1376.46l797.58 264.68 -369.57 -1750.49 -812.97 590.33 -19.69 -22.41c46.12,-128.76 432.33,-1167.36 422.9,-1207.4l-1230.83 199.09c59.65,297.53 160.42,563.43 223.84,846.73 59.17,264.31 -31.49,459.71 -43.11,715.91 -31.75,700.97 560.15,442.76 686.87,1286.65 41.91,279.48 149.6,515.62 192.16,795.37 37.01,243.37 -5.77,407.28 -10.49,640.38 -12.2,604.7 -204.1,655.28 383.67,1092.22 414.98,308.47 621.27,730.32 1137.11,539.15 567.95,-210.44 1010.43,-378.48 1603.94,-540.09 2347.67,-639.19 5208.76,-647.67 7568.91,-54.91 509.77,128 1104.93,283.87 1591.39,477.78 851.17,339.31 690.52,465.2 1236.49,-292.04 352.81,-489.36 649.84,-506.33 461.54,-1211.97 -161.85,-606.29 52.17,-799.37 143.18,-1345.17 155.34,-931.63 694.75,-790.91 714.39,-1346.93 9.66,-273.5 -82.44,-513.03 -27.5,-797.95 53.38,-276.92 165.19,-559.83 223.76,-858.17l-1222.31 -189.21 422.14 1263.96 -824.07 -581.29 -391.09 1716.33 789.57 -269.51c183.24,133.49 -499.77,944 -607.01,1097.7 -315.91,452.9 -426.71,545.89 -1035.95,473.04 -504.23,-60.32 -835.58,-273.27 -1186.01,-614.59 -136.31,-132.79 -146.83,-544.71 -185.82,-737.53 -40.42,-199.82 42.33,-517.16 217.31,-647.7 427.26,-318.73 973.46,-86.85 1141.55,381.27 78.31,218.22 -54.63,666.55 141.79,625.06 124.92,-26.4 368.81,-345.34 434.77,-458.04 555.19,-948.94 -327.5,-1919.47 -1398.1,-1851.71 -3.1,-314.47 79.1,-730.5 -57.34,-1032.81 -56.17,-124.4 -342.44,-637.67 -420.81,-691.59 -443.31,334.6 -791.63,850.77 -795.29,1438.7 -561.19,-204.85 -1307.41,198.04 -1545.71,742.73 -191.67,437.91 -5.41,1381.88 444.38,1482.63l124.09 -73.12c14.15,-296.8 -109.67,-474.83 185.06,-788.37 157.85,-167.96 547.14,-389.52 744.81,-173.78 49.59,54.08 166.76,771.37 111.53,899.27 -99.51,230.47 -137.74,475.07 -355.05,619.94 -486.22,324.06 -1062.48,409.87 -1612.07,166.42 -189.11,-83.74 -500.97,-311.89 -593.26,-497.92 -232.9,-469.37 -193.44,-351.53 -193.44,-897.44l918.46 411.43 3.19 -1722.97 -806.55 402.01 361.98 -1209.65 -723.72 -10.97c120.67,-92.17 278.44,-73.53 261.84,-349.99 -8.1,-134.22 -159.03,-305.96 -322.63,-284.18 -146.91,19.56 -294.21,149.16 -311.78,302.44 -25.3,220.08 182.84,266.5 265.59,327.11l-754.66 17.65 353.2 1247.49 -878.92 -473.74 -3.01 1732.92 962.75 -438.41c-1.43,247.47 53.95,544.5 -78.07,764.37 -86.33,143.75 -212.93,411.15 -336.18,508.11 -365.97,287.94 -828.63,332.36 -1278.71,318.39 -286.62,-8.88 -825.71,-250.71 -1003.7,-484.97 -346.83,-456.47 -118.52,-828.84 -72.46,-1316.76 390.44,-43.79 395.11,-175.34 764.87,144.64 291.34,252.14 229.4,507.4 225.56,824.04l118.55 94.06c787.53,-295.83 919.27,-2484.94 -1134.94,-2244.42 -22.32,-222.19 -87.81,-520.84 -183.65,-725.46 -50.11,-106.93 -322.33,-457.05 -414.07,-469.19z"/>
    <path class="fil0" d="M15422.56 12390.81c-1041.95,39.66 -1938.84,148.11 -2958.15,368 -396.16,85.47 -943.06,208.96 -1317.21,348.06 -308.47,114.71 -1202.88,212.82 -489.09,416.94 2075.73,593.62 3666.91,883.16 5849.8,821.27 1225.32,-34.72 3059.97,-318.31 4246.04,-717.1 311.05,-104.56 1174.31,-207.99 464.72,-406.21 -2105.6,-588.14 -3567.44,-915.8 -5796.11,-830.96z"/>
    <path class="fil0" d="M15474.53 3404.9l896.5 17.05c-170.33,376.41 -705.57,372.16 -896.5,-17.05zm610.72 -571.38l0 0 4.36 -94.03 42.77 -27.31 335.13 423.91 -44.41 35.07 -337.85 0 0 -337.64zm-383.18 -111.29l0 0 45.33 448.93 -311.86 0 -41.73 -30.76 308.26 -418.17zm-139.96 -1435.68l0 0 -596.99 -112.91c-21.83,313.77 -10.63,629.32 -5.43,943.69 39.48,14.18 621.45,-219.71 707.23,-251.47l69.6 382.92c-910.58,145.55 -1185.34,1583.76 49.9,1922.24 -69.07,97.03 -342.68,103.9 -326.91,467.52 11.86,272.46 189.29,329.78 376.81,430.55l5.8 0.18c1.61,2.22 -340.88,114.63 -303.49,412.11 22.49,178.92 170.23,368.22 360.25,349.83 459.04,-44.36 571.04,-528.08 69.44,-751.21 158.42,-98.76 368.29,-152.99 390.07,-403.26 21.93,-252.38 -100.38,-373.96 -293.87,-497.97 223.73,-118.18 312.2,-44.26 571.32,-301.57 170.44,-169.32 256.5,-403.94 255.41,-640.89 -1.31,-284.26 -38.29,-439.84 -222.59,-661.15 -220.1,-264.28 -367.59,-216.47 -557.4,-338.97l64.26 -376.7 700.79 264.45c36.58,-37.35 13.97,-808.56 11.91,-944.48l-607.8 110.25 146.23 -935.8 -1030.04 -0.6 165.5 933.24z"/>
    <path class="fil0" d="M9627.34 7066.79c294.24,-169.53 784.53,-602.11 1118.69,-829.86 404.99,-276.04 805.08,-485.26 1236.86,-711.73 350.25,-183.73 1010.82,-454.6 1388.99,-559.7 211.41,-58.76 1170.11,-278.7 1297.07,-339.99l491 1738.9 318.86 -2.8c9.79,-40.68 -439.22,-1785.51 -489.59,-2012.56 -60.63,-273.61 -51.13,-255.09 -345.81,-174.25 -586.65,160.91 -1041.4,248.31 -1651.55,488.83 -1234.27,486.59 -2361.06,1121.62 -3357.89,1993.5 -255.59,223.53 -207.15,154.75 -6.63,409.66z"/>
    <path class="fil0" d="M17168.96 4617.73c407.72,22.43 1557.04,425.87 1974.51,587.43 805.63,311.76 2018.49,974.58 2681.72,1553.29 73.17,63.87 329.78,316.85 402.64,275.91 201.4,-113.2 123.64,-273.74 -15.2,-378.66 -599.16,-452.75 -1010.02,-791.53 -1670.33,-1186.57 -571.71,-342 -1265.79,-663.36 -1893.46,-886.39 -366.96,-130.38 -720.55,-217.5 -1086.08,-331.58 -210.89,-65.81 -666.97,-254.5 -723.87,41.2 -124.37,646.19 -358.58,1310.81 -487.13,1942.01 -26.32,129.28 266.4,276.48 360.95,-59.85 60.09,-213.84 433.4,-1531.65 456.25,-1556.79z"/>
    <path class="fil1" d="M18865.92 11780.5c0,-43.53 0,43.51 0,0zm-802.71 -797.32l0 0 378.74 -381.46 -378.74 381.46zm613.13 -484.71l0 0 -45.46 9.45 -24.84 2.01 -13 0 -13.01 22.62 -25.95 0.34 -13.01 6.16 -99.12 62.67 -134.79 68.89 -14.44 19.11 -89.52 72.67 -13.76 18.23 -8.54 25.96 -3.65 13.21 -26.01 0 -12.98 6.68 -61.16 84.01 -3.83 27.47 -10.06 45.23 10.06 64.18 0 50.14 69.22 228.51 -6.71 12.98 44.7 38.96 -2.53 12.98 90.56 129.85 1.59 12.98 51.94 64.94 7.55 12.98c346.93,253.27 665.77,448.41 1123.21,247.97 347.14,-152.08 697.52,-504.39 413.63,-853.97l-12.98 -4.59 -103.96 -168.09 -13 -17.23 -90.98 -89 -12.98 -14.41c-200.88,-128.55 -714.1,-396.42 -956.19,-213.89z"/>
    <path class="fil1" d="M12184.92 10713.51l-8.61 17.31 8.61 -17.31zm-4.25 -147.2l0 0 407.07 -73.53 -8.67 17.31 8.67 -17.31 -407.07 73.53zm188.35 -90.82l0 0 -12.98 11.47 -73.61 20.96 -30.37 12.98 -31.96 12.98 -39.43 32.43 -71.53 10.81 -13 12.59 -35.07 22.09 -35.46 12.98 -20.42 11.36 -12.98 23 -59.51 56.54 -41.86 13 -60.45 90.9 -42.35 12.98 9.06 25.95 0.21 7.11 -34.68 44.86 -32.75 12.98 -23.53 34.05 -5.58 17.88 13.05 25.99 -46.45 6.29 3.5 45.64 -3.5 7.47 -51.97 68.86 -9.42 14.57 7.52 64.92 -24.13 3.37 1.12 48.57 -14.07 44.36 13 111.48 4.02 12.98 12.8 25.95 7.91 13.01 85.94 103.87 14.23 12.98 44 13.94 4.31 12.04c190.31,324.66 883.03,420.52 1170.58,199.24 232.53,-178.97 243.92,-105.73 425.72,-405.53 120.74,-199.06 187.33,-377.64 36.58,-581.5l-27.6 -4.31 -89.31 -100.9 -13.03 -4.39 -272.82 -178.27 -13.03 -3.13 -25.96 -2.25 -26.01 -15.51 -558.73 -39.64z"/>
    <path class="fil0" d="M14318.07 3119.22c-690.73,14.6 -725.07,979.18 -5.85,992.73 622.37,11.72 606.84,-1005.44 5.85,-992.73z"/>
    <path class="fil0" d="M17566.55 3080.26c-811.4,127.12 -528.79,960.92 -90.54,987.51 842.77,51.13 613.31,-1069.42 90.54,-987.51z"/>
    <path class="fil1" d="M16184.69 10902.75c8.04,-69.64 -392.89,-813.99 -436.55,-791.09 -15.75,8.25 -416.63,761.84 -381.9,851.88 37,95.75 381.97,850.59 433.65,809.15 9.61,-7.7 379.99,-828.21 384.8,-869.94z"/>
    <path class="fil0" d="M13317.59 3456.83c-591.38,-59.17 -810.59,909.25 -21.88,947.03 523.69,25.1 622.24,-886.97 21.88,-947.03z"/>
    <path class="fil0" d="M18476.08 3456.83c-615.22,174.91 -397.15,1007.02 168.77,934.45 693,-88.89 405.87,-1097.83 -168.77,-934.45z"/>
    <path class="fil0" d="M12408 3846.38c-629.6,-101.37 -704.7,888.57 -121.05,909.35 597.74,21.31 641.77,-825.5 121.05,-909.35z"/>
    <path class="fil0" d="M19385.66 3846.38c-539.28,163.6 -346.43,980.93 208.28,876.53 617.23,-116.2 358.63,-1048.5 -208.28,-876.53z"/>
    <path class="fil0" d="M11381.51 4339.84c-511.49,146.41 -373.41,868.48 157.64,825.13 554.67,-45.28 409.69,-987.5 -157.64,-825.13z"/>
    <path class="fil0" d="M20334.18 4326.86c-533.01,10.47 -512.43,866.18 85.89,821.95 491.65,-36.38 514.71,-833.76 -85.89,-821.95z"/>
    <path class="fil0" d="M10562.9 4833.29c-459.68,94.03 -311.91,906.58 199.14,758.08 442.98,-128.77 341.58,-868.7 -199.14,-758.08z"/>
    <path class="fil0" d="M21113.83 4846.27c-514.84,127.19 -339.44,813.88 107.04,741.94 571,-91.97 330.43,-850.02 -107.04,-741.94z"/>
    <path class="fil1" d="M21804.54 11884.38c4.62,95.94 -46.79,761.78 74.34,680.76 4.96,-3.35 479.12,-449.74 479.14,-449.79 19.51,-28.91 60.95,-855.41 -94.76,-697.58 -108.26,109.7 -465.93,317.92 -458.72,466.61z"/>
    <path class="fil1" d="M16731.93 11481.82c57.76,514.03 809.58,463.87 759.67,-36.95 -50.18,-504.18 -808.97,-402.03 -759.67,36.95z"/>
    <path class="fil1" d="M14188.13 11239.6l-3.94 8.49 -73.98 65.2 -6.31 12.72 -26.25 168.79 -11.62 38.96 83.17 179.34 3.68 15.46c211.91,264.37 636.06,85.76 652.09,-207.57 8.43,-153.91 -83.95,-304.5 -208.3,-347.53 -231.02,-79.93 -220.16,-35.31 -408.54,66.14z"/>
    <path class="fil1" d="M10902.21 11792.07l-75.7 -9.74 -206.71 -1.83 -4.96 12.98 -25.95 12.98 -13.03 12.98 -12.96 5.71 -9.47 7.29 -16.56 12.98 -12.98 7.7 -12.98 0 -18.46 18.25 -7.54 18.18 -7.92 7.81 -35.8 103.87 -21.23 13.01 0 12.97 -6.79 12.98 18.23 51.94 -11.44 13 -11.51 12.98 73.69 199.27 -23.16 8.36c160.59,84.29 398.21,277.26 589.62,29.92 109.65,-141.69 151.61,-438.64 -82.91,-542l-18.9 -7.2 -44.58 -14.39 -75.7 -9.74 -206.71 -1.83 282.41 11.57z"/>
    <path class="fil0" d="M9913.19 5404.63c-486.35,51.16 -386.28,751.29 67.92,697.53 475.67,-56.33 402.32,-746.96 -67.92,-697.53z"/>
    <path class="fil1" d="M20415.86 11994.76l308.19 -231 -65 -14.36 -13 31.1 -12.98 3.32 -45.07 9.66 -35.44 12.98 -23.42 11.8 -13.03 5.01 -39.06 61.11 -12.9 12.98 -12.98 13 -13.01 12.98 -16.79 25.95 -5.51 45.47 -11.46 71.41 -2.69 12.98 0 12.98 -9.48 13 12.17 64.92 -2.19 12.98 42.43 77.92 4 25.98c202.97,172.97 441.56,313.62 604.98,-25.17 137.19,-284.47 -7.37,-436.5 -316.6,-523.87l-12.97 25.87 -308.19 231z"/>
    <path class="fil0" d="M21828.51 5404.63c-461.02,125.69 -345.91,701.5 97.04,684.58 474.36,-18.13 362.34,-809.79 -97.04,-684.58z"/>
    <path class="fil0" d="M9250.53 5950.03c-214.25,68.12 -325.6,91.26 -320.69,364.95 3.11,173.15 170.39,308.91 332.23,302.04 547.35,-23.26 321.66,-772.93 -11.54,-666.99z"/>
    <path class="fil0" d="M22478.2 5937.05c-447.5,222.27 -187.1,793.17 213.18,643.31 440.63,-164.95 109.67,-803.7 -213.18,-643.31z"/>
    <polygon class="fil1" points="9214.89,11611.68 9200.81,11624.66 9214.89,11767.5 9205.51,11780.5 9205.51,11793.48 9180.97,11806.46 9226.38,11962.3 9211.54,11975.28 9198.51,11990.4 9593.63,12481.71 9582.79,12494.68 9727.51,12633.19 9666.32,11799.82 9636.66,11793.48 9315.47,11517.42 9302.5,11502.3 9211.54,11428.03 9194.83,11429.89 "/>
    <path class="fil1" d="M14357.08 10416.06l-103.95 26.92 -12.98 21.05 -52.02 44.44 -12.97 1.46 -29.56 34.26 -18.78 41.65 -18.56 12.98c-5.28,180.47 -58.65,291.42 121.89,400.05 147.77,88.91 272.67,83.35 392.08,-17.44 241.31,-203.66 46.17,-610.6 -265.15,-565.37z"/>
    <path class="fil1" d="M16892.63 10509.93l160.67 -105.88 -6.53 12.98 -12.95 9.6 -64.97 2.98 -13.03 7.37 -63.19 72.95 -68.94 114.85 -11.41 13c0.45,335.52 234.15,478.23 501.55,333.31 320.51,-173.73 39.77,-597.28 -59.25,-567.04l-12.9 2.58 -188.38 -2.58 -160.67 105.88z"/>
    <path class="fil1" d="M20931.9 11071.8l-12.97 23.35 -64.95 34.49 -13.03 33.27 -34.91 20.26 -4.07 3.89 -19.2 35.05 -11.15 13 -17.33 38.94 -4.29 14.8 -4.44 24.16 0.73 13 0 12.98 -12.82 38.96 14.97 38.96 3.13 12.98c76.72,356.12 519.41,298.7 590.28,103.48 38.2,-105.23 73.27,-240.6 -27.97,-353.96 -198.33,-222.06 -176.02,-93.06 -381.98,-107.61z"/>
    <path class="fil1" d="M10505.14 11083.76l-185.87 21.49 -3.26 12.98 -13.01 14.73 -64.96 74.24 -4.89 27.91 -47.08 101.14 -13.03 -3.79 27.92 150.1 -28.62 8.61c134.4,77.84 263.71,378.95 529.25,142 173.52,-154.79 120.51,-360.64 -47.73,-521.28l-27.27 6.34 -11.75 -22.33 -12.95 -0.67 -96.75 -11.47 -185.87 21.49 185.87 -21.49z"/>
   </g>
  </g>
 </g>
</svg>
