<?xml version="1.0" encoding="UTF-8"?>
<!DOCTYPE svg PUBLIC "-//W3C//DTD SVG 1.1//EN" "http://www.w3.org/Graphics/SVG/1.1/DTD/svg11.dtd">
<!-- Creator: CorelDRAW 2017 -->
<svg xmlns="http://www.w3.org/2000/svg" xml:space="preserve" width="320mm" height="150mm" version="1.1" style="shape-rendering:geometricPrecision; text-rendering:geometricPrecision; image-rendering:optimizeQuality; fill-rule:evenodd; clip-rule:evenodd"
viewBox="0 0 32000 15000"
 xmlns:xlink="http://www.w3.org/1999/xlink">
 <defs>
  <style type="text/css">
   <![CDATA[
    .fil0 {fill:#D7B56D}
   ]]>
  </style>
 </defs>
 <g id="Слой_x0020_1">
  <metadata id="CorelCorpID_0Corel-Layer"/>
  <g id="_2736992444128">
   <g id="_1861758858016">
    <path class="fil0" d="M13008.67 9132.08l4.96 4.94c-0.34,-0.31 -6.6,-3.3 -4.96,-4.94zm2177.64 -1030.91l0 0 4.96 4.97c-0.3,-0.31 -6.63,-3.3 -4.96,-4.97zm1363.07 -2793.33l0 0 5 4.97c-0.34,-0.34 -6.61,-3.3 -5,-4.97zm-1479.42 -33.27l0 0 4.93 4.97c-0.34,-0.31 -6.57,-3.3 -4.93,-4.97zm2626.46 -847.96l0 0 -3573.98 -166.28 3573.98 166.28zm-3573.98 -166.28l0 0 6100.67 -49.88 -6100.67 49.88zm4089.28 -166.26l0 0 -4455.03 -66.53 4455.03 66.53zm-4455.03 -66.53l0 0c-92.64,-64.41 -511.81,-166.44 -664.85,-166.32 -94.01,0.1 -108.33,-14.16 -183.48,-17.31 -87.89,-3.67 -104.71,17.07 -198.62,17.62 -122.99,0.74 -167.92,20.46 -276.34,39.54l-212.11 78.01c-1.98,0.84 -6.27,2.75 -8.18,3.49 -112.31,42.68 -234.52,87.56 -338.15,158.01l-55.96 43.83c-2.74,2.1 -6.6,5.09 -9.44,7.13 -25.37,18.11 -34.04,19.9 -60.92,38.88 -76.54,54.01 -149.56,136.91 -202.05,213.54l-27.01 39.5c-138.13,173.01 -207.79,390.65 -239.92,608.44 -22.25,150.67 -1.05,296.06 10.31,449.32l16.11 52.68c0.56,1.23 2.66,5.31 3.21,6.57l40.06 107.86c1.05,2.41 3.18,6.89 4.29,9.42l133.01 264.51c2.72,4.08 11.08,15.31 13.92,19.32l405.28 392.75c98.02,60.74 185.66,117.37 304.91,127.27 0,-124.99 3.15,-136.81 26.02,-240.01 68.33,-308.77 226.06,-477.15 461.05,-669.52 60.73,-49.74 101.53,-68.97 183.87,-98.69 325.65,-117.43 707.04,37.56 1014.89,153.38 196.34,73.89 466.63,379.17 546.16,584.31l40.71 108.94c22.62,62.77 48.73,158.23 54.53,228.1 -89.9,0 -291.67,-27.03 -364.63,17.72l-55.03 62.4c-36.69,54.38 -18.11,24.01 -65.52,51.51l-196.34 250.81 104.13 95.39c2.25,2.57 5.46,6.27 7.68,8.92l107.09 125.67c129.96,164.99 88.45,119.19 495.89,119.19 -69.78,299.67 -240.57,502.12 -499.41,647.73 -51.35,28.89 -64.71,32.25 -127.24,55.64 -38.88,14.6 -2.56,1.48 -35.49,14.38 -146.44,57.25 -278.06,79.94 -447.74,43.24 -188.69,-40.77 -359.82,-132.77 -496.32,-268.43 -68.7,-68.27 -103.85,-148.82 -155.82,-226.53l-54.07 26.42c-1.36,1.14 -4.73,4.35 -6.02,5.68l-29.07 43.73c-1.98,2.81 -5.1,6.76 -7.29,9.56l-61.84 87.1c-1.27,2.19 -3.71,6.54 -4.88,8.64l-112.86 316.05c-21.27,100.71 -19.63,177.46 -17.38,270.54 1.21,51.32 3.74,27.5 14.05,88.48 5.55,32.71 0.92,42.25 3.64,71.81l16.23 60.28c0.62,1.76 2.31,6.42 2.93,8.15l9.41 23.88c0.62,1.67 2.63,6.14 3.28,7.78l17.65 47.99c0.71,1.88 2.28,6.57 3.05,8.52l74.07 152.05c65.89,108.02 250.23,334.36 421.64,402.78 39.28,15.68 46.14,14.75 82.43,33.98 3.24,1.73 7.25,4.38 10.49,6.14 3.24,1.76 7.25,4.38 10.49,6.11 176.66,92.53 433.71,87.65 638.1,76.88 169.53,-8.92 329.08,-56.88 479.29,-119.16 25.52,-10.55 52.31,-22.77 80.42,-35.98l317.85 -214.12c21.26,-16.61 19.16,-14.26 36.6,-29.94l103.36 -112.74c2.1,-2.77 4.9,-6.82 7.1,-9.56l191.34 -278.96c1.11,-2.16 3.52,-6.58 4.69,-8.83 51.69,-96.2 115.86,-204.89 147.55,-307.17 6.76,-21.85 -0.12,-25.46 17.93,-73.2l96.91 -294.39c0.55,-1.85 2.16,-6.45 2.74,-8.37 1.11,-3.58 4.39,-14.19 5.53,-18.11 12.99,-44.69 8.73,-31.79 16.79,-71.36l54.87 -328.49c6.42,-52.19 14.87,-61.14 16.17,-118.2l99.72 0 -106.6 425.43c-1.39,3.86 -3.3,8.09 -4.75,11.85l-37.07 112.62c-11.73,56.66 -18.7,73.17 -32.44,117.21l-120.6 444.66c-55.06,208.87 -79.9,566.31 -81.08,783.95 -0.92,171.74 18.86,341.58 64.23,501.04l150.05 332.14c141.53,147.7 34.22,67.43 211.59,187.36 2.93,2 6.91,4.84 9.75,6.91 2.74,2.1 6.45,5.28 9.1,7.47l91.63 74.65c3.7,1.95 29.41,13.24 34.35,15.53l224.52 166.93c26.26,31.51 45.18,49.75 102.61,54.53 20.31,-50.33 43.52,-21.32 119.22,-96.94 28.52,-28.51 49.26,-36.07 96.88,-36.07 -4.35,-51.48 0.22,-31.45 -16.6,-66.51 80.67,0 83.23,-8.8 134.03,-48.82l118.14 -97.99c2.74,-2.16 6.63,-5.15 9.29,-7.38l25.77 -24.1c2.43,-2.38 5.8,-5.99 8.21,-8.42 2.43,-2.41 5.8,-5.99 8.2,-8.43 10.1,-10.09 15.34,-15.15 25.03,-24.81l218.38 -363.52c24.41,-60.74 17.72,-25.87 36.39,-96.6 69.25,-261.83 81.41,-404.54 81.5,-699.98 0.07,-260.04 -38.2,-521.56 -123.47,-757.75l-149.16 -499.28c-25.74,-76.23 -21.42,-128.05 -53.39,-195.97 -2.38,-5.03 -54.35,-121.54 -56.35,-209.71l149.65 0c44.47,191 34.19,315.72 105.54,559.59 8.52,29.16 19.91,71.13 25.19,91.47 2.53,9.54 6.88,27.78 8.3,33.27 1.02,4.14 3.61,14.81 4.53,18.52 0.56,1.91 1.86,6.54 2.41,8.39l20.74 72.1c0.99,2.53 3.24,7.28 4.29,9.75 0.99,2.44 3.52,7 4.51,9.38l439.68 793.55c10.87,11.45 23,22.31 33.83,32.68l142.43 116.04c122.3,79.9 178.72,133.6 329.35,193.54 115.43,45.89 226.65,83.69 358.06,107.43 205.6,37.15 515.39,18.73 725.13,-57.31l74.59 -41.76c3.31,-1.76 7.47,-4.1 10.93,-5.74l139.62 -76.48c14.01,-10.95 15.09,-11.63 28.73,-21.17 2.87,-2 6.88,-4.81 9.78,-6.79l20.4 -12.9c3.03,-1.94 7.35,-4.29 10.34,-6.26 70.68,-45.68 110.12,-111.6 168.54,-180.6 17.56,-20.81 12.62,-13.92 24.1,-25.74 86.01,-88.42 145.39,-237.58 171.56,-356.4 34.01,-154.12 47.53,-341.73 1.58,-492.3l-8.74 -29.85c-3.36,-12.8 -12.99,-50.46 -18.73,-72.61 -13.67,-52.16 -14.07,-75.65 -47,-123.76 -6.85,-9.94 -8.8,-10.93 -16.42,-24.63l-7.41 -16.26c-33.05,-67.47 -93.36,-170.48 -156.07,-212.49 -67.43,49.41 -101.75,160.83 -159.71,222.7l-16.29 16.92c-2.44,2.4 -5.99,5.8 -8.46,8.17l-78.85 70.8c-286.15,226.99 -693.96,264.02 -1007.3,71.14l-223.59 -158.82c-2.26,-2.62 -5.28,-6.45 -7.47,-9.13 -12.84,-15.56 -24.47,-32.19 -37.53,-45.59l-128.91 -170.38c-35.67,-70.49 -103.51,-204.34 -110.55,-288.47 83.15,0 166.57,-0.65 249.71,0.34 50.36,0.59 105.61,8.18 150.85,-15.4l281 -317.48c-33.55,-125.79 -38.33,-103.54 -107.31,-158.69 -26.63,-21.23 -8.15,-0.89 -26.79,-23.11l-102.68 -130.05c-19.04,-35.28 -12.56,-20.68 -12.56,-70.58l-382.34 0c0,-180.55 85.02,-377.6 175.76,-505.92 144.71,-204.74 336.91,-352.91 565.07,-449.01l206.44 -76.2c42.62,-14.57 58.67,-11.85 107.8,-25.15 69.38,-18.8 30.18,-22.44 124.8,-24.85 214.46,-5.46 272.95,-66.44 484.6,14.79 110.42,42.4 198.96,123.45 286.95,195.2 2.65,2.16 6.42,5.31 9.1,7.53l164.87 184.21c20.52,27.62 38.64,46.02 54.65,78.39 14.85,30.03 6.15,16.95 19.08,47.44l50.18 116.5c1.51,3.92 3.18,8.36 4.72,12.22 2.01,4.94 8.33,18.83 10.28,23.52 44.93,107.15 62.89,230.41 62.89,351.45l612.7 -401.42c48.58,-55.52 61.6,-88.6 103.73,-145.66 2.87,-3.92 11.63,-14.79 14.41,-18.83l117.62 -231.53c33.88,-79.65 75.36,-222.63 76.29,-296.95 1.72,-140.76 26.54,-190.17 -0.28,-362.29 -25.43,-163.53 -76.66,-310.03 -156.72,-450.82 -91.6,-161.01 -46.48,-95.37 -176.84,-246.5 -63.45,-73.54 -121.96,-162.86 -225.16,-190.42 -14.51,-40.08 -6.89,-21.14 -37.99,-45.18 -102.68,-79.25 -240.26,-121.13 -346.8,-167.48 -236.52,-102.96 -569.65,-143.45 -844.01,-118.58l-782.59 214.86c-52.4,12.2 -42.16,17.97 -73.51,34.01 -8.55,4.39 -32.81,14.85 -61.79,27.35l-177.64 106.69c-30.43,22.4 -40.89,23.27 -74.9,42.56l-100.36 82.55c-22.96,26.14 -13.49,1.76 -27.1,39.38 -67.56,15.74 -78.17,31.91 -120.36,79.13l-39.17 44.01c-2.4,2.41 -5.95,5.83 -8.42,8.18l-577.42 752.38 -112.53 251.95c-0.61,1.79 -2.13,6.36 -2.68,8.09 -0.56,1.73 -1.98,6.3 -2.5,7.99l-113.11 399.17c-51.11,308.96 -37.81,279.36 -37.81,610.6l-282.6 0c0,-87.89 -4.44,-187.48 6.11,-267.88 19.35,-147.86 8.98,-364.97 73.64,-516.94l45.89 -120.36c5.59,-15.09 7.22,-21.94 12.81,-37.06l88.7 -211c38.67,-68.95 26.51,-107.22 64.65,-166.35l169.19 -297.69c2.12,-2.69 5.64,-6.08 7.74,-8.86l73.3 -126.22c65.18,-88.82 -51.66,66.97 14.26,-18.98l128.75 -187.12c2.25,-2.56 5.77,-6.02 8,-8.61l109.34 -123.42c2.44,-2.43 5.95,-5.86 8.3,-8.33l38.42 -44.72c94.81,-120.48 185.85,-265.38 233.23,-398.58 7.74,-21.91 7.13,-20.24 19.62,-46.88 1.61,-3.45 4.05,-7.47 5.65,-10.92l10.83 -22.44c1.61,-3.61 3.46,-7.96 4.97,-11.66l97.8 -351.12c88.11,-377.96 -25.02,-841.91 -152.3,-1193.3 -1.36,-3.86 -3.33,-8.03 -4.78,-11.85l-355.38 -775.16c-2.03,-2.87 -5.09,-6.67 -7.13,-9.54l-163.28 -268.96c-67.96,-93.85 54.5,71.51 -14.2,-19.07 -25.22,-33.24 -41.26,-51.72 -65,-84.56l-93.23 -139.56c-1.94,-2.99 -4.54,-7.13 -6.54,-10.09l-189.06 -226.56c-2.41,-2.46 -6.14,-5.64 -8.64,-7.99l-248.84 -266.49c-2.44,-2.44 -5.93,-5.9 -8.37,-8.3l-214.79 -184.22c-2.38,-2.47 -5.87,-5.89 -8.09,-8.51 -29.19,-34.01 -17.25,-2.13 -30.68,-52.47 -96.72,8.06 -65.7,47.19 -187.23,128.2l-232.52 216.8c-11.05,11.05 -13.89,13.92 -24.9,24.94 -2.41,2.44 -5.93,5.9 -8.34,8.33 -2.43,2.41 -5.89,5.87 -8.3,8.31l-516.78 613.71c-45.86,60.59 -74.84,133.36 -131.93,200.64l-14.94 18.3c-14.69,22.74 -12.13,26.88 -20.15,46.35 -30.06,73.3 -72.87,112 -111.38,187.86l-94.87 204.36c-1.7,3.4 -3.98,7.6 -5.74,10.93 -78.21,150.57 -164.16,387.19 -193.6,454.81l-49.66 149.83c-9.69,38.18 -19.01,67.93 -34.96,114.69 -29.04,85.21 -42.84,134.4 -57.78,224.89 -30.02,181.99 -51.57,321.61 -5.8,516.25 47.59,202.27 67.62,370.19 169.47,562.09 1.75,3.27 4.28,7.34 5.98,10.65l200.3 348.33c2,3 4.62,7.07 6.63,10.03l19.88 29.97c2,2.96 4.63,7.07 6.63,10.03 1.95,2.96 4.69,7.01 6.61,9.97l110.85 138.54c29.97,29.53 -11.76,-14.45 16.64,16.6 25.46,27.81 6.23,7.56 22.34,27.53 2.22,2.72 5.06,6.7 7.28,9.38 2.13,2.69 5.1,6.64 7.29,9.29l160.29 238.78c15.59,22.41 15.34,23.95 25.86,40.61l118.11 214.4c1.76,3.3 4.23,7.41 5.93,10.71l50.33 99.31c1.73,3.31 4.23,7.32 5.9,10.71 20.92,42.31 22.34,68.24 39.96,109.69l102.93 262.85c97.09,306.92 144.25,613.4 144.25,953.1l-199.49 0c0,-259.02 0.58,-482.49 -57.9,-723.55l-134.34 -397.91 -217.61 -413.95c-73.7,-118.78 -233.13,-305.96 -331.05,-400.46l-104.35 -111.81c-80.48,-61.38 -144.49,-146.22 -230.5,-201.68l-40.46 -26.11c-79.72,-52.34 -150.7,-119.38 -237.95,-161.04 -91.97,-43.98 -173.63,-100.45 -274.95,-124.06z"/>
    <path class="fil0" d="M22982.49 10977.68l5 4.94c-0.34,-0.31 -6.6,-3.31 -5,-4.94zm-2825.92 -3125.9l0 0c-8.95,81.84 12.59,23.89 -23.58,59.53 -37.06,36.51 24.63,14.41 -59.53,23.61l0 83.14 -49.84 0c0,26.6 2.84,73.27 -2.84,97.34 -7.35,30.71 -7.75,20.4 -15.31,35.46 -26.85,53.21 -32.28,197.05 -15.09,249.61l73.51 92.77c1.79,3.18 3.98,7.56 5.86,10.71 1.86,3.12 4.39,7.31 6.3,10.34l110.08 122.71c61.79,47.55 107,77.46 186.56,96.01 0,217.76 -47.15,112.46 -49.87,232.79l-49.84 0 0 49.87 -49.87 0 0 66.51 -49.88 0c-8.33,75.98 -1.97,22.84 -18.54,47.99 -2.29,3.52 -31.79,32.93 -40.93,42.19l-75.02 91.25c-49.01,56.33 -123.48,111.08 -131.5,184.37l-49.88 0 0 49.88 -49.87 0 0 49.9c-125.61,13.73 25.92,19.5 -99.71,33.24l0 49.87 -49.91 0 0 49.9c-125.64,13.74 25.93,19.51 -99.71,33.24 -7.81,71.26 -20,52.99 -73.73,92.49 -25.65,18.86 -1.3,8.52 -48.3,34.88 -36.97,20.71 12.13,14.29 -60.83,22.28l0 49.87c-60.73,6.67 -89.07,60.8 -138.91,93.85 -2.99,1.98 -7.13,4.51 -10.24,6.36 -3.09,1.91 -7.38,4.23 -10.62,6.05 -3.21,1.82 -7.53,4.04 -10.77,5.8 -3.33,1.76 -7.72,3.83 -11.11,5.56 -85.24,43.54 -141.63,104.4 -224.77,157.55l-48.91 34.22c-4.05,2.81 -15.8,10.65 -19.85,13.43 -2.87,2.03 -6.85,4.84 -9.78,6.85 -2.93,1.97 -6.79,4.91 -9.69,6.88l-64.35 35.46c-37.99,12.28 -9.38,6.54 -56.04,10.43l0 49.88c-72.34,6.01 -96.38,23.23 -146.81,52.71 -25.83,15.12 -36.64,19.29 -64.84,34.9 -172.15,95.49 -189.43,87.25 -346.33,169.03 -50.03,26.08 -83.86,42.41 -138.14,61.32l-289.12 109.81c-3.54,1.57 -7.71,3.83 -11.2,5.43l-716.55 197.77c-54.87,6.88 -61.54,4.47 -102.58,13.82 -432.35,98.42 -1522.17,103.76 -1900.41,12.69 -83.42,-20.1 -75.03,-16.3 -171.47,-28.03 -233.19,-28.39 -787.87,-212.08 -989.4,-307.26l-22.43 -10.8c-3.58,-1.6 -7.97,-3.49 -11.58,-5.06l-601.68 -296.06c-48.51,-31.38 -76.78,-54.96 -139.28,-60.15l0 -49.9c-64.04,-7.01 -76.32,-25.09 -139.37,-60.15 -3.21,-1.79 -7.38,-4.2 -10.49,-6.08l-20.22 -13.05c-2.96,-1.95 -6.85,-4.88 -9.81,-6.86l-420.56 -327.5c-2.56,-2.32 -6.14,-5.65 -8.7,-7.96 -68.39,-62.65 -118.2,-122.37 -184.77,-181.01 -38.11,-33.55 -52.71,-37.13 -91.63,-74.59l-421.91 -425.96c-2.34,-2.53 -5.71,-6.11 -7.99,-8.64l-38.3 -44.81c-2.16,-2.78 -4.85,-6.88 -7.01,-9.66 -2.1,-2.78 -4.75,-6.91 -6.91,-9.69 -2.07,-2.78 -4.88,-6.85 -7.01,-9.6l-15.03 -18.27c-13.82,-15.55 -7.93,-7.13 -24.99,-24.84l-37.22 -45.89c-44.75,-67.03 32.96,-24.45 -44.2,-55.59l0 -149.64c81.54,-1.82 190.79,-86.69 199.52,-166.29l49.85 0c0,-72.92 26.94,-92.21 34.35,-165.14 7.34,-72 11.6,-102.03 16.85,-184.37 8.95,-141.01 22.12,-41.78 -23.15,-142.95l-28.79 -72.09c-31.02,-59.41 -20.87,39.44 -32.5,-67.28l-49.87 0 0 -49.87 -49.85 0c-8.67,-78.98 13.12,-30.84 -61.57,-71.45 -108.75,-59.1 -202.42,-49.75 -334.91,-64.13 -115.54,-12.53 -185.38,-16.88 -296.98,40.58l-20.96 12.26c-14.16,7.71 11.45,3.7 -44.25,22.22 -38.39,12.74 -8.21,6.66 -55.89,10.64l0 49.88 -49.88 0 0 49.87 -49.84 0 0 83.14 -49.87 0c0,112.15 -37.62,130.92 -38.18,188.23 -0.83,90.27 21.55,124.52 21.55,227.45l49.87 0 0 83.14 49.84 0 0 49.87 49.87 0 0 49.91c80.83,8.82 57.47,44.59 155.33,77.4 73.51,24.63 99.93,38.98 193.78,38.98 0,239.82 -33.27,297.72 -33.27,382.4l-49.87 0c-2.04,91.51 2.99,36.51 -25.8,90.58 -15.12,28.46 -12.44,5.62 -21.26,45.25 -4.63,20.83 -2.81,42.28 -2.81,63.7l-49.84 0c-3.03,136.87 -33.24,-7.9 -33.24,149.65l-49.88 0c-3.24,144.34 -46.38,-7.87 -49.9,149.64l-49.87 0c-13.21,120.95 -30.03,-27.28 -33.24,116.38l-49.84 0c-10.87,130.77 -37.19,0.47 -49.87,116.41l-49.91 0 0 49.88 -49.84 0 0 66.5 -49.87 0 0 49.88c-125.61,13.76 25.92,19.5 -99.72,33.27 -7.77,70.89 -30.4,62.46 -71.5,94.74l-154.5 144.74c-2.84,2.1 -6.91,4.82 -9.84,6.82l-372.81 242.27c-3.31,1.82 -7.56,4.04 -10.93,5.74l-453.24 195.08c-5.37,1.48 -20.24,6.2 -25.15,8.11 -53.17,20.62 -8.73,5.68 -32.99,16.89 -3.46,1.6 -7.5,4.01 -11.05,5.55l-703.15 144.65c-7.07,84.78 -25.65,28.33 -3.46,102.92 26.42,88.79 -16.48,-47.34 9.26,22.93l77.15 223.44c19.57,75.68 33.77,33.98 47.59,102.03l49.29 283.28c1.29,4.02 3.33,8.03 4.66,11.98 1.33,3.95 3.3,8.05 4.63,12l8.18 25.06c12.25,39.44 -1.05,23.06 18.76,64.35 -185.2,0 -563.88,-24.91 -681.52,0 0,229.06 33.24,404.04 33.24,615.2l15559.22 0 0 -598.57 -631.71 0 16.61 -282.66 49.87 0 0 -199.52 49.9 0c0,-145.58 40.9,-155.3 50.71,-281.8 5.15,-65.8 3.3,-47 15.8,-100.64 -143.38,11.94 -83.97,28.39 -252.17,-15.12 -42.5,-10.99 -31.63,-6.61 -70.52,-13.89l-321.24 -91.75c-3.77,-1.51 -8.15,-3.24 -11.97,-4.63l-63.46 -19.66c-42.49,-16.76 17.22,7.75 -22.83,-10.46 -4.02,-1.85 -21.08,-10.99 -33.52,-16.33 -27.53,-11.76 -49.53,-17.62 -72.56,-27.22l-44.93 -21.57c-3.24,-1.73 -7.28,-4.32 -10.49,-6.11l-121.14 -61.76c-12.65,-6.54 -17.16,-8.82 -33.27,-16.57l-477.49 -303.9 -553.48 -527.15c-38.05,-42.68 -32.8,-6.29 -38.7,-77.64l-49.9 0 0 -66.51 -49.87 0 0 -66.51 -49.84 0c-3.21,-144.34 -46.36,7.87 -49.85,-149.65l-49.87 0 0 -83.14 -49.9 0c0,-180.36 -49.87,-13.42 -49.87,-182.89l-49.85 0 0 -99.77 -49.87 0c0,-64.9 -11.85,-151.01 -10.74,-181.84 3.06,-84.31 41.94,-75.43 43.98,-167.33 80.12,-6.67 52.83,-26.58 132.95,-33.24l0 -49.87c125.67,-13.77 -25.86,-19.54 99.78,-33.27 8.98,-82.22 18.58,-34.07 50.43,-99.19 25.49,-52.13 43.51,-149.74 49.13,-250.42 8.08,-144.49 22.37,-92.43 -21.54,-192.67 -1.61,-3.61 -3.27,-8.27 -4.79,-12.03 -11.6,-28.46 -4.56,-21.05 -18.17,-49.35 -38.24,-79.59 -26.36,32.28 -38.43,-78.05l-49.87 0 0 -49.87c-85.46,-9.35 -81.51,-65.89 -167.36,-98.67 -141.69,-54.07 -419.14,-71.97 -568.85,10.74 -95.64,52.87 6.48,43.55 -94.99,54.66z"/>
    <path class="fil0" d="M9504.77 12810.22c38.85,178.69 13.09,89.78 13.09,162.71 0,76.44 8.98,-8.03 8.39,49.87l-0.31 135.79c0,0.65 -0.21,34.54 -0.25,35.37l0.37 275.59c0.99,37.9 4.45,65.12 -7.77,118.7 -23.95,105.18 -54.41,69.22 -289.89,72.86 -37.93,0.59 -27.83,1.61 -59.07,0.87l-186.22 -0.65c-41.72,-5.96 -33.73,-18.05 -96.96,-23.33 -21.89,91.38 -1.52,127.8 -12.01,218.19 -0.37,3.06 -0.96,7.93 -1.48,10.96 -17.35,108.91 -1.08,188.87 -10.71,305.16 -5.19,61.97 -9.29,14.87 -19.01,74.07 -5.22,31.54 -0.12,46.66 9.94,89.96l122.86 -33.55c1.54,-0.06 6.14,-0.27 7.59,-0.24l439.56 2.16c1.3,-0.07 5.71,-0.07 7.01,0l721.95 0.92c14.35,1.64 59.19,9.2 97.77,6.14l176.65 -0.12c46.23,0.22 47.81,2.62 91.97,1.42 10.71,-0.31 30.83,-2.84 51.94,-2.13 70.49,2.35 -11.66,8.77 61.39,8.77 62.86,0 11.04,-17.53 63.79,-18.24 3.89,-0.07 21.48,3.3 26.14,3.67l897.77 1.05c1.85,-0.31 6.63,-1.58 8.36,-1.79 60.09,-7.47 134.59,12.44 207.42,2.03l39.51 -2.28c1.82,0.22 6.57,1.33 8.51,1.61l39.48 6.08c27.86,2.62 37.12,2.56 52.43,0.67l344.85 -6.72c1.91,0.27 6.76,1.35 8.83,1.66 2.25,0.34 7.16,1.18 9.56,1.55l72 10.71c75.18,0 -7.09,-3.37 34.17,-13.68l652.48 6.76c39.56,1.51 37.13,0.22 68.51,-5.89l470.12 -2.04c1.39,0.03 5.83,0.56 7.28,0.65l476.51 -0.28c1.48,-0.06 5.92,-0.34 7.41,-0.31l360.25 4.17c1.88,-0.37 6.57,-1.91 8.42,-2.29l38.49 -2.12c1.63,0.24 6.29,1.72 7.96,2.03 124.56,23.09 313.96,2.29 416.6,-2l266.65 7c55.33,-0.99 83.51,2.13 134.31,0.84l160.7 -8.15c1.79,0.21 6.51,1.48 8.39,1.79l121.97 3.02c3.45,-0.55 12.53,-3.21 15.61,-3.58 1.42,-0.15 5.87,-0.89 7.19,-0.95l273.93 9.53c35.52,-2.37 41.11,-4.87 80.09,-3.89l289.73 -13.95c45.71,-0.46 69.16,2.01 135.14,0.84 19.75,-0.37 46.94,-1.52 70.21,-1.36 88.73,0.49 174.06,15.62 273.56,2.5l861.14 -4.11c83.97,13.68 342.94,-7.9 365.22,-4.32l777.99 6.73c38.21,-0.8 27.9,-1.63 59.17,-0.89 220.01,5.27 648.19,18.3 853.39,-6.95l49.5 5.37c30.37,3.95 68.2,6.73 114.06,3.92l716.55 -0.62c5.34,-0.09 54.26,-7.19 59.14,-7.8l204.39 2.59c129.38,19.81 282.91,5.77 410.65,3.76 46.45,-0.74 50.74,-2.74 95.33,0.13l394.14 1.32c5.28,-0.09 54.28,-7.19 59.13,-7.8l174 -1.18c1.48,-0.09 5.95,-0.24 7.41,-0.21l23.02 3.98c20.77,3.18 14.19,3.05 37.06,4.17l592.64 -1.86c124.38,-0.06 265.41,-10.89 386.02,2.04l146.13 6.48c-1.48,-66.78 1.98,-39.72 -16.32,-85.18 -1.45,-3.58 -4.26,-7.62 -5.74,-10.98 -1.45,-3.21 -4.48,-7.26 -5.77,-10.28 -1.27,-2.87 -4.08,-7.13 -5.04,-9.88l1.18 -285.53c-0.31,-2.38 -1.7,-7.16 -1.92,-9.51l16.98 -187.23c-93.48,-7.78 -104.1,-9.08 -172.43,-9.39l-492.46 -23.85 -11.11 -325.1c7.56,-113.08 -16.42,-352.1 -0.83,-472 3.3,-25.62 28.67,-12.87 -3.86,-68.58 -28.76,-49.31 -46.23,-14.35 -88.64,-18.51l-827.4 -0.22c-1.67,0.25 -6.3,1.42 -7.87,1.64 -1.48,0.18 -6.05,1.17 -7.53,1.29l-644.98 -1.02c-1.79,-0.15 -6.61,-1.26 -8.4,-1.48l-226.03 -0.68c-106.29,-10.83 -225.57,10.84 -307.13,2.32l-439.75 0.8c-15.47,-0.15 28.51,3.09 -15.96,-1.17l-150.7 1.7c-1.51,0.03 -6.14,-0.28 -7.68,-0.34 -257.02,-13.71 -671.31,-30.65 -901.44,-1.58l-230.17 -0.83c-1.67,0.06 -6.55,0.77 -8.18,0.83l-49.78 -3.15c-67.43,-5.49 -11.39,-1.23 -43.98,2.87 -36.14,4.57 23.58,5.16 -22.56,2.32 -78.26,-4.82 -175.39,-20.22 -258.62,-4.2l-182.02 3.52c-1.58,0.12 -6.21,0.56 -7.72,0.56l-51.94 -6.86c-28.21,-2.34 -26.11,-3.42 -61.94,-0.86l-357.93 -0.22c-26.95,0.87 2.25,-1.82 -29.76,1.7l-183.44 2.72c-1.73,0.31 -6.39,1.6 -8.05,1.85l-38.67 -1.39c-1.98,-0.34 -6.85,-1.91 -8.92,-2.25l-38.05 -3.92c-33.67,0.4 -14.08,4.04 -62.93,3.7 -38.09,-0.28 -76.51,-8.67 -114.96,-2.78l-40.62 8.49c-14.81,0.37 -17.28,-2.19 -24.19,-3.12l-157.89 1.45c-1.79,-0.18 -6.61,-1.26 -8.39,-1.48l-1290.03 1.18c-9.94,1.01 -8.58,2.06 -24.44,0.49l-884.32 -3.86c-1.85,0.22 -6.63,1.36 -8.39,1.58 -1.6,0.24 -6.17,1.45 -7.72,1.66l-438.7 -4.38c-1.88,0.34 -6.57,1.88 -8.39,2.22l-30.86 4.08c-1.64,-0.1 -6.33,-0.99 -8.03,-1.18l-254.36 -6.94c-36.6,1.36 5.59,-2.01 -29.84,2.75l-183.48 3.48c-86.96,10.87 -173.93,-8.18 -267.69,-6.6l-246.49 3.45c-2.44,0.28 -7.66,0.9 -9.97,1.18 -61.54,7 -199.46,-19.45 -299.12,-0.22l-39.07 2.72c-1.82,-0.19 -6.63,-1.33 -8.48,-1.58l-463.79 -7.37c-68.39,-0.71 -164.65,-0.22 -228.66,2.37 -126.75,5.16 -272.36,-14.72 -396.94,-1.85l-127.96 7.35c-44.16,5.03 25.4,0.34 -15.31,1.94 -1.48,0.06 -6.14,0 -7.62,-0.03l-1155.53 0.65c-1.45,0.03 -5.95,-0.03 -7.43,-0.12l-599.25 -2.01c-55.24,9.1 -214.3,-5.96 -267.51,-31.48l-46.29 53.45z"/>
    <path class="fil0" d="M23248.52 9082.18l83.11 -49.88 -199.52 -1097.38 5 4.97c-0.34,-0.34 -6.64,-3.33 -5,-4.97l116.41 1147.26zm-149.62 -1180.53l0 0 930.89 -2011.85 -930.89 2011.85zm482.06 -2427.53l0 0 4.94 4.94c-0.31,-0.31 -6.57,-3.3 -4.94,-4.94zm448.83 415.68l0 0 -268.13 -330.38c-19.44,-17.68 -31.54,-26.85 -53.88,-45.89l-387.41 -294.2c-3.31,-1.73 -7.56,-4.01 -10.93,-5.68 -3.42,-1.73 -7.78,-3.77 -11.23,-5.4l-47.16 -19.38c-3.73,-1.52 -8.21,-3.15 -11.94,-4.69 -3.64,-1.52 -8,-3.4 -11.64,-4.94 -245.35,-103.17 -508.94,-97.19 -768.24,-27.96l-423.95 289.85c-88.02,96.75 -142.83,193.75 -198.93,310.1l-33.06 92.74c-0.46,1.79 -1.88,6.36 -2.34,8.15 -0.5,1.82 -1.95,6.39 -2.41,8.24 -37.59,136.5 -69.04,263.06 -32.77,440.09l12.8 70.86c5.13,101.32 78.61,248.03 134.04,339.04 0.98,1.7 31.14,44.82 34.28,49.04l21.73 28.15c38.45,52.4 46.51,97.86 116.26,116.5 28.17,-42.06 14.62,-21.54 33.36,-66.41 49.13,-117.86 125.08,-242.85 233.16,-315.44 25.46,-17.13 31.48,-17.56 61.04,-38.73 30.8,-22.07 33.15,-28.89 71.11,-45.28 224.09,-96.62 480.21,-106.87 693.93,21.48l128.29 87.77c74.99,58.98 151.81,154.93 197.79,234.46 87.65,151.47 137.21,297.45 159.34,471.2 25.96,204.71 8.98,206.37 -32.06,382.53 -38.4,-40.46 -51.54,-46.23 -111.51,-71.78l-127.95 -43.55c-91.35,-27.06 -61.97,-19.56 -155.67,0.59l-136.81 31.6 -15.49 95.3c-17.62,55.03 -3.98,-8.61 -17.56,35.25l2.84 54.56c0.12,2.47 0.31,7.59 0.21,10.12 -1.72,59.23 -20.89,116.66 30,153.94 -37.22,80.49 127.09,225.11 220.42,261.74 31.14,12.22 29.87,5.43 62.15,20.92 -12.53,34.63 -4.6,16.27 -24.62,41.88l-72.38 60.65c-2.99,1.97 -7.16,4.47 -10.18,6.42 -274.67,177.36 -447.74,172.33 -720.04,101.96 -100.95,-26.1 -85.67,-25.15 -169.24,-78.6l-48.49 -34.87c-216.99,-182.52 -200.17,-325.44 -251.64,-546.35 -60.59,16.17 -32.44,7.75 -68.83,47.56l-15.03 18.21c-2.25,2.56 -5.43,6.32 -7.77,8.85 -25.46,28.09 -8.34,9.35 -32.81,33.7l-225.81 363.9c-29.88,81.5 -12.57,111.56 -17.44,144.71l-3.98 16.38c-32.04,175.14 50.8,396.08 154.55,548.23 118.82,174.31 222.33,217.02 395.53,302.7 171.62,84.9 548.01,31.04 723.99,-32.96 50.27,-18.31 41.75,-10.47 91.65,-24.69l169.59 -79.81c59.38,-6.48 29.91,-5.43 48.98,-17.47 9.5,-5.99 26.08,-24.78 34.13,-32.41 62.96,-6.88 30.8,-7.34 48.92,-17.52 157.92,-88.76 285.56,-210.48 408.24,-339.92 31.88,-33.64 49.38,-54.19 78.73,-87.52 58.45,-66.29 73.45,-138.51 145.66,-186.87 40.31,9.38 66.7,17.41 99.72,33.27 -15.12,64.93 -66.08,136.5 -107.18,192.08 -21.58,29.14 -7.47,11.55 -30.16,36.36 -27,29.63 -37.28,37.53 -69.44,63.57l-105.76 77.1c-2.84,2.03 -6.79,4.9 -9.63,6.97 -179.27,132.28 -338.58,309.79 -449.87,497.9l-52.59 78.51c-64.87,92.24 -119,222.51 -153.14,323.71l-68.88 241.77c-13.98,49.84 -3.21,96.44 5.71,140.79 0.68,3.61 2.38,13.86 2.84,17.62 1.3,12.19 1.14,36.17 1.39,39.26l21.79 106.63c0.49,1.88 1.85,6.45 2.28,8.33 0.49,1.82 1.76,6.42 2.19,8.27l143.39 346.73c26.85,46.39 70.14,67.03 85.79,125.55 93.14,-7.75 101.29,-101.38 139.99,-175.85l112.89 -203.04c70.65,-115.73 108.27,-274.73 174.28,-390.99l73.98 -158.78c21.23,-39.63 30.21,-73.52 50.33,-115.92l976.75 -2065.8c10.03,-17.99 18.88,-31.79 28.94,-54.13l33.4 -83.02c1.66,-3.46 3.86,-7.65 5.55,-11.08l174.74 -393.15c0.68,-2.03 2.04,-6.63 2.78,-8.64l11.85 -25.71c1.3,-2.43 4.04,-6.69 5.49,-9.25l247.48 -567.37c82.34,-224.05 203.85,-454.22 295.91,-671.18l29.29 -72.5c4.19,-7.9 19.93,-33.2 28.39,-50.05l55.98 -142.21c59.07,-101.63 91.54,-231 148.6,-334.7l207.05 -441.39c71.88,-150.88 139.78,-286.02 218.29,-430.09l219.55 -428.88c-53.85,-36.08 -115.08,-64.87 -193.47,-28.06l-398.86 166.07c-3.18,1.88 -7.1,4.75 -10.37,6.61 -4.38,2.5 -17.28,9.62 -21.91,11.88l-228.07 121.25c-146.38,82.93 -254.21,163.42 -382.07,266.31l-484.81 462.87c-10.68,12.68 -19.1,26.1 -28.24,38.26 -161.06,215.64 -228.99,252.67 -301.79,537 -35.8,139.9 -84.04,321.15 -85.95,482.31l63.32 822.19c19.29,80.21 21.55,114.93 21.11,166.25 -0.71,77.46 2.29,266.74 -16.45,376.42 -6.48,37.71 -0.77,13.7 -4.81,43.7l-95.21 427.78c-24.5,79.5 -51.72,90.95 -59.93,189.43 -81.73,-19.04 -114.19,-50.52 -182.89,-66.51l50.27 -32.87c38.46,-42.65 57.62,-133.41 76.66,-189.33 73.49,-215.61 94.87,-389.82 106.17,-626.68l-6.54 -251.78c-0.78,-45.73 -14.66,-72.18 -19.38,-117.95 -30.03,-291.83 -124.44,-410.31 -159.04,-520.64l-100.94 -202.73c-19.39,-36.14 -45.12,-77.46 -80.15,-103.14z"/>
    <path class="fil0" d="M8603.54 9281.7l5 4.97c-0.37,-0.31 -6.66,-3.3 -5,-4.97zm116.38 -199.52l0 0 -83.14 -49.88 83.14 49.88zm-615.07 -581.93l0 0 -16.64 16.63 16.64 -16.63zm16.63 -16.64l0 0 -16.63 16.64 16.63 -16.64zm748.03 -515.45l0 0 731.43 -2760.1 -731.43 2760.1zm-781.3 548.72l0 0 26.88 56.23c57.72,92.77 205.27,225.11 282.54,299.36l151.69 114.34c6.2,4.66 38.21,27.9 38.45,28.03 17.41,9.41 -13.36,10.64 49.01,17.46l83.14 49.88 104.19 62.09c6.36,3.64 41.48,20.49 44.63,21.82 66.26,28.21 113.85,34.23 196.09,53.3 198.2,46.01 386.39,110.08 606.56,49.62l84.26 -32.09c113.97,-42.41 295.03,-150.64 360.37,-249.89l182.67 -439.69c14.32,-54.22 3.27,-149 -2.16,-209.02 -2.93,-32.16 -0.43,-13.74 -4.69,-32.9 -10.68,-47.93 3.76,12.46 -12.32,-36.7l-25.36 -89.1c-6.92,-20.74 -6.7,-19.47 -14.23,-35.83 -2.19,-4.69 -9.11,-17.37 -11.48,-21.82l-143.97 -221.74c-2.22,-2.68 -5.09,-6.66 -7.25,-9.38 -2.2,-2.75 -4.94,-6.79 -7.1,-9.57 -2.1,-2.74 -4.88,-6.82 -7.04,-9.6 -36.66,-47.86 -75.39,-97.12 -146.31,-103.04 -12.78,60.36 -6.61,135.63 -32.53,216.86l-37.72 95.77c-10.4,22.06 -42.15,90.85 -43.05,92.09l-38.08 41.38c-51.79,59.29 -106.78,116.08 -179.25,154.34 -30.98,16.39 -64.96,27.41 -107.55,42.04 -204,70.05 -471.97,73.05 -680.1,-55.99l-92.59 -57.03c-37.8,-26.23 -43.24,-48.51 -85.73,-63.88l0 -33.27c80.73,-1.79 37.4,3.21 92.89,-23.46l208.47 -236.18c0,-1.73 -0.71,-6.54 -0.68,-8.3l19.02 -219.65c-3.58,-21.97 -7.69,-24.38 -15.99,-47.03l-24.69 -60.77c-1.91,-3.21 -4.38,-7.47 -6.6,-10.4 -22.38,-29.81 -116.69,-54.01 -163.33,-63.45 -135.42,-27.37 -270.47,100.05 -358.46,120.55 -38.85,-166.9 -37.37,-376.09 0.68,-546.97 10.62,-47.71 45.62,-121.9 66.08,-167.79 63.33,-142.49 159.03,-269.36 275.69,-372.69 359.26,-318.31 924.22,-192.52 1149.26,225.51 24.5,45.55 27.31,98.42 70.86,130.36 66.94,-17.87 103.66,-95.92 145.64,-149.96 1.29,-1.64 4.47,-5.4 5.61,-6.97l69.47 -137.68c1.48,-2.81 3.89,-7.31 5.25,-9.97l52.03 -131.41c38.98,-116.41 63.24,-298.18 39.41,-415.49 -0.4,-1.94 -1.76,-6.6 -2.19,-8.61 -0.43,-2.01 -1.7,-6.67 -2.1,-8.73l-29.19 -172.43c-0.81,-2.19 -2.72,-6.6 -3.64,-8.79 -86.57,-206.19 -191.69,-399.54 -376.8,-532.86l-155.01 -109.53c-45.34,-25.09 -4.94,-18.49 -80.92,-20.19l-54.17 -28.95c-269.57,-117.79 -708.31,-58.88 -937.64,113.61l-32.68 34.84c-0.96,1.02 -3.89,4.63 -4.88,5.65 -1.05,1.05 -4.13,4.53 -5.28,5.55l-70.11 38.52c-1.89,1.17 -5.96,3.95 -7.66,5.15l-23.52 24.44c-19.16,18.77 -26.69,23.74 -51.32,42.84 -2.81,2.19 -6.73,5.15 -9.57,7.35l-544.71 630.26c-1.17,1.88 -3.82,6.04 -4.93,7.9l-48.89 115.17c-9.6,21.54 -0.03,-0.15 -15.28,28.8 -16.57,31.51 -43.14,84.34 -54.93,119.9 -53.73,162.08 -106.01,329.97 -118.63,514.62 -20.93,306.61 24.1,680.07 156.28,994.06l10.15 23.14c11.45,29.44 16.08,49.75 22.47,77.25 -45.24,30.34 -55.52,48.17 -132.95,49.9 -24.91,-46.97 -47.19,-121.1 -62.56,-170.2 -20.15,-64.19 -36.51,-122.99 -51.88,-181.07 -18.08,-68.23 -44.87,-250.66 -58.29,-372.93 -9.76,-88.82 -16.98,-353.34 -2.16,-445.55l36.23 -147.52c0.52,-2.01 2,-6.55 2.47,-8.49l30.58 -782.9c-31.17,-253.13 -107.06,-587.06 -263.9,-780.68l-387.44 -443.86c-6.42,-7.1 -22.56,-23.39 -24.63,-25.21l-226.24 -189.37c-2.81,-2.1 -6.89,-4.88 -9.69,-6.94 -2.81,-2.07 -6.86,-4.91 -9.69,-6.95l-83.49 -66.1c-2.62,-2.26 -6.32,-5.47 -8.95,-7.69l-17.77 -15.49c-2.72,-2.16 -6.42,-5.37 -9.2,-7.44 -15.12,-11.29 -1.02,-3.33 -30,-19.84 -24.32,-13.83 -22.22,-8.86 -44.56,-21.95l-327.72 -204.42c-36.57,-18.43 -0.16,-0.9 -38.58,-13.77l-307.48 -138.72c-87.64,-34.1 -274.27,-137.74 -332.56,-16.54 -19.29,40.09 77.24,153.75 99.83,199.39l307.39 607.49c18.76,36.69 15,27.25 30.06,52.8l79.71 161.5c20.28,37.07 -5.61,-19.19 11.08,22.78 25.34,63.57 -4.1,23.21 37.87,84.87l419.66 961.34c11.79,29.23 0.65,3.31 14.44,35.37l275.14 622.67c1.63,3.67 3.17,8.21 4.78,11.88l895.73 1985.37c15.25,36.82 34.48,60.55 56.85,104.72 1.36,2.68 3.8,7.1 5.06,9.66l631.37 1315.64c17.93,39.72 9.14,23.14 17.16,46.29 0.74,2.16 2.13,6.76 2.93,8.95 0.84,2.28 2.41,6.85 3.31,9.23 68.51,184.52 244.88,431.78 282.63,593.78 50.64,-24.32 34.32,-2.66 74.99,-41.39l184.43 -353.52c0.13,-0.28 9.66,-28.27 11.17,-32.25 1.12,-2.81 3.68,-7.41 4.79,-10.12l55.89 -286.03c18.48,-105.83 -51.57,-225.66 -85.4,-328.25l-151.28 -323.37c-59.9,-107.49 -119.4,-179.67 -194.52,-270.96l-66.39 -83.27c-20.92,-23.21 -43.94,-44.19 -66.32,-66.66l-114.84 -101.29c-2.71,-2.16 -6.48,-5.28 -9.13,-7.47 -2.69,-2.19 -6.48,-5.34 -9.07,-7.56 -2.44,-2 -11.76,-10.92 -26.7,-23.15l-115.21 -84.31c-2.56,-2.28 -6.14,-5.65 -8.73,-7.93 -83.79,-75.77 -195.91,-185.08 -198.44,-300.29 136.32,-65.42 96.35,8.61 182.79,66.54z"/>
   </g>
  </g>
 </g>
</svg>
