<?xml version="1.0" encoding="UTF-8"?>
<!DOCTYPE svg PUBLIC "-//W3C//DTD SVG 1.1//EN" "http://www.w3.org/Graphics/SVG/1.1/DTD/svg11.dtd">
<!-- Creator: CorelDRAW 2017 -->
<svg xmlns="http://www.w3.org/2000/svg" xml:space="preserve" width="320mm" height="150mm" version="1.1" style="shape-rendering:geometricPrecision; text-rendering:geometricPrecision; image-rendering:optimizeQuality; fill-rule:evenodd; clip-rule:evenodd"
viewBox="0 0 32000 15000"
 xmlns:xlink="http://www.w3.org/1999/xlink">
 <defs>
  <style type="text/css">
   <![CDATA[
    .fil0 {fill:#D7B56D}
   ]]>
  </style>
 </defs>
 <g id="Слой_x0020_1">
  <metadata id="CorelCorpID_0Corel-Layer"/>
  <g id="_2737000188528">
   <g id="_1599858753408">
    <path class="fil0" d="M14774.3 11772.04l247.54 16.07c1.08,33.65 -5.45,32.85 17.35,76.49 19.24,36.83 36.99,58.08 52.88,95.42 -116.34,6.53 -102.24,4.49 -185.11,-62.12 -49.2,-39.54 -95.6,-74.23 -132.66,-125.86zm321.43 -6.05c162.55,-57.57 392.21,-90.85 501.08,-240.06 56.2,-77.02 385.01,-350.47 387.4,-351.2 -3.76,43.64 -311.52,401.83 -363.53,476.68 -88.08,126.78 -89.3,139.06 -232.23,203.48 -81.61,36.79 -275.26,-63.49 -292.72,-88.9zm974.57 -856.92l-81.63 -134.12 -87.34 2.77c-21.9,94.5 -17.38,195.03 -16.6,284.84l-346.25 212.45c-75.04,-68.7 -65.63,-161.16 -160.1,-110.69 -31.1,78.65 -10.19,147.95 0.03,224.69 -166.22,100.76 -327.83,199.9 -531.35,191.42 -66.87,-84.1 -103.75,-218.66 -224.72,-192.02l15.21 187.52 -177.97 -3.45c-38.44,-38.93 -114.99,-267.69 -107.42,-323.16l201.62 -45.6c46.87,44.45 33.66,77.45 101.92,93.11 70.55,-68.86 18.41,-92.9 122.22,-138.49l380.21 -154.1c150.46,-63.18 63.83,-20.79 193.8,9.37 117.26,-129.51 -147.28,4.76 250.64,-199.88 50.27,-25.84 101.68,-53.62 152.78,-78.13 101.54,-48.71 69.75,-26.11 169.98,-13.56 64.41,-47.84 164.09,-234.54 269.23,-220.73 15.48,55.95 7.62,186.53 -2.45,246.14 -13.2,78.12 -60.58,128.4 -121.81,161.62zm752.18 -1420.05c39.81,-19.27 73.95,-42.92 141.28,-20.45 -21.54,74.9 -563.53,614.89 -642.71,677.64 -162.23,128.54 -198.52,188.28 -292.88,255.47 -98.56,70.18 -802.35,419.71 -902.05,453.55 -126.27,42.85 -280.77,91.78 -409.01,125.7 -187.08,49.47 -297,58.08 -491.54,63.62 -176.9,5.03 -229.07,-150.23 -220.45,-304.56 13.57,-243.11 29.62,-197.29 -72.32,-416.99 -260.63,-561.77 -236.73,-1150.94 236.74,-1591.95 221.22,-206.04 516.52,-252.48 811.19,-264.55 263.69,-10.8 655.56,-2.57 828,223.53 142.47,186.81 306.38,463.57 548.75,538.16 285.64,87.92 615.13,-184.14 889.38,-42.56 282.18,145.67 181.13,517.86 175.78,802.37 -5.73,306.52 -44.31,650.91 -139.34,943.55 -22.22,68.44 -57.67,122.5 -67.05,195.73 -36.53,285.09 125.59,35.09 -263.29,472.03 -284.32,319.45 -464.46,632.56 -862.45,753.18 -274.61,83.22 -389.12,14.49 -480.82,34.29 180.87,-114.6 353.21,-266.04 480.58,-439.61 91.22,-124.32 331.92,-456.55 330.71,-608.91 -144.66,-11.08 -130.85,44.31 -212.85,150.96 -132.4,172.21 -360.97,421.64 -521.24,560.66 -170.76,148.13 -232.84,225.68 -470.45,251.6 -163.04,17.79 -432.44,-47.13 -448.41,-246.68 122.09,15.11 172.57,236.65 702.75,-17.61 384.68,-184.49 680.6,-613.46 863.68,-985.48l184.48 -277.03c65.57,-91.34 114.24,-202.21 176.57,-290.55 -24.02,62.35 -117.52,283.48 -112.47,329.48l86.23 12.36c211.46,-213.37 313.26,-771.97 359.69,-883.63 40.78,-98.07 91.65,-186.96 131.17,-283.89 68.31,46.27 26.72,86.2 145.61,71.98 35.65,-108.36 -38.06,-393.34 -141.48,-449.15 -122.96,-66.34 -296.34,2.53 -390.19,101.57 -37.87,39.96 -42.25,51.32 -31.42,76.97 22.79,53.9 24.12,56.16 79.83,29.2zm-1121.64 -1987.29c-3.53,-108.35 30.24,-120.43 82.78,-197.69l78.68 14.45c-122.73,71.35 -104.73,56.55 -161.46,183.24zm3241.18 -892.74c44.83,-48.76 -0.35,41.71 106.27,-100.76 58.11,57.58 19.89,374.09 29.33,474.69l95.83 48.55c-46.62,107.51 -73.79,131.18 -89.38,260.31 -74.21,-378.34 -22.62,-241.04 -142.05,-682.79zm-45.18 -604.79c9.66,-14.97 9.27,-13.96 18.02,-29.52l-18 486.55c-2.84,-16.68 -63.82,-183.45 -76.67,-215.39 -43.11,-107.18 -15.38,-120.34 -14.21,-230.37 42.61,-22.19 30.91,-15.17 90.86,-11.27zm-255.72 -226.56c-62.26,-54.22 -19.35,-105.44 4.31,-161.19 20.49,-48.31 35.94,-114.82 69.14,-170.03 52.51,76.93 164.6,165.21 130.1,386.22 -3.65,23.41 -8.26,51.34 -12.49,74.25l-18.95 65.36c-6.31,-80.79 6.37,-119.51 -13.97,-207.42 -12.69,-54.89 -21.47,-133.39 -59.16,-176.79l-87.92 9.32 -11.06 180.28zm-857.58 -678.63c14.75,37.41 57.67,65 86.42,118.11 27.11,50.09 46.4,100.38 49.52,162.63l-135.3 -10.52 -0.64 -270.22zm-1179.74 -490.01c-81.02,-151.11 -178.24,-130.93 -176.62,-181.66 154.38,46.22 560.97,357.1 704.48,489.13 38.16,35.1 71.4,52.24 110.19,91.78 49.05,50 46.25,72.67 113.62,72.23 38.59,-123.6 -245.89,-482.19 -289.37,-477.6 60.59,23.97 72.37,16.56 119.44,58.18 63,55.7 305.24,220.31 357.97,233.72 52.79,-35.89 4.05,-3.26 44.54,-55.8 132.27,62.78 130.39,105.84 176.66,232.42 -127.77,15.14 -66.75,39.96 -171.91,305.75 -211.96,56.82 -163.27,-44.52 -168.87,-73.65 -18.49,-96.07 -219.7,-309.56 -289.61,-360.84 -124.81,-91.56 -314.38,-304.29 -478.08,-193.06 42.53,57.52 479.3,367.55 571.97,529.5l-292.07 -20.18c-40.05,-110.49 -380.55,-421.07 -485.87,-260.12 66.29,96.95 321.31,175.74 396.92,272.35 -320.41,57.56 -79.43,114.54 -630.43,-135.01 -166.02,-75.19 -154.03,51.85 -16.84,135.5 125.24,76.37 169.95,85.83 296.77,144.29 -21.86,40.22 -24.89,34.99 -67.5,65.3 -66.87,47.55 -127.6,97.08 -179.71,163.43l-253.41 -101.84c84.46,-18.41 122.69,-19.28 151.28,-100.97 -69.99,-53.97 -348.39,-141.85 -465.39,-272.43l-309.42 -422.94c372.93,12 768.28,280.19 871.13,255.33 80.45,-169.96 -189.18,-331.29 -322.84,-373.05 65.78,-50.71 175.02,-11.88 318.83,13.98 328.92,59.12 168.13,76.48 299.61,97.01l64.53 -130.75zm-4071.66 -452.6c427.51,-144.96 1044.92,-172.38 1482.56,-73.12 285.83,64.83 991.58,321 1187.23,491.47l-31.05 28.88c-29.17,27.15 -14.11,37.75 -2.64,79.45 19.7,71.6 45.36,162.58 40.98,201.76 -1.94,17.24 -7.73,17.12 -25.12,14.17 -15.21,-2.58 -22.86,-6.19 -39.52,-0.67 -27.52,9.13 -21.96,14.76 -18.59,42.49 13.97,115.16 82.03,241.96 147.23,331.94 -293.46,-72.83 -478.78,-337.15 -562.61,-142.17 179.3,162.23 364.4,244.58 592.33,347.38 215.12,97.04 428.95,206.33 641.19,299.32 -138.67,111.76 -183.97,79.58 -358.98,18.6 -677.16,-235.93 -471.4,-524.74 -1487.47,-992.08 -272.28,-125.23 -477.31,-158.19 -755.27,-241.1l25.37 -65.7c-18.16,-15.15 -381.37,-133.46 -448.19,-160.47 -125.02,-50.53 -269.16,-116.17 -387.45,-180.15zm387.97 344.31c-160.56,8.09 -221.92,-18.04 -370.75,-52.18 -124.93,-28.65 -242.38,-39.73 -369.71,-49.66 -66.5,-5.19 -371.82,34.23 -342.86,-50.1 57.51,-167.43 365.89,-312.16 465.61,-381.35 231.23,-160.45 624.82,-311.03 902.52,-365.29 786.69,-153.7 1349.15,32.17 1954.45,474.56 76.61,56 457.18,304.93 482.24,337.53 -49.14,15.94 -80.97,11.7 -128.44,18.86 -56.68,8.54 -83.74,39.2 -102.09,39.83l-557.08 -337.92c-815.01,-406.93 -1628.61,-501.78 -2473.37,-104.93 -419.24,196.95 -274.92,174.31 -256.77,248.24 93.42,-14.75 133.24,-68.02 206.31,-27.9 266.36,146.26 317.31,154.99 589.94,250.31zm2586.03 -4152.68c-60.78,430.44 100.37,848.32 323.73,1197.47 436.59,682.42 1054.52,1021.21 1172.06,1164.37 283.46,345.27 457.32,569.63 521.17,1034.92 17.68,128.93 2.58,223.18 12.58,344.71 12.3,149.61 -6.11,161.72 -68.8,262.44 -21.04,33.8 -20.9,43.3 -29.3,23.43 -56.35,-133.45 -31.52,-148.01 -130.62,-109.99 -53.05,20.36 -38.23,50.94 -44.7,111.36 -83.59,-87.04 -277.59,-240.17 -391.88,-145.27 26.43,43.7 102.42,91.83 147.6,163.74 -62.11,-34.17 -299.83,-110.87 -372.43,-118.08 -128.1,-12.74 -45.29,25.63 -182.47,-49.91 -72.02,-39.66 -99.28,-68.44 -169.5,-21.65l-23.17 161.12c-61.4,31.93 -95.21,1.11 -165.44,13.85l-30.91 76.64c-135.23,-12.7 -153.92,-97.2 -254.61,-175.97 -53.31,-41.7 -175.39,-156.68 -226.01,-207.04 -393.09,-391 -1258.11,-848.45 -1793.68,-830.59 -467.21,15.59 -968.96,148.45 -1386.09,358.86 -275.2,138.82 -714.1,408.72 -882.35,712.71 -81.7,147.63 0.21,184.05 163.93,257.96 163.4,73.77 772.61,118.11 944.62,117.42 298.01,-1.19 898.82,107.26 1166.82,235.98 289.25,138.94 664.19,268.54 901.83,494.39 61.09,58.05 85.2,120.25 166.25,179.68 238.6,174.96 372.15,302.78 673.24,410.54 -123.98,96.42 -327.62,72.71 -440.11,296.9 -115.74,230.68 -85.64,358.24 38.42,563.89 79.81,132.29 210.08,331.54 307.34,442.61 93.75,107.02 15.95,132.15 109.65,265.21 17.3,24.57 138.19,214.48 145.23,230.48 -62.02,103.55 -431.18,289.2 -558.28,342.93 -213.04,90.05 -436.81,22.96 -762.45,161.39 -527.36,224.18 -709.18,435.49 -835.91,994.49 -98.61,434.89 -53.82,702.75 151.94,1095.11 66.98,127.73 79.37,221.88 99.55,362.44 20.23,141.03 -15.1,288.24 74.21,386.73 112.63,124.21 220.43,79.58 239.92,222.75 18.12,133.14 53.63,216.41 140.42,319.95 103.59,123.61 181.13,11.48 314.73,149.48 19.66,192.27 -133.87,290.14 30.96,499.27 161.5,204.93 403.28,177.49 558.51,206.22 114.25,21.16 67.66,49.76 395.95,82.85 203.65,20.55 395.24,4.75 594.17,-42.51l-541.81 276.6c-271.64,154.13 -242.16,228.26 -594.19,159.36 -413.78,-80.99 -593.43,-376.97 -1078.76,-550.18 -412.65,-147.26 -1021.41,-162.06 -1456.16,-125.03 -238.5,20.32 -1134.48,188.77 -1291.14,335.26 9.93,35.34 82.64,147.01 128.1,165.11 48.55,19.33 188.75,-42.43 247.93,-59.32 542.78,-154.91 1078,-236.47 1649.35,-209.16 392.46,18.76 655.64,39.84 996.8,255.27 351.25,221.81 179.85,278.36 839.34,413.22l-210.48 215.66c-122.61,139.1 -500.34,659.57 -477.42,803.23l231.17 25.04c20.88,-28.86 102.06,-241.37 128.89,-298.13 34.83,-73.72 109.28,-194.86 159.62,-258.91 50.29,-64 230.08,-277.94 297.06,-321.05 125.88,-81.02 257.91,-170.45 395.15,-237.69 191.41,-93.78 375.02,-340.36 846.7,-400.17l-126.29 626.17c-45.16,179.52 -156.05,430.71 -184.87,586.06 106.07,56.51 94.15,2.14 145.53,-77.33 48.62,-75.19 63.09,-107.43 101.18,-187.07 146.61,-306.44 226.6,-513.48 303.23,-852.68 36.33,-160.81 34.24,-373.87 67.86,-506.97 52.03,-48.44 44.41,-4.63 85.42,-73.42l168.74 -317.89c256.73,63.51 514.87,105.11 779.65,17.36 66.03,-21.89 68.86,-16.32 64.11,-75.62 -37.02,-35.08 -277.84,-50.8 -352.7,-64.91 -122.55,-23.09 -225.6,-61.6 -339.91,-86.01 27.29,-23.56 27.65,-31.69 26.87,-36.58 128.32,19.52 332.15,38.08 450.57,-12.81 -13.96,-102.86 -88.68,-97.37 -319.6,-149.95 56.96,-150.84 222.15,-212.12 349.59,-288.88 121.77,-73.34 255.06,-137.47 384.11,-214.04 47.45,-28.15 40.51,-17.31 36.02,-69.23 -6.13,-71.02 -82.62,-57.88 -151.83,-42.69 -308.52,67.74 -352.78,145.36 -580.76,238.72 124.69,-452.81 248.47,-668.82 240.15,-1193.48 -5.38,-338.88 72.84,-122.88 -18.61,-652.33 -34.53,-199.93 -160.34,-322.47 -353.47,-372.44 -174.34,-45.1 -436.92,-14.29 -590.81,87 -201.73,132.77 -303.87,-11.24 -472.61,-135.26 -278.64,-204.78 -72.31,-218.08 -282.52,-423.13 -149.33,-145.67 -353.79,-169.19 -554.79,-154.45 104.89,-95.5 230.08,-124.25 420.9,-320.08 58.6,-60.15 131.51,-127.03 184.6,-191.01 27.57,-33.22 54.56,-86.29 77.24,-110.14 155.03,-162.98 123.5,-48.28 161.76,-403.52 14.63,-136.05 54.82,-137.98 2.43,-334.51 -30.84,-115.7 -140.19,-469.22 -219.07,-539.9l-111.93 54.11c77.99,171.13 83.81,144.24 139.6,347.2 -77.15,11.81 -83.52,-22.91 -105.17,12.52 -21.12,34.61 -21.73,45.46 13.89,69.97 34.79,23.95 87.5,45.69 133.64,173.62 -175.41,-37.53 -134.98,-11.14 -283.35,6.76l-5.89 -129.44c-85.75,-29.78 -122.24,28.53 -145.36,97.89 -118,-75.91 -276.72,-324.97 -194.13,-472.74 71.73,-128.36 336.5,-221.05 364.03,-356.49 -39.68,-52.9 -32.37,-31.88 -82.35,-61.31 63.74,-76 131.78,-80.31 199.57,-137.99 6.61,-5.63 160.81,-183.7 162.73,-187.02 -27.71,-78.56 -13.52,-26.95 -51.85,-73.03l116.19 50.64c-75.04,171.15 -169.75,120.49 -91.66,318.46 90.02,-52.93 150.81,-131.72 231.24,-189.92 57.1,-41.32 182.61,-157.79 238.46,-175.25 -69.01,32.66 -217.7,277.41 -96.22,324.14 74.95,28.81 424.83,-173.22 516.1,-225.04 92.25,-52.37 77.51,-57.18 193.43,-32.07 275.17,59.6 512.28,335.97 639.89,370l73.47 -98.42c-53.08,-123.05 -342.1,-413.01 -454.08,-490.9 -130.73,-90.95 -237.1,-91.78 -390.76,-60.73 -105.86,21.39 -278.6,28.35 -360.79,109.3 114.81,-161.67 368.12,-195.35 553.57,-160.73 291.23,54.37 813.32,480.16 839.27,481.04 43.11,1.45 74.3,-55.8 53.54,-94.98 -26.16,-49.41 -348.14,-375.14 -361.56,-378.52l370.03 9.58c91.88,-254.84 -42.68,-521.86 -90.88,-772.95 -103.75,-540.44 -101.46,-1152.68 -255.39,-1562.1 -73.84,-196.41 -214.44,-400.58 -363.55,-547.24 -78.56,-77.26 -180.8,-135.15 -249.77,-197.88 -51.17,-46.52 -157.24,-187.15 -210.98,-249.17 -141.84,-163.66 -279,-325.26 -407.35,-500.55 -114.21,-155.96 -266.4,-379.79 -389.66,-519.01 -179.02,-202.2 -237.14,-381.63 -233.29,-649.53 384.66,-115.25 560.5,-23.18 893.38,149.7 665.11,345.41 1473.3,981.47 1814,1628.86 336.82,639.99 349.89,1228.36 254.96,1932.55 -46.16,342.47 -114.58,596.08 -218.11,922.38 -49.37,155.59 -265.01,774.73 -258.05,889.31l108.29 2.82 38.07 -51.8c180.92,455.56 438.69,952.63 440.71,1451.22l-223.9 -155.48c-46.13,-26 -36.17,-16.36 -84.64,-1.01 -9.07,92.47 76.9,126.97 137.35,194.79 54.42,61.07 119.23,130.48 170.34,190.91 112.77,133.33 208.53,266.33 334.01,386.62 254.13,243.63 410.77,681.17 421,1027.46 18.9,640.21 -242.81,1056.4 -686.8,1465.46 -63.12,58.15 -125.39,113.72 -187.13,173.5 -73.15,70.86 -157.91,90.11 -129.22,179.89 124.53,53.88 298.91,-54.96 407.23,-116.76 104.93,-59.86 216.92,-150.56 291.99,-235.44 52.25,96.38 136.83,462.83 162.13,585.1 172.66,834.49 105.55,1699.04 109.64,2546.69 0.36,75.38 -33.47,302.41 78.87,279.44 375.98,-76.89 220.14,-1678.92 192.27,-1961.68 -40.16,-407.28 -106.25,-909.34 -207.51,-1304.24 -60.9,-237.5 -138.08,-323.82 29.76,-535.34 134.76,-169.83 193.53,-340.09 216.7,-555.71 53.08,-494.27 -31.98,-815.12 -242.9,-1252.28 -70.81,-146.76 -186.1,-343.45 -299.65,-459.3 -182.57,-186.29 -108.63,-282.87 -97.8,-531.12 5.89,-135.13 18.05,-170.68 83.19,-289.06 41.77,-75.9 75.21,-131.54 18.86,-209.5 -199.74,-276.27 -4.55,-399.38 -129.38,-570.15 -224.06,-306.47 -135.45,-178.45 -142.17,-544.83 -3.24,-177.81 -41.81,-431.65 -208.52,-523.36 -165.43,-91.01 -23.06,-304.24 24.84,-454.07 59.96,-187.56 104.12,-430.3 132.42,-625.99 118.91,-822.04 47.7,-1778 -571.52,-2391.18 -621.68,-615.63 -899.96,-914.24 -1712.66,-1316.54 -412.58,-204.24 -836.6,-210.74 -1281.12,-125.45z"/>
    <path class="fil0" d="M16697.16 1752.91c-4.87,-81.46 -141.17,-155.91 -251.43,-387.5 -79.25,-166.47 -104.96,-334.05 -104.61,-518.83 119.22,99.36 519.72,257.92 733.4,536.39 97.87,127.55 194.63,220.5 289.16,359.47 349.89,514.39 419.51,637.82 679.29,1253.31 101.76,241.09 252.9,878.49 164.56,1113.06 -55.94,-122.4 -112.02,-399.19 -182.15,-500.39 -175.26,49.09 -49.24,145.37 19.57,539.78 49.64,284.49 23.44,441.42 25.62,715.09 1.96,245.14 75.64,431.95 95.59,659.87 28.61,326.8 180.68,323.58 134.6,-145.74 -35.64,-363 -100.39,-101.59 -20.51,-661.74 15.57,-109.17 -0.93,-188.84 45.81,-294.47 61.31,-138.56 67.98,-168.64 68.19,-323.53 1.41,-1032.98 -348.45,-2003.2 -1042.44,-2775.09 -108.57,-120.76 -252.12,-292.79 -365.11,-399.98 -223.35,-211.91 -556.77,-314.93 -859.53,-278.76 -167.88,20.06 -82.53,63.46 -31.87,160.23 51.87,99.09 30.99,231.39 210.82,553.63 89.59,160.51 206.8,345.87 391.04,395.2z"/>
    <path class="fil0" d="M17064.37 7258.69c17.77,-203.89 287.75,-139.33 289.74,93.68l-63.83 35.58c67.83,-129.57 0.29,-235.91 -127.05,-221.59 -47.28,71.04 21.62,86.36 -98.86,92.33zm-21.79 213.44c-145.34,74.42 -173.21,-280.78 -170.2,-306.29 24.39,-46.27 93.27,-114.93 137.85,-138.03 -57.41,80.1 -112.93,105.84 -101.36,228.91 12.04,128.08 97.57,148.23 133.71,215.41zm-443.62 -364.88c51.67,41.34 27.99,-2.45 76.8,55.22 44.25,52.29 30.14,13.27 86.24,57.14 21.6,311.99 -45.56,230.5 -54.24,324.05 83.94,84.44 341.09,96.75 511.17,25.96 153.53,-63.91 263.37,-116.95 382.74,-236.53 17.26,-109.5 6.27,-215.1 -67.41,-294.35 -110.43,-118.79 -198.84,-273.82 -452.03,-268.31 -166.75,3.62 -222.65,71.37 -276.87,84.13 1.12,-99.95 150.03,-169.32 84.58,-311.46 -144.77,21.37 -153.77,121.03 -198.67,222.62 -24.38,55.18 -55.46,61.29 -80.27,136.42 -26.3,79.64 -24.92,123.12 -12.04,205.11z"/>
    <path class="fil0" d="M14772.73 9572.37c201.18,75.02 565.88,-329.86 595.65,-511.68 -43.13,-40.96 -10.23,-17.99 -71.52,-27.91 3.03,-8.11 137.94,-240.18 -71.52,-297.16 -99.13,-26.97 -84.28,61.38 -66.61,127.69 18.88,70.87 8.62,99.11 -28.03,164.12 -112.7,199.95 -428.67,286.02 -357.97,544.94z"/>
    <path class="fil0" d="M17609.35 7742.82c-71.08,-8.76 -241.31,35.43 -368.93,22.22 -153.03,-15.84 -531.56,-143.39 -582.46,-239.16 -34.99,-65.85 -8.92,-131.28 -87.47,-105.78 -60.2,19.54 -66.11,85.79 -52.74,138.34 41.78,164.28 340.65,296.19 496.94,333.05 189.23,44.64 356.21,21.87 528.61,-39.35 76.64,-27.21 108.1,-25.67 66.05,-109.32z"/>
    <path class="fil0" d="M17272.97 6404.89c102.1,109.68 405.21,173.27 505.68,677.02 9.98,50.06 6.8,131.41 43.92,160.15 63.72,49.33 93.86,-10.68 97.33,-69.8 25.04,-426.47 -558.13,-1063.33 -646.93,-767.37z"/>
    <path class="fil0" d="M14938.03 9718.16c72.31,57.89 258.88,-65.51 376.34,-130.3 54.76,-30.21 116.81,-81.84 156.13,-118.06 64.28,-59.2 118.58,-82.63 89.34,-183.74 -102.8,-51.26 -94.53,6.59 -165.17,63.9 -94,76.28 -425.68,294 -456.64,368.2z"/>
   </g>
  </g>
 </g>
</svg>
