<?xml version="1.0" encoding="UTF-8"?>
<!DOCTYPE svg PUBLIC "-//W3C//DTD SVG 1.1//EN" "http://www.w3.org/Graphics/SVG/1.1/DTD/svg11.dtd">
<!-- Creator: CorelDRAW 2017 -->
<svg xmlns="http://www.w3.org/2000/svg" xml:space="preserve" width="320mm" height="150mm" version="1.1" style="shape-rendering:geometricPrecision; text-rendering:geometricPrecision; image-rendering:optimizeQuality; fill-rule:evenodd; clip-rule:evenodd"
viewBox="0 0 32000 15000"
 xmlns:xlink="http://www.w3.org/1999/xlink">
 <defs>
  <style type="text/css">
   <![CDATA[
    .fil0 {fill:#D7B56D}
   ]]>
  </style>
 </defs>
 <g id="Слой_x0020_1">
  <metadata id="CorelCorpID_0Corel-Layer"/>
  <g id="_2736993859760">
   <g id="_1599802822384">
    <path class="fil0" d="M21309.32 4984.26c8.19,-34.08 98.13,-174.07 154.48,-320.2 56.61,-146.84 50.71,-343.83 65.89,-348.46 213.08,-17.95 422.48,197.43 387.93,451.73 -41.12,302.56 -411.55,341.95 -608.3,216.93zm-454.83 500.59c57.99,-26.25 177.33,-114.01 213.9,-126.24 115.99,40.22 295.39,80.45 449.13,104.49 430.09,67.27 804.86,-205.75 891.78,-575.9 25.56,-108.84 26.22,-226.09 -3.89,-345.55 -157.18,-601.35 -634.32,-611.93 -884.86,-698.76l-77.95 -353.52c83.13,-27.49 150.99,-39.43 234.16,-59.21 568.41,-135.28 1525.59,-350.2 1933.45,202.42 220.46,298.69 -64.2,1234.89 -255.65,1577.85 -275.83,494.07 -715.12,1047.5 -1037.64,1148.66 -294.99,92.56 -743.47,-15.14 -1002.87,-171.44 -214.08,-129.02 -500.93,-429.44 -459.56,-702.8zm-1552.26 -355.5c-331.5,-191.11 -595.6,-637.97 -570.81,-1022.57 15.12,-234.64 121.75,-517.39 276.61,-685.03 178.42,-193.17 462.49,-350.81 769.15,-392.39 1073.56,-145.52 1496.47,858.84 1231.33,1571.16 -250.46,672.92 -1136.31,857.33 -1706.28,528.83zm-1179.46 -1391.4c-106.6,-91.1 -190.45,-151.39 -197.42,-282.7 -5.75,-108.68 -2.79,-227.46 48.92,-309.78 138.2,-220.08 449.46,-211.4 628.82,-57.13 9.35,8.05 -130.68,170.49 -227.95,339.78 -67.71,117.82 -102.17,261.63 -139.58,339.99 -19.42,40.67 -44.88,27.88 -112.79,-30.16zm1856.64 -1425.56c103.87,-29.51 324.68,-144.66 438.21,-193.11 476.59,-203.39 1597.41,-609.56 2024.7,-516.02 261.73,57.32 366.65,516.91 446.31,755.89 17.42,52.26 82.36,432.48 70.36,458.48 -730.02,62.1 -1027.14,-1.08 -1752.86,257.73 -15.16,5.42 -126.41,-137.61 -409.5,-317.63 -153.1,-97.39 -395.76,-149.14 -573.27,-176.24 -108.22,-16.5 -192.75,-23.06 -224.66,-24.23 -12.3,-0.44 -19.01,-127.25 -19.29,-244.87zm3773.26 6318.11c0.91,1.97 -18.16,204.37 -16.45,227.44 13.42,182.42 -44.21,614.06 -93.53,765.27l-337.66 -41.41c-143.13,5.65 -252.78,21.72 -330.74,141.42 -44.11,67.73 -71.44,168.44 32.91,253 107.7,87.27 357.86,144.71 486.48,159.85 -14.55,57.23 -43.89,129.99 -86.38,227.62 -38.49,88.41 -63.5,201.29 -103.79,269.33 -236.01,398.59 -222.51,456.49 -320.08,446.74 -145.84,-14.56 -490.95,-117.22 -586.59,-72.87 -143.76,66.65 -242.09,255.97 -19.77,417.91 58.55,35.4 261.82,137.2 293.16,167.25 -9.27,132.94 -347.19,441.04 -458.87,531.88 -190.81,155.21 -395.45,298.22 -623,395.77 -1147.71,491.9 -1811.18,648.09 -3056.19,817.57 -1179,123.05 -2311.68,171.99 -3498.45,28.64 -1079.34,-130.38 -2396.59,-356.68 -3405.65,-762.67 -340.7,-137.08 -640.93,-283.79 -946.44,-485.3 -220.52,-145.43 -448.99,-176.75 -124.87,-315.38 36.49,-15.6 210.76,-129.94 234.03,-162.55 66.16,-92.69 41.33,-254.23 -50.82,-337.96 -80.88,-73.5 -210.15,-83.09 -435.7,-2.64 -149.37,53.25 -320.83,184.24 -400.45,209.89 -192.91,-180.96 -582.96,-567.65 -584.41,-827.59 -0.66,-120.23 472.05,-107.48 581.05,-282.28 46.17,-74.06 33.57,-188.43 -35.03,-235.93 -29.48,-38.09 -70.82,-24.22 -153.83,-34.63 -68.19,-8.56 -412.41,59.22 -578.94,64.53 -82.59,-136.53 -158.72,-207.32 -209.48,-378.88 -51.7,-174.74 -94.89,-291.08 -106.25,-483.34 -24.65,-416.79 312.93,-167.67 864.98,-226.81 148.21,-15.89 205.68,-267.4 35.89,-372.45 -184.36,-114.06 -795.29,-94.84 -939.57,-207.75 -117.03,-91.59 -66.62,-359.03 -61.02,-514.11 12.17,-337.56 159.17,-850.61 236.48,-1198.7l173.34 -429.42c63.61,-209.03 591.92,-1123.47 743.69,-1321.66 71.72,-93.64 70.28,-80.36 103.69,-198.35 101.62,-358.55 -347.15,-233.87 -539.36,-181.26 -260.33,-579.15 -288.4,-866.01 -129.12,-1493.73 92.34,-363.89 279.01,-1031.86 691.05,-1144.63 440.28,-120.52 1105.77,101.24 1531.27,225.07 335.33,97.6 866.25,360.07 1187.29,522 285.52,143.99 393.35,166.33 713.66,90.22 482.17,-114.56 807.74,-151.03 1233.01,-151.32 145.45,-0.09 904.59,-6.47 942.32,11.49 38.2,18.19 12.7,93.12 -1.86,181.39 -44.24,267.95 -115.51,484.54 -124.72,770.76 -8.59,266.6 47.74,492.42 139.76,740.35 162.19,437.02 500.65,728.85 936.51,876.84 449.59,152.65 1119.1,134.44 1569,-11.68 253.19,-82.22 376.4,-239.72 606.99,-6.29 340.28,344.52 927.3,450.55 1392.88,444.15 292.46,-4.04 299.22,201.09 462.94,407.75 362.13,457.13 510.44,617.32 1109.35,725.71 547.94,99.13 941.72,-54.42 1352.06,-412.4 62.79,-54.77 111.55,-91.18 132.77,-94.64 50.15,-8.16 177.68,234.86 243.27,376.7 108.89,235.6 169.82,430.09 228.39,682.81 69.92,301.63 83.82,519.36 78.65,579.47 -2.47,28.67 -389.87,81.32 -852.16,205.14 -298,79.81 -219.52,431.5 -141.35,476.45 34.39,19.77 133.87,50.94 178.75,43.71 361.24,-58.37 447.28,-95.49 836.91,-95.49zm-7718.73 -4796.29c4.17,-286.39 14.9,-526.91 82.77,-807.76 107.9,-446.39 292.39,-843.78 532.75,-1232.43 88.4,-142.94 263.74,-381.74 397.26,-479.19 387.69,-282.96 738.14,-468.43 1199.11,-296.49 385.21,143.66 646.89,451.91 848.68,792.62 157.03,265.16 305.72,566.38 297.39,657.77 -6.29,68.83 -50.05,110.52 -105.03,137.66 -87.55,43.23 -108.41,34.34 -182.17,66.95 -23.73,10.51 -123.32,-82.08 -206.55,-114.32 -213.07,-82.57 -526.66,-181.03 -780.14,-115.15 -467.47,121.45 -780.2,521.96 -720.64,1028.47 40.97,348.1 303.79,748.58 666.26,817.58 94.25,17.95 80.89,-7.35 193.02,35.61 -3.48,121.81 42.97,307.89 99.53,388.4 -70.26,38.88 -408.33,155.43 -734.11,204.67 -367.53,55.55 -994.66,21.55 -1287.25,-273.9 -211.76,-213.79 -305.26,-510.98 -300.88,-810.49zm-8090.89 4678.77c-272.05,0 -570.74,86.61 -831.47,101.07 -217.98,12.07 -569.1,52.43 -724,208.58 -81.85,82.51 -84.23,210.79 -50.07,324.37 59.03,196.3 268.81,194.96 457.72,183.99 205.95,-11.97 476.96,-39.76 730.01,-56.65 225.55,-15.05 334.43,-25.62 520.91,-26.97 12.38,164.18 153.68,707.31 183.82,959.27 -196.04,127.93 -445.36,202.17 -657.04,318.64 -86.03,47.34 -246.62,119.01 -284.92,202.96 -359.76,788.57 1211.63,167.15 1213.65,167.96 32.04,12.99 83.7,64.57 181.44,206.14 60.99,79.86 91.98,119.46 137.95,206.61 62.44,118.37 231.87,321.28 242.7,446.13 -43.69,72.3 -415.17,283.84 -514.07,350.27 -179.6,120.63 -322.82,226.27 -479.86,376.91 -150.1,143.99 -281.98,440.59 -27.12,562.67 193.7,92.77 461.87,-80.42 627.35,-174.4 182.43,-103.62 358.89,-211.88 542.75,-312.69 186.27,-102.15 328.97,-292.08 549.88,-166.14 180.94,103.15 358.64,225.27 546.12,328.1 187.4,102.79 389.96,199.68 583.12,292.14 2453.75,1174.29 6428.74,1375.17 9017.43,827.27 833.4,-176.39 1637.86,-469.04 2383.41,-973.6 330.67,-223.82 668.7,-458.88 943.3,-749.97 82.36,-87.3 165.33,-161.61 206.96,-172.01 50.6,-12.63 213.56,80.88 365.19,147.46 196.87,86.45 426.86,149.11 633.94,235.47 188.83,78.76 468.86,221.91 655.12,60.68 191.9,-166.14 103.2,-448.25 -112.42,-560.89 -383.56,-200.4 -779.65,-323.26 -1159.04,-535.74 5.47,-65.58 182.68,-418.98 221.38,-487.64 65.87,-116.84 135.74,-356.62 197.59,-489.82 357.81,17.89 1242.66,260.25 1450.79,-41.29 64.24,-93.07 4.89,-209.51 -67.73,-285.21 -85.5,-89.05 -189.25,-99.47 -306.98,-125.76 -333.62,-74.46 -693.45,-107.63 -937.2,-156.61 0,-75.98 90.49,-1033.51 100.41,-1052.14 135.72,-92.21 1550.83,41.03 1723.72,-198.34 120.93,-167.38 -1.81,-344.32 -142.18,-428.32 -122.97,-73.59 -330.69,-58.52 -475.77,-65.94 -361.97,-18.48 -680.03,-35.05 -1126.54,-35.05 -39.94,-70.91 -176.21,-1162.14 -504.96,-1818.64 -91.27,-182.25 -147.93,-383.73 -144.47,-424.19 3.55,-41.53 113,-208.8 201.26,-398.06 225.85,-484.33 397.34,-1344.34 151.33,-1836.06 -133.23,-266.33 -397.32,-469.7 -476.53,-685.06 -88.38,-240.34 -14.33,-396.91 -214.26,-948.26 -96.5,-266.13 -217.45,-540.02 -435.74,-728.08 -480.46,-413.94 -1310.62,-117.6 -1854.87,10.02 -456.94,107.14 -971.36,339.75 -1399.22,531.45 -33.71,15.11 -234.96,-312.07 -820.63,-841.13 -243.31,-170.61 -493.63,-314.2 -786.73,-380.6 -895.01,-202.79 -1726.95,530.92 -2117.21,1260.99 -59.47,111.23 -199.7,274.76 -228.55,286.43 -45.79,18.54 -314.39,24.1 -601.46,12.51 -223.97,-9.05 -1349.85,64.16 -1614.08,114.94 -473.05,90.9 -447.7,102.49 -886.08,-95.7 -217.31,-98.23 -1037.44,-365.63 -1270.71,-438.66 -567.35,-177.61 -1336.13,-341.54 -1897.35,-80.08 -546.79,254.73 -753.78,863.13 -903.36,1405.15 -188.55,683.17 -189.51,1335.57 22.16,2013.45 121.06,387.7 184.99,500.35 -39.72,868.54 -237.39,388.99 -495.87,1288.83 -582.77,1744.01 -65.98,345.62 -80.27,668.24 -116.3,1015.52z"/>
    <path class="fil0" d="M15822.34 10846.13c-39.86,-112.03 19.01,-259.6 134.93,-316.35 105.29,-51.57 349.91,-75.65 531.44,-13.61 328.45,112.22 323.27,510.54 -143.86,526.15 -90.74,3.04 -181.66,-6.66 -250.66,-20.54 -98.65,-19.89 -235.61,-73.84 -271.85,-175.65zm-123.98 -635.09c-196.64,104.87 -350.67,276.51 -354.17,512.29 -3.35,225.17 85.23,423.24 285.66,533.79 234.39,129.27 408.05,151.66 663.8,155.09 396.99,5.36 945.23,-110.72 935.75,-614.6 -5.88,-313.27 -185.97,-495.08 -423.21,-602.88 -345.07,-156.83 -817.88,-138.33 -1107.83,16.31z"/>
    <path class="fil0" d="M11675.36 8988.95c-195.06,267.92 -212.81,809.05 2.19,1069.64 232.32,281.59 659.4,281.26 919.22,-26.25 215.71,-255.29 193.2,-833.5 -21.89,-1072.46 -265.9,-295.43 -665.66,-292.13 -899.52,29.07z"/>
    <path class="fil0" d="M19559.22 9483.41c-16.46,145.21 50.78,422.99 139.63,544.62 368.78,504.82 1024.88,255.59 1053.84,-526.36 9.08,-245.51 -57.32,-615.21 -310.69,-705.65 -506.79,-180.89 -826.48,190.83 -882.78,687.39z"/>
   </g>
  </g>
 </g>
</svg>
