<?xml version="1.0" encoding="UTF-8"?>
<!DOCTYPE svg PUBLIC "-//W3C//DTD SVG 1.1//EN" "http://www.w3.org/Graphics/SVG/1.1/DTD/svg11.dtd">
<!-- Creator: CorelDRAW 2017 -->
<svg xmlns="http://www.w3.org/2000/svg" xml:space="preserve" width="320mm" height="150mm" version="1.1" style="shape-rendering:geometricPrecision; text-rendering:geometricPrecision; image-rendering:optimizeQuality; fill-rule:evenodd; clip-rule:evenodd"
viewBox="0 0 32000 15000"
 xmlns:xlink="http://www.w3.org/1999/xlink">
 <defs>
  <style type="text/css">
   <![CDATA[
    .fil0 {fill:#D7B56D}
   ]]>
  </style>
 </defs>
 <g id="Слой_x0020_1">
  <metadata id="CorelCorpID_0Corel-Layer"/>
  <g id="_2736928995504">
   <g id="_1599858748416">
    <path class="fil0" d="M16699.67 13821.65c30.05,43.11 63.38,105.64 93.48,143.78 47.04,59.65 98.44,94.4 27.03,134.51 -112.22,63.01 -232,114.03 -357.36,115.09 -48.94,8.91 -172.68,-10.39 -155.15,-61.2 5.8,-16.81 111.96,-85.35 136.55,-102.77 71.34,-50.52 203.18,-169.07 255.45,-229.41zm-113.02 -157.83c-634.37,553.85 -1144.25,741.33 -1988.19,759.77 -381.72,8.34 -772.79,-23.39 -1017.95,-341.57 -160.83,-208.72 2.54,-315.12 133.68,-451.17 108.03,-112.07 220.1,-240.55 347.55,-362.52 43.06,16.78 -16.86,223.97 175.79,338.63 140.32,83.52 389.23,101.56 554.33,77.18 325.52,-48.1 727.21,-230.54 970.26,-384.29 111.87,-70.77 144.78,-77.9 239.58,-175.28 105.98,-108.88 82.92,-90.74 203.8,47.34 107.99,123.36 315.26,346.26 381.15,491.91zm-2248.31 -172.15c-143.57,-10.93 -140.12,-243.07 -85.75,-351.85 61.23,-122.48 124.7,-234.25 189.34,-354.68 46.2,-86.08 387.91,-624.2 437.5,-649.5l112.31 101.67c-204.88,251.54 -227.31,243.24 -407.09,548.47 -54.22,92.06 -101.62,235.1 -147.28,338.11 -36.9,83.26 -79.61,332.93 -99.03,367.78zm2773.85 205.22c-259.73,-123.22 -623.5,-369.35 -789.65,-599.87 -85.01,-117.93 -240.26,-269.7 -307.35,-387.39 -62.75,-110.06 -193.71,-363.51 -270.48,-437.6l240.96 -59.48c8.84,30.19 -49.33,-26.57 0.96,90.54 42.06,97.92 117.57,239.63 175,327.93 91.93,141.38 166.33,261.65 275.01,394.05 100.42,122.32 200.08,244.81 318.1,351.46 46.03,41.61 351.21,302.06 357.45,320.36zm89.01 -3147.4c63.79,-98.56 146.83,-203.28 289.58,-150.42 114.66,42.44 206.52,96.34 285.98,190.82 134.97,160.48 284.23,519.34 203.01,721.07 -44.88,-20.13 -151.37,-212.21 -197.78,-215.61 -191.05,-13.94 215.47,398.63 339.25,790.53 134.04,424.33 224.74,1049.26 156.56,1487.78 -51.97,334.24 -321.7,905.77 -664.45,1017.7 -208.28,68.03 -410.93,-128.77 -531.43,-278.91 -57.79,-71.99 -105.46,-173.51 -164.33,-254.36 -60.04,-82.44 -124.12,-170.37 -179,-255.99 264.97,160.27 516.28,304.21 761.86,56.75 144.58,-145.66 136.45,-610.37 106.19,-799.75 -65.75,-411.54 -274.9,-908.1 -531.37,-1235.75 -75.81,-96.84 -157.34,-187.03 -240.6,-267.1 -113.03,-108.67 -288.33,-255.27 -433.96,-310.7 -278.68,-106.08 -238.41,-120.54 -539.02,-62.43l16.13 -118.99c275.72,-82.86 258.64,-226.15 310.05,-249.7 35.42,-13.87 362.15,104.89 691.66,-0.9 126.88,-40.73 163.97,7.87 271.69,91.25 40.22,31.13 223.68,146.72 262.54,157.64 139.62,-83.51 -174.78,-254.11 -212.56,-312.93zm-3345.54 -391.71c-25.93,-71.24 1.22,-185.74 26.7,-254.07 36.95,21.64 115.54,164.96 126.19,204.19 -32.64,26.11 -112.5,64.24 -152.89,49.88zm37.58 -880.16c334.09,217.1 684.08,471.52 1008.74,705.45 181.9,131.06 342.35,212.86 529.63,324.31 109.39,65.09 582.3,225.91 612.53,252.44 19.43,68.62 -110.4,161.59 -179.11,150.45l-38.4 -139.2c-40.14,11.55 -77.22,178.41 -108.9,216.07 -26.07,30.98 -173.17,103.44 -230.2,74.19 -84.7,-67.21 -14.29,-265.29 -20.36,-288.98 -35.14,4.43 -104.2,79.64 -117.86,98.02 -34.32,46.18 -62.64,55.59 -116.56,85.63 -103.23,57.51 -232.32,79.55 -355.81,81.91 -30.76,-208.67 -3.06,-100.29 88.84,-227.34 70.2,-97.05 -30.65,-31.15 -190.9,-82.25 -188.31,-60.03 -303.07,-115.02 -421.16,-290.6 -212.54,-315.99 -452.67,-352.74 -460.48,-960.1zm-166 635.2c-33.67,82 -42.09,243.4 14.82,324.5 74.66,106.41 197.85,35.71 289.71,6.28l54.64 168.58c-287.19,-60.61 -532.79,-242.37 -743.65,-436.05 -180.49,-165.78 -418.6,-529.76 -378.33,-779.29 33.87,-209.92 245.64,-157.36 405.14,-140.45 69.26,7.35 406.57,85.25 406.2,159.32 -1.04,205.07 -539.26,611.17 -48.53,697.11zm3209.84 -869.54c-103.59,-59.05 -175.86,-55.9 -301.38,-45.47 -77.76,6.46 -240.77,88.84 -310.4,133.38 -6.48,-143.03 -42.73,-160.76 63.11,-248.79 129.57,-107.76 323.06,-139.81 484.47,-90.98 126.77,38.33 53.27,22.61 64.2,251.86zm-3178.32 -34.59l0.83 -2.01c2.13,-6.69 229.15,-66.29 255.23,-78.89 60.62,-29.31 68.49,-39.1 69.01,-107.55 0.6,-78.41 14.31,-42.08 67.13,-89.65 99.21,-89.34 31.71,-131.25 189.81,-144.99 109.61,-9.52 206.98,-19.15 318.32,-14.07 366.77,16.79 762.06,107.52 1049.47,345.25 118.57,98.08 237.22,235.29 341.96,352.48 29.3,32.79 103.43,462.64 103.83,522.61 0.36,52.17 -44.53,506.76 36.87,430.07 117.65,-110.85 21.04,-70.07 194.24,2.52 144.11,60.37 273.94,78.6 415.37,12.02 222.28,-104.66 321.73,341.27 -360.83,255.85 -309.57,-38.75 -694,-242.33 -973.94,-387.01 -82.29,-42.53 -777.18,-492.03 -850.31,-548.65 -246.57,-190.93 -600,-354.84 -856.99,-547.98zm630.12 -561.62c6.93,-13.19 113.53,-96.48 132.24,-109.01 67.99,-45.47 109.44,-29.01 188.29,-21.82 173.24,15.83 682.44,111.05 822.05,200.55 70.42,45.14 272.58,153.74 241.72,243.32 -207.93,-123.26 -386.96,-195.53 -613.49,-266.06 -225.06,-70.07 -541.38,-91.5 -770.81,-46.98zm2689.97 821.91l-12.86 -360.23c62.64,22.01 78.41,-6.54 66.23,-77.32 -149.49,-186.55 -454.22,-271.47 -679.29,-176.33 -64.88,27.44 -242.72,142.06 -256.88,205.13 -20.42,91.02 44.04,302.55 25.05,365.53 -160.95,-48.57 -250.32,-309.49 -278.17,-455.86 -32.06,-168.52 123.2,-382.36 241.03,-493.56 238.45,-225.05 287.15,-132.39 576.92,-139.02 308.98,-7.07 572.08,-127.37 616.67,-130.27 45.06,68.71 22.33,290.44 -13.08,369.02 -66.36,147.28 -43.2,84.84 -74.89,65.95 -182.47,-108.86 55.25,676.13 -210.73,826.96zm-2324.1 -1098.22c84.6,-58.67 616.23,-368.58 689.32,-343.78 136.17,46.22 273.02,96.5 419,117.16 95.25,13.48 307.98,85.37 388.05,133.41 -109.56,47.81 -244.84,172.7 -311.06,272.38 -116.66,175.61 -75.69,203.43 -148.15,158.66 -441.37,-272.71 -527.32,-234.57 -1037.16,-337.83zm-360.42 69.44l-149.1 138.67c-17.94,-34.13 -40.36,-101.67 -56.21,-168.75 -27.16,-114.95 -28.37,-168 14.36,-279.58 30.39,-79.35 77.12,-157.9 124,-164.07 -29.64,232.46 -19.6,267.99 66.95,473.73zm897.68 -493.74c-1.28,1.08 -254.17,95.38 -279.41,104.29 -83.3,29.38 -177.79,86.05 -256.48,127.9 -39.99,21.26 -206.62,155.22 -232.99,126.48 -49.32,-53.73 -66.3,-437.48 84.68,-601.67 51.2,-55.68 193.6,-142.76 266.94,-96 24.21,15.43 412.16,332.33 417.26,339zm1207.09 -3062.93c40.5,-261.13 -60.12,-251.57 113.83,-681.69 42.82,-105.89 199.63,-101.9 307.24,-120.89 50.4,-8.9 308.08,-58.22 344.64,-49.77 265.26,61.26 621.71,844.29 688.25,1099.05 49.66,190.09 104.61,517.13 90.71,713.03 -6.71,94.59 -11.14,257.3 -30.62,344.33 -88.03,393.29 83.17,-169.38 453.99,105.08 73.32,54.25 15.38,290.52 -2.98,371.16 -30.31,133.1 -65.68,228.66 -124.98,351.31 -15.31,31.65 -181.85,295.54 -185.34,293.16l30 -386.44c65.14,-17.62 89.24,21.34 131.62,-70.12 -53.01,-69.84 -203.69,-46.92 -270.57,-4.42 -56.36,35.82 -171.17,180.86 -89.35,234.9l99.93 -89.07c24.08,256.92 -94.26,548.2 -249.9,744.12 -131.18,165.13 -435.76,315.57 -636.66,376.48 -251.07,76.1 -587.55,86.96 -839.92,15.06 -156.13,-44.49 -573.88,-240.63 -576.56,-422.81l105.48 50.9 63.47 -67.21c-26.6,-155.75 -290.5,-223.19 -432.85,-183.11 -44.82,12.62 -199.96,82.88 -134.8,147.03 5.56,5.48 229.38,-2.04 273.47,5.59 23.66,285.35 93.68,193.52 175.25,358.16 -99.76,-12.29 -409.21,-143.83 -502.68,-198.54 -156.39,-91.52 -269.49,-169.24 -365.28,-329.38 -98.18,-164.13 -162.31,-311.08 2.54,-460.76 148.11,-134.48 449.93,-28.03 548.34,-61.35 6.21,-13.29 -164.71,-380.64 -186.72,-443.49 -162.43,-463.82 -235.86,-937.34 -144.02,-1432.53 18.13,-97.8 0.04,-151.48 73.74,-222.52 54.54,-52.57 115.45,-131.3 169.84,-173.29 129.74,-100.18 268.6,-187.79 400.84,-285.64 62.06,-45.93 140.26,-119.79 217.46,-62.89 32.35,23.84 161.23,134.26 183.68,160.72 49.42,58.29 266.34,361.92 298.91,375.84zm-629.24 -1917.93c83.08,-48.83 297.18,63.18 357.53,126.26 74.71,78.09 156.39,206.87 190.98,309 57.66,170.2 119.3,700.64 -106.21,760.42 -63.49,16.84 -171.91,9.76 -231.19,-19.54 -27.01,-13.35 14.08,-127.78 17.47,-162.91 10.35,-107.67 -49.71,-286.55 -121.82,-368.37 -68.34,-77.54 -72.17,-38.88 -104.31,-153.69 -92.24,-329.54 -195.17,-377.91 -2.45,-491.17zm-704.9 441.79c-83.95,15.23 -177.29,49.42 -253.21,82.1 -87.88,37.82 -180.11,62.86 -150.23,158.96 45.31,11.03 256.15,-73.8 324.57,-90.79 114.91,-28.53 279.62,-32.3 396.92,-14.37 251.14,38.39 448.2,116.3 475.73,405.84 16.23,170.65 -57.48,180.48 -176.85,267.79 -77.13,56.42 -177.1,128.61 -257.77,177.57 -83.94,50.92 -183.51,114.13 -260.45,174.6 -75.43,59.27 -150.09,185.64 -213.49,222.13 -111.96,64.45 -493.54,280.2 -599.97,279.33 -193.04,-1.6 -362.15,-309.13 -406.52,-473.44 -33.49,-124.13 -14.51,-556.7 3.66,-702.04 14.88,-118.95 50.05,-264.97 41.75,-381.15 -7.83,-109.56 16.56,-313.98 -111.89,-318.51l-32.37 171.77c-20.07,-34.21 -173.76,-552.5 -183.64,-610.61 -29.03,-170.46 -25.95,-463.87 -25.12,-644.49 0.72,-155.68 -40.01,-504.82 54.06,-615.33 115.8,-136.02 460.21,3.97 583.36,93.08 171.66,124.21 673.64,634.38 787.41,811.12 200.76,311.89 463.43,668.11 551.78,1035.89 -156.25,-4.18 -229.99,-87.08 -547.73,-29.45zm1116 -534.47c164.74,-229.73 523.45,-747.24 614.83,-999.67 127.39,-351.86 270.25,-724.16 270.92,-1120.85 0.08,-53.8 30.96,-141.07 -61.11,-117.27 -44.55,11.53 -76.16,266.09 -87.2,321.69 -86.54,435.8 -359.38,1042.53 -604.94,1405.83 -39.68,58.71 -119.41,187.47 -151.89,249.32 -23.81,45.36 -135.17,275.88 -159.81,137.08 -58.57,-329.75 111.09,-990.23 255.69,-1296.72 154.3,-327.09 311.48,-784.87 709.42,-904.49 448.53,-134.82 560.73,713.99 574.47,990.05 12.09,242.67 3.13,774.61 -10.85,1039.99 -2.87,54.48 25.63,142.45 82.91,82.59 28.08,-29.35 17.95,-85.07 54.45,-137.73 58.74,235.81 298.36,1037.89 30.11,1199.41 -33.83,20.37 -1075.07,215.98 -1182.68,230.28 31.66,-305.97 28.3,-309.77 -26.31,-608.48 5.37,-8.75 143.07,-134.43 157.69,-145.79 120.2,-93.42 442.2,-291.6 491.79,-438.52l-53.54 -45.58c-154.9,72.74 -229.58,67.49 -372.34,190.3 -103.32,88.88 -196.73,181.62 -279.38,288.77 -34.66,-39.29 -67.51,-129.13 -107.29,-182.11 -41.88,-55.78 -102.89,-92.65 -144.94,-138.1zm-625.38 18.14c-179.96,-431.08 -823,-1210.39 -1226.21,-1441.61 -292.33,-167.64 -728.39,-317.03 -853.4,118.38 -56.76,197.68 -21.87,952.86 6.24,1178.59 -207.25,-19.47 -409.45,34.38 -593.41,125.52 -355.61,176.21 -645.82,650 -702.4,1036.53 -31.35,214.21 -55.73,357.18 -19.62,577.57 76.37,466.02 235.74,770.51 648.5,1022.35 137.84,84.12 509.3,204.54 668.82,185.46 287.52,-34.4 502.45,-246.04 592.35,-241.17 4.39,16.35 -4.8,64.83 -13.44,119.33 -53.94,339.91 8.84,604.16 71.19,932.19 36.48,191.92 207.7,569.5 327.09,729.59 26.1,35.01 167.49,201.32 167.35,224.08 -109.52,62.21 -156.01,13.87 -273.15,160.63 -99.48,124.65 -14.01,185.02 -178.87,265.16 -300.8,146.26 -905.99,202.17 -755.58,725.71 101.69,353.97 390.36,341.49 449.86,404.57 -116.52,119.66 -627.81,44.82 -785.42,56.55 -275.47,20.5 -461.64,193.87 -426.06,478.63 20.06,160.58 248.51,472.85 357.73,601.62 148.74,175.36 326.54,323.3 526.51,437.04 89.93,51.16 229.44,120.49 327.09,150.62 143.31,44.2 219.77,37.7 302.24,181.63 89.46,156.16 273.98,439.06 387.8,574.27 102.23,121.44 150.06,142.03 111,317.57 -55.49,249.45 -37.67,140.87 10.23,374.99 26.35,128.8 -95.28,180.1 -166.37,270.9 -197.27,251.99 -225.58,314.97 -374.62,585.95 -63.5,115.49 -147.15,153.67 -241.04,236.12 -180.14,158.18 -319.21,306.25 -480.42,481.58 -187,203.42 -243.4,429.32 -69.71,667.45 398.38,546.24 1587.79,450.17 2150.72,259.51 104.2,-35.3 248.58,-82.05 343.5,-133.47 80.71,-43.72 159.07,-92.29 177.15,-101.16 5.53,-2.72 69.27,38.03 130.6,80.99 210.44,147.41 517.18,47.71 701.06,-101.73 118.79,150.26 303.83,350.15 503.25,360.97 316,17.16 376.96,-88.1 571.11,-282.85 288.48,-289.4 443.98,-847.8 456.71,-1249.24 700.64,-35.55 919.66,-367.3 1711.19,-341.72 92.19,2.98 206.18,21.62 296.81,40.59 57.18,11.98 253.95,85.47 292.58,55.39 14.13,-91.51 -416.4,-188.38 -502.92,-203.23 -207.25,-35.56 -418.48,-29.75 -622.5,8.65 -392.32,73.86 -548.45,280.37 -1157.81,291.37 -24.3,-83.24 -26.14,-304.83 -36.8,-407.62 -31.08,-299.64 -162.81,-768.17 -360.99,-1039.18 -19.92,-27.22 -41.47,-49.47 -44.93,-60.6 23.51,-78.55 62.2,-32.13 79.79,-207.32 34.86,-347.02 -195.97,-523.59 -250.43,-653.82 -55.66,-133.13 -200.2,-243.29 -337.07,-282.29 -199.24,-56.78 -308.03,-11.38 -447.33,122.87 -14.19,-129.64 -2.16,-111.79 -75.99,-222.73 -55.11,-82.81 27.79,-105.81 62.19,-172.7 30.98,-60.23 22.13,-356.19 11.15,-432.54 -30.84,-214.29 143.26,-135.28 219.65,-342.9 49.3,-133.99 19.75,-356.52 21.49,-497.7 0.89,-72.42 159.86,-283.16 192.67,-422.74 38.78,-164.91 -21.26,-363.11 98.15,-433.3 220.03,-129.33 478.69,-429.77 625.06,-640.56 202.87,-292.14 352.29,-527.43 370.16,-893.55 6.88,-141.14 -8.88,-130.29 -60.12,-246.15 -23.6,-53.4 -5.37,-154.57 -3,-217.72 27.75,-742.16 -194.44,-1333.46 -697.16,-1896.65 339.72,-54.2 640.59,-175.11 848.98,-462.23 215.43,-296.84 304.52,-656.75 214.57,-1016.99 -65.91,-264 -204.36,-593.98 -416.75,-773.16 -176.05,-148.52 -192.33,-178.64 -410.01,-288.68 -313.98,-158.72 -249.65,6.86 -289.59,-347.92 -35.24,-312.9 -182.9,-804.96 -516.64,-910.54 -578.03,-182.87 -903.8,583.16 -1087.77,973.39 -162.39,344.42 -302.49,855.48 -289.87,1239.71 2.51,76.23 1.25,155.19 -42.13,181.31 -37.09,22.32 -82.26,26.1 -122.22,49.84 -36.37,21.61 -64.11,55.61 -100.79,80.6z"/>
    <path class="fil0" d="M16510.24 6874.24c-176.33,-150.33 -289.05,-413.48 -347.97,-634.92 -12.84,-48.21 -57.66,-173.52 15.85,-150.13 19.7,6.26 52.46,-6.63 80.74,-27.13 54.09,-39.2 95.04,-153.4 107.83,-215.89 12.34,-60.23 11.24,-138.01 17.41,-169.1 42.55,31.45 100.12,181.25 143.43,315.8 28.64,88.97 51.04,171.25 58.72,208.24 10.15,48.85 19.54,141.14 25.07,240.28 7.68,137.9 7.9,289.06 -7.68,354.82l-93.4 78.03zm682.04 -255.59c-79.65,-88.04 -121.57,-555.85 -150.04,-688.55 42.39,-37.62 82.55,-43.86 106.88,-79.43 88.36,-129.25 79.31,-288.6 85.8,-295.5 136.37,200.54 189.13,854.92 50.3,1062.4l-92.94 1.08zm-166.61 -1359.26c-2.05,-5.06 -72.72,-689.83 -191.28,-709.88 -65.72,-11.1 -72.65,18.73 -64.83,58.19 16.73,84.29 39.69,163.52 54.6,251.93 22.3,132.22 38.4,265.79 50.38,399.2 12.41,138.32 -6.42,191.65 -5.89,316.02 0.43,100.15 13.04,257.13 25.65,358.71 38.83,312.91 56.31,406.19 185.87,695.67l-328.88 75.61c28.81,-122.24 15.79,-504.52 -20.39,-634.84 -149.74,-539.4 -364.38,-494.22 -337.86,-639.48 27.95,-153.13 27.11,-370.1 15.17,-525.34 -10.56,-137.39 -0.05,-208.31 -108.51,-220.18l-64.38 588.01c-41.54,-142.53 -44.56,-254.1 -107.8,-398.49 -42.3,-96.55 -97.06,-274.78 -162.62,-355.71l-106.27 23.82c5.66,93.76 287.97,933.66 230.72,1053.71 -118.43,-187.31 -240.54,-444.03 -418.58,-583.03l-82.32 41.69c-2.6,50.54 218.55,377.51 255.93,454.36 35.54,73.08 96.53,150.43 138.39,220.75 80.64,135.44 59.53,92.56 63.2,246.06 1.87,78.12 -36.34,91.35 -4.3,305.25 17.75,118.47 33.17,161.89 69.48,272.52 61.77,188.21 270.04,380.3 287.48,432.78l-59.52 101.97 67.28 68.33c136.51,-95.07 264.02,-243.71 455.8,-303.22 114.75,-35.6 163.28,-62.81 291.52,-83.03 139.53,-21.99 233.9,1.33 357.74,-5.28l46.45 -78.41 -138.5 -50.4c140.98,-302.97 136.67,-674.79 11.63,-980.97 -29.25,-71.63 -145.75,-250.73 -151.74,-275.3 13.45,-44.25 66.95,-108.26 94.17,-149.5 83.48,-126.52 157,-474.48 122.38,-585l-63.96 -8.27 -254.07 646.16c-3.65,-15.38 47.4,-237.26 53.03,-280.13 12.32,-93.63 14.41,-186.68 13.38,-281.98 -0.69,-62.96 -17.44,-204.76 -34.37,-265.82 -21.96,-79.2 -22.91,-222.41 -125.86,-226.36 -14.34,22.81 15.71,908.37 -58.32,1029.88z"/>
    <path class="fil0" d="M16886.91 7020.94c-117.99,82.73 -226.66,146.74 -279.99,289.19 -96.86,258.81 13.63,416.49 157.4,486.57 199.58,97.3 522.34,-24.51 683.63,-147 182.06,-138.29 340.12,-380.54 204.58,-601.86 -138.53,-226.19 -582.28,-155.46 -765.62,-26.9z"/>
   </g>
  </g>
 </g>
</svg>
