<?xml version="1.0" encoding="UTF-8"?>
<!DOCTYPE svg PUBLIC "-//W3C//DTD SVG 1.1//EN" "http://www.w3.org/Graphics/SVG/1.1/DTD/svg11.dtd">
<!-- Creator: CorelDRAW 2017 -->
<svg xmlns="http://www.w3.org/2000/svg" xml:space="preserve" width="320mm" height="150mm" version="1.1" style="shape-rendering:geometricPrecision; text-rendering:geometricPrecision; image-rendering:optimizeQuality; fill-rule:evenodd; clip-rule:evenodd"
viewBox="0 0 32000 15000"
 xmlns:xlink="http://www.w3.org/1999/xlink">
 <defs>
  <style type="text/css">
   <![CDATA[
    .fil0 {fill:#D7B56D}
   ]]>
  </style>
 </defs>
 <g id="Слой_x0020_1">
  <metadata id="CorelCorpID_0Corel-Layer"/>
  <path class="fil0" d="M17461.4 10456.55c365.7,-445.89 805.5,-784.47 1473.22,-675.02 668.09,109.51 1312.77,1153.61 1561.07,1765.37 66.07,162.79 136.28,328.65 165.82,356.55 52.4,-100.78 142.58,-260.55 229.62,-393.66 209.81,-320.93 683.2,-816.14 989.46,-1015.18 512.12,-332.83 1119.17,-476.66 1726.99,-440.3 795.09,47.56 1645.24,614.35 2136.71,1231.81 79.91,100.38 453.87,648.98 481.07,668.66 71.94,-485.33 -52.33,-848.31 307.09,-1243.69 140.38,-154.43 295.08,-249.7 461.51,-301.45 463.03,-144.02 1265.28,91.54 1718.86,241.35 470.73,155.46 911.5,360.15 1376.66,642.5 312.5,189.66 667.4,449.67 925.85,707.91 208.24,208.11 748.44,869.67 446.51,127.79 -157.29,-386.48 -280.68,-777.54 -445.61,-1172.14 -160.73,-384.47 -320.99,-742.34 -497.97,-1119.42 -630.23,-1342.85 -1588.39,-2770.06 -2531.75,-3915.42 -1443.78,-1752.95 -2779.24,-2902.27 -4564.09,-4223.16 -352.82,-261.09 -918.09,-653.16 -541.68,-168.02 288.51,371.8 522.37,855.01 726.52,1277.84 462.53,957.97 936.73,2136.06 657.63,3202.56 -81.24,310.43 -326.62,537.79 -618.67,640.51 -449.33,158.03 -867.51,-39.66 -1266.1,-241.95 -460.05,-233.47 -716.68,-448.66 -1041.78,-839.12 -190.6,-228.94 -350.6,-451.19 -553.66,-658.04 -46.74,47.52 -343.11,976.29 -753.15,1474.41 -328.21,398.73 -862.29,831.85 -1412.44,734.3 -507,-89.89 -988.04,-546.46 -1210.3,-997.3 -188.09,-381.53 -400.49,-1077.29 -428.83,-1515.65 -6.22,-96.31 -18.36,-179.02 -52.96,-186.37 -18.01,12 -31.58,59.8 -42.35,117.53 -73.8,395.2 -303.59,957.64 -781.02,969.26 -739.3,17.99 -855.57,-977.23 -906.76,-1003.37 -13.49,2.62 -55.08,247.36 -97.53,486.21 -74.26,418.02 -180.86,836.05 -423.65,1192.81 -319.4,469.31 -611.89,946.49 -1248.15,991.44 -593.64,41.97 -1032.44,-402.54 -1409.07,-795.81 -302.88,-316.28 -453.83,-643.4 -611.66,-1041.04 -40.08,-100.93 -96.5,-384.32 -133.36,-431.24 -29.7,3.17 -594.21,711.12 -709.02,809.61 -297.61,255.23 -522.62,457.27 -863.61,665.96 -851.79,521.27 -1547.15,260.09 -1830.11,-690.53 -109.51,-367.9 -53.51,-1009.08 -5.09,-1391.02 47.79,-377.15 223.12,-792.58 402.12,-1127.41 157.55,-294.66 388.18,-674.52 565.58,-963.96 145.03,-236.63 465.35,-729.03 556.73,-962.51 -490.9,140.3 -2418.14,1709.11 -2879.28,2130.33 -1927.05,1760.16 -3177.78,3375.51 -4463.81,5637.11 -505.04,888.16 -1249.89,2488.44 -1495.44,3462.72 67.62,-21.97 473.98,-469.1 569.08,-560.11 595.26,-569.69 1398.62,-1022.91 2189.98,-1269.03 577.29,-179.53 1183.23,-313.94 1785.36,-190.94 850.19,173.66 865.69,1449.22 865.83,1449.26 7.33,0.63 164.82,-356.88 188.99,-399.8 239.8,-425.55 416.01,-649.79 822.61,-963.55 497.18,-383.67 1142.35,-587.51 1769.23,-581.54 1454.83,13.9 2076.64,807.89 2707.32,1944.35l442.81 -908.94c481.83,-899.32 1286.7,-1735.13 2324.48,-1037.07 528.16,355.28 956.69,853.32 1284.27,1394.69 323.44,534.48 502.02,1087.83 592.18,1698.65 20.46,138.6 48.88,274.87 88.53,272.46 5.95,-4.31 51.9,-221.67 96.08,-439.71 108.74,-536.76 205.51,-806.95 401.54,-1239.79 193.82,-427.97 484.07,-827.94 781.59,-1190.69z"/>
 </g>
</svg>
