<?xml version="1.0" encoding="UTF-8"?>
<!DOCTYPE svg PUBLIC "-//W3C//DTD SVG 1.1//EN" "http://www.w3.org/Graphics/SVG/1.1/DTD/svg11.dtd">
<!-- Creator: CorelDRAW 2017 -->
<svg xmlns="http://www.w3.org/2000/svg" xml:space="preserve" width="320mm" height="150mm" version="1.1" style="shape-rendering:geometricPrecision; text-rendering:geometricPrecision; image-rendering:optimizeQuality; fill-rule:evenodd; clip-rule:evenodd"
viewBox="0 0 32000 15000"
 xmlns:xlink="http://www.w3.org/1999/xlink">
 <defs>
  <style type="text/css">
   <![CDATA[
    .fil0 {fill:#D7B56D}
   ]]>
  </style>
 </defs>
 <g id="Слой_x0020_1">
  <metadata id="CorelCorpID_0Corel-Layer"/>
  <g id="_2737072065392">
   <g id="_1599866360208">
    <path class="fil0" d="M16770 11975.61c-89.1,-73.11 -302.87,-399.71 -379.72,-512.4 -160.03,-234.62 -1140.22,-1494.62 -1132.56,-1567.1 1293.21,-30 1861.22,70.56 3212.36,-158.13 -11.99,33.08 -1636.79,2183.43 -1700.08,2237.63zm-3941.06 -5376.58c85.21,-1.63 660.74,156.59 806.13,189.02 790.08,176.21 1916.59,346.67 2698.59,383.58 695.39,32.8 1347.41,53.77 2044.63,16.98 313.96,-16.55 610.94,-34.93 908.82,85.89 395.21,160.29 769.95,490.82 329.87,843.39 -603.42,483.41 -1367.94,519 -2117.62,494.75 -161.29,-5.21 -333.58,-14 -494.11,-29.46 -148.69,-14.3 -339.8,5.2 -398.4,-136.39 -201.97,-487.99 -646.73,-840.86 -1169.94,-923.63 -344.77,-54.56 -564.61,-0.12 -880.83,117.06 -230.62,85.44 -537.62,184.52 -750.46,298.01 -77.34,-110.73 -165.49,-224.38 -244.83,-332.9l-370.15 -503.56c-112.69,-150.74 -243.54,-372.83 -361.7,-502.74zm8802.19 -3821.83l451.48 423.77c125.51,168.68 574.15,564.6 750.95,744.04 -34.14,81.79 -291.44,405.31 -362.87,499.55l-1132.63 1493.62c-187.57,-218 -295.04,-419.72 -520.37,-632.47 -188.2,-177.72 -458.72,-361.15 -691.13,-474.65 -787.77,-384.7 -1222.98,-254.56 -2043.63,-288.36 -949.46,-39.13 -3163.78,38.18 -3862.83,-572.22 -488.66,-426.73 -308.39,-1004.86 467.58,-1457.21 233.5,-136.13 589.89,-256.67 854.76,-309.85 480.6,-96.49 1671.16,-77.22 2143.88,51.81 226.14,61.74 643.58,199.08 829.1,335.17 905.42,664.12 565.74,1018.27 750.06,1578.16 206.28,26.32 604.42,24.46 841.3,29.75l1485.93 0.93c85.55,-123.82 2.39,-1120 38.42,-1422.04zm-1512.21 207.44c-190.94,-243.41 -347.48,-474.85 -583.78,-685.7l-224.53 -194.81 940.44 3.94c12.99,172.33 -101.79,674.91 -132.13,876.57zm-8675.09 1715.84c-62.99,-48.48 -271.23,-360.45 -330.34,-443.82 -100.6,-135.87 -266.04,-325.67 -349.16,-460.62 26.62,-80.48 1304.62,-1290.52 1550.53,-1534.91 166.2,-165.17 107.77,-170.31 356.81,-170.04 168.64,0.19 354.85,-8.03 520.97,5.19 -21.07,48.67 -455.21,453.16 -539.91,550.64 -258.14,297.08 -816.82,868.07 -985.34,1199.98 -113.01,222.6 -254,598.45 -223.56,853.58zm-2206.4 -937.65c53.52,152.78 1632.99,2171.31 1862.53,2464.35 633.29,808.48 1235.8,1661.37 1879.82,2459.35 311.07,385.44 640.96,820.12 932.64,1220.99 299.71,411.89 647.5,810.92 945.72,1224.52 288.6,400.27 631.17,843.72 940.21,1229.39 316.22,394.64 618.08,841.02 946.13,1218.09 139.17,-72.04 845.69,-1020.88 987.63,-1211.17 309.92,-415.49 640.6,-818.97 955.19,-1231.15 629.91,-825.29 1280.13,-1636.38 1910.34,-2461.3 629.13,-823.55 1290.87,-1631.9 1910.27,-2461.14 307.17,-411.21 640.12,-823.48 956.46,-1229.97 154.44,-198.45 892.43,-1119.26 946.24,-1250.21 -133.92,-174 -1168.07,-1155.69 -1357.3,-1341.7 -454.22,-446.43 -904.49,-901.19 -1363.39,-1340.91 -107.73,-103.23 -358.88,-67.08 -509.26,-65.69 -2205.22,20.33 -4449.58,-8.12 -6662.27,2.7l-1992.5 0.68c-712.05,1.3 -474.1,-88.35 -945.36,391.81 -112.16,114.29 -227.85,226.56 -337.91,341.95 -368.82,386.62 -1808.57,1791.94 -2005.19,2039.41z"/>
    <path class="fil0" d="M8968.52 3718.39c458.23,-452.28 925.79,-894.91 1390.43,-1339.98 306.36,-293.44 1145.45,-1131.71 1405.9,-1346.38 234.39,-193.18 100.22,-217.44 469.27,-208.34 229.58,5.66 463.31,-7.25 692.46,2.3 623.34,25.92 1637.34,11.16 2294.7,8.15 394.88,-1.81 783.6,12.31 1176.16,15.23 909.48,6.76 1829.16,6.32 2738.67,-0.44l2040.18 9.87c191.48,0.18 453.65,-59.18 587.28,102.58 169.19,204.78 494.63,488.09 697.82,680.19 455.9,430.99 918.65,907.9 1393.42,1358.44 199.38,189.2 529.55,484.92 694.25,686 -80.14,213.62 -1654.79,2177.06 -1934.69,2570 -304.22,427.12 -656.02,855.8 -975.73,1275.31 -327.15,429.26 -653.04,856.74 -980.74,1285.4 -153.86,201.23 -346.08,427.95 -484.52,632.48 -129.59,191.43 -340.57,464.99 -487.98,646.34 -339.01,417.03 -647.22,866.28 -982.76,1284.11 -333.88,415.77 -646.22,855.81 -974.63,1275.8 -163.97,209.69 -324.07,438.06 -494.57,639.23 -135.5,159.88 -364.49,516.14 -512.04,629.4l-1699.97 -2225.63c-203.78,-291.98 -490.2,-634.61 -727.67,-955.96 -155.59,-210.55 -319.23,-431.3 -482.54,-635.27 -326.73,-408.13 -659.86,-857.04 -972.08,-1278.66 -315.31,-425.8 -646.61,-845.04 -965.86,-1269.15 -317.67,-421.98 -643.74,-866.25 -972,-1277.89 -164.2,-205.91 -321.67,-425.7 -482.42,-634.95 -183.71,-239.17 -1394.18,-1806.18 -1450.34,-1928.18zm2845.15 -3235.55c-40.2,14.59 -2077.55,1990.86 -2438.02,2337.37 -153.34,147.38 -325.64,332.57 -484.14,465.76 -143.56,120.64 -407.42,278.86 -338.15,500.02 44.54,142.21 305.71,400.36 408.39,550.07 500.99,730.39 1106.93,1461.88 1644.16,2174.64 549.14,728.56 1106.08,1452.27 1658.16,2178.69l3721.78 4893.21c134.49,175.57 298.32,353.9 417.61,534 85.55,129.15 237.23,457.65 427.24,308.13 109.67,-86.32 299.53,-411.11 416.52,-550.98 278.71,-333.2 565.37,-731.12 828.44,-1081.87 274.68,-366.23 558.92,-725.83 834.6,-1091.78 1634.91,-2170.36 3311.61,-4337.66 4967.2,-6497.04 138.22,-180.29 276.45,-360.37 413.4,-541.6 129.53,-171.44 272.56,-384.32 408.12,-542.61 122.73,-143.31 357.49,-339.36 255.97,-546.74 -65.88,-134.61 -363.19,-355.25 -488.3,-488.29 -606.74,-645.14 -1307.62,-1251.87 -1932.51,-1887.58 -164.69,-167.56 -311.17,-304.91 -474.8,-480.92 -211.02,-227.02 -431.44,-241.68 -727.66,-231.65 -644.55,21.86 -1275.76,-4.78 -1919.67,-1.14 -1258.67,7.12 -2517.08,-7.87 -3775.67,-10.57 -401.99,-0.86 -3722.2,-25.59 -3822.67,10.88z"/>
   </g>
  </g>
 </g>
</svg>
