<?xml version="1.0" encoding="UTF-8"?>
<!DOCTYPE svg PUBLIC "-//W3C//DTD SVG 1.1//EN" "http://www.w3.org/Graphics/SVG/1.1/DTD/svg11.dtd">
<!-- Creator: CorelDRAW 2017 -->
<svg xmlns="http://www.w3.org/2000/svg" xml:space="preserve" width="320mm" height="150mm" version="1.1" style="shape-rendering:geometricPrecision; text-rendering:geometricPrecision; image-rendering:optimizeQuality; fill-rule:evenodd; clip-rule:evenodd"
viewBox="0 0 32000 15000"
 xmlns:xlink="http://www.w3.org/1999/xlink">
 <defs>
  <style type="text/css">
   <![CDATA[
    .fil0 {fill:#D7B56D}
   ]]>
  </style>
 </defs>
 <g id="Слой_x0020_1">
  <metadata id="CorelCorpID_0Corel-Layer"/>
  <g id="_2736993864464">
   <g id="_1861758865952">
    <path class="fil0" d="M24096.47 11920.74c-400.21,564.42 -610.75,1110.56 -1108.24,1655.62 -227.66,249.42 -426.18,454.22 -686.72,672.26 -214.33,179.46 -792.98,446.34 -1007.57,151.42 -347.58,-477.79 673.88,-1353.42 1019.7,-1599.96 176.04,-125.44 1653.07,-876.87 1782.83,-879.34zm887.3 -1483.15l0 0 11.79 -35.88 11.97 4.99 -23.76 30.89zm-4537.46 -1247.23l0 0 6008.71 -1044.96c53.67,-192.74 -235.5,-291.61 -388.38,-279.79 -365.94,28.3 -1012.83,570.73 -1260.45,810.02 -374.91,362.33 -1062.52,1179.07 -989.66,1726.83 108.51,816.02 1315.28,-469.35 1492.56,-650.64 302.24,-309.11 376.11,-412.97 609.69,-772.11 54.92,-84.42 530.12,-812.31 536.24,-834.31l-6008.71 1044.96zm2100.31 -1078.66l0 0c-88.77,-318.98 -538.79,-427.61 -816.1,-400.7 -561.57,54.47 -749.17,360.05 -891.1,423.18 -174.31,-456.09 -462.66,-527.6 -913.01,-346.79 -298.71,119.89 -563.86,536.95 -755.52,789.9 -399.64,527.22 -912.94,1324.86 -1337.73,1785.31 -135.69,147.1 -678.31,738.58 -881.68,642.64 -303.7,-143.23 128.11,-914.59 236.4,-1108.39 335.91,-600.94 855.03,-1417.9 1111.21,-2019l-727.89 -14.64c-238.66,444.95 -468.71,895.68 -705.71,1340.62 -238.99,448.63 -620.35,971.31 -553.76,1480.22 91.88,702.37 645.65,805.4 1178.95,414.84 464.02,-339.73 641.19,-683.37 979.98,-1121 270.41,-349.27 1093.15,-1538.21 1344.57,-1782.38 286.69,-278.32 540.13,-143.42 316.46,247.29 -144.44,252.31 -1525.15,2593.15 -1504.24,2631.66 21.85,15.39 518.74,15.65 592.8,16.14 135.17,0.86 333.8,-448.25 421.71,-570.13 98.68,-136.82 796.96,-1254.1 804.35,-1330.11 161.07,-260.09 239.78,-578.05 472.99,-785.25 218.38,-194.02 548.88,-479.97 862.57,-448.51 426.29,42.79 -5.11,675.9 -117.86,833.97 -214.89,301.07 -356.74,463.26 -533.61,804.8 -309.71,597.94 -401.74,1548.64 515.52,1536.59 491.97,-6.45 1166.19,-808.25 1512.83,-1149.37 36.45,59.11 0.15,328.36 27.63,410.41 90.72,270.86 380.31,597 654.21,648.99 249.05,47.26 483.68,-43.28 681.27,-185.88 97.55,-70.34 417.47,-398.59 461.91,-418.52 -139.71,262.49 -323.93,489.69 -459.47,743.47 -207.39,388.42 -368.94,375.84 -741.67,543.37 -590.58,265.45 -1186.16,544 -1695.63,949.69 -398.56,317.28 -1149.46,975.55 -1154.34,1515.8 -3.68,403.39 289.4,618.7 671.07,615.17 418.03,-3.87 623.24,-148.38 953.33,-368.79 493.81,-329.79 1050.17,-813.06 1417.6,-1280.3 383.02,-487.1 741.03,-1128.47 1122.84,-1583.97 143.2,-170.86 579.48,-376.48 798.58,-526.14 723.23,-494.04 1548.68,-1317.38 1940.4,-2091.48 -357.08,118.65 -1374.93,1636.97 -2279.95,1910.15l1959.36 -3151.9 -777.89 -27.93 -112.42 181.03c-96.65,-19.74 -139.11,-265.71 -548.13,-247.69 -237.45,10.43 -442.4,43.76 -668.1,115.76 -749.55,239.02 -1333.6,609.99 -1839.32,1222.16 -305.17,369.46 -210.73,523.81 -613.93,913.35 -268.08,258.96 -581.02,509.32 -890.87,716.44 -139.56,93.28 -352.54,294.81 -511.05,168.8 -168.99,-134.26 -26.01,-358.28 53.26,-508.19 176.04,-333.02 373.26,-666.9 602.86,-965.46 215.34,-279.98 497.31,-821.65 336.32,-1169.23z"/>
    <path class="fil0" d="M7384.47 11887.03l33.75 -1404.51 5445.26 -2305.25 -7.51 14.98 7.51 -14.98 -5479.01 3709.76zm7581.08 -3853.97l0 0 -7547.33 2449.46c-41.48,-248.41 -533.08,-498.66 -576.89,-296.53l-14.07 -61.82c-431.66,87.31 -577.83,664.27 -373.93,1031.48 212.68,382.97 493.85,638.59 931.14,731.38 750.15,261.74 1713.47,153.45 2450.26,-135.2 697.11,-273.07 1322.71,-820.64 1802.31,-1385.74 509.58,-600.39 846.46,-1308.01 1173.14,-2016.34 168.94,-366.39 250.77,-882.35 692.94,-836.48 413.19,42.82 896.84,52.77 910.99,587.2 18.02,683.83 -612.35,1418.85 -195.15,2682.56 138.4,419.05 260.43,698.84 674.93,905.96 347.43,173.57 872.03,169.29 1195.51,-52.4 28.83,-19.78 361.09,-276.22 219.77,-306.66 -82.73,-17.83 -452.64,148.3 -607.29,164.4 -405.76,42.23 -872.96,-172.62 -939.18,-611.64 -146.01,-968.42 415.56,-1979.29 202.85,-2849.63l-424.49 -625.31 -24.74 18.55c868.88,-247.06 1556.12,-866.81 2178.94,-1494.26 317.07,-319.47 576.59,-673.58 873.31,-980.21 169.51,-175.1 424.23,-272.92 667.76,-236.88 333.65,49.39 382.11,247.92 581.46,351.78 -81.26,-719.52 -932.95,-749.85 -1434.42,-446.3 -386.13,233.74 -1772.13,1858.05 -2372.22,2278.42 -829.8,581.16 -727.96,381.39 -1696.57,381.39 187.49,-429.7 694.86,-1426.42 969.47,-1782.94 199.13,-258.51 359.48,-557.18 598.84,-782.95 106.04,-100.04 845.34,-475.24 846.36,-479.07 -128.52,-132.58 -578.46,61.48 -718.7,137 -772.37,416.05 -1124.68,1101.53 -1587.19,1814.55 -597.57,921.39 -1176.41,1856.55 -1710.99,2816.41 -492.28,883.85 -1179.48,1959.18 -2112.43,2414.78 -546.03,266.62 -1315.62,382.98 -1912.36,278.33 -273,-47.86 -562.66,-181.86 -777.37,-357.49 -165.04,-135.02 -442.13,-588.26 -208.4,-740.92 49.93,83.78 8,176.35 169.03,297.44 164.82,124.05 382.86,67.79 533.83,-99.89 80.02,-88.88 42.45,-299.94 13.55,-312.97l7547.33 -2449.46z"/>
    <path class="fil0" d="M5497.63 3381.34c15.43,234.86 267.29,445.44 479.63,496.86 188.73,45.68 41.44,151.91 263.99,123.91 249.84,-31.46 88.7,2.44 206,133.66 38.96,18.43 480.12,-80.14 386.65,121.73l-428.54 49.28 65.65 159.23c110.16,12.54 688.25,-185.09 724.29,142.49 36.29,330.27 -527.79,-30.78 -629.44,21.2l37.69 350.17c14.33,0.27 320.48,-97.18 320.48,109.35 -83.03,33.48 -200.45,2.77 -292.82,-13.67 -157.91,-28.11 -53.75,-419.98 -151.23,-482.78 -9.5,-6.12 -253.29,-39.9 -285.99,-31.64l28.91 341.42 -256.15 -280.77c-46.5,61.67 -8.82,209.6 -189.55,230.62 -299.76,34.87 -689.61,-138.84 -838.25,-440.25 -184.97,-375.13 209.26,-1082.34 558.68,-1030.81zm1963.19 85.55l0 0c57.73,-215.16 -50.48,-235.54 -223.97,-256.9 -390.22,-48 -186.4,-56.86 -260.16,-221.76 -51.05,-114.03 -298.52,27.18 -294.17,-157.57 5.86,-246.95 -77.21,-257.05 -278.96,-148.87 -251.04,134.57 -596.9,435.87 -377.24,743.7 136.44,191.2 243.98,102.77 384.22,127.09 77.73,13.48 66.77,142.9 123.34,182.91 29.5,20.87 135.84,-22.74 183.59,-11.86 89.44,124.06 43.88,331.48 270.14,342.51l-28.79 -377 198.6 33.18c-31.57,190.45 -36.15,421.56 111.75,561.79 150.1,142.26 282.56,-69.44 375.91,-181.37 105.74,-126.72 340.23,-274.05 184.98,-380.01 -158.25,-108.03 -496.3,18.39 -570.05,-1.28l-66.29 -221.16c32.99,-22.74 215.79,-26.65 267.1,-33.4zm609.58 -1102.87l0 0c2.93,-49.18 51.31,-166.4 47.45,-174.09 -9.99,-19.52 -155.48,-66.93 -187.49,-106.53 -45.91,-56.75 70.3,-226.72 -104.02,-391.23 -294.39,-277.88 -619.86,80.32 -780.62,316.5 -65.17,95.79 -217.49,376.63 -15.88,407.71 299.46,46.17 95.98,110.62 196.95,288.38 77.92,137.2 162.75,-131.41 216.8,275.29 51.09,384.4 168.54,207.91 264.14,276.75 4.06,-47.48 15.77,-273.26 31.01,-299.46l244.88 71.81c-11.71,178.93 -177.7,460.45 88.88,630.03l297.96 -252.84 -264.36 -350.84c129.08,-97.3 218.45,-38.4 297.92,92.41 85.43,140.68 220.26,152.96 252.09,-4.54 87.61,-432.98 -397.05,-283.28 -554.18,-355.5 -6.19,-39.45 -41.55,-179.76 -22.9,-206.9l340.94 49.74c29.8,-145.3 -228.14,-217.3 -349.57,-266.69zm-34.49 -1083.85l0 0 -237.91 -133.77c-17.19,-98.12 265.57,-391.8 365,-444.27 155.74,-82.17 502.83,-119.07 666.52,-36.19 180.4,91.33 312.3,283.88 374.04,468.56 30.97,92.71 51.28,251.86 40.88,349.08 -24.7,230.13 -181.33,131.75 -241.32,207.08l321.31 256.26 -366.69 -54.46 28.16 309.59c138.24,11.3 336.69,52.7 416.53,69.67 86.03,18.24 111.48,355.27 59.87,390.52 -146.65,82.27 -107.84,-301.53 -113.29,-313.65l-360.64 -67.23 142.38 578.65c-132.47,96.28 -284.68,-12.57 -346.12,-171.42 -31.94,-82.69 45.49,-402.69 71.17,-509.51 -49.48,-20.16 -141.33,-76.2 -190.2,-59.23l-22.26 397.27c-103.29,48.65 -194.77,-126.15 -157.98,-242.14 64.52,-203.82 -11.86,-162.68 -150.82,-232.98 164.03,-240.01 -64.19,-299.2 -74.73,-376.45 -19.3,-141.92 -88.85,-286.69 -223.9,-385.38zm1606.03 640.47l0 0c-6.79,-60.01 -206.18,-18.95 -247.28,-149.2 -13.33,-42.08 290.64,-442.73 -38.81,-946.61 -225.78,-345.22 -691.64,-639.72 -1110.98,-470.47 -195.04,78.71 -335.87,203.03 -472.99,358.35 -163.58,185.35 -162.53,380.99 -357.83,449.79 -576.36,203.11 -632.02,833.48 -703.42,892.97 -16.25,-5.93 -221.53,-219.84 -345.7,-279.83 -70.38,-33.97 -319.91,-92.56 -329.15,-170.56 43.84,-58.48 300.74,-88.36 165.5,-264.17 -47.71,-62.09 -154.46,-27.7 -185.84,-7.51 -89.75,57.88 -57.21,118.27 -87.54,168.08 -16.55,-106.9 -15.16,-168.49 -116.77,-218.75 -38.36,-19 -158.51,-48.99 -211.59,-13.82 -23.76,22.04 -26.61,135.54 -13.21,197.7 26.27,121.58 125.71,112.05 148.15,162.87 -114.14,48.42 -163.35,141.62 -79.61,268.68 301.9,0.26 136.89,-95.68 234.94,-169.51l391.68 666.78 24.81 -14.11c-6.76,6.79 -385.15,162.12 -526.77,293.27 -102.18,94.62 -297.4,430.49 -356.89,452 -355.95,128.75 -709.16,401.74 -809.65,784.19 -166.73,634.84 540.52,1326.93 1175.66,1188.31 58.67,-12.77 262.56,-105.85 263.65,-105.63 139.03,27.74 82.54,240.57 158.25,267.59l52.4 -146.95 44.4 207.5 17.23 -35.85 901.38 321.64c58.26,-29.05 619.3,-849.95 741.56,-991.09 299.27,-345.59 562.5,-602.74 903.29,-905.32 320.1,-284.18 729.32,-483.27 1020.52,-733.22 91.77,-78.86 -122.55,-507.78 -133.21,-600.31 -67.23,-584.43 -146.84,-271.72 -292.97,-397.72l176.79 -59.09z"/>
    <path class="fil0" d="M11045.89 6999.33c-323.9,139.11 -403.17,383.57 -681.72,576.4 -241.1,166.95 -591.53,329.22 -865.16,438.3 -727.82,290.15 -1323.32,61.63 -1705.1,-615.32 -664.98,-1178.96 485.34,-2761.12 1461.87,-3403.73 628.12,-413.35 1097.73,-753.72 1899.19,-613.11 347.46,60.92 663.14,184.37 714.11,576.21 44.44,341.35 -232.94,617.27 -310.42,979.42 -418.29,1954.51 1437.47,2042.69 2182.66,275.32 -371.34,207.31 -1213.97,1379.28 -1620.82,836.11 -355.65,-474.75 485.14,-1469.64 124.65,-2272.49 -319.13,-710.58 -1180.31,-823.68 -1867.96,-690.88 -620.01,119.74 -1294.3,595.06 -1754.71,1017.41 -480.65,440.85 -932.5,946.61 -1142.97,1574.5 -221.04,659.28 -240.64,1609.49 186.63,2194.04 490.93,671.55 1267.81,724.21 2010.07,486.2 676.28,-216.81 1106.22,-721.66 1369.68,-1358.38z"/>
    <path class="fil0" d="M18267.48 6437.53c-591.3,240.98 -467.02,979.87 45.8,872.82 644.37,-134.49 421.97,-1063.42 -45.8,-872.82z"/>
    <polygon class="fil0" points="9641.94,1920.64 9644.87,1930.93 9653.13,1924.44 "/>
   </g>
  </g>
 </g>
</svg>
