<?xml version="1.0" encoding="UTF-8"?>
<!DOCTYPE svg PUBLIC "-//W3C//DTD SVG 1.1//EN" "http://www.w3.org/Graphics/SVG/1.1/DTD/svg11.dtd">
<!-- Creator: CorelDRAW 2017 -->
<svg xmlns="http://www.w3.org/2000/svg" xml:space="preserve" width="320mm" height="150mm" version="1.1" style="shape-rendering:geometricPrecision; text-rendering:geometricPrecision; image-rendering:optimizeQuality; fill-rule:evenodd; clip-rule:evenodd"
viewBox="0 0 32000 15000"
 xmlns:xlink="http://www.w3.org/1999/xlink">
 <defs>
  <style type="text/css">
   <![CDATA[
    .fil0 {fill:#D7B56D}
   ]]>
  </style>
 </defs>
 <g id="Слой_x0020_1">
  <metadata id="CorelCorpID_0Corel-Layer"/>
  <g id="_2737101277744">
   <g id="_1599870596672">
    <path class="fil0" d="M27233.2 4954.93c92.59,-36 533.85,-97.69 666.38,-121.35 147.72,-26.34 627.08,23.91 427.2,285.03 -75.53,98.67 -515.58,207.83 -631.64,176.41 -58.22,-15.76 -385.73,-316.09 -461.94,-340.09zm1040.29 -313.99c144.93,3.74 566.15,-77.52 748.86,-80.88 199.79,-3.66 551.08,69.03 610.67,291.37 59.96,223.72 -214.97,430.61 -399.35,488.41 -129.37,40.58 -705.2,45.84 -842.37,24.13 47.42,-59.37 62.32,-7.03 166.37,-162.2 42.59,-63.54 59.4,-169.69 40.79,-240.4 -21.73,-82.6 -53.74,-156.53 -118.24,-209.47 -35.02,-28.72 -163.54,-123.23 -206.73,-110.96zm1139.49 -257.48c234.74,-151.29 801.91,-47.61 1084.18,-26.07 187.88,14.32 324.48,32.38 473.22,159.12 138.13,117.7 203.67,278.26 175.73,459.35 -50.43,326.65 -470.84,448.14 -741.09,540.77 -155.76,53.41 -391.72,85.92 -556.13,83.71 -81.17,-1.09 -551.32,5.92 -587.06,-12.38 0.91,-1.71 526.1,-193.2 606.31,-553.37 79.71,-357.97 -138.4,-556.97 -455.16,-651.13zm-2798.98 220.74c1.6,-5.65 237.51,-318.69 257.21,-339.89 106.15,-114.27 179.91,-201.88 294.85,-314.48 115.03,-112.7 205.33,-180.62 337.75,-272.24 100.3,-69.43 288.88,-248.07 377.02,-65.18 148.06,307.3 -639.92,786.88 -888.25,921.51 -131.14,71.09 -247.43,189.28 -378.58,70.28zm720.93 -2440.05c30.07,-33.54 91.81,-93.65 129.99,-121.33 39.62,-28.72 94.44,47.31 124.45,79.13 74.53,79.07 284.28,341.67 189.15,452.13 -64.7,75.08 -294.1,363.22 -340.41,375.92 -14.78,-22.51 10.84,-299.37 -4.16,-406.68 -7.81,-56 -7.13,-130.93 -31.77,-199.37 -18.26,-50.82 -53.94,-126.81 -67.25,-179.8zm1537.03 -335.59c196.27,-152.01 437.14,-332.41 701.4,-320.01 287.7,13.49 488.11,291.61 437.18,570.07 -60.87,332.77 -645.03,1118.72 -870.29,1180.96 -59.44,-89.58 -146.24,-914.41 -164.83,-1104.66 -11.51,-117.71 -11.13,-245.41 -103.46,-326.36zm-7139.01 1575.36c15.25,7.07 440.61,45.86 492.77,-9.36 -6.37,-90.01 -287.79,-454.52 -257.43,-532.5 29.52,-53.61 272.34,-461.38 260.48,-493.17 -22.58,-14.79 -566.28,88.49 -613.91,97.91 -57.57,-62.85 -364.89,-442.1 -421.39,-445 -37.38,95.76 -106.42,575.9 -128.06,598.5 -63.73,66.55 -488.87,212.59 -520.48,292.58 21.73,45.49 498.56,258.81 568.86,292.9 42.3,101.13 28.83,513.73 86.45,555.28 74.96,1.27 222.09,-275.62 318.8,-308.17 67.13,151.15 159.43,306.68 219.23,455.62 51.92,129.34 153.1,337.61 218.73,461.27 73.85,139.16 147.88,327.62 224.19,453.96 50.85,84.2 186.25,363.8 223.54,456.75 30.75,76.69 62.07,159.29 -4.71,222.94 -63.32,60.4 -126.73,83.69 -129.11,213.37 -2.49,134.85 135.67,360.81 231.58,448.87 61.63,56.61 140.82,27.87 222.54,50.84 178.77,50.27 81.13,-46.79 173.68,152.93 72.51,156.48 138.25,316.67 216.79,470.66l210.88 -47.67c23.73,-81.88 -247.05,-494.77 -220.96,-519.43 10.42,-9.35 1051.91,382.07 1197.04,426.84 159.67,49.23 335.43,32.71 474.15,-47.51 75.23,-43.5 575.97,-538.05 555.96,-567.12 43.41,97.11 -221.9,702.2 -307.88,863.02 -76.76,143.44 -198.47,325.91 -298.73,453.97 -45.45,59.49 -252.46,285.76 -269.33,319.2 -14.47,28.64 -146.05,66.08 93.73,116.15 306.54,64.05 319.14,8.31 546.17,-69.02 -0.46,3.54 -112.63,159.65 -130.77,178.98 -50.49,53.88 -181.47,205.06 -193.58,267.24 30.26,40.52 224.73,68.02 278.51,73.83 145.67,15.72 307.93,-33.11 444,-77.17 99.35,-32.15 116.74,-86.49 217.84,-114.96 37.96,399.15 83.15,864.63 152.08,1256.63 88.49,503.26 407.32,2083.78 350.84,2552.39 -92.53,767.81 -230.27,640.08 -288.04,800.85 -54.68,152.12 -40.87,163.7 102.57,181.91 104.97,13.33 168.55,-35.49 264.12,-80.55 115.64,-54.57 103.42,-360.9 115.79,-516.57 3.17,-39.89 158.9,-131.06 196.23,-166.9 106.31,-102.08 -47.19,-480.88 -50.36,-650.35 -3.65,-194.52 19.68,-406.44 21.44,-601.01 4.06,-446.45 9.47,-803.19 -47.71,-1252.43 -48.24,-378.99 -143.64,-938.48 -122.78,-1306 24.71,7.8 65.81,37.25 111.12,52.63 59.37,18.26 171.33,62.94 227.17,69.55 40.29,4.75 120.55,14.68 165.1,7.11 18.43,-76.23 -74.51,-185.92 -69.04,-274.15 190.33,123.25 372.8,267.49 562.32,396.01 178.04,120.71 336.84,286.42 566.93,297.12 30.57,1.41 278.27,-109.44 328.54,-130.19 339.75,-140.32 580.28,-386.51 909.17,-548.63 190.22,-93.72 460.8,-227.53 635.88,-328.91 200.16,-115.9 478.52,-224.86 693.29,-101.09 90.64,52.27 211.46,96.06 307.74,153.14 83.4,49.43 252.36,171.63 308.88,26.23 46.69,-120.09 -56.62,-276 -179.64,-370.99 -268.72,-207.49 -143.37,84.91 -393.56,-268.3 -28.44,-40.2 -58.54,-73 -90.44,-84.99 -132.75,-49.92 -261.57,79.98 -352.69,124.09 -257.91,124.8 -447.44,180.11 -711.55,272.72 -141.26,49.53 -488.58,146.09 -759.25,243.16 -58.73,21.08 -435.45,219.2 -483.02,266.89 -17.86,17.92 -124.28,104.74 -134.01,106.46l-429.38 -450.78c1.09,-0.83 538.7,-58.35 689.11,-127.75 65.54,-30.25 119.9,-56.61 126.74,-62.74 -8.88,-102.94 -78.99,-81.43 -127.19,-105.03 -96.96,-47.49 -381.48,-206.85 -417.25,-282.01 39.22,2.85 78.5,44.84 251.92,-4.43 159.52,-45.33 290.83,-168.24 375.72,-307.92 53.3,-87.74 88.13,-176.74 44.92,-198.09 -121.02,-15.14 -263.39,-14.03 -394.77,-29.35 -290.61,-66.41 -567.41,-195.22 -813.44,-363.71 -173.7,-118.95 -283.68,-269.11 -417.1,-418.08 -72.53,-80.99 -286.43,-429.83 -287.99,-532.35 70.9,2.43 309.76,112.72 397.12,138.83 109.56,32.75 242.54,117.26 347.6,161.37 292,122.58 1161.21,700.57 1318.21,965.12 56.37,95 163.12,248.46 230.11,339.46 86.85,117.96 126.12,331.44 307.12,221.63 10.58,-85.29 -71.17,-183.31 -71.73,-261.9 79.61,-25.31 161.7,6.59 246.52,5.52 146.58,-1.84 339.35,-54.85 371.46,-223.16 17.9,-93.93 -211.48,-171.29 -269.32,-163.35 -114.05,15.63 -239.7,38.9 -355.56,55.22l-966.24 -872.78c268.41,94.88 567.48,101.45 855.52,105.5 300.55,4.21 653.22,34.54 947.92,14.56 453.72,-30.76 1227.23,-247.8 1356.62,-747.41 75.03,-289.69 -25.34,-549.14 -239.84,-748.3 -263.95,-245.12 -662.75,-213.39 -1030.04,-248.42 -118.44,-11.31 -59.58,-11.64 -136.19,-55.49 -188.27,-107.69 -275.57,59.26 -616.21,-345.26 -235.75,-279.96 120.93,-258.18 533.4,-828.81 134.82,-186.49 306.96,-495.31 360.34,-717.51 67.59,-281.36 -33.44,-558.85 -263.84,-733.79 -281.29,-213.57 -516.28,-145.65 -805.51,-14.27 -341.41,155.1 -311.73,305.53 -699.84,171.16 -137.5,-47.6 -598.19,-53.68 -743.45,-21.65 -180.96,39.9 -210.03,46.69 -397.89,57.11 -110.78,6.14 -289.46,61.74 -378.52,50.78 -129.19,-15.92 -241.17,-195.09 -641.32,-286.01 -390.36,-88.7 -1031.59,-58.95 -1388.51,125.05 -160.62,82.8 -475.67,320.45 -549.73,485.89 -142.56,318.58 155.83,487 183.97,748.82 34.91,325.11 -296.2,169.87 -172.55,673.37 78.52,319.74 6.59,565.5 411.68,647.51 123.39,25 268.52,49.32 393.44,31.1 128.85,-18.83 289.32,-92.36 416.62,-37.13 263.33,114.26 15.52,493.48 -69.15,651.48 -216.01,403.03 -542.3,813.83 -815.47,1183.79 -210.71,285.42 -215.83,372.49 -593.1,291.05 -295.12,-63.69 -441.43,-110.63 -724.02,-207.87 -397,-136.61 -286.95,-268.58 -570.44,-447.09 -137.28,-86.46 -164.91,-133.4 -225.69,-282.58 -54.43,-133.58 -111.51,-240.89 -174.16,-368.79 -233.32,-476.4 -477.68,-967.32 -697.32,-1448.87z"/>
    <path class="fil0" d="M4492.81 6660.73c-252.44,266.71 -729.99,514.9 -1081.92,580.5 -167.69,31.26 -362.26,88.1 -535.34,69.89 5.64,-30.5 161.03,-145.33 200.39,-171.23 27.94,-18.39 76.43,-60 103.84,-82.28 99.71,-80.95 46.3,-26.34 102.32,-72.98 148.27,-123.4 231.2,-150.92 336.95,-233.96 80.17,-62.94 256.38,-165.68 354.67,-226.46 262.82,-162.5 470.22,-182.55 826.8,-190.1 -97.93,133.67 -197.78,210.52 -307.71,326.62zm-147.17 -884.13c-2.84,4.96 -392.05,276.57 -436.1,295.43 -48.34,20.7 -120.34,14.51 -277.83,-66.5 -56.99,-29.32 -215.88,-103.22 -255.58,-145.52 -66.54,-70.97 -62.09,-217.33 31.04,-264.43 79.97,-40.43 256.54,-19.53 344.9,-16.08 62.18,2.45 562.19,166.97 593.57,197.1zm-1048.85 282.94c-44.62,22.93 -673.86,-155.56 -759.01,-198.23 -110.74,-55.51 -198.77,-120.22 -292.8,-198.55 -115.3,-96.08 -190.95,-152.14 -166.69,-317.75 51.79,-353.81 435.6,-244.65 675.95,-228.15 97.58,6.7 719.88,155.5 754.65,216.23 -66.85,34.74 -310.61,-4.69 -395.55,271.86 -83.62,272.21 161.54,400.67 183.45,454.59zm-725.73 76.43c-239.39,2.4 -840.94,-182.56 -1091.64,-260.62 -156.53,-48.73 -360.75,-87.93 -488.16,-188.67 -124.45,-98.36 -265.6,-204.87 -328.52,-358.06 -66.43,-161.74 -22.68,-388.05 88.36,-520.58 287.02,-342.65 1242.72,-107.57 1570.28,32.87 -135.56,44.12 -234.43,35.01 -388.09,243.09 -118.75,160.87 -115.03,311.25 -68.26,496.68 54.57,216.4 498.32,491.63 706.03,555.29zm2173.49 -618.67c-201.07,-142.6 -371.14,-339.87 -510.49,-533.51 -50.53,-70.2 -154.01,-260.28 -182.57,-338.96 -58.83,-162.07 -7.33,-290.08 180.26,-289.62 125.09,0.32 585.87,574.99 670.09,885.52 18.1,66.7 73.34,136.29 3.52,178.26 -46.68,28.07 -115.43,83.32 -160.81,98.31zm-343.14 -1350.03c-69.92,12.8 -83.77,-58.29 -211.96,-52.78 -151.24,6.56 -311.06,142.01 -356.36,241.77 -57.73,127.19 -37.5,92.04 -40.3,225.15 -156,-193.62 -263.35,-383.79 -401.76,-584.76 -121.25,-176.06 -216.26,-599.55 30.45,-708.59 438.36,-193.76 570.76,263.52 812.79,572.65 108.5,138.56 136.22,293.27 167.14,306.56zm-2026.18 -1357.53c159.45,33.61 488.88,15.16 645.88,-27.59 101.01,-27.51 479.66,-157.75 523.62,-225.21 174.79,192.87 399.63,416.59 498.59,663.51 -5.6,-35.85 -150.51,-120.36 -187.21,-142.04 -208.54,-123.34 -587.46,-57.31 -736.51,151.25 -72.65,101.66 -62.41,137.3 -81.93,262.42 -44.81,287.14 73.87,510.64 216.44,748.84 2.94,-8 -876.31,-1144.03 -878.88,-1431.18zm1419.52 -369.03c65.05,-36.8 47,-30.5 124.65,-42.13 128.63,-19.3 349.91,-28.23 458.39,43.15 -28.43,127.26 -20.88,2.49 5.04,128.97 22.79,111.16 74.33,106.84 91.9,166.73 -17.75,23.91 -35.14,26.91 -68.59,77.18 -38.01,57.17 -93.36,265.27 -138.08,286.79 -7.52,-6.14 -97.16,-154.19 -104.48,-171 -46.84,-107.61 -121.87,-174.05 -180.31,-254.22 -26.67,-36.58 -27.63,-49.13 -60.11,-78.27 -32.39,-29.03 -102.48,-120.63 -128.41,-157.2zm-1665.72 321.01c15.63,179.06 41.54,214.03 115.37,374.21 79.92,173.32 246.29,468.28 353.02,628.62 293.72,441.3 530.01,716.21 895.66,1093.47 72.85,75.17 188.64,162.75 253.89,238.97 -42.95,1.27 -1448.81,-544.37 -1719.91,-601.97 -323.99,-68.83 -654.84,-174.38 -985.24,-83.55 -276.56,76.03 -570.47,242.89 -630.54,546.52 -70.66,357.1 46.35,574.6 304.51,807.45 192.98,174.05 571.94,279.63 824.43,356.81 663.01,202.62 764.67,205.36 1406.31,285.68 80.28,10.04 441.7,13.62 478.27,28.97 -208.44,172.67 -385.81,314.55 -593.33,499.67 -62.53,55.79 -361.1,373.37 -375.53,382.05 -121.87,73.11 -114.68,99.14 -274.53,58.29 -89.49,-22.85 -176.23,-102.66 -262.95,-138.44 -155.3,-64.07 -175.34,-18 -254.11,93.49 16.53,113.76 94.82,191.99 188.6,258.54 43.72,31.03 291.71,113.09 347.17,121.04 -32.87,35.4 -18.35,3.43 -41.59,49.14 -14.14,27.82 -245.77,266.88 -20.82,232.98 4.37,-0.67 256.2,-255.29 271.17,-281.72 48.5,-85.69 361.32,-323.39 409.94,-367.72 -24.79,130.33 53.02,250.69 165.84,315.14 30.04,17.18 102.73,44.57 120.91,63.8 -13.29,21.2 -61.35,38.59 -79.48,49.16 -70.32,40.94 2.65,13.98 -69.14,37.14 -65.7,21.21 -190.27,23.53 -220.92,37.11 -55.7,77.43 122.38,215.53 172.01,244.36 48.02,27.89 319.09,102.81 332.56,45.37 18.95,24.49 -7.12,64.43 -27.94,96.24 -29.79,45.46 2.62,2.49 -38.58,30.03l-28.16 21.27c-46.82,31.43 -45.02,42.38 -114.75,65.07 -34.82,11.33 -77.1,18.52 -108.6,36.62 3.63,151.15 344.66,223.06 509.11,195.2 65.52,-11.1 142.58,-59.12 188.08,-71.84 -1.58,90.99 -205.4,210.5 -207.02,243.78 49.35,140.02 419.12,105.51 528.36,111.2 -321.23,913.83 -263.12,2365.25 -334.36,3376.1 -3.05,43.19 -29.44,314.04 -28.57,322.22 17.14,161.54 -112.11,229.33 -70.86,351.46 45.3,134.12 135.22,118.77 204.06,247.61 57.22,107.09 -1.65,198.47 16.28,290.36 54.18,277.52 188.23,351.1 461.06,291.68 16.03,-162.69 -189.16,-348.43 -243.66,-574.78 -13.47,-56.02 1.17,-37.51 -25.74,-95.8 -9.29,-20.08 -2.61,-74.45 -7.99,-106.59 -36.69,-220.23 31.19,-433.8 54.38,-651.8 48.8,-459.95 154.26,-1166.11 284.97,-1607.06 45.42,-153.39 64.77,-285.18 119.53,-442.05 14,10.31 -24.53,483.78 -23.98,527.05 0.32,25.3 0.89,51.34 1.63,77.81 13.85,493.95 29.63,971.45 88.52,1464.47 8.41,70.44 -15.05,325.64 -41.23,405.69 -20.55,62.96 -4.06,74.21 -13.12,131.65 -38.53,244.53 152.3,210.89 244.76,397.33 33.13,66.81 -9.03,150.78 18.01,231.29 28.05,83.53 -1.06,115.09 52.95,216.35 94.86,177.83 329.16,167.53 443.25,42.87 2.65,-39.47 -123.78,-170.15 -164.14,-222.51 -145.02,-188.02 -225.04,-603.02 -209.21,-819.75 40.68,-557.82 27.3,-1030.24 114.79,-1609.39 84.29,-557.82 180.68,-1134.37 187.45,-1282.64l34.35 -622.34c329.23,138.99 398.29,130.79 392.84,81.43 -14.76,-133.82 -100.17,-63.82 -35.62,-306.85 24.19,2.52 141.32,81.47 179.43,99.47 205.98,97.18 639.56,102.46 629.71,-9.34 -2.64,-5.7 -197,-252.89 -230.51,-303.5 -230.93,-348.81 -375.66,-734.12 -450.96,-1144.56 -46.24,-252.1 -58.52,-545.33 -32.48,-799.35 33.38,-144.67 112.79,-727.44 156.36,-818.72 842.94,82.77 1179.27,156.66 2067.47,54.79 157.63,-18.08 341.54,-9.96 467.24,-116.4 174.27,-147.6 561.18,-454.21 752.47,-549.13 217.88,-108.12 208.67,-198.82 476.54,-170.29 117.88,12.57 173.49,81.05 223.83,83.44 39.8,1.87 76.27,-28.79 111.76,-43.91 122.78,-52.25 207.18,30.32 253.86,-198.94 24.94,-122.45 76.45,-116.63 178.71,-152.64 112.87,-39.75 59.08,-111.66 140.81,-187.34 55.32,-51.22 114.39,-103.39 171.87,-152.23 112.36,-95.42 245.52,-208.65 350.95,-309.61 65.9,-63.14 976.4,-882.29 1040.51,-925.9 162.94,-110.89 224.08,-197.79 346.72,-286.61 -11.33,9.46 152.44,418.34 196.7,444.99 82.82,-37.94 246.88,-333.1 304.49,-434.93l592.49 14.36c22.08,-62.72 -108.42,-178.55 -148.1,-228.02 -193.09,-240.73 -241.04,-226.82 -195.29,-341.18 19.01,-47.56 101.94,-456.19 100.9,-459.15 -37.23,-43.12 -504.68,150.94 -587.03,115.16 -105.24,-45.77 -384.26,-322.41 -464.83,-301.66 -59.25,134.24 93.28,482.86 21.08,601.41 -25.83,42.46 -293.94,220.09 -356.74,263.38 -35.05,23.04 -79.86,39.22 -88.03,90.51l389.6 106.64c-38.63,85.9 -1064.48,978.8 -1218.59,1116.56 -108.66,97.11 -210.43,194.69 -322.54,288.06 -95.69,79.68 -211.44,212.82 -301.16,281.48 -161.04,123.24 -236.89,103.59 -428.65,127.99 -163.92,20.85 -373.53,60.48 -533.06,102.58 -114.08,30.08 -530.08,328.61 -665.18,412.16 -272.74,168.66 -422.57,344.1 -758.03,340.25 -398.86,-4.59 -672.99,-15.46 -1069.71,-75.81 -258.28,-39.3 -762.83,-147.89 -993.34,-256.16 4.37,-112.05 33.76,-289.57 104.28,-380.79 66.48,-86.02 194.6,-176.05 304.94,-125.14 215.37,99.38 600.19,151.08 773.3,-56.88 208.85,-250.88 163.37,-249.77 186.84,-518.86 9.13,-104.72 59.73,-98.62 76.98,-179.57 42.88,-201.31 -95.24,-214.02 -171.56,-308.57 -79.59,-98.65 -20.41,-273.3 40.68,-364.8 90.14,-135.01 89.65,-211.34 138.21,-360.93 46.55,-143.42 7.97,-251.3 -106.38,-348.68 -200.63,-170.85 -394.23,-279.29 -639.39,-375.16 -296.45,-115.96 -529.43,-138.99 -845.62,-98.98 -154.63,19.55 -520.66,119.04 -630.24,228.93 -32.35,-60.17 -45.33,-103.43 -92.72,-154.82 -70.2,-76.18 -140.8,-44.16 -168.73,-88.44 -33.25,-52.75 -91.44,-255.09 -161.21,-367.84 -160.21,-259.05 -236.35,-418.83 -531.2,-551.49 -226.79,-102.03 -559.31,16.36 -747.63,153.65 -170.76,124.5 -507.15,255.38 -715.41,298.77 -312.1,65.01 -538.36,109.89 -828.38,-70.99 -132.57,-82.67 -184.2,-147.47 -277.6,-266.78 -143.5,-183.31 -128.68,503.1 -92.32,636.1 174.47,638.3 685.21,758.12 741.47,807.46z"/>
    <path class="fil0" d="M18083.89 7860.71c-63.3,-47.34 -1403.13,-6.71 -1708.05,-15.66 -125.38,-3.69 -117.21,25.11 -148.63,-90.7 -30.67,-113.02 -491.72,-1474.65 -506.61,-1487.45 -60.07,17.69 -512.36,1533.07 -557.55,1568.92 -66.89,25.08 -760.09,4.98 -899.7,7.99 -126.18,2.73 -882.86,-22.85 -927.74,28.4 9.99,39.5 637.21,439.1 723.92,499.9 223.06,156.44 526.44,316.64 733.9,481.93 -49.75,87.58 -108.35,292.26 -141.48,398.26 -68.54,219.15 -421.57,1122.72 -416.79,1195.77 101.08,5.65 270.23,-160.01 366.39,-212.81 327.62,-179.87 760.37,-597.72 1074.46,-724.13 110.35,-44.44 1385.94,971.42 1494.31,934.84 22.91,-75.58 -91.57,-275.3 -99.65,-314.7 -12.82,-62.56 -279.13,-830.73 -325.59,-928.11 -43.3,-90.72 -154.22,-342.18 -62.99,-406.01 49.63,-34.75 110.23,-57.28 173.32,-104.32 103.04,-68.53 1217.21,-790.07 1228.48,-832.12z"/>
    <path class="fil0" d="M12196.83 10082.8c40.57,-79.75 67.61,-458.6 104.13,-580.47 48.19,-160.65 56.14,-398.64 104.36,-567.44 33.42,-116.92 139.62,-66.78 248.71,-95.9 154.92,-41.32 704.97,-133.71 834.44,-138.86 414.47,-16.58 -896.8,-496.73 -940.97,-614.37 -20.64,-54.92 220.02,-1074.08 200.97,-1198.4 -36.67,2.23 -185.66,165.49 -226.07,206.74 -194,197.99 -427.29,496.11 -628.97,651.17 -103.55,10.08 -1008.42,-532.87 -1075.26,-517.12 -27.49,89 338.18,723.21 376.62,818.87 164.59,409.55 220.65,145.2 -191.77,607.38 -84.89,95.11 -511.69,464.9 -521.51,552.66 18.08,5.5 284.85,-33.08 302.62,-41.39 48.31,-22.59 840.03,-151.67 858.15,-140.99 32.64,19.28 328.8,681.63 394.01,805.19 37.6,71.2 83.04,239.1 160.54,252.93z"/>
    <path class="fil0" d="M19862.14 9813.15c29.79,-40.12 19.39,-712.09 24.85,-801.29 8.48,-138.79 -20.6,-73.05 201.74,-173.81 103.82,-46.37 340.96,-100.56 474.01,-153.15 59.44,-23.49 245.82,-33.43 31.83,-112.22 -113.91,-41.95 -673.38,-198.75 -701.26,-241.23 -28.59,-43.56 27.87,-708.76 13.11,-817.18 -45.81,0.27 -260.52,245.72 -296.21,302.42 -75.25,119.58 -163.25,226.93 -238.65,349.6 -88.81,1.56 -755.63,-274.49 -795.19,-226.13 -42.62,52.08 458.81,659.79 457.23,700.53 -58.79,138.88 -512.54,674.15 -480.72,736.44 39.82,20.68 789.09,-254.22 798.79,-266.83 69.71,99.19 452.06,686.97 510.47,702.85z"/>
    <path class="fil0" d="M23021.98 8340.16c-92.42,-20.06 -519.89,102.26 -580.84,51.36 -71.87,-60.04 -168.45,-424 -242.51,-498 -75.83,-75.83 -125.19,443.55 -151.35,536.4 -31.55,111.88 -499.54,81.8 -564.55,115.95 -15.78,82.29 418.71,281.96 479.84,311.9l-102.68 617.09c74.27,37.36 353.76,-339.58 458.84,-379.36 112.52,-42.63 429.79,277.87 540.93,258.88 18.5,-35.71 -237.41,-557.54 -243.94,-560.16 66.26,-64.14 448.36,-371.22 406.26,-454.06z"/>
    <path class="fil0" d="M9651.43 8255.54c-93.97,-10.84 -507.26,153.1 -572.93,108.46 -77.44,-52.65 -209.5,-405.3 -290.51,-471.62 -82.94,-67.97 -80.77,453.73 -97.65,548.72 -20.33,114.45 -489.03,130.71 -550.34,171.12 -7.59,83.46 444.5,239.23 508.29,262.99l-41.26 624.23c77.59,29.85 318.52,-372.84 419.15,-422.82 107.75,-53.52 455.12,234.1 563.85,204.22 14.88,-37.36 -291.29,-531.38 -298.05,-533.35 59.61,-70.36 409.52,-413.67 359.45,-491.95z"/>
   </g>
  </g>
 </g>
</svg>
