<?xml version="1.0" encoding="UTF-8"?>
<!DOCTYPE svg PUBLIC "-//W3C//DTD SVG 1.1//EN" "http://www.w3.org/Graphics/SVG/1.1/DTD/svg11.dtd">
<!-- Creator: CorelDRAW 2017 -->
<svg xmlns="http://www.w3.org/2000/svg" xml:space="preserve" width="320mm" height="150mm" version="1.1" style="shape-rendering:geometricPrecision; text-rendering:geometricPrecision; image-rendering:optimizeQuality; fill-rule:evenodd; clip-rule:evenodd"
viewBox="0 0 32000 15000"
 xmlns:xlink="http://www.w3.org/1999/xlink">
 <defs>
  <style type="text/css">
   <![CDATA[
    .fil0 {fill:#D7B56D}
    .fil1 {fill:#FEFEFE}
   ]]>
  </style>
 </defs>
 <g id="Слой_x0020_1">
  <metadata id="CorelCorpID_0Corel-Layer"/>
  <g id="_2737002490688">
   <g id="_1599802831024">
    <path class="fil0" d="M26403.16 2108.3c157.2,-115.34 365.9,203.84 153.97,335.65 -161.19,100.24 -369.06,-177.84 -153.97,-335.65zm452.56 59.16c-74.97,-359.65 267.49,-342.53 319.07,-111.13 69.57,312.05 -265.84,366.46 -319.07,111.13zm-5183.31 1542.49c-330.23,-284.65 -32.26,-231.91 -575.02,-233.42 -604.83,-1.65 -240.17,-15.2 -662.28,154.79 -201.57,81.19 -1181.52,-123.73 -1542.56,64.84 -148.45,301.15 -51.09,2127.67 -62.33,2604.69 -13.12,557.69 -913.91,1054.72 -1219.51,1562.35 591.98,-2.77 1185.35,-11.66 1776.58,-11.73 1136.53,-0.08 689.76,-376.69 1246.58,-578.14 669.06,680.6 171.05,571.05 1828.21,578.7 724.35,3.31 1752.36,41.08 2445.82,-20.2 154.49,-120.77 822.98,-749.95 872.66,-895.49 194.6,-570.15 -67.25,-845.94 -224.18,-1058.65 -102.62,-139.11 -41.95,-146.81 -125.98,-315.89 -240.01,-58.63 -474.55,-56.71 -665.28,-206.25l-52.1 -612.67c-304.83,-176.14 -1301.42,-36.7 -1700.81,-151.91 -21.03,-67.54 5.57,-559.39 30.31,-654.99 635.11,-450.95 1749.03,-758.96 2509.37,-1044.29 382.76,-143.6 423.2,-53.84 785.19,-69.36 230.52,-9.89 453.04,-150.25 676.08,-234.64 666.15,-252.04 346.25,-1003.32 -187.65,-870.41 -664.42,165.41 -684,383.93 -1129.91,643.45 -469.65,273.31 -3517.84,1351.78 -4023.19,1349.22z"/>
    <path class="fil0" d="M5959.34 2220.96c-113.43,166.49 -222.53,13.63 -162.94,-84.73 120.46,-198.79 185.66,51.39 162.94,84.73zm-554.94 -275.07c111.08,-175.49 292.88,-52.77 221.64,140.2 -80.73,218.81 -362.1,81.65 -221.64,-140.2zm-543.02 -155.66c100.26,-190.83 295.44,-58.48 205.13,122.43 -93.87,188.07 -297.38,53.2 -205.13,-122.43zm-168.99 -51.87c-300.31,617.31 871.32,722.71 1423.46,915.6 173.18,60.49 448.04,203.42 625.76,285.79 399.08,184.95 2293.97,994.04 2485.91,1172.77 93.06,242.91 29.88,338.56 85.12,532.69 42.05,147.77 139.51,205.2 192.58,394.56 -80.81,171.55 -268.81,326.67 -421.77,420.78 -408.3,-5.66 -1265.66,-88.1 -1604.63,30.85 -500.29,175.56 -827.18,-74.16 -1063.38,569.82l220.33 100.73c-55.31,666.19 458.52,1087.56 895.7,1512.12 305.09,296.31 548.45,192.37 980.52,190.23 417.36,-2.07 835.17,2.16 1252.66,0.64 1544.15,-5.65 3312.6,85.36 4824.67,0.88 -464.18,-676.62 -1211.47,-997.96 -1247.77,-1451.55 -21.75,-271.52 4.05,-683.36 3.85,-972.12 -0.73,-996.68 225.59,-1954.26 -631.61,-2070.31 -511.15,-69.21 -373.48,-24.77 -734.22,149.14l-194.06 -154.41 -195.62 347.77c-514.13,-4.39 -1.36,-172.94 -1030.75,-158.88 -940.34,12.84 -224.5,-47.42 -1048.81,83.92 -190.18,30.32 -1320.37,-565.05 -1587.13,-681.56 -521.61,-227.77 -1040.63,-482.66 -1562.5,-714.16 -117.52,-52.13 -788.53,-707.59 -1367.16,-701.03 -182.37,2.05 -221.59,32.19 -301.15,195.73z"/>
    <path class="fil0" d="M10882.35 10239.95l48.54 2098.32c-180.94,-132.21 -252.89,-901.4 -300.69,-1115.96 -98.46,-442.01 -92.18,-232.96 252.15,-982.36zm-1233.5 -103.08c-56.15,-166.13 -53.7,-406.19 -36.56,-605.65 13.8,-160.27 43.8,-207.94 137.56,-221.08 113.21,-15.85 169.28,80.77 181.08,246.95 6.51,91.46 -20.35,557.77 -57.63,610.63 -53.14,75.28 -177.61,107.72 -224.45,-30.85zm1245.76 -860.6c-130.5,-299.15 -328,-687.63 -702.28,-847.53 -217.31,-92.84 -1244.66,-68.71 -1546.2,-72.99 -9.89,836.59 -23.21,3735.04 40,4339.83l983.09 -4.43 -17.47 -1260.03 282.41 1289.17 2860.47 -2.87c11.45,-263.04 -2.17,-739.34 -23.49,-945.43l-846.09 -4.33 0.73 -3395.54 -1000.91 -0.9 -30.26 905.05z"/>
    <path class="fil0" d="M15178.94 2431.54c-247.11,172.27 -838.42,763.93 -967.14,1005.67l1429.01 22.34 -32.85 2636.52 -406.15 -312.8 -9.51 -1896.19c-320.33,-45.59 -737.76,-72.87 -1057.27,-3.13l2.9 2313.33 812.86 708.53 681.99 -569.6c68.2,707.61 -230.16,1470.4 547.85,1735.43 562,-613.05 420.52,-240.29 443.03,-1739.64l715.03 588.65 770.92 -739.85 -17.43 -2292 -1030.89 18.54 -13.05 1883.64 -414.88 320.06c-100.1,-433.36 -44.97,-2104.13 -11.51,-2652.82l1450.79 -9.41c-63.97,-170.07 -749.3,-834.23 -927.41,-1010.33l-1966.29 -6.94z"/>
    <path class="fil0" d="M4236.3 8488.91c11.64,178.61 13.4,346.9 7.62,537.16l-196.82 -552.11 -1020.61 -10.85c-14.84,272.69 590.74,4022.19 680.11,4247.11l907.19 -25.46 114.57 -508.7c31.76,186.47 60.25,349.03 129.09,506.21l902.96 1.83 675.05 -4208.69 -1062.79 -24.47 -63.87 547.52c-65.96,-233.99 -61.57,-283.4 -100.43,-494.53l-972.07 -15.02z"/>
    <path class="fil0" d="M4116.78 6324.18l-920.45 46.79c-135.82,17.42 -212.11,-13.67 -258.36,107.18 -110.74,289.35 37.53,56.35 130.55,443.24 66.13,274.99 94.44,260.47 345.4,428.1 332.04,221.82 608.11,497.79 996.71,512.31 1013.95,37.89 2061.01,-7.48 3083.78,23.06 -315.71,-577.16 -1038.51,-703.93 -1002.36,-1586.65 -162.92,-96.63 -472.95,28.07 -140.19,-502.86 357.5,-570.41 1404.83,-347 2310.02,-483.84 26.03,-361.67 76,-327.96 -163.82,-421.83 -626.11,-245.12 -0.17,29.6 -381.1,-308.72l-571.11 -180.16c-1587.5,832.88 -713.5,-102.16 -2288.46,412.27 -387.41,126.53 -375.33,59.05 -791.5,-0.74 -477.87,-68.64 -3345.88,-602.45 -3486.41,-394.39 101.35,248.73 3419.76,640.06 3939.83,727.36 139.9,193.78 40.42,265.64 229.68,415.11 221.8,175.18 327.89,31.96 377.45,209.76 -270.79,90.97 -455.62,-12.35 -708.01,129.46 -295.75,166.17 -291.16,429.86 -701.65,424.55z"/>
    <path class="fil0" d="M24834.58 4696.33c64.24,362.93 -14.5,541.54 347.35,636.97 277.9,73.29 475.42,147.83 742.7,224.63 -68.75,261.78 -86.03,12.19 -221.52,283.15 295.44,288.03 414.39,824.54 237.56,1200.8 -132.57,282.1 -678.28,575.73 -763.12,807.58 726.94,48.43 1608.2,14.81 2352.11,16.52 1154.41,2.64 1006.47,171.2 1913.72,-456.24 281.94,-195 531.91,-461.9 251.42,-830.72 -137.03,-180.17 -733.35,-200.69 -968.75,-233.96 -919.42,-129.93 -198.41,-380.73 -643.67,-533.95 -355.95,-122.47 -817.03,104.7 -1144.34,-66.44 -118.42,-493.87 956.23,-573.05 1329.99,-654.92 272.12,-59.61 569.1,-137.26 840.62,-184.61 335.33,-58.48 677.07,51.91 603.17,-391.67 -211.26,-87.5 -2005.51,403.83 -2395.91,487.76 -613.08,131.81 -663.73,47.73 -1268.42,5.04 -1631.44,-115.19 -279.18,-228.54 -1212.91,-309.94z"/>
    <path class="fil0" d="M22733.79 12659.47c82.03,-300.36 39.11,-973.72 69.91,-1361.29l404.14 1377.86 824.85 -33.8 -54.5 -4223.84c-276.41,-39.26 -515.75,-48.67 -806.97,-29.3l-23.76 1201.86 -301.63 -1177.29c-300.81,-10.26 -626.61,-32.21 -920.12,15.03l3.89 4275.57 804.19 -44.8z"/>
    <path class="fil0" d="M26664.09 12642.57c-18.35,-482.53 -624.85,-1712.81 -736.37,-2094.15 -14.24,-319.49 587,-1603.18 735.39,-2090.73l-1032.81 -38.6 -438.43 775.31 -13.75 -729.76 -911.86 -18.78 39.55 4226.37 884.55 -34.91 35.43 -977.74 431.35 1011.37 1006.95 -28.38z"/>
    <path class="fil0" d="M13888.75 9428.49c149.8,-5.18 179.41,624.8 185.88,1213.63 6.2,561.81 -5.07,1083.04 -98.67,1106.86 -41.55,10.57 -185.84,42.81 -205.14,0.92 -37.34,-81.1 -7.39,-1954.28 -28.14,-2250.67 -6.52,-93.27 56.62,-67.67 146.07,-70.74zm-961.58 3266.58c1589.37,133.76 1948.56,-97.36 2003.27,-768.82 41.05,-503.83 45.27,-2577.77 -160.33,-3028.19 -202.35,-443.31 -704.44,-651.97 -1933.5,-526.98l90.56 4323.99z"/>
    <path class="fil0" d="M7405.54 11939.02c-150.92,5.54 -157.21,-48.18 -170.17,-249.01 -34.3,-530.53 5.9,-1368.85 -12.46,-1925.2 -10.39,-314.73 -33.58,-479.94 142.32,-500.69 231.89,-27.34 207.13,175.12 225.69,354.98 58.57,568.28 -7.91,1566.64 -22.36,2046.4 -6.8,225.81 25.1,269.67 -163.02,273.52zm-999.7 90.47c114.95,845.86 1449.36,1176.12 1973.16,279.42 186.38,-319.07 161.77,-2681.96 87.75,-3140.77 -149.51,-926.35 -1539.94,-1204.12 -1955.97,-313.77 -208.24,445.64 -109.31,1041.52 -108.06,1537.9 1.01,410.92 -45.04,1282.85 3.12,1637.22z"/>
    <path class="fil0" d="M13907.02 6181.8c-8.51,-25.12 -21.94,-2496.93 -3.71,-2619.92 37.06,-250.13 1072.35,-1272.41 1327.62,-1323.56 226.07,-45.29 1017.78,1.37 1309.02,0.43 619.44,-1.96 570.15,-106.66 1001.26,326.62 1091.53,1097.08 809.61,556.94 815.93,3170.72 1.43,590.81 -77.2,449.56 -456.45,837.95 -433.73,444.19 -825.28,892.35 -1280.16,1338.49 -545.31,534.83 -310.25,678.06 -1355.24,-399.89 -176.08,-181.62 -1322.54,-1225.3 -1358.27,-1330.84zm1002.15 -4233c-243.33,128.17 -551.06,495.41 -759.46,706.21 -338.41,342.31 -617.37,399.41 -621.92,903.64 -32.28,3572.29 -256.36,2501.28 1691.25,4455.73 227.12,227.91 538.13,579.43 770.86,776.79 266.54,226.03 592.31,-314.05 780.26,-502.1 503.07,-503.36 1016.15,-994.99 1515.94,-1500.8 525.63,-531.97 421.89,-326.77 419.61,-1119.42 -1.45,-510.3 -2.62,-1025.4 2.5,-1535.55 6.67,-660.29 165.75,-766.71 -299.39,-1241.81 -251.15,-256.54 -522.53,-514.54 -767.28,-771.27 -353.17,-370.45 -752.56,-238.79 -1271.74,-242.81 -365.23,-2.83 -1171.68,-80.81 -1460.63,71.39z"/>
    <path class="fil0" d="M20215.49 12687.83c40.86,-240.27 44.14,-404.62 65.3,-641.68 11.03,-123.68 28.12,-246.21 86.36,-307.56 73.16,-77.08 184.93,-78.54 250.01,118.09 76.09,229.88 73.05,587.57 111.41,810.25l940.09 -17.09 -768.8 -4375.34 -784.75 6.84c-151.55,256.15 -739.72,4089.89 -716.76,4441.22l817.14 -34.73z"/>
    <path class="fil0" d="M26559.65 11370.15c-341.23,1761.37 1821.8,1749.18 1954.49,654.09 89.24,-736.45 84.96,-1126.11 -410.91,-1636.77 -202.1,-208.13 -337.21,-282.45 -558.46,-462.23 -244.61,-198.77 -214.88,-752.09 -86.45,-789.24 99.34,-28.72 134.71,27.9 149.49,97.7 32.75,154.67 0.38,311.08 30.67,483.41l828.83 -35.87c11.8,-636.76 -29.33,-1163.52 -763.47,-1287.67 -638.77,-108.01 -1095.87,135.65 -1173.88,776.45 -182.11,1495.42 748.45,1626.63 1018.05,1999.18 97.81,135.16 150.72,452.47 112.43,668.37 -17.85,100.66 -33.09,184.62 -143.46,174.11 -129.59,-12.36 -139.93,-91.34 -142.64,-211.36 -2.78,-122.58 -3.12,-291.85 -35.66,-421.56 -187.07,-36.65 -540.19,-34.32 -779.03,-8.61z"/>
    <path class="fil0" d="M17718.63 9325.81l510.28 3.7c37.69,733.08 -45.12,2785.58 7.98,3401.22l947.84 -39.6 98.12 -3379.04 452.66 -20.37 -10.01 -1024.11 -2032.04 41.55 25.17 1016.65z"/>
    <path class="fil0" d="M4378.67 6177.55c215.34,-134.94 323.52,-245.33 298.03,-563.69 -1282.32,-194.37 -984.72,-74.51 -1117.52,-423.13 -140.43,68.43 -205.38,145.09 -288.02,298.56 -1057.94,-88.64 -236.9,178.6 -1534.98,124.88l-397.99 3.88c-176.99,34.27 -91.91,18.73 -153.34,50.84 258.69,352.59 1198.07,-159.81 1494.48,436.83 -792.09,-16.15 -368.84,286.31 -884.99,349.87 -468.3,57.69 -1164.28,-29.38 -1047.55,435.46 4.05,16.17 23.04,62 29.57,77.83 150.39,364.84 986.72,835.02 1123.43,881.71 223.51,76.34 1546.31,0.3 1946.03,35.74 -110.82,-205.58 -404.87,-339 -602.05,-477.35 -206.01,-144.57 -179.73,-93.25 -244,-334.4 -27.53,-103.35 -48.01,-209.12 -93.29,-282.81 -49.31,-80.27 -122.04,-125.79 -110.7,-172.12 129.92,-530.12 782.36,-297.3 1314.25,-355.01 124.03,-13.45 165.27,-22.36 268.64,-87.09z"/>
    <path class="fil0" d="M16065.76 10540.27c104.96,320.59 61.09,1059.58 21.31,1389 -33.41,276.62 -261.15,232.31 -259.64,5.37 1.79,-272.47 -34.18,-1273.41 40.91,-1425.92 79.96,-162.37 148.28,-118.58 197.42,31.55zm-848.95 1656.97c155.17,592.51 997.48,730.4 1411.8,276.34 231.85,-254.07 140.02,-676.63 140.21,-1000.22 0.15,-261.13 31.69,-913.72 -12.62,-1129.77 -68.69,-334.78 -516.24,-679.35 -1057.65,-507.84 -584.86,185.29 -503.87,716.31 -501.52,1239.22 0.9,199.65 -15.67,986.89 19.78,1122.27z"/>
    <path class="fil0" d="M28350.7 6157.86c409.01,254.59 1286.96,-25.64 1520.36,476.62 301.6,649 -373.27,879.97 -716.36,1198.7 375.21,57.36 1286.11,116.46 1575.15,-104.58 308.06,-235.59 645.79,-686.92 520.73,-1118.89 -206.54,-177.35 -444.34,-125.26 -712.11,-113.36 -315.07,-329.43 -190.47,-206.03 -618.18,-235.97l-312.3 -82.45c251.44,-418.88 835.38,31.68 1154.04,-223.44 -94.94,-158.02 -91.27,-64.85 -322.44,-90.61 -282.12,-31.42 -135.84,-60.85 -404.07,-92.94 -295.91,-35.42 -508.42,44.97 -777.02,-120.81 -250.68,-154.71 -248.13,-276.66 -699.58,-223.79 -180.94,21.2 -207.63,0.1 -238.93,241.22 -20.49,157.93 -0.29,338.58 30.71,490.3z"/>
    <path class="fil0" d="M17594.69 10611.22c170.68,-28.38 344.51,18.4 505.43,-19.16l21.87 -671.34c-255.17,-2.21 -972.25,-23.53 -1253.28,7.63l43.48 2788.38 620.13 -30.14 11.6 -1151.97 403.47 -16.21 -0.45 -646.4c-198.12,-5.61 -334.49,35.1 -400.23,-53.13 -44.64,-59.91 -34.31,-193.99 47.98,-207.66z"/>
    <path class="fil1" d="M20617.26 10773.45c-24.58,-207.58 -121.94,-762.24 -155.74,-773.12 -2.81,-0.9 -142.93,620.71 -142.06,768.84 0.17,30.1 299.86,21.61 297.8,4.28z"/>
   </g>
  </g>
 </g>
</svg>
