<?xml version="1.0" encoding="UTF-8"?>
<!DOCTYPE svg PUBLIC "-//W3C//DTD SVG 1.1//EN" "http://www.w3.org/Graphics/SVG/1.1/DTD/svg11.dtd">
<!-- Creator: CorelDRAW 2017 -->
<svg xmlns="http://www.w3.org/2000/svg" xml:space="preserve" width="320mm" height="150mm" version="1.1" style="shape-rendering:geometricPrecision; text-rendering:geometricPrecision; image-rendering:optimizeQuality; fill-rule:evenodd; clip-rule:evenodd"
viewBox="0 0 32000 15000"
 xmlns:xlink="http://www.w3.org/1999/xlink">
 <defs>
  <style type="text/css">
   <![CDATA[
    .fil0 {fill:#D7B56D}
   ]]>
  </style>
 </defs>
 <g id="Слой_x0020_1">
  <metadata id="CorelCorpID_0Corel-Layer"/>
  <g id="_2737000138640">
   <g id="_1861755899824">
    <path class="fil0" d="M15102.84 13630.63l-10873.94 22.11 0.79 3.69c0.69,13.25 -3492.15,416.93 -3059.12,-219.94 171.68,-252.39 1233.85,-11.08 1501.27,3.45 285.58,15.46 1313.98,134.4 1557.06,212.8l10873.94 -22.11zm14866.75 -1808.87l0 0 -19728.28 -320.75 19728.28 320.75zm-20177.22 -846.72l0 0 14520.43 -436.18c-58.4,435.94 -667.7,697.34 -1025.82,834.2 -346.22,132.33 -779.15,206.3 -1149.15,247.47 -274.7,30.54 -226.15,12.95 -87.76,-125.73 463.17,-464.06 1007.07,-983.62 1643.54,-1126.74 183.75,-41.31 662.38,-151.43 619.19,170.8l-14520.43 436.18zm10505.47 -590.13l0 0c-89.98,412.74 -644.31,745.41 -1018.59,867.15 -505.43,164.39 -529.12,228.66 -1105.02,317.4 -221.27,34.08 -216,21.28 -70.63,-134.39 310.36,-332.43 608.46,-636.24 960.19,-924.53 174.38,-143.02 1357.36,-691.24 1234.05,-125.63zm4412.59 -307.9l0 0 -19830.87 -3399.72 19830.87 3399.72zm-16688.17 -5965.52l0 0c-486.47,132.57 -1790.85,860.5 -2219.11,1167.47 -787.37,564.42 -1171.6,885.81 -1858.51,1568.73 -645.83,641.99 -1012.23,1139.15 -1381.84,1975.47 -331.98,751.23 -551.37,1919.68 -120.41,2665.04 726.8,1305.81 1867.72,1341.17 3173.82,1030.71 1189.92,-282.78 2318.09,-847.11 3232.72,-1659.94 901.53,-801.17 1835.66,-1994.14 1559.62,-3271.68 -129.17,-597.67 -504.44,-1167.81 -1077.44,-1413.5 -525.42,-225.26 -1426.01,-65.8 -1703.43,471.25l112.34 32.25c-187.93,0 -136.91,90.62 -153.61,250.58 -29.25,279.67 274.17,700.79 711.44,686.76 336.26,-10.84 554.57,-129.72 439.04,-524.1 -74.41,-254.02 -331.49,-538.37 -612.05,-503.06 579.89,-680.51 1443.89,32.5 1702.39,643.17 343.41,810.86 54.91,1427.35 -379.4,2116.22 -708.48,1123.74 -1983.21,2150.31 -3224.89,2616.19 -688.88,258.45 -1648.76,507.69 -2351.23,212.01 -704.24,-296.37 -1151.61,-1003.62 -1104.28,-1767.94 98.89,-1599.12 1068.67,-2642.58 2112.13,-3729.83 1207.85,-1266.99 4673.02,-3563.51 6293.56,-2061.9 912.86,845.93 749.6,2468.25 397.28,3545.25 -387.72,1185.14 -871.43,1965.03 -1778.03,2814.4 -741.87,622.99 -1395.04,1173.13 -2248.9,1651.08 -480.95,269.24 -806.88,396.69 -1307.97,600.82 -468.4,190.84 -1033.61,-2.11 -1530.77,-85.24 -754.82,-126.18 -2573.68,-490.91 -3251.97,-350.5 -431.61,89.33 -965.45,385.86 -871.19,904.93 86.43,476.32 864.69,614.26 1267.98,642.09 743.74,51.31 1801.33,-100.37 2549.7,-278.74 228.41,-54.42 495.04,-147.21 712.91,-185.62 424.27,-74.86 2167.44,551.18 2727.63,683.46 922.31,217.77 2343.85,238.11 3250.74,-32.65 233.29,-69.64 401.96,-163.31 601.91,-298.39 268.7,-181.58 397.08,-177.29 671.79,-287.02 376.69,-150.45 896.31,-820.22 1060.1,-881.24 81.51,189.11 -6.05,247.67 171.58,513.8 119.28,178.87 210.64,293.37 419.15,377.14 178.62,71.71 454.16,70.97 636.08,0.35 134.84,-52.3 365.52,-193.3 451.7,-318.68l1138.91 -1041 -10.1 -10.98c-28.32,128.24 8.96,455.19 89.73,577.33 405.06,747.33 1240.45,887.1 1996.85,637.41 753.44,-248.75 1266.84,-737.63 1889.88,-1176.23 -6.45,522.27 345.42,992.19 801.45,1185.78 547.88,232.55 1074.29,38.47 1610.06,-108.14 141.09,-92.98 448.15,-241.91 615.15,-334.1 200.24,-110.46 417.77,-252.1 611.02,-376.75 391.07,-252.34 774.07,-547.83 1137.18,-838.29 358.82,-287.06 707.98,-590.68 1037.99,-911.87 155.77,-151.63 340.89,-340.6 486.57,-501.19 118.88,-130.95 385.26,-479.58 550.29,-257.91 -34.13,76.72 -566.64,709.16 -667.01,835.34 -217.82,273.76 -436.04,559.6 -644.85,841.84 -417.91,564.82 -924.38,1156.18 -1266.4,1760.99 252.98,20.29 729.01,37.04 978.6,25.96 210.48,-9.31 458.79,-491.35 583.73,-657.16 192.71,-255.99 369.16,-514.79 566.2,-767.92 299.13,-384.53 257.12,-376.16 650.91,-695.58 467.46,-379.01 986.38,-860.55 1502.5,-1155.54 183.49,-104.8 794.36,-393.69 969.39,-254.57 201.27,160.01 -294.01,664.31 -404.96,795.6 -297.56,352.42 -1022.14,1122.4 -1209.48,1471.62 -321.39,599.15 -358.28,1491.76 495.48,1630.94 674.84,110.02 1186.08,-519.03 1629.46,-927.14 431.56,-397.28 874.44,-914.28 1254.68,-1364.9 -571.61,102.39 -298.19,-21.92 -735.02,355.37 -182.16,157.35 -412.5,394.87 -596.78,532.12 -280.22,208.71 -1010.76,973.09 -1367.36,862.72 -226.99,-307.55 1030.85,-1641.96 1172.68,-1942.62 43.05,-17.09 443.04,-551.92 470.32,-631.36 101.2,-293.86 116.81,-506.56 -72.69,-792.69 -373.59,-521.48 -991.6,-403.34 -1500.92,-154.14 -203.2,99.43 -482.93,311 -668.89,447.17 -110.8,81.11 -558.12,484.4 -639.38,489.57 158.68,-311.45 384.53,-479.87 158.33,-881.34 -160.59,-284.95 -416.63,-404.13 -729.6,-294.35 -536.6,188.22 -926.7,733.15 -1342.35,1121.96 -824.4,771.27 -1877.22,1545.34 -2871.97,2079.58 -330.7,177.64 -582.36,261.9 -964.08,249.24 -297.16,-9.85 -702.66,-62.94 -768.71,-409.05 -63.87,-335.42 99.83,-613.43 326.07,-842.92 460.81,-467.56 213.3,-290.81 886.66,-351.24 590.33,-52.94 1405.09,-120.01 1928.98,-403.83 279.19,-151.24 520.6,-269.48 682.03,-557.24 182.86,-325.92 124.9,-583.53 -152.96,-814.11 -350.99,-266.48 -582.06,-200.54 -997.46,-142.82 -979.19,135.98 -2025.86,676.67 -2764.37,1306.79 -240.19,204.97 -498.49,458.69 -620.13,752.51 -113.81,275.04 -481.64,477.3 -727.64,644.99 -530.39,361.68 -1234.83,923.94 -1927.55,824.06 -341.93,-49.29 -567.38,-445.29 -498.59,-774.37 33.15,-158.87 425.7,-727.48 555.96,-804.06 125.73,-73.92 1553.27,-197.64 2142.97,-450.52 269.63,-115.59 621.6,-305.78 824.6,-519.32 235.9,-248.26 368.87,-668.73 105.24,-948.16 -303.51,-321.59 -584.37,-297.07 -991.26,-219.11 -371.91,71.26 -711.72,161.88 -1053.65,330.01 -718.57,316.66 -1514.71,850.8 -2028.32,1447.98 -161.13,187.34 -266.28,282.78 -361.47,520.3 -68.61,171.39 -278.15,289.97 -424.96,412.31 -321.93,268.25 -646.03,533.35 -967.72,802.59 -451.7,378.02 -1016.96,403.53 -640.12,-320.85 207.38,-398.71 402.99,-661.84 679.03,-1013.57 506.61,-645.39 1034.99,-1374.95 1473.19,-2066.88 -200.44,-13.93 -456.77,3.2 -666.27,5.32 -212.65,2.22 -402.65,-63.87 -531.88,144.1 -321.68,517.69 -1120.58,1484.23 -1549.38,2106.28 -80.91,117.35 -276.67,474.6 -335.28,532.95 -210.63,210.14 -742.9,790.97 -966.88,883.8 -225.7,93.57 -620.57,100.91 -548.66,-262.83 71.31,-360.25 440.61,-867.94 650.85,-1174.12 510.55,-743.49 1002.69,-1464.62 1471.87,-2235.5 -243.53,23 -496.66,41.91 -738.22,68.65 -187.15,20.69 -185.08,-24.57 -295.74,141.79 -61.65,92.83 -137.89,187.29 -194.77,279.77 -217.18,353.21 -1417.99,1988.48 -1480.63,2174.59 -21.38,63.48 8.32,20.73 -19.01,62.84 -0.54,0.83 -26.35,32.06 -38.07,59.19 -69.29,160.75 -99.24,434.46 -74.51,619.05 29.84,223.14 12.26,190.24 121.84,326.51 52.69,65.5 185.27,197.73 204.96,270.27 -352.07,311.05 -773.78,294.7 -1220.85,258.84 -475.68,-38.16 -873.5,-18.61 -1357.21,-105.09 -348.43,-62.25 -2235.21,-408.12 -2424.57,-525.77 49,-44.22 387.34,-134.69 474.85,-156.41 151.78,-37.62 341.09,-136.22 481.79,-208.22 148.24,-75.84 360.69,-149.12 520.99,-222.89 147.25,-67.77 320.41,-173.16 462.29,-230.58 253.28,-102.68 1672.65,-994.61 1805.62,-1170.42 1755.58,-1314.08 2591.85,-2853.07 2380.14,-5087.98 -227.53,-2401.91 -2588.16,-3123.34 -4599.19,-2301.54z"/>
    <path class="fil0" d="M2239.15 4174.87l76.48 -248.06c219.2,29.99 416.58,102.63 611.65,174.39 184.73,67.91 271.41,249.88 391.43,390.88 86.08,100.95 217.13,343.7 206.05,478.39 -17.24,208.91 -433.28,197.83 -568.52,207.82 -406.64,29.95 -768.06,-224.12 -1086.45,-442.83 -386.25,-265.2 -351.83,-819.34 226.24,-829.24 -102.63,195.17 -111.69,411.08 134.3,483.42 146.07,42.94 330.35,-62.64 497.55,-56.04 196.15,7.73 97.02,201.07 178.43,116.52 74.06,-76.83 34.81,-194.29 -53.64,-236.98 -124.15,-60.04 -504.24,53.23 -613.52,-38.27zm2268.44 -756.15l0 0c0.45,17.48 41.18,21.62 22.61,73.13 -10.59,29.36 -27.28,33.74 -56.29,84.56 -33.64,58.8 -80.27,138.78 -126.37,195.42 -112.97,138.88 -339.12,86.67 -394.13,-107.95 -45.31,-160.4 62.3,-331.69 200.14,-393.98 221.91,-100.32 347,-84.12 354.04,148.82zm513.02 -128.29l0 0 -254.66 -207.58c76.13,-168.13 58.36,-199.25 224.52,-322.91 117.6,-87.57 321.93,-62.11 419.24,38.75 106.63,110.52 70.08,277.91 -41.56,364.63 -43.83,34.08 -160.01,48.81 -216.59,53.14 -196.06,15.02 -96.58,-16.35 -130.95,73.97zm-679.77 -243.77l0 0c-336.21,-285.49 -23.29,-423.73 -469.23,-610.38 -133.26,-55.75 -322.38,101.89 -247.32,287.61 78.15,193.44 219.2,167.29 301.74,-2.32 140.45,-288.34 123.31,65.4 98.05,144.05 -93.67,292.09 -579.4,281.4 -628.2,-144.74 -26.2,-228.8 64.12,-262.24 183.99,-395.56 -34.53,-39.54 -371.13,-139.51 -455.1,-153.55 -183.1,-30.68 -361.09,20.29 -483.66,162.76 -327.25,380.15 -44.03,1046.91 -30.59,1021.45 112.83,-291.25 533.06,-425.89 753.05,-165.82 101.65,120.17 92.24,374.58 91.85,524.05 -0.69,279.82 0.24,209.84 111.49,434.12l-6.05 5.96c-204.43,64.66 -322.92,-182.22 -323.17,-363.55 -0.19,-134.59 -25.85,-488.98 -207.63,-506.86 -235.25,-23.19 -132.96,345.87 -70.81,464.6 114.74,219.45 199.3,213.15 366.5,351.88 163.6,135.82 702.22,557.04 903.45,348.38 91.79,-95.25 298.14,-224.82 412.15,-321.05 66.44,-56.09 -4.09,-362.36 -63.09,-432.34 -87.26,188.71 -45.35,275.98 -343.1,362.41 -188.33,54.67 -426.09,-68.21 -484.8,-253.82 -138.53,-438.11 137.85,-778.66 590.48,-757.28zm1295.56 -667.11l0 0c1.82,-113.57 138.04,-161.98 -116.52,-226.84 -77.71,-19.8 -220.97,-81.06 -279.87,-172.17 -162.87,-252.44 69.19,-524.78 370.73,-524.68 -312.13,-394.53 -1398.24,-942.26 -1398.24,449.04 140.9,-55.75 204.23,-181.14 431.46,-124.6 154.59,38.46 251.36,124.2 301.25,277.26 52.69,161.54 -38.76,307.31 -172.56,382.51 -111.4,62.55 -352.17,10.39 -354.93,-111.84 12.9,-8.17 486.02,6.01 290.95,-252.2 -126.61,-167.78 -331.58,-62.39 -424.07,42.06 -69.39,78.5 -44.96,156.02 -31.81,264.26 14.28,117.71 3.1,78.36 138.48,139.13 262.89,117.8 173.3,189.45 257.37,332.76 96.67,-80.91 114.21,-314.93 378.52,-361.82 228.26,-40.48 378.07,8.67 559.8,141.93 149.96,110.02 146.07,364.44 59.78,525.33 -110.95,206.74 -286.32,219.74 -485.04,220.53 17.98,47.52 148.39,123.51 201.97,158.09 96.52,62.29 119.67,43.28 226.68,-24.43 140.31,-88.75 274.12,-142.52 402.21,-221.67 223.78,-138.23 -19.94,-1391.49 -55.06,-1444.73 -68.99,-104.4 -293.32,-250.22 -429.68,-187.63 -207.53,95.25 -4.44,304.25 122.43,366.6 244.76,120.21 224.42,327.6 6.15,353.11zm628.45 -1244.39l0 0c137.6,-281.46 371.08,-597.03 694.64,-297.31 172.07,159.36 247.42,593.14 284.85,825.04 44.12,273.53 126.96,849.67 -132.97,1024.5 -292.78,196.99 -550.54,-1.47 -731.43,-256.28 -163.35,-230.33 -145.97,-674.25 -161.33,-955.6 -10.05,-184.29 260.71,-159.12 275.59,59.14 11.62,170.1 -86.28,349.17 -109.97,516.81 -30.73,217.43 180.05,376 214.87,240.97 19.1,-74.32 -9.81,-146.71 14.52,-241.42 65.85,-256.72 224.33,-440.07 52.45,-714.73 -150.79,-240.97 -166.75,-149.32 -401.22,-201.12zm-25.61 -500.36l0 0 -139.27 175.52 -1.87 -342.32c-46.69,-21.38 -140.21,214.91 -156.36,266.97 -63.04,202.46 10.49,242.84 8.12,378.66 -42.99,10.44 -144.54,-145.77 -239.54,-184.53 -54.27,-22.21 -291.54,-125.48 -317.7,-63.38 -24.62,55.4 633.58,492.77 513.07,667.11 -171.93,-48.9 -526.07,-850.21 -1298.57,-695.87 -268.05,53.58 -418.45,210.63 -492.62,466.97 -43.54,150.55 -105.93,423.53 -83.92,592.4 8.96,68.85 51.76,192.85 -23.29,200.98 0,-95.99 -55.11,-249.69 -83.13,-327.35 -44.92,-124.5 -27.83,-233.19 -45.9,-365.17 -20.14,-146.91 114.35,-629.88 90.56,-667.36l-230.87 307.9 -75.45 423.63c-376.59,-193.35 -130.55,-681.94 -219.79,-834.31 -169.61,3.94 -182.12,430.13 -212.7,529.96 -36.05,9.65 -217.87,-101.41 -288.98,-113.18 -35.61,-5.86 -274.02,-12.6 -272.99,35.76 -2.36,29.15 496.32,258.75 576.99,322.82 98.74,78.45 444.41,360.59 454.41,469.23 -45.36,-5.02 -285.98,-227.53 -505.28,-259.09 -126.52,-18.18 -520.01,-57.97 -620.13,44.32 81.06,67.72 793.53,131.59 971.46,381.52 -270.52,1.13 -667.8,-292.83 -1068.72,98.55 -276.43,269.78 -203.84,715.91 -111.4,1056.06l-360.89 -223.48 -36.44 21.03 63.82 433.38c-2.41,1.13 -543.1,-45.02 -474.55,76.97l461.75 141.14c-196.3,80.33 -429.74,24.23 -608.06,302.63 -543.25,847.85 955.5,1262.91 1031.39,1377.95 206.6,85.45 462.88,257.81 723.89,241.76 284.7,-17.53 583.05,-316.12 687.06,-318.73l-510.7 451.8c53.19,53.23 249.54,239.83 278.74,286.67l680.51 -404.57 -392.21 -390.29 -18.91 19.01c24.82,-82.15 2035.16,-1473.44 2029.99,-1356.58 15.31,48.36 -217.28,60.92 -220.29,213.69l254.12 463.17 603.63 -395.16c-48.85,-71.95 -210.04,-454.31 -246.93,-475.44l-363.4 183.74c41.08,-121.83 870.95,-543.3 1032.97,-663.85 540.3,-402.06 687.94,-203.99 628.4,-1034.35 -42.79,-597.38 -86.28,-811.7 -308.83,-1358.9 -109.67,-269.82 -611.95,-640.71 -1061.19,-157.39z"/>
    <path class="fil0" d="M6649.67 4175.61l-2956.88 1862.6 2.12 14.57 273.91 290.96 135.29 134.79c35.51,-57.91 686.31,-616.78 793.53,-719.61 455.59,-436.87 1252.51,-880.35 1807.04,-1207.6 309.43,-182.61 652.34,-338.23 971.22,-516.8l169.56 -74.96 -116.97 -512.32 13.2 -0.4 -1092.02 728.77z"/>
    <path class="fil0" d="M4443.38 4881.23l336.75 380.78c37.82,-0.78 567.78,-348.37 644.75,-396.83 -13.98,-37.58 -281.01,-285.44 -322.23,-336.37 -62.15,-76.63 -27.92,-80.07 -133.65,-21.32 -116.38,64.61 -443.77,296.77 -525.62,373.74z"/>
    <path class="fil0" d="M7060.15 3803.59l628.6 -436.18c-1.72,-82.15 -43.49,-153.66 -65.75,-216.55 -83.37,-236.43 45.36,-264.26 -476.86,7.44 -149.22,77.66 -307.16,97.26 -246.54,266.53 29.45,82.19 120.76,319.22 160.55,378.76z"/>
    <path class="fil0" d="M3070.94 814.41c60.67,-57.72 57.37,-62.01 60.18,-147.06 8.03,-235.4 -207.09,-380.44 -342.42,-391.76 -47.08,99.62 -25.41,59.54 -21.27,164.98 2.61,66.92 -3.99,102.33 32.2,170.39 47.33,88.94 192.91,182.32 271.31,203.45z"/>
    <path class="fil0" d="M6866.51 3778.18c-56.93,-134.94 2.12,-71.51 -23.54,-141.39 -52.15,-141.88 -193.35,-145.77 -248.65,-106.03 -21.87,15.81 -14.43,11.38 -18.52,13.15 -0.59,0.25 -33.64,-14.92 -69.34,78.11 -83.77,218.31 140.41,347.44 248.6,274.6 51.96,-35.06 77.72,-66.33 111.45,-118.44z"/>
    <path class="fil0" d="M5568 4267.8c-79.98,13.94 -188.38,-39.15 -249.89,89.73 -70.62,148.04 32.51,196.01 96.73,258.7 45.6,44.42 186.35,70.37 256.13,-72.94 74.56,-153.21 -47.72,-163.01 -102.97,-275.49z"/>
    <path class="fil0" d="M1903.67 3328.89c-12.56,-45.75 -80.37,-175.32 -111.64,-196.3 -120.91,-81.16 -243.14,-6.2 -414.27,-47.42 0,103.86 24.77,45.65 97.31,120.75 36,37.28 69.09,85 120.41,110.51 29.84,14.93 122.77,37.88 148.28,39.06l159.91 -26.6z"/>
    <path class="fil0" d="M5559.38 224.27c6.55,76.19 16.79,13.64 48.75,132.77 4.53,17.14 12.71,45.21 14.24,58.26l0.68 12.17c0,1.18 -0.09,4.77 -0.04,5.96 1.03,49.05 15.56,113.46 69.48,158.08 57.08,47.23 80.92,55.6 143.46,50.13 21.23,-1.87 26.79,25.42 49.3,-39.44 33.59,-96.82 -38.56,-214.18 -73.38,-232.75 -38.51,-20.48 -96.82,-25.06 -137.79,-67.91 -47.38,-49.59 -40.88,-75.64 -114.7,-77.27z"/>
    <polygon class="fil0" points="3737.95,1045.33 3734.6,1033.61 3725.2,1040.99 "/>
    <polygon class="fil0" points="2442.39,5330.22 2430.62,5333.52 2438.01,5343.03 "/>
    <polygon class="fil0" points="2442.39,11488.2 2430.62,11491.5 2438.01,11500.96 "/>
    <polygon class="fil0" points="16321.38,13155.98 16309.71,13159.28 16317.1,13168.73 "/>
    <polygon class="fil0" points="7675.9,4034.52 7679.2,4046.24 7688.7,4038.85 "/>
    <polygon class="fil0" points="6649.67,4175.61 6646.37,4163.89 6636.92,4171.28 "/>
    <polygon class="fil0" points="3968.82,6343.74 3957.05,6347.04 3964.44,6356.49 "/>
    <polygon class="fil0" points="18758.55,10077.01 18755.25,10065.24 18745.8,10072.68 "/>
    <polygon class="fil0" points="22619.62,13694.8 22622.92,13706.52 22632.37,13699.13 "/>
    <polygon class="fil0" points="4161.24,5150.62 4157.94,5138.89 4148.48,5146.28 "/>
    <polygon class="fil0" points="30367.22,10397.71 30378.99,10394.41 30371.6,10384.96 "/>
   </g>
  </g>
 </g>
</svg>
