<?xml version="1.0" encoding="UTF-8"?>
<!DOCTYPE svg PUBLIC "-//W3C//DTD SVG 1.1//EN" "http://www.w3.org/Graphics/SVG/1.1/DTD/svg11.dtd">
<!-- Creator: CorelDRAW 2017 -->
<svg xmlns="http://www.w3.org/2000/svg" xml:space="preserve" width="320mm" height="150mm" version="1.1" style="shape-rendering:geometricPrecision; text-rendering:geometricPrecision; image-rendering:optimizeQuality; fill-rule:evenodd; clip-rule:evenodd"
viewBox="0 0 32000 15000"
 xmlns:xlink="http://www.w3.org/1999/xlink">
 <defs>
  <style type="text/css">
   <![CDATA[
    .fil0 {fill:#D7B56D}
   ]]>
  </style>
 </defs>
 <g id="Слой_x0020_1">
  <metadata id="CorelCorpID_0Corel-Layer"/>
  <path class="fil0" d="M16263.84 2816.8c-5.12,17.89 -315.41,85.11 -404.41,127.87 -106.02,50.92 -229.82,131.76 -325.35,200.26 -225.57,161.76 -96.59,130.45 -260.52,-34.51 -324.63,-326.69 -396.96,-208.4 -301.29,-366.29 41.13,-67.88 85.69,-31.42 165.33,-25.4 129.89,9.83 268.91,28.32 399.13,43.22 69.51,7.94 732.23,36.93 727.11,54.85zm-1511.87 -147.8c-27.57,50.06 -25.94,80.74 -80.3,83.84 -43.58,2.49 -82.1,2.84 -53.89,39.11 21.04,27.05 36.04,47.88 -3.58,72.13 -51.42,31.46 -145.41,47.9 -226.7,217.75 -34.65,72.39 -59.73,85.64 -43.32,169.67 13.74,70.35 112.27,188.58 209.14,87.96 30.62,-31.78 62.85,-66.75 79.49,-97.66 28.55,-53.04 16.12,-40.11 66.15,5.65 62.07,56.75 173.28,140.89 247.04,196.89 55.55,42.18 73.46,36.33 26.35,99.82 -69.07,93.09 -200.36,138.56 -306.24,177.84 -37.06,13.75 -104.15,69.26 -108.77,70.79l-104.55 2.84c-112.91,-134.46 -585.38,-1359.69 -619.71,-1403.62 -29.46,-37.71 -158.72,-118.66 -158.74,-118.75 72.61,-38.69 226.94,-9.61 245.74,103.62 30.65,184.6 32.15,130.19 216.23,181.32 87.39,24.28 550.99,120.3 615.66,110.8zm779.21 -530.08l238.04 94.9c-58.12,34.7 49.04,58.36 71.17,64.39 60.81,16.53 86.94,49.19 115.12,56.24 -130.38,-5.01 -330.82,-31.92 -463.19,-51.29 2.79,-72.83 26.79,-101.1 38.86,-164.24zm1246.3 391.18l-1313.26 -577.74 -13.58 31.79c0.7,-12.03 237.34,-422.46 266.28,-472.15 46.57,-79.92 99.73,-156.51 140.67,-237.89 23.99,-47.71 42.37,-75.55 11.39,-122.48 -78.7,-119.22 2.48,-18.85 -25.31,-112.67 -163.81,-74.72 -214.7,139.13 -299.04,284.85 -79.83,137.96 -165.39,275.89 -241.7,415.42 -132.46,242.17 -82.83,259.17 -349.68,257.44 -481.63,-3.14 -1045.4,31 -1526.6,25.62 -93.96,-1.04 -50.21,-266.26 -377.8,-7.35 -46.72,36.93 -312.96,259.59 -341.32,266.64l-33.49 -172.34 -154.46 -6.01c-17.05,54.36 -7,229.44 -2.93,279.16 10.7,130.57 190.12,113.6 267.66,82.32 72.45,-29.23 119.41,-164.58 250.2,-202.69 120.03,-34.97 117.51,144.59 211.97,207.92 49.43,33.15 205.48,26.84 320.66,113.51 48.84,36.77 144.71,228.4 168.32,291.77 72.74,195.23 135.76,499.5 171.29,707.72 16.54,96.92 137.61,654.59 173.15,705.04 116.72,165.68 573.37,32.67 738.37,-27.42 196,-71.41 1120.39,-640.98 1234.93,-558.56 12.09,28.82 -228.03,319.75 -258.84,422.89 -82.39,275.83 133.37,332.53 244.53,455.12 219.16,241.7 -203.39,758.69 -343.68,957.15 -281.24,397.9 -322.34,477.24 -512.18,928.01 -134.74,319.96 -299.7,674.8 -469.2,977.07 -353.42,630.29 -876.34,1069.96 -1292.23,1658.78 -104.76,148.3 -276.16,284.55 -99.02,434.13 178.64,150.83 344.43,165.42 186.28,400.28 -69.17,102.72 14.91,139.65 100.77,159.86 82.64,19.44 64.05,-26.66 326.87,42.53 73.21,19.27 207.87,56.87 213.89,154.8 9.76,158.67 -72.12,162.38 -92.95,244.16 29.81,98.03 535.02,106.56 664.57,105.11 397.89,-4.45 352,111.53 290.21,239.55 -72.32,149.87 -86.21,143.39 61.02,156.93l712.47 65.54 1.61 -17.45c169.15,464.74 489.44,1362.35 560.14,1823.86 24.52,160.12 68.11,793.11 40.4,936.41 -32.68,168.97 -104.7,292.45 17.47,449.93 88.61,114.2 305.38,173.07 436.92,111.44 283.43,-132.81 8.23,-594.94 59.03,-829.19 57.73,-266.14 -216.16,-518.16 -209.73,-869.61 9.88,-541.57 -39.46,-1092.51 -18.12,-1630.42 246.74,319.49 470.51,729.09 696.72,1069.9 257.7,388.23 384.66,838.66 383.63,1303.08 -0.54,243.37 -29.12,402.8 -176.07,603.67 -41.77,57.1 -202.07,185.62 -56.96,241.84 56.55,21.92 334.72,47.64 390.37,27.63 188.11,-67.68 481.8,-73.13 520.27,-350.65 8.46,-61.01 -14.68,-224.09 -14.98,-308.83 -0.43,-123.67 37.2,-205.56 54.27,-317.5l119.46 414.58c203.75,-12.38 19.98,-518.07 8.73,-649.85 -37.7,-441.8 -105.26,-234.21 -375.56,-478.98 -144.36,-130.72 -196.89,-727.47 -338.95,-1038.96 -23.26,-50.99 -149.19,-278.45 -148.8,-307.36 113.6,-131.46 823.73,239.88 695.17,-110.82 -9.3,-90.21 -45.77,-146.12 39.26,-167.83 198.51,-50.67 261.54,117.84 395.99,-172.92 39.68,-85.8 189.24,-107.64 312.72,-140.45 178.12,-47.31 149.5,-43.57 70.22,-142.52 -46.8,-58.43 -9.66,-64.11 51.07,-88.96 61.7,-25.27 126.82,-58.32 190.39,-90.88 117.27,-60.09 33.91,-46.62 -17.64,-151.86 -16.73,-34.18 20.76,-80.77 64.46,-120.77 94.31,-86.35 118.68,-45.72 47.67,-150.39 -110.08,-162.25 -379.74,-518.41 -446,-636.64 -137.61,-245.57 -286.57,-529.94 -406.04,-784.35 -255,-542.97 -477.99,-1117.52 -741.24,-1648.27 -138.58,-279.41 -243.89,-506.53 -426.85,-764.37 -210.96,-297.29 -258.26,-440.26 -209.46,-810.95 42.12,-319.92 190.82,-494.3 355.67,-752.82 72.36,-113.47 373.93,-720.23 392.2,-739.1 13.73,81.38 241.8,189.34 313.28,127.52 4.37,-63.44 -167.15,-117.93 -13.68,-251.37l-12.23 19.06 227.13 145.67 19.23 -29.97c16.89,-61.99 -105.59,-86.04 -64.5,-228.94 26.45,-91.95 99.2,-78.36 106.78,-199.51 9.97,-159.24 -12.51,-98.38 -72.23,-209.81 -31,-57.79 -81.26,-152.26 -17.7,-185.6 43,-22.52 43.01,10.02 61.46,48.33 13.92,28.92 55.06,92.72 66.69,27.08 11.49,-64.93 8.03,-205.76 -18.79,-244.36 -79.97,-115.1 -131.72,-14.04 -204.42,-161.61l292.28 46.48 3.18 -30.77c-6.24,-23.34 -343.26,-137.84 -374.46,-269.99 -17.2,-72.85 77.26,-168.61 146.82,-123.25 109.27,71.28 70.46,136.14 96.07,199.65 59.55,147.69 170.34,-281.8 -81.68,-315.75 -198.06,-26.67 -367.82,-15.23 -207.33,-280.28 104.11,-171.96 -21.84,-298.34 -144.66,-397.72 -237.58,-192.23 -209.41,-101.38 -199.46,-361.97 5.12,-134.03 -159.26,-286.54 -247.3,-381.8 -144.97,-156.82 -124.41,-231.35 -347.62,-299.6 -448.63,-137.2 -1157.41,403.61 -1227.01,574.89 -42.56,104.77 20.6,132.6 44.82,217.95 28.58,100.64 -41.86,134.84 -19.46,232.86 37.49,164.02 79.42,264.43 14.74,413.11 -43.97,101.06 55.57,100.27 115.62,134.23 72.16,40.81 0.28,107.82 112.94,175.09 114.12,68.15 86.86,119.7 143.31,174.27 56.45,54.6 206.46,-2.59 245.59,-33.04 126.52,-98.42 159.12,-25.29 89.26,47.94 -16.85,17.66 -165.28,135.18 -172.34,137.76z"/>
 </g>
</svg>
