<?xml version="1.0" encoding="UTF-8"?>
<!DOCTYPE svg PUBLIC "-//W3C//DTD SVG 1.1//EN" "http://www.w3.org/Graphics/SVG/1.1/DTD/svg11.dtd">
<!-- Creator: CorelDRAW 2017 -->
<svg xmlns="http://www.w3.org/2000/svg" xml:space="preserve" width="320mm" height="150mm" version="1.1" style="shape-rendering:geometricPrecision; text-rendering:geometricPrecision; image-rendering:optimizeQuality; fill-rule:evenodd; clip-rule:evenodd"
viewBox="0 0 32000 15000"
 xmlns:xlink="http://www.w3.org/1999/xlink">
 <defs>
  <style type="text/css">
   <![CDATA[
    .fil0 {fill:#D7B56D}
   ]]>
  </style>
 </defs>
 <g id="Слой_x0020_1">
  <metadata id="CorelCorpID_0Corel-Layer"/>
  <path class="fil0" d="M16258.32 13362.46c43.56,17.88 68.29,78.93 91.08,122.47 27.39,52.34 44.19,95.74 65.42,150.42 44.25,123.38 17.99,216.8 43.31,339.86 -34.04,-6.57 -251.09,-99.76 -301.22,-111.99 3.56,-48.82 2.91,-93.33 10.29,-145.83l21.59 -194.03c27.46,-111.92 16.5,-114.95 69.53,-160.9zm-622.02 -4626.56c208.36,226.92 385.9,558.57 595.18,813.37 133.68,147.93 336.54,342.56 490.08,482.53 89.05,81.18 82.66,36.18 177.7,212.2 29.21,54.11 114.15,127.04 54.57,175.22 -317.89,257.04 -523.64,690.62 -465.79,1101.86 13.36,94.94 -53.49,393.38 -90.17,485.9 -49.43,124.76 -63.09,168.29 -134.02,296.7 -0.29,1.1 -45.96,78.02 -52.8,88.86l-168.12 265.1c-18.61,41.78 -147.05,200.21 -159.52,263.68 -6.62,33.64 -0.52,64.92 11.48,95.87 34.44,88.9 79.08,73.23 85.99,340.58 2.57,99.58 43.13,431.49 34.77,485.65 -40.87,-1.51 -208.32,-23.83 -278.94,-31.97 -16.28,-191.58 -26.46,-676.44 -30.75,-1139.09 -5.64,-606.96 -31.42,-1260.92 -23.24,-1860.19 -12.73,-685.16 -8.5,-1394.46 -46.42,-2076.27zm564.81 -3226.66c53.07,45.42 132.26,272.76 152.11,352.3 57.28,229.48 64.48,393 50.39,621.52 -16.77,152.27 -27.69,224.83 -121.75,348.22 -54.61,71.67 -553.93,301.58 -678.85,377.36 -7.29,-86.14 0.83,-180.84 -1.66,-267.89l-16.87 -580.33c1.81,-48.95 -12.55,-83.01 11.75,-115.3 101.37,73.17 81.57,163.38 71.16,260.48 -4.54,42.39 -27.78,61.91 21.61,85.55 51.21,-39.35 68.16,-146.8 79.86,-202.36 10.82,-51.35 -8.19,-135.33 -26.07,-186.91 -19.77,-57.07 -114.58,-121.09 -131.43,-243.17 -15.07,-109.25 38.42,-130.52 96.03,-201.47 43.84,8.05 25.55,6.99 46.54,50.4 12.17,25.19 25.19,40.31 37.97,65.86 30.47,60.94 41.14,86.28 57.2,153.21 73.61,306.83 -61.07,364.29 -91.66,549.13 -4.21,25.44 -7.25,23.5 -13.28,49.56 -12.47,53.84 12.93,183.18 36.55,231 39.91,80.77 19.68,58.67 55.71,62.86 68,-62.3 -60.55,-60.75 39.91,-329.52 14.84,-39.71 30.05,-57.96 57.68,-88.25l60.91 -80.63c17.09,-33.33 24.79,-71.78 24.47,-107 -0.38,-41.55 7.42,-71 -4.06,-122.06 -6.91,-30.78 -1.93,-53 -6.38,-94.74 14.03,-0.7 10.71,-16.31 48.57,58.35 10.96,21.61 20.46,71.22 16.85,95.79l-32.04 98.99c-37.67,66.6 -47.96,291.4 18.69,366.77 62.37,70.55 49.84,-89.25 49.84,-89.37 0.75,-38.68 7.63,-62.87 10.29,-103.1 3.46,-52.4 39.52,-169.63 80.63,-198.68 2.7,-34.66 -5.1,-29.21 -0.64,-55.67 5.28,-31.28 9.01,-23.93 9.39,-57.62 3.01,-263.8 -179.23,-314.73 -139.63,-408.39 33.9,-80.15 17.77,-74 56.96,-142.14l73.25 -152.75zm-784.87 8311.13c-81.5,-24.64 -409.81,62.5 -494.2,95.19 -80.3,31.1 -201.21,89.1 -216.57,185.64 -13.33,83.84 90.94,142.3 186.01,193.03 167.36,89.29 462.24,132.85 760.1,129.86 404.4,-4.06 647.44,-114.34 842.7,-270.18 20.74,41.99 79.34,59.19 112.02,66.43 271.74,60.19 439.73,-41.36 544.97,-149.78 89.9,-92.61 179.58,-400 137.57,-493.74 -25.14,-56.11 -99.98,-71.81 -144.29,-99.33 -66.04,-42.76 -146.08,-69.76 -191.39,-128.66 -47.14,-61.27 -57.44,-219.51 -164.72,-399.11 -104.3,-174.62 -143.12,-41.11 -95.97,-409.81 19.55,-152.87 68.76,-261.8 124.17,-391.54 61.81,-144.69 104.64,-233.58 178.57,-371.07 29.63,-55.16 62.04,-118.08 98.75,-167.99 55.78,-75.83 181.1,-287.69 247.6,-323.81 58.22,232.02 133.44,437.1 282.83,628.59 38.56,49.44 81.21,97.81 133.31,136.93l249.88 244.19c76.17,85.52 101.07,243.79 101.5,357.3 0.16,40.94 -18.14,84.98 -35.38,118.49 -36.31,70.59 -67.6,64.26 -110.18,151.63 -59.01,121.05 122.23,150.45 132.24,358.93 14.43,299.88 96.97,608.65 93.88,924.12 47.59,1.24 70.26,4.18 86.29,-5.1 25.44,-14.75 14.62,-172.99 14.85,-207.78 1.05,-160.78 3.27,-618.88 49.87,-759.37 85.16,61.9 112.63,91.92 170.59,181.8 79.85,123.79 82.11,310.85 78.25,452.56 -1.24,45.11 14.74,177.58 36.76,212.64 94.88,137.53 156.8,152.03 254,144.4 359.06,-28.13 284.1,50.09 494.44,-256.01 20.72,-30.16 46.32,-117.36 56.17,-155.36 12.67,-48.87 41.05,-306.96 -9.86,-328.37 -24.32,-1.91 -44.27,2.27 -64.41,-6.34 -68.3,-29.17 -144.37,-36.12 -200.55,-96.48 -154.96,-166.5 -85.99,-380.08 -189.41,-579 -64.4,-123.82 -214.38,-306.09 -299.36,-430.58l-379.57 -643.59c-110.46,-214.45 -549.02,-1119.94 -526.23,-1233.56 40.59,-45.7 14,-6.69 38.73,-56.92 44.3,-90.01 83.71,-151.63 60.36,-275.69 -12.26,-65.11 -141.88,-314.1 -182.48,-379.12 -15.07,-24.14 -18.81,-44.47 13.64,-93.98 43.01,-65.62 53.3,-83.56 73.1,-162.08 28.05,-111.31 -36.93,-246.17 -54.55,-357.98 44.19,-7.53 128.91,56.62 168.64,83.85 31.28,21.44 61.12,39.9 98.67,19.56 0.57,-55.55 -269,-306.74 -317.81,-344.76 -77.71,-60.58 -160.11,-119.22 -249.55,-158.94 -17.33,-52.64 -79.01,-650.47 -95.19,-756.51 -22.56,-147.96 -36.29,-300.37 -69.56,-449.1l-36.37 -230.99c-12.9,-120.88 -45.71,-80.11 62.86,-206.23 158.63,-184.28 269.77,-240.88 398.26,-460.61 12.21,-20.86 23.6,-37.46 35.84,-61.48 39.41,-77.32 75.65,-251.26 89.26,-342.86 7.75,-52.15 -7.75,-214.39 -21.81,-266.63 135.34,-111.4 181.73,-194.82 203.8,-371.37 10.55,-84.39 -40.79,-143.41 -29.54,-229.59 -3.61,-3.22 -32.1,-41.06 -34.06,-44.81 -104.48,-2.93 -204.63,-67.57 -306.9,-90.24 -187.62,-41.64 -366.69,-176.71 -512.46,-296.07 -31.62,-25.9 -134.41,-159.21 -160.71,-203.63 -89.08,-150.47 -213.03,-504.9 -84.75,-651.99 48.39,-55.48 52.81,-107.96 130.24,-121.01l117.37 -38.68c115.18,-163.46 11.92,-270.05 -90.95,-405.01 -34.81,-45.66 -44.81,-96.56 -72.45,-144.89 -65.43,-114.39 -207.53,-23.6 -308.3,-82.33 -30.85,-17.97 -117.65,-189.39 -184.36,-250.08 -57.92,-52.7 -178.33,-121.52 -255.19,-138.23 -67.12,-14.6 -295.98,8.45 -358.81,36.52 -292.14,130.56 -261.21,336.88 -259.31,-118.75 1.91,-455.58 0.64,-911.88 -0.09,-1367.51 -0.92,-576.75 -37.87,-424.31 194.54,-471.53 140.92,-28.62 508.87,-79.88 535.97,-256.34 25.25,-164.41 -329.7,-250.97 -447.37,-275.52 -358.83,-74.89 -792.67,-68.73 -1144.58,42.22 -81.81,25.79 -210.74,77.93 -242.19,165.38 -32.83,91.33 77.07,185.55 149.3,219.55 134.55,63.35 300.53,94.39 440.54,115.98 132.96,20.49 168.78,-72.99 166.14,220.56 -4.53,502.8 -25.82,998.68 -23.22,1504.6 1.14,222.36 -8.22,448.27 0.69,670.25 7.54,187.64 -9.3,139.64 -81.64,291.06 -227.36,475.93 97.33,608.71 68.5,926.82 -9.79,107.87 -93.83,172.4 -122.8,260.65 -28.08,85.56 -14.95,235.95 29.73,313.41 68.63,118.96 125.09,119.4 154.32,280.09 35.68,196.16 -16.3,164.85 -49.86,320.45 -28.9,133.99 6.78,184.5 53.16,298.16 12.95,31.75 19.6,103.38 22.74,190.74 14.27,397.3 6.07,794.36 14.2,1192.33 0.11,5.66 0.75,11.95 0.39,17.65 -0.29,4.65 -55.92,112.79 -61.49,122.71 -100.74,179.26 -59.82,449.31 10.01,637.15 31.16,83.81 66.09,127.99 66.09,127.99 4.92,8.88 50.29,1830.13 76.2,3008.27 17.46,793.43 32.5,1631.13 39.83,2420.34z"/>
 </g>
</svg>
