<?xml version="1.0" encoding="UTF-8"?>
<!DOCTYPE svg PUBLIC "-//W3C//DTD SVG 1.1//EN" "http://www.w3.org/Graphics/SVG/1.1/DTD/svg11.dtd">
<!-- Creator: CorelDRAW 2017 -->
<svg xmlns="http://www.w3.org/2000/svg" xml:space="preserve" width="320mm" height="150mm" version="1.1" style="shape-rendering:geometricPrecision; text-rendering:geometricPrecision; image-rendering:optimizeQuality; fill-rule:evenodd; clip-rule:evenodd"
viewBox="0 0 32000 15000"
 xmlns:xlink="http://www.w3.org/1999/xlink">
 <defs>
  <style type="text/css">
   <![CDATA[
    .fil0 {fill:#D7B56D}
   ]]>
  </style>
 </defs>
 <g id="Слой_x0020_1">
  <metadata id="CorelCorpID_0Corel-Layer"/>
  <path class="fil0" d="M16397.5 12421.82l63.61 119.26c-92.1,-10.74 -87.45,-39.62 -63.61,-119.26zm-1922 -116.2l883.86 -37.31c103.99,-16.71 194.65,-13.5 308.47,-13.38l-16.03 208.34c-82.39,4.25 -83.77,-6.42 -146.4,-14.07 -294.52,-35.94 -633.84,-22.86 -937.92,-69.59 -96.51,-14.82 -96.84,12.11 -91.98,-73.99zm2846.11 117.08c-37.05,31.19 -145.84,69.08 -191.22,81.63 -153.37,42.38 -291.34,-38.31 -390.39,-137.36 -39.72,-39.74 -103.26,-98.1 -108.24,-153.99l558.67 -19.82c82.53,-0.57 91.96,-11.33 141.98,-45.5 -6.6,56.5 -14.93,106.72 -14.83,147.63 0.07,34.6 4.8,104.4 4.03,127.41zm-2885.32 -194.08c43.41,-42.94 1196.06,-303.62 1218.6,-300 19.61,57.42 20.37,182.73 5.79,241.31l-1224.39 58.69zm2169.83 -106.12c-15.63,-67.83 6.62,-204.58 40.64,-263.6 41.95,-72.85 84.85,-133.61 155.51,-172.67 6.38,9.01 71.39,183.28 78.2,205.13 20.68,66.42 77.42,153.73 83.25,220.71 -109.56,2.94 -252.25,31.73 -357.6,10.43zm-2262.05 47.77c-38.7,-20.08 -70.88,-48.86 -110.22,-65.41 -65.63,-27.61 -62.07,-25.21 -126.04,-61.19l317.83 -710.77c106.48,-246.31 215.51,-433.96 366.14,-667.89 102.54,34.28 353.07,244.96 419.52,318.12l212.9 283.44c78.07,120.72 204.91,440.46 212.76,560.34 -80.24,35.63 -531.68,124.71 -655.72,158.2 -166.92,45.08 -506.91,111.9 -637.17,185.16zm2799.14 -550.21c141.26,5.02 144.12,83.83 232.84,114.21 -20.33,32.12 -29.27,238.69 -62.04,336.36l-170.8 -450.57zm-234.72 -642.84c43.6,125.44 246.78,259.95 276.19,333.54 -62.11,-7.41 -111.46,-40.34 -169.58,5.66 -3.79,-94.36 -108.44,-262.81 -106.61,-339.2zm-1270.29 1566.19c-261.76,1165.92 -1523.46,1793.47 -2673.69,1118.71 -448.52,-263.11 -796.56,-836.58 -813.83,-1357.3 -11.19,-337.77 24.92,-605.48 178.02,-908.32 90.74,-179.47 310.89,-504.36 489.39,-593.47 13.01,175.18 16.76,947.32 -38.5,1076.81 -46.76,109.6 -67.94,128.83 -83.87,256.36 -45.6,364.83 186.22,292.43 535.62,295.78 214.75,2.04 987.8,-19.3 1119.39,6.16 184.07,35.63 439.5,50.23 628.38,57.37 206.34,7.79 451.04,54.03 659.09,47.9zm5295.43 -2060.18c514.42,-71.93 926.98,-42.97 1374.37,237.04 324.19,202.89 626.13,574.32 736.56,942.03 270.79,901.77 -146.71,1844.96 -1031.49,2189.12 -881.48,342.88 -1835.36,-52.63 -2246.48,-893.48 -214.47,-438.67 -209.9,-944.16 -38.91,-1394.98 158.79,-418.6 414.13,-671.07 787.31,-903.84 51.63,54.08 256.87,525.22 308.99,646.1l309.41 666.26c51.15,120.2 165.88,312.71 268.3,390.94 47.51,0.6 159.41,-20.89 197.1,-46.38 7.58,-49.4 -85.58,-413.34 -110.34,-472.37 -114.9,-274.07 -529.6,-1205.4 -554.82,-1360.44zm-7222.2 1392.7c-28.28,1.53 -151.78,-31.77 -174.63,-49.55 -37.23,-28.92 -55.54,-127.99 -63.76,-174.6 -20.27,-115.02 28.21,-281.4 62.68,-393.76 54.09,-176.3 68.9,-729.73 148.09,-825.78 89.69,-40.98 462.52,-9.83 550.14,11.73 2.96,213.31 -66.64,528.83 -178.66,727.81 -57.81,102.65 -309.76,674.69 -343.86,704.15zm1671.15 -1715.92c54.14,-62.47 40.86,-18.59 117.21,-21.05 101.72,-3.29 300.79,-50.42 406.61,-92.28 36.71,-14.54 93.96,-3.84 138.12,-13.98 145.85,-33.46 118.28,-21.08 263.95,381.71 82.65,228.56 180.94,463.54 269.88,690.82 42.73,109.15 145.6,242.87 46.42,330.37 -56.07,49.45 -201.53,216.52 -257.77,220.71 -37.83,-46.1 -175.22,-950 -984.42,-1496.3zm1219.38 63.86c-20.09,-126.72 -63.14,-176.98 -85.97,-256.24 -17.34,-60.14 -16.46,-5.87 4.99,-76.65 38.17,25.56 6.83,8.59 41.77,13.83 80.78,12.12 23.4,-52.86 35.54,161.99 4.54,80.5 35.61,65.43 3.67,157.07zm-1418 -573.11l212.77 -482.97c56.87,-136.1 200.68,-408.44 211.45,-507.96l19.12 21.75c8.97,12.04 17.24,23.19 24.15,37.5 85.59,177.51 164.24,475.23 258.84,650.39l-535.5 253.55c-30.92,7.16 -66.3,-2.44 -147.05,20.2 -4.6,1.3 -16.15,6.5 -19.81,7.33 -38.7,8.67 11.67,11.7 -23.97,0.21zm904.18 -798.1c54.02,13.28 105.76,63.96 152.19,97.77l63.13 -32.03c85.97,50.48 190.24,96.91 277.77,140 -71.24,32.55 -304.05,133.69 -350.37,182.77l-72.96 -193.45c-26.22,-68.25 -23.22,-121.51 -69.76,-195.06zm2128.66 -89.39c291.85,-11.1 632.81,-48.71 913.7,-47.26 110.38,0.57 222.35,-19.4 315.33,-17.53 162.05,3.26 59.58,132.22 278.21,142.18 164.63,7.48 153.28,-89.69 216.39,85.12 69.82,193.37 33.53,128.87 -91.05,264.61l-1104.92 1134.14c-135.22,117.91 -311.6,323.95 -436.33,460.87 -77.04,84.58 -150.69,127.36 -226.78,221.35 -30.87,38.15 -193.43,211.5 -211.67,221.31 -27.02,-51.51 -28.82,-140.77 -49.99,-212.27 -13.89,-69.26 -54.52,-214.88 -58.15,-276.64l-144.58 -734.96c-33.7,-120.85 -36.12,-342.19 -67.41,-444.71 74.93,-59.63 453.58,-214.49 614.6,-309.45 208.47,-122.98 178.82,-302.25 51.3,-479.3 0.21,-1.12 0.63,-5.04 1.35,-7.46zm-228.91 -283.23c45.27,-12.39 6.86,28.84 72.57,-12.49 25.84,77.13 72.28,104.57 81.89,184.47 -56.05,-55.29 -101.67,-112.08 -154.46,-171.98zm1453.21 -607c181.8,11.1 524.11,-108.69 508.49,142.4 -11.05,177.64 -136.76,82.38 -137.59,82.11 -144.45,106.21 -119.28,83.06 -268.1,11.36 -9.99,-103.01 -69.29,-131.52 -158.54,-162.15 38.05,-22.06 28.09,-10.36 55.74,-73.72zm-516.24 209.55c-20.14,55.85 -40.25,31.2 -117.55,48.47 -74,16.52 -406.56,-8.43 -640.18,9.19 -151.29,11.4 -414.52,43.67 -554.97,69.55 -242.7,-144.53 -426.52,-209.06 -645.86,-422.06 31.33,-146.32 251.2,-52 302,-203.98 55.08,-164.77 -20.64,-265.02 93.14,-369.15 150.67,-137.89 219.8,-301.06 455.2,-305.46 140.36,-2.61 25.96,-44.94 164.88,42.08 577.41,361.73 607.72,501.35 943.34,1131.36zm-4337.36 -3275.64c266.05,-26.74 176.03,-37.08 277.37,-56.06 116.71,-21.87 118.4,28 220.78,88.11 312.1,183.21 396.46,269.21 749.64,323.87 98.17,15.19 193.92,16.28 283.69,34.61 160.55,32.75 486.52,44.81 622.63,100.99 -79.71,79.94 -721.25,439.11 -752.73,463.5 -444.52,344.55 -558.43,208.97 -782.06,1056.85 -30.7,116.38 -140.35,300.43 -227.56,382.24 -99.96,93.77 -154.84,315.47 -103.53,491.2 30.31,103.76 115,186.61 145.99,272.22 -19.99,72.8 -51.82,70.32 -120.15,51.24 -173.95,-48.55 -314.48,-3.88 -397.92,180.23 -79.71,175.95 58.44,349.41 167.75,399.74 240.01,110.47 205.89,-102.11 376.55,-124.53 68.78,-9.03 69,13.44 138.21,11.23 74.37,-2.4 35.46,-19.78 111,24.99 -52.64,90.31 -95.16,188.95 -132.39,286.09l-202.86 421.03c-22.32,45.83 -35.78,95.03 -63.38,144.31l-128.49 280.94c-70.05,-46.69 -177.56,-160.84 -327.71,-31.94 -59.92,51.43 -45.08,67.28 -69.47,106.17 -28.82,-1.88 -53.79,-8.5 -72.59,-10.76l-420.62 -15.11c15.48,-263.18 132.9,-732.66 173.99,-1030.2 49.54,-358.61 72.89,-476.16 197.26,-830.67 109.39,-311.79 245.18,-720.03 313.47,-1208.29 56.28,-402.29 91.36,-798.74 62.45,-1201.02 -14.3,-198.98 -16.44,-416.44 -39.32,-610.98zm146.48 -1739.42c77,-9.36 111.3,15.22 174.91,-16.75 75.82,-38.13 51.5,-58.19 91.62,-117.9 91.37,-136.02 187.79,-114.96 224.32,-224.94 70.22,-211.41 119.19,-94.34 257.75,-174.68 23.05,-82.44 -56.83,-338.9 -40.69,-392.51 18.02,-59.83 69.32,-106.63 117.34,-135.46 171.04,-102.72 79.98,-183.09 215.72,-216.14 45.44,-75.65 4.34,-76.39 91.43,-117.7 59.49,-28.2 63.78,-35.46 108.72,-83.7 163.02,-174.99 123.26,-298.61 -2.3,-484.63 -52.66,-77.99 -94.84,-201.8 -203.44,-134.66 -7.16,78.98 72.11,81.03 69.08,171.75 -1.88,56.35 -80.12,89.15 -126.64,80.58 -53.57,-100.82 -13.5,-110.09 -142.6,-321.56 -253.13,-414.6 -367.89,-365.13 -444.43,-436.56 -58.25,-54.37 -193.31,-67.32 -268.05,-106.55 -97.86,-51.37 -190.28,-55.03 -293.43,-74.47 -43.71,-8.22 -93.29,-31.81 -142.23,-41.27 -53.57,-10.33 -123.52,2.53 -150.67,-4.65 -130.25,-34.42 -32.92,-35.34 -172.3,6.87 -69.74,21.11 -121.69,-12.36 -174.87,10.85 -62.42,27.21 -42.64,52.13 -144.1,82.09 -111.52,32.94 -51.47,33.53 -89.55,103.55l-98.76 32.68c-36.04,82.23 -165.9,241.27 -185.74,306.51 -22.33,73.49 26.15,49.07 -25.96,129.71l-221.11 -241.93c-49.2,14.52 -78.92,48.3 -107.24,95.11 -44.54,73.62 0.6,47.83 -95.56,79.79 -35.86,124.36 19.37,306.18 -22.96,372.72 -72.12,-8.63 -28.21,-15.12 -100.19,-34.95 -38.47,30.43 -15.58,14.85 -40.76,43 -13.12,14.67 -23.26,23.88 -37.98,40.72 24.97,156.1 496.06,667.55 658.85,784.56l259.92 202.01c20.11,80.62 -18.2,184.76 -18.03,265.96 0.2,83.65 21.79,152.56 -58.78,196.84 -37.01,-13.58 -38.68,-62.21 -104.83,-25.83 -39.08,-58.08 -26.98,-43 -79.08,-47.11 -1.06,-0.08 -5.92,1.92 -6.63,-0.32 -37.9,-119.92 -86.39,-172.17 -168.58,-182.38 -163.92,-20.39 -95.93,79.32 -133.01,183.53 -126.91,-13.73 -214.05,43.24 -109.46,161.24 58.95,66.47 145.5,149.9 178.34,229.83 -58.38,24.48 -84.78,20.64 -93.44,82.44 -8.72,62.33 21.26,-30.83 -2.84,25.96l-105.97 38.1c-27.45,87.78 -6.42,50.3 -94.06,95.89 -33.47,39.82 19.46,42.32 -10.3,69.67 -111.37,49.07 -69.79,11.17 -142.85,103.22 -19.52,-38.91 -8.5,-22.02 -34.58,-51.28l-319.56 -335.52c-162.37,-157.18 -98.78,-156.35 -305.35,-136.01 -18.61,50.86 -7.47,57.13 -6.96,102.41 1.4,123.45 40.26,286.64 90.17,397.43 -64.01,-19.84 -124.49,-68.15 -187.55,-99.02 -381.37,-186.77 -486.69,-161.5 -856.81,-248.73 -149.07,-35.12 -477.18,-155.15 -582.23,-245.14 2.57,-148.62 108.48,-178.41 203.09,-270.4 74.41,-72.34 157.87,-157.4 228.85,-234.6 305.82,-332.62 -97.68,-657.3 -382.77,-796.31 -66.38,-32.37 -260.13,-128.72 -317.55,-146.12 -154.66,-46.9 -229.24,-16.18 -374.71,-105.18 -40.05,-24.5 -116.25,-50.5 -189.81,-64.2 -104.67,-19.51 -139.56,-33.06 -176.89,60.4 -75.81,189.94 8.41,129.13 165.45,286.45 163.84,164.17 451.52,190.06 712.58,328.8l186.26 165.14c68.33,94.08 -32.73,162.47 -89.59,219.34 -200,200.1 -432.25,301.59 -341.63,610.77 46.99,160.35 460.65,358.85 597.65,443.08 426.1,261.95 573.49,164.73 749.91,198.07 65.71,12.41 207.05,32.34 269.77,30.85 -89.63,72.9 -612.51,118.21 -744.26,143.06 -247.8,46.73 -314.87,24.05 -464.76,-166.9 -130.83,-166.68 -630.82,-112.46 -829.38,-144.36 -133.72,-21.49 -302.94,42.14 -343.49,177.79 -64.82,216.79 85.1,518.87 325.97,360.4 80.72,-53.09 64.54,-107.98 109.34,-174.86 75.43,5.89 382.09,8.52 418.44,20.11 35.3,113.4 -0.34,151.61 128.1,223.98 95.42,53.79 385.7,68.98 505,67.1 113.27,-1.79 1262.25,-206.3 1257.9,-180.83 -223.88,153.82 -349.83,151.2 -603.49,223.17 -720.91,204.55 -732.17,730.99 -1071.8,1044.46 -293.24,270.68 -486.25,788.56 -438.51,1185.48 84.92,122.06 721.21,37.19 944.13,123.11 384.85,148.33 411.2,404.33 648.9,664.22 214.95,235.01 548.57,296.6 821.27,490.51 302.7,215.25 591.23,244.94 667.5,653.77 105.04,562.95 -1.76,551.12 -219.45,1005.68 -187.84,392.23 20.82,621.06 -394.31,867.46 -518.29,307.64 -945.53,1025.63 -1034.31,1615.02 -208.76,1385.91 659.88,2651.6 2053.17,2892.01 385.38,66.51 800.98,32.76 1184.19,-89.51 951.43,-303.59 1454.59,-1003.86 1706.61,-1948.24 71.79,42.77 121.58,-17.8 195.45,44.1 57.25,47.98 -3.34,19.83 70.32,58.65 137.7,72.55 270.09,102.35 424.57,103.14 75.06,0.4 98.01,0.08 178.63,-22.85 145.35,-41.39 259.3,-126.41 359.58,-235.56 44.09,-47.99 7.59,-3.56 70.75,-39.79 64.79,101.77 343.09,271.14 476.66,302.4 121.57,28.44 255.78,76.56 384.32,77.66 58.05,-81 13.79,-36.02 94.76,-97.05 2.81,-62.67 -62.03,-211.67 -94.25,-271.46 -39.97,-74.12 -115.8,-144.23 -154.6,-215.75 5.19,-1.2 50.13,-12.14 56.14,-12.39 41.66,-1.81 2.66,16.99 75.15,-2.65 16.69,-57.82 -19.75,-161.23 -32.73,-226.43 -45.16,-226.84 19.83,-225.17 -138.68,-243.98 -47.9,-5.69 -67.63,-14.97 -110.51,-18.29 -61.07,-4.74 -185.11,-17.53 -234.3,-16.72 -7.96,-154.11 119.69,-177.85 214.6,-292.28 432.93,-521.93 965.86,-992.81 1452.76,-1510.57 125.71,-133.71 318.9,-275.95 423.31,-416.63 23.66,32.47 15.58,35.53 18.25,94.37 5.4,119.17 94.28,198.52 108.62,318.22 -1177.66,637.23 -1703.57,2041.17 -1133.35,3276.7 556.22,1205.16 1968.12,1761.85 3198.94,1270.1 1257.05,-502.23 1868.62,-1887.03 1430.71,-3161.55 -433.73,-1262.35 -1781.3,-1913.01 -3052.7,-1559.17 -120.9,-273.26 -241.55,-558.49 -371.75,-826.7 -53.1,-109.38 -52.34,-272.81 -64.76,-398.26 -17.23,-173.74 15.24,-252.57 56.92,-415.43 71.57,-279.57 -196.77,-605.58 -471.1,-655.31 -78.73,-14.27 -319.08,-6.1 -410.15,-3.06 -213,7.13 -174.07,-20.75 -252.55,-197.05 -45.25,-101.7 -135.28,-219.72 -170.22,-319.58 -25.42,-72.67 -5.23,-252.34 -23.56,-365.69 -59.33,-367.25 -99.56,-298.82 -98.47,-732.44 1.11,-444.81 66.13,-311.63 298.41,-500.19 239.71,-194.59 404.87,100.22 589.23,152.29 114.74,32.41 115.51,24.86 191.87,-56.61 107.71,-114.92 53.18,-44.66 105.77,-188.34l112.61 -8.78c151.47,-254.68 10.87,-147.2 295.65,-214.12 40.23,-82.84 40.89,-220.88 66.68,-321.04 92.96,-63.45 215.49,-159.59 269.68,-259.06 112.48,-206.44 132.96,-104.39 278.64,-231.53 125.54,-109.57 187.76,-342.79 124.4,-503.24 -21.95,-55.58 -23.7,-4.59 -56.09,-74.49 -29.23,-63.12 13.07,-55.89 -63.89,-56.58 -40.26,68.12 11.44,118.28 -55.85,230.07 -39.16,65.09 -52.59,115.01 -118.73,153.05 -38.4,-69.68 -52.46,-368.42 -55.43,-462.93 -2.48,-78.36 -53.72,-145.68 -93.98,-209.01 -86.12,-135.45 -1.81,-88.2 -161.52,-177.36 -50.16,-28 -165.74,-119.11 -210.31,-158.97 -93.88,-83.98 -103.27,18.16 -225.23,-74.12 -134.89,-102.09 -271.93,-48.94 -432.69,-225.43 -30.22,-33.18 -176.91,-72.74 -227.46,-73.86 -196.05,-4.39 -311.07,87.95 -395.26,251.57l-345.42 391.07c-70.51,73.03 -152.37,76.8 -96.95,198.25 172.37,377.8 -91.79,144.2 -41.53,426.05l112.34 59c53.65,251.69 -180.16,181.5 -143.5,349.62 107.66,32.45 92.34,-57.44 224.51,-33.01 17.32,50.17 15.38,75.48 41.72,102.42 1.46,1.49 7.65,9.17 8.76,6.53 1.15,-2.68 6.43,3.85 9.32,6.22 -21.97,152.54 -98.81,168.89 -203.31,267.72 -110.83,104.83 -141.52,127.53 -261.29,3.88 -71.68,-74 -169.73,-72.27 -273.95,-69.13 -189.81,5.72 -49.99,109.96 -167.77,190.13 -81.42,0.01 -85.19,-68.52 -210.56,-53.24 -64.18,7.82 -131.35,13.16 -194.75,21.35 -243.71,31.46 -81.63,169.7 -475.51,83.29 -320.08,-70.21 -648.4,-180.68 -934.2,-344.9 -307.61,-176.78 -166.36,-93.16 -479.03,-193.21 -440.48,-140.92 -532.62,-275.3 -775.54,-535.67 -107.97,-115.69 -388.35,-168.12 -408.7,-243.6 67.41,-72.5 328.09,-60.02 297.03,-204.56 -91.08,-19.18 -101.35,41.83 -188.31,-68.43 -84.72,-1.84 -35.58,32.43 -110.32,-16.9 -35,-23.08 -50.65,-43.02 -94.68,-63.84 -7.65,-59.46 -26.02,-69.32 -3.51,-132.9 144.03,-59.23 218.55,48.31 348.81,32.45z"/>
 </g>
</svg>
