<?xml version="1.0" encoding="UTF-8"?>
<!DOCTYPE svg PUBLIC "-//W3C//DTD SVG 1.1//EN" "http://www.w3.org/Graphics/SVG/1.1/DTD/svg11.dtd">
<!-- Creator: CorelDRAW 2017 -->
<svg xmlns="http://www.w3.org/2000/svg" xml:space="preserve" width="320mm" height="150mm" version="1.1" style="shape-rendering:geometricPrecision; text-rendering:geometricPrecision; image-rendering:optimizeQuality; fill-rule:evenodd; clip-rule:evenodd"
viewBox="0 0 32000 15000"
 xmlns:xlink="http://www.w3.org/1999/xlink">
 <defs>
  <style type="text/css">
   <![CDATA[
    .fil0 {fill:#D7B56D}
   ]]>
  </style>
 </defs>
 <g id="Слой_x0020_1">
  <metadata id="CorelCorpID_0Corel-Layer"/>
  <path class="fil0" d="M11783.35 11542.12c55.15,28.32 197.04,204.3 258.61,260.37 88.87,80.92 167.98,177.43 250.26,267.19 133.83,145.92 379.81,395.14 537.17,509.58 149.13,108.4 786.81,586.52 964,599.04 790.99,55.96 1348.35,-135.75 2011.67,-550.57 191.69,-119.87 444.03,-290.81 606.07,-440.39 40.32,-37.22 100.29,-75.84 140.27,-118.27l397.6 -396.94c133.23,365.37 166.5,775.22 22.87,1140.93 -146.41,372.82 -337.12,507.25 -635.74,728.24 -107.39,79.45 -304.21,187.18 -425.97,250.54 -150.29,78.21 -318.19,154.5 -476.29,214.41 -294.87,111.73 -788.16,247.63 -1099.74,266.02 -397.67,23.46 -825.43,4.54 -1208.1,-115.69 -78.01,-24.52 -327.41,-218.5 -396.35,-281.06 -127.32,-115.55 -224.32,-226.75 -324.02,-367.22 -289.03,-407.22 -293.28,-431.61 -498.22,-870.34 -68.66,-146.93 -205.03,-673.26 -200.59,-825.14 1.2,-40.8 61.33,-215.49 76.5,-270.7zm-225.59 -2801.91c123.01,12.44 224.6,95.41 320.09,169.69l721.45 572.49c389.59,293.19 956.13,816.66 1327.98,1000.01 350.97,173.05 259.75,266.08 627.05,408.79 253.72,98.58 605.79,9.22 852.8,-67.02 144.37,-44.57 242.53,-81.01 380.02,-137.17 189.6,-77.43 337.61,-170.44 501.78,-273.97l289.47 -227.53c47.58,-37.33 86.98,-88.84 136.43,-122.63 70.88,83.21 87.56,386.02 77.52,496.08 -14.56,159.71 58.32,286.14 -50.58,495.78 -91.57,176.29 -236.92,372.96 -372.84,511.22 -343.17,349.06 -446.09,385.65 -871.07,621.59 -201.03,111.61 -157.17,100.85 -382.35,207.68 -106.2,50.38 -341.79,136.09 -454.48,138.24 2.41,-22.6 35.99,-65.98 51.07,-96.58 101.46,-205.83 92.89,-464.63 27.72,-683.59 -29.63,-99.5 -56.57,-179.12 -169.56,-166.02 -30.17,15.32 -251.39,446.07 -284.49,508.81 -101.63,192.63 -75.6,250 -232.16,359.48 -44.78,31.33 -81.76,74.39 -111.94,95.57 -88.5,20.33 -679.2,-253.21 -845.74,-372.11 -76.9,-54.89 -167.9,-126.43 -244.34,-174.68 -112.28,-70.84 -310.03,-302.98 -415.99,-397.74 -156.7,-140.1 -265.83,-267.44 -393.21,-432.86 -464.22,-602.86 -920.16,-1715.92 -484.63,-2433.53zm7572.81 1776.71c124.22,-251.02 273.35,-823.51 292.48,-1081.77l27.37 -318.41c26.66,-205.83 -13.25,-740.9 -64.84,-941.39 180.4,-49.76 270.15,-80.32 457.26,-8.45 337.74,129.7 305.43,348.67 463.87,623.22 355.43,615.94 509.09,1534.81 415.41,2225.97 -107.79,795.18 -232.44,1252.59 -826.01,1787.19 -127.08,114.47 -655.22,355.3 -837.43,348.7 -145.44,-5.25 -282.22,-65.55 -371.94,-180.39 12.22,-72.22 220.91,-436.46 263.54,-547.99 28.25,-73.89 162.03,-368.48 134.07,-428.32 -27.94,-59.8 -22.61,-104.73 -77.05,-140.16 -49.69,33.83 -163.87,311.92 -207.96,390.82 -97.5,174.39 -266.96,386.19 -344.57,544.06 -25.73,52.3 -102.04,109.03 -133.79,162.1 -113.2,189.2 -551.33,593.87 -747.1,730.2 -318.1,221.54 -721.96,379.4 -1117.61,360.15 21.66,-62.69 266.8,-232.08 330.24,-284.75 227.23,-188.56 427.57,-406.91 557.38,-673 65.84,-134.94 130.93,-302.8 161.31,-454.62 81.91,-409.08 39.44,-608.07 -135.21,-979.8 -51.11,-108.79 -109.65,-329.42 -156.91,-460.06 -47.06,-130.12 -158.67,-367.8 -5.23,-468.2 198.73,65.66 208.75,282.59 809.94,210.05 164.3,-19.83 269.14,-49.01 423.58,-93.01 79.02,-22.52 294.27,-120.56 348.94,-171.95l-4.33 -292.83c-74.78,-13.82 -242.21,118.01 -553.57,117.71 -203.85,72.99 -921.4,-139.54 -1009.33,-372.48 -36.42,-57.37 -75.14,-165.79 -109.52,-234.13 -37,-73.51 -99.75,-140.94 -134.3,-214.19 -2.28,-12.33 141.03,-411.22 150.32,-495.83 18.33,-166.89 36.01,-428.04 -11.81,-588.59 -120.69,-405.21 -171.98,-535.01 -476.57,-828.29 -83.25,-80.15 -175.75,-142.51 -271.8,-207.94 -174.75,-119.02 -280.67,-828.2 -352.02,-956.25l-188.36 -304.68c-39.15,-55.06 -17.63,-57.72 -85.72,-73.86 -206.22,-48.85 -178.01,7.5 -121.01,318.71 36.7,200.4 278.78,709.52 270.01,834.86 -102.22,7.56 -357.29,-3.45 -455.06,-21.42 -555.53,-102.11 -625.27,-264.8 -1021.52,-457.62l-318.54 -172.98c-226.88,-112.93 -463.81,-203.39 -705.47,-281.6 -195.27,-63.17 -200.81,-76.33 -411.4,-54.91l-94.54 131.73c54.3,49.83 96.28,110 153.65,137.71 138.63,67.03 377.57,179.87 521.18,230.08 100.6,35.15 230.22,87.62 325.52,131.86 219.43,101.83 572.53,304.89 773.47,447.3 149.75,106.26 291.77,362.24 359.72,540.57 54.61,120.38 111.31,321.23 149.64,452.52 24.79,84.78 39.53,166.73 62,247.63 18.75,67.5 22.05,176.95 55.07,225.77 59.09,5.84 44.95,8.25 96.29,-13.78 62.68,-61.41 59.52,-594.53 34.93,-758.27 -10.33,-68.68 -45.75,-214.39 -45.69,-271.67 41.12,-24.8 242.21,-67.54 290.93,-79.71l153.59 -33.23c55.71,-11.51 123.7,-5.69 179.17,4.91 841.88,161.13 991.11,1424.04 547.41,1919.16 -381.71,425.95 -847.45,706.58 -1411.49,819.93 49.32,-142.4 141.02,-232.4 191.64,-362.5 70.3,-180.72 -10.21,-297.68 -64.41,-428.53 -167.23,-15.26 -128.4,5.79 -215.16,124.56 -63.9,87.47 -81.25,130.79 -122.58,234.94 -78.58,197.99 -292.87,297.18 -333.58,354.34 -602.7,-429.42 -1374.71,-1105.07 -2000.08,-1444.17 -172.88,-93.72 -857.06,-621.22 -906.65,-822.75 -144.77,-587.54 -64.86,-918.82 119.93,-1489.75 120.49,-372.31 381.87,-603.46 785.71,-600.66 533.59,3.7 1072.31,-43.73 1599.41,-124.43 92.56,-14.16 210.23,-39.2 298.3,-48.45 96.33,-10.11 189.71,-41.83 285.63,-56.89 69.44,-10.91 239.02,-62.24 289.58,-61.85 58.4,135.66 63.16,306.44 167.19,525.38l88.09 23.23c66.98,-71.91 86.1,-360.41 86.35,-462.48 0.29,-104.54 -23.46,-426.98 57.14,-521.3 52.92,30.08 104.09,134.13 162.55,160.64 72.99,33.14 191.85,95.85 188.31,-33 -0.02,-1.01 -58.49,-253.41 -62.22,-265.24 -47.79,-150.94 -139.75,-263.09 -188.78,-454.52l-252.2 -1028.26c-22.55,-84.95 -32.54,-186.65 -47.05,-274.73 -73.77,-447.64 71.27,-1384.21 283.56,-1804.21 113.08,-223.67 279.94,-433.14 507.91,-598.54 173.35,-131.82 440.53,-311.04 665.78,-300.07 1092.43,53.21 667.28,1290.15 593.37,1928.73 -44.35,383.17 -135.3,739.53 -142.47,1120.17 -11.21,594.47 42.69,1077.23 180.44,1659.35 18.79,79.43 51.87,166.63 74.76,247.05 59.2,208.07 251.77,403.36 383.06,578.07 90.55,120.49 193.85,252.49 279.3,373.54l704.81 897.69c88.32,156.82 156.09,591.76 199.26,772.61 128.31,537.38 133.12,1425.33 28.36,1991.57 -9.33,50.44 -23.51,86.93 9.01,128.85 25.1,32.39 65.51,60.58 105.14,65.23zm-4132.49 -5260.53c-44.76,38.71 -461.29,135.68 -549.28,161.44 -95.94,28.05 -195.46,38.85 -292.33,66.01 -151.59,42.47 -728,101.58 -912.51,122.49 -609.54,69.05 -1093.84,-109.37 -1619.11,477.04 -67.56,75.43 -93.83,127.51 -146.09,211.99 -47.67,77.07 -107.33,118.31 -158.34,211.28 -106.37,193.87 -154.94,293.84 -216.36,510.02 -43.62,153.61 -56.29,470.71 -27.72,627.9 53.1,292.08 59.14,337.96 82.2,643.18 17.39,230.42 29.31,149.54 -90.13,408.08 -101.5,219.77 -135.74,536.46 -137.12,775.88 -1.75,300.35 170.85,870.96 291.92,1152.05 49.65,115.23 -7.28,156.78 -20.43,279.38 -37.82,352.8 -71.33,603.86 20.95,978 11.36,46.06 34.35,79.11 47.67,124.8 164.32,563.07 575.65,1379.58 883.85,1840.46 186.58,279.05 442.36,549.92 755.86,683.84 259.25,110.74 578.31,195.76 857.15,226.43 588.09,64.67 956.8,2.69 1552.67,-162.24 94.3,-26.09 188.74,-83.37 280.95,-67.58 552.99,94.69 749.9,80.28 1295.04,-21.76 178.99,-33.52 611.47,-214.65 766.44,-314.79 390.44,-252.36 592.02,-631.86 715.36,-742.37 76.72,29.28 152.45,79.99 236.32,112.56 265.8,103.18 595.49,92.38 857.08,-26.99 1633.89,-745.67 2046.96,-3351.48 1323.49,-4877.5 -228.74,-482.47 -456.36,-920.29 -1010.83,-1070.84 -107.82,-29.27 -159.9,-38.66 -269.9,-50.54 -117.32,-12.65 -189.86,6.64 -299.92,12.98 -121.15,-275.7 -21.09,-90.19 -195.46,-356.93 -70.86,-108.42 -150.96,-221.54 -224.82,-329.15l-469.94 -639.35c-128.47,-212.02 -359.71,-406.62 -474.86,-634.97 -284.17,-563.35 -406.01,-1252.15 -292.64,-1875.54 55.58,-305.5 159.48,-589.64 213.44,-894.51 88.38,-499.37 234.27,-1554.81 -9.01,-1997.61 -119.26,-217.07 -351.9,-444.22 -593.09,-515.42 -540.34,-159.52 -656.73,-24.65 -1062.54,189.73l-317.16 238.15c-271.2,269.88 -423.11,398.93 -628.81,777.44 -343.25,631.62 -329.41,1180.82 -301.2,1878.82 17.11,423.72 150.8,734.37 171.41,913.41 18.83,163.59 -9.57,358.02 -5.8,506.55 1.1,42.84 -7.03,146.75 -6.25,219.32 0.6,56.78 -2.01,188.69 -20.15,228.86z"/>
 </g>
</svg>
