<?xml version="1.0" encoding="UTF-8"?>
<!DOCTYPE svg PUBLIC "-//W3C//DTD SVG 1.1//EN" "http://www.w3.org/Graphics/SVG/1.1/DTD/svg11.dtd">
<!-- Creator: CorelDRAW 2017 -->
<svg xmlns="http://www.w3.org/2000/svg" xml:space="preserve" width="320mm" height="150mm" version="1.1" style="shape-rendering:geometricPrecision; text-rendering:geometricPrecision; image-rendering:optimizeQuality; fill-rule:evenodd; clip-rule:evenodd"
viewBox="0 0 32000 15000"
 xmlns:xlink="http://www.w3.org/1999/xlink">
 <defs>
  <style type="text/css">
   <![CDATA[
    .fil0 {fill:#D7B56D}
   ]]>
  </style>
 </defs>
 <g id="Слой_x0020_1">
  <metadata id="CorelCorpID_0Corel-Layer"/>
  <g id="_2736929008560">
   <g id="_1599802806128">
    <g>
     <path class="fil0" d="M11427.23 6417.44l-70.65 430.76 23.47 64.55c10.46,265.91 86.12,505.01 212.99,735.58l204.74 281.41c25.32,31.84 218.16,222.94 244.51,237.64 52.8,-14.13 31.16,-27.7 105.68,-16.69 31.22,31.52 58.52,86.5 63.38,127.84l-44.65 31.09 231.9 259.87c41.04,-9.11 382.03,-260.77 444.7,-304.89l-291.89 394.98 247.9 220.69 569.07 -614.21 -414.3 717.06c225.01,253.88 926.86,435.49 1254.63,381.87 577.2,-94.42 993.94,-568.05 1039.49,-578.33l307.42 -456.37 180.71 -315.9 -62.58 282.38c330.5,258.22 1218.25,88.46 1559.95,-138.45 196.26,-130.32 392.39,-450.2 543.7,-409.67 312.26,83.62 482.43,-227.03 681.6,-257.53 134.65,125.72 36.38,542.16 389.84,871.88 87.6,81.72 274.27,193.02 380.85,260.18 107.43,67.68 96.94,99.44 210,25.19 53.96,-35.43 164.49,-76.43 187.98,-133.59 -78.36,-84.26 -457.28,-157.1 -685.28,-400.46 -113.05,-120.67 -315.51,-571.67 -362.4,-730.01 308.54,-148.2 671.35,-416.62 1040.91,-144.3 327.35,241.19 354.24,600.34 399.34,978.06l32.88 -62.67 -1272.23 -667.37c-94.57,121.62 305.18,536.09 444.62,612.7 180.78,99.31 625.32,226.26 726.32,362.37 -363.78,250.69 -472.83,253.15 -756.44,653.05 -196.4,276.96 -402.89,590.79 -794.93,617.41 -102.91,-139.52 -773.37,-1552.77 -973.05,-1484.25l23.97 -4.38 307.87 1682.54 -170.93 18.55 -326.79 -1368.29 -37.66 19.4 -200.94 1246.27c-244.17,-39.35 -658.58,-337.38 -860.23,-490.31 -123.34,-93.54 -212.49,-230.58 -283.02,-367.1 -88.04,-170.4 -100.88,-461.31 -267.66,-421.67l184.62 675.45 48.38 -110.21 -42.38 -67.11 22.5 -13.75 353.78 577.56 887.67 537.73 45.82 -33.58 162.99 -782.9 73.63 814.96 614.39 -76.06 -148.42 -1067.7 79.48 177.91 289.79 648.58c67.6,151.28 37.78,192.02 197.61,157.52 245.18,-52.95 523.33,-215.7 696.06,-362.2 266.07,-225.65 276.16,-439.97 522.34,-677.35 124.57,-120.13 680.77,-428.11 681.69,-506.22 0.62,-51.84 -112.71,-371.7 -132.86,-462.28 -38.64,-173.71 -44.69,-336.25 -68.13,-508.53 -39.76,-292.1 -197.48,-570.78 -429.22,-753.06 -251.65,-197.94 -174.89,-477.57 -320.65,-814.64 -171.24,-395.98 -382.97,-398.72 -783.93,-260.79 -242.16,83.3 -619.76,224.76 -664.6,529.69 132.47,18.45 468.29,-288.37 790.61,-128.38 211.81,105.13 233.28,464.67 164.12,659.42 -33.1,93.25 -73.11,75.79 -145.84,46.79 -95.01,-37.89 -90.41,-9.93 -175.76,50.98l-521.73 372.22c-188.75,134.66 -128.2,139.1 -215.86,-47.2 -37.73,-80.18 -143.52,-385.7 -243.28,-446.31 -94.33,-57.31 -7.75,341.4 35.33,535.45 23.02,103.72 42.84,95.34 -52.87,87.93l-423.12 -32.73c-150.4,-11.63 -95.15,6.06 -117.5,-157.95 -9.89,-72.55 -23.12,-157.45 -35.78,-222.48 -50.7,-260.34 -87.48,84.35 -100.81,239.18 -7.49,87.04 4.65,75.03 -96.3,34.44 -168.05,-67.59 -467.52,-210.26 -511.58,-188.77 -302.15,147.43 -175.19,133.42 -496.95,-154.9 -275.25,-246.63 -778.91,-545.88 -965.44,-811.99 -656.43,-936.49 57.53,-2169.82 1128.95,-1750.34l4.11 41.29 -804.37 65.14c-64.23,175.46 59.11,91.73 -102.91,341.64 -60.75,93.69 -110.18,199.99 -152.06,303.17 -58.23,143.5 74.51,679.61 142.07,697.24l105.89 -227.88c31.61,-3.57 163.49,59.98 201.59,75.56 -5.5,31.2 -95.7,127.58 -120.9,158.34 198.01,162.16 431.87,152.62 669.12,67.69 151.44,-54.21 596.36,-51.48 606.91,132.73 -79.83,34.83 -261.66,-50.8 -368.65,-20.12 -110.95,31.81 -171.9,89.86 -287.87,103.1 -329.09,37.57 -509.68,-97.85 -670.98,-99.42 223.05,321.22 901.6,643.76 1285.06,679.42 378.68,35.22 1302.55,-88.55 1422.28,-516.87 109.69,-392.4 144.5,-307.27 409.67,-581.01 186.75,-192.77 266.02,-498.97 463.33,-526.43 600,-83.51 954.43,-408.9 1342.21,282.53l-612.15 265.06 9.94 27.98 582.06 46.66 4.81 30.23 -386.38 119.8 8.32 26.8c15.72,21.38 396.36,130.89 458.4,150.9 243.27,78.44 221.92,103.56 243.46,364.43 30.42,368.41 -248.52,912.95 -240.52,956.69l167.47 40.69 255.87 -640.67c-3.95,-219.41 11.68,-374.38 -22.61,-598 -47.74,-311.27 -213.46,-153.08 -377.31,-290.96l318.91 -19.98 -73.32 -232.42 -405.9 -80.76 334.59 -69.41 31.91 -34.67 -582.97 -660.83c-32.91,29.8 -170.71,94.42 -210.78,108.08 -67.62,23.06 -199.71,-37.66 -224.24,-82.79 47.3,-4.85 140.46,-39.15 181.33,-66.19l-387.61 71.28 -386.77 80.56 -112.43 27.64 263.11 -326.09 -678.21 -1180.58c-73.03,94.56 303.22,1012.9 301.85,1016.33 -80.56,200.78 -149.79,240.29 -196.65,496.93 -56.2,307.84 8.18,240.92 -184.06,520.26 -316.6,460.05 -1075.87,1164.96 -1662.61,1091.78 -5.06,-8.88 450.96,-192.88 498.73,-217.66 96.3,-49.96 337.05,-229.13 401.19,-312.92 251.32,-328.26 406.9,-524.9 489.95,-949.02 94.52,-482.79 64.44,-721.38 -176.96,-1146.61 -115.29,-203.1 -634.1,-626.58 -858.66,-540.32l510.5 472.81c-295.06,-89.45 -776.42,-263.86 -1078.66,-77.33 1.17,2.39 446.18,356.61 518.62,432.17 197.04,205.57 142.86,402.66 416.99,534.71 182.32,87.8 209.62,-12.31 266.7,208.04 41.65,160.8 32.97,262.65 1.91,422.64 -39.67,204.31 -159.45,507.48 -346.67,617.61 108.75,-336.61 197.27,-572.95 57.33,-927.14 -63.89,-161.7 -398.09,-590.03 -580.35,-533.56 1.13,47.14 616.89,528.27 439.37,1097.94l-74.01 -169.04 -296.78 496.93c-196.08,-246.79 -107.85,-192.38 96.38,-409.91 124.99,-133.14 178.6,-411.74 76.31,-567.86 -231.4,-353.21 -757.13,-250.7 -1022.83,24.76 -438.46,454.56 77.61,759.09 490.66,553.52 144.32,-71.84 308.4,-350.19 189.4,-473.29 -143.77,-148.73 -479.13,12.75 -457.45,178.45l253.32 -69.64c59,289.04 -419.36,293.02 -387.59,55.61 24.38,-182.04 282.57,-331.7 451.01,-323.39 708.98,34.91 63.43,611.98 -57.65,834.23l-6.95 -52.66 -770.95 93.19 40.49 -96.88c-111.78,-116 -356.63,-178.59 -309.26,-373.62 44.23,-182.13 260.82,-258.39 374.85,-343.93 3.89,-76.37 -100.35,-143.66 37.51,-236.85 68.26,-46.14 161.13,-91.41 245.5,-106 113.35,-19.58 463.83,-79.67 458.6,-235.58 -202.28,-199.92 -1070.31,-250.28 -1360.59,-118.69 -473.07,214.43 -559.59,507.6 -731.03,948.56 -97.52,-65.59 1.48,-497.59 37.44,-578.48 40.07,-90.14 298.41,-389.47 298.89,-394.78 -244.52,-93.44 -665.82,581.76 -644.38,907.1 28.94,439.06 276.08,726.07 548.42,1033.9 217.47,245.82 608.72,459.29 860.05,721.78 259.54,271.07 489.45,622.19 721.3,859.06 416.37,-82.28 142.75,-301.61 752.3,-22.65 -379.98,289.09 -886.6,347.33 -1290.9,55.88 -419.85,-302.65 -582.46,-1099.34 -622.26,-1124.6 -175.84,109.28 66.14,812.7 29.86,878.88 -152.95,279.02 -499.42,-27.75 -666.73,-169.79 -194.31,-164.98 -379.11,-384.41 -472.84,-621.24 -51.86,-131.02 -104.61,-261.46 -155.55,-393.4 -128.46,-332.72 -93.39,-151.32 -257.79,-287.32 -86.74,-166.82 81.58,-776.2 158.79,-963.72 50.53,-122.77 417.56,-745.11 418.33,-755.58 -501.16,-89.68 -724.81,-750.41 -1302.23,-313.76 -345.41,261.2 -255.44,554.7 -582.99,874.53 -37.46,36.58 -262.55,202.95 -265.89,218.55 35.79,158.85 413.15,-162.48 468.18,-223.73 141.18,-157.1 199.94,-365.23 335.85,-480.09 141.33,-119.45 330.32,-293.12 529.27,-236.24 100.45,28.71 443.26,240.46 508.77,306.9l-308.36 585.99 -522.44 -151.9 -19.31 48.14 487.2 249.89 -95.91 273.34 -869.79 -10.45 -3.03 48 823.32 326.03c-23.07,27.95 -11.26,421.57 -11.62,487.53 58.39,8.05 153.38,-97.3 229.69,24.94 13.21,21.14 97.78,216.47 98.97,229.51l-748.63 297.49 15.72 38.25 815.82 -159.92c77.06,392.94 226.96,714.61 523.11,988.38 158.01,146.09 817.2,543.81 1003.5,486.65l256.36 -361.65 275.47 120.79c-300.82,207.97 -496.83,794.83 -866.65,1041.37 -441.64,294.44 -1138.9,175.67 -1538.71,-79.73l764.2 -1195.92 -24.29 -31.6 -935.43 689.34 535.9 -561.54c-94.91,-56.31 -796.47,371.45 -926.93,448.35 -217.23,128.04 -210.85,40.58 -414.73,-132.65 -145.93,-123.98 -229.64,-227.95 -338.46,-384.01 -270.4,-387.78 -320.17,-616.83 -306.17,-1087.89 5.57,-187.75 75.86,-398.77 158.98,-566.74 159.58,-322.57 72.94,-229.79 9.4,-540.83l430.29 -87.87 18.54 -39.57 -551.97 -215.71 -22.56 47.32 160.68 105.99 -439.42 192.43c21.29,69.92 250.54,135.13 224.12,406.61 -8.57,87.99 -73.54,445.12 -125.23,501.04z"/>
     <path class="fil0" d="M15248.2 8786.66c-95.38,297.23 -416.16,551.37 -698.08,665.38 -195.74,79.16 -316.48,-15.12 -389.1,259.53 -46.23,174.83 -76,349.34 -71.97,530.9 18.76,850.1 731.25,1143.05 404.66,1982.82 -71.2,183.11 -307.18,292.93 62.01,281.42 205.71,-6.42 373.4,-17.2 576.09,-63.41 314.69,-71.74 703.27,-219.01 966.34,-408.26 759.09,-546.13 283.65,-1855.22 13.91,-1846.65l217.44 632.27c-49.18,-18.81 -355.33,-214.36 -424.97,-257.28l-22.35 36.25c58.64,237.6 811.4,553.33 188.77,1139.44l-251.11 -596.73 -31.41 20.54 31.89 720.07 -808.62 297.43 489.22 -1059.57 -68.3 -36.01 -135.91 105.26 257.37 -694.89 -676.24 310.7 -20.05 -43.62c66.79,-77.3 640.18,-419.59 658.58,-584.98 5.36,-48.09 -9.76,-291.3 -47.14,-317.38l-790.17 404.9 -13.04 -26.39c4.5,-9.79 413.38,-322.62 466.06,-368.12 51.06,-44.1 167.65,-157.02 214.27,-209.12 162.07,-181.14 69.15,-86.43 84.66,-273.76l525.23 583.85 21.9 -19.68c-0.95,-12.7 -322.44,-562.37 -365.57,-698.65 -122.03,-385.63 -71.35,-548.9 -56.95,-922.63l-307.42 456.37z"/>
     <path class="fil0" d="M20278.68 7278.06c414.55,162.33 1151.21,483.88 1338.55,920.31l-363.53 -206.98 -7.83 235.14c-205.04,-50.95 10.9,-378.99 -509.39,-484.96l56.49 489.4 -22.34 13.65 -266.25 -580.76 -319.92 -59.29 -58.17 25.46 266.68 873.63 -165.44 155.81c425.8,324.14 1444.84,16.02 1537.11,76.08l28.04 17.27 -103.18 167.51c328.3,129.11 483.33,-328.55 449.94,-602.16 -28.33,-232.12 -203.71,-574.23 -338.45,-767.64 -199.17,-285.91 -953.49,-807.25 -1266.44,-913.14l-255.87 640.67z"/>
     <path class="fil0" d="M15796.64 9239.77c279.69,565.1 217.76,531.28 691.45,977.02 128.86,121.27 1034.73,821.05 788.27,745.02 -24.6,79.7 547.32,517.01 665.24,653.81 212.05,246.01 372.66,510.78 506.49,806.46 515.44,1138.66 -293.66,1826.76 -282.76,1995.47 170.82,33.61 494.67,-511.56 556.9,-658.84 133.73,-316.57 153.38,-701.54 62.6,-1032.26 -172.75,-629.38 -667.22,-983.52 -1046.53,-1439.34 316.73,280.51 723.29,458.92 981.82,811.12 509.37,693.93 307.66,1049.91 368.75,1390.03 123.05,14.52 532.86,-721.22 165.2,-1385.84 -254.01,-459.16 -635.71,-537.99 -1040.08,-810.65 -419.15,-282.6 -1814.97,-1286.91 -2035.07,-1665.51l-353.78 -577.56 -22.5 13.75 42.38 67.11 -48.38 110.21z"/>
     <path class="fil0" d="M12166.7 8309.62l44.65 -31.09c-4.86,-41.34 -32.16,-96.32 -63.38,-127.84 -74.52,-11.01 -52.88,2.56 -105.68,16.69 -26.35,-14.7 -219.19,-205.8 -244.51,-237.64l-204.74 -281.41c-126.87,-230.57 -202.53,-469.67 -212.99,-735.58 -136.45,49.3 -264.85,117.78 -389.38,192.55 -142.14,85.36 -212.4,163.26 -335.06,263.36 -87.19,71.14 -204.97,224.54 -269.23,319.64 -35.31,52.26 -197.28,343.61 -198.43,387.6 7.5,42.18 361.44,208.26 486.86,189.57 29.9,-77.94 71.74,-346.11 126.43,-393.52l14.13 420.58c55.49,17.61 226.53,44.1 263.81,15.98 42.13,-74.68 19.47,-509.31 70.7,-578.18 25.88,39.02 105.39,547.19 145.56,599.76l255.08 -22.96c64.44,-7.93 52.63,-0.58 80.74,-19.58 -9.21,-37.52 -14.72,-40 -29.39,-69.79l-68.39 -206c-17.34,-57.69 -47.2,-206.03 -50.28,-271.53 39,25.8 79.36,88.76 101.51,133.84 35.71,72.64 53.13,80.49 95.65,143.38 38.44,56.87 44.44,93.19 82.75,154.14 82.39,131.01 57.53,84.08 121.03,79.93 -131.92,119.45 -225.32,68.47 -644.21,486.92 -204.38,204.15 -390.19,355.48 -626.59,521.05 -129.31,90.58 -210.17,171.39 -374.57,195.04 -158.31,22.79 -347.43,-0.41 -490.53,-74.98 -193.54,-100.87 -282.75,-354.98 -297.25,-560.43 -6.78,-95.92 32.03,-141.68 -6.01,-224.74 -223.5,139.68 -219.76,773.06 66.77,1011.58 306.14,254.87 755.85,211.67 1054.46,-32.25 272.11,-222.29 513.15,-414.08 746.91,-679.5 236.71,-268.78 499.05,-488.44 853.58,-584.59z"/>
     <path class="fil0" d="M16001.55 3188.48l65.74 102.09 38.44 5.81 14.25 -229.96c-265.2,-383.41 -600.86,-588.79 -1051.58,-690.72 -355.04,-80.28 -326.38,-38.82 -660.02,-218.86 -191.63,-103.41 -386.2,-201.1 -581.39,-297.55 -1222.77,-604.2 -321.41,-1432.39 170.52,-1212.37 316.73,141.65 87.29,566.74 -140.08,417.42l-26.34 -13.4 88.65 -174.22c-122.05,-137.1 -490.52,210.37 -209.7,427.69 195.64,151.4 485.39,63.88 582.58,-158.27 243.38,-556.28 -445.97,-906.01 -951.76,-631.59 -454.83,246.79 -599.6,755.78 -260.76,1172.12 199.76,245.45 1203.1,547.46 1205.69,612.6 -227.66,60.65 -897.6,-120.95 -1134.55,-208.2 -512.6,-188.74 -678.58,-621.82 -745.3,-637.11 -131.52,89.24 385.35,638 481.65,714.81 252.21,201.15 612.92,317.21 932.07,348.01 365.89,35.31 821.56,-86.92 1150.66,91.21 106,57.39 757.2,475.04 799.65,458.68l17.9 -21.79 -561.21 -437.74c245.59,-65.13 648.71,411.58 774.89,581.34z"/>
     <path class="fil0" d="M16119.98 3066.42l-14.25 229.96 -38.44 -5.81 -65.74 -102.09 -150.89 248.73c-150.02,6.87 -1103.29,-415.4 -1223.55,-284.41 -101.32,110.35 -617.88,913.04 -554.98,1002.98 13.3,0.43 316.45,-260.93 370.59,-296.45 153.58,-100.76 318.39,-132.48 482.21,-200.21 568.68,-235.15 1039.74,-17.95 1115.37,-50.12 49.13,-47.31 190.95,-364.72 324.52,-505.89 276.81,-292.59 375.21,-97.42 598.08,-112.02 214.13,-14.04 401.54,-214.98 601.75,-154.49 92.94,28.08 497.09,306.78 509.72,302.94 76.5,-86.55 -232.27,-379.55 -307.14,-433.97 -248.07,-180.32 -274.87,-213.62 -490.77,-54.57 -229.66,169.17 -348.71,145.2 -613.71,169.79 -389.91,36.15 -287.3,101.99 -542.77,245.63z"/>
     <path class="fil0" d="M19768.09 2409.96c-455.32,91.4 -645.16,483.42 -639.96,914.85 3.01,250.32 25.51,490.89 22.62,745.51 -3.91,345.79 -72.64,421.69 228.93,93.9 421.63,-458.27 339.98,-563.88 447.64,-1134.65 33.29,-176.46 104.75,-459.01 311.09,-484.21 355.43,-43.41 -143.23,-180.98 -370.32,-135.4z"/>
     <path class="fil0" d="M20668.62 8900.34c-160.96,-20.11 -207.09,0.53 -366.22,-78.02 -132.74,-65.53 -147.77,-150.88 -272.95,-82.08 -239.64,131.69 3.63,178.78 156.91,443.56l-474.88 -247.61 -258.1 405.94c183.98,257.61 1080.11,624.36 1360.22,505.05l25.56 -3.91 -170.54 -942.93z"/>
     <path class="fil0" d="M18369.49 10240.76c51.41,368.16 123.43,617.98 532.45,672.49 674.91,89.94 674.68,561.17 681.37,100.37 4.88,-337.01 -94.52,-633.5 -391.82,-823.03 -152.49,-97.22 -269.22,-107.61 -444.52,-74.52 -229.16,43.27 -410.89,-114.57 -377.48,124.69z"/>
     <path class="fil0" d="M13138.6 9698.4c-93.38,304.79 -120.15,794.34 -380.26,978.25 -476.26,336.75 293.99,7.36 462.83,-216.1 204.04,-270 262.5,-752.89 445.72,-923.63 198.19,-184.71 -23.16,-55.97 -120.48,-34.25 -229.33,51.2 -245.69,-62.1 -385.36,-59.05 -226.99,4.96 -549.51,223.11 -678.59,414.47 -244.39,362.39 -141.57,514.44 -184.49,910.64 -4.15,38.26 28.6,221.32 79.47,176.49 5.47,-4.83 19.66,-513.62 37.76,-608.19 64.29,-335.91 345.99,-701.83 723.4,-638.63z"/>
     <path class="fil0" d="M11276.54 9072.88c32.29,-140.31 -422.33,379.28 -463.82,416.98 -385.24,349.85 -839.44,753.7 -1401.85,631.86 -203.23,-44.03 -620.39,-434.66 -531.04,-226.76 240.68,559.95 965.28,549.61 1394.4,244.84 245.1,-174.08 938.05,-787.55 1002.31,-1066.92z"/>
     <polygon class="fil0" points="11356.58,6848.2 11427.23,6417.44 10490.07,6575.91 10484.47,6649.95 10867.77,7099.98 "/>
     <path class="fil0" d="M12266.97 11565.55c-13.1,-487.82 120.57,-363.03 573.62,-408.74 295.22,-29.78 558.47,-57.94 788.14,-267.45 399.76,-364.64 214.33,-991.14 563.11,-1516.63 -292.83,-33.01 -362.49,563.89 -387.41,763.04 -31.57,252.37 -103.01,620.09 -323.82,758.73 -215.26,135.13 -625.05,194.43 -882.82,204.59 -109.66,4.32 -348.84,-11.07 -430.83,85.41 -119.45,140.55 -88.37,322.83 100.01,381.05z"/>
     <path class="fil0" d="M21193.59 2866.63c-12.4,7.34 -107.73,131.85 -183.15,180.69 -128.01,82.93 -230.32,74.16 -314.47,99.88 -168.04,51.36 -467.84,54.57 -558.82,265.82 -105.3,244.49 -64.52,111.95 133.11,50.86 186.82,-57.75 309.92,5.54 486.83,-39.98 382.74,-98.5 551.31,-624.64 436.5,-557.27z"/>
     <path class="fil0" d="M11929.44 5581.39c-51.06,58.61 159.37,64.96 228.61,96.8 64.66,29.73 135.81,102.12 204.33,147.44 131.43,86.9 455.05,154.18 568.7,41.38 122.42,-121.51 -918.09,-381.52 -1001.64,-285.62z"/>
     <path class="fil0" d="M19504.16 4609.46c-40.87,27.04 -134.03,61.34 -181.33,66.19 24.53,45.13 156.62,105.85 224.24,82.79 40.07,-13.66 177.87,-78.28 210.78,-108.08 54.6,-22.33 281.62,-173.74 303.4,-217.04 -46.16,-51.34 -73.42,-20.41 -131.48,2.74 -46.19,18.4 -91.8,37.97 -138.04,58.06 -85.35,37.06 -202.97,89.28 -287.57,115.34z"/>
     <path class="fil0" d="M12690.09 4636.78c3.58,2.93 484.29,200.45 519.76,191.16 34.43,-68.02 -28.18,-79.33 -76.56,-114.28 -80.64,-58.25 -431.58,-211.25 -443.2,-76.88z"/>
    </g>
    <path class="fil0" d="M18803.1 4784.3l380.22 -79.2c625.78,-241.06 1001.77,-1279.23 1712.8,-683.08l-394.78 219.47 19.06 37.81 418.25 -144.61 7.62 22.07c116.96,212.13 -84.72,440.07 -325.95,436.41 -391.12,-5.92 -241.07,-438.44 -264.44,-474.65 -174.87,13.35 -228.1,754.77 365.75,711.48 425.63,-31.04 527.96,-408.74 518.16,-762.48 173.07,-132.26 743.17,-77.1 956.09,6.65 378.14,148.73 472.43,539.58 518.81,605.08 6.37,9.01 9.78,9.23 16.76,7.94 21.44,-4 -9.96,-212.72 -23,-301.46 -17.27,-117.7 95.01,66 139.14,289.91 33.63,170.65 -0.29,377.83 3.43,415.25 5.78,57.96 19.68,105.82 71.26,48.45 89.25,-99.23 141.09,-408.67 57.34,-697.04 -64.14,-220.9 -228.98,-427.84 -390.52,-528.25 -595.6,-370.23 -848.03,-150.33 -1406.36,3.3 -305.06,-531.03 -919.96,-354.87 -1309.35,-30.18 -364.27,303.72 -701.08,594.48 -1070.29,897.13z"/>
   </g>
  </g>
 </g>
</svg>
