<svg xmlns="http://www.w3.org/2000/svg" width="30" height="29"><path fill="#1E2741" paint-order="stroke fill markers" fill-rule="evenodd" d="M27.77 7.723l-12.593-5.7a.431.431 0 0 0-.354 0L2.23 7.723a.38.38 0 0 0-.23.343V21.91c0 .146.09.28.23.343l12.593 5.7a.429.429 0 0 0 .354 0l12.593-5.7a.38.38 0 0 0 .23-.343V8.066a.38.38 0 0 0-.23-.343zM15 2.789l11.66 5.277-3.38 1.53a.405.405 0 0 0-.07-.04L11.63 4.313 15 2.789zm-4.287 1.956l11.642 5.27-2.384 1.079L8.333 5.826l2.38-1.081zm11.915 5.992v3.99L20.4 15.735v-3.99l2.228-1.008zm4.56 10.934l-11.782 5.333V14.006l2.81-1.272a.37.37 0 0 0 .19-.509.419.419 0 0 0-.543-.177L15 13.343l-1.127-.51a.419.419 0 0 0-.542.178.37.37 0 0 0 .189.509l1.074.486v12.998L2.813 21.67V8.673l8.97 4.06a.427.427 0 0 0 .177.039.41.41 0 0 0 .366-.216.37.37 0 0 0-.189-.508L3.341 8.066 7.377 6.24l12.205 5.525.006.006v4.572c0 .131.072.253.19.323a.428.428 0 0 0 .393.02l3.04-1.376a.38.38 0 0 0 .23-.343V10.37l3.746-1.696v12.998zM6.165 20.194l-1.848-.837a.419.419 0 0 0-.543.177.37.37 0 0 0 .19.51l1.847.836a.426.426 0 0 0 .177.038.41.41 0 0 0 .366-.216.37.37 0 0 0-.19-.508zm1.7-1.039L4.32 17.55a.419.419 0 0 0-.543.178.371.371 0 0 0 .19.508l3.546 1.606a.427.427 0 0 0 .177.038.41.41 0 0 0 .366-.216.37.37 0 0 0-.19-.509z"/></svg>