<svg xmlns="http://www.w3.org/2000/svg" width="37" height="20"><path fill="#1E2741" paint-order="stroke fill markers" fill-rule="evenodd" d="M24.464 16.378H13.065a.492.492 0 0 1-.5-.482c0-.266.224-.482.5-.482h11.4c.276 0 .5.216.5.482a.491.491 0 0 1-.5.482zm-14.111 2.613c-1.772 0-3.214-1.388-3.214-3.095 0-1.708 1.442-3.096 3.214-3.096s3.213 1.388 3.213 3.096c0 1.707-1.441 3.095-3.213 3.095zm0-5.226c-1.22 0-2.212.956-2.212 2.13 0 1.176.993 2.131 2.212 2.131 1.22 0 2.211-.955 2.211-2.13 0-1.175-.991-2.131-2.211-2.131zm16.825 5.226c-1.772 0-3.214-1.388-3.214-3.095 0-1.708 1.442-3.096 3.214-3.096s3.213 1.388 3.213 3.096c0 1.707-1.441 3.095-3.213 3.095zm0-5.226c-1.22 0-2.212.956-2.212 2.13 0 1.176.993 2.131 2.212 2.131 1.219 0 2.211-.955 2.211-2.13 0-1.175-.992-2.131-2.211-2.131zm-2.71 2.613h-11.4a.492.492 0 0 1-.502-.482c0-.266.225-.482.501-.482h11.401c.277 0 .501.216.501.482a.492.492 0 0 1-.5.482zm7.816 0h-2.397a.492.492 0 0 1-.5-.482c0-.266.224-.482.5-.482h2.397c.616 0 1.133-.426 1.228-1.014l.47-2.897a1.154 1.154 0 0 0-.241-.913 1.249 1.249 0 0 0-.853-.462l-6.266-.756a.512.512 0 0 1-.29-.135L20.544 3.74a2.86 2.86 0 0 0-1.979-.782H6.145c-.87 0-1.596.655-1.653 1.492l-.423 6.185a.481.481 0 0 1-.133.297l-.51.527a1.485 1.485 0 0 0-.425 1.036v2.197c0 .397.336.722.75.722h3.885c.277 0 .5.216.5.482a.492.492 0 0 1-.5.482H3.751c-.966 0-1.751-.756-1.751-1.686v-2.197c0-.63.246-1.232.692-1.694l.388-.4.412-6.014c.091-1.342 1.257-2.392 2.654-2.392h12.42a3.88 3.88 0 0 1 2.68 1.059l5.67 5.383 6.09.735c.608.064 1.154.36 1.531.833s.53 1.06.436 1.648l-.47 2.898c-.172 1.058-1.105 1.827-2.219 1.827zM21.3 9.746H6.872a.492.492 0 0 1-.501-.483c0-.266.224-.482.5-.482H21.3c.276 0 .5.216.5.482a.492.492 0 0 1-.5.483z"/></svg>