<?xml version="1.0" encoding="UTF-8"?>
<!DOCTYPE svg PUBLIC "-//W3C//DTD SVG 1.1//EN" "http://www.w3.org/Graphics/SVG/1.1/DTD/svg11.dtd">
<!-- Creator: CorelDRAW 2017 -->
<svg xmlns="http://www.w3.org/2000/svg" xml:space="preserve" width="320mm" height="150mm" version="1.1" style="shape-rendering:geometricPrecision; text-rendering:geometricPrecision; image-rendering:optimizeQuality; fill-rule:evenodd; clip-rule:evenodd"
viewBox="0 0 32000 15000"
 xmlns:xlink="http://www.w3.org/1999/xlink">
 <defs>
  <style type="text/css">
   <![CDATA[
    .fil0 {fill:#D7B56D}
   ]]>
  </style>
 </defs>
 <g id="Слой_x0020_1">
  <metadata id="CorelCorpID_0Corel-Layer"/>
  <path class="fil0" d="M9401.63 10589.32c18.76,164.37 5.21,363.5 14.83,531.52 7.5,130.89 16.41,26.81 13.01,253.74 -1.6,106.35 17.05,154.97 13.1,264.13l-224.09 -38.4c-40.01,-4.88 -49.21,-7.24 -87.01,-13.11 14.11,-53.51 24.56,-216.65 28.81,-283.43 5.78,-90.58 18.3,-204.85 25.1,-296.27 14.2,-190.7 48.57,-201.88 216.25,-418.18zm552.05 1039.5l39.16 -865.62c4.67,-40.59 0.99,-94.35 3.15,-138.22l165.2 258.3 52.31 693.33c-81.28,22.9 -161.89,49.4 -259.82,52.21zm12050.25 -39.56c0.31,-290.87 -10.3,-781.21 5.2,-1063.82 2.87,2.48 6.59,2.92 7.66,7.7l27.01 32.28c48.38,57.19 55.71,52.98 86.36,149.7l83.36 541.69c12.24,85.4 36.13,197.76 37.65,293.35 -75.58,8.26 -58.14,35.62 -247.24,39.1zm-547.91 -1416.27c3.22,58.21 -0.64,112.32 -1.58,170.32 -1.29,78.61 15.34,94.56 16.87,168.77 1.28,61.02 -6.26,124.95 -4.53,185 1.8,62.83 17.98,91.85 17.56,168.65 -0.31,55.07 -10.44,133.8 -4.57,184.88l28.06 537.36c-123.92,-1.64 -203.52,-22.48 -303.96,-44.36l56.79 -747.29c5.65,-43.57 13.42,-25.62 16.32,-85.47 1.66,-34.51 -1.35,-58.57 2.63,-95.04 13.68,-125.12 -10.21,-58.57 35.74,-174.05 40.4,-101.57 102.28,-181.43 140.67,-268.77zm-11213.9 793.79c17.99,22.18 25.84,27.14 39.04,51.56 75.61,139.96 16.38,-7.31 128.35,182.75 115.81,196.56 77.31,107.1 129.69,169.06 21.38,25.31 25.12,46.08 37.62,76.01 -68.56,31.65 -233.87,110.51 -298.43,117.96 -3.37,-210.04 -39.92,-401.04 -36.27,-597.34zm-1194.77 590.87c-82.18,-39.71 -169.25,-60.26 -252.92,-98.31 23.52,-62.56 286.37,-433.84 319.54,-453.96 -12.18,88.24 -16.31,188.53 -25.15,284.31 -5.97,64.54 -11.84,66.2 -9.46,141.7 1.69,53.74 1.04,85.05 -32.01,126.26zm13175.39 -722.02c72.41,26.36 46.41,68.35 173.31,208.42 59.77,65.98 73.73,130.85 155.7,226.29 88.12,102.59 67.78,116.55 103.16,142.91l-321.53 118.04c-21.48,-74.19 -24.82,-88.73 -29.56,-170.54 -2.76,-47.77 -16.33,-121.46 -27.17,-169.08 -15.7,-68.95 -5.7,-107 -16.32,-178.33 -9.6,-64.52 -30.14,-112.25 -37.59,-177.71zm-12007.18 -298.01l52.56 42.04c54.22,61.09 55.67,75.81 130.95,138.09 54.64,45.2 118.92,138.54 227.91,238.73 2.23,2.03 5.49,4.72 7.62,6.83 0.09,0.09 18.36,20.6 19.81,22.29 48.89,56.87 112.88,140.46 170.92,180.94 50.05,34.9 63.46,46.91 90.42,98.86 -95.63,47.5 -162.59,100.03 -258.01,151.64 -98.56,-90.24 -97.34,-145.01 -129.61,-190.87l-206.48 -275.73c-14.76,-16.85 -22.25,-25.75 -39.64,-46.06 -21.9,-25.58 -27.31,-24.98 -40.93,-42.78 -51.56,-67.37 -29.17,-233.91 -25.52,-323.98zm10906.86 981.15l-66.81 -24.73c-3.58,-1.08 -7.43,-2.01 -10.99,-3.15 -4.41,-1.38 -17.09,-5.46 -21.38,-7.07 -49.2,-18.36 -125.87,-70.15 -183.46,-66.94 14.67,-116.93 54.63,-110.8 84.02,-195.76l275.41 -549.01 -76.79 846.66zm-11995.57 -677.7l-397.74 578.21c-77.59,-20.48 -236.06,-102.84 -272.75,-159.66l175.98 -160.81c85.27,-80.13 453.7,-464.52 510.84,-495.1l-16.33 237.36zm558.38 -626.77c10.77,10.11 10.31,6.72 21.98,21.78l66.34 102.22c40.63,57.57 55.17,46.81 100.4,113.51 96.33,142.06 41.72,195.24 37.34,357.2 -7.67,283.65 -13.44,545.34 -26.29,831.86 -101.42,7.52 -89.95,17.44 -134.78,-18.79 20.36,-32.49 4,-189.23 16.22,-283.22 15.5,-119.31 -28.39,-281.16 -165.2,-175.1 -72.36,56.1 -23.73,157.19 -22.62,232.19 1.41,94.82 20.74,260.18 -25.41,250.72 -73.36,-15.06 -28.06,-7.61 -43.43,-31.9l-34.99 -793.82c-8.3,-68.24 -4.59,-140.5 -5.4,-209.78 -1.1,-94.61 -22.01,-94.27 23.42,-162.69 36.27,-54.65 155.01,-212.94 192.42,-234.18zm324.2 98.43c148.44,89.05 138.12,229.53 136.68,383.33 -46.84,-32.57 -139.05,-193.05 -139.1,-193.15 -17.82,-41.87 -7.41,-0.27 -3.15,-51.05 4.05,-48.2 1.54,-90.65 5.57,-139.13zm-790.59 392.89l4.06 -194.72c53.87,-53.45 101.25,-124.01 166.59,-168.95l0.26 142.43c-88.53,88.05 -87.23,129.08 -170.91,221.24zm11559.31 658.53l-202.15 -98.32c-60.86,-33.53 -29.89,-8.34 -55.13,-46.7 32.93,-52.41 56.22,-53.35 90.09,-98.68l126.36 -169.57c25.7,-31.35 26.22,-24.29 49.97,-49.05 27.29,-28.45 108.77,-159.43 168.35,-213.35 115.11,-104.2 115.22,-152.87 176.08,-219.69 32.43,-35.58 66.4,-50.37 93.68,-97.63 11.6,113.76 -48.36,176.11 -89.28,258.84 -69.86,141.27 -329.81,641.48 -357.97,734.15zm1374.18 -1008.33l317.95 318.27c29.26,30.69 69.09,83.24 97.24,113.46l415.63 427.1c-17.91,20.93 -2.44,6.9 -23.8,23.45 -0.54,0.43 -26.94,17.66 -33.33,21.89 -83.97,55.32 -110.74,78.6 -211.4,116.12 -14.5,-21.82 -22.59,-31.16 -43.8,-56.13l-116.93 -177.86c-82.94,-115.8 -99.67,-162.78 -164.5,-232.05 -160.93,-171.91 -72.39,-96.51 -168.84,-226.06 -60.96,-81.86 -64.62,-227.44 -68.22,-328.19zm-161.37 15.51l4.14 -183.1c62.28,45.46 62.34,32.05 73.13,126.14 7,60.92 25.69,119.68 25.41,174.74 -11.04,-15.11 -89.81,-107.41 -102.68,-117.78zm-10860.96 -97.18l490.51 125.61c0.93,50.79 -28.52,96.77 -54.41,140.64l-71.84 123.86c-20.8,-10.49 -79.45,-61.02 -96.52,-80.21 -26.63,-29.95 5.21,-16.67 -114.63,-143.25l-153.11 -166.65zm-3267.92 377.54c-36.73,-40.77 -136.48,-210.03 -144.85,-256.91 62.1,-7.99 80.99,-16.66 135.73,-36.39l416.13 -111.48 -407.01 404.78zm1377.2 -267.78l36.42 -438.89 108.08 -11.12c-16.26,104.36 -10.41,230.07 8.99,315.87 -54.9,35.87 -105.41,107.62 -153.49,134.14zm766.83 -182.14l17.04 -188.48 85.8 -7.81c-5.25,116.43 20.91,202.52 10.53,305.28l-113.37 -108.99zm656.63 -52.12l264.11 72.13c108.62,34.2 89.72,44.26 187.56,147.03 124.01,130.24 36.42,19.86 158.62,180.74 19.32,25.43 23.47,23.4 44.53,42.52l14.83 14.06c2.04,2.03 4.66,5.31 6.64,7.35 69.33,71.34 66.01,39.2 111.36,113.17 -50.37,62.84 -110.07,179.18 -182.26,210.57 -58.17,-31.83 -47.71,-31.93 -75.95,-93.48 -21.95,-47.89 -125.48,-141.53 -158.54,-180.91 -31.33,-37.3 -195.43,-315.77 -293.94,-413.58 -36.26,-36.01 -57.7,-48.12 -76.96,-99.6zm-2569 810.66l-195.03 -227.72 495.79 -507.21c45.23,-47.19 188.02,-78.21 266.62,-79.95l-278.47 421.35c-100.25,153.9 -128.04,173.37 -218.48,290.85 -27.15,35.26 -46.19,65.09 -70.43,102.68zm2081.32 -947.49c49.68,8.26 56.74,12.49 98.18,27.69 131.2,48.09 251,36.43 287.53,91.61 25.33,38.25 8.38,39.61 50.79,75.76 38.16,32.55 39.44,26.21 63.65,64.72 144.51,229.85 86.01,102.88 206.55,286.56 90.8,138.38 36.68,61.62 115.06,140.82 32.3,32.66 83.76,116.12 101.18,151.81 61.23,125.42 218.45,95.07 5.46,259.2 -130.68,100.7 -95.12,156.78 -234.84,13.58 -71.68,-73.45 -72.11,-90.78 -204.94,-219.25 -40.37,-39.05 -22.6,-18.66 -52.7,-74.94 -31.3,-58.56 -147.14,-123.17 -185.94,-181.58 -149.06,-224.37 -212.91,-147.47 -223.28,-276.77l-26.7 -359.21zm-714.83 360.06l-5.25 -117.17c89.94,-49.48 101.59,-108.46 159.59,-137.09 30.09,55 28.53,5.16 -52.75,128.73 -27.69,42.09 -63.23,91.54 -101.59,125.53zm10477.71 233.74c-33.28,-34.56 -143.45,-221.54 -150.98,-266.89l618.83 -205.08c-68.9,86.66 -295.15,279.58 -352.06,358.68 -81.2,112.84 -61.5,55.05 -115.79,113.29zm-10153.77 -545.2c46.02,44.12 74.25,89.93 116.83,135.6 60.15,64.55 39.86,88.36 33.53,229.46 -24.5,-33.09 -27.32,-27.56 -52.35,-54.32 -39.91,-42.67 -28.53,-87.6 -153.59,-227.85 14.37,-27.51 35.72,-62.67 55.58,-82.89zm13107.12 46.52c70.67,-4.29 316.27,101.16 387.39,127.38 34.15,12.59 77.06,11.03 207.53,57.66 31.6,11.29 60.97,25.95 91.86,36.13 44.37,14.61 72.21,7.04 113.24,28.09 6.47,53.72 -3.16,65.31 -50.3,148.39l-75.03 133.51c-72.78,-7.92 -99.73,-65.37 -174.33,-124.56 -104.66,-83.07 -111.38,-75.12 -252.01,-199.5l-248.35 -207.1zm-14489.05 1123.94l-247.15 -210.57c14.1,-67.6 273.18,-391.8 314.37,-452.8l209.95 -313.32c32.4,-50.56 74.71,-119.6 105.28,-148.42 32.02,-30.19 333.97,-115.73 411.16,-125.49 -1.6,112.98 -14.32,368.42 -39.71,477.53 -14.91,64.04 -11.52,39.17 -52.63,79.73l-701.27 693.34zm13108.89 -1185.54c27.13,-37.66 50.33,-76.58 73.81,-110.97 122.8,137.08 180.14,273.81 239.42,350.95 34.17,44.45 58.65,67.41 101.75,96.64 -1.03,200.42 20.84,385.02 12.62,595.96 -8.05,206.05 6.12,417.59 -1.5,621.98l-102.47 2.98c-21.27,-130.29 24.6,-413.96 12.72,-441.28l-76.05 -75.32c-198.1,28.32 -116.97,124.09 -114.84,342.68 2.24,228.42 17.72,175.73 -82.85,168.62l-28.12 -775.31c6.08,-213.7 -28.71,-553.66 -34.49,-776.93zm-12065.72 131.4l-0.39 -228.92 43.08 -6.69 84.85 122.91c-44.59,38.07 -81.98,86.1 -127.54,112.7zm10712.36 722.51c-35.37,-51.19 -143.95,-152.01 -183,-218.06 73.84,-76.48 66.1,-42.39 99.73,-83.03 32.14,-38.82 -1.6,-18.6 88.3,-109.54 33.11,-33.48 51.13,-55.27 93.84,-89.36 27.55,-22.01 97.28,-124.89 183.93,-199.16 82.21,-70.47 10.24,16.5 98.78,-97.91 50.61,-65.42 185.75,-88.05 270.01,-116.56 -16.9,55.27 -101.79,158.7 -154.95,231.45l-496.64 682.17zm2416.65 -902.51c262.95,91.26 229.16,159.87 356.33,244.21 135.38,89.78 32.02,4.68 138.9,114.54 87.87,90.34 103.54,66.63 229.76,179.17 74.3,66.24 174.2,118.13 205.81,157.72 -15.77,85.14 -107.2,140.68 -166.76,228.16l-294.96 -325.78c-110.58,-196.71 -134.48,-143.64 -189.48,-236.09 -99.67,-167.52 -124.75,-137.46 -196.05,-227.4 -24.08,-30.37 -9.77,-25.1 -36.2,-60.98 -25.9,-35.13 -25.22,-26.6 -47.35,-73.55zm-479.83 -13.1c60.79,38.86 156.55,191.79 185.97,213.87 132.91,99.8 94.25,118.02 196.86,213.52 180.59,168.1 87.98,88.02 186.89,209.01 44.61,54.55 66.46,26.5 194.41,213.94 31.41,46.02 214.94,194.71 253.84,299.37l-69.34 47.95c-58.85,-37.66 -686.1,-710.4 -800.51,-845.85 -29.58,-35.02 -90.17,-84.8 -124.08,-113.39 2.56,-96.45 2.78,-159.38 -24.04,-238.42zm-11225.59 19.31c26.84,-16.52 158.66,-30.27 200.96,-28.08 56.63,2.94 28.74,20.13 91.75,34.42 54.63,12.41 69.63,-8.21 106.42,-22.98 68.03,-3.74 -64.21,40.08 253.95,13.15 61.23,-5.19 73.61,-24.03 122.15,-20.43 57.3,4.25 84.71,9.16 134.75,29.23 -48.06,126.39 -53.52,221.72 -129.26,331.09l-647.87 -182.72c-54.88,-36.54 -59.47,-78.11 -132.85,-153.68zm-1041.32 -9.13c63.62,-10.76 72.56,2.73 125.05,19.81l-6.3 106.97c-79.58,-69.26 -91.02,-59.06 -118.75,-126.78zm703.21 2.42c45.72,-24.78 154.37,-23.56 208.79,-1.02 65.93,27.29 90.08,124.24 135.13,123.25 -61.22,6.7 -112.95,-19.88 -176.97,-40.14 -109.02,-34.5 -86.43,-6.3 -166.95,-82.09zm-2852.54 320.19c-82.69,-323.47 -350.85,-213.87 845.91,-329.6 -16.78,27.82 -116.88,135.84 -146.57,151.25l-461.68 130.91c-75.59,28.51 -151.81,53.39 -237.66,47.44zm13650.74 -182c-2.4,-76.3 -3.78,-217.4 22.66,-275.27 41.45,19.67 50.15,4.37 93.41,-2.69 -1.69,167.94 4.57,123.33 -64.61,224.47 -32.74,47.84 -7.49,27.58 -51.46,53.49zm-12810.25 -39.39c45.2,-34.75 64.84,-66.32 120.56,-115.82 55.73,-9.7 117.98,-6.6 160.63,-20.82 -30.24,82.53 -43.65,71.05 -122.49,97.7 -51.92,17.54 -123.49,21.95 -158.7,38.94zm12724.87 151.13c-50.46,34.43 -56.73,51.73 -95.23,111.72 -35.62,55.5 -135.5,127.96 -197.65,228.34 -36.25,58.58 -155.89,159.91 -198.04,224.65 -30.96,47.54 -51.48,77.57 -87.96,121.43 -45.26,54.4 -49.46,38.78 -95.79,117.65 -41.72,71.04 -58.99,76.38 -96.9,128.37 -40.71,-18.59 -42.03,-27.12 -69.72,-49.54 -53.22,-43.13 -155.68,-123.14 -183.03,-177.23 126.26,-123.36 171.99,-254.84 225.61,-308.07 64.51,-64.05 60.81,-76.2 113.55,-154.95 112.8,-168.42 102.05,-125.8 222.27,-328.87 33.01,-55.75 73.41,-93.47 120.02,-162.81 82.27,-122.37 49.05,-49.23 163.67,-103.17 100.73,-47.42 107.3,-45.65 207.13,-17.91l-27.93 370.39zm574.73 -370.39c29.33,-26.58 55.88,-24.21 105.69,-43.43l-3.45 164.06c-60.52,-34.92 -65.75,-65.01 -102.24,-120.63zm-179.9 -9.87c84.79,-15.44 97.42,51.59 154.01,101.36 36.83,32.39 36.92,23.49 66.4,59.92 26.08,32.23 33.82,48.63 65.36,72.85l-5.42 176.65c-12.37,-38.65 -248.3,-330.89 -280.35,-410.78zm-1885.88 403.01c-16.85,-59.21 -33.83,-65.43 -50.98,-117.85 -13.07,-39.98 -22.09,-101.49 -40.1,-126.06 88.56,-48.31 241.99,-49.78 368.42,-67.67 26.14,-3.7 114.56,-23 127.77,-22.97 99.88,0.28 162.75,-16.6 252.15,-31.27l259.31 -29.65 -40.08 35.7c-191.62,185.18 -151.47,93.44 -382.07,197.3 -99.8,44.96 -445.81,141.5 -494.42,162.47zm2326.86 -423.82l220.47 64.24c207.81,74.74 105.69,49.92 285.78,226.85 8.61,8.46 23.72,18.37 36.13,31.25l125.7 171.05c27.21,44.93 33.86,18.78 71.54,70.47 88.65,121.6 86.81,141.57 193.81,243.79 38.74,37.02 30.2,37.73 60.37,80.36l210.43 230.68c-30.22,44.17 -55.25,68.42 -101.52,99.95 -117.62,-68.66 -184.87,-216.51 -281.99,-300.04 -61.49,-52.89 -101.53,-98.87 -130.81,-147.79 -31.5,-52.64 -23.18,-37.58 -68.02,-76.31 -86.87,-75.06 -158.46,-185.46 -206.68,-230.56 -54.82,-51.27 -106.23,-84.51 -148.91,-147.77 -83.68,-123.99 -165.98,-156.43 -266.3,-316.17zm453.2 -42.74l1002.4 76.75c140.3,18.71 253.28,6.11 331.58,39.06 -11.97,66.56 -37.53,141.52 -57.26,202.43l-74.31 177.61c-72.59,-16.93 -98.35,-36.23 -156.62,-56.99 -86.61,-30.88 -89.58,-16.56 -240.07,-74.78 -33.84,-13.1 -48.5,-14.83 -85.86,-25.32 -46.87,-13.15 -117.96,-30.33 -159.94,-48.71 -90.86,-39.77 -495.57,-132.21 -559.92,-290.05zm-12324.56 -80.16c55.92,18.58 93.01,54.93 108.92,112.4 -78.16,-4.39 -31.11,-41.45 -154.17,-9.04 1.16,-76.18 -12.76,-70.1 45.25,-103.36zm120.08 -1.86l149.7 -18.61c38.03,13.89 86.24,65.4 117.2,117.53l-34.23 8.83c-81.04,19.63 -162.16,48.11 -232.67,-107.75zm249.62 -35.74l294.61 -39.77c24.26,-3.11 47.73,-11.96 68.02,-14.01l229.15 -22.55c126.43,-15.57 373.88,21.3 495.48,66.54l152.47 45.53 -10.87 115.9c-87.03,-30.89 -70.56,10.6 -175.72,-16.96 -67.1,-17.57 -97.83,-3.19 -150.88,31.09 -111.91,-38.59 -85.88,-20.14 -185.94,-2.51 -48.74,8.6 -101.46,-7.66 -179.97,3.77 -59.05,8.6 -92.75,-14.9 -185.26,-3.9 -69.24,8.23 -138.7,-5.07 -212.01,-13.34l-139.08 -149.79zm9069.74 246.66c-19.68,-75.9 -59.22,-234.87 -47.39,-311.29 121.16,-3.03 247.29,-54.73 359.98,-67.83 227.31,-26.42 745.78,-179.06 843.41,-122.48 51.28,29.71 85.17,181.33 96.83,228.73 -41.24,55.5 -53.85,36.94 -99.34,83.22 -64.79,65.94 -32.68,32.86 -138.44,57.46l-504.76 64.99c-66.44,4.3 -105.31,23.12 -168.78,29.56l-341.51 37.64zm-10457.01 -65.73l-228.87 8.23c64.88,-97.84 99.89,-130.28 168.46,-252.07l68.09 16.93c-3.36,95.08 30.8,86.08 17.98,160.04l-25.66 66.87zm-447.86 24.12l228.61 -233.21c33.79,-35.13 48.28,-50.48 99.29,-55.15 -152.82,124.1 -129.26,309.04 -327.9,288.36zm2794.96 -331.87l282.01 -36.93c20.84,44.38 24.86,79.14 -0.38,124.62 -64.54,-19.1 -252.38,-61.1 -281.63,-87.69zm-3025.48 362.2c-204.68,-0.21 -832.79,89.16 -934.93,72.44 -24.06,-92.53 -62.25,-231 -56.23,-337.55 75.57,-39.5 95.49,-24.73 177.33,-43.09l572.66 -148.39c53.71,-16.66 126.25,-37.36 174.04,-49.4 155.26,-39.12 93.69,-13.28 371.79,72.08 52.79,16.2 116.72,62.94 154.04,72.47 -62.43,74.67 -134.44,130.75 -209.44,199.83 -104.24,95.98 -126.17,161.74 -249.26,161.61zm5745.08 -383.33c0.9,-82.52 19.18,-113.81 49.42,-159.5 199.39,-26.15 243.2,142.9 214.08,173.56l-14.32 4.9c-102.3,19.38 -85.47,12.48 -175.15,-0.67l-74.03 -18.29zm7900 -74.79c247.46,-102.49 320.43,-103.99 597.57,-34.83l465.08 55.98c211.21,39.47 482.46,106.81 687.65,107.84 9.38,92.42 -24.17,148.5 -25.69,247.45l-492.92 -46.01c-91.6,-19.22 -165.42,6.78 -248.26,-3.4l-472.62 -49.23c-382.87,-39.89 -188.31,15.35 -387.7,-135.61 -111.87,-84.7 -118.5,-34.54 -123.11,-142.19zm-8751.11 -42.73c36.48,22.34 80.79,16.2 136.15,19.23l31.64 54.34c-24.55,49.17 -18.5,16.69 -33.31,43.87 -1.3,2.37 -4.32,5.82 -5.21,8.26 -25.3,69.07 34.04,41.17 147.61,49.56 6.38,119.52 -51.06,58.87 -19.31,145.86 18.35,7.1 -28.32,22.31 32.92,6.89 36.48,-9.18 21.27,-24.43 72.99,-51.26l67.08 41.87c-24.4,87.6 33.07,-71.28 -7.53,17.39 -2.77,6.04 -10.93,16.58 -12.49,26.01l13.62 56.98c-154.77,-8.53 -99.53,5.72 -164.08,4.06 -158.94,-4.11 -42.71,-55.32 -350.2,-6.96 -92.56,14.54 -106.68,6.66 -168.25,-22.14 -47.73,11.95 -101.14,34.74 -151.95,24.69 -47.26,-9.36 -11.97,-19.04 -85.99,-4.06 -37.71,7.64 -38.18,13.24 -84.61,17.08l16.64 -462.07 278.9 -30.12c42.94,-3.06 61.32,-3.86 139.92,-9.95 62,-4.79 133.83,-15.33 187.43,-15.98 -12.44,41.13 -40.35,44.97 -41.97,86.45zm-5883.29 155.47c-14.21,-79.27 -15.35,-216.72 0,-303.52 83.28,-12.08 170.53,6.94 250.4,-6.43 95.64,-16.01 147.39,-2.99 244.71,-9.26 299.06,-19.26 99.33,-41.19 399.66,77.15 -42.84,40.89 -154.6,66.6 -215.89,77.5l-678.88 164.56zm15168.99 -256.54c70.64,0.75 94.54,-7.25 150.79,-10.15l1060.77 -94.77 14.98 235.95c-2.89,52.89 -18.89,63.84 -29.54,79.09 -218.08,-37.9 -704.34,-125.44 -891.63,-142.49 -65.21,-5.93 -254.25,-23.27 -305.37,-67.63zm-13547.23 75.14c-29.59,21.4 -44.74,24.35 -53.06,57.81 -62.4,-10.69 -74.07,-26.65 -120,-61.82l-95.12 -80.86c66.81,-17.87 137.13,-42.8 213.88,-57.34 124.59,-23.59 28.6,51.02 54.3,142.21zm4790.22 44.46c15.69,-36.74 18.61,-41.32 28.68,-78.18 7.03,-25.76 13.81,-62.6 20.17,-77.41 31.61,-73.5 82.67,-79.65 125.91,-86.86 4.58,95.95 3.59,47.71 -24.14,77.41 -10.06,10.78 -9.04,3.64 -19.43,20.63 -14.35,23.46 6.27,16.71 -59.18,85.79l-72.01 58.62zm-3310.31 -124.5c36.01,-40.73 101.76,-69.53 134.78,-100.46l216.24 36.93c54.77,4.23 46.52,-3.73 83.66,16.84 -35.61,10.88 -414.96,54.02 -434.68,46.69zm8971.09 -70.21c64.84,-48.4 205.89,-2.1 290.1,-18.7 99.82,-19.67 187.24,-13.28 287.22,-22.71 97.13,-9.16 132.05,14.92 221.2,56.38 58.14,27.03 176.63,65.69 213.26,94.01 -225.82,62.25 -744.84,139.3 -1006.65,200.59 -22.61,-136.76 -4.13,-118.32 -7.05,-242.79 -0.29,-12.07 -2.07,-29.65 -2.17,-38.83l1.75 -23.88c0.11,-0.65 3,-2.67 2.34,-4.07zm-4921.47 -74.3c77.22,-2.73 134.07,151.35 138.91,173.98l-121.52 -64.99c-46.45,-27.14 -46.32,-48.71 -17.39,-108.99zm-6320.12 46.38c126.35,-1.43 246.96,-21.59 330.32,67.29 -142.67,49.74 -151.55,9.15 -260.17,-27.34 -28.72,-9.64 -17.33,0.02 -42.09,-13.04 -47.62,-25.13 -7.78,-8.67 -28.06,-26.91zm12428.32 112.52l-350.64 -133.64c204.02,-38.67 173.19,-41.98 302.74,36.34 46.72,28.24 39.43,28.35 47.9,97.3zm-10658.89 -2.84l217.93 -164.98c48.28,-30.8 75.69,-5.98 135.49,6.8 71.88,15.34 93.58,20.41 172.38,29.3 -58.12,25.3 -118.31,132.25 -229.05,147.56 -154.35,21.33 -232.8,47.29 -296.75,-18.68zm1201.77 -111.15l451.23 -243.22c3.79,64.49 47.13,146.89 32.48,201.35l-118.05 26.34c-61.58,8.27 -76.68,3.64 -118.33,8.59l-247.33 6.94zm11970.02 -75l-214.14 7.72c26.79,-25.18 33.05,-31.87 88.76,-45.79 133.07,-33.24 602.47,-221.6 670.02,-223.12 18.1,33.69 13.7,70.23 25.46,115.72l24.27 131.46c-194.82,4.26 -389.42,13.39 -594.37,14.01zm-3681.18 22.62c-6.89,-56.93 13.76,-144.27 18.24,-216.87l349.46 147.47c45.95,27.6 20.22,9.11 43.44,43.9 -86.38,23.9 -311.24,29.63 -411.14,25.5zm-12056.56 -176.03c66.34,9.18 238.58,92.78 330.12,131.82 14.44,6.16 43.44,18.98 56.59,25.86l51.25 43.26c-87.89,2.04 -415.16,21.71 -461.13,6.36 6.74,-89.42 22.16,-101.68 23.17,-207.3zm6333.37 196.01c-58.03,18.84 -85.58,46.39 -121.25,69.53 -16.66,-34.84 -38.15,-56.88 -50.75,-97.53 16.92,-13.4 18.79,-11.41 36.8,-27.12 40.7,-35.56 47.93,-67.93 157.96,-37.23 -16.51,25.79 -22.8,49.45 -22.76,92.35zm1069 -24.39c-27.52,-11.9 -77.9,-36.03 -96.45,-49.85 -35.15,-26.19 -28.94,-47.6 -69.53,-50.75 43.94,-45.59 83,-30.57 200.81,-16.98l-34.83 117.58zm6648.12 -185.31c26.42,-64.8 7.27,-64.65 53.19,-100.29 28.31,61.59 41.11,99.23 56.26,158.61 -106.09,-6.49 -59.9,-35.91 -109.45,-58.32zm-12437.02 -133.39c98.21,32.37 180.67,82.48 232.44,91.86 -20.56,55.77 -34.09,102.32 -38.95,169.3 -216.19,-8.91 -112.34,0.16 -162.42,-161.16 -11.13,-35.83 -21.54,-51.3 -31.07,-100zm-1574.82 62.74c7.44,-54.91 24.23,-107.43 39.56,-155.34 7.93,-24.8 14.31,-44.45 28.63,-71.01l42.24 -61.08c74.79,32.97 119.59,83.13 187.6,128.18 72.98,48.33 81.04,23.48 194.45,130.21l359.44 249.02c23.22,19.35 5.47,3.5 25.58,26.95 -292.64,11.53 -218.27,40.65 -485.27,-61.01 -89.48,-34.06 -316.86,-122.17 -392.23,-185.92zm3260.93 240.21c43.93,-27.4 56.19,-41.12 89.14,-67.59 34.51,-27.72 59.34,-44.89 96.61,-71.66l393.71 -271.9c95.85,-65.89 138.16,-119.77 213.4,-124.15 9.08,21.04 15.03,42.87 24.62,69.56l36.93 66.93c23.01,40.1 27.32,101.64 50.57,143.34l-409.57 241.28c-164.19,103.35 -150.19,91.42 -434.09,40.84l-61.32 -26.65zm11123.81 -0.44c-31.7,-54.88 -36.73,-103.62 -39.21,-171.28 51.83,-25.88 130.8,-91.78 177.77,-105.02l-69.18 231.85c-21.54,45.23 -24.81,40.05 -69.38,44.45zm-2215.66 -561.67c63.66,12.04 129.93,85.04 195.59,124.53 111.42,67.01 41.5,-6.14 195.08,128.08 32.05,28 51.92,47.97 88.69,67.88 157.69,85.4 57.59,42.01 197.2,142.51 39.84,28.69 72.5,20.43 99.94,69.55 -185.62,-9.27 -212.52,61.78 -475.27,-61.24 -59.56,-27.88 -116.78,-57.82 -199.4,-85.04 -186.66,-61.48 -77.4,-52.46 -204.24,-94.79l102.41 -291.48zm-10177.06 307.76c16.66,-29.18 29.66,-61.33 50.71,-102.06 29.96,-57.94 16.24,-52.13 55.93,-92.99 2.35,-2.42 6.83,-5.85 10.3,-8.72l83.14 185.08c-61.4,73.39 -134.82,97.63 -200.08,18.69zm12193.22 -295.78c47.76,99.66 45.22,254.08 73.33,369.11 -16.95,9.74 -12.87,8.45 -34.41,20.91 -31.9,18.45 -11.25,7.9 -37.29,18.93 -22.86,-39.33 -20.4,-71.02 -33.68,-106.87 -29.1,-78.54 -95.52,-106.32 32.05,-302.08zm867.88 559.25c13.86,-34.06 201.19,-136.48 251.76,-163.93l804.59 -463.03c17.68,21.44 106.67,234.77 110.14,283.21 -47.72,13.23 -91.27,24.7 -134.7,43.09 -209.39,88.64 -206.12,63.59 -284.55,95.12 -45.5,18.3 -99.55,47.45 -138.89,61.85 -100.59,36.86 -83.13,11.42 -283.64,95.8 -91.3,38.42 -201.17,53.26 -324.71,47.89zm-8955.13 -428.37c-11.28,-82.44 54.77,-114.86 75.48,-193.07l64.38 54.47c32.02,23.56 53.05,41.61 68.52,77.43 -22.27,50.86 -30.49,62.31 -87.67,73.9 -25.94,5.24 -88.71,-0.35 -120.71,-12.73zm-3703.97 180.24l-8.61 -71.63 254.82 -175.05c18.04,43.82 5.16,143.25 -47.74,184.91 -42.72,33.66 -117.35,56.29 -198.47,61.77zm740.87 236.94c-53.97,-20 -220.48,-54.07 -278.09,-46.73 25.85,-45.91 29.54,-37.03 74.83,-68.47 106.37,-73.81 67.9,-72.37 154.72,-128.01 46.83,-30 45.95,-26.79 73.36,-68.35 133.2,-7.14 116.73,-32.11 211.07,-56.32 34.75,-8.91 74.28,-8.08 109.8,-18.16 57.24,-16.23 71.27,-55.57 68.28,-29.76 125.05,-1.18 106.71,12.71 163.99,-20.62 30.56,-17.77 70.37,-60 92.87,-27.88 -48.21,-3.2 -171.56,109.48 -243.42,159.45 -20.5,14.25 -24.53,16.8 -43.44,26.9l-296.29 211.97c-35.18,32.12 -46.75,42.06 -87.68,65.98zm4074.94 -459.68c5.6,-72.63 2.75,-89.9 108.42,-126.88 35.44,45.48 41.26,48.85 39.63,105.71l-148.05 21.17zm7346.91 348.02c2.07,-71.07 60.88,-240.03 102.25,-275.82 46.32,-40.08 161.52,-144.53 218.33,-160.92 -27.82,90.98 -71.27,175.14 -121.05,257.94 -31.19,51.9 -48.64,62.38 -90.8,91.82 -53.19,37.16 -66.94,52.12 -108.73,86.98zm-12420.93 -423.21c17.32,-41.17 36.24,-82.49 66.3,-122.65 32.75,102.07 87.53,230.71 97.03,320.47l-40.22 22.37c-67.26,-96.34 -80.22,-151.82 -123.11,-220.19zm-202.23 240.04c-21.32,-22.28 -26.04,46.83 -17.6,-40.49l45.1 -132.29c13.92,-52.33 23.75,-137.48 49.64,-175.04l45.24 107.78 -122.38 240.04zm-1801.08 -310.69c44.04,-56.08 85.02,-218.34 170.42,-263.65 34.53,15.03 111.58,54.44 165.11,78.53 29.38,13.22 58.11,19.48 93.53,31.6l618.38 285.69c100.7,49.72 111.02,32.9 150.1,103.15 38.67,69.5 61.18,92.22 85.49,172.13 25.02,82.35 59.14,127.32 76.91,183.07 -36.17,0.05 -76.51,-3.81 -111.06,-2.64 -272.66,9.21 -291.14,84.36 -510.9,-76.55 -53.28,-39.01 -87.83,-61.38 -152.9,-100.75l-290.21 -204.59c-51.88,-35.84 -100.08,-68.28 -152.4,-100.69 -25.59,-15.84 -54.56,-29.88 -80.13,-47.95 -40.74,-28.77 -31.11,-29.94 -62.34,-57.35zm1152.87 -31.54c107.29,28.88 173.52,85.6 165.62,203.95 -102.7,-39.52 -114.95,-90.85 -165.62,-203.95zm11323.27 -98.89c74.52,26.11 88.41,98.38 253.91,156.34 145.56,50.97 140.94,138.94 170.06,234.86 28.46,93.72 84.44,238.68 91.78,312.69 -86.71,4.01 -162.63,-94.29 -234.97,-139.97 -96.86,-61.2 -82.29,-38.5 -177.73,-116.87 -131.9,-108.3 -72.45,-47.03 -170.49,-111.95 -45.06,-29.84 -44.57,-46.06 -103.28,-80.2 -64.8,-37.7 -190.34,-109.36 -223.28,-145.92l120.81 -249.4c49.15,18.16 81.21,45.57 135.77,80.14 121.34,76.87 65.45,35.04 137.42,60.28zm2071.25 756.37c99.79,-302.98 269.79,-319.16 474.18,-491.47l470.98 -362.17c146.37,-120.71 62.65,-73.48 243.65,-183.81 134.74,167.46 37.79,59.08 107.05,163.38 46.48,69.99 74.1,110.15 98.42,177.47l-990.29 572.15c-30.14,21.78 -46.61,34.2 -74.97,52.03 -43.72,27.49 -133.09,73.83 -185.19,76.35 -42.09,2.02 -100.58,-2.16 -143.83,-3.93zm-602.55 -512.81c-14.02,-15.7 -12.2,11.06 -28.37,-48.02 -6.74,-24.68 -5.61,-24.87 -3.59,-48.75 2.05,-24.19 18.56,-70.27 28.29,-99.58 21.96,-66.21 30.91,-144.56 44.78,-212.22 11.86,20.22 54.03,200.1 50.19,219.96 -5.86,30.25 -74.85,161.16 -91.3,188.61zm-10555.68 -47.93c14.07,-38.03 232.37,-194.3 279.94,-218.02 44.06,-21.97 54.85,-39.19 99.14,-61.21 33.29,75.06 73.95,103.29 79.11,155.95 -96.32,29.97 -178.74,-29.25 -236.12,72.04 -49.27,2.44 -86.56,5.24 -124.34,17.15 -40.02,12.61 -65.62,30.24 -97.73,34.09zm-810.94 160.02c-1.37,-49.06 27.63,-157.9 81.73,-199.49 41.89,-32.21 124.4,-94.58 176.9,-112.59 -19.1,54.17 -37.9,64.35 -51.8,98.66 -37.04,91.44 17.22,37.63 -48.4,89.89l-118.5 94.54c-15.98,14.04 -25.86,18.69 -39.93,28.99zm4379.42 -261.83c0.46,-71.53 2.81,-81.21 29.12,-131.15 114.35,-5.27 38.4,9.95 113.75,40.76 -133.44,66.15 -23.35,73.92 -142.87,90.39zm-653.92 74.16c-89.42,-13.14 -151.36,-96.86 -163.99,-182.39l66.12 37.41c34.01,14.84 27.85,10.42 55.67,28.01 57.52,36.41 45.73,43.24 42.2,116.97zm-4333.04 -80.68c-25.16,-13.61 -48.02,-35.25 -63.88,-79.45 -22.66,-63.13 52.9,-242.75 69.91,-311.05 13.61,31.11 17.27,63.48 26.66,103.7 15.94,68.27 85.32,144.08 -32.69,286.8zm4733.24 -263.63l108.24 0.82c17.68,31.3 26.61,96.26 4.02,134.27 -23.53,39.58 -72.87,28.38 -135.73,30.22l23.47 -165.31zm-335.55 41.84c160.11,-51.74 35.48,-50.13 138.99,-43.66 16.35,30.22 16.06,52.47 27.77,87.18 20.01,59.37 26.47,11.52 -4.93,74.66 -97.05,15.28 -160.35,-20.45 -184.76,-107.61 3.66,-2.13 8.36,-4.58 11.38,-5.67 2.99,-1.07 7.85,-3.71 11.55,-4.9zm-1464.13 95.36c107.45,-51.51 90.08,-31.26 201.2,-73.65 45.43,-17.33 58.6,-16.84 114.82,-25.22 54.58,-8.14 72.35,-31.61 101.47,-34.49 20.29,-2.01 68.75,9.37 96.19,5.6 57.08,-7.83 53.99,-28.48 96.37,-43.61 94.98,-33.88 105.9,35.4 187.5,-60.99 92.57,27.16 78.93,22.35 190.98,-4.49l-9.38 106.38c-0.66,2.77 -4.4,12.15 -4.97,10.27 -0.55,-1.86 -3.75,6.48 -5.74,9.66 -36.28,10.51 -21.3,5.72 -62.67,-13.01 -118.21,-53.53 -14.56,74.27 -55.91,190.32 -26.74,-37.95 -34.91,-32.4 -84.72,-14.74 -1.43,3.33 -3.73,7.78 -4.14,10.06 -9.75,56.44 -12.14,-3.3 8.09,66.2 8.94,30.7 11.06,39.89 18.98,69.52l-549.51 34.11c-105.48,20.32 -61.62,1.43 -162.83,11.56 -14.36,-98.81 -49.49,-169.87 -75.73,-243.48zm7348.49 -153.2c14.53,-50.28 60.48,-100.59 95.6,-138.97 2.01,-2.19 5.03,-5.08 7.08,-7.25l87.8 -86.85 91.86 81.23c2.34,2.04 5.85,4.41 8.17,6.51l152.04 131.23 103.97 250.3c9.04,27.63 15.54,65.36 22.87,88.8 -60.2,-15.72 -26.05,-11.68 -68,-45.82 -36.59,-29.77 -149.42,-63.57 -219.9,-117.08 -173.61,-131.78 -187.71,-93.9 -281.49,-162.1zm-12052.84 0c12.56,-24.83 19.28,-34.55 43.56,-62.2 24.27,-27.64 26.84,-36.25 48.46,-65.03l113.64 -107.97c28.82,-1.05 199.25,147.57 241.86,171.99l359.81 232.85c61.27,44.52 24.92,36.06 60.48,108.34 45.33,92.18 43.4,21.34 62.85,125.09 -62.58,-14.18 -95.01,-21.21 -138.34,-47.98 -119.83,-74.06 -180.9,-71.16 -236.91,-102.56 -38.23,-21.43 -50.13,-43.28 -92.5,-64.72 -103.26,-52.26 -83.06,-1.61 -237.3,-102.83l-225.61 -84.98zm5717.6 -123.54c24.61,-12.86 104.35,-18.55 150.75,-36.34l-2.36 67.6c-44.06,7.44 -44.75,19.71 -80.39,3.65l-68 -34.91zm8833.97 679.34c16.07,-44.19 35.55,-91.49 57.35,-144.47 12.31,-29.92 51.34,-107.13 75.72,-135.6 8.01,-9.34 43.73,-51.54 52.91,-58.6 15.42,-11.87 44.36,-21.63 64.42,-35.05l340.34 -266.9c44.03,-42.54 181.22,-149.02 238.53,-175.25 44.52,23.69 75.85,75.36 98.06,116.87 -46.28,27.72 -72.49,58.44 -117.76,93.57l-118.35 78.03c-17.91,9.28 -608.88,503.64 -691.22,527.4zm-11848.18 -265.56c8.84,-102.03 39.6,-135.8 109.43,-184.19l466.95 -311.97c72.04,-24.76 37.52,-8.7 48.65,3.03 28.87,30.38 -28.18,60.67 -46.72,72.54 -186.91,119.71 -130.38,103.38 -242.82,180.97 -109.62,75.65 -273.53,215.61 -335.49,239.62zm116.52 -280.76c26.48,-92.31 71.39,-154.23 104.51,-243.92 20.34,-55.04 30.42,-69.02 46.53,-124.05 9.27,-31.71 11,-54.84 40.7,-86.23 26.03,-27.52 -9.46,1.82 31.03,-21.99 17.18,28.64 170.5,135.24 209.27,195.93 -79.7,28.88 -244.78,153.03 -325.99,208.09 -37.55,25.47 -70.7,49.81 -106.05,72.17zm9472.37 -288.54c28.77,-50.19 54.14,-76.54 106.99,-109.44l66.47 250.39c-21.8,-27.17 -58.25,-39.63 -90.98,-66.5 -39.23,-32.2 -51.59,-60.9 -82.48,-74.45zm-12038.84 -19.91c48.43,-27.58 36.84,-22.5 75.45,-55.69 30.14,-25.92 120.09,-130.64 190.44,-149.62 29.42,81.86 61.29,182.83 112.71,270.64 64.25,109.74 53.38,144.8 83.52,210.57 13.31,29.07 13.64,14.52 27.92,57.01 -134.43,-45.09 -211.46,-150.86 -376.13,-241.77 -61.33,-33.86 -87.86,-45.19 -113.91,-91.14zm14831.21 -218.83c53.95,17.04 172.76,137.79 259.57,203.83 -63.39,22.36 -107.98,68.45 -155.34,105.82l-286.42 222.39c-35.53,25.71 -109.89,84.27 -144.07,96.65l326.26 -628.69zm-10707.65 21.01c175.05,-164.49 332.65,-239.4 489.33,-367.15 101.58,-76.06 550.12,-443.93 621.43,-470.92 56.37,74.62 88.04,346.96 172.37,510.3 39.35,76.23 102.42,386.24 156.4,512.41 -35.34,0.21 -57.42,2.88 -79.43,9.2 -50.69,14.54 -18.1,2.03 -45.37,24.13 -69.57,56.39 -35.85,12.55 -244.94,68.19 -60.27,16.04 -61.24,25.73 -110.26,44.15 -66.44,24.97 -53.9,5.68 -107.47,18.06 -31.61,7.29 -89.62,37.52 -112.04,40.27 -71.23,8.75 -125.18,-45.59 -188.63,52.68 -117.33,-4.95 -153.88,-23.55 -202.7,67.45 -145.5,-57.81 -66.88,-16.53 -119.74,-107.38l-228.95 -401.39zm-1655.24 -156.12c36.85,28.75 171.32,64.25 237.84,142 -18.05,51.91 -70.78,167.73 -97.92,228.85 -76.99,173.49 -99,313.07 -225.65,410.82 -40.4,31.18 -143.18,111.06 -179.36,113.43l180.41 -625.82c6.04,-19.19 8.14,-39.07 12.67,-57.13 20.13,-80.53 35.72,-174.72 72.01,-212.15zm-2148.4 113.73c245.67,-186.9 243.34,-155.04 277.97,-14.06 33.28,135.46 179.79,743 224.01,819.56 -55.75,-19.34 -47.34,-36.83 -99.67,-68.27 -157.21,-94.51 -60.35,-0.4 -160.14,-177.89l-242.17 -559.34zm13778.28 966.97c18.54,-85.79 64.44,-193.19 102.36,-297.31l296.9 -843.09c41.28,8.1 36,13.53 67.81,30.03l199.51 97.31c-14.68,104.1 -75.62,164.3 -107.43,227.18l-237.88 481.42c-77.31,170.54 -202.63,195.5 -321.27,304.46zm-13468.11 -1136.53c101.67,-48.68 161.05,-87.63 265.41,-96.8 99.68,109.95 103.25,236.44 183.14,366.64l185.14 366.33c39.73,105.93 11.34,84.52 77.32,190.26l33.77 53.96c1.4,2.2 4.21,6.53 6.28,9.8l-123.02 387.01c-24.04,-7.27 -114.48,-59.95 -145.62,-80.3 -55.67,-36.41 -76.04,-69.36 -135.59,-106.47 -133.81,-83.38 -60.98,-84.93 -146.57,-336.23l-108.32 -369.51c-19.01,-62.84 -15.18,-128.26 -40.93,-195.53 -48.83,-127.61 -28.53,-83.41 -51.01,-189.16zm1155.79 1254.56c-44.23,-68.85 -90.89,-259.47 -112.54,-370.09 -14.83,-75.75 171.5,-397.72 214.17,-486.49l223.34 -481.04c118.46,5.76 179.09,61.84 286.98,95.12 -26.44,38.16 -20.24,60.55 -28.91,101.38 -6.14,28.94 -17.61,53.04 -30.21,89.53l-147.79 539.55c-81.06,221.86 -19.56,241.43 -142.23,326.06l-200.08 139.03c-20.2,17.46 -44.75,31.89 -62.73,46.95zm11353.75 -837.32c26.5,71.57 46.8,111.03 65.5,179.23 62.83,229.1 183.74,429.14 142.92,578.77 -17.49,64.12 -27.68,129.36 -57.94,179.69 -75.25,-25.1 -157.49,-100.82 -228.26,-152.9 -82.21,-60.52 -96.48,-284.01 -159.7,-460 -30.75,-85.63 -29.97,-127.1 -49.02,-201.15 -27,-105.04 -165.18,-507.22 -142.46,-584 22.76,-12.96 171.46,-77.39 222.07,-78.09 60.1,111.93 35.3,79.07 69.63,185.59l137.26 352.86zm608.09 977.23l-80.92 -427.66c2.48,-12.45 26.08,-71.28 33.66,-91.54l131.9 -277.83c92.18,-177.71 184.1,-352.64 260.69,-543.53 25.63,-63.9 54.21,-109.82 87.45,-179.06 50.41,1.23 192.6,56.35 240.26,79.39 18.71,59.14 -156.46,490.76 -192.27,588.31l-136.67 400.41c-18.38,71.74 -48.86,118.92 -74.59,193.79 -42,122.28 -165.37,199.57 -269.51,257.72zm-12769.93 -1507.5c60.33,-23.51 253.78,-68.12 327.64,-56.59 44.3,69.46 55.03,157.96 71.56,238.75l69.72 240.49c59.41,240.14 35.39,125.05 -24.55,360.69 -10.26,40.36 -6.51,73.13 -32,105.67l-149.95 -343.42c-15.98,-37.46 -42.86,-65.23 -59.29,-97.18 -23.36,-45.43 -40.83,-74.13 -58.06,-111.44l-145.07 -336.97zm658.41 840.11c-33.41,-147.95 -51.14,-158.77 -68.19,-228.09 -14.75,-59.89 73.09,-384.59 97.91,-461.61 12.18,-37.79 14.87,-78.57 26.82,-117.08 8.24,-26.59 41.29,-61.26 25.48,-91.48 102.85,31.25 220.47,22.13 336.36,63.31 -57.72,75.25 -69.95,120.44 -106.54,213.33 -20.42,51.86 -21.27,57.86 -50.86,104.8 -24.96,39.59 -24.42,60.81 -47.59,107.34l-213.39 409.48zm11780.83 -640.95c9.16,50.12 13.69,115.73 20.95,158.48 28.96,170.47 97.19,190.37 38.81,438.68 -17.48,74.35 -40.07,226.04 -72.14,273.15 -28.85,-45.86 -78.19,-206.68 -106.75,-273.12 -23.58,-54.88 -28.29,-95.96 -43.17,-153.26 -34.27,-131.9 -66.22,-128.17 -100,-284.84 -28.5,-132.18 -86.77,-187.55 -124.8,-332.14 -13.51,-51.38 -3.76,-19.75 -25.32,-70.75l361.52 -48.54c-0.14,65.12 8.47,96.31 17.2,155.28 16.41,110.91 25.75,93.65 33.7,137.06zm229.26 732.03c-27.48,-55.78 -53.67,-196.37 -52.74,-264.9l158.13 -642.08c13.52,-50.65 31.64,-64.42 34.22,-126.32 112.77,34.76 242.99,25.42 330.38,69.21l-469.99 964.09zm-12021.09 -993.02c63.47,-2.83 -6.24,15.08 19.42,-6.86 -31.59,143.51 -108.35,358.68 -108.65,472.61l-39.17 -59.54c-4.67,-11.4 -14.91,-39.82 -19.15,-51.94 -15.4,-44.07 -11.44,-65.56 -21.78,-117.53 -17.6,-88.28 -56.9,-145.02 -69.09,-237.48l238.42 0.74zm12088.3 -40.63c-8.21,79.42 -133.73,459.58 -155.54,622.5 -15.35,-24.6 -1.72,26.36 -15.09,-36.4 -9.67,-45.39 1.42,10.43 -3.55,-35.85 -4.49,-41.88 -4.86,-46 -13.85,-83.22 -15.27,-63.19 -93.65,-428.8 -84.54,-466.75 64.34,-11.44 185.54,-5.31 272.57,-0.28zm-9275.96 -1554.02c66.18,-79.2 224.96,-69.21 363.16,-179.17l16.54 61.89c-264.84,123.64 -139.82,176.23 -379.7,117.28zm740.3 -434.77c24.25,-31.24 196.17,-146.18 206.51,-150 -52.71,53.31 -50.02,161.68 -185.4,222.46 -21.5,-44.11 -18.03,-19.61 -21.11,-72.46zm485.56 1391.04c81.49,-6.15 289.88,-76.62 358.09,-109.52 91.79,-44.26 242.59,-68.95 343.07,-104.28l511.43 -166.72c144.75,-46.34 181.21,-71.33 349.42,-118.89 33.65,-9.51 57.98,-12.25 90.52,-22.58l250.69 -91.18c59.8,-17.24 119.13,-37.38 173.6,-50.55 63.72,-15.39 110.79,-29.37 173.5,-50.56l163.99 -66.38c226.24,-79.35 464.22,-161.53 697.51,-218.73 125.48,-30.75 237.53,-87.65 340.55,-114.75l410.7 -123.52c93.93,-57.58 460.06,-155.78 614.2,-207.79 205.66,-69.37 479.76,-156.84 687.95,-215.12 63.14,-17.69 104.21,-32.99 172.27,-51.25 105.78,-28.36 121.15,-64.94 171.78,-32.47 -21.8,50.31 -52.73,54.6 -133.63,109.34l-2023.15 1425.72c-153.43,107.99 -404.91,251.08 -541.96,376.23 -76.03,69.41 -575.34,374.14 -683.47,474.02 -92.48,85.42 -538.14,356.84 -676.67,469.16 -401.18,325.35 -245.02,146.82 -485.18,75.64 -14.99,-4.44 -30.93,-8.19 -45.29,-13.56 -18.01,-6.72 -75.16,-38.67 -82.97,-40.54 -67.99,-16.24 -35.13,18.6 -99.82,-0.44 -114.63,-33.75 -187.16,-58.42 -346.5,-31.29l-62.98 -136.66c-40,-135.12 -33.87,-154.45 -96.01,-273.84 -24.85,-47.72 -62.28,-241.13 -89.32,-291.55l-142.32 -397.94zm7528.14 -383.21c-238.94,30.48 -463.52,78.05 -683.26,163.3 -22.67,8.8 -45.33,11.36 -75.65,22.47l-129.23 45.88c-53.09,-137.51 -83.73,-276.78 -123.73,-407.26 -187.54,-611.7 -79.23,-377.78 -63.37,-478.98 -22.96,-107.38 -67.44,-109.37 -96.73,-222.96 -7.14,-27.64 -10.13,-48.33 -16.25,-67.9l-213.21 -683.05c-47.38,-165.91 -88.34,-326.69 -151.34,-498.87 -50.72,-138.57 27.05,-186.2 -65.66,-270.61 -2.07,-1.88 -5.09,-4.79 -7.07,-6.83 -91.94,-94.24 -102.21,-42.43 -102.7,-174.74 147.01,-18.8 165.11,33.27 222.42,151.91 17.44,36.1 28.32,49.08 43.6,82.98 89.33,-10.26 176.31,-58.17 261.96,-88.98l248.14 -91.43c9.96,-62.49 -0.74,-23.95 -12.97,-59.74 -3.04,-8.9 -12.73,-47.11 -14.86,-55.1l-40.28 -154.48c-24.34,-72.46 -6.1,-8.83 -26.5,-45.01 -12.69,-22.51 -10.94,-65.91 -22.99,-98l-58.68 -163.82c-1.17,-2.65 -7.71,-41.21 -8.58,-44.88 -23.56,-98.69 3.18,-62.27 -85.91,-73.27 -112.13,-242.77 -237.58,-669.98 -334.29,-939.46 74.46,-154.35 134.56,-326.52 31.61,-492.04 -82.68,-132.91 -213.79,-242.49 -380.57,-239.27 -103.64,2.02 -196.9,40.13 -284.87,91.79 -210.81,-37.63 -400.16,-105.75 -495.53,184.93 -54.57,166.33 37.77,311.98 185.58,383.3 65.52,31.62 57.03,36.56 150.69,35.11 49.79,108.46 188.89,233.77 309.14,245.8 53.55,5.35 76.4,15.86 136.39,10.27 75.94,235.16 167.27,476.34 253.31,708.87 13.83,48.98 13.57,56.78 30.1,99.2 -79.46,22.68 -101.15,22.73 -179.86,56.54 -51.56,22.13 -118.5,19.37 -177.82,32.33 -72.17,-35.94 2.55,-33.69 -113.1,-36.38 -61.66,-1.44 -76.88,-26.49 -120.42,-1.23 -39.89,23.14 -44.17,47.69 -84.2,72.17 -46.17,28.23 -61.09,7.59 -37.68,74.39 -102.47,10.67 -55.15,30.08 -127.83,60.26 -43.89,18.23 -92.28,22.93 -137.93,40.46 -5.88,98.99 36.11,233.43 75.43,335.5l39.26 129.33c73.8,-1.45 111.13,-3.78 164.26,-39.81 2.01,3.07 4.79,7.14 5.96,9.25 32.52,58.69 52.43,126.02 26.95,188.71 -1.3,3.17 -2.96,6.85 -4.35,9.94 -84.92,186.86 55.77,52.78 109.8,315.44 -116.49,-0.31 -546.72,164.75 -688.09,211.91l-866.71 275.65c-406.38,121.62 -805.2,260.67 -1210.73,375.96l-2768.61 875.23c-19.17,-50.19 -36.13,-116.89 -48.13,-159.56 -20.45,-72.77 -140.05,-351.93 -168.11,-462.84 40.02,-37.15 65.72,-41.48 131.87,-56.26 16.66,-48.35 24.14,-50.55 49.59,-93.08 62.91,-105.05 37.08,-38.01 142.44,-239.37 42.13,-80.52 7.84,-123.04 86.17,-164.62 95.69,-50.8 188.77,-69.34 280.92,-114.82 140.07,-69.11 491.57,-254.95 557.31,-335.09 -10.62,-88.76 -77.3,-170.01 -152.38,-211.5 -2.85,-1.59 -6.82,-3.13 -9.81,-4.7 -52.51,-27.5 -93.74,-38.53 -161.41,-32.4 -109.43,9.93 -181.59,85.32 -313.78,119.9 -142.66,37.31 -280.13,103.85 -413.57,168.01 -164.08,78.87 -344.36,135.63 -508.54,211.44 -51.78,23.91 -166.04,56.4 -221.36,74.2 -73.84,23.74 -141.79,45.76 -223.49,63.98 -64.86,14.45 -162.87,43.72 -225.85,66.59 -59.14,21.46 -322.37,56.98 -472.07,110 -45.37,16.06 -63.46,21.85 -108.79,31.98 -103.18,23.08 -201.35,83.22 -288.77,134.47 -79.26,46.44 -83.69,92.17 -114.45,172.36l81.88 81.84c34.44,32.4 40.23,58.1 83.75,81.98 153.15,83.96 309.85,148.5 490.17,166.93 84.35,8.63 192.47,-4.52 282.71,8.54 60.98,88.18 124.31,138.22 227.23,159.12 20.75,4.22 72.86,6.94 96.96,5.12l325.93 -149.76 246.85 711.16c-68.63,38.8 -155.22,87.01 -208.46,145.98l-264.39 201.47c-113.79,99.02 -328.06,258.38 -458.69,348.21l-191.91 147.14c-15.76,14.4 -24.54,19.18 -40.55,30.08 -28.78,19.62 -47.31,29.1 -71.03,53.23l-86.15 -97.52c-76.77,-75.62 -60.88,-95.9 -180.74,-186.31l-638.71 -450.61c-130.46,-54.91 -233.28,-130.33 -370.47,-166.64 -71.2,-18.85 -57.81,-31.53 -131.99,-49.34 -101.27,-24.32 -185.87,-71.46 -288.82,-80.23 -66.71,-5.67 -401.45,-82.16 -547.65,-77.38l-259.67 1.04c-34.12,-0.63 -87.59,-3.8 -118.19,1.51 -94.21,16.3 -164.79,25.62 -261.56,35.54 -178.16,18.26 -534.52,111.4 -711.49,191.15l-422.24 213.2 -680.05 550.87c-74.63,61.89 -86.8,94.11 -140.57,169.1l-160.55 205.6c-17.19,26.17 -6.13,9.94 -18.26,24.67 -0.29,0.35 -16.12,16.65 -20.55,22.22 -55.94,70.34 -257.08,441.24 -281.81,524.1 -25.65,85.99 -75.66,186.1 -96.55,267.23 -24.42,94.81 -48.37,188.08 -73.82,283.46 -42.29,158.42 -37.7,261.72 -62.26,401.74 -16.61,94.71 -14.55,543.6 11.3,662.44 10.37,47.7 3.98,24.06 5.51,58.54 4.12,92.99 71.94,345 94,435.2 81.97,334.9 210.3,490.57 273.49,643.88 35.16,85.26 90.53,149.69 133.92,233.02 36.94,70.91 104.9,134.18 151.51,202.8 27.79,40.9 21.84,23.47 46.22,51.95 17.27,20.2 17,26.92 36.54,50.31 79.38,95.01 180.51,179.75 268.41,267.31 72.02,71.72 210.45,195.24 294.02,245.98 41.79,25.37 68.81,45.02 111.71,70.59 54.34,32.41 5.53,6.05 54.41,42.39l72.55 42.09c2.85,1.7 6.17,4.05 9.02,5.71l472.73 219.89c48.04,22.5 90.47,25.68 137.65,44.91 50.71,20.67 80.39,25.38 130.61,37.68 48.61,11.91 100.32,32.73 146.7,44.21 122.52,30.36 435.58,73.46 556.66,72.77 195.97,-1.1 479.52,2.36 660.65,-42.8 74.9,-18.66 57.1,1.61 132.88,-20.62 48.02,-14.11 100.17,-30.55 148.2,-42.07 202.07,-48.46 473.87,-147.05 660.74,-241.33l271.73 -167.76c2.21,-1.68 5.27,-4.44 7.53,-6.06l157.56 -111.22c106.81,-62.49 192.87,-168.38 290.47,-245.41 33.46,-26.4 28.08,-25.59 51.64,-48.37l128.94 -138.12c99.9,-95.32 181.38,-241.1 238.32,-299.81 64.14,-66.12 87.46,-151.44 138.38,-229.95 99.23,-152.97 136.39,-273.86 206.43,-431.64 21.02,-47.33 12.6,-11.63 29.39,-53.39 19.18,-47.71 13.43,-84.36 35.32,-133.57 122.53,-275.22 43.5,-544.53 233.82,-420.77l71.8 -24.39c1.2,-0.3 58.27,-10.8 59.36,-10.9 64.45,-5.7 53.17,14.67 109.08,37.33l50.75 -53.48c64.5,3.38 131.27,35.21 162.08,35.59 20.72,0.26 53.76,-16.66 73.09,-19.03 51.33,-6.26 30.11,5.69 76.33,15.79 24.32,5.33 105.41,-7.4 169.94,0.06 52.22,6.04 96.09,-20.99 146.21,-30.6 24.34,18.42 34.91,31.24 57.99,49.88 215.95,-33.26 44.39,-58.66 213.28,18.54l51.97 -57.14c105.02,-3.05 115.41,31.7 205.92,7.09 101.26,-27.53 110.03,22.96 208.62,-17.28 63.32,-25.86 135.51,-28.26 199.19,-54.39 64.09,-26.3 7.94,-20.32 73.15,-48.91 140.6,-61.67 184.68,-113.44 287.86,-212.37 24.46,-23.46 48.64,-33.91 73.21,-53.54 89.15,-71.18 129.72,-217.12 159.57,-334.33 13.15,19.66 19.53,29.92 36.53,48.24 82.88,-0.75 85.13,9.08 92.84,-76.88l97.45 -4.7c15.54,57.03 19,68.42 92.37,68.22 13.17,-24.06 15.95,-33.55 19.56,-72.74 116.55,-12.98 173.16,5.23 279.45,-6.41 31.26,-3.43 28.84,-6.13 37.26,-9.14 2.29,63.71 18.95,81.74 82.98,72.04l20.33 -70.45c64.68,-5.13 132.98,-5.51 198.24,-3.23 63.09,2.23 76.31,13.05 91.55,38.09 1.7,2.79 -2.62,53.93 8.08,17.99 0.62,-2.06 2.43,6.2 4.77,11.51l84.47 -15.99c7.67,-16.55 13.93,-37.13 22.75,-54.53 147.24,9.07 91.68,-15.32 142.1,80.29 39.1,-3.41 32.99,-3.95 66.14,-16.61 0.91,-0.33 27.34,-11.49 29.71,-12.58 32.99,-15.41 22.03,-58.07 36.49,-91.6 12.23,-28.4 27.32,-36.3 33.98,-53.18 18.99,-48.13 2.29,-113.06 3.7,-165.5 2.24,-83.3 -2.91,-73.36 -20,-148.24 -23.68,-103.71 36.11,-182.83 -101.96,-207.36l-20.54 79.06 -141.35 0.11c-2.14,-3.61 -4.23,-8.51 -5.44,-11.38l-13.03 -34.06c-11.66,-24.99 6.24,-8.11 -23.93,-31.72 -56.74,18.27 -28.32,10.13 -47.58,78.05 -114.14,13.01 -217.12,-0.48 -342.98,-1.44 -1.23,-67.84 2.3,-71.96 -70.07,-78.83l-21.88 89.33c-55.83,-18.25 -119.26,-8.08 -184.6,-5.66 -148.52,5.49 -31.41,-44.53 -164.21,-61.33l-25.27 69.92c-40.4,-0.08 -71.37,5.33 -97.21,-1.27 -40.26,-10.28 -4.85,-25.04 -64.21,-0.88 -8.45,-49.42 4.37,-35.68 -41.96,-62.3 -54.87,28.9 -16.42,1.74 -42.41,55.65 -33.7,-51.13 -18.49,-82.74 -36.01,-138.7 47.31,-29.12 85.2,-58.4 124.98,-92.37l186.81 -123.1c2.43,-1.69 5.64,-4.2 8.04,-5.94l42.36 -30.1c154.42,-82.13 279.67,-199.25 422.48,-298.88 48.79,-34.04 93.93,-46.73 140.26,-85.23 43.24,-35.91 73.64,-55.53 120.38,-89.9l652.81 -466.12c121.06,-101.91 260.02,-173.65 387.42,-275.46 135.35,-108.18 321.19,-239.34 470.93,-320.69 112.68,-61.22 213.05,-159.41 317.78,-232.96 96.93,-68.08 154.29,-125.51 259.2,-179.09 64.69,-33.03 81.1,-55.48 130.62,-95.73 43.91,-35.71 87.14,-53.36 134.25,-91.18 101.08,-81.16 203.54,-174.07 318.94,-233.92 93.11,-48.28 174.54,-115.52 258.89,-177.88 31.41,-23.22 29.77,-29.18 61.58,-51.5 40.36,-28.31 83.23,-49.85 122.52,-88.75 2.19,3.04 5.21,7.01 6.5,9.15 1.26,2.09 4.74,6.47 6.19,9.1 45.85,82.5 21.24,125.46 19.85,196.15 -0.72,36.9 14.85,50.48 24.93,69.71l83.52 -12.1c2.93,13.28 5.79,22.86 9.32,35.47l24.96 85.53c20.58,69.79 24.6,55.48 46.05,108.44 28.49,70.38 38.63,168.85 73.49,240.25l161.85 460.66 -51.37 49.87c-28.18,23.74 3.35,2.13 -32.05,24.83 -1.79,1.16 -20.34,10.73 -27,14.97 -77.88,49.48 -140.34,128.36 -217.01,178.19 -94.01,61.09 -116.99,124.69 -203.54,192.65l-369.43 464.02c-51.63,55.94 -88.89,139.31 -129.79,207.34 -25.69,42.72 -35.2,87.68 -57.72,127.83l-220.63 554.57c-30.8,124.25 -55.85,213.86 -68.31,333.52 -25.6,245.77 -52.25,442.64 -38.41,691.01 5.79,103.93 26.34,235.99 41.37,340.48 36.66,254.74 78.69,288.55 111.06,440.44l55.44 165.48c19.79,75.33 37.72,85.36 62.72,140.24l84.68 210.37 308.43 470.16c11.37,20.92 29.34,37.48 43.88,54.57l76.58 82.28c13.57,15.53 -1.94,-5.08 18.92,22.04l333.32 315.24c88.6,103.56 498.47,353.12 677.01,428.22 132.38,55.69 273.13,133.97 417.29,162.7 281.94,56.21 315.25,97.71 634.91,125.98 41.24,3.65 92.91,13.45 137.6,13.01 19,-0.18 132.7,-0.27 165.62,-0.37 330.16,-1.04 349.91,-27.54 633.21,-62.68 144.96,-17.98 255.18,-67.98 382.44,-103.72 29.9,-8.42 46.89,-17.73 72.56,-29.22 138.03,-61.76 268.91,-97.88 398.87,-182.33 24.32,-15.8 98.77,-60.41 125.46,-71.59 96.92,-40.62 152.78,-104.12 239.44,-156.02l167.18 -130.96c25.03,-21.16 29.13,-18.94 54.69,-42.98l377.1 -400.98c27.71,-37.49 25.48,-24.99 48.4,-50.98 53.62,-60.76 90.81,-145.19 146.08,-206.91 85.46,-95.45 130.99,-215.31 189.64,-334.8 7.6,-15.49 26.12,-44.16 35.4,-63.57 13.47,-28.24 12.1,-37.36 26.61,-71.79 147.78,-350.36 95.09,-276.18 189.81,-586.98 21.09,-69.17 8.14,-84.46 22.23,-144.01 104.54,-441.38 51.73,-922.67 -63.9,-1354.28l-124.84 -372.06c-60.91,-160.39 -144.4,-301.53 -225.73,-452.52 -35.91,-66.64 -10.93,-8.26 -40.81,-55.18l-163.59 -234.46c-780.08,-842.52 -1679.17,-1344.09 -2874.38,-1191.58z"/>
 </g>
</svg>
