<?xml version="1.0" encoding="UTF-8"?>
<!DOCTYPE svg PUBLIC "-//W3C//DTD SVG 1.1//EN" "http://www.w3.org/Graphics/SVG/1.1/DTD/svg11.dtd">
<!-- Creator: CorelDRAW 2017 -->
<svg xmlns="http://www.w3.org/2000/svg" xml:space="preserve" width="320mm" height="150mm" version="1.1" style="shape-rendering:geometricPrecision; text-rendering:geometricPrecision; image-rendering:optimizeQuality; fill-rule:evenodd; clip-rule:evenodd"
viewBox="0 0 32000 15000"
 xmlns:xlink="http://www.w3.org/1999/xlink">
 <defs>
  <style type="text/css">
   <![CDATA[
    .fil0 {fill:#D7B56D}
   ]]>
  </style>
 </defs>
 <g id="Слой_x0020_1">
  <metadata id="CorelCorpID_0Corel-Layer"/>
  <path class="fil0" d="M14798.54 380.34c-37.05,29.88 -69.86,11.8 -120.63,0.81 -74.39,-16.09 -114.33,-50.06 -188.86,-58.54 -63.04,-7.16 -71.57,19.66 -33.62,68.13 59.06,75.39 155.13,95.6 166.65,101.23 91.51,34.12 99.69,20.3 194.27,76.1 76.53,45.18 79.3,76.66 82.82,175.57 -77.99,-33.7 -82.16,-62.34 -183.76,-85 -38.61,-8.61 -79.16,-6.62 -112.21,-1.31 -39.92,6.42 -55.81,-10.55 -96.56,16.87 7.7,49.78 69.71,58.91 109.67,85.55 91.6,61.04 131.67,84.05 226.28,159.89 16.07,12.89 38.16,27.27 58.21,42.89 115.78,90.27 50.01,30.56 188.46,54.79 47.98,11.05 44.39,2.08 49.45,53.32 16.26,164.58 -3.82,633.69 -14.2,744.75 -19.53,208.99 -1.72,613.82 16.49,831.95 17.55,209.87 25.92,421.79 44.62,634.29 33.02,263.55 85.96,784.17 137.44,980.97 28.84,110.25 -24.41,370.29 -76.93,480.44 -48.59,102.06 -138.07,176.6 -220.78,265.81 -109.56,118.15 -170.91,242.28 -210.66,397.17 -28.88,112.51 -45.97,239.89 -37.72,325.38 22.01,228.12 89.01,698.8 93.8,840.36l23.04 255.61c5.14,63.59 -28.74,77.06 -71.79,83.26 -504.88,72.74 -1624.69,354.19 -2035.02,592.53 -70.12,40.73 -116.39,93.61 -128.05,127.86l-19.27 66.94c-2.58,13.66 -16.28,95.57 -16.07,99.91 59.32,27.15 109.81,7.19 175.35,17.99 16.89,70.11 -83.3,106.16 -73.52,187.61 33.37,16.81 122.48,13.02 166.75,23 0.57,53.09 -13.84,45.22 -39.85,87.17 -16.79,20.7 -55.11,83.37 -54.5,107.15 28.28,15.42 39.15,6.77 50.72,-3.88 35.34,-32.55 83.91,-25.29 35.27,29.95 -18.32,20.8 -41.38,42.6 -39.79,77.12 20.52,14.36 159.33,12.27 193.91,8.1 -11.18,15.76 -44.85,294.41 -43.49,332.03 56.48,3.57 130.19,-39.58 158.01,-42.85 -20.13,26.66 -3.2,20.09 -19.23,54.82 -46.24,100.09 37.04,62.09 98.18,62.55 52.42,0.41 40.29,-16.21 102.7,1.97 -8.88,34.17 -14.77,77.54 -3.89,105.21 36.2,-0.92 53.57,-18.85 96.45,-24.58 19.15,-2.56 21.21,-2.36 36.66,-7.69 -12.19,24.94 -82.55,123.68 -6.39,105.45 18.91,-4.53 2.1,-6.04 24.81,-11.55 31.97,-7.74 30.41,12.1 63.58,-16.15 -20.66,56.32 24.2,74.46 73.35,49.96l115.69 -37.75c17.14,51.84 -3.27,149.92 34.95,158.64 60.25,13.74 56.53,-19.03 137.27,-20.23 -7.84,30.02 -3.67,-1.77 -11.4,27.34 -5.44,20.5 -2.04,19.23 -4.62,28.51l-48.89 109.6c-13.08,17.55 -1.34,-13.07 -19.29,25.94 -13.14,28.54 -10.38,12.43 -4.1,37.18 2.38,1.04 6.17,-0.72 7.53,2.08 5.29,10.93 6.01,2.17 15,2.86 43.59,3.34 87.77,-9.33 115.27,-10.52 69.59,-9.67 178.37,-40.09 261.66,-60.68 84.08,-20.78 212.63,-23.5 256.66,-110.63 12.89,-25.72 35.38,-50.72 54.13,-77.3l46.3 -67.88c18.89,-29.12 60.1,-72.89 96.48,-69.84 40.63,3.4 76.38,29.26 114.16,39.09 51.66,17.3 171.28,68.8 218.83,65.43l67.69 -142.32c37.96,-75.99 42.89,-63.95 132.58,-47.28 176.03,32.71 31.46,53.9 135.71,272.14 28.17,58.98 95.24,122.39 146.46,148.84 -16.41,45.14 -31.95,194.7 -45.68,261.09 -150.29,727.22 -168.42,1613.99 -224.05,2362.5 -5.62,97.17 -95.08,391.95 -131.67,511.46l-146.3 422.13c-0.94,2.01 -2.13,4.18 -3.09,6.18l-29.45 76.02c-0.81,1.93 -1.79,4.26 -2.65,6.13l-119.91 283.84c-9.72,29.24 -18.64,55.99 -28.46,86.41 -108.01,334.53 -119.55,732.93 11.54,1058.93l61.33 157.53c22.03,51.78 48.42,107.49 90.68,143.69 16.11,-2.5 27.13,-7.2 37.72,-8.34l99.04 -10.46c18.82,-3.91 8.86,-4.81 32.47,-9.81l67.06 -11.73c76.93,-8.83 65.12,-64.39 86.09,-175.23 21.03,-111.1 23.96,-211.87 42.44,-318.87 14.24,-82.44 1.12,-418.38 -12,-516.54 -31.64,-236.81 -66.3,-205.09 3.51,-386.82l28.26 -88.59c5.35,-13.13 10.39,-21.42 14.41,-29.5 22.59,-71.46 70.72,-179.25 102.75,-247.35 33.06,-62.71 63.04,-124.51 94.69,-187.46 0.92,-1.59 2.23,-3.75 3.19,-5.26 28.08,-48.2 66.83,-114.06 85.95,-149.11 0.95,-1.77 1.8,-4.26 2.8,-6 11.3,-18.23 24.65,-36.18 32.64,-56.02 0.8,-2 1.38,-4.55 2.24,-6.49 17.8,-40.36 85.02,-127.87 115.04,-182.64 4.91,-12.48 11.33,-22.32 17.52,-34.06 172.66,-328.64 224.05,-703.22 241.8,-1065.33 1.63,-33.2 7.41,-82.81 7.6,-126.39 0.22,-49.19 -2.09,-80.98 -0.29,-129.78 2.39,-64.15 -12.05,-173.79 2.79,-236.98 5.05,-21.46 0.83,-8.11 6.76,-19.25 103.43,56.82 230.97,291.73 277.19,408.38 15.89,40.1 34.85,73.01 48.85,115.4 61.55,186.17 183.56,452.89 229.64,632.55 34.02,132.6 89.53,256.11 120.12,387.51 10.2,43.77 27.82,94.98 35.78,140.2 25.2,134.71 58.4,275.67 81.35,408.54l50.19 292.65c14.72,76.86 7.91,213.62 15.8,291.92 24.34,241.5 92.62,454.34 186.81,674.27 7.93,18.52 12.04,31.02 22.03,55.4 38.37,93.71 316.24,390.83 345.43,437.28 2.82,4.5 16.44,25.88 17.14,26.78 49.84,59.81 80.3,105.15 150.69,18.06l112.37 -88.56c66.92,-73.32 58.49,-47.59 23.52,-118.29 -38.03,-49.46 -43.16,-76.24 -69.91,-123.83 -9.83,-17.49 -16.4,-29.51 -22.27,-45.8 -101.93,-282.62 -105.16,-442.35 -24.92,-719.65 19.61,-67.83 41.72,-127.68 34.99,-201.06 -10.37,-112.96 -225.07,-6.37 -300.06,-185.29 -44.44,-106.03 3.54,-260.66 4.29,-379.15 0.41,-64.84 8.62,-134.23 9.51,-218.53l-7.72 -374.67c-3.78,-392.84 -73.34,-544.53 -221.04,-884.92 -26.92,-62.68 -50.83,-118.56 -80.52,-182.86 -40.13,-86.89 -83.75,-186.2 -119.35,-275.46 -13.24,-33.17 -19.87,-58.04 -39.27,-91.9 -30.94,-54.01 -56.92,-121.41 -82.86,-180.8 -86.32,-197.61 -36.62,-205.09 -84.71,-405.56l-73.54 -398.41c-13.54,-134.48 -97.03,-369.13 -138.45,-511.04 -19.66,-67.35 -13.62,-73 6.7,-129.22l44.58 -131.3c3.51,-10.18 3.32,-9.59 9.18,-25.12l54.29 -173.4c25.58,-94.02 65.65,-268.37 67.72,-362.57 2.92,-132.52 157.43,29.23 187.49,-111.08 3.6,-16.81 2.12,-17.36 6.53,-37.75 2.19,-10.1 6.95,-26.69 8.69,-32.69 95.25,-8.36 94.86,-6.05 111.23,-85.66 8.01,-38.89 5.08,-53.25 2.6,-55.16 18.5,-3.77 91.76,33.45 122.43,46.97 51.35,22.64 71.61,63.22 127.06,68.01 79.87,-71.98 55.37,-70.3 94.54,-121.22 15.55,-20.2 122.68,-139.78 145.11,-140.8 75.85,-3.48 79.63,-26.02 135.89,-69.89 97.8,-76.28 162.33,-49.08 274.25,-32.88 22.21,7.3 56.54,37.87 78.45,0.72 0.99,-1.68 2.32,-4.24 3.41,-6.11 3.21,-6.02 6.36,-11.95 9.77,-17.87 23.96,-55.02 11.58,-36.53 48.41,-72.86 59.27,-58.49 -5.73,-95.72 202.33,-71.51 199.34,-9.58 194.47,32.04 352.71,-102.6 94.89,-80.74 109.63,-129.71 158.96,-238.74 42.77,-132.38 11.86,-306.02 -0.35,-444.61 -6.23,-37.9 -17.97,-57.9 -56.6,-50.85 -41.38,7.55 -12.82,8.23 -12.81,8.65l9.85 -28.02c13.92,-30.53 31.67,-40.59 33.64,-77.37 -16.34,-11.08 -19.08,-12.4 -39.77,-22.15 -37,-17.42 -93.52,-16.83 -119.76,-51.91 -56.99,-76.22 -128.83,-134.67 -222.43,-160.24 -36.18,-9.87 -83.61,-1.82 -114.8,-2.23 -31.87,-0.41 -2.3,-16.99 -46.04,6.75 -12.35,6.71 -18.34,20.08 -35.17,21.27 -29.47,2.09 -40.32,1.35 -86.97,17.51 -38.51,-22.12 -45.49,-37.18 -77.55,-57.37l-80.4 -54.47c-41.94,13.53 -30.73,23.18 -63.17,38.43 -41.81,19.66 -25.82,-21.73 -127.66,47.42 -51.47,34.95 -60.47,11.44 -130.98,61.95 -49.44,35.41 -25.26,14.12 -71.54,22.98 -24.74,4.73 -42.38,20.68 -64.01,34.27 -38.4,24.11 -122.39,29.79 -143.48,34.47 -360.65,95.38 -737.85,70.79 -1102.35,120 -53.72,0.83 -78.58,25.43 -68.49,-42.56 23.44,-157.84 132.44,-270.92 224.33,-393.57 18.99,-23.32 95.46,-142.95 103.99,-161.15 113.08,-178.64 232.08,-360.26 351.67,-534.67 26.71,-26.5 65.1,-17.27 93.29,-13.4 207.75,28.55 412.78,55.34 619.71,95.18 1.4,0.27 3.91,0.77 5.36,1.09 229.99,34.8 415.28,54.71 649.99,71 211.2,5.93 426.52,7.22 638.1,7.56 123.65,-3.2 288.17,-11.95 405.45,-30 75.56,-11.63 48.84,4.68 128.53,118.22l64.97 104.81c85.11,137.31 72.13,126.56 104.24,283.11 16.82,82.08 87.47,76.25 112.69,22.63 60.34,-128.2 -40.33,-355.51 79.05,-362.79 28.62,-1.75 43.69,17.72 64.12,36.43 60.51,55.48 33.29,19.87 97.83,94.2 81.62,94.02 64.08,93.99 115.05,183.52l53.76 146.58c11.53,39.27 12.96,50.22 44.6,65.41 33.81,-12.25 21.94,-13.7 47.17,-33.35 1.23,-86.87 -38.98,-153.67 -25.04,-227.72 76.47,47.81 95.52,96.35 114.98,105.83 41.62,20.25 57.96,-4.26 45.96,-47.32 -17.91,-64.21 -50.32,-136.23 -89.95,-199.1 -12.27,-19.46 -35.7,-49.26 -39.86,-70.43 49.16,21.76 136.97,59.59 171.59,44.83 67.75,-52.47 50.59,-60.88 -12.79,-91.8l-279.42 -136.31c-71.02,-30.31 -142.53,-57.43 -213.96,-85.72 -50.63,-17.66 -106.87,-30.06 -153.81,-47.24 -57.31,-20.97 -89.19,-24.61 -151.65,-52.64 -26.92,-12.07 -42.58,-18.49 -66.25,-27.27 -265.72,-77.35 -635.17,-212.41 -904,-240.28 -291.92,-33.31 -563.04,-52.54 -855.1,-73.3 -97.37,-8.68 -194.82,-37.37 -291.11,-67.04 -173.43,-70.93 -367.76,-139.31 -516.72,-255.25 -84.03,-65.31 -154.9,-86.47 -175.42,-183.17 -23.67,-111.45 -39.11,-284.4 -6.66,-411.22 6.36,-24.85 15.55,-76.02 27.45,-118.35 29.15,-103.66 155.63,-242.58 261.51,-264.48 71.6,-14.8 49.23,-20.75 65.31,-151.81 18.49,-150.7 43.26,-401.79 23.68,-541.27 -18.46,-131.51 -3.19,-237.05 -113.01,-333.63 -87.55,-79.6 -200.11,-141.47 -321.38,-104.9 -50.56,15.24 -12.94,-24.7 -104.37,38.97 -51.66,35.98 -54.22,-4.33 -119.79,46.27 -102.34,78.99 -137.57,53.48 -213.32,129.18l-73.51 57.97c-40.15,29.07 -51.59,32.25 -61.49,82.36 -5.65,28.63 -7.11,50.48 -19.17,73.43 -11.55,-14.4 -53.57,-29.61 -75.1,-30.33 -82.55,-2.73 -25.11,143.09 -15.34,190.51 18.06,87.51 -104.7,51.16 -122.57,147.29 -6.76,36.36 11.09,166.39 28.87,244.37 14.2,62.33 14.27,69.74 80.87,77.5 35.21,4.1 74.55,4.42 91.09,6.54 9.64,56.15 6.19,129.61 -17.88,178.84l-78.73 182.96c-1.14,2.32 -4.18,9.84 -5.05,11.93 -0.63,1.54 -1.73,4.8 -2.21,6.05 -0.49,1.25 -1.02,4.21 -2.1,6.06 -47.98,-37.4 -214.25,-710.75 -235.91,-788.72l-108.06 -560.79c-33.54,-277.14 -76.98,-562.26 -89.7,-843.47 -4.55,-100.31 -8.37,-188.49 -18.08,-289.51l-41.89 -281.46c-15.07,-102.91 -27.65,-192.63 -38.11,-288.74 -15.37,-141.06 -54.29,-135.46 -108.76,-236.15 -18.77,-34.73 -43.05,-65.63 -66.3,-100.13 -22.8,-33.86 -42.53,-74.66 -66.62,-108.12 -26.34,-36.56 -51.53,-58.18 -73.34,-94.17l-247.4 -349.4c-23.37,-29.39 -42.91,-71.45 -69.09,-106.15 -24.9,-33.03 -60.2,-62.87 -77.41,-9.17 -14.85,46.27 -6.39,72.14 9.52,136.75 7.25,29.45 42.9,127.14 75.14,123.73z"/>
 </g>
</svg>
