<?xml version="1.0" encoding="UTF-8"?>
<!DOCTYPE svg PUBLIC "-//W3C//DTD SVG 1.1//EN" "http://www.w3.org/Graphics/SVG/1.1/DTD/svg11.dtd">
<!-- Creator: CorelDRAW 2017 -->
<svg xmlns="http://www.w3.org/2000/svg" xml:space="preserve" width="320mm" height="150mm" version="1.1" style="shape-rendering:geometricPrecision; text-rendering:geometricPrecision; image-rendering:optimizeQuality; fill-rule:evenodd; clip-rule:evenodd"
viewBox="0 0 32000 15000"
 xmlns:xlink="http://www.w3.org/1999/xlink">
 <defs>
  <style type="text/css">
   <![CDATA[
    .fil0 {fill:#D7B56D}
   ]]>
  </style>
 </defs>
 <g id="Слой_x0020_1">
  <metadata id="CorelCorpID_0Corel-Layer"/>
  <path class="fil0" d="M11785.65 12712.03c-32.78,153.37 -21.05,136.47 -144.9,208.67 -140.42,81.87 -173.23,46.46 -174.72,-104.4 -3.11,-310.94 347.66,-235.52 319.62,-104.27zm-609.92 -83.58c-52.83,272.31 -407.81,322.64 -353.46,-6.6 37.56,-227.58 413.57,-303.29 353.46,6.6zm1897.4 -1473.06c-74.91,405.57 -746.32,605.65 -844.57,120.86 -33.26,-164.19 248.37,-116.67 418.39,-180.4 106.02,-39.75 175.78,-88.47 271.37,-129.94 90.1,-39.08 159.83,162.3 154.81,189.48zm-1014.38 -830.35l-608.19 364.69 -53.64 -161.12c-8.34,-9.15 -134.94,-26.62 -149.6,-23.55 -56.49,11.82 -67.9,104.67 -89.8,167 -48.37,137.7 -196.24,110.7 -341.18,180.52 -370.25,178.37 -318.3,241.63 -517.41,547.63 -149.11,229.15 -135.71,558.12 29.56,775.21 112.08,147.23 181.63,98.45 167.49,328.26 -5.92,96.34 -20.24,312.31 36.38,384.93 351.65,451.04 974.47,334.51 1428.14,173.09 609.87,-216.98 784.81,-428.52 1159.64,-922.93 23.17,27.45 -164.5,456.06 -201.39,513.29 -89.42,138.71 -227.8,249.26 -354.39,353.68 -287.63,237.28 -606.99,379.52 -954.29,507.22 -741.69,272.66 -1502.01,137.24 -2024.57,-480.44 -1092.75,-1291.68 494.17,-3041.41 1978.12,-3095.29 143,-5.19 951.55,38.99 956.44,207.59 2.5,86.18 -811.92,-56.14 -919.53,-55.95 -755.61,1.27 -1351.22,356.12 -1829.83,916.14 -103.56,121.17 -477.05,902.4 -236.97,804.7 56.97,-23.19 226.95,-328.25 268.84,-396.75 75.12,-122.9 224.79,-268.3 330.51,-370.18 506.04,-487.63 1225.44,-759.4 1925.67,-717.74zm5289.45 -475.19l-46.49 -121.89c94.26,-37.33 230.13,289.58 475.64,20.48 197.19,-216.11 305.22,-198.58 415.59,-607.62 40.96,-151.85 -31.7,-82.63 -104.58,-201.45 -48.59,-79.23 -31.77,-201.51 53.21,-248.19 181.71,-99.81 107.71,-81.2 217.04,-157.13l47.99 188.99c347.21,-33.99 288.59,-633.91 445.9,-797.55 3.4,308.48 -14.19,374.07 -106.95,670.79 -40.1,128.25 -364.81,404.93 -406.02,503.44 -110.61,264.42 -64.63,394.34 -315.81,623.17 -154.75,140.97 -418.25,254.26 -610.82,339.09 -332.01,146.27 -874.06,217.03 -1233.22,114.26 -149.25,-42.7 145.88,-114.4 176.04,-123.71 110.35,-34.09 199.72,-0.43 311.92,-5.84 171.59,-8.26 548,-91.33 680.56,-196.84zm5126.72 -1699.44c83.43,-169.68 -40.93,-252.25 171.85,-364.25 143.21,-75.37 197.42,-141.98 380.24,-205.15 637.93,-220.48 1154.73,-209.02 1747.22,115.89 130.98,71.84 626.98,531.38 636.42,532.97 36.2,-577.74 -984.19,-914.13 -1433.17,-970.25 -724.26,-90.53 -1147.74,130.13 -1748.22,484.65 170.49,-413.64 1025.91,-567.64 1433.5,-621.89 511.18,-68.04 1086.1,139.06 1467.13,479.52 943.68,843.24 773.38,2103.59 -24.76,2987.71 -705.13,781.07 -2127.75,1332.87 -3075.8,677.81 -454.49,-314.05 -783.86,-889.74 -827.55,-1439.46 -27.89,-350.77 7.94,-589.92 134.56,-916.02 45.79,-117.92 296.07,-607.02 419.14,-597.72 29.17,137.34 -634.24,873.85 -179.05,898.71l-21.18 -10.31 317.98 -652.6c161.99,78.92 457.88,388.99 428.53,524.25 -73.42,338.29 -44.98,440.49 77.83,755.41 80.35,206 227.12,422.71 369.4,592.04 225.4,268.24 271.5,296.92 594.54,149.71l-40.55 -259.99 43.94 -16.53 127.16 241.81c265.86,-14.73 628.44,0.57 837.6,-219.2 243.22,-255.59 379.62,-419.85 392.25,-797.18 9.49,-283.43 -1.63,-730.2 -332.97,-819.61 -189.11,-51.04 -693.97,-198.65 -857.14,-204.55l36.18 56.47 -388.09 248.58 -43.17 -56.6 -32.5 181.64 -171.47 -214.85c-27.4,13.1 -151.62,309.81 -326.45,126.87 -38.44,-40.2 -128.97,-139.45 -168.22,-168.1 -62.09,-45.27 -199.93,-20.33 -220.92,-63.94 -19.45,-115.74 122.35,-29.59 -32.51,-297.28 -166.48,-287.78 -132.67,-140.46 -215.07,-192.2l-133.56 -335.23 -208.22 83.37c-12.76,-29.57 110.7,-321.11 -147.34,-353.52 -266.3,-33.46 -127.86,-348.81 -140.91,-363.51 -42.4,-38.37 -310.9,177.55 -293.06,-29.58 59.14,-160.79 338.18,-65.12 171.61,-276.97 -70.97,-90.25 -181.78,-247.74 -246.58,-344.5 -52.17,-77.88 102.17,-81.68 133.53,-72.44 50.76,14.95 346.15,417.31 399.19,475.23 48.57,53.04 240.23,271.58 236.28,325.29 -13.2,179.71 37.36,176.23 187.26,327.28 98.53,99.26 487.22,567.23 565.12,598.22zm-3974.64 -1070.3l-6.44 -595.07 -343.26 -60.46c-213.66,211.64 -114.1,169.59 -421.59,289.28 -122.47,47.66 -421.83,-14.55 -474.01,110.19l89.44 45.08 -1159.95 871.04 691.27 -944.86 -134.38 12.61c152.55,-301.12 57.49,-280.62 447.26,-429.14l33.08 81.31 370.65 -39.96 55.38 158.22c252.19,-5.46 101.43,-309.1 595.44,-308.96 80.54,0.01 471.22,-122.42 656.55,-126.68 137.8,-3.15 277.41,-50.1 206.13,117.44 -38.92,91.48 -90.72,249.84 -145.68,326.06 -122.14,169.38 -279.04,384.63 -459.89,493.9zm1069.96 -2330.72l-418.25 -655.11c181.09,-31.66 1093.04,908.55 1121.65,1075.98l-4.19 -42.41 -320.48 31.69c15.08,152.56 242.34,487.25 -107.8,146.07 -188.22,-183.41 -207.46,-182.74 -339.7,-421.68 -347.09,-627.11 -634.36,-652.93 -715.74,-757.82 -170.14,-219.28 -354.05,-71.67 -430.99,-179.27 -65.54,-91.68 414.47,15.94 464.24,29.66 276.87,76.32 530.86,707.32 751.26,772.89zm-2822.15 -1304.34c147.25,39.73 412.6,195.68 549.27,278.26 348.88,210.81 463.71,35.6 559.03,118.35 76.36,66.3 138.01,144.45 209.88,209.81 166.73,151.64 108.29,53.51 80.37,232.6 -49.93,320.31 153.18,382.28 246.84,551.65 -265.72,133.36 -822.6,-152.83 -1029.35,-344.02 -205.16,-189.7 -553.44,-770.24 -616.04,-1046.65zm-313.52 -586.25c4.81,-61.12 1.5,-72.18 34.24,-120.23 41.18,23.49 205.67,122.52 230.84,153.06 -73.96,72.35 -80.44,5.15 -140.96,59.65 -99.12,89.27 7.4,46.82 -101.44,98.18l-4.08 58.96c-9.34,-12.63 -128.22,-62.66 -158.7,-76.55 -17.98,-8.21 -96.02,0.3 -83.9,-140.1 137.28,-66.41 75.88,-7.41 224,-32.97zm-642.98 -1594.08l161.01 -58.99c-8.81,-166.32 -190.66,-275.05 -335.02,-167.8 -123.79,91.97 -97.86,283.43 -94.3,460.42 -76.14,-74.3 -302.72,-76.36 -376.72,-57.84 -250.93,62.79 -188.27,67 -382.75,175.6 -108.98,60.86 -142.11,272.93 -284.35,271.04 -136.1,-1.8 -294.5,77.01 -434.21,128.91 -68.38,521.01 187.4,273.44 -207.79,796.46 -248.21,328.5 -157.84,555.03 -256.86,838.44 -37.04,38.12 -428.65,229.5 -254.08,411.14 51.71,8.68 224.86,-214.05 457.69,-197.17 423.2,30.69 244.41,202.28 252,265.24l326.67 347.86c-61.65,44.79 -187.49,62.84 -263.76,83.75l-101.7 -373.53 -258.37 71.25 -130.29 341.24 -24.94 -10.68 25.46 -305.89 -371.47 -88.27c-229.68,205.28 -123.21,1039.74 -11.27,1320.61 190.74,478.63 480.75,639.42 872.78,913.49 158.49,110.78 388.44,240.55 568.41,309.14 120.13,45.77 170.05,100.11 293.99,17.69 193.91,-128.95 112.93,6.5 260.24,-56.88 178.01,-76.57 93.41,-383.34 479.49,-347.36 235.55,21.94 395.03,134.48 478.93,358.16l11.06 -32.86 -487.01 -163.86 -13.78 41.01c-0.59,36.81 516.57,297.92 406.51,438.66l28.24 -36.76 -541.12 -415.54 -41.21 53.67c-0.43,49.49 357.94,431.15 417.67,501.91 133.93,158.63 145.41,96.38 68.26,268.95 -15.96,35.71 -99.17,290.95 -109.61,303.21l-224.46 -172.25c6.92,-54.94 54.21,-203.95 45.46,-230.95 -8.52,-26.36 -137.39,-113.95 -197.9,-107.29l-85.17 387.67c-138.68,-61.35 -555.36,198.07 -548.92,372.65 118.26,8.88 401.36,-266.24 476.63,-60.55l-167.78 97.49c54.93,14.11 187.67,116.93 242.76,152.87 -27.13,83.67 -142.12,213.04 -197.73,289.25l489.91 -95.08 4.49 21.24c-79.35,104.72 -85.65,246.21 -211.67,262.2 -131.62,16.7 -209.24,20.27 -369.61,70.2 -165.55,51.53 -519.56,436.58 -522.33,435.39 -113.63,-167.86 285.26,-631.36 -79.62,-835.85 300.39,-3.37 144.15,339.93 215,425.78l609.98 -503.3 -580.54 -56.43c45.52,-290.9 -53.55,-207.24 104.81,-458.33 76.61,-121.48 110.39,-196.83 109.41,-363.01 -1.29,-222.61 -83.63,-240.88 183.04,-273.62 135.97,-16.69 299.99,-85.1 308.65,-245.9 -72.43,-38.3 -327.71,-10.9 -396.03,16.38 -313.48,125.18 -221.14,242.2 -260.12,280.76l-809.37 10.54 -9.97 21.4 656.53 344.61 41.44 -24.61 -75.47 -253.02 -20.51 6.11c244.38,2.31 254.69,407.22 17.37,343.99 -73.95,-19.7 -170.59,-39.24 -253.44,-73.36 -43.84,-18.06 -249.14,-43.24 -249.88,-43.84l63.65 -73.09 -570.65 -278.27 -41.75 58.34 653.32 891.68 -1161.12 445.7 -23.1 -60.17c16.4,-13.56 715.39,-244.41 815.99,-287.39 461.38,-197.1 3.02,-489.43 -194.91,-470.18 -254.61,24.75 -520.5,179.02 -691.46,364.78 -53.2,57.81 -174.74,273.37 -223.19,275.88 -10.11,0.52 -361.64,-101.11 -363.79,-102.76l517.67 -608.88c-51.45,-48.69 -63.7,-46.04 -133.14,-63.63l414.98 26.84c7.08,-32.46 31.45,-72.99 30.84,-105.34 -42.16,-119.75 -552.73,-87.36 -656.89,-49.78 -39.36,14.19 -97.79,392.3 -334.32,509.13 -639.5,315.84 -1176.69,-43.65 -667.37,-399.63l260.77 113.79 -101.37 188.26c163.87,158.56 371.46,-195.62 404.46,-326.46 -136.32,-196.32 -1006.84,-352.05 -1205.53,-308.88l-14.65 272.26 -68.23 -292.26c-196.56,-80.67 -1168.43,39.86 -1361.22,109.51 -306.44,110.66 -393.14,110.31 -698.27,285.58 -257.34,147.83 54.02,413.37 247.6,494.76 349.24,146.81 1063.56,69.83 1462.79,75.69 316.61,4.64 398.81,-17.15 710.56,92.17 216.18,75.82 496.21,117.44 724.58,153.21l-646.28 311.86 13.97 27.01c-37.57,96.26 332.38,419.41 438.58,464.78 166.91,71.32 460.71,141.36 526.24,354.14 -409.06,-38.07 -674.05,-162.07 -1232.41,-2.17 -1050.9,300.96 -1512.04,666.6 -2099.52,1571.49 -128.9,198.53 -285.85,675.88 -335.47,927.86 -31.53,160.14 131.35,106.5 86.85,307.02l-108.32 45.34c76.19,80.79 187.35,132.95 102.96,270.67 -55.67,90.88 17.68,200.27 49.6,313.55 62.2,220.8 167.21,400.1 277.51,600.09 92.18,167.18 270.36,347.71 438.57,438.84 106.57,57.75 223.02,187.7 226.52,189.11 32.31,12.91 254.14,-7.82 258.61,-6.86l16.64 151.63c39.13,36.78 220.73,-43.08 381.7,23.34 1364.98,563.18 3489.01,-900.61 3673.69,-2167.89 25.42,-174.3 -69.36,-295.45 80.75,-417.42 116.18,-94.41 197.87,-194.39 319.31,-275.48 231.5,-154.57 565.57,-309.95 829.23,-401.86l-58.67 552.55c106.97,9.33 160.25,-211.84 208.97,-303.16 127.85,-239.64 48.58,-166.11 318.52,-174.96 194.15,-6.35 530.4,158.05 802.67,178.66 228.81,17.3 471.61,-25.61 691.17,4.88 126.93,17.65 281.38,-74.48 345.77,-176.92 91.14,-145.02 15.2,-240.99 -31.83,-365.72l385.63 -124.18 13.64 216.44 103.41 -25.3c42.24,-85.32 -6.42,-237.46 83.87,-283.16 70,-35.43 217.39,-94.26 272.22,-136.42 486.76,-374.19 328.99,-745.87 378.53,-1117.66 30.45,-228.59 78.92,-371.29 128.8,-586.79 189.99,128.92 363.63,189.92 593.72,168.06 199.77,-18.97 271.06,-320.94 348.36,-485.04 167.42,-355.43 716.23,-831.62 767.6,-941.23l-267.87 -222.89 213.43 -356.15c309.51,205.23 188.34,395.03 585.94,629.07 433.1,254.96 226.86,434.63 22.72,690.56 -346.6,434.53 -503.84,1197.25 -494.58,1741.04 19,1116.39 1151.73,2173.29 2277.02,2196.62 1741.28,36.06 3408.55,-1181.47 3458.8,-2972.04 14.85,-529.42 -112.3,-938.51 -334.87,-1399.61 -124.43,-257.79 -143.03,-148.07 -301.88,-235.82l-1.17 -169.53c-13.64,-6.48 -326.32,-149.97 -419.14,-226.51 -200.78,-165.55 -174.85,-171.9 -423.8,-157.98l-34.81 -237.6c-146.67,-1.38 -184.64,80.1 -365.77,32.1 -87.87,-23.29 -273.39,-74.68 -352.5,-109.95 -228.1,-101.68 -96.01,133.98 -350.98,-26.07 -117.39,-73.68 -251.15,-24.78 -371.02,25.73 -480.39,202.38 -1019.52,359.14 -1474.85,638.28l19.47 -16.54 -801.6 -943.38c55.81,-99.33 1405.46,-850.38 1496.86,-828.13 238.28,57.99 102.49,151.31 391.39,76.8 138.13,-35.62 250.49,-85.03 397.95,-71.6 81.33,7.4 799.41,15.79 827.2,4.78 81.66,-213.77 -538.63,-607.76 -724.18,-681.64 -363.77,-144.84 -614.94,-42.59 -977.64,-40.98 -783.8,3.5 -1342.32,316.64 -2011.46,644.7 -264.12,-400.61 -281.39,-590.91 -667.76,-970.73 -234.68,-230.69 -664.12,-527.93 -958.22,-677.65 -180.73,-91.99 -396.52,-123.23 -409.55,-322.55 -11.27,-172.31 -260.23,-329.43 -380.9,-447.89 -137.75,-135.23 -278.87,-265.98 -430.11,-385.92 -117.74,-93.37 -167.97,21.75 -206.58,-154.29 -18.56,-84.55 -50.9,-260.73 -96.45,-326.43 -222.73,-112.14 -183.8,221.83 -455.91,-346.92 -74.1,-154.91 -213,-522.37 -392.47,-551.07l-26.02 369.17c-113.72,-151.72 46.18,-289.55 -69.22,-437.96 -81.04,-104.2 -256.93,-254.12 -239.91,-378.29 84,11.51 330.12,30.25 392.56,60.4l-41.2 -253.45c87.91,-29.47 223.22,158.41 264.91,236.45 77.66,145.4 52.05,355.17 52.39,355.62l268.48 137.52c-464.05,48.35 -198.84,354.47 -89.9,583.07 87.75,184.1 616.49,25.4 765,-18.2 323.14,-94.86 705.65,132.42 652.08,-190.12 -56.39,-339.63 -260.33,-433.39 -531.38,-583.73 -488.44,-270.89 -935.28,-439.54 -1421.42,-671.42 -167.71,-80 -663.27,67.82 -683.39,269.3 -14.98,149.97 406.06,601.99 -97.81,520.31z"/>
 </g>
</svg>
