<?xml version="1.0" encoding="UTF-8"?>
<!DOCTYPE svg PUBLIC "-//W3C//DTD SVG 1.1//EN" "http://www.w3.org/Graphics/SVG/1.1/DTD/svg11.dtd">
<!-- Creator: CorelDRAW 2017 -->
<svg xmlns="http://www.w3.org/2000/svg" xml:space="preserve" width="320mm" height="150mm" version="1.1" style="shape-rendering:geometricPrecision; text-rendering:geometricPrecision; image-rendering:optimizeQuality; fill-rule:evenodd; clip-rule:evenodd"
viewBox="0 0 32000 15000"
 xmlns:xlink="http://www.w3.org/1999/xlink">
 <defs>
  <style type="text/css">
   <![CDATA[
    .fil0 {fill:#D7B56D}
   ]]>
  </style>
 </defs>
 <g id="Слой_x0020_1">
  <metadata id="CorelCorpID_0Corel-Layer"/>
  <path class="fil0" d="M14640.68 11250.71c9.92,179.74 140.87,171.97 -32.01,296.5 -94.43,68.02 -203.29,114.63 -310.34,179.88 -106.99,65.2 -505.65,308.95 -595.16,338.14 -102.56,33.42 -475.68,241.67 -590.43,306.6 -273.34,154.63 -376.86,315.63 -509.46,-79.58 -23.56,-70.23 103.18,-488.08 131.05,-577.82 137.8,-443.4 -46.15,-273.75 383.53,-359.12 175.37,-34.87 186.91,-124.5 300.98,-152.53 64.59,-15.86 348,-3.44 436.9,-4.31l652.24 1.03c107.28,-11.25 127.17,-48.63 132.7,51.21zm-2179.93 1401.53c-71.56,29.87 -277.45,77.89 -319.59,103.79 -4.89,3.02 -264.4,93.86 -292.68,99.97 -64.19,13.87 -197.06,111.09 -291.18,132.36 -4.77,1.08 -262.43,153.92 -284.88,171.67l-272.46 -132.13 1572.09 -1964.19c87.87,96.52 -302.96,1059.02 -313.93,1202.96 -7.64,100.42 183.93,283.14 202.63,385.57zm2003.29 -1595.06l-1021.43 25.18c-2.15,-28.8 20.07,-106.32 17.89,-149.08 -7.01,-138.06 -35.36,-94.22 393.07,-9.33 88.16,17.46 564.48,133.59 610.47,133.23zm-776.5 -423.72l1536.42 -531.76c1.53,14.31 -95.89,387.88 -108.95,452.46 -53.33,263.88 -57.58,346.9 -362.19,290.69 -119.77,-22.09 -1044.86,-184.34 -1065.28,-211.39zm1785.1 397.32c-13.99,-11.22 -77.88,-106.59 -115.76,-144.55 -63.9,-64.05 -37.83,-103.79 -18.94,-175.27 32.08,-121.43 147.06,-649.77 221.72,-700.82 5.62,-3.84 161.5,-63.71 164.12,-64.33 79.55,-19.2 25.15,-7.07 87.01,-36.73 54.65,-26.21 14.83,14.66 95.72,-12.28 8.16,52.01 -0.08,285.07 -6.59,325.45 -29.93,185.41 -294.72,112.82 -177.23,590.58 11.88,48.38 -196.7,197.78 -250.05,217.95zm1630.22 -1503.4c-28.55,46.16 -91.15,74.44 -104.62,103.74 -40.84,88.78 39.78,16.01 -84.54,115.98 -84.11,67.63 28.99,29.61 -83.64,114.01 -106.22,79.6 -17.44,50.53 -76.58,121.4 -44.71,53.58 -163.62,168.88 -189.93,218.63 -77.07,145.74 -185.55,132.24 -188.05,6.1 -10.08,-510.11 -65.64,-456.26 152.41,-500.4 136.67,-27.66 444.15,-130.32 574.95,-179.46zm3655.3 -2719.37l486.13 287.66 -90.7 56.53 -476.44 -280.67 81.01 -63.52zm4012.38 -1522.21c131.26,-23.07 218.63,147.89 158.4,274.17 -35.21,73.84 -140.36,251.26 -193.75,309.02 -106.69,115.44 -385.75,425.18 -497.76,506.87 -168.59,122.96 -161.47,-780.49 -161.22,-781.33 80.49,-279.69 457.96,-267.2 694.33,-308.73zm-1917.43 786.11c-41.69,-109.42 -95.99,-612.35 -42.3,-707.62 78.55,-139.41 468.54,-253.66 605.63,-178.12 235.41,129.73 -19.95,343.3 -140.33,487.19 -60.44,72.23 -346.15,388.63 -423,398.55zm-7861.35 -1045.8c-118.57,-86.17 -716.59,-422.45 -702.72,-555.99 104.22,-33.49 133.89,92.67 270.05,-97.35 66.31,-92.52 71.91,-185.16 65.44,-300.53 254.16,215.43 514.87,303.83 713.33,442.26 107.9,75.28 158.81,14.81 225.69,83.38l-74.79 129.95c-12.15,91.93 62.19,209.51 182.21,142.72 48.73,-27.11 152.17,-194.42 209.43,-231.16 71.69,16.28 74.47,57.61 165.48,42.66 64.17,-10.53 70.8,-56.84 123.92,-86.28 64.34,-35.65 210.81,17.19 246.42,92.51 -252.97,395.57 -337.63,-9.89 -755.9,947.46 -46.62,-19.32 -270.74,-263.58 -323.8,-317.41 -118.25,-119.94 -209.77,-194.13 -344.76,-292.22zm-2504.58 -25.35c84.29,156.71 61.94,443.57 386.93,596.33 150.15,70.57 478.02,278.01 578.95,402.46 52.73,65.02 453.43,446.24 512.07,465.67 97.3,32.25 257.1,63.95 240.74,207.21 -25.94,227.11 -34.45,94.98 2.92,340.43 -95.22,25.11 -377.94,134.91 -483.62,176.53 -308.44,121.5 -1043.86,117.46 -1432.89,234.82 -442.01,133.36 -497.47,257.21 -788.88,589.34 -258.09,294.14 -372.52,543.41 -779.81,674.53 -611,196.7 -1189.46,32.84 -1787.01,203.7 -121.27,34.67 -427.17,57.58 -361.11,278.37 56.74,189.7 1275.43,800.63 1325.44,968.98l-982.17 569.43 -56.5 593.04c72.69,6.93 628.73,-323.74 735.4,-399.34 98.38,-69.71 260.09,-136.49 364.89,-209.69 57.99,-40.49 319.81,-217.62 349.52,-151.75 -6.8,10.72 -1210.36,713.57 -1335.75,784.88 -177.82,101.15 -160.92,88.23 -212.95,288.87 -30.04,115.84 -66.1,228.93 -100.16,343.11 -39.59,132.66 -241.97,668.46 -202.7,761.44l3222.71 -1360.81 87.86 83.17 -121.49 175.25 -122.74 -113.26 -128.02 121.51c19.81,59.81 250.29,204.08 -21.29,304.38l-124.14 -118.99 -135.04 112.08c128.44,139.6 239.51,156.13 28.82,301.36l-110.82 -124.07 -152.52 147.39c52.8,58.53 138.55,98 140.16,151.38 1.33,44.09 -91.2,80.87 -128.02,143.37l-129.86 -96.9 -100.1 57.6c9.93,102.75 255.52,206.18 12.62,304.46l-141.82 -110.2 -132.66 116.07 152.65 182.79 -107.75 96.96 -135.73 -104.39 -90.08 95.81c52.76,33.57 98.39,86.65 144.69,128.72l-82.61 156.38c-54.53,-10.29 -194.59,-50.5 -241.86,-41.6l-48.04 194.81 273.54 18.69c-8.64,89.32 35.85,109.21 -56.66,169.03 -38.49,24.89 -143.25,83.16 -162.28,120.53l92.96 95.91 165.01 -110.25 138 203 -145 163.64 176.31 126.47 130.05 -185.04 128.72 41.3 -9.26 263.42c39.78,12.96 95.44,2.28 137.25,1.73l18.01 -245.22 165.75 -11.05 116.03 211.21 150.87 -72.62 -90.33 -209.64c216.13,-184.46 167.71,-65.38 283.24,92.22l152.27 -111.61 -106.07 -198.61 154.7 -65.24 114.97 153.68 192.21 -106.51 -110.3 -168.7 177.64 -101.02c22.71,63.14 70.19,123.16 104.54,180.79l148.85 -84.7 -98.76 -194.58 119.7 -62.72 165.82 175.05 164.64 -102.57c-42.49,-61.91 -98.9,-125.14 -129.62,-193.65l185.55 -104.64 92.99 162.95 158.97 -82.73 -93.09 -168.61 143 -87.8 114.98 181.71 167.34 -105.46 -96.94 -175.78 178.67 -110.75 115.1 158.56 104.43 -42.31 -62.84 -217.85c251.29,-117.53 102.34,-77.22 287.93,80.64 46.04,-24.11 95.97,-60.4 146.16,-73.88l-95.58 -202.48 187.79 -96.39 105.13 167.08 137.79 -72.52 -110.84 -187.11 173.58 -96.28c17.57,36.71 77.71,193.05 106.94,205.12l173.3 -103.68c-16.19,-73.93 -104.82,-141.07 -128.19,-216.02l202.51 -92.83 117.99 174.12 117.43 -55.02 -110.66 -198.66 178.39 -108.46 117.33 184.9 169.77 -73.02 -98.35 -226.56 194.35 -106.02 98.72 175.15 105.16 -35.06 -65.75 -201.07 124.27 -105.98 124.76 198.08 179.6 -109.17 -108.15 -200.57 101.77 -74.8 141.96 206.25 110.76 -51 -82.13 -229.28 137.2 -114.78 151.71 184.41 146.52 -78.13 -123.82 -249.9c94.77,-30.32 152.63,90.62 244.39,116.89l108.53 -137.37 -149.5 -149.29 132.71 -126.59 199.5 115.03 69.05 -91.86 -128.25 -188.26 84.49 -130.94 193.38 125.08 111.57 -124 -174.91 -156.35 122.94 -175.46c70.79,28.85 136.51,83.02 200.99,124.05l84.63 -87.74 -171.25 -167.32 111.26 -137.83c61.71,30.12 118.3,92.73 171.67,136.05l144.52 -154.23 -165.67 -146.93 123.88 -161.61 204.95 133.21 81.65 -120.16 -179.5 -142.46 112.95 -147.86 188.38 150.82 113.17 -192.68 -218.46 -140.27c78.46,-83.21 511.9,-326.54 539.86,-352.24 157.75,-144.95 721.75,-514.19 834.52,-669.38 28.13,-38.74 555.1,-545.87 610.79,-590.8 83.95,-67.72 245.73,-258.66 353.46,-218.75 106.21,39.35 362.48,112.1 443.85,161.58 -58.38,107.54 -805.45,542.72 -985.86,640.93 -33.65,18.33 -351.11,190.57 -351.43,190.82 -8.56,89.72 163.02,218.8 277.12,187.52 454.38,-124.52 652.6,-315.47 1015.33,-490.56 199.1,-96.11 416.07,-262.46 622.62,-369.85 167.41,-87.04 131.5,-161.22 304.46,-15.83 70.97,59.66 251.32,156.88 253.98,241.48 -41.75,169.66 -1792.04,1124.16 -1807.84,1176.08 4.72,112.57 150.09,197.92 258.47,204.34 114.72,6.77 241.38,-56.81 347.88,-96.89 659.43,-248.24 1244.03,-663.83 1838.62,-1045.55 411.9,-264.43 765.72,-450.63 1145.2,-776.67 167.17,-143.6 374.85,-282.39 523.83,-437.73 150.37,-156.76 307.74,-344.63 450.42,-510.68 159.3,-185.4 242.3,-397.05 347.19,-613.57 154.2,-318.28 31.56,-471.66 -303.55,-501.52 -238.36,-21.24 -530.92,16.84 -730.73,157.42 -286.88,201.83 -192.61,422.77 -161.93,701.79 63,573.56 -270.24,850.13 -722.69,1128.84 -238.98,147.21 -414.15,195.09 -655.29,308.39 -291.99,137.17 -388.5,-50.23 -598.8,-230.98l-1.81 -8.47c270.42,-178.14 881.02,-596.45 1104.92,-825.18 197.03,-201.31 804.23,-920.71 636.08,-1201.5 -133.29,-222.59 -539.37,-132.8 -741.69,-62.47 -296.6,103.13 -366.44,275.31 -302.76,568.21 40.45,186.12 11.3,582.85 -163.02,687.56 -191.09,114.81 -347.85,300.32 -568.4,398.26l-353.37 -561.85c355.03,-221.5 532.15,-398 738.36,-766.19 158.6,-283.19 322.62,-708.09 67.87,-976.95 -311.24,-328.48 -1601.34,-130 -2091.36,-263.63 -391.85,-106.86 -695.91,-190.95 -1060.68,-387.38 -517.43,-278.6 -1455.47,-465.51 -2053.12,-506.64 -162.89,-11.21 -340.97,-21.1 -503.73,-23.44 -214.03,-3.09 -354.95,-23.75 -455.12,202.16 218.74,225.06 295.3,224.79 547.5,379.74 135.82,83.44 466.32,279.76 459.8,452.61 -3.16,84.3 -132.35,231.95 -204.16,200.49 -90.72,-39.76 -212.21,-119.47 -298.59,-172.46 -135.01,-82.83 -425.41,-50.73 -596.85,-82.04l50.39 -190.46c-15.82,-10.44 -124.07,-50.92 -152.57,-62.97 -140.43,-59.39 -57.67,-15.95 -133.36,-15.13 -98.56,1.08 -129.3,95.23 -225.41,155.57 -223.97,-121.03 -192.93,-172.83 -356.26,-302.02 -52.34,-41.4 -74.14,-140.4 -133.75,-200.28 -66.3,-66.6 -137.09,-64.57 -117.27,-178.11 28.38,-162.61 -4.78,-326.75 91.32,-457.18 59.65,-80.96 143.11,-420.98 164.38,-447.77 165.86,399.48 580.44,-81.96 606.39,-200.87 16.61,-76.07 10.14,-123.33 77,-174.47 310.74,-237.73 77.79,-250.69 356.29,-476.79 42.8,27.82 473.93,396.51 437.7,193.8 -11.07,-61.98 -226.19,-355.7 -281.03,-542.92 -105.63,-360.61 -501.02,-689.8 -844.56,-820.25 -387.26,-147.05 -742.09,193.97 -935.76,493.83 -155.81,241.25 153.12,420.12 -51.5,480.66 -221.76,65.63 -309.43,86.28 -534.51,130.79 -599.53,118.52 -458.3,105.63 -824.38,564.15 -160.77,201.37 -483.56,654.92 -582.09,886.82 -44.51,104.75 4.25,192.8 15.62,295.45 11.04,99.48 -171.56,269.06 -230.1,736.32 -39.41,314.42 -193.93,489.71 -198.46,793.22 -3.18,212.9 70.39,81.48 180.96,148.73z"/>
 </g>
</svg>
