<?xml version="1.0" encoding="UTF-8"?>
<!DOCTYPE svg PUBLIC "-//W3C//DTD SVG 1.1//EN" "http://www.w3.org/Graphics/SVG/1.1/DTD/svg11.dtd">
<!-- Creator: CorelDRAW 2017 -->
<svg xmlns="http://www.w3.org/2000/svg" xml:space="preserve" width="320mm" height="150mm" version="1.1" style="shape-rendering:geometricPrecision; text-rendering:geometricPrecision; image-rendering:optimizeQuality; fill-rule:evenodd; clip-rule:evenodd"
viewBox="0 0 32000 15000"
 xmlns:xlink="http://www.w3.org/1999/xlink">
 <defs>
  <style type="text/css">
   <![CDATA[
    .fil0 {fill:#D7B56D}
   ]]>
  </style>
 </defs>
 <g id="Слой_x0020_1">
  <metadata id="CorelCorpID_0Corel-Layer"/>
  <g id="_2737000146064">
   <g id="_2209807084112">
    <path class="fil0" d="M18185.92 8347.37l-409.3 -463.86 -423.02 -518.47 832.32 982.33zm-2414.89 -3042.51l0 0 -40.93 -54.56 40.93 54.56zm2414.89 3042.51l0 0 -409.3 -463.86 -382.05 -463.9 -40.97 -54.57 -150.01 -204.65c-46.22,-61.65 -260.82,-320.9 -270.69,-345.03 -77.7,-189.72 1463.7,-2104.67 1464.33,-2147.52l-2626.2 637.02 -40.93 -54.56 -1102.8 -1692.01 -10.03 4.86c-101.13,82.1 -307.12,2379.09 -369.47,2407.48 -244.56,111.36 -1829.41,712.03 -1938.65,796.87 193.57,64.12 2002.34,856.4 2017.06,896.47 15.2,41.09 356.35,2442.15 354.35,2450.81 150.06,32.86 1032.43,-1742.81 1224.03,-1959.02 73.99,-83.54 2259.47,618.11 2622.4,546.35l-341.07 -354.74z"/>
    <path class="fil0" d="M20805.46 8797.6l1377.96 -313.81 -1377.96 313.81 -2034.65 14.69c-14.1,53 1349.45,1336.52 1363.12,1390.73 55.54,221.42 -802.2,1203.86 -867.61,1460.25 198.97,-82.64 1873.47,-849.39 1936.93,-792.67 92.55,82.68 336.96,483.64 345.81,488.89 246.48,-496.96 386.82,-1291.95 472.56,-1489.75 159.72,-368.49 813.43,-1490.84 811.08,-2160.8l-649.28 774.85 -251.3 -1970.33 -1126.66 2284.14z"/>
    <path class="fil0" d="M14529.45 10393.89l-3827.19 1726.82c207.23,251.5 1644.89,622.93 2033,736.87 115.66,26.55 1690.17,1352.5 1940.53,1381.64l-286.4 -1092.86 44.22 -20.64c114.18,-27.5 1392.61,-21.31 1469.65,-63.45l-1466.79 -723.27c-9.63,-82.45 227.41,-1865.21 257.57,-2105.39l-164.59 160.28c-285.25,230.11 -1251.21,987.57 -1477.6,986.87 -44.61,-0.12 -1461.62,-1055.5 -1624.72,-1174.68l734.75 1678.88 20.41 -3.84 -1480.03 239.59 3827.19 -1726.82z"/>
    <path class="fil0" d="M21815.05 4977.46l-2701.36 -532.14 436.56 -1091.44 2264.8 1623.58zm-1650.85 -2742.37l0 0 -2240.47 -728.48c2.59,31.92 1293.48,1165.79 1525.04,1376.82 261.4,238.1 243.23,220.99 101.48,470.45l-916.06 1217.6 479.5 -126.16c197.79,-25.69 1390.29,-200.34 1518.69,-113.43 303.15,205.09 1243.1,2097.91 1332.79,2091.76l-54.63 -600.33 -95.49 -845.86 -78.22 -536.99 40.3 -4.51 598.84 318.87 -323.65 -826.48 -319.29 -516.39 -262.58 -367.47 -269.36 -361.44 -300.61 -311.27 -846.1 -698.55 109.82 561.86z"/>
    <path class="fil0" d="M12905.91 1634.8l2660.51 0 927.77 -54.6 -3588.28 54.6zm358.86 -289.45l0 0 -358.86 289.45 -982.32 955.03c56.2,34.7 1461.81,-557.59 1633.06,-543.1 35.68,2.98 73.75,30.83 124,110.65 295.91,470.17 638.71,865.18 958.44,1309.5l-0.47 -0.63c54.24,-85.5 842.26,-1819.85 927.8,-1831.45l927.77 -54.6 1217.76 -102.73 -1596.71 -596.02 899.09 -531.86c-281.81,-57.65 -1160.42,5.1 -1464.87,83.27 -222.2,57.27 -828.01,254.91 -913.98,243.31 -350.12,-47.23 -1012.29,-113.27 -1711.86,183.74l341.15 485.44z"/>
    <path class="fil0" d="M10613.82 9588.95l-1255.25 -2305.77 1023.26 -300.14 231.99 2605.91zm-1255.25 -2305.77l0 0 -573.73 344.6c78.69,110.14 449.8,694.8 479.65,827.07 63.18,280.05 -100.74,1251.76 246.17,1995.63l531.46 -1251.17 571.7 389.64 713.01 478.55c70.81,-147.39 -874.31,-1422.41 -536.44,-1884.59 160.31,-219.23 418.78,-508.91 604.82,-707.33 88.09,-93.97 709.61,-648.7 722.61,-695.15l-1735.99 202.61 -142.5 -1314.9 -880.76 1615.04z"/>
    <path class="fil0" d="M17026.24 13845.7l2101.04 -1023.26 -204.65 -695.81c-37.29,31.92 -326.39,418.04 -427.76,527.67 -180.05,194.86 -289.21,294.73 -501.42,481.45 -218.24,192.03 -1783.93,-29.65 -1842.18,8.81l874.97 701.14 -1039.86 479.84 -0.12 1.61 905.32 -81.63 541.38 -105.94 389.64 -96.55 335.16 -104.58 372.52 -136.03 436.92 -210.61 521.09 -302.64 1097.48 -833.06 -1444.43 560.88 -13.36 -31.96 78.45 -1256.03 -283.8 397.63 -1896.39 1719.07z"/>
    <path class="fil0" d="M8957.37 5711.66l714.27 -1025.02 567.69 825.85c13.91,-377.11 162.43,-1517.28 232.07,-1663.06 121.66,-175.63 1305.58,-1020.21 1274.8,-1109.66l-952.96 149.54 -13.43 -18.8 562.76 -1031.49c-1235.04,1045.55 -1987.56,2303.38 -2385.2,3872.64z"/>
    <path class="fil0" d="M17026.24 8483.83c0,31.69 16.8,2 8.42,0 -0.19,-0.04 -8.42,-35.21 -8.42,0z"/>
    <path class="fil0" d="M15934.75 13040.72c0,31.73 16.85,2.04 8.46,0 -0.15,0 -8.46,-35.17 -8.46,0z"/>
    <path class="fil0" d="M20068.67 10216.53c1.37,1.38 4.12,-5.99 4.12,-4.07 -0.32,0.28 -5.41,2.74 -4.12,4.07z"/>
    <path class="fil0" d="M12537.54 11007.88l4.03 -4.07c-0.23,0.23 -5.4,2.7 -4.03,4.07z"/>
    <path class="fil0" d="M18431.5 2003.14l4.07 -4.04c-0.27,0.24 -5.44,2.71 -4.07,4.04z"/>
    <path class="fil0" d="M11446.05 3094.63l4.04 -4.08c-0.24,0.28 -5.41,2.74 -4.04,4.08z"/>
    <polygon class="fil0" points="12987.77,11335.32 13015.07,11328.94 "/>
   </g>
  </g>
 </g>
</svg>
