<svg xmlns="http://www.w3.org/2000/svg" width="37" height="31"><path fill="#1E2741" paint-order="stroke fill markers" fill-rule="evenodd" d="M6.219 18.881c1.403 3.834 4.657 6.742 8.581 7.887a4.177 4.177 0 0 0 3.7 2.234 4.18 4.18 0 0 0 3.7-2.234c3.924-1.145 7.178-4.053 8.58-7.887 2.332-.026 4.22-1.914 4.22-4.23 0-2.315-1.888-4.202-4.22-4.229-1.582-4.326-5.52-7.479-10.122-8.242a.842.842 0 0 0-.25-.055c-.059-.003-.12-.002-.179-.005a13.124 13.124 0 0 0-1.73-.122c-5.496 0-10.455 3.434-12.28 8.424C3.888 10.45 2 12.336 2 14.652c0 2.315 1.888 4.203 4.219 4.23zm9.708 2.423c0-.449 1.026-1.127 2.572-1.127 1.547 0 2.573.678 2.573 1.127 0 .077-.04.162-.099.248a4.17 4.17 0 0 0-4.947 0 .478.478 0 0 1-.099-.248zm3.397 5.97c-.26.087-.534.146-.824.146-.29 0-.564-.059-.824-.146a2.556 2.556 0 0 1-1.749-2.404c0-.462.134-.89.352-1.263a2.57 2.57 0 0 1 1.631-1.212 2.59 2.59 0 0 1 .59-.073 2.604 2.604 0 0 1 2.22 1.285c.218.374.352.801.352 1.263a2.556 2.556 0 0 1-1.748 2.403zM6.268 12.004c.116 0 .241.01.396.033l.68.099.2-.651c.971-3.155 3.356-5.662 6.354-6.951-.669 1.469.24 3.28 1.755 3.986 1.888.88 4.943.995 6.23-.92.582-.863.066-1.954-.636-2.544-.984-.827-2.412-.945-3.58-.485-.945.371-.534 1.902.425 1.525.694-.272 1.326-.293 1.992.07.914.497.072 1.066-.567 1.248-1.19.34-2.948.062-3.878-.766-1.176-1.045.338-2.231 1.275-2.556 1.016-.352 2.132-.43 3.206-.392 4.344.612 8.06 3.638 9.337 7.785l.2.65.68-.098c.154-.022.28-.033.396-.033 1.473 0 2.671 1.188 2.671 2.648 0 1.46-1.198 2.647-2.671 2.647-.117 0-.242-.01-.394-.032l-.681-.1-.201.651c-1.018 3.307-3.59 5.898-6.79 7.126 0-.025.003-.049.003-.073 0-.784-.225-1.516-.61-2.141.386-.412.61-.898.61-1.425 0-1.52-1.831-2.71-4.169-2.71-2.338 0-4.17 1.19-4.17 2.71 0 .527.225 1.013.611 1.425a4.072 4.072 0 0 0-.61 2.141c0 .024.003.048.004.073-3.202-1.228-5.773-3.819-6.79-7.126l-.202-.652-.68.1c-.155.023-.28.033-.396.033-1.473 0-2.671-1.188-2.671-2.647 0-1.46 1.198-2.648 2.671-2.648zm8.86 4.208c1.373 0 1.373-2.11 0-2.11-1.372 0-1.372 2.11 0 2.11zm6.743-.132c1.373 0 1.373-2.11 0-2.11s-1.373 2.11 0 2.11z"/></svg>