<svg xmlns="http://www.w3.org/2000/svg" width="33" height="40"><path fill="#1E2741" paint-order="stroke fill markers" fill-rule="evenodd" d="M30.955 23.383l-.285-1.086c-.173-.658-.776-1.12-1.482-1.15L28.181 9.15c-.09-1.075-.793-2.009-1.835-2.434l-2.55-1.042c.003-.064.01-.126.01-.19 0-.906-.37-1.757-1.042-2.396A3.969 3.969 0 0 0 20.009 2h-7.015c-1.04 0-2.019.386-2.754 1.088a3.287 3.287 0 0 0-1.042 2.396c0 .064.006.127.01.19L6.657 6.716c-1.042.425-1.745 1.359-1.835 2.434L3.815 21.148c-.705.03-1.31.491-1.482 1.15l-.285 1.086a1.482 1.482 0 0 0 .42 1.447c.225.214.508.358.818.417l5.021.957-2.921 11.138L17.11 38v-1.229l10.52-.589-2.824-9.998 4.911-.936c.31-.06.594-.203.817-.417.395-.376.556-.93.421-1.448zm-3.987-14.14l1.01 12.033-4.3.91-.481-1.7v-2.168L26.073 7.9c.505.286.847.775.895 1.343zm-3.452-2.42l1.434.585-2.831 10.254h-3.477l4.874-10.84zm-7.806 14.32h.073l-.99 5.665-1.14-.271 2.057-5.395zm-1.034-1.16h-3.652v-1.16h3.652v1.16zM13.392 6.511c.595-.159 1.862-.452 3.11-.452 1.247 0 2.514.293 3.11.452l-3.11 9.738-3.11-9.738zm3.845 14.63L19.424 30l-1.177.28-1.066-9.138h.056zm4.742-2.32v1.16h-3.652v-1.16h3.652zM11.1 3.908a2.73 2.73 0 0 1 1.895-.748h7.015a2.73 2.73 0 0 1 1.894.748c.442.42.685.98.685 1.576 0 .303-.063.599-.19.878l-5.063 11.26 4.009-12.553-1.164-.338-.214.67c-.652-.176-2.046-.5-3.464-.5-1.419 0-2.813.324-3.465.5l-.213-.67-1.165.338 4.009 12.552-5.064-11.259a2.121 2.121 0 0 1-.189-.878c0-.596.244-1.155.685-1.576zM9.488 6.822l4.874 10.84h-3.496L8.053 7.408l1.434-.586zm-3.451 2.42c.047-.567.39-1.056.894-1.342l2.876 10.417v2.174l-.446 1.703-4.335-.918 1.01-12.033zM3.525 24.11a.389.389 0 0 1-.196-.1.355.355 0 0 1-.1-.345l.285-1.087a.378.378 0 0 1 .37-.276h.335a.39.39 0 0 1 .083.009l4.761 1.008-.461 1.76-5.077-.969zm12.368 12.66l-8.97-.503 3.967-15.125h3.525l-2.368 6.208 3.729.889.117-.668v9.199zm0-16.788v-1.16h1.217v1.16h-1.217zm10.173 15.125l-8.956.503v-4.573l.08.69 3.693-.88-2.395-9.705h3.654l3.924 13.965zm3.608-11.097a.39.39 0 0 1-.196.1l-4.989.95-.495-1.752 4.705-.997a.421.421 0 0 1 .084-.008h.336c.175 0 .328.113.37.276l.285 1.086a.354.354 0 0 1-.1.345z"/></svg>