<svg xmlns="http://www.w3.org/2000/svg" width="39" height="40"><path fill="#1E2741" paint-order="stroke fill markers" fill-rule="evenodd" d="M18.74 27.437h1.521v3.855H18.74v-3.855zm7.608 0h1.522v3.855h-1.522v-3.855zm-15.217 0h1.522v3.855H11.13v-3.855zM9.609 6.625h7.609v1.542H9.609V6.625zm0 3.083h1.522v1.542H9.609V9.708zm3.044 0h1.521v1.542h-1.521V9.708zm19.782 24.667v2.313c0 .425-.34.77-.761.77H7.327a.766.766 0 0 1-.761-.77v-2.313H5.044v2.313C5.044 37.965 6.066 39 7.327 39h24.347c1.26 0 2.283-1.035 2.283-2.312v-2.313h-1.522zm1.299-25.982l-6.087-6.167A.756.756 0 0 0 27.109 2H7.327c-1.26 0-2.283 1.035-2.283 2.313v11.562h1.522V4.313c0-.426.34-.771.76-.771h19.468l5.64 5.715v4.305h1.523V8.937c0-.204-.08-.4-.223-.544zm-5.103-.226a.766.766 0 0 1-.761-.771V2.77h-1.522v4.625c0 1.277 1.022 2.312 2.283 2.312h1.521v-1.54h-1.521zm4.565 7.708H19.5v1.542h12.935v1.541h1.522v-2.312a.766.766 0 0 0-.761-.771zm3.043 2.313H5.044a.758.758 0 0 0-.422.129l-2.283 1.542a.777.777 0 0 0 0 1.283l2.283 1.54a.75.75 0 0 0 .422.13H36.24c.42 0 .761-.345.761-.77v-3.084c0-.425-.34-.77-.76-.77zm-.76 3.083H5.271l-1.14-.771 1.141-.77h30.206v1.54zm-5.327-2.313h1.522v3.084h-1.522v-3.084zm5.326 5.396H3.522c-.84 0-1.521.69-1.521 1.542v4.625c0 .851.68 1.541 1.521 1.541h31.956c.84 0 1.522-.69 1.522-1.541v-4.625c0-.852-.681-1.542-1.522-1.542zm0 6.167H3.522v-4.625h31.956v4.625zm-20.543-2.313h1.522v3.084h-1.522v-3.084zm7.609 0h1.521v3.084h-1.521v-3.084zm7.608 0h1.522v3.084h-1.522v-3.084zm-22.825 0h1.521v3.084H7.327v-3.084z"/></svg>