<?xml version="1.0" encoding="UTF-8"?>
<!DOCTYPE svg PUBLIC "-//W3C//DTD SVG 1.1//EN" "http://www.w3.org/Graphics/SVG/1.1/DTD/svg11.dtd">
<!-- Creator: CorelDRAW 2017 -->
<svg xmlns="http://www.w3.org/2000/svg" xml:space="preserve" width="320mm" height="150mm" version="1.1" style="shape-rendering:geometricPrecision; text-rendering:geometricPrecision; image-rendering:optimizeQuality; fill-rule:evenodd; clip-rule:evenodd"
viewBox="0 0 32000 15000"
 xmlns:xlink="http://www.w3.org/1999/xlink">
 <defs>
  <style type="text/css">
   <![CDATA[
    .fil0 {fill:#D7B56D}
   ]]>
  </style>
 </defs>
 <g id="Слой_x0020_1">
  <metadata id="CorelCorpID_0Corel-Layer"/>
  <g id="_1705691361216">
   <g id="_2737006334144">
    <path class="fil0" d="M2898.64 7675.54c-186.81,0 -320.72,-34.15 -495.67,-34.15 18.32,68.45 231.61,179.25 299.21,213.45l303.98 140.44c18.06,6.65 37.31,12.71 50.82,17.59 280.83,101.68 558.33,150.19 868.21,174.42l990.38 53.33c234.3,0 722.89,-64.8 942.73,-101.09 295.3,-48.78 820.18,-181.07 1113.5,-305.17 280.72,-118.73 601.7,-194.09 898.98,-280.29l849.24 -193.4 485.96 -43.96c-34.78,51.95 -95.29,87.43 -140.97,132.57 -26.64,26.32 -45.45,39.88 -71.08,65.55 -199.99,199.89 -343.92,351.59 -228.24,652.2 15.6,40.73 53.23,98.2 84.64,137.6l98.31 88.71c35.96,26.8 98.68,61.81 138.35,84.64 43.85,25.14 95.85,52.91 144.78,77.46 106.46,53.49 371.42,194.47 469.89,196.67 -6.11,-72.47 -10.67,-54.73 -57.14,-96.65 -85.12,-76.6 -175.39,-142.26 -248.34,-230.23 -174.27,-210.07 -421.01,-385.4 -97.83,-640.18 99.54,-78.42 208.14,-167.03 319.96,-226.91 113.8,-60.95 158.34,-101.9 295.03,-132.29 68.4,-15.22 157.01,-45.78 225.51,-34.78 68.51,10.98 152.24,37.35 220.26,54.35 70,17.47 153.25,33.93 214.25,76.32 -174.96,0 -420.41,94.19 -541.83,158.89 -218.43,116.32 -220.19,574.63 -26.79,751.36 53.11,48.51 148.59,108.28 212.9,146.02 81.05,47.65 448.99,166.22 543.7,174.1 9.44,-112.89 -6.37,-78.1 -95.3,-143.82l-390.66 -327.19c-234.36,-228.73 376.73,-524.14 761.81,-351.48 196.88,88.29 376.14,197.48 547.13,324.52l126.34 95.78c42.62,26.8 9.33,14.64 59.18,26.27 6.87,-82.18 23.8,-65.34 -22.3,-130.36l-190.56 -237.84c-2.31,-2.68 -5.68,-6.39 -7.99,-9.06l-69.68 -101.21c240.09,50.82 406.32,62.07 665.7,81.27 145.42,10.72 63.41,-102.6 17.16,-183.01 -28.26,-49.15 -50.87,-86.94 -88.5,-133.63l-57.9 -78.85c-191.79,-234.3 -281.58,-322.91 -550.02,-458.31 -0.32,-0.16 -25.25,-14.41 -32.65,-18.71 -142.04,-82.92 -295.14,-138.3 -447.1,-202.3 -27.61,-11.68 -64.8,-22.29 -89.73,-29.91 -369.06,-112.73 -626.15,-172.77 -1023.72,-172.77 -919.84,0 -1734.98,179.04 -2569.11,490.43l-327.73 133.79c-358.93,110.64 -1727.69,469.46 -1957.48,469.46l0 -17.1c258.04,0 765.77,-268.5 983.66,-434.83 109.63,-83.62 441.48,-298.9 469.15,-402.51 -101.85,8.47 -334.44,136.37 -461.31,171.1 -88.19,24.13 -158.08,51.46 -249.64,75.1 -348.58,90.06 -995.09,283.56 -1340.19,283.56 -510.84,0 -900.91,-35.85 -1362.38,-144.4l-345.26 -96.49c-251.94,-102.81 -314.66,-354.05 -110.27,-619.6l513.85 -494.49c109.19,-82.66 269.73,-159.31 398.21,-217.15 147.04,-66.26 413.28,-81.8 461.43,-153.79 -330.74,0 -316.11,-62.18 -713.57,20.2 -515.35,106.84 -779.4,391.31 -1000.3,675.84l-144.78 231.2c-5.04,13.02 -18.6,58.69 -20.37,65.01 -49.21,173.94 -38.75,332.56 38,472.36 117.34,213.61 320.66,309.02 543.97,378.92 71.73,22.46 154.97,42.13 220.21,87.43z"/>
    <path class="fil0" d="M28161.93 5744.58l0 34.2c309.71,72.15 442.12,99.59 721.02,253.12 57.46,31.62 140.65,88.44 195.06,129.72l170.51 137.11c2.68,2.31 6.54,5.53 9.22,7.83l205.09 222.24c138.67,172.28 283.88,394.47 96.97,596.23 -61.97,66.85 -68.08,76 -161.56,111.87 -353.84,135.61 -1024.63,233.6 -1390.21,233.6 -304.84,0 -547.51,-16.83 -837.71,-85.28l-528.1 -121.36c-248.35,-52.26 -506.03,-143.98 -745.73,-228.46 -92.2,-32.48 -139.59,-85.65 -247.23,-94.66 32.33,61.16 79.66,93.91 132.62,140.82 126.94,112.46 274.56,205.35 406.15,311.65 156.9,126.66 715.12,384.87 931.15,384.87l0 17.1c-261.59,0 -530.35,-97.13 -770.87,-152.07 -296.54,-67.7 -1039.81,-256.71 -1285.04,-355.83 -12,-4.82 -25.14,-8.46 -38.16,-13.02l-1121.12 -365.9c-621.85,-168.74 -1498.32,-259.43 -2134.06,-171.9 -66.41,9.17 -122.11,20.2 -187.66,34.47 -167.24,36.29 -340.01,103.34 -494.93,154.58 -245.49,81.27 -597.3,255.59 -778.05,435.48 -111.38,110.91 -198.87,230.01 -288.92,360.43 -3.96,5.74 -16.83,22.41 -22.35,28.95 -257.08,305.7 -37.31,238.75 413.38,186.22 80.41,-9.39 154.82,-32.64 229.7,-38.87 -79.66,150.36 -290.64,303.56 -290.64,478.47 58.8,-4.88 300.72,-188.79 363.64,-234.57 324.84,-235.75 631.46,-360.59 1018.64,-173.25 157.74,76.28 239.59,219.72 78.36,347.19 -24.39,19.3 -37.04,27.82 -57.68,44.81l-280.18 232.59c-350.03,279.97 184.5,76.98 293.2,36.77 37.9,-13.99 111.02,-33.93 149.94,-55.21l154.37 -101.9c83.47,-69.14 119.86,-106.99 157.54,-201.44 45.68,-114.55 44.23,-280.51 15.6,-392.97 -9.81,-38.38 4.88,-8.84 -18.38,-60.57 -23.75,-52.8 -48.68,-79.44 -91.71,-113.53 -109.09,-86.57 -313.53,-142.16 -445.56,-167.89 -44.82,-8.73 -100.07,-5.42 -141.24,-31.52 68.13,-5.68 136.42,-36.88 217.74,-55.8 58.8,-13.72 145.05,-46.58 216.76,-57.89 64.86,-10.24 158.67,19.09 227.98,32.37 110.85,21.34 108.01,17.26 199.73,73.76 158.66,97.88 573.56,330.84 573.56,520.17 0,130.85 -121.31,272.21 -129.51,280.61l-244.92 250.77c-36.4,30.76 -164.02,101.14 -172.55,203.42 80.84,-6.7 499.91,-216.99 589.48,-265.12 45.51,-24.39 92.84,-47.49 131.44,-73.71 67.37,-45.73 63.14,-53.6 112.99,-109.13 52.91,-58.76 51.84,-36.51 85.12,-119.91 54.47,-136.54 57.95,-337.87 -29.48,-458.05 -84.85,-116.43 -194.95,-218.97 -301.14,-314.12l-17.74 -16.51c-2.63,-2.35 -6.28,-5.79 -8.84,-8.2 -35.07,-32.05 -39.3,-30.65 -66.1,-70.65 218.8,0 286.18,11.91 468.82,43.96 160.86,28.19 279.65,65.23 437.5,92.36 66.15,11.36 145.76,33.5 206.49,49.9 72.9,19.63 139.68,30.08 205.29,50.98 291.23,92.79 606.69,159.69 887.14,275.15 35,14.41 70.55,21.28 104.32,32.42 46.04,15.23 52.37,23.05 98.31,38.39 470.1,157.16 1145.87,327.03 1626.21,322.37 114.23,-1.13 147.95,18.38 256.23,18.38l485.81 -28.09c152.23,-23.05 346.38,-12.7 504.57,-25.24 237.67,-18.87 427.75,-49.37 637.34,-97.67 268.71,-61.85 494.66,-207.12 730.89,-328.8 67.96,-35.11 133.3,-42.03 154.05,-119.43 -182.42,0 -309.02,34.15 -512.83,34.15l21.82 -12.28c214.25,-101.26 467.32,-130.89 638.31,-301.78 381.49,-381.12 101.37,-833.87 -205.24,-1148.89l-24.51 -26.75c-237.51,-249.09 -569.42,-369.97 -894.2,-440.78 -240.04,-52.37 -377.53,-0.48 -595.91,-0.48z"/>
    <path class="fil0" d="M18777.95 7538.85c-44.17,91.93 -70.38,176.03 -219.45,225.13 -64.01,21.07 -115.52,27.07 -176.36,18.01 -77.61,-11.58 -278.31,-147.73 -201.07,62.23 52.92,143.72 197.11,292.73 391.8,292.73 133.52,0 259.22,-11.73 354.42,-124.14 53.55,-63.36 121.79,-162.2 124.14,-268.87l34.15 0c32.96,141.4 85.49,80.99 85.49,324.67 0,257.08 -220.89,461.36 -478.56,461.36 -164.41,0 -421.11,-78.89 -556.94,-177.96 -131.55,-95.95 -210.98,-147.46 -326.77,-288.49 -43.04,-52.37 -35.54,-78.21 -107.75,-97.45 -24.38,101.96 -14.63,212 16.73,307.52 8.1,24.71 17.85,60.2 28.41,91.72 19.62,58.48 7.67,24.71 31.25,71.23 54.79,107.91 104.69,186.28 189.98,271.5l208.94 149.99c260.89,133.1 735.01,161.24 1022.16,-27.23 105.55,-69.37 170.19,-111.34 253.92,-224.55 193.08,-260.83 219.24,-637.34 80.73,-933.82l-214.73 -263.73c-24.72,-18.6 -45.52,-29.16 -71.57,-48.08 -178.07,-129.35 -616.49,-266.04 -827.9,-266.04 -353.89,0 -492.99,-17.52 -831.28,108.71l-227.5 97.24c-238.27,123.82 -427.96,288.12 -606.25,487.58l-30.72 37.73c-24.28,32.7 -55.04,67.81 -73.16,101.63 -126.4,236.02 237.51,-159.52 443.89,-260.83 178.77,-87.8 287.1,-164.41 536.62,-215.33l444 -46.74c113.9,6.65 318.73,28.25 435.9,59.87 80.41,21.66 195.6,68.4 267.48,74.41z"/>
    <path class="fil0" d="M12504.85 8102.75c0,155.88 59.55,354.81 149.66,465.56 69.64,85.54 31.41,60.4 116.69,139.68 12.97,12.07 15.07,13.57 26.91,24.4 263.84,240.83 446.41,224.81 766.48,224.81 112.94,0 266.79,-40.8 348.16,-79.18 135.61,-64 274.44,-169.76 356.35,-293.1 31.36,-47.33 57.3,-99.17 78.69,-143.5 76.01,-157.64 88.6,-235.53 88.6,-424.11 0,-65.34 5.26,-6.21 -17.09,-51.24 -92.04,24.55 -86.57,158.82 -399.94,369.22 -212.37,142.69 -575.91,285.44 -851.7,113.1 -39.51,-24.71 -64.06,-41.75 -94.18,-76.76 -91.88,-106.99 -134.55,-267.85 -117.88,-399.08 4.23,-33.13 27.39,-104.04 39.94,-131.16 42.23,-91.99 34.47,-86.09 73.38,-114.56 12.33,52.86 18.28,98.85 38.11,149.88l57.41 96.38c208.52,238.21 549.16,216.02 696.31,-1.45 38.16,-56.28 96.97,-118.67 96.97,-193.56 0,-157.54 -79.12,40.42 -325.11,1.5 -55.91,-8.84 -142.1,-46.42 -180.21,-77.3 -37.63,-30.44 -88.24,-107.37 -92.84,-163.43l278.09 -80.84c245.45,-66.63 689.07,-66.78 946.37,18.71 93.59,31.14 184.13,50.77 268.92,90.01l79.29 40.25c3.27,1.87 7.5,4.45 10.83,6.38l144.72 77.35c217.31,130.42 320.71,302.27 408.35,309.5 -7.34,-87.8 -60.62,-130.14 -104.9,-185.63 -122.21,-153.36 -94.66,-109.67 -226.58,-234.83 -39.93,-37.9 -34.73,-38.6 -80.89,-72.9 -283.83,-210.99 -291.87,-193.25 -584.48,-321.36 -229.64,-100.45 -562.63,-90.91 -797.95,-90.91 -161.56,0 -404.28,77.57 -549.27,134.28 -136.69,53.49 -126.35,26.37 -278.37,131.92l-110.8 94.29c-180.69,188.74 -258.04,371.47 -258.04,647.68z"/>
   </g>
  </g>
 </g>
</svg>
