<?xml version="1.0" encoding="UTF-8"?>
<!DOCTYPE svg PUBLIC "-//W3C//DTD SVG 1.1//EN" "http://www.w3.org/Graphics/SVG/1.1/DTD/svg11.dtd">
<!-- Creator: CorelDRAW 2017 -->
<svg xmlns="http://www.w3.org/2000/svg" xml:space="preserve" width="320mm" height="70mm" version="1.1" style="shape-rendering:geometricPrecision; text-rendering:geometricPrecision; image-rendering:optimizeQuality; fill-rule:evenodd; clip-rule:evenodd"
viewBox="0 0 32000 7000"
 xmlns:xlink="http://www.w3.org/1999/xlink">
 <defs>
  <style type="text/css">
   <![CDATA[
    .fil0 {fill:#D7B56D}
   ]]>
  </style>
 </defs>
 <g id="Слой_x0020_1">
  <metadata id="CorelCorpID_0Corel-Layer"/>
  <path class="fil0" d="M15923.23 6239.12c0,-133.26 -100.33,-1976.86 80.29,-1830.32 52,42.24 37.56,823.18 37.4,956.59 -0.21,152.73 54.09,874.04 -117.69,873.73zm55.89 -2450.69l0 0c-69.36,-7.46 -136.91,-168.06 -268.98,-243.89 -128.3,-73.65 -388.91,-80.08 -404.62,-88.65l483.29 -947.78 -43.02 -21.21c39.3,-17.28 285.51,-11.81 346.94,-11.66 130.01,0.35 101.92,115.92 130.2,233.25 29.02,120.63 154.25,380.4 225.33,481.89 270.9,386.99 227.62,182.15 -61.89,300.1 -87.68,35.75 -141.92,15.09 -232.43,111.45 -27.78,29.59 -156.38,182.1 -174.82,186.5zm-4270.92 -1191.33l0 0c-83.48,215.68 -1185.92,-387.03 -1354.27,2.19 -100.39,232.21 296.45,347.16 472.05,376.75 177.43,29.9 763.53,-38.65 786.96,-28.87 48.21,139.6 -110.58,972.52 368.41,1074.04 166.94,35.37 531.16,22.93 728.53,37.83 377.6,28.53 302.86,22.56 442.37,323.89l35.08 13 193.47 -521.73 -49.65 -18.37c272.4,-195.88 911.1,-92.61 989.87,321.48 127.39,669.89 -835.27,552.19 -707.97,274.29 123.01,-64.55 134.54,180.63 407.33,-45.61 139.36,-115.61 46.28,-249.09 -76.64,-323.07 -290.45,-174.82 -618.05,268.36 -489.42,498.19 375.22,670.55 1263.1,117.08 996.52,-563.06 -107.23,-273.55 -392.87,-396.06 -666.23,-463.55 -327.1,-80.83 -642.46,55.71 -953.47,144.1 -1532.43,435.59 -763.37,-853.7 -605.08,-835.64 99.04,97.61 -10.28,388.5 318.26,536.63 212.55,95.8 487.48,18.53 626.2,-147.44 159.26,-190.5 134.36,-426.03 -100.35,-535.35 -351.07,-163.57 -497.92,285.17 -283.8,308.26l23.31 -109.42c175.13,-139.16 409.09,149.35 156.32,279.36 -169.13,86.99 -433.18,-32.9 -459.05,-210.4 -50.12,-343.6 428.83,-636.68 662.57,-774.5 344.51,-203.18 702.42,-340.01 1122.19,-321.29 633.49,28.25 535.35,691.23 675.89,761.91 280.42,-162.57 -178.25,-824.49 -136.13,-911.85 159,-66.02 444.77,381.9 483.92,501.73 93.23,285.32 85.45,558.72 -51.4,825.45 -385.12,750.78 -1261.63,323.51 -1142.4,-41.87 32.77,-10.65 662.36,363.88 623.46,-283.04 -18.28,-303.86 -432.28,-461.18 -664.58,-170.57 -219.15,274.14 -161.32,598.15 61.24,823.46 411.24,416.31 759.47,189.03 847.89,234.05 70.27,149.82 -218.18,277.96 -276.11,400.41 -76.55,161.69 33.68,390.18 158.03,452.95 179.41,90.55 306.61,88.61 434.81,-106.17 177.97,-270.26 -38.03,-386.34 -70.9,-522.66 144.98,-291.11 677.42,-140.35 600.53,245.77 -31.75,159.48 -293.64,503.07 -359.41,810.4 -81.49,380.72 -20.5,678.57 96.8,1002.4 19.18,52.83 386.74,734.22 404.62,755.81 0.22,-0.19 368.72,-696.32 394.84,-754.38 120.1,-266.92 170.72,-712.41 97.82,-996.46 -34.24,-133.44 -78.23,-319.69 -153.94,-415.8 -14,-17.78 -196.03,-349.63 -202.03,-377.66 -107.76,-505.88 560.19,-491.45 585.12,-270.24 -3.34,98.49 -225.99,243.59 -73.08,505.05 104.36,178.43 226.37,223.65 418.81,135.91 165.69,-75.49 259.3,-275.24 191.72,-451.83 -56.49,-147.76 -343.67,-271.96 -270.33,-401.4 92.11,-52.24 407.37,167.72 816.05,-266.27 231.3,-245.71 270.8,-557.44 36.52,-817.49 -260.58,-289.23 -621.92,-93.77 -644.58,205.4 -46.49,612.84 600.15,252.49 628.49,262.83 109.7,313.26 -712.19,822.55 -1143.78,52.71 -375.5,-669.7 267.15,-1467.94 429.56,-1332.9 46.55,55.83 -410.68,700.88 -144.82,901.01 160.06,-61.09 19.43,-703.79 682.98,-762.66 653.39,-57.96 1835.01,627.99 1789.26,1071.23 -19.99,193.69 -268.64,327.26 -443.64,256.61 -287.58,-116.04 -45.15,-435.89 120.76,-297.51l42.9 114.92c151.35,-44.46 129.07,-467.08 -301.79,-301.83 -457.4,175.38 -20.81,896.64 552.56,670.17 258.3,-101.98 261.11,-521.78 303.79,-552.9 82.65,4.71 1020.15,1228.29 -579.12,866.45 -340.25,-76.99 -568.78,-236.81 -940.22,-163.38 -286.45,56.61 -587.49,181.78 -699.54,449.86 -311.17,744.38 717.41,1220.74 971.93,627.68 144.57,-336.85 -184.9,-680.2 -438.8,-556.47 -124.63,60.77 -237.21,205.87 -111.7,329.66 239.56,236.24 296.11,8.47 411.31,51.87 104.58,325.13 -847.2,356.66 -709.76,-280.74 87.36,-405.37 717.01,-511.91 984.53,-309.51l-40.65 15.47 192.96 506.94c256.93,-97.7 -118.91,-281.14 483.14,-322.16 457.65,-31.21 974.97,92.48 1056.05,-437.37 16.43,-107.45 39.93,-219.68 44.02,-329.19 2.09,-57.12 -34.4,-315.82 -29.68,-330.29 31.49,-45.65 842.02,106.92 1138.65,-73.74 75.05,-45.71 173.13,-196.37 143.48,-275.36 -159.57,-425.02 -1310.72,230.15 -1361.87,-25.49 7.72,-21.84 674.08,-230.12 734.47,-251.56 647.05,-229.58 1177.03,-878.16 1775.87,-1200.8 369.56,-199.06 1156.55,-517.63 1456.6,-47.93 193.34,302.77 41.84,471.64 -236.12,571.6 -268.92,96.7 -448.83,-380.35 53.77,-369.72 -127.01,-223.03 -564.68,-17.75 -526.82,250.05 36.9,261.17 360.35,402.24 603.65,357.19 613.12,-113.51 617.65,-817.15 112.3,-1100.72 -1028.55,-577.1 -2450.94,1077.63 -2634.07,991.64 -36.46,-60.99 217.44,-372.68 265.12,-447.45 148.04,-232.4 31.87,-418.22 -204.41,-312.67 -152.03,67.93 -403.21,950.06 -586.31,883.73 -41.9,-49.65 205.41,-801.87 -571.53,-1059.11 -496.66,-164.44 -940.43,47.21 -986.68,595.59 -45.36,537.82 396.66,908.54 889.42,574.66 192.47,-130.42 294.04,-362.29 118.76,-563.16 -219.15,-251.21 -532.69,129.1 -434.83,238.27 28.77,-2.25 65.95,-107.92 214.34,-122.2 97.26,-9.37 217.43,39.84 167.25,156.88 -72.11,168.35 -373.81,154.29 -519.88,93.61 -335.54,-139.32 -240.9,-718.57 261.8,-714.16 725.47,6.37 1000.49,1196.05 -245.49,1269.38 -549.54,32.34 -1407.93,-661.45 -1885,-887.6 -238.21,-112.95 -851.08,-217.65 -1152.69,-106.67 -196.22,72.24 -270.98,236.93 -499.42,59.12 -219.8,-171.16 -276.89,-405.16 -283.61,-409.59 -76.3,80.95 -32.71,387.4 27.31,489.01 126.39,214.03 321.32,111.98 404.09,214.81l-385.37 553.94 -341.38 20.9 -409.65 -583.71c78.39,-70.06 312.76,-6.6 423.55,-200.47 57.87,-101.33 105.67,-412.37 23.87,-506.45 -94.73,102.27 44.4,172.91 -270.58,417.06 -210.15,162.91 -330.69,48.33 -503.35,-46.18 -245.68,-134.51 -918.88,-15.19 -1185.37,96.67 -534,224.12 -1239.04,924.78 -1873.34,889.04 -1226.74,-69.11 -968.53,-1262.42 -235.75,-1269.26 529.07,-4.97 582.69,587.09 262.58,714.88 -712.85,284.58 -604.52,-625.39 -134.47,-114.73 61.36,-228.52 -251.02,-448.55 -425.31,-267.92 -171.47,177.75 -107.14,447.61 86.27,567.5 461.33,285.98 982.06,44.43 915.13,-540.7 -63.8,-557.84 -449.86,-781.74 -973.34,-627.33 -787.74,232.31 -561.59,1030.08 -591.37,1067.82 -126.39,41.47 -389.9,-587.96 -451.96,-704.13 -56.58,-106.11 -169.5,-295.08 -337.41,-191.72 -164.1,100.92 -2.19,302.64 53.15,397.34 162.1,277.68 521.54,634.65 -61.21,218.28 -230.87,-164.97 -454.46,-330.6 -686.42,-492.48 -418.62,-292.2 -1211.99,-693.73 -1713.53,-320.45 -774.15,576.16 -17.34,1313.1 517.23,1027.64 339.38,-181.22 289.17,-589.3 -45.02,-645.98 -57.09,-9.69 -184.22,3.53 -222.09,57.52 -38.31,54.58 99.42,7.19 187.44,56.65 126.88,71.27 167.25,296.6 -35.28,349.44 -256.71,66.99 -606.12,-260.46 -333.38,-609.46 211.37,-270.52 602.49,-232.15 903.13,-136.7 580.75,184.41 993.99,537.13 1451.1,896.91 259.74,204.47 418.59,305.17 714.82,464.05 99.05,53.12 850.92,278.92 861.73,319.2z"/>
 </g>
</svg>
