<svg xmlns="http://www.w3.org/2000/svg" width="26.938" height="18.97"><path data-name="Forma 1" d="M26.335 17.15l-7.752-6.26 8.083-9.2a.988.988 0 0 0-.145-1.45 1.135 1.135 0 0 0-1.543.13l-8.771 9.99a.834.834 0 0 0-.115.16V1.03a1.063 1.063 0 0 0-1.1-1.03h-1.391a1.037 1.037 0 1 0 0 2.07h.3v12.85L1.947.4A1.142 1.142 0 0 0 .409.22a1 1 0 0 0-.193 1.45l13.916 16.9a1.142 1.142 0 0 0 .865.4 1.1 1.1 0 0 0 .356-.06 1.041 1.041 0 0 0 .74-.98v-6.41a1.064 1.064 0 0 0 .247.28l8.571 6.92a1.175 1.175 0 0 0 .712.25 1.125 1.125 0 0 0 .833-.37.985.985 0 0 0-.121-1.45z" fill="#b09867" fill-rule="evenodd"/></svg>