<svg xmlns="http://www.w3.org/2000/svg" xmlns:xlink="http://www.w3.org/1999/xlink" width="33" height="15"><defs><path id="a" d="M390.666 5026.119l-7.23-.002a7.227 7.227 0 0 1-7.23-7.23c-.001-.627.106-1.226.255-1.807h3.36c.16 0 .305.052.454.092a3.553 3.553 0 0 0-.454 1.716 3.62 3.62 0 0 0 3.615 3.615h7.23a3.618 3.618 0 0 0 3.615-3.616 3.618 3.618 0 0 0-3.615-3.614h-2.573a9.062 9.062 0 0 0-2.905-3.615h5.478a7.232 7.232 0 0 1 0 14.46zm-12.596 0h-5.48a7.232 7.232 0 0 1 0-14.46h7.23a7.23 7.23 0 0 1 7.23 7.229 7.097 7.097 0 0 1-.255 1.808h-3.36c-.16 0-.301-.053-.451-.093a3.577 3.577 0 0 0 .452-1.715 3.617 3.617 0 0 0-3.615-3.615h-7.23a3.62 3.62 0 0 0-3.616 3.616 3.621 3.621 0 0 0 3.615 3.615l2.573-.001a9.064 9.064 0 0 0 2.907 3.616z"/></defs><use xlink:href="#a" transform="translate(-365 -5011)"/></svg>