<svg xmlns="http://www.w3.org/2000/svg" width="45" height="50"><path fill="#FFF" paint-order="stroke fill markers" fill-rule="evenodd" d="M22.498 9.23c-7.97.003-14.454 6.205-14.454 13.825 0 4.945 2.03 7.888 3.524 10.057.919 1.333 1.44 2.126 1.44 2.925 0 1.793.971 3.484 2.698 4.75.043 1.065.202 3.66.202 3.66v.002c.028.738.42 2.248 2.989 3.092a4.3 4.3 0 0 0 1.18 1.15c.302.201.658.309 1.022.309h2.798a1.83 1.83 0 0 0 1.021-.31 4.28 4.28 0 0 0 1.181-1.149c2.591-.852 2.968-2.38 2.989-3.096 0 0 .159-2.593.202-3.657 1.727-1.266 2.698-2.957 2.698-4.75 0-.799.521-1.592 1.448-2.938 1.483-2.15 3.517-5.093 3.517-10.046 0-7.622-6.485-13.824-14.455-13.824zm7.91 21.845c-1.066 1.547-2.074 3.01-2.074 4.962 0 .858-.785 1.55-1.37 1.948h-8.932c-.584-.397-1.369-1.089-1.369-1.948 0-1.953-1.008-3.415-2.088-4.982-1.347-1.955-2.876-4.17-2.876-8 0-5.627 4.845-10.208 10.8-10.21 5.955 0 10.8 4.58 10.8 10.208-.001 3.837-1.532 6.053-2.89 8.022zm-7.91-24.557a.908.908 0 0 0 .914-.903v-2.71A.91.91 0 0 0 22.498 2a.91.91 0 0 0-.914.904v2.711c0 .5.41.903.914.903zM12.789 8.43a.917.917 0 0 0 1.249.332.898.898 0 0 0 .334-1.235l-1.37-2.348a.919.919 0 0 0-1.25-.331.9.9 0 0 0-.334 1.235l1.371 2.347zM7.51 13.651l-2.374-1.354a.919.919 0 0 0-1.248.33.9.9 0 0 0 .335 1.235l2.373 1.356a.93.93 0 0 0 .456.12.916.916 0 0 0 .793-.451.9.9 0 0 0-.335-1.236zm-1.933 9.603a.909.909 0 0 0-.914-.903h-2.74a.909.909 0 0 0-.915.903c0 .499.41.905.914.905h2.741a.91.91 0 0 0 .914-.905zm1.02 8.038l-2.375 1.354a.9.9 0 0 0-.336 1.234.913.913 0 0 0 1.248.33l2.374-1.354a.899.899 0 0 0 .336-1.234.917.917 0 0 0-1.248-.33zm34.177 1.356L38.4 31.292a.918.918 0 0 0-1.248.33.899.899 0 0 0 .333 1.234l2.374 1.356a.916.916 0 0 0 1.249-.33.898.898 0 0 0-.334-1.234zm2.3-10.296l-2.74-.001a.908.908 0 0 0-.914.902c0 .5.408.905.913.905l2.74.001a.91.91 0 0 0 .913-.903c0-.5-.408-.904-.913-.904zm-5.13-7.014c.154 0 .312-.04.455-.121l2.374-1.355a.897.897 0 0 0 .336-1.233.918.918 0 0 0-1.249-.331l-2.374 1.353a.9.9 0 0 0-.335 1.235c.17.29.477.452.792.452zM30.957 8.76a.914.914 0 0 0 1.248-.33l1.37-2.347a.898.898 0 0 0-.334-1.235.917.917 0 0 0-1.249.332l-1.37 2.347a.897.897 0 0 0 .335 1.233zm-9.685 19.954c.11.8.501 1.02 1.225 1.02.723 0 1.114-.22 1.226-1.02l.864-6.448c.054-.44.11-.88.11-1.293v-3.196c0-1.405-.808-2.122-2.2-2.122-1.393 0-2.201.716-2.201 2.122v3.196c0 .412.056.853.111 1.293l.865 6.448zm1.225 2.81c-1.255 0-2.285 1.018-2.285 2.259 0 1.24 1.031 2.259 2.285 2.259 1.254 0 2.284-1.02 2.284-2.26 0-1.24-1.03-2.259-2.284-2.259z"/></svg>