<svg xmlns="http://www.w3.org/2000/svg" xmlns:xlink="http://www.w3.org/1999/xlink" width="35" height="41"><defs><path id="a" d="M142 11428.61h1v40h-1z"/><path id="b" d="M112.94 11442.85c0-3.78.82-6.85 5.56-6.85 4.74 0 5.56 3.07 5.56 6.85s-2.49 6.85-5.56 6.85c-3.07 0-5.56-3.07-5.56-6.85zm-4.94 17.3c0-.06 0-.23 0 0zm21 .18c0-.44 0-.06 0 0zm0 0v.51s-1.55 3.16-10.5 3.16-10.5-3.16-10.5-3.16a185.42 185.42 0 0 0 .02-1.18c.11-6.41 1.01-8.26 7.44-9.44 0 0 .91 1.18 3.04 1.18s3.04-1.18 3.04-1.18c6.5 1.19 7.34 3.07 7.45 9.65v.46z"/></defs><use fill="#d8d5d5" xlink:href="#a" transform="translate(-108 -11428)"/><use fill="#d8d5d5" xlink:href="#b" transform="translate(-108 -11428)"/></svg>