<svg xmlns="http://www.w3.org/2000/svg" xmlns:xlink="http://www.w3.org/1999/xlink" width="35" height="41"><defs><path id="a" d="M119.92 11594.44l.03-5.61c0-1.12-.93-2.03-2.08-2.03l-2.83-.01-.12-.44a19.86 19.86 0 0 1-.9-5.86c.01-2.57.57-4.47.98-5.86l.12-.42h2.83c1.16.01 2.1-.9 2.11-2.01l.04-5.6c0-1.12-.93-2.04-2.09-2.04h-1.58v.04a6.43 6.43 0 0 0-3.27 1.36c-3.46 2.69-4.89 6.9-4.94 14.5-.06 10.53 4.55 14.4 4.75 14.56a6.65 6.65 0 0 0 3.25 1.38v.03l1.58.03c1.16 0 2.1-.9 2.12-2.02z"/><path id="b" d="M142 11560.61h1v40h-1z"/></defs><use fill="#d8d5d5" xlink:href="#a" transform="translate(-108 -11560)"/><use fill="#d8d5d5" xlink:href="#b" transform="translate(-108 -11560)"/></svg>