<svg xmlns="http://www.w3.org/2000/svg" width="34" height="44"><path fill="#F06A00" paint-order="stroke fill markers" fill-rule="evenodd" d="M31.326 11.455c-.156-.56-.471-1.159-.705-1.681-2.793-6.458-8.896-8.772-13.824-8.772-6.597 0-13.862 4.254-14.832 13.026v1.792c0 .076.026.75.065 1.085.543 4.18 3.972 8.626 6.533 12.806 2.755 4.479 5.614 8.883 8.446 13.289 1.746-2.875 3.486-5.786 5.193-8.586.465-.82 1.005-1.644 1.47-2.428.311-.52.904-1.042 1.175-1.53 2.755-4.854 7.189-9.743 7.189-14.56v-1.978c0-.523-.672-2.355-.71-2.463zm-14.408 8.998c-1.94 0-4.062-.934-5.11-3.51-.156-.411-.143-1.234-.143-1.31v-1.156c0-3.286 2.899-4.778 5.42-4.778 3.104 0 5.505 2.39 5.505 5.375 0 2.989-2.568 5.38-5.672 5.38z"/></svg>