<svg xmlns="http://www.w3.org/2000/svg" width="25" height="31"><path fill="#D8D5D5" paint-order="stroke fill markers" fill-rule="evenodd" d="M12.5 14.696c3.07 0 5.558-3.066 5.558-6.847 0-3.782-.817-6.847-5.558-6.847-4.742 0-5.56 3.065-5.56 6.847 0 3.781 2.49 6.847 5.56 6.847zM2 25.15c0-.23-.001-.065 0 0zm20.998.18c.003-.063.001-.437 0 0zm-.011-.456c-.103-6.588-.952-8.465-7.444-9.653 0 0-.913 1.18-3.043 1.18s-3.044-1.18-3.044-1.18c-6.421 1.175-7.321 3.024-7.44 9.439-.01.523-.014.551-.016.49l.001.692s1.546 3.16 10.499 3.16c8.952 0 10.498-3.16 10.498-3.16v-.511c-.001.037-.005-.036-.011-.457z"/></svg>