<svg xmlns="http://www.w3.org/2000/svg" width="38" height="41"><path fill="#F06A00" paint-order="stroke fill markers" fill-rule="evenodd" d="M20.641 1.002H17.36C8.339 1.002 1 8.426 1 17.552v8.937c0 .512.41.927.917.927h1.376v.653c0 .512.41.927.916.927h1.664c1.644 0 2.982-1.353 2.982-3.018v-7.247c0-1.664-1.338-3.017-2.982-3.017H4.209a.922.922 0 0 0-.916.927v.653H2.84C2.977 9.31 9.435 2.856 17.359 2.856h3.282c7.924 0 14.382 6.454 14.52 14.438h-.454v-.653a.922.922 0 0 0-.916-.927h-1.664c-1.644 0-2.982 1.353-2.982 3.017v7.248c0 1.665 1.338 3.018 2.982 3.018h1.664a.909.909 0 0 0 .65-.274v2.001c0 2.686-2.16 4.87-4.813 4.87h-5.45a2.455 2.455 0 0 0-2.273-1.554H19.43c-1.352 0-2.452 1.113-2.452 2.48 0 1.37 1.1 2.482 2.452 2.482h2.475a2.455 2.455 0 0 0 2.273-1.553h5.45c3.664 0 6.646-3.017 6.646-6.725v-3.329A.924.924 0 0 0 37 26.49v-8.937c0-9.126-7.339-16.55-16.359-16.55z"/></svg>