<svg xmlns="http://www.w3.org/2000/svg" width="27" height="35"><path fill="#FFF" paint-order="stroke fill markers" fill-rule="evenodd" d="M24.67 9.669L18.576 3.37c-.651-.673-1.51-1.11-2.578-1.311v10.273h9.94c-.196-1.104-.62-1.992-1.27-2.664zm-9.295 5.247c-.521 0-.964-.187-1.328-.565a1.9 1.9 0 0 1-.547-1.372V2H2.878c-.52 0-.963.188-1.328.565a1.901 1.901 0 0 0-.547 1.372v27.128c0 .54.183.996.547 1.374.365.377.807.564 1.328.564h21.245c.52 0 .963-.187 1.327-.564.364-.378.547-.835.547-1.374V14.916H15.375z"/></svg>