<svg xmlns="http://www.w3.org/2000/svg" width="15" height="35"><path fill="#D8D5D5" paint-order="stroke fill markers" fill-rule="evenodd" d="M12.916 31.438l.037-5.61c.004-1.114-.931-2.025-2.087-2.03l-2.826-.011-.12-.435c-.389-1.387-.92-3.288-.902-5.86.016-2.576.573-4.476.98-5.863l.122-.423 1.895.009.933.002c1.158.004 2.104-.901 2.112-2.016l.037-5.61c.008-1.114-.929-2.027-2.087-2.03l-1.585-.002v.044a6.462 6.462 0 0 0-1.803.49 6.782 6.782 0 0 0-1.46.87C2.704 5.65 1.274 9.853 1.224 17.467c-.068 10.524 4.545 14.385 4.747 14.55A6.645 6.645 0 0 0 9.216 33.4l.002.033 1.585.022c1.157.003 2.104-.901 2.113-2.017z"/></svg>