<svg xmlns="http://www.w3.org/2000/svg" width="34" height="28"><path fill="#F06A00" paint-order="stroke fill markers" fill-rule="evenodd" d="M4.858 9.396c.38.274 1.526 1.083 3.438 2.431a866.135 866.135 0 0 1 4.394 3.11c.112.08.349.255.712.52.364.269.666.483.906.648.24.165.531.351.872.556.341.202.663.356.965.46.302.104.581.153.838.153h.034c.257 0 .537-.05.839-.153a5.3 5.3 0 0 0 .964-.46c.341-.205.632-.391.872-.556.24-.165.542-.38.906-.648.363-.267.6-.44.713-.52 1.028-.726 3.645-2.574 7.849-5.54A8.014 8.014 0 0 0 31.206 7.3c.548-.818.822-1.676.822-2.575 0-.75-.266-1.392-.797-1.926-.531-.536-1.16-.8-1.887-.8H4.656c-.86 0-1.523.295-1.987.886-.464.589-.696 1.33-.696 2.215 0 .716.308 1.492.923 2.327.614.836 1.269 1.494 1.962 1.97zm25.492 1.827c-3.667 2.522-6.451 4.482-8.352 5.88-.637.478-1.154.851-1.551 1.117s-.925.539-1.585.816c-.66.281-1.274.419-1.845.419h-.034c-.57 0-1.185-.138-1.844-.419-.66-.277-1.188-.55-1.585-.816-.397-.266-.914-.64-1.552-1.117-1.509-1.126-4.288-3.086-8.335-5.88a9.058 9.058 0 0 1-1.694-1.484v13.535c0 .752.263 1.394.788 1.928.526.534 1.158.803 1.895.803h24.688c.738 0 1.37-.269 1.895-.803a2.65 2.65 0 0 0 .789-1.928V9.74a9.323 9.323 0 0 1-1.678 1.484z"/></svg>