<svg xmlns="http://www.w3.org/2000/svg" width="58" height="62"><path paint-order="stroke fill markers" fill-rule="evenodd" d="M54.703 37c-1.14 11.55-10.438 20.833-21.922 21.895-13.575 1.255-25.15-8.79-26.494-21.846H3.895c-1.455 0-2.364-1.585-1.636-2.852l5.35-9.325a1.883 1.883 0 0 1 3.273 0l5.35 9.325c.727 1.267-.182 2.852-1.637 2.852h-2.082c1.353 9.749 10.37 17.059 20.709 15.534 7.65-1.128 13.856-7.203 15.156-14.874 1.946-11.482-6.832-21.474-17.886-21.474a17.99 17.99 0 0 0-10.017 3.028c-1.38.92-3.291.739-4.303-.579a3.12 3.12 0 0 1 .711-4.48 24.079 24.079 0 0 1 10.591-3.995V6.674h-2.479a1.55 1.55 0 0 1-1.544-1.554V3.554A1.55 1.55 0 0 1 24.995 2H36.49a1.55 1.55 0 0 1 1.545 1.554V5.12a1.55 1.55 0 0 1-1.545 1.554h-2.73v3.571c12.665 1.72 22.274 13.276 20.943 26.756zm.8-23.519l-4.656-4.332a1.538 1.538 0 0 0-2.182.087l-1.232 1.34a1.562 1.562 0 0 0 .086 2.197l4.656 4.33a1.537 1.537 0 0 0 2.182-.085l1.232-1.341a1.56 1.56 0 0 0-.086-2.196zM30.418 19.43v15.199h14.953c0-9.256-6.979-15.2-14.953-15.2z"/></svg>