<svg xmlns="http://www.w3.org/2000/svg" width="41" height="41"><path fill="#EE873A" paint-order="stroke fill markers" fill-rule="evenodd" d="M36.459 16.887h-.556v-.562C35.903 7.875 28.993 1 20.5 1 12.006 1 5.097 7.875 5.097 16.325v.562H4.54c-1.95 0-3.54 1.58-3.54 3.523v5.154c0 1.943 1.589 3.523 3.541 3.523h1.975a.912.912 0 0 0 .837-.548c2.338 4.63 5.74 7.69 5.965 7.89a.646.646 0 0 0 .43.162h.002a.644.644 0 0 0 .6-.88 13.251 13.251 0 0 1-.083-.31c1.59 1.988 3.298 3.162 4.594 3.837a6.782 6.782 0 0 0 6.242 0c1.237-.644 2.85-1.748 4.377-3.575 2.888-1.047 5.09-3.53 5.727-6.576h1.252c1.952 0 3.541-1.58 3.541-3.523V20.41c0-1.942-1.589-3.523-3.541-3.523zM8.032 10.974A13.601 13.601 0 0 1 20.5 2.814c6.15 0 11.354 4.088 13.02 9.675-.727-.696-1.521-1.093-2.221-1.235-.496-1.406-1.226-2.278-1.387-2.46-.305-.407-3.146-3.984-8.967-3.984-1.994 0-4.125.43-6.333 1.279-1.575.605-4.42 2.02-6.58 4.885zM24.505 38.1a5.493 5.493 0 0 1-2.523.615c-.877 0-1.75-.213-2.523-.615-1.587-.827-3.854-2.482-5.645-5.677-.035-.064-.068-.13-.103-.193-.238-2.448-.068-5.549 1.886-7.181 1.513-1.264 4.06-1.852 6.522-2.422 3.084-.712 6.254-1.446 8.001-3.523.549.511 1.011 1.163 1.195 1.976.626 2.773-.177 5.15-.189 5.182a.64.64 0 0 0 .61.854.65.65 0 0 0 .305-.077l.043-.024c-.405 1.881-1.016 3.77-1.934 5.408-.274.488-.56.937-.853 1.357a7.149 7.149 0 0 1-2.883.606h-.944a2.617 2.617 0 0 0-2.45-1.697h-2.49a2.613 2.613 0 0 0-2.617 2.603 2.613 2.613 0 0 0 2.617 2.603h2.492a2.618 2.618 0 0 0 2.45-1.696h.943c.278 0 .553-.013.824-.038a12.655 12.655 0 0 1-2.733 1.939zm7.373-6.243c.823-1.8 1.355-3.771 1.695-5.676v1.081c0 1.75-.639 3.354-1.695 4.595z"/></svg>