<svg xmlns="http://www.w3.org/2000/svg" width="62" height="77"><path fill="#1E2741" paint-order="stroke fill markers" fill-rule="evenodd" d="M59.977 45.552l-.57-2.263a3.186 3.186 0 0 0-2.968-2.394l-2.016-24.99a6.03 6.03 0 0 0-3.675-5.07l-5.107-2.17c.007-.134.02-.264.02-.397a6.983 6.983 0 0 0-2.086-4.992 7.783 7.783 0 0 0-5.516-2.265H24.012a7.78 7.78 0 0 0-5.515 2.265 6.98 6.98 0 0 0-2.087 4.992c0 .133.013.265.02.396l-5.108 2.17a6.028 6.028 0 0 0-3.673 5.072l-2.017 24.99a3.185 3.185 0 0 0-2.968 2.394l-.57 2.263a3.169 3.169 0 0 0 .842 3.015 3.196 3.196 0 0 0 1.637.869l10.054 1.993-5.85 23.2 23.477 1.368V73.44l21.066-1.227-5.655-20.826 9.833-1.95a3.196 3.196 0 0 0 1.636-.87 3.172 3.172 0 0 0 .843-3.014zm-7.984-29.454l2.023 25.064-8.612 1.897-.963-3.542V35l5.76-21.698c1.01.595 1.695 1.613 1.792 2.796zm-6.912-5.043l2.872 1.22-5.67 21.36H35.32l9.761-22.58zm-15.63 29.83h.146l-1.984 11.8-2.283-.565 4.12-11.236zm-2.072-2.417h-7.312V36.05h7.312v2.417zm-2.57-28.059c1.19-.33 3.728-.94 6.226-.94 2.499 0 5.036.61 6.227.94l-6.227 20.285-6.226-20.285zm7.699 30.475l4.378 18.45-2.355.583-2.134-19.033h.11zm9.496-4.833v2.417H34.69V36.05h7.313zM20.219 4.985a5.356 5.356 0 0 1 3.793-1.557h14.047a5.35 5.35 0 0 1 3.791 1.557 4.591 4.591 0 0 1 1.373 3.283 4.57 4.57 0 0 1-.38 1.83L32.706 33.55l8.027-26.146-2.332-.703-.428 1.394c-1.305-.366-4.097-1.043-6.937-1.043s-5.631.677-6.937 1.043l-.428-1.394-2.33.703 8.026 26.146-10.139-23.453a4.57 4.57 0 0 1-.379-1.83c0-1.24.487-2.405 1.371-3.282zm-3.228 6.07l9.76 22.58h-7.002l-5.631-21.36 2.873-1.22zm-6.912 5.043c.095-1.183.781-2.2 1.79-2.797l5.76 21.698v4.528l-.894 3.548-8.679-1.913 2.023-25.064zM5.051 47.066a.758.758 0 0 1-.592-.928l.57-2.263a.762.762 0 0 1 .74-.575h.672c.055 0 .112.006.166.018l9.534 2.101-.924 3.664-10.166-2.017zm24.766 26.37l-17.96-1.048L19.8 40.884h7.057l-4.742 12.93 7.468 1.851.234-1.39v19.16zm0-34.968V36.05h2.437l.001 2.417h-2.438zm20.37 31.505l-17.933 1.046v-9.525l.16 1.44L39.81 61.1l-4.797-20.216h7.319l7.857 29.089zm7.224-23.115a.772.772 0 0 1-.39.208l-9.99 1.98-.993-3.651 9.42-2.076a.803.803 0 0 1 .17-.018h.672a.76.76 0 0 1 .74.575l.571 2.263a.758.758 0 0 1-.2.72z"/></svg>