<svg xmlns="http://www.w3.org/2000/svg" width="42" height="65"><path fill="#1E2741" paint-order="stroke fill markers" fill-rule="evenodd" d="M40.157 25.825a19.646 19.646 0 0 0-7.187-15.207V2.063a1.03 1.03 0 0 0-1.026-1.033H9.357A1.03 1.03 0 0 0 8.33 2.063v8.555a19.646 19.646 0 0 0-7.186 15.207A19.647 19.647 0 0 0 8.33 41.032v20.953c0 .417.25.794.634.954.384.16.825.072 1.119-.224L20.65 52.081l10.568 10.634a1.023 1.023 0 0 0 1.119.224c.384-.16.633-.537.633-.954V41.032a19.647 19.647 0 0 0 7.187-15.207zM10.384 3.096h20.533v6.045a19.4 19.4 0 0 0-3.617-1.77l-.089-.032A20.857 20.857 0 0 0 26.181 7a21.712 21.712 0 0 0-.386-.11c-.107-.03-.214-.06-.322-.087l-.308-.076-.255-.059c-.104-.023-.209-.047-.314-.069a20.136 20.136 0 0 0-1.726-.275 18.457 18.457 0 0 0-.785-.075l-.198-.013c-.145-.01-.29-.017-.436-.022l-.19-.008a19.287 19.287 0 0 0-1.847.03l-.2.013c-.188.014-.377.03-.565.05-.073.007-.146.016-.219.025a16.644 16.644 0 0 0-.946.131 22.244 22.244 0 0 0-.779.144c-.105.022-.21.046-.315.07l-.254.058-.308.076a19.675 19.675 0 0 0-1.738.536l-.09.032a19.398 19.398 0 0 0-3.617 1.77V3.096zm20.533 56.395l-9.54-9.601a1.02 1.02 0 0 0-1.452 0l-9.541 9.6V42.51A19.4 19.4 0 0 0 14 44.279l.09.032a18.671 18.671 0 0 0 1.415.45l.321.086.308.076.255.059.315.069c.12.025.24.047.36.07a19.09 19.09 0 0 0 1.365.206l.22.025c.187.02.376.035.565.05l.199.012c.145.01.29.017.435.022l.19.008a20.025 20.025 0 0 0 1.222 0l.19-.008c.146-.005.29-.013.435-.022l.2-.013c.189-.014.377-.03.565-.05l.22-.024a20.237 20.237 0 0 0 .946-.132c.14-.024.279-.048.418-.074.12-.023.241-.045.36-.07.106-.022.21-.046.315-.07a18.858 18.858 0 0 0 2.3-.67l.09-.031a19.394 19.394 0 0 0 3.617-1.771V59.49zm.51-19.86a1.039 1.039 0 0 0-.112.075 17.458 17.458 0 0 1-4.931 2.708l-.113.04-.13.043c-.09.03-.18.06-.272.089l-.09.028a12.36 12.36 0 0 1-.328.098l-.051.015a17.256 17.256 0 0 1-3.383.608l-.08.005c-.11.008-.22.016-.33.021l-.118.006-.306.012-.118.004a18.49 18.49 0 0 1-.83 0l-.118-.004a21.585 21.585 0 0 1-.305-.012l-.12-.006-.328-.02-.08-.006a17.402 17.402 0 0 1-1.292-.15c-.712-.11-1.41-.264-2.092-.458l-.05-.015a14.186 14.186 0 0 1-.69-.215l-.13-.044-.113-.04a17.462 17.462 0 0 1-4.932-2.707 1.033 1.033 0 0 0-.114-.077 17.581 17.581 0 0 1-6.674-13.804c0-5.592 2.61-10.582 6.67-13.8a1.3 1.3 0 0 0 .118-.081 17.462 17.462 0 0 1 4.932-2.708l.112-.04.13-.043.272-.089.09-.028c.11-.034.219-.067.329-.099l.05-.014a17.295 17.295 0 0 1 3.383-.608l.081-.006c.11-.007.219-.015.329-.02l.119-.007.305-.011.118-.004a17.18 17.18 0 0 1 .83 0 18.537 18.537 0 0 1 .871.042l.081.006a17.402 17.402 0 0 1 1.291.15c.712.11 1.41.264 2.092.458l.05.014.33.099.09.028.271.089.13.043.113.04a17.464 17.464 0 0 1 4.931 2.708.966.966 0 0 0 .114.076 17.581 17.581 0 0 1 6.674 13.805 17.58 17.58 0 0 1-6.675 13.806zm2.517-18.268a1.03 1.03 0 0 0-.816-.691l-7.86-1.234-3.698-7.502c-.347-.704-1.492-.704-1.84 0l-3.698 7.502-7.86 1.234a1.03 1.03 0 0 0-.815.691 1.04 1.04 0 0 0 .234 1.047l5.571 5.813-1.727 7.706c-.085.38.05.775.347 1.023.298.249.709.307 1.065.152l7.803-3.418 7.804 3.418a1.016 1.016 0 0 0 1.065-.152c.297-.248.432-.644.347-1.023l-1.727-7.706 5.57-5.814a1.04 1.04 0 0 0 .235-1.046zm-7.668 5.826c-.239.25-.338.605-.261.944l1.402 6.263-6.357-2.784a1.028 1.028 0 0 0-.82 0l-6.356 2.784 1.402-6.263a1.036 1.036 0 0 0-.261-.944l-4.584-4.783 6.433-1.009c.33-.052.614-.262.761-.562l3.015-6.116 3.016 6.116c.146.3.43.51.76.562l6.433 1.01-4.583 4.782z"/></svg>