<svg xmlns="http://www.w3.org/2000/svg" width="65" height="66"><path fill="#1E2741" paint-order="stroke fill markers" fill-rule="evenodd" d="M61.663 25.35c-4.776-15.267-21.07-23.8-36.328-19.022C10.08 11.108 1.552 27.416 6.327 42.683l1.875-.587C3.75 27.864 11.699 12.659 25.922 8.203c6.89-2.157 14.208-1.5 20.603 1.848 6.397 3.35 11.107 8.992 13.264 15.886 2.155 6.895 1.5 14.217-1.847 20.618-3.346 6.402-8.983 11.116-15.873 13.274-11.533 3.612-24.174-.95-30.749-11.094l-1.648 1.07c5.435 8.387 14.737 13.216 24.38 13.215a28.67 28.67 0 0 0 8.603-1.317c7.39-2.314 13.437-7.37 17.028-14.237 3.59-6.866 4.292-14.72 1.98-22.117zm-33.36-6.59l.564-1.882-9.821-2.949a.98.98 0 0 0-.976.247l-1.965 1.966a.984.984 0 0 0 .296 1.593l8.839 3.93.797-1.796-7.531-3.35.538-.539 9.259 2.78zm9.123-5.854a.982.982 0 0 0-.982-.983h-.002c-2.16 0-4.193.843-5.721 2.372l-8.328 8.333-3.39-.848a.982.982 0 0 0-.932.259l-1.964 1.965a.981.981 0 0 0 .188 1.537l4.7 2.823 2.82 4.704a.982.982 0 0 0 1.538.19l1.964-1.966a.986.986 0 0 0 .258-.934l-.846-3.388 8.46-8.383c1.444-1.513 2.239-3.5 2.237-5.68zm-12.478 13.06a.984.984 0 0 0-.262.936l.848 3.392-.682.682-2.3-3.835a.977.977 0 0 0-.336-.337l-3.832-2.3.682-.683 3.389.849a.982.982 0 0 0 .933-.259l8.72-8.728a6.074 6.074 0 0 1 3.275-1.705 6.063 6.063 0 0 1-1.596 3.231l-8.839 8.757zm10.471 4.479l-2.946-9.957-1.884.559 2.769 9.354-.596.527-3.275-7.601-1.804.779 3.81 8.845a.983.983 0 0 0 1.553.348l2.082-1.838a.984.984 0 0 0 .291-1.016zM23.707 59.193c-6.995 3.317-12.482 3.746-15.05 1.175-4.453-4.456.382-17.402 11.247-30.116l-1.493-1.278C6.495 42.918 1.911 56.4 7.267 61.758 8.763 63.254 10.875 64 13.495 64c3.054 0 6.798-1.013 11.053-3.031l-.841-1.776zM56.95 38.977a.982.982 0 0 0-.866-.518h-3.321l-2.675-5.354a.983.983 0 0 0-.88-.543h-9.82a.982.982 0 0 0-.982.982v7.863c0 .543.439.983.982.983h2.946V53.2c0 .544.439.983.982.983h4.91c.26 0 .51-.103.696-.288l3.928-3.932a.979.979 0 0 0 .288-.695v-3.633l3.763-5.65c.2-.3.22-.688.05-1.008zm-5.612 5.816a.989.989 0 0 0-.165.545v3.525l-3.353 3.355h-3.522V41.407a.981.981 0 0 0-.983-.983H40.37v-5.897h8.232l2.675 5.353a.983.983 0 0 0 .879.544h2.094l-2.911 4.369zm6.297-14.197l-3.645-6.384a.981.981 0 0 0-.853-.496h-5.892a.983.983 0 0 0-.817.437l-1.673 2.512h-2.42V21.75h4.91a.98.98 0 0 0 .694-.288l3.64-3.643h4.504v-1.966h-4.91a.98.98 0 0 0-.694.289l-3.641 3.643h-5.486a.982.982 0 0 0-.982.983v6.88c0 .542.44.982.982.982h3.928a.983.983 0 0 0 .818-.437l1.672-2.511h4.798l3.645 6.384a.982.982 0 0 0 .852.496h3.929v-1.966h-3.359zm-24.14 9.828H28.01l-2.658-2.66a.98.98 0 0 0-.694-.288h-4.91a.982.982 0 0 0-.983.983v6.879c0 .544.44.983.982.983h3.928v9.828a.984.984 0 0 0 1.572.786l3.928-2.948a.984.984 0 0 0 .393-.786v-2.477l4.542-3.636a.983.983 0 0 0 .368-.767v-4.914a.982.982 0 0 0-.982-.983zm-.982 5.425l-4.542 3.636a.985.985 0 0 0-.368.767v2.457l-1.964 1.475v-8.846a.982.982 0 0 0-.982-.983h-3.929v-4.914h3.522l2.658 2.66a.98.98 0 0 0 .695.289h4.91v3.46zm-18.8-19.69l-2.946-4.915a.981.981 0 0 0-.842-.476h-.982v1.965h.426l2.266 3.78-2.404 2.405a.981.981 0 0 0-.288.695v2.949H5.998v1.965h3.928c.542 0 .982-.44.982-.983V30.02l2.659-2.66a.985.985 0 0 0 .147-1.202zM35.462 6.024v1.2l-3.185.796a.994.994 0 0 0-.307.136l-2.472 1.65-5.383-2.695-.879 1.758 5.893 2.949a.987.987 0 0 0 .983-.062l2.805-1.871 3.764-.942a.983.983 0 0 0 .745-.953V6.025h-1.964z"/></svg>