<svg xmlns="http://www.w3.org/2000/svg" width="320mm" height="150mm" viewBox="0 0 32000 15000" shape-rendering="geometricPrecision" text-rendering="geometricPrecision" image-rendering="optimizeQuality" fill-rule="evenodd" clip-rule="evenodd"><defs><style>.fil0{fill:#d7b56d}</style></defs><g id="Слой_x0020_1"><g id="_2737083589152"><g id="_1599802675296"><path class="fil0" d="M17444.13 8273.61c382.47 633.68-34.8 862.56 260.06 1334.29 612.27-57.45 263.18 62.82 395.37-460.93 300.35 431.13 107.15 363.87 713.83 299.07-497.28 290.93-372.07 224.5-646.22 660.26l-127.2-288.21-571.49 139.84-346.01 682.47c52.16-452.16 285.58-554.53 163.08-1008.34-922.84-545.07-620.84 268.52-1331.6 205.45-295.53-395.95-33.62-598.23 388.14-485.44 591.79 158.25-124.04-192.48 1090.67 43.96 96.48-477.15 60.59-646.72 11.37-1122.42zm1854.67 746.86c9.07-184.1-37.2-176.71-32.89-435.45l406.63-154.98c-1.5 233.9 31.5 349.9 17.92 382.97-13.81 33.61-212.61 54.94-391.66 207.46zm1474.59 1087.48l-36.07-597.66c-329.11 196.66-120.93 92.91-360.82 327.31 264.05-330.66 652.23-913.3 783.53-1348.71-34.83 378.52-118.78 386.64-271.74 692.09-160.37 320.2-108.48 555.12-114.9 926.97zm-2379.04 555.68c27.37-660.55 340.69-466.96 896.64-826.05 363.85-235 654.59-526.68 899.11-891.7 373.49-557.55 866.93-2203.06 753.61-2780.98 258.05 1865.84-436.41 4183.67-2549.36 4498.73zm1834.85-3558.75l125.39 411.22-297.48 293.28-162.77-289.68 334.86-414.82zm-2137.49 1612.54l-204.45-444.61c519.78-270.62 544.59-134.42 1015.84-604.9 335.56-335.01 461.13-674.91 708.55-942.52-120.68 1045.56-611.09 1559.58-1519.94 1992.03zm2046.49-3164.26l278.06 289.47-160.15 434.46-286.4-255.59 168.49-468.34zm-1189.82-2433.24c-427.5-112.37-797.52-324.71-1280.1-205.26 157.4-373.28 448.6-285.83 779.39-450.98 434.83-217.1 241.02-485.75 455.2-822.03 192.24 541.82 98.84 916.96 45.51 1478.27zm-1504.25 5153.69l-186.16-177.88c-931.5-60.86-1835.11 19.78-2325.55 904.69 178.3 995.33 1126.75 1773.27 2056.32 1960.24 1275.57 256.56 2102.65-370.43 3078.04-814.39-405.81 543.22-1658.61 922.94-1721.02 911.93l-1260.24 34.64c267.83 555.71 1423.99 797.97 2040.2 729.23 398.79-44.5 686.38-220 1019.94-388.33 398.08-200.9 574-281.79 534.69-730.84-146.41 196.89-125.12 217.26-407.08 252.41 17.72-706.32 1208.9-227.55 1143.26-2061.54l140.91-78.26c252.94-157.59 227.51-111.74 263.16-411.26-294.22-231.3-274.44-82.88-572.62-228.56 523.28-1878.02-801.46-4989.74-1675.26-4872.12-2.58 246.7-55.49 457.97-14.95 551.55 80.03 184.76 282.7 235.43 315.79 315.47 16.38 39.62 14.53 199.96-25.47 413.65-287.38-150.3-321.93-185.83-340.08-218.79-18.4-33.42 43.01-254.78-24.4-475.01-133.42-183.97-242.15-49.4-560.86-273.64l25.63-496.88c363.46 117.05 189.47 190.81 624.34 183.65 118.67-914.8-570.54-2775.89-1451.77-2971.39 675.91 2664.78-1526.63 1543.71-1200.55 3036.02 377.34-368.87 998.65-255.41 1435.98-30.61 486.01 249.81 669.66 618.9 897.99 1111.79-246.97 246.99-402.97 371.98-368.01 783.85 168.64-230.21 75.91-117.75 321.05-123.46 783.72 902.18-501.62 2415.22-1076.45 2584.4 653.65-778.18-1187.56-1433.2-1029.95-401.12 509.38-15.26-55.57-177.89 358.55-122.23 164.27 22.07 136.33 34.22 178.48 203.66 84.44 339.42-119.94-10.79-193.91 899.13z"/><path class="fil0" d="M12408.45 9025.49l-280.36-304.18 170.05-413.49 271.46 340.84-161.15 376.83zM12188 7065.37l295.54-246.44c112.24 213.88 179.59 278.1 173.18 335.31-9.05 80.77-129.92 112.37-294.79 347.21L12188 7065.37zm742.68 998.08c5.62-951.5 623.6-2015.34 1603.66-2139.49l115.66 371.69c-123.19 106.1-1539.03 669.52-1719.32 1767.8zm24.18-1897.63c-3.79-8.04-72.06-161.73-56.63-381.15 127.91-105.17 234.7-118.15 358.47-142.03 13.25 187.67 19.43 235.83 5.73 302.84-39.13 191.26-179.61 76.68-307.57 220.34zm-1269.26-691.51c252.89-794.48-1.19-157.36 421.33-648.41l-421.33 648.41zm-85.23 2904.8c47.41-339.73-339.66-1642.05 391.52-2862.2 449.58-750.26 1266.25-1415.12 2177.87-1573.72-123.68 974.61-792.84 213.24-1795.27 1679.16-559.16 817.69-642.49 1801.53-774.12 2756.76zm190.41-4681.5c315.65 121.87 191.87-137.85 484.17 24.32-125.15 379-594.24 394.29-885.48 825.21-349.42 517.03-254.35 852.17-325.56 1448.63-517.26-134.02 418.59 180.82-117.51-95.36-11.96-6.16 279.64-140.26-185.98-10.46-49.05 431.29 115.68 444.35 520.01 517.03l178.89-561c-359.14 1730.88-525.09 2389.91 613.13 4419.24 253.12 451.28 522.1 872.1 1010.08 916.39 16.4-611.78-90.91-456.93-451.76-777.24 55.67-308.61-3.35-173.61 131.1-388.79 606.3 471.12-16.05 756.74 783.71 884.74-19.52-378.36-121.28-430.26-281.72-796.75 333.97-204.05 350.6-41.03 376.28-639.21l-222.14-10.5c-633.86-153.61-246.17-1056.49-92.26-1389.99 263.84-571.7 563.16-955.28 1123.67-1155.12-702.41 714.28 1031.03 1488.64 1005.57 428.23-675.82-8.4 122.01 213.59-453.13 104.96-189.07-309.74-187.69-384.33 49.68-623.49l58.13-175.2c-29.94-450.34-178.07-527.99-178.71-994.05-.67-476.99 213.92-573.67-305.18-653.22-109.99 134.17-59.85 84.79-118.71 267.56l-30.04 129.53c-2.36-11.86-5.66 42.05-13.89 61.32-425.37-406.83 39.53-335.6-716.59-294.68 499-242.72 388.86-381.47 663.07-655.77l66.95 231.9 611.7-90.24c89.98-346.19 97.13-445.75 391.87-656.97-110.31 375.05-248.89 418.53-278.63 914.71 360.14 295.41 495.05 378.58 902.09 64.49 124.22-95.86 539.16-484.42 577.27-25.42 15.24 183.5 20.54 210.08-127.25 303.91-324.29 205.88-226.87-58.03-658.98-8.08-456.53 52.76-393.95 18.68-760.14-2.53-128.16 409.2-96.36 840 57.95 1243.72 744.95 150.92 2673.6-137.08 2362.78-1119.38-181.31-572.98-1271.57-1929.21-1911.12-1478.73l-58.72-269.45c-732.77 34.73-1188.64.48-1904.88 247.62-461.04 159.09-923.72 520.87-1286.17 660.2 357.69-540.5 1183.49-692.67 1722.87-918.39-565.57-652.49-1855.42-676.18-2326.42 96.31zm3829.01 7588.13c-487.47 130.17-386.61 328.16-1128.32 105.65-544.09-163.22-484.04-336.44-884.06-532.69l18.73 545.84c470.13 415.76 817.26 234.86 1224.51 410.09-338.33 255.5-576.28 212.61-845.02 393.73-347.86 234.44-216.19 514.39-359.32 809.24-232.13-746.13 27.47-1026.95-154.89-1582.59l-536.97-106.47c-37.92 1103.57 504.12 2572.21 1491.6 3003.64-750.45-2714.05 1438.15-1551.12 1173.74-3046.44z"/><path class="fil0" d="M14192.63 3571.72l1256.6-48.37c-451.12-702.72-2117.89-1064.4-2726.95-478.56 515.57 36.21 701.97 57.7 903.91 148.16 144.98 64.93 299.5 142.03 566.44 378.77z"/></g></g></g></svg>