<svg xmlns="http://www.w3.org/2000/svg" width="320mm" height="150mm" viewBox="0 0 32000 15000" shape-rendering="geometricPrecision" text-rendering="geometricPrecision" image-rendering="optimizeQuality" fill-rule="evenodd" clip-rule="evenodd"><defs><style>.fil0{fill:#d7b56d}</style></defs><g id="Слой_x0020_1"><g id="_2737002449024"><g id="_1599866327472"><path class="fil0" d="M10685.89 14053.26l-240.07-.18c-6.76-68.17 64.31-125.28 108.08-175.29 114.98-131.4 314-375.26 486.96-406.87 220.78 162.69 230.3 457.83 262.92 558.84l-329.98 2.83c-12.91-75.52-20.77-128.51-58.11-188.45-221.31 3.39-200.12 154.43-229.8 209.12zm3410.2-287.82c51.57-127.44 481.72-389.99 632.77-360.44-28.19 78.28-169.25 200.94-243.72 247.09-166.58 103.22-203.29 91.5-389.05 113.35zm6464.36-996.54c69.26 75.51 160.6 270.09 190.56 376.92 61.12 217.81 2.51 344.3 2.53 545.64l280.45-5.52c71.68 128.52 141.82 551.06-108.75 478.23-34.78-45.8-19.63-64.79-53-118.05-21.41-34.18-41.94-57.52-64.02-96.09-203.18-28.86-114.02 102.97-217.18 159.24-6.17-106.77 54.04-280.36 85.2-388.72-114.68-159.26-235.8-94.53-262.17-412.51-14.18-170.95-4.62-433.7 146.38-539.14zm-4193.49-76.81c23.45-189.34-8.88-477.64 22.24-648.03 12.5-68.41 53.95-187.32 76.78-259.41 26.33-83.17 37.24-184.72 143.31-183.24 27.64 132.27-2.68 403.13-36.49 536.78-82.07 324.37 33.43 353.25 40.15 497.33 15.85 339.59-293.39 555.43-616.77 514.86-43.89-273.04 307.69-418.47 370.78-458.29zm3223.92-932.88c-60.22 6.54-34.87 5.38-87.19-25.85-48.68-29.04-31.09-16.09-88.21-34.02-32.13-88.72-58.77-136.63-47.03-237.06 106.13.3 195.21 206.86 222.43 296.93zm-7967.89-302.32c-13.78-80.05 48.82-180.8 102.67-234.49 16.71 46.85 8.06 122.9 4.47 179.12-55.01 14.5-75.93 13.81-107.14 55.37zm-328.94 1207.84c63.31-128.46 162.67-727.77 424.39-1104.85 28.43-40.95 50.55-110.29 68.19-130.9 76.45-89.35 72.4 56.57 170.33-210.75 23.62-64.47 46.36-85.73 62.06-121.29 26.26-59.52-1.77-110.36 71.67-309.95 109.51-297.61 179.11-526.99 326.43-819.85 52.58-104.54 70.25-180.84 189.68-91.42 69.35 51.93 146.55 112.11 201.11 180.4 126.11 157.88 110.94 410.58 3.67 579.86-45.41 71.65-118.41 146.52-175.69 205.67-55.2 57-163.84 136.48-154.65 212.21 135.55 6.61 229.35-40.18 342.24-49.58-218.49 236.46-478.69 378.59-767.16 515.55-29.6 197.46 1.54 306.92-165.8 470.81-68.15 66.74-144.56 68.01-170.56 152.36-26.03 84.41-41.27 170.7-65.57 254.23-74.63 256.5-37.36 347.43-180.52 460.17-101.32 79.81-249.5 259.88-400.44 211.11-3.48-44.65 109.73-428.13 134.6-461.47 52.53 28.32 25.29 40.37 86.02 57.69zm10129.33-6298.34c-42.65-42.78-32.72-54.73-32.75-54.8-4.72-17.88-29.07-261.8 29.06-324.84 1.07 57.87 14.64 123.35 16.44 186.58 2.15 75.53-11.38 125.86-12.75 193.06zm-423.65-532.85c50.84-69.19 50.51-104.47 127.57-190.2 46.69-51.95 89.83-126.53 133.95-172.96 106 240.55-40.63-1.51 88.69 405.82-94.22 73.29-49.78 65.82-116.75 158.36-21.57-121.55 12.8-248.42-50.53-344.73-41.17 8.12-17.83-12.89-52.79 47.31l-84.67 205.22c-20.1 105.04 34.03 259.15-15.51 343.23-127.58-84.03-120.85-361.4-87.36-505.54l57.4 53.49zm-4228.67-556.05c131.09 34.34 190.45 87.33 347.65 71.82 111.19-10.97 239.47-41.34 322.24-90.42 79.16 82.32 65.32 92.01 182.47 130.49-38.45 46.3-120.96 67.05-183.38 71.02-104.84 6.66-105.65-39.57-185.09-65.02-112.45 47.67-153.31 98.17-289.9 62.56-81.84-21.33-188.51-94.91-193.99-180.45zm-2197.74 1384.69c-55.67-146.55-83.27-200.57-88.31-366.21-4.83-158.86-57.87-217.36 79.76-339.99 100.09-89.18 106-568.25 153.84-730.54 51.83-175.85 138.02-768.67 409.13-713.1 78.94 16.18 71.22 60.59 108.96 105.51.9 1.08 241.1 136.88 278.19 166.13-27.43 116.03-119.08 159.58-117.94 288.7.83 95.3 67.58 199.42 105.73 287.83 57.64 133.6 105.41 36.5 167.32 246.18 19.57 66.27 49.43 87.4 60.16 139.74 14.06 68.5 14.28 132.73-20.46 179.86-145.13-41.81-124.67-275.76-299.02-253.63-60.49 160.52 63.64 157.33 43.82 284.69-17.98 115.54-94.93 53.58-92.46 278.46-91.41 83.82-144.28 48.18-129.35 172.35 118.72 57.45 163.56-20.86 260.63-17.11-2.38 123.78-194.44 75.13-242.71 144.32-33.38 113.41 21.86 435.53 116.66 505.94 100.52 20.61 201.9-27.56 233.24-125.2 59.55-185.48 26.92-93.43 150.49-216.63 83.03-82.78 363.87-227.48 357.75-358.31-27.32-79.64-140.31-142.81-14.54-261.09 71.24-66.99 145.54-99.91 107.05-226.33-34.73-114.08-306.72-460.11 32.58-450.11 96.04 163.4-63.8 217.36 1.26 325.21 73.46 40.6 121.84-38.93 136.67-102.56 17.75-76.2-23.62-173.22 78.42-185.67 107.09-13.06 100.21 96.54 76.05 170.58-29.1 89.11-64.28 49.69-102.83 156.19-22.04 60.9-141.02 352.34-139.7 389.68 4.61 129.8 189.31 197.69 275.37 36.91 39.04-72.94 26.08-99.59 88.4-186.73 138.96-194.3 86.09-157.22 315.71-171.72 777.2-49.12 595.11-247.25 735.1-321.7 69.43-36.93 96.12-81.85 160.68-76.34 6.26 27.15-161.17 549.33-181.15 637.5-71.31 314.56-85.84 416.7-41.51 743.37 60.15 443.28 238.33 843.63 446.34 1234.24 128.42 241.13 181.46 279.04 389.55 450.23 351.76 289.38 633.87 434.93 1015.27 664.7 84.9 51.14 171.95 104.18 255.71 156.94 151.17 95.25 89.86 106.88 285.97 79.03 8.76-225.01 81.08-497 64.04-717.5-20.33-263 7.29-480.97 35.72-739.38 33.58-305.29 190.17-575.04 404.09-789.57 106.95-107.24 100.39-131.46 273.71-111.51 14.78 172.56-91.76 206.31-231.31 382.66-217.88 275.33-619.28 1357.75-291.48 1387.88 73.69-100.42 82.92-541.67 157.52-637.82 40.98 213.25 21.88 989.25-23.85 1249.09-25.1 142.6-90.96 200.25-122.24 304.61 53.2 121.15 109.62 108.98 147.03 299.25 113.51 577.22 1.43 695.81-100.87 1149.93-52.55 233.31-18.03 559.75 35.96 793.06 73.69 318.46 43.65 354.19 157.4 732.05-527.82-11.47-683.78-475.07-698.81-926-150.7-118.49-241.19-288.69-309.08-468.62-112.1-297.08 138.04-326.81 189.79-539.75-32.46-33.38-51.02-50.48-91.96-61.87-76.77 42.14-171.99 160.67-260.98 121.67-45.37-72.36 16.03-189.9-27.71-259.55-165.88-79.86-167.36 197.13-235.93 285.57-86.03 110.96-334.26 73.04-396.3-21.49-45.1-68.71-87.84-322.2-98.02-419.7-19.78-189.24 38.03-311.57-29.37-486.08-213.79-22.66-98.15 146.23-142.45 278.2-54.87 163.39-281.84 342.16-426.95 425.83-141.92 81.81-511.02 93.96-190.03-215.37-24.77-45.38-39.1-79.68-87.45-106.04-73.57 23.47-152.27 116.39-240.96 140.51-97.79 26.59-222.24-10.45-228.52-120.58 146.07-15.07 219.09 45.63 377.66-67.7 93.51-66.82 168.36-181.45 152.86-304.75-120.85 10.27-379.04 63.88-441.28-167.95-70.44-262.39 177.78-796.63 129.64-1171.66-16.21-126.22-123.62-407.6-204.96-446.65-38.57 43.68-20.31-5.61-14.12 82.22 21.77 308.52-153.04 333.97-297.42 439.68 75.17 163.27 95.31 306.81-20.61 461.68-124.08 165.76-340.94 144.5-242.68 291.83 162.83 7.69 278.77-89.42 399.86-116.42-15.97 181.75-162.16 326.53-323.97 391.44-122.94 49.31-171.37 18.03-271.37 34.32-75.42 12.28-209.55 46.03-251.31 107.25 31.03 137.5 183.36 57.74 286.26 61.69 84.68 3.26 198.07 58.68 284.33 87.37 517.2 172.01-26.62 437.3-534.22 306.92-172.47-44.3-415.92 23.87-561.13-10.94 45.4-95.42 213-194.5 31.92-280.29-102.04 42.69-107.59 132.6-160.39 214.55-66.48 103.16-97.99 104.51-190.61 162.89-20.98 75.63-21.4 518.36-30.16 641.96-14.11 199.13-45.84 394.98-57.71 594.78-14.52 244.51-25.32 391.65-.92 639.48 12.85 130.63 9.67 124.93-91.34 216.01-56.6 51.04-137.51 104.71-217.28 102.57l-36.29-404.32c-174.64-7.89-250.06 482.27-465.03 460.43-37.55-88.53 58.08-484.44 98.07-593.04 68.99-187.33 138.48-303.84 228.42-475.34 229.3-437.27 233.26-669.6 230.85-1155.53-2.12-425.8-160.61-810.18 256.68-1093.12 138.03-93.59 62.47-72.58 129.2-220.25 73.3-162.18 193.9-276.81 350.75-353.93 85.17-41.88 193.33-39.29 264.97-70.61 48.51-131.12 57.56-306.9 134.32-430.29 120.33-193.42 241.93-144.74 227.55-318.97-72.03-9.52-248.32 76.11-304.96 118.82-146.93 110.76-152.71 198.33-196.31 231.12-132.65-193.84 454.6-405.17 556.31-497.64 145.39-132.19 285.53-263.2 454.8-356.39 44.9-24.71 123.51-64.07 155.47-101.01 7.43-86.13-22.87-91.47-96.43-116.98-72.7 34.63-133.82 119-215.16 119.61-5.79-122.42 255.39-413.72 342.49-507.97 68.51-74.13 135.2-150.44 206.47-221.52 57.93-57.78 178.55-146.23 132.69-238.12-83.64-167.56-506.33 10.13-613.01 78.26-413.44 264.08-627.26 437.59-777.36 918.12-89.54 286.64-288.53 239.3-370.81 470.95-52.16 146.84-9.08 172.67-102.65 325.54-234.92 383.8-368.12 391.76-633.3 615.55 55.85 93.72 72.97 57.93 148.54 106.72 74.62 134.46-16.8 368-202.84 293.42-106.49-42.69-142.75-236.89-4.68-394.8-68.46-41.63-131.61-56.23-201.61-87.62-142.91-64.07-514.87-298.97-526.33-302.77 1.9 110.34 7.91 84.8 68.79 166.13 95.66 127.79 162.38 278.3 213.08 428.31 108.15 319.97-9.05 627.39-179.01 594.99-168.88-32.2-60-207.87-69.81-315.11-14.13-154.49-130.37-144.69-196.84-232.1-118.45-155.76-57.56-332.15 33.62-481.98 43.21-71.02 70.78-55.17 102.46-113.87-15.6-81.92-130.53-107.76-142.48-287.95-42.49-640.71 440.66-603.38 485.78-769.82-5.4-102.84-107.94-198.26-85.92-406.89 19.4-183.77 105.02-204.38 161.65-321.11zm-868.44 652.51c43.17-140.41-13.95-296.46-50.8-429.05-22.66-81.52-13.54-387.22-4.85-482.29 59.83-655.01 289.27-1226.8 685.52-1745.84 64.97-85.11 145.36-232.4 262.38-212.93 43.54 76.5-28.99 569.73-41.71 691.81-13.86 132.91-26.45 575.17-94.71 658.09-88.17-123.65-89.04-798.19-99.09-823.29-19.9-49.72-86.29-54.33-105.87.95-7.7 21.75 1.93 301.48 3.44 345.96 7.19 210.84 40.15 1268.27-27.66 1393.02-90.94 4.21-91.31-74.31-128.2-166.47-109.09-272.44-3.06-461.85-128.89-449.17-75.11 7.57-98.51 117.7-115.23 179.24-50.48 185.84-58.94 329.97-46.54 523.13 19.35 301.7 59.12 308.97 87.38 493.16-135.24 163.32-196.73 199.63-268.1 421.54-59.59 185.31-42.17 408.49 31.63 587.16 49.38 119.53 104.41 118.02 44.48 237.68-128.57 256.67-6.04 428.51 7.89 551.67 24.77 218.87 103.72 179.42 82.15 239.19-103.69 114.61-137.92-48.27-178.43-115.48-64.79-107.52-179.33-113.26-180.87 31.34 61.48 44.9 78.18 12.74 90.36 91.99 7.04 45.82-9.83 11.68 10.83 79.41 50.87 166.72-5.03 125.37 71.84 188.07 46.24 37.72 62.53 33.79 69.84 95.65-212.73 4.7-453.03-193.17-562.92-398.19-67.5-125.93-359.26-120.65-434.16-530.45-19.5-106.72-12.64-172.75 16.26-274.72 29.51-104.09 72.41-133.32 105.17-209.11-82.05-106.95-193.49-120.5-192.5-325.5.56-118.68 75.06-277.01 191.23-303.56-13.51 198.9-22.56 326.22 32.71 521.11 24.28 85.58 109.56 349.69 195.73 372.93-23.74-202.11-36.92-353.14 8.44-557.87 79.12-357.16 104.17-212.41 38.68-473.68-110.04-439.08 263.86-805.88 376.24-774.15 14.11 78.96-1.88 101.74 27.98 189.56 77.62 228.28 79.49 406.9 220.35 379.09zM16396 5083.86c-226.69-7.73-365.99-347.07-399.15-400.84-27.89-45.22-296.29-93.55-437.37-171.87-121.17-67.27-98.92-360.94-45.01-475.95 172.7-368.45 256.69-79.53 442.16 15.18 122.57 62.59 211.3 53.88 309.92 91.12-48.52 257.5-38.19 244.36 58.85 474.29 56.78 134.54-69.3 63.4 70.6 468.07zm-341.02-1612.78c46.67-37.33 145.88-29.01 208.93-32.2 103.09-5.22 104.35-36.31 187.21 26.6 70.3 53.37 241.97 155.37 249.63 229.44-82.16 33.51-130.3-8.82-201.53-15.38-63.92-5.88-93.61 62.64-178.58 23.37-60.31-27.88-25.08-75.77-125.54-134.02-48.23-27.97-114.85-47.13-140.12-97.81zm-34.17-256.77c115.52-153.94 168.05-25.63 254.67-49.62 47.01-13.02 71.07-67.97 52.41-111-20.74-47.79-62.88-35.42-96.53-85.75-83.82-125.38 55.58-418.5 182.7-479.44 124.28-59.57 462.87 23.41 596.93 82.67 266 117.58 264.97 345.87 307.18 407.14 233.13-121.43 82.65-223.07 74.54-369.88 143.75-1.9 325.46 93.91 448.56 170.69 398.71 248.63 332.58 823.05 85.74 586.45-101.13-96.94-131.46-274.28-188.85-408.15-160.82-23.21-161.23 26.61-111.56 157.93 55.96 147.9 60.95 124.67 44.11 280.04-14.93 137.75 44.32 164.35 81.33 266.64 33.29 92 2.64 197.26 42.19 298.03l89.19 14.22c22.02-57.55 6.3-161.69 52.13-204.26 63.42-10.26 88.61 36.36 99.79 96.93-47.7 29.7-109.69 19.85-96.01 104.45 9.34 57.68 70.04 75.25 120.13 88.29 80.57 20.97 146.81 36.54 136.86 242.69-25.57 7.28-300.76-20.27-342.25 118.08-61.05 203.51 114.48 218.47 243.7 242.87 2.66 80.34-12.61 120.25-32.58 194.51-89.5 332.81-345.71-144.35-771.1 114.61-98.63 60.04-367.72 126.26-451.28-67.53-27.22-63.12-4.25-80.01 25.74-141.62-54.74-34.18-76.77-21-99.95-89.48-39.61-117.04 18.24-19.48-87.17-108.63-90.7-76.71-87.4-220.28-35.83-300.01 122.87-189.98 465.58-187.99 557.35-236.1-7.63-151.02-119.4-196.22-196.66-309.09-176.26-257.5-183.74-414.38-583.07-451.7-99.38-9.29-323.34-13.94-402.41-53.98zm2233-188.58c319.78 103.13 498.01 191.59 796.56-24.9 243.6-176.64 302.18-431.19 344.87-720.55 19.01 25.08-.31-11.68 14.93 30.34 127.94 352.74-84 773.79-346.66 994.08-299.61 251.3-673.66 161.35-745.15 3.7-35.4-78.08-71.57-194.65-64.55-282.67zM15036.23 957.48c-1.71 38.78-110.14 219.08-133.5 282.09-113.79 306.93-198.6 733.58-74.86 1038.55 59.47 146.57 228.26 393.55 352.31 487.18 59.58 44.98 260.35 107.91 284.11 130.69 68.32 65.52-118.66 180.03-169.13 201.34-198.08 83.64-460.7-57.09-577.3-221.32-95.43-134.44-131.97-539.77-120.62-704.9 25.51-371 31.21-660.3 250.53-1001.99 69.02-107.55 42.19-193.27 188.46-211.64zm4822.51 1828.94c-40.51-43.73-71.91-200.13-96.74-279.41-36.05-115.09-28.63-152.88-83.48-267.61-185.22-387.45-380.19-849.51-638.49-1163.2-54.66-66.36-122.19-126.81-162.84-191.15 178.31 39.77 589.84 529.17 705.78 733.92 270.02 476.84 253.98 610.07 275.77 1167.45zm-5392.84 124.42c-160.25 46.71-206.56-613.19-202.99-723.8 14.93-462.94 236.82-997.72 569.73-1324.48 118.9-116.68 418.61-328.63 584.89-332.73-.76 1.26-132.85 123.71-150.93 140.86-57.12 54.18-86.7 110.66-140.7 162.38l-24.56-67.45c-162.47-14.43-191.93 79.17-240.83 201.09-50.86 52.74-123.91-68.84-292.78 335.03-66.01 157.89-108.06 306.98-133.53 476.26-31.74 211.01-7.37 358.01 7.7 564.08 8.04 110.04 52.45 490.57 24 568.76zm-404.22-194.59c-69.83 21.12-381.98 65.99-372.31 229.44 3.41 57.66 70.51 155.76 112.56 189.96 84.84 69 138.63 50.57 220.16 84.09 221.84 562.5 165.05 343.67 279.54 516.47 51.76 78.13 60.7 87.39 137.52 137.15 154.76 100.22-8.33 210.97-91.91 308.41-464.15 541.13-859.73 987.82-968.81 1733.12-12.34 84.37-27.42 447.01-53.35 482.62-1.96 2.68-245.98 172.17-304.27 230.77-110.24 110.81-139.75 193.58-211.14 323.07-228.35 414.2-569.41 445.32-605.41 1013.59-9.79 154.61 3.5 338.67-.42 502.2-4.4 183.39-5.58 364.34-6.22 547.69-.57 163.44-17.4 366.94 17.38 521.98 28.67 127.78-56.56 277.32-104.81 398.37l-361.23 982.99c-34.93 106.99-73.79 80.5-125.65 148.15-6.6 8.6-155.23 324.58-172.79 363.11-40.45 88.77-33.83 123.45-43.35 215.82-19.6 190.21-473.06 1024.2-534.36 1359.18-53.97 294.94-59.88 129.64-221.69 313.64-71.23 81.01-160.41 233.31-221.39 328.95-91.31 143.19-307.6 373.5-166.37 526.18 93.51 101.11 549.75 25.34 744.29 33.45 149.69 6.23 391.7 32.48 532.67 15.73 11.19-241.43-4.96-431.76-14.72-670.15-11.17-273.05 257.09-791.2 418.12-1019.04 102.25-144.68 219.29-258.85 323.71-409.6 58.12-83.89 228.07-437.89 257.78-461.42 134.65-106.67 273.93-183.31 412.01-305.84 144.91-128.6 614.23-680.19 744.29-712.7 82.64 35.84 155.54 122.51 263.08 170.11 161.81 71.63 471.71 143.41 573.13 282.71 82.22 112.92 159.06 119.99 250.25 193.1 11.64 144.61-220.48 501.32-278.53 672.52-80.74 238.09-91.92 670.83-142.89 804.59 165.73 26.75 349.4-34.91 511.61-33.24 180.71 1.85 298.99-3.09 449.12-107.91 333.88-233.1 85.09-420.15 182.22-916.34 4.01-.6 10.28-4.36 12.17-.04 1.85 4.24 9.39.04 11.93.5 22.68 4.19 7.71-.99 33.59 8.31 136.16 48.93 275.66 186.85 313.28 326.91 130.15 484.59-181.79 598.42-583.73 840.02-308.54 185.47-626.98 364.85-948.71 517.73-284.99 135.43-436.15 239.93-617.56 483.82-118.7 159.57-425.16 520.86-382.08 703.95 102.42 36.66 535.87 4.39 686.39 4.07 276.71-.57 431.46-1.09 616.44-230.35 363.25-450.2 362.67-653.88 941.78-893.38 416.14-172.11 1040.54-125.71 1195.97-633.32 84.38-275.61-71.64-274.35-14.36-808.16 35.66-332.37 54.06-428.43 249.69-670.31 127.87-158.12 374.5-293.27 568.03-349.41 230.15-66.77 500.53-9.6 711.84 94.89 1016.14 502.49 943.67 781.87 1467.43 1282.6 68.49 65.47 354.35 458.89 377.71 538.83 38.96 133.29 40.09 219.18 90.98 366.69 51.05 147.95 42.78 260.98 42.76 412.18-.05 299.68-65.11 165.81-105.64 350.45-24.34 110.88-29.42 327.89-5.67 436.13 216.37 18.9 427.02-.46 650 21.35 162.39 15.89 415.89 65.88 574.2 38.44 11.37-131.1-18.08-482.07-62.72-610.48-57.17-164.46-163.48-304.14-246.31-455.64-78.1-142.88-143.03-321.12-215.13-472.35-79.82-167.42-164.54-301.06-221.78-481.94-75.54-238.72-183.02-975.85-158.42-1215.64 23.98-233.66 118.37-319.98 161.75-527.77 60.39-289.33 16.89-616.78-89.29-889.87-44.64-114.8-86.34-133.68-38.65-259.99 82.22-217.73 118.33-326.7 137.1-563.71 30.85-389.41-81.34-998.01-3.86-1336.75 35.67-155.94 339.94-422.35 451.08-588.15 37.89-56.53 117.99-126.03 168.16-184.04 236.79-273.82 506.11-552.81 436.36-951-72.97-13.41-94.32 40.29-142.27 85.04-53.7-250.98 13.63-518.32-25.6-786.39-44.34 3.32-63.7 44.34-112.92 68.99-18.01-95.88-25.57-169.7-8.64-268.29 13.27-77.25 29.51-191.98-37.03-247.61-181.97 125.81-105.71 395.38-272.9 571.18-67.24-43.89-61.78-111.57-167.25-115.96-13.01 20.51-159.23 399.68-169.39 441.83-38.09 158.1-41.8 427.17-41.4 594.34.51 211.41 79.16 324.77-77.22 509.76-70.51 83.4-216.35 164.55-330.61 295.34-66.34 75.95-196.06 284.81-235.73 377.32-93.16 217.28-52.11 318.42-102.78 522.03-107.17 430.58 24.99 635.23-62.62 1168.28-143.04-51.21-1001.38-565.47-1151.82-673.88-464.93-335.02-585.75-533.22-778.89-1071.67-82.68-230.53-149.28-495.39-179.1-738.34-64.96-529.39 136.1-997.47 311.81-1490.63 40.24-112.94 85.81-225.03 117.36-340.96 77.15-283.54 87.31-131.53 186.55-288.4 108.93-172.14 305.78-36.77 668.68-248.52 186.25-108.67 350.54-269.3 455.54-458.55 81.49-146.9-1.96-251.86 87.46-371.85 74.3-99.71 124.37-164.36 177.77-280.18 50.41-109.31 75.56-235.07 126.25-332.23 69.4-132.99 99.81-203.39 115.93-356.73 40.87-388.86-272.86-1016.24-513.35-1321.29-209.82-266.15-765.21-760.61-1122.7-684.65 7.21 96.99 164.42 190.03 225.92 268.4 74.27 94.67 163.3 182.88 241.7 277.52 120.01 144.87 313.97 493.96 347.24 676.43 10.06 55.12 7.45 431.42.74 498.27-16.01 159.59-43.92 260.96-115 403.53-54.86 110.02-162.81 195.02-275.5 241.47-156.27 64.39-274.2 9.3-428.03-36.09-174.56-51.53-208.72-37.3-344.59-159.54-137.46-123.67-505.51-334-691.6-329.46-212.23 5.17-236.69 41.07-436.33-40.03-295.1-119.9-573.93-86.27-873.17-5.64-323.37 87.12-613.69 71.32-686.21 92.37-65.58 19.03-99.95 63.28-175.16 74.08-156.69-99.72-248.13-514.79-244.33-697.83 9.05-436.64 335.48-951.77 661.35-1228.23 92.23-78.24 425.44-382.05 440.54-486.77-51.09-37.69-136.25 20.91-193.58 45.26-473.71 201.17-965.14 300.1-1294.12 738.63-323.11 430.7-516.64 986.86-515.41 1526.93.2 90.75 25.91 201.66 7.86 285.23z"/><path class="fil0" d="M14725 7439.54c-40.33 18.55-73.73 27.45-116.7 40.86-50.69 15.83-8.21 7.14-58.72 14.08-49.06 6.74-23.88-9.26-85.63 12.47 39.78 80.08 177.47 190.9 247.12 325.13 53.07 102.26 88.37 355.21 103.91 478.24 7.98 63.22 8.75 193.48 54.54 234.41 56.69 50.68 163.66 11.8 195.69-39.59 70.8-113.61 59.02-392.67 89.93-506.83 94.74-89.54 165.28-92.54 248.56-239.57 132.32-233.57 19.93-55.88 241.47-248.85 200.2-174.4 325.86-354.94 321.55-642.3-194.9 1.39-104.25 37.63-357.18 241.11-50.19 40.39-123.24 92.14-181.34 123.83-64.2 35.01-155.3 55.51-201.98 101.2 30.79 119.51 2.89 159.76-33.86 260.99-47.22-56.9-19.01-146.3-64.64-240.36-55.75-114.91-51.66-135.72-60.46-264.61-5.34-78.23-7.02-44.86-47.99-99.54-46.25-61.72-17.3-59.28-38.84-132.32-6.77-22.94-109.87-198.71-116.85-202.99-37.63-23.05-183.69-.33-127.54 127.99 80.78 184.59-110.92 285.55-119 464.48-2.97 65.75 82.1 127.9 107.96 192.17zm2113.18-3213.78c-89.72 208.79-38.58 270.36 115.09 372.39 116.45 77.31 381.23 36.24 174.7-373.07-99.34-22.87-184.39-21.79-289.79.68zm-1165.6 4993.73c75.27 551.86-118.74 537.64-140.13 692.49 311.09 75.86 424.3-423.23 334.19-577.07-54.28-92.69-80.67-135.16-194.06-115.42zm-589.99 2725.83c-2.11-200.3 96.88-277.92-2.56-463.37-218.58 19.17-134.66 152.76-232.25 317.65-41.9 70.78-130.23 89.97-99.95 192.12 23.37 78.83 136.02 67.04 206.73 44.72l-1.69-88.07 129.72-3.05zm5214.64-2688.97c81.9-96.48 92.52-423.74-44.11-422.16-102.35 1.19-72.44 170.3-61.66 239.17 13.6 86.95 19.63 158.18 105.77 182.99z"/></g></g></g></svg>