<svg xmlns="http://www.w3.org/2000/svg" width="320mm" height="150mm" viewBox="0 0 32000 15000" shape-rendering="geometricPrecision" text-rendering="geometricPrecision" image-rendering="optimizeQuality" fill-rule="evenodd" clip-rule="evenodd"><defs><style>.fil0{fill:#d7b56d}</style></defs><g id="Слой_x0020_1"><g id="_2737072086672"><g id="_1599863480144"><path class="fil0" d="M20220.2 10955.42c830.05 713.75 1284.59 1032.39 1567.89 2113.52 132.31 504.91 283.86 1146.87-281.33 1015.19-499.74-116.43-851.89-339.07-1308.41-570.39-769.86-390.06-1644.17-1267.31-1897.02-2097.77-163.46-536.9-26.21-1033.3 471.84-1041.18 476.89-7.54 1093.04 276.26 1447.03 580.63zm-15800.17-838.41l-225.49 15.08c98.51-251.42 756.5-589.29 1072.91-757.82 144.25-76.83 152.06-171.16 53.9-298-193.59-250.27-253.85-474.1-208.28-829.96 42.34-330.56 90.08-659.65 199.09-986.5 283.36-849.63 786.57-1695.34 1499.07-2232.4 249.58-188.14 454.34-345.64 724.76-510.87 606.35-370.47 1185.24-570.6 1882.2-743.9 88.5 206.88 15.98 598.65 608.49 968.39 793.79 495.34 1765.72 161.21 2087.81-756.44 469.55 148.35 1047.52 850.81 1272.24 1324.45 230.66 486.12 620.53 1514.99 526.41 2049.55-68.72 390.37 31.04 1240.83-516.69 1608.44-313.95 210.7-555.74 407.88-847.37 635.41l-606.19 505.86c-256.81 235.63-1126.19 1103.55-1278.72 1340.78l-552.23 881.04c-121.09 205.56-265.21 188.94-486.52 254.87-650.4 193.75-1117.07 243.66-1782.99 243.62-394.82-.02-839.95-60.33-1232.01-137.89-580.91-114.94-952.24-313.71-1292.68-585.9-303.92-242.99-590.38-540.59-866.27-951.49-225.21-335.39-308.56-398.42 15.69-839.24 53.06-72.12 143.92-209.86-47.13-197.08zM25693.4 6595.59c-44.27-60.69-22.54-55.19-73.02-124.68l-297.96-319.83c-143.33-132.45-495.56-402.31-675.68-456.03-935.63-335.85-1715.09-196.92-2537.42 394.03-410.78 295.23-870.53 1004.07-1016.98 1501.76-108.98 478.63-125.97 760.28-125.97 1259.62-156.46-37.23-281.34-136.46-435.62-182.21-1012.21-300.12-1893.5-190.86-2451.41 779.9-218.6 380.33-242.68 1117.81-172.95 1523.05 9.66 56.14 26.42 151.85 38.3 206.36 85.29 396.57 328.81 860.86 621.42 1235.47 242.5 310.45 552.9 542.93 766.93 779.86-595.32 138.45-1358.93 280.57-2140.71 277.82-746.77-2.6-1390.91-1.03-2119.67-225.56 55.31-109.68 304.06-286.25 421.24-377.46l708.94-650.24c701.32-696.18 922.71-941.2 1352.56-1785.86 123.58-273.46 202.49-504.03 299.98-789.33 49.52-268.22 135.1-501.95 146.4-791.02 37.07-947.4-294.12-1600.35-841.6-2348.13-312.35-426.63-715.77-717.7-1008.73-1165.93-736.78-1127.28-808.17-2368.23-311.02-3588.02 33.93-83.25 132.2-301.05 180.81-362.84 108.88-138.39 606.25-247.79 792.92-294.48 883.57-221.02 2291.21-357.23 3231.61-191.54 1039.26 183.08 1834.47 458.91 2729.67 1051.53 457.16 302.63 1363.13 1137.41 1676.2 1585.81 317.19 454.3 589.24 855.32 797.98 1376.63 272.19 679.73 334.7 905.66 448.57 1580.62l-4.79 100.7zm-11582.8-4599.1c-426.19 271.81-1047.21 755.74-1416.18 1091.09-70.24 63.84-180.53 193-255.34 252.4-170.88 135.69-175.48 192.29-254.74 180.29-45.67-286.71-78.61-399.69-297.38-714.7-157-188.4-478.12-434.29-772.96-465.99-58.28-6.27-163.89-31.37-208.35-33.32-181.85-7.97-428.97 63.15-591.85 144.39-285.48 142.37-357.61 274.57-540.89 495.97-214.07-55.49-546.79-232.01-946.82-38.37-374.92 181.46-467 483.24-597.47 843.58-43.46 120.04 35.07 108.49-188.53 181.48-555.86 221.77-1206.67 705.46-1596.9 1022.67-140.6 121.87-239.92 216.83-367.74 348.92l-370.08 494.85c-448.2 591.13-1030.88 2213.46-829.37 2977.14 29.67 112.42 133.49 341.84 142.44 414.15-72.15 55.18-109.51 50.56-191.33 104.16-72.82 47.72-112.29 58.07-188.02 108.54-294.01 195.91-592.8 416.55-804.35 703.11-72.22 97.8-116 55.12-226.15 95.12-88.72 242.78 157.28 432.11 298.97 580.88 57.74 60.64 79.96 137.75 115.67 205.58 52.62 99.94 164.87 294.96 230.78 387 256.13 357.67 563.14 661.76 900.51 952.92 864.51 746.08 2083.98 802.95 3155.9 771.6 89.04-2.6 200.14-10.93 265.65-12.46 256.86-6 1060.45-160.04 1342.46-160.04 1.2 513.87 182.09 851.32 555.56 1174.21 143.65 124.21 463.28 275.67 745.12 352.77 235.02 64.3 599.85 79.11 994.53 22.45 1105.04-158.62 1572.84-423.26 2461.51-972.03 69.97-43.2 375.8 31 467.97 55.32 1230.52 324.83 2884.53 248.04 4103.71-29.07 166.6-37.87 286.06-129.69 458.69-34.84l791.16 419.54c398.9 199.37 861.71 433.5 1309.56 456.24 234.13 11.89 440.44-7.97 655.99-146.72 60.39-43.37 470.39-325.1 819.83-560.53 341.84-230.31 907.02-747.2 1274.43-1175.06 240.48-280.06 556.34-711.03 727.63-1025.24 294.12-539.51 587.28-1106.6 706.02-1718.18 96.36-496.27 169.88-860.91 180.16-1385.88 7.34-373.13-32.47-969.91-63.25-1363.22-18.06-230.97-69.6-496.84-112.77-727.23-138.47-739.03-675.46-2036.6-1094.69-2619.89-231.66-322.33-503.01-640.52-695.69-877.92-221.27-272.61-648.74-600.83-921.06-833.54-786.78-672.32-2010.25-1172.05-3045.68-1324.27-1337.16-196.57-2650.79-120.11-3951.78 319.57-525.33 177.54-1747.76 790.15-2174.88 1062.56z"/><path class="fil0" d="M6862.29 9176.3c186.42-20.89 560.29 133.37 580.46 255.67-160.04 12.07-655.86 49.66-660.56-171.99-1.45-68.52-1.55-74.53 80.1-83.68zm-512.66-1112.98c-133.99 330.53-256.7 675.59-298.89 1025.49-27.83 230.69-56.35 298.09 120.54 567.55 123.07 187.46 290 318.34 471.34 443.02 447.21 307.41 1550.17 467.29 1939.4 58.79 456.66-479.3-70.16-1582.19-393.38-2024.47-180.75-247.29-765.26-712.36-1062.68-780.46-44.48-10.17 2.03 7.74-39.51-5.88-183.48-60.19-308.84-25.3-401.57 57.91-139.37 125.1-261.47 476.05-335.25 658.05z"/></g></g></g></svg>