<svg xmlns="http://www.w3.org/2000/svg" width="320mm" height="150mm" viewBox="0 0 32000 15000" shape-rendering="geometricPrecision" text-rendering="geometricPrecision" image-rendering="optimizeQuality" fill-rule="evenodd" clip-rule="evenodd"><defs><style>.fil0{fill:#d7b56d}</style></defs><g id="Слой_x0020_1"><g id="_2737072031152"><g id="_1599802649216"><path class="fil0" d="M14858.08 9820.17c783.34 320.51 640.48 407.87 1560.36 275.75 275.9-39.63 956.39-5.71 1429.32-55.37 163.86-17.21 291.11-94.77 409-106.17 299.59 423.17-335.54 1336.33-1707.91 1203.35-237.29-22.99-1008.73-177.41-1161.63-344.25-80.56-87.9-279.73-628-373.53-774.64-51.61-80.67-119.71-113.99-155.61-198.67zm-550.06-434.95c88.3-38.55 250.32-105.79 337.65-100.17 69.04 143.07 16.73 224 121.64 423.66l-459.29-323.49zm4698.1-630.44c8.92-87.25 72.37-247.35 112.98-330.1 55.82-113.75 162.53-114.59 281.5-155.67 784.29-270.83 720.79-302.73 886.46-81.2 71.37 95.43 105.89 148.84 163.93 253.76 105.97 191.61 238.27 346.19 338.98 516.84-285.48-67.05-521.03-145.55-829.91-180.9-350.54-40.1-645.19-1.3-953.94-22.73zm-450.75-90.51c95.85 136.77 229.77 3.15 93.03-109.82l132.65-49.2c-11.53 12.5-24.53 19.03-27.07 28.13-29.53 105.75 84.91 106.35 110.19 100.82l-20.69 142.62c-132.88 37.26-343.58 19.92-438.49 103.41 70.01 65.11 84.91 34.24 186.06 36.96-44.55 30.54-69.04 66.99-66.45 97.18 2.91 34.07 98.21 91.09 132.18 20.44 13.23-27.5-4.07-47.35-7.97-135.92l157.41-12.44c25.15 116.97-36.96 271.5-86.84 368.19-137.2 25.57-125.75-46.21-252.77 22.12 71 97.08 76.09 35.96 174.98 87.08-37.34 306.25-457.61 313.35-672.06 202.56-266.96-137.92-198.65-548.18-137.38-786.35 58.5-227.37 45.01-165.03 225.95-288.31 635-432.61 691.15-302.91 634.77-949.75 139.49 140.89 166.84 403.23 187.7 594.44 36.11 330.71-150.1 245.77-367.7 398.03-53.27 37.26 2.36 72.52 42.5 129.81zm703.92-479.67c12.75-92.52 213.82-448.53 307.96-485.36 130.21-50.93 429.54 134.16 490.74 221.86l-798.7 263.5zm-801.76-3753.92c-25.48-192.27 204.3-172.16 157.93 13.07-81.5 36.57-78.29 38.53-157.93-13.07zm-360.83 512.57c-101.14-109.41-22.47-270.13 1.69-422.92 124.9 96.36 192.09 321.74 470.81 194.8 228.33-103.99 182.12-319.06 174.96-520.81l112.9 50.33c89.34 501.32-498.72 981.68-760.36 698.6zM15317.51 1052.4c230.02-348.24 1448.57-191.63 1810.27-103.99 244.1 59.14 569.39 170.45 795.39 276.88 167.39 78.82 562.77 384.96 680.83 386.69-5.62-131.61-39.66-112.11-110.59-206.51 96.78-287.48 541.26-461.89 828.31-538.54 426.7-113.94 717.67 1.55 880.12 399.8 138.62 339.85 192.95 831.69 149.64 1201.86-31.34 267.63-148.38 855.15-467.91 904.76-159.96-89.49-343.48-417.54-511.27-521.61-7.94 164.13 497.62 891.34 594.73 1131.84 186.74 462.44 226.19 1079.63 205.92 1575.93-27.45 672.24-20.21 826.8-384.97 1391.58-133.23 206.28-616.67 900.49-776.33 994.88-77.52-187.03-70.24-442.31-251.31-555.83-184.21-115.49-104.48-147.68-255.27-524.61l-505.39-1090.77c-106.05-197.74-274.12-316.78-28.12-456.58 351.53-199.77 732.37 45.66 1005.38-590.77 113.29-264.11 29.28-395.8 249.68-545.41 50.61 439.39-128.93 844.32-461.05 1119.88-75.52 62.66-263.54 154.19-309.33 229.72 300.72 49.05 649.13-317.26 758.31-566.97 127.6-291.81 129.3-549.08 165.7-843.34 16.05-129.83 65.29-144.96 54.13-257.64-214.05 13.77-168.52 192.83-628.01 136.22-246.05-30.31-477.09-19.66-645.2 173.73-240.47 276.65-491.19 829.39-462.01 1197.42 52.3 659.7 1049.34 1903.57 840.24 2474.42l-648.09 268.08c-347.77 187.01-370.04 99.92-746.82 59.89-425.47-45.2-982.89 58.26-1270.5-63.7-131.89-55.93-189.79-162.68-289.58-161.77-7.23 237.18 113.49 392.77 325.6 468.43 205.53 73.32 434.36 148.09 657.41 182.05 729.34 111.03 1013.2 50.21 909.67 722.26-43.06 279.55-829.19 507.59-1068.82 580.04-465.79 140.84-981.32 173.86-1316.85-205.17 279.05-164.54 612.07-200.95 666.07-322.05-247.5-11.95-519.27 193.35-753.34 217.03-75.36-89.06-175.62-256.41-178.53-368.84 182.52-63.3 762.02-142.38 851.4-203.29-65.22-61.82 14.4-28.08-102.16-32.35-122.48-4.48-709.79 124.92-804.81 119.86-59.7-120.66-93.62-354.64-90.61-486.12 388.85 10.98 700.33 139.47 914.87 170.95 126.89 18.61 45.47 30.85 117.52-18.63-100.17-148.4-837.19-262.39-1045.79-291.56l-49-244.88c-53.06 62.11-43.84 121.78-50.63 204.75-96.97 41.85-687.9 2.47-862.43 12.18-221.52 12.34-619.96 42.93-803.94 139.71l43.01 19.92c127.92 29.45 1085.33-123.32 1604.22-6.17 4.78 67.59 50.97 534.15 49.01 549.04-440.98 236.55-552.19 86.48-751.85 17.4-673.46-233.04-1223.66-386.99-1828.73-783.27-167.13-109.45-158.19-140.02-330.43-43.88-249.78-167.67-408.26-451.13-566.58-703.76-133.72-213.4-137.2-111.66-203.93-364.65-144.06-546.17-213.88-1805.94-196.87-2397.78 4.26-148.24 47.26-514.41 27.33-624.72l-151.25 133.83c-3.55 3.92-8.28 9.96-11.77 14.04-58.14 67.95-7.85 55.13-78.12 88.13 6.55-118.2 39.71-174.1 62.43-273.69-138.18-42.52-28.64 25.9-142.59-8.34-52.41-180.41 81.08-169.45 173.63-270.39-102.6-114.76-139.13-98.42-271.96-161.05 99.09-104.37 239.66-157.81 372.14-199.85 109.44-34.74 341.26-75.3 378.59-186.5-117.15-81.97-369.53 28.64-724.18-239.8-173.86-131.6-398.61-291.28-581.63-411.25-719.4-471.61-1161.41 326.91-1115.83 479.24 120.82-37.64 19.98-81.34 139.36-87.9 63.03 687.21-76.12 553.15 193.7 1463.07 101.89 343.61 384.6 769.71 699.56 953.63-98.74 23.45-454.74-341.7-504.73-388.06-724.58-671.68-726.66-1891.73-367.49-2762.82 292.32-708.98 811.26-186.65 2007.3.19 820.31 128.14 710.91-44.85 1317.59-431.39 776.43-494.68 2530.17-1381.8 3299.77-533.17 69.51 76.65 369.71 464.71 409.25 480.48 11.79-336.66-443.6-744.48-531.48-860.44zM10507.5 14677.8c458.93-304.9 399.99-2065.5 734.32-2358.71 109.59 132.7 336.09 483.62 439.1 553.18 91.79-179.44-217.79-589.55-294.47-793.51-153.98-409.59-331.3-1057.92-426.4-1476.32-103.19-453.98-476.63-2408.53 105.61-2543.12 518.99 503.11 1294.39 814.78 1981.61 1078.62 130.93 50.27 665.3 261.04 731.15 315.1-200.28 135.32-849.41 396.9-935.22 587.34 122.05-22.98 684.67-341.18 854.52-422.24 341.61-163.07 280.74-116.26 796.27 250.31-161.52 154.07-809.26 542.19-843.1 728.85l930.4-638.91 447.84 616.41c172.04 267.34 181.42 433.19 512.44 564.57 559.84 222.2 1205.07 364 1803.94 272.87 78.82-109.3-30.58-44.45 59.95-99.41 7.73-4.7 142.62-59.33 161.92-67.14 299.9-121.46 621.45-253.72 788.24-550.88 383.51-683.3-21.45-727.71 267.3-1010.54 91.45-89.57 126.79-181.63 193.3-277.73 328.25 38.03 1134.74 397.94 1437.73 595.85 113.12 73.9 348.14 253.05 460.07 276.55-62.79-266.66-1042.36-732.33-1306.75-819.83-150.93-49.94-411.05-108.86-530.53-162.38l119.93-419.27c375.32-57.38 1781.71 40.2 2015.79 338.25 228.34 290.71 1047.94 1058.48 1424.97 988.22-24.34-95.13-537.29-470.91-718.83-648.98-138.42-135.79-538.66-596.1-629.66-750.51 1171.12 356.54 2374.39 782.76 3177.74 1754.67 115.08 139.22 671.12 977.23 685.66 988.52-38.52-724.43-560.84-1435.89-1121.33-1860-682.03-516.09-1209-741.92-1982.67-1075.07-464.16-199.88-1604.99-521.98-982.12-783.34 92.81-38.95-184.77-6.75-324.47-124.78-107.05-90.43-151.84-409.4-200.3-563.59-75.34-239.74-47.82-407.05-20.86-650.63 40.19-362.92 132.07-1124.03 64.34-1453.76-39.17-190.72-113.81-360.19 130.26-403.42 448.44-79.43-807.18-430.44-291.06-1216.76 411.59-627.07 413.04-1812.2 17.09-2446.07-254.45-407.37-727.45-303.68-1115.19-193.92-413.07 116.93-744.55 370.08-1185.41 225.73-941.32-308.23-1700.18-411.91-2692.55-237.22-1173.65 206.58-1099.09-71.44-2432.56 622.03-281.49 146.39-706.36 372.77-951.89 563-474.05 367.27-546.46 383.96-1172.36 251.98-406.51-85.71-807.15-242.94-1223.22-294.99-565.97-70.81-710.76 151.04-866.32 644.58-238.31 756.05-228.74 1856.5 195.47 2548.02 240.6 392.22 427.82 484.95 794.45 724.29 466.53 304.56 742.07 91.81 760.24 775 14.33 538.8 148.6 2282.08 205.65 2857.58 45.16 455.58 102.99 877.69 190.73 1327.22 106.03 543.33 248.7 711.35 177.28 1310.87-53.65 450.3-110.1 891.34-178.7 1339.77-65.93 430.82-174.36 829.54-239.34 1243.65z"/><path class="fil0" d="M14369.34 4906.99c121.88 211.13-226.45 191.49-145.23-9.29l145.23 9.29zm-864.75 83.62c135.42-58.47 205.29-231.5 432.27-227.97 8.17 191.54-14.32 297.97 74.01 411.87 90.3 116.42 157.45 141.78 294.39 74.02 112.25-55.55 173.36-164.75 242.97-302.59 27.41 79.79 121.56 82.16 156.02 220.72-97.47 231.73-425.7 347.69-676.54 266.53-166.64-53.92-444.83-280.9-523.12-442.58zm-976.96-93.03c341.02 84.7 50.96-97.19 425.55 381.35 115.4 147.41 227.08 322.48 340.05 471.13 224.19 295 849.06 588.18 1187.41 410.48-82.32-75.2-230.47-9.45-547.18-136.28-551.25-220.73-750.32-831.89-976.52-1019.56 663.09 335.7 423.38 448.2 761.48 610.04 437.71 209.53 784.34-27.13 1206.52-5.82 59.62 106.64 89.28 335.41 113.25 463.97 42.78 229.45 79.45 252.55 21.85 483.44-44.65 178.92-195.67 878.04-137.18 999.98 147.99-186.05 150.65-542.82 236.68-743.94 35.44 63.45 157.72 586.61 316.65 882.64 57.47 107.05 12.05 67.81 98.6 96.62-4.72-41.59-255.42-1010.22-315.18-1362.76-59.32-349.88-159.27-1092.8-321.02-1380.41-568.41-1010.62-1289.91-414.25-1707.42-290.25-212.25 63.03-663.99-65.44-703.54 139.37zm2232.07 8224.13l374.79-135.08c-5.9 213.83 33.32 419.78 81.08 617.35 110.49 457 234.6 366.44 262.2 420.69 16.92 122.97 32.08 159.99 67.8 273.17 45.02 142.65 24.75 195.12 106.93 250.49 75.93-155.69-53.06-633.41-92.82-810.1-134.81-39.9 7.01 40.67-124.83-13.28-110.41-500.65-94.21-386.51-13.18-898.25 33.63-212.45 36.21-187.21-103.37-260.2 115.28-168.73 264.79-666.32 285.44-871.24 20.39-202.5 11.45-106.21-45.95-155.21-249.58 776.58-779.27 1388.52-798.09 1581.66zm-978.15-9392.93c62.64 85.12 565.92 188.79 760.15 381.52 66.24 65.73 130.39 152.71 218.57 159.76 39.79-269.15-668.33-653.47-933.18-566.17l-45.54 24.89zm3890.4 114.4c136.91-48.13 206.89-211.6 304.36-325.29 90.37-105.4 305.39-144.23 346.42-259.68-66.9-35.35-132.06-37.66-239.12 27.29-199.69 121.16-350.22 336.69-411.66 557.68zm-1081.92 5205.97c29.03-110.63-133.38-151.21-159.72-57.92-42.97 152.32 134.33 154.7 159.72 57.92zm-412.72 394.36c34.34-9.58 53.24-34.31 52.93-98.11-.26-51.67-19.5-85.47-108.26-64.31-49.3 11.75-60.3 48.49-45.49 107.3 16.06 63.8 28.85 75.2 100.82 55.12zm337.92-28.41c50.73-110.54-65.43-140.43-124.03-97.44-99.58 73.04 86.57 179.07 124.03 97.44zm1907.12-199.61c41.51 10.76 68.61-4.64 82.51-29.14 29.95-52.79-1.28-147.84-81.58-115.07-84.57 34.54-64.17 127.83-.93 144.21zm99.48-451.95c43.75-77.25-49.45-212.48-106.22-70.1-56.28 141.15 66 141.15 106.22 70.1zm-3201.07 430.24c-38.4 51.16-26.19 125.37 45.91 114.03 147.6-23.19 40.35-228.98-45.91-114.03zm537.98-158.05c102.81-69.56-43.46-205.93-81.59-119.2-30.08 68.42-4.98 177.74 81.59 119.2zm355.79-22.11c18.81-116.71-124.71-116.82-125.75-17.46-1.24 120.07 112.29 101.01 125.75 17.46zm-309.92 403.46c139.37-12.72 72.35-124.91 23.88-132.91-104.79-17.31-88.3 138.78-23.88 132.91zm-252.06-52.03c69.64-14.63 66.7-146.04-12.75-128.55-116.73 25.68-23.41 136.14 12.75 128.55zm2787.75-9.42c-91.07-40.06-98.32 95.63-52.96 96.24 66.87.9 127.73-63.32 52.96-96.24z"/></g></g></g></svg>