<svg xmlns="http://www.w3.org/2000/svg" width="320mm" height="150mm" viewBox="0 0 32000 15000" shape-rendering="geometricPrecision" text-rendering="geometricPrecision" image-rendering="optimizeQuality" fill-rule="evenodd" clip-rule="evenodd"><defs><style>.fil0{fill:#d7b56d}</style></defs><g id="Слой_x0020_1"><g id="_2737068158080"><g id="_1599866302736"><path class="fil0" d="M15244.41 13491.51c23.12-61.22 29.57-120.22 90.84-145.6 41.37 88.07 4.14 133.25-90.84 145.6zm1931.79-318.79c206.16-23.53 571.26 78.91 603.98 309.81-101.29 56.63-341.14 102.73-464.93 57.54-124.42-45.42-192.87-232.4-139.05-367.35zm-3105.28 371.18c27.28-16.85 270.05-350.48 689.76-347.83-17.68 576.4-535.15 510.63-689.76 347.83zm3881.08-314.48c117.89 17.11 251.28 84.03 312.44 177.73l-24.74 219.36c58.97 46.83 14.36 19.65 93.14 53.84l-76.8 140.61c11.98-221.36-104.45-492.61-304.04-591.54zm-4611.23 55.66c119.09-74.55 140.5-107.35 293.52-83.14-78.73 137.01-160.5 132.74-293.52 83.14zm224.61 426.72c-82.42-219.08 268.36-525.62 510.4-523.95-80.94 62.05-50.51 77.16-101.62 136.64-42.73 49.69-96.93 68.59-151.86 132.72-112.94 131.91-61.68 327.22-256.92 254.59zm3694.64-755.79c60.27-12.67 186.14-75.9 248.06-114.36 146.3-90.89 157.91-37.62 320.84-58.37 196.39-25.02 532.05-80.31 743.8-31.61 19.49 85.08-18.57 159.73-66.57 213.64-71.07-70.19-60.72-142.27-175.1-188.14-159.94 75.94-.32 119.12-184.75 136.69-92.49 8.8-231.34-27.14-307-19.08-193.27 20.61 63.96 62.02-254.44 61.23-111.19-.28-214.44 8.54-324.84 0zm-528.5 751.2c39.27-113.67 13.09-143.25-2.65-264.16l184.4-119.62c60.22 104.39 64.67 155.36 56.96 281.81-121.39 117.22-275.13 155.88-442.62 168.09-348.19 25.37-222.32-50.22-421.75-182.15l-73.48-935.58c245.44-131.38 278.33-113.92 458.7-83.02l210.24 34.21c-45.8 196.31-253.87 161.37-346.28 584.03-63.71 291.39 95 490.32 376.48 516.39zm-1485.58-1051.78c326.06-135.05 287.14-65.98 596.21-1.22 21.32 176.09 12.48 484.11 3.83 669.19-11.08 237.23-2 359.39-239.46 457.96-435.27 180.69-925.17-244.96-611.01-427.46 187.47 95.83-137.95 304.94 153 346.69 251.37 36.07 613.52-214.14 347.94-721.26-22.6-43.17-226.71-310.27-250.51-323.9zm-1862.74-101.05c68.12-161.17 305.61-83.63 425.1-3.27-130.37 34.48-306.4 49.41-425.1 3.27zm5307.13-233.87l7.84 205.32c225.37 47.7 355.02 28.82 370.06 305.07-236.93-340.4-580.05-257.23-960.16-301.03 22.28-88.44 178.58-101.81 271.01-106.72 264.27-14 177.28-70.35 311.25-102.64zm-3438.05 193.29c79.08-168.99 120.48-246.12 191.56-428.78 41.31 86.39 26.2 255.99 138.19 312.24 117.44-129.41 61.53-351.98 130.02-501.87 100.78 249.93 129.19 340.5 133.02 629.21-376.19-122.71-262.32-61.83-592.79-10.8zm-2170.32 40.14c12.34-83.4 42.17-162.64 113.98-180.81 24.28 93.95-29.04 163.21-113.98 180.81zm3277.1-684.94l105.73-34.74c62.83 106.11 196.75 500.73 197.38 635.49-140.7 12.72-172.76-35.18-308.33-27.94-109.06 5.82-193.36 56.79-296.63 65.2-7.19-159 14.92-372.14 81.12-518.29 57.8 128.49 11.68 314.62 193.74 379.12 57.58-143.28-28.67-338.22 26.99-498.84zm-3318.46 350.66c6.12-51.09-2.7-60.04 40.55-96.04 93.41-77.74 95.22-25.76 127.74-2.26-31.47 58.89-105.53 91.13-168.29 98.3zm327.72-311.62c131.84-35.4 191.38 108.74 293.45 191.28 70.26 56.82 589.4 290.52 747.02 296.2 187.59 6.74 224.06-115.63 321.26-239.17 109.02 162.86 141.84 377.04 236.33 556.2 112.35 213.05 291.75 104.99 372.75 422.67-55.26 57.25-34.86 47.74-109.11 56.25-167.72-347.29-69.44-125.28-217.36-293.77-54.31-61.87 8.37-42.7-90.17-85.58l-73.3 128.36c-101.13 12.67-186.71 8.14-244.62 66.92-95.34 96.76-17.36 106.51-220.35 83.02 246.14-189.84-338.04-161.13-411.36-160.6-115.72.82-205.3 17.62-315.34 27.77-211.02 19.49-133.53-45.73-299.45-42.81-136.64 77.13-77.08 141.43-230.76 156.6-201.42 19.87-157.65-47.23-184.55 170.18-77.14-77.2-74.1-90.84-75.15-206.55l185.47-9.32c63.74-421.57 382.32-323.44 702.09-247.54 169.76 40.29 279.69 56.81 443.67 86.43 159.89 28.9 333.57 110.51 470.86-3.78-46.56-123.64-83.46-10.24-182.06-178.37-56.87-96.98-96.51-103.17-202.18-159.95-84.74-45.53-157.21-78.08-244.11-117.99-179.76-82.54-80.33-43.92-175.02-173.09-205.9-13.78-171.48 54.46-304.32-94.09l-135.41 82.58c-83.23-84.74-89.01-199.91-58.28-311.85zm-335.78 693.99c-258.95 212.18-542.31 418.76-807.3 59.55 43.18-192.78 462.07-613.42 601.12-771.39l144.24 74.93c-293.43 215.32 61.92 636.88 61.94 636.91zm-1499.84-299.79c45.51-130.63 316.54-385.68 425.6-482 67.36-59.49 153.51-174.87 235.28-198.29 79.61-22.81 300.11 10.96 391.17 38.76 94.49 133.07-21.47 84.7 155.11 195.52-170.36 168.1-627.46 694.08-884.92 663.94-144.71-16.92-259.19-87.97-322.24-217.93zm7177.29-674.32c455.03-34.87 230.75-66.69 770.18 437.88 130.46 122.04 397.41 359.78 409.2 542.84-74.21 121.83-259.65 197.24-402.37 174.4-344.01-55.07-470.66-684.72-504.11-732.58-42.26-60.47-267.61-218.6-329.91-277.02l57.01-145.52zm-4666.45 303.4c99.87 27.76 90.7-1.12 187.11-58.14l-36.74 184.24c-82.55-8.14-231.98-118.32-300.22-170.39l174.73-210.46c-51.21 129.74-62.3 95.72-24.88 254.75zm3465.91-327.8l96.95-33.23c43.31 56.68 122.25 382.87 278.36 220.51 43.48-45.23-32.82-98.38-42.7-168.97-2.83-20.23 39.66-152.37 50.25-183.42 114.54 87.01 229.34 246.98 251.86 395.63-99.02 70.22-255.71 130.89-372.95 121.53-193.36-311.36-196.33-248.3-261.77-352.05zm1733.47-47.09c295.65-309 456.86-242.87 766-19.4 850.06 614.49 534.12 1037.33 182.09 892.8-102.52-42.12-882.87-755.79-948.09-873.4zm-7244-354.15c-17.87 184.51-21.08 187.4 107.41 304.38-112.54 116.54-707.21 662.66-890.2 632.35-74.28-12.3-319.19-147.16-347.02-194.95-97.37-167.21 563.45-672.65 725.65-769.26 113.8-67.77 247.81 9.78 404.16 27.48zm5071.44 51.55l176.61 790.43c47 219.76-37.49 125.32-4.2 251.49 392.35 119.46 529.36-99.79 825.03-278.81 45.29 78.68-51.43 23.12 50.09 100.8 176.84-34.72 59.88-31.93 148.89-160.21 50.49-72.77 108.02-86.77 184.32-57.57l-65.25 305.54c-132.2-8.86-226.34-100.36-477.32 86.92-72.86 54.36-62.27 43.92-152.95 79.22-171.09 66.57-86.92 119.16-213.65 194.37-181.85 107.95-328.8-4.32-352.08 167.25l-88.8 247.17c-354.4 21.93-180.77-11.57-345.88 180.57-137.52 160.06-108.67 26.35-232.62 281.63-38.18-134.04-18.75-314.7 76.32-412.02 125.33-128.26 160.94-16.2 273.26-247.05 71.18 69.25 15.4 56.23 123.77 120.09l63.23-191.23c61.35-448.56 8.77-386.87-11.53-616.66-13.84-156.85.87-308.74-21.64-467.38-19.1-134.57-54.15-267.36 44.4-374.55zm2922.32 65.94c346.06-217.38 140.05-359.34 1010.74 401.15 154.6 135.03 162.07 54.92 138.79 247.96-236.74 93.67-257.47 164.11-637.01-187.59-100.84-93.45-176.18-138.84-268.75-216.57-80.65-67.69-158.75-165.03-243.77-244.95zm-1626.14-169.41c123.22 34.54 397.32 264.95 497.4 359.6l-179.26-5.27c-154.28-205.02-91.75-180.23-318.14-354.33zm-403.18-67.65c81.33 58.86 40.75 67.52 145.71 128.77 363.52 212.16 191.58 223.42 492.87 349.73l-24.4 108.95c-75.84-98.25-316.39-213.89-488.24-415.44-54.29-63.67-66.3-120.69-125.94-172.01zm-4490.52 537.08c209.2 36.95 216.67-227.76 424.14-340.21-3.61 113.75-93.14 268.65-163.84 368.39-71.35 100.66-234.3 128.7-320.37 87.34l-37.27-22.26c-4.69-2.72-11.93-9.7-19.06-12.11-147.31 90.82-176.12 138.49-359.81 138.74-5.1-157.27 4.34-131.55 141.35-246.88l707.73-593.6c-50.69 248.44-447.58 343.46-372.87 620.59zm5566.91-599.43c114.83-3.48 451.12 148.74 522.65 228.88-70.88 38.06-138.79 44.19-209.58 76.27-138.57 62.81-46.86 94.3-182.72 138.96l-396.84-379.4c49.16 47.44 149.82 91.87 219.1 138.22 136.29 91.19 148.04 132.53 319.49 117.47-26.28-144.74-84.04-211.14-200.51-296.05-105.91-77.22-48.96-39.67-71.59-24.35zm850.25-158.13c69.46 38.25 209.68 152.98 275.48 207.99-285.96 150.29-127.68 94.39-250.12 170.9l-224.02-212.86c141.28 37.87 162.03 93.69 327.5 73.46-1.31-175.24-53.67-112.53-128.84-239.49zm-6426.7 104.96c-25.04 147.66-189.77 301.36-290.31 429.16-129.1 164.12-233.66 190.64-401.79 320.2-94.84-116.51-3.93-135.4-180.81-165.11-97.9-16.46-193.97-5.41-281.22-50.51 122.11-148.15 743.5-642.6 990.32-675.83-64.9 70.51-389.47 320.13-296.06 425.25 86.56 97.4 402.36-195.22 459.87-283.16zm-1292.23 441.88c-59.84-242.97 67.93-338.43 214.02-412.84 116.35-59.24 352.01-171.18 471.22-178.19-31.39 58.79-559.37 544.4-685.24 591.03zm3329.02-949.05c53.34 165.54 232.04 259.98 359.79 328.12l-10.75 560.58c-102.36-66.89-229.09-256.47-279.1-364.1-145.6-313.31-80.49-289.94-69.94-524.6zm-3677.36 563.57c175.28-79.52 414.14-313.83 608.09-293.29-52.99 58.78-299.23 351.67-398.34 352.89l-209.75-59.6zm4328.58 336.25c-36.35-45.43-158.27-455.39-170.23-528.62-20.31-124.29 104.08-387.44 216.55-436.77 9.75 165-32.1 592 4.21 701.83 42 126.99 27.73 27.04 58.86 97.18 36.04 81.24-5.3 142.7-109.39 166.38zm2091.59-781.22c-143.7-398.91-60.49-908.88 56.7-1303.44 184.39 302.52 105.65 994.19-56.7 1303.44zm1131.96 1.49c-160.52-187.51-193.22-1456.7-53.86-1650.11 22.32 138.49-24.07 331.03 29.05 451.28 55.94-20.1 45.2 48.62 83.37-177.28 12-70.95 30.48-155.44 64.67-208.69 109.65 265.97 71.12 1367.92-123.23 1584.8zm401.13-218.34c-66.97-416.16-152.52-1193.29 63.47-1568.11 24.72 62.04 20.32 98.28 24.7 173.04 6.82 117.07-25.04 126.21 67.91 152.61 70.03-109.37 25.39-223.91 78.59-332.87 98.3 372 113.66 1341.63-234.67 1575.33zm-7927.82-1583.64c61.53 127.83-26.14 272.21 101.8 318.61 78.96-98.32 16.1-181.57 65.71-310.08 135.26 396.71 103.66 142.67 146.17 690.83 16.13 207.89 47.89 621.63-58.46 795.64-379.96-17.94-372.71-1356.26-255.22-1495zm4480.67 708.97c-11.23 122.13-48.56 243.14-112.48 344.43l-4.29-119.83-124.45-40.69c99.57-138.57 56.51-58.46 205.13-120.65l36.09-63.26zm-2925.7-447.27c-11.63 235.14 226.44 637.56 235.63 929.41-151.31-265.74-295.98-588.47-235.63-929.41zm-1043.67-65.45c47.67 105.16 49.04 316.73 124.43 392.04 60.69-106.9 34.02-212.93 41.52-343.07 166.35 354.59 256.2 976.74 79.54 1363.93-133.37-140.38-377.96-1217.45-245.49-1412.9zm6645.4-63.57c144.27 305.58 16.2 1321.64-193.25 1604.85-209.84-296.79-170.53-1054.72-79.7-1390.6 70.46 310.76-6.97 415.46 159.22 470.33 165.68-175.28-106-511.62 113.73-684.58zm-3577.93 247.77c208.06 468.91 250.83 285 370.64 251.15 40.6 54.89-31.61 42.25 125.75 198.59-90.33 191.09-81.77 131.21-85.22 356.32-160.87-43.82 83.27-42.75-57.59-288.11-57.09-99.45-144.09-210.23-264.52-213.41-40.48 183.8 29.45 250.69 38.78 416.11-195.36-67.68-74.72-36.25-192.72 31.82-57.19-92.65-49.71-159.55-127.33-280.47-83.11-129.42-78.03-157.34-123.61-301.87l112.68-3.18c20.71-97.93 12.09-53.2-4.34-141.07 48.9 66.44 135.57 183.57 237.19 192.2l-29.71-218.08zm-4482.6-695.34c16.15 98.55 6.7 245.38 63.22 319.56 130.61-32.15 49.93-60.67 121.56-166.91 16.2 117.52-3.83 203.82 75.66 290.76 80.12-61.86 101.4-182.25 162.03-289.39 116.33 200.43-63.76 376.25 158.73 441.39l-6.61-257.49c78.7 316.52 198.26 900.6 90.41 1205.33-80.92-46.33-185.11-265.29-224.57-364.61-26.67-67.07-55.65-156.53-78.42-227.04-33.61-104-25.77-200.42-98.62-249.69-131.75 92.9-81.36 388.6-272.49 421.4-131.67-197.78-176.52-955.77 9.1-1123.31zm2046.22 561.85c245.19 369.58 470.81 1068.77 441.53 1524.45l-256.92-344.71c-270.91-342.15-543.01-968.06-383.51-1363.93 176.24 406.62 88.02 650 261.35 663.41 91.11-140.79-107.09-361.45-62.45-479.22zm7362.59 38.39c208.92-86.55 27.14-55.03 133.79-436.16 80.56 114.35 69.89 219.13 170.69 281.56 67.52-71.42 79.93-151.07 65.05-250.9 20.27 128.9 20.29 126.22 117.92 135.47l65.93-370.17c59.12 218.89 133.69 252.82 128.82 545.9-2.36 141.17-30.73 497.91-103.45 606.2-182.34-30.35-142.04-403.02-288.25-407.54-77.1 95.48-161.54 808.53-398.33 849.66-88.17-272.45-35.6-997.26 79.71-1260.86 40.4 135.11-45.06 229.41 28.12 306.84zm-5145.62-165.91c-72.95-78.24-96.7-143.87-84.25-250.2l168.53 16.87c17.54 65.62 16.1 42.15 92.28 66.55l61.04-135.41 53.15 314.61c-63.96-67.68-206.01-174.42-294.48-169.53 3.27 91.31 27.2 88.11 3.73 157.11zm-759.16-175.04c107.69 38.71 62.8 33.51 146.41 7.07 37.32 68.13 36.79 4.99-22.47 155.54l-123.94-162.61zm3865.93 75.68c-35.63-133.67-43.11-492.54-23.05-632.36l197.96-24.51c50.11 158.88 10.07 243.31-7.22 397.66-14.49 129.51 13.53 105.33-58 173.52-11.31 10.79-84.05 65.41-109.69 85.69zm1006.12-784.16c68.97 116.87-45.99 278.73 114.6 346l32.73-358.27 146.88-53.13c22.07 133.16 85.64 315.33 76.18 432.92-32.29 401.91-476.81 452.23-456.14-203.32 3.44-109.19-11.53-160.53 85.75-164.2zm-7104.35-86.18l155.61 55.78c8.01 135.85-15.92 258.05 37.09 364.79 115.75-109.89 56.28-209.3 83.83-344.46 116.28-25.25 117.56-12.02 130.58 117.81 25.58 255.23-108.13 581.21-257.15 554.17-91.03-16.52-205.27-216.25-218.22-305.51-16.55-113.99 48.86-317.61 68.26-442.58zm2060.85 460.71c-2.58-51.72 53.54-117.06 74.66-159.06l39.16 107.83c-14.7 12.69-77.87 47.9-113.82 51.23zm-669.57-272.73c88.35 17.18 23.39 44.73 118.39 19.27 56.03-133.11 31.94-142.53 32.36-278.38 92.95 132.27 171.61 398.28 271.76 569.72 192.95 330.35 179.47 258.07 284.82 609.33 57.84 192.77 36.02 280.27 378.79 520.72 146.39 102.67 369.41 304.1 427.42 465.76-112.27-83.69-86.16-177.06-222.98-175.63-20.78 175.24 161.66 549.27 251.01 710.49 178.35 321.88 167.38 468.97 176.61 827.54-87.6-193.53-190.55-648.01-409.08-677.58l-2.79 504.71c-90.51-85.22-191.97-648-357.99-702.39-88.2 81.24-87.52 258.8-100.25 383.83l-66.22-122.62c-177.48-2.88-162.61 37.18-197.24 97.25-51.61-198.12-115.24-494.65-181.25-675.35-106.13-290.54 19.32-383.36-129.86-690.31-74.94-154.19-249.18-454.26-264.83-608.42-15.22-149.73 42.22-301.98 21.26-437.6-29.36-189.82-146.71-90.41-29.93-340.34zm-808.93-28.38c270.63 50.6 90.29 298.34 235.08 414.63 89.93-88.3 13.25-264.48 49.96-381.03 94.56-8.75 114.59-45.49 136.71 319.77 9.24 152.31-10.67 268.27-172.06 301.57-121.41-104.35-279.12-494.14-249.69-654.94zm-1117.51-328.78c148.81 79.64 20.03 304.64 141.36 400.34 89.5-67.46 42.35-232.62 101.63-342.28 116.4 22.63 110.2 25.73 116.94 152.53 10.86 204.14-12.21 542.22-274.4 567.56-228.69 22.08-159.52-202.06-155.18-361.04 2.65-97.29-2.95-360.73 69.65-417.11zm8226.42 69.64c14.19 55.74 23.14 109.45 31.43 167.73 18.47 129.52-10.21 120.17 77.98 175.62 55.27-70.36 55.76-146.34 63.27-242.06 11.82-150.94-24.11-128.68 104.32-176.31 71.62 109.88 56.63 303.66 65.31 448.7 9.72 162.59 72.65 409.03-194.55 324.74-242.46-76.48-269.49-344.38-258.59-557.84 5.69-111.36 7.01-123.97 110.83-140.58zm-9696.78 660.82c167.97-73.3 94.85-242.32 176.39-386.22 25.9 134.48-25.51 370.39 28.8 458.72 68.87-39.03 89.3-136.12 144.14-217.96 12.93 115.35-23.63 231.03 35.05 315.07 77.06-86.99 44.01-183.49 106.84-276.54 92.33 284.55-27.09 955.26-420.69 853.11-46.72-184.59 110.74-307.76 80.5-488.43-149.01 44.12-327.04 511.53-614.8 292.49 52.32-140.52 181.5-271.49 249.37-438.63 66.85-164.6 138.31-312.78 208.2-472.42-13.61 124.9-64.2 256.38 6.2 360.81zm11426.25-352.36c89.47 69.19 172.45 421.26 364.31 689.99 18.98 26.54 62.16 82.07 75.39 107.31 43.37 82.69 35.81 62.66 10.67 115.91-288.83 140.84-454.57-276.67-608.41-304.22 11.79 173.89 118.39 310.72 112.62 471.68-176.96 68.89-326.45-86.16-398.92-240.27-109.51-232.96-68.44-363.83-60.63-609 64.69 97.7 20.34 209.76 107.58 295.94 66.64-81.8 32.82-243.66 38.4-356.67 38.41 81.3 81.12 197.7 166.3 221.74 64.69-179.8-38.34-268.96 21.52-415.29 30.72 145.96 38.13 328.63 190.88 349.12 40.5-150.03 2.87-186.4-19.71-326.24zm-2825.18 647.54c-242.5-44.58-132.58-574.48-54.42-628.27 10.93 92.74-15.26 314.35 46.64 373.29 103.08-52.39 60.61-143.75 93.24-270.91 37.25-145.11 47.81-133.56 169.67-167.12-1.12 194.87-93.7 573.85-255.13 693.01zm1591.6-1126.81c76.15 25.25 46.77 100.52 101.43 192.07 74.74-56.54 74.32-173.87 113.43-280.76l20.88-9.61c16.58 5.65 259.63 672.03-16.66 713.37-221.49 33.13-393.65-426.93-219.08-615.07zM9752.68 8417.93c169.39-52.78 104.72-315.38 287.13-416.85-40.18 573.66-608.16 1130.39-914.58 960.53l702.37-933.23c-18.71 127.37-131.91 268.26-74.92 389.55zm12246.36-430.31c89.52 93.26 713.35 892.22 722.08 946.63-305.38 135.5-883.78-407.8-914.37-941.2 148.91 96.67 110.08 349.4 274.97 403.81 66.19-76.92-66.55-398.73-82.68-409.24zm-10791.8-424.01c47.98 69.59 37.69 67.96 55.75 148.01 27.88 123.5-8.75 98.58 76.32 130.98l47.04-192.16c217.37 33.73 176.98 581.74-134.69 615.84-282.03 30.89-111.92-588.85-44.42-702.67zM8562.03 8740.68c105.75-92.19 309.6-310.16 391.1-440.42 75.18-120.14 266.73-382.6 404.04-425.56.3 220.1-188.33 239.78-185.8 443.87 249.38 17.27 233.11-443.98 451.65-462.62-26.78 391.99-727.78 1259.15-1060.99 884.73zm13905-905.93c177.03 41.44 460.66 510.89 590.26 653.7 66.69 73.5 182.25 145.51 219.87 227.69-199.79 192.41-523.65-76.15-687.76-221.08-138.96-122.71-360.51-456.36-360.21-655.13 194.99 37.41 162.54 430.64 430.65 449.23-12.16-218.15-179.42-258.72-192.81-454.41zM7867.31 8604.27c26.6-41.73 228.92-176.65 289.78-226.3 111.89-91.27 200.23-169.49 282.98-282.03 360.31-489.85 296.58-449.93 634.72-375.13 15.62 357.1-766.53 1219.89-1207.48 883.46zm14881.66-914.32l264.66-59.88c170.41 118.79 301.09 359.63 438.66 512.99 117.64 131.14 494.53 387.54 521.79 431.98-246.31 166.29-590.57-23.21-782.64-196.72-126.93-114.64-419.92-523.53-442.47-688.37zm-1693.94-371.55c53.87 113.7 199.27 307.42 216.55 369.37 43.73 156.87-59.9 373.08-225.81 281.84-225.58-124.04-442.97-643 9.26-651.21zm-10277.43 9.14c472.19-16.2 223.02 575.11 24.8 650.77-165.41 63.15-286.82-115.73-244.45-273.84 5.99-22.34 197.24-347.36 219.65-376.93zm12457.48 132.3c393.28-182.18 357.33 89.24 869.18 596.15 101.96 100.95 246.47 134.11 317.45 249-198.05 406.14-1196.63-441.39-1186.63-845.15zM7429.79 8337.23c163.19-132.5 349.99-214.5 481.84-384.92 119.8-154.88 257.17-353.4 381.91-489.48 85.9-11.09 211.35 7.2 287.73 56.01 52.02 351.87-992.88 1289.44-1151.48 818.39zm3007.82-1215.38c13.16 109.3-6.61 217.5-14.72 320.46 184.88-60.53 52.6-98.17 172.2-204.38 79.71 477.11-360.85 594.48-465.15 514.48-87.58-67.18 253.75-599.6 307.67-630.56zm-3510.79 944.96c77.32-75.13 212.03-117.09 307.7-175.68 209.64-128.38 366.7-264.9 538.69-435.08 129.72-128.35 77.71-202.02 234.59-254.86 439.16 275.69-861.2 1412.94-1080.98 865.62zm14301.83-826.08c30.13 49.93 24.55 54.02 44.74 105.57 52.46 134.08 15.21 93.41 104.69 109.29 37.83-159.41-77.39-229.55 38.73-356.11 70.95 105.54 320.63 523.2 303.9 632.82-192.39 106.59-513.23-82.04-492.06-491.57zM23801 7148.8c120.67 35.21 368.22 418.45 787.5 680.52 101.94 63.71 274.99 92.75 324.08 195.73-181.99 375.67-884.75-171.89-1079.46-490.48-84.51-138.3-197.34-273.36-32.12-385.77zm-13736.21-258.68c47.6 114.33-18.04 119.53 43.1 201.25 145.5-17.36 6.52-27.69 130.25-91.47-11.18 254.2-340.17 839.71-639.61 636.27-95.06-64.59 27.98-148.15 190.33-368.28 31.99-43.4 260.37-367.46 275.93-377.77zm11518.16 89.69c105.98 64.06-26.55 46.65 124.87 87.08 4.46-6.9 7.89-26.5 9.19-22.89 1.28 3.58 6.74-16.61 8.33-22.98l18.53-141.39c18.96 5.94 532.81 671.89 538.68 696.91-177.06 282.7-666.45-197.73-699.6-596.73zm452.28-335.74c140.56 137.08 234.63 314.54 390.58 453.46 120.06 106.95 425.54 288.2 493.75 362.82-136.91 34.84-117.1 38.06-379.56-71.74-115.49-48.3-214.65-117.24-301.06-207.85-64.06-67.17-543.17-430.76-203.71-536.69zM8913.07 7481.8c155.48-136.27 368.43-242.36 528.87-405.84 215.95-220.08 330.3-511.16 436.3-385.12 161.03 191.48-350.94 643.17-599.15 735.6-269.79 100.46-233.29 119.21-366.02 55.36zm-395.28-180c29.06-68.22 176.85-122.34 257.5-172.73 209.7-131.04 336.06-191.85 517.75-406.87 86.78-102.69 151.96-189.14 277.85-130.24 4.06 143.42-276.04 423.03-387.79 507.05-172.6 129.75-453.14 301.9-665.31 202.79zm13717.88-706.59c108.51-149.31 311.69 132.3 489.99 278.85 189.03 155.39 432.95 241.39 573.95 353.3-172.71 134.16-478.9-42.75-642.04-159.08-96.91-69.12-170.99-132.3-234.25-224.9-50.38-73.72-153.16-181.09-187.65-248.17zM6089.98 6924.79c91.47 79.6 305.21-5.86 433.08-18.07 168.95-16.14 353.19-32.61 518.7-22.5-49.72 137.01-117.32 98.7-127.26 209.17 196.89 13.72 315.45-184.91 592.7-155.52-3.04 114.96-79.91 110.31-115.4 225.23 155.62-16.5 249.43-168.84 406.03-56.48-64.38 243.22-381.43 512.09-605.16 639.52-289.73 165.02-612.74 323.6-856.68-2.11 148.54-102.32 676.13-188.71 754.45-334.88-161.09-106.56-796.4 369.71-1200.67 17.27 104.03-114.15 398-16.67 467.98-188.22-211.12-70.92-540.77 101.8-857.52-83.78 144.11-63.14 454.39-72.89 549.62-181.44-148.27-106.18-277.62 67.66-661.1-37.79 15.53-1.32 485.32-197.19 581.33-229.4 110.87-37.21 610.89-142.54 716.33-143.75-70.14 90.61-71.6 28.62-140.63 101.59-70.47 74.51-11.35 81.98-88.73 141.82-98.32 76.06-269.59 52.85-367.07 119.34zm19033.19-427.51c227.48-53.93 1078.72 226.35 1288.35 345.4-274.48 113.34-478.82-28.73-649.31 43.8 27.25 119.07 447.32 118.32 548.51 189.51-270.74 148.24-608.46 34.93-840.86 76.96 66.66 197.76 357.21 75.02 480.45 199.01-245.29 320.81-1061.49-34.07-1121.12-26.85-124.48 15.11-29.85-9.66-87.62 36.8 47.91 55.27 239.8 129.49 326.48 167.52 133.69 58.64 288.45 73.82 399.19 119.01-9.36 175.66-248.24 221.52-404.74 202.15-135.06-16.7-313.71-122.33-439.4-186.94-187.02-96.12-561.61-419.18-575.12-622.97 234.42-77.33 196.12 27.77 369.5 60.79 6.16-142.48-6.43-8.35-97.64-207.22 290.4-34.07 355.67 132.49 591.91 144.65-26.19-124.48 12.93-24.44-61.42-115.92-34.95-43-42.45-35.93-69.82-89.47 162.87 8.7 323.86 7.17 482.9 20.28l334.82 44.15c137.74-.49 14.56 32.49 126.45-27.38-96.36-68.75-261.67-90.11-384.94-124.18-98.97-190.23 25.03-125.03-216.57-249.1zM3416.02 6600.95c61.95 9.49 340.09-54.32 443.55-61.88 200.76-14.65 343.99 16.99 537.61 31.37 68.47-13.16 15.76-56.98 181.25-78.24 462-59.34 1045.53-275.45 1554.74-28.55-51.55 221.46-1037.22 314.8-1282.71 347.7-258.01 34.6-1189.32-118.63-1434.44-210.4zm22242.96-217.67c657.64-295.91 1410.09 87.11 1933.78 53.13 238.56-15.48 482.18 25.46 725.44 42.45-55.93 47.79-50.71 44.52-138.87 60.18-72.95 12.95-94.51 11.77-171.19 30.69-259.4 64.05-801.39 160.35-1038.11 131.76-367.63-44.42-1039.56-88.41-1311.05-318.21zM16328.84 9487.1l31.73-225.22c-150.2 8.82-203.9 149.16-310.49 198.45l11.56-233.98c-147.68-66.57-38.64 34.7-114.33-4.11l-59.95-242.17c-104.47 35.85-108.72 156.45-135.02 249.06-52.52-143.34-63.31-321.6-66.87-468.84l85.61 72.69c142.41-91.21 330.44-191.46 389.3-352.45 115.75 29.37 110.06 21.89 220.75-21 33.66-120.84 59.72-236.79-25.94-314.97-79.31 87.9-22.93 61.53-62.6 172.97-32.38 90.91-50.2 62.76-98.62 141.72-36.02-95.95 16.27-60.16-41.44-171.24-107.88 49.94-50.17 52.91-138.42 137.84-98.2-59.3 31.78-30.19-96.95-67.43l-153.6 183.94c-75.95-107.64-115.4-259.69-200.73-332.9-95.06 115.17-22.05 226.63-77.98 357.28-99.55-93.8-41.34-147.2-183.3-245.62-39.03 74.05-22.05 130.42-30.45 234.47-54.93-124.17-154.48-331.04-302.12-354.81-79.5 231.41-4.37 476.49 94.3 695.63-92.75 50.49-70.24-59.64-127.06 95.29-27.54-78.27-25.88-54.46 15.84-88.13 183.71-148.22-83.84 106.09 54.58-39.11-185.96-321.14-82.53-691.12-260.2-760.51-110.81 122.32-43.52 312.06-57.43 485.25-38.81-73.36-49.62-101.98-69.67-185.8-3.63-15.2-14.65-66.88-11.63-77.68 28.03-99.83-50.41 65.78 32.44-31.06l22.26-25.78c47.3-97.37-81.4-336.01-149.22-400.4l-112.26 104.51-132.25-246.97c-120.95 61.01-38.09 17.7-74.79 133.31-44.12-103.58-34.3-140.6-136.34-132.62-45.6 58.33-10.84 106.37-15.43 149.92-198.33-260.49-248.88-710.24-219.48-1032.65 8.33-91.43 40.51-190 33.06-278.85-7.29-87.04-66.97-174.26-71.94-260.97-7.74-135.2 111.3-352.41 155.52-480.76 1.9 140.75 6.66 209.45 97.64 316.71 113.1 133.34 131.16 100.22 217.25-4.07 68.21 127.56 142.35 426.7 319.23 413.56 54.08-156.97-22.63-220.77 7.83-384.06 65.29 129.72 188.72 499.88 306.41 560.46l120.31-162.52c224.37 104.06 196.03 252.37 396.26 289.37 136.73-91.55 87.27-179.12 181.49-236.01 62.92 90.01 23.64 145.95 130.65 235.66 215.78-37.77 182.98-212.5 235.05-382.34 89.28 74.01 88.73 227.52 222.45 285.92 105.34-46.33 44.47-18.68 105.32-110.06 63.69 44.89 85.04 116 180.69 53.82 79.38-51.6 45.03-135.83 63.02-232.13l105.12 59.98c109.37-102.29 105.03-155.07 171.99-262.13 63.57 98.5-10.65 126.17 115.35 179.18 52.04-85.86 48.54-205.48 65.78-308.14 67.7 101.45-9.91 89.98 117.84 156.71 146.74-69.4 80.68-289.96 186.14-438.53 148.34 42.43 224.86 286.88 289.67 316.24 63.73-71.03 71.79-205.53 72.51-301.01 40.38 133.55 215.43 268.98 342.68 178.81l46.83 121.32c-143.5 136.89-64.64.67-104.19 206.89-87.15-.34-53.94-23.44-107.88 12.54-30.19 181.6 37.62 285.2 8.35 419.46-78.4-79.04 4.91-69.71-119.2-68.5-62.81 237.14 168.57 716.96 196.89 977.82-95.35 49.49-6.98-18.82-101.08-7.58-28.32 82.95 115.15 364.65 146.74 473.81 46.65 161.19 87.78 398.08 73.43 564.03-90.58-33.4-41.75-52.69-156.36-27.43-48.82 348.83 171.13 673.02 35.11 1239.47l-258.38 1109.89c-.43-102.58 18.92-161.26-48.64-222.98-98.11 39.65-64.43 95.65-119.74 176.31l-46.79-246.98c-103.11 28.96-138.34 144.79-201.45 239.37l-39.85-371.53c-69.28-31.82-111.02-2.28-156.79 57.26-124.24 161.63-109.96 416.93-247.86 572.15-4.32-12.65-83.67-305.42-83.7-306.63-3.55-94.97 27.02-226.29 24.4-349.84-91.12-75.95-7.01-2.12-77.22-28.42l-.17-268.26c-124.4-53.34-35.13 16.3-119.69-17.24 6.8-281.29 108.09-401.49 175.84-651.31l-95.16-47.72c365.47-607.83 230.69-141.58 555.24-691.52 121.34-205.62 73.46-72.74 217.36-154.38 31.17-74.41 71.88-228.18 103.93-321.02 71.24-206.41-41.14-172.24 57.75-321.85 109.91-166.3 256.75-495.49 138.83-673.87l-124.97 61.11c-61.76 14.75-31.15-23.04-133.92 34.85-54.99 149.96-44.04 278.01-188.49 372.63-110.04-34.16 35.74-39.73-115.38-42.66l-133.41 205.18c-44.22-102.07 11.85-47.37-72.45-116.72-109.99 79.79-165.2 165.9-113.03 305.22 143.3 57.41 237.16 1.46 362.29-47.94-49.11 123.76-5.2 85.17-23.25 223.22-66.88-34.24-29.57-74.81-122.23-102.22-95.47 96.99-87.2 198.42-73.04 326.94 84.39-9.35 108.62-28.85 139.46-114.56 60.96 89.59 48.91 54-23.93 131.78l-338.91 396.97c1.11-106.98 8.84-189.88-35.9-275.12-117.63 48.79-81.64 91.83-165.47 160.81l56.37-240.37-146.54-109.39c76.75-88.99 69.91-75.06 53.26-188.79-112.96 25.79-72.85 34.84-147.43 123.38-115.61 137.18-68.05 13.4-176.49 107.17-113.61 98.22-184.24 233.75-161.1 388.42 284.79 30.57 98.37-259.72 336.71-235.1 27.34 101.06-19.45 150.06-19.82 273.54 105.68-2.62 88.71 11.63 156.37-48.09-41.11 78.73-63.51 77.45-64.57 162.47l222.46-38.76c-5.36 23.34-265.1 289.22-304.26 331.05zm-8268.7-3248.88c163.93 12.08 430.36-173.71 562.47-85.79 49.98 200.42-530.98 244.64-553.58 425.72 26.78-.18 359.5-104.91 416.06-122.48 158.67-49.32 258.43-123.67 443.88-126.12-38.05 129.09-109.28 111.77-102.55 227.55 162.84-20.31 234.56-147.73 435.7-152.35-3.73 357.62-805.14 861.77-1061.35 667.04 34.04-79.52 202.72-152.91 263.18-206.06 89.26-78.48 61.27-35.22 51.97-114.24-291.87 74.01-505.94 290.78-845.58 70.12 94.19-61.19 276.25-107.54 307.77-204.97-71.47-37.56-177.3 21.26-257.22 47.11-227.06 73.44-149.58 3.71-303.73-15.3-129.88-16.03-514.99 57.43-680.5 59.65 147.29-226.43 471.1-103.42 938.42-292.33 134.31-54.29 74.73-14.02 114.7-99.85-227.8-8.77-415.21 111.57-953.75 59.44-203.16-19.66-660.1-43.47-829.15-144.94 541.18-132.56 817.47-86.4 1285.11-116.19 418.35-26.63 747.35-265.56 1200.27-190 23.29 287.82-329.32 100.57-432.12 313.99zm17767.23-84.65c-143.19 24.44-266.46 72.64-417.62 96.51-213.38 33.72-752.74 83.02-965.85 61.59-133.16-13.39-307.38-84.07-429.81-30.05 126.86 227.5 942.03 109.97 1063.93 373.42-193.46-2.57-453.13-62.2-635.75-62.64-172.96-.44-95.21 71.75-297.49 35.52-118.3-21.17-184.84-86.67-305.97-57.69 15.76 106.71 207.89 145.74 299.57 202.72-138.12 218.71-654.34-34.63-835.97-95.9-30.49 176.42 266.23 204.51 322.49 347.48-190.28 108.19-509.17-52.52-678.48-168.65-212.8-145.96-346.81-222.23-405.97-488.15 209.07-11.65 249.81 124.17 436 134.64 2.62-90.48-55.8-121.78-106.26-202.25 137.08-23.03 288.78 71.21 425.49 108.53 86.25 23.55 159.44 24.09 249.21 59.16 109.39 42.75 127.06 94.09 205.06 42.71-93.11-157.77-489.41-206.46-563.4-363.43l22.68-50.93c157.31 9.11 414.11 160.39 541.93 80.25-78.98-75.72-305.33-112.36-430.27-181.18 15.58-209.25 172.08-172.51 542.68-98.83 226.55 45.03 349.13 122.11 604.56 138.23 172.26 10.85 372.75-15.87 722.69 11.56 164.77 12.93 508.63 26.74 636.55 107.38zm-1735.83-1461.02c75.44 218.71-253.71 341.59-414.93 386.31-669.38 185.63-1517.32-712.42-1953.26-491.87-40.39 175.88 661.58 342.51 864.02 405.67 256.13 79.91 742.32 225.79 948.82 364.31-62.9 167.27-273.21 313.77-455.06 333.02-302.69 32.05-554.93-325.3-678.04-464-182.85-205.99-479.55-502.78-739.28-395.09-1.88 304.5 1201.93 1068.51 1216.46 1086.76-191.14 132.81-283.68-99.11-539.9-128.87 76.85 144.95 269.17 206.62 390.28 290.02-357.78 145.73-665.9-166.45-743.7-487.21-32.77-135.01-158.48-318.4-247.23-420.62-59.73-68.81-110.84-105.7-174.31-158.01-107.01-88.2-110.93-135.58-253.11-64.87-2.3 304.84 852.02 1286.24 869.08 1352.41-197.19 173.49-340.98-181.27-482.28-224.3 24.41 164.16 131.41 296.14 287.01 348.26-701.02-24.85-634.28-1206.46-912.16-1231.58-57.17 255.9 221.49 878.33 347.83 1139.47 57.89 119.66 183.73 185.14 201.47 296.85-501.26 100.85-354.05-319.42-599.81-409.8 51.63 343.73 197.15 517.89 546.45 513.97-318.75 226.91-433.44-102.63-554.01-348.08-71.33-145.18-128.72-219.06-153.82-385.53-29.84-197.8 70.29-368.74-79.12-498.27-92.45 140.05-19.27 657.06-6.18 857.47 20.48 313.97 87.58 404.77 275.09 637.25-194.19 80.16-279.29-160.37-406.66-135.09-22.07 118.56 157.15 170.6 243.33 233.15l-207.84 15.88c-344.49-386.46-121.21-971.87-171.44-1210.38-56.3-267.26-244.31-621.91-281.38 101.55-24.43 476.72 41.18 879.67 264.98 1270.3-94.93-12.24-376.36-225.42-397.83-218.83-16.11 39.94 89.04 171.45 138.73 214.6 30.59 26.56 245.82 116.8 292.35 132.47-1014.1 42.68-346.25-1621.03-652.97-1744.53-83.74 66.31-241.69 1092.92-67.78 1500.65 41.62 97.62 185.92 311.84 159.37 385.92-1.37 1.63-500.12 220.11-571.9-544.7-40.6-432.71 132.29-971.19-17.95-1085.29-99.15 78.69-157.18 733.43-170.78 893.13-28.27 332.23 10.77 590.13 207.64 860.67l-135.91 25.87c16.96 78.75 24.5 50.74 21.12 69.7-381.86 2.28-427.49-452.11-426.26-762.94.97-241.32 140.74-906.97 17.76-1065.35-45.17 74.25-170.81 803.89-180.02 936.77-31.83 459.05-117.63 492.93 94.58 912.53-82.31-59.4-143.35-114.64-189.52-223.4-68.3-160.87 8.22-290.76-138.54-330.63-4.69 247.07 96.84 585.55 328.78 681.22-434.25-8.8-361.39-660.17-340.48-955.73 14.75-208.57 69.64-412.72 79.2-618.22 7.7-165.66 87.76-540.9-120.49-572.23-85.57 216.8 34.42 384.87-28.33 662.09-19.67 86.93-17.53 115.73-68.41 152.1-13.37-102.98-10.33-124.99-34.81-230.94-53.57-231.97-4.78-189.23 8.89-231.18 53.52-164.3-50.72-303-96.95-493.8 388.42-1.74 979.17 227.68 1352.48 73.75 170.32-70.22 168.77-173.32 259.15-286.1 107.02-12.09 252.31 15.84 380.83 10.5 217.04-9.03 468.06-29.02 655.2-143.75 162.83-99.84 101.29-119.85 135.21-283.67 93.42-89.06 344.57-189.56 474.44-285.46 90.08-66.5 159.2-102.59 176.9-218.51 12.33-80.83-21.82-284.57 146.2-191.85 27.46 96.74-93.41 136.89 30.99 183.76 111.87 42.15 884.59 30.86 1034.11 48.16 238 27.55 357.72 107.97 549.62 142.14 201.02 35.81 518.78-19.17 694.08 22zM7339.52 4283.89c317.54-14.09 1651.44-75.51 1857.8 36.32-472.86 116.28-1510.48 369.41-1857.8-36.32zm15172.65 3.85c210.78-105.88 1616.14-92.47 1923.21-64.46-53.18 204.23-707.45 275.16-911.29 242.46-329.55-52.85-682.88-131.56-1011.92-178zM6865.69 3561.75c127.73-58.54 678.07 159.49 832.07 216.97 451.2 168.45 1221.73 119.44 1961.77 342.14 955.31 287.48 24.63 284.72 912.09 751.11 317.99 167.13 165.29 4.54 271.4 316.63 78.39 230.59 729.32 245.1 929.04 228.37 334.97-28.05 172.1-31.15 342.84 162 113.96 128.93 285.04 144.76 446.08 140.43 348.71-9.31 659.15-122.53 966.54-129.12 18.34 323.9 59.63 911.28 2.91 1223.34-273.03-776.45-36.4-835.18-171.72-1076-244.45 122.38-51.27 903.89-20.32 1149.2 31.95 253.2 110.91 1070.48-330.89 996.68 108.64-88.64 170.66-123.44 243.84-251.67 60.17-105.43 115.78-326.64 53.07-427.58-131.03 107.92-26.77 402.7-266.07 534.25 194.74-404.64 90.69-499.48 61.12-919.33-11.28-160.09-131.28-809.51-201.79-898.85-111 172.62 52.03 888.82 43.49 1148.63-6.08 185.09-11.7 366.36-112.41 525.21-45.79 72.23-87.57 127.81-173.88 137.98-168.67 19.91-31.22 1.84-129.27-34.6l-38.38-12.91c-43.55-13.39.49 20.85-76.3-18.94 306.5-381.85 230.92-899.47 139.94-1340.97-61.92-300.41-14.35-398.96-139.52-430.2-134.09 202.86 201.42 1219.53-121.01 1572.95-69.36 76.02-322.65 119.26-425.43 59.79 1-46.27 133.32-298.45 164.77-376.46 88.99-220.74 64.62-272.26 76.37-511.37l-93.33-777.22c-24.91-124.67 7.8-177.73-85.61-213.75-138.3 94-14.68 755.5-44.12 1104-24.58 291.01-107.9 755.72-516.82 622.01 145.34-56.05 224.16-75.15 333.12-218.27 69.81-91.72 54.72-25.65 43.98-126.84-139.54 61.97-193.39 209.43-422.15 262.44 34.37-105.91 124.4-195.71 162.59-328.87 69.86-243.55 118.14-716.94 94.05-963.29-12.08-123.85 16.62-384.34-113.78-426.15-79.77-3.78-155.37 224.73-168.88 304.04-43.13 253.1 173.17 869.27-133.94 1224.83l-232.27-1.96c95.72-40.68 280.35-122.29 260.47-236.6-132.51-37.88-143.65 192.14-410.83 156.65 153.33-197.34 252.14-366.8 266.09-650.22 11.28-229.13 53.63-675.28 13.37-881.87-166.94 52.27-96.03 287.3-98.65 436.03-3.51 199.77-60.11 261.85-137.64 430.69-50.31 109.52-100.33 273.07-176.47 361.64-146.17 170.01-184.73 133.67-343.27 61.71 268.24-40.66 327.21-105.25 421.86-344.44 30.57-77.27 69.61-140.02 22.29-212.72-186.63 187.24-85.74 521.54-560.09 444.13 77.43-197.04 152.45-94.7 356.91-643.53 84.74-227.48 209.88-568 199.61-811.54-129.33 15.75-158.81 139.26-204.6 296.62-44.85 154.18-203.17 1004.89-631.28 923.74 116.12-64.84 208.89-184.44 218.57-322.01-134.61 18.42-275.81 448.86-488.83 198.56 2.32-7.4 395.64-557.49 449.52-638.26 114.56-171.68 438.11-534.3 359.41-733.72-237.47 5.69-565.18 449.02-623.04 678-86.59 342.63-351.63 625.95-733.07 490.75l297.3-180.88c111.32-83.37 55.77-.06 91.33-122.85-185.43 46.79-384.9 281.12-533.07 126.73 257.85-169.22 1178.01-791.29 1185.56-1107.39-475.02 11.84-603 342.56-901.21 660.71-368.97 393.65-668.6 292.93-971.05-71.44 172.5-168.28 1114.26-433.76 1421.44-549.02 69.96-26.25 172.64-58.44 242.46-92.44 141.42-68.82 147.83-103.03 158.48-179.58-643.87-17.87-752.03 259.33-1277.21 442.6-225.31 78.65-454.41 199.72-707.04 87.96-116.16-51.39-519.09-184.52-399.74-380.79 185.74-64.4 533.87 15.58 775.26-62.94 293.66-95.53 391.3-131.33 712.58-133.11 100.16-.56 736.18-28.85 789.94-55.27 94.74-46.56 20.49-197.52-33.8-240.48-71.37-56.45-245.79-64.94-344.99-89.71-354.37-88.48-426.93-42.47-768.1-24.35-447.35 23.77-1965.14 54.69-1961.66-570.01zm15058.64 608.18c41.91.81 569.37-172.62 717.08-199.13 259.44-46.54 564.54-75.57 829.47-99.08 537.62-47.67 930.71-274.98 1436.66-416.09-37.37 343.18-172.42 390.49-455.38 476.81-533.86 162.86-1167.25 184.4-1731.37 136.78-466.9-39.4-598.52 103.12-796.46 100.71zM7234.99 3403.2c89.49-52.99 1716.31 199.18 1928.4 243.72 745.58 156.58 893.27 301.63 1510.29 686.92 489.21 305.49 986.14 633.93 1575.12 668.05 92.91 5.37 146.36-17.28 231.18-10.18 1015.72 84.83 694.94-76.51 1566.9-259.26-66.45 196.85-479.46 575.19-685.68 656.59-302.89 119.54-859.82 231.96-1145.26 35.96l103.24-167.26c-152.85-51.6-1065.03 48.32-1249.92-153.63 85.62-86.24 134.64-42.15 160.43-153.48-145.84-132.38-764.14-316.9-830.33-414.52-17.6-174.84 84.62-15.62 20.61-202.92-61.83-180.98-333.83-276.77-495.49-329.31-433.22-140.8-1335.55-345.56-1785.06-420.5-199.91-33.31-790.68-58.35-904.43-180.18zm10703.55 1495.73c166.88-39.45 644.49 144.56 872.02 166.59 201.71 19.52 316.98-25.88 500.17-39.67 162.03-12.21 133.7 37.95 463.07-31.71 563.08-119.13 957.34-403.56 1436.44-715.55 540.36-351.87 824.31-551.17 1486.71-660.84l1833.85-295.74c12.67 110.59-104.85 119.67-207.64 131.97l-915.65 153.35c-309.32 70.17-2135.79 384.24-2055.48 798.13 15.72 81.08 118.51 114.5-62.09 207.25-161.68 83.02-618.87 219.03-735.72 341.05 37.56 83.02 106.87 88.45 177.12 150.75-196.49 176.77-960.97 131.99-1242.88 158.27-5.97 88.52 58.18 119.04 105.33 190.84-188.71 181.36-791.8 74.26-1036.27 5.89-193.67-54.15-246.38-107.91-398.29-217.43-175.52-126.52-160.67-76.74-220.69-343.15zM6554.72 4089.8c-35.01-203.02-143.42-189.14-389.72-369.67-160.41-117.58-1180.81-592.35-1334.92-860.06 381.21 65.06 1037.33 289.34 1406.91 434.31 438.45 171.97 225.7 96.63 469.43 447.57 103.38 148.85 89.13 140.23 159.03 299.53 59.52 135.68 189.87 130.86 186.69 265.9-124.22-23.73-109.69-45.99-254.39-26.46 35.67 120.95 212.86 174.86 315.18 259.51 116.51 96.39 276.41 94.61 269.49 248.42-75.62 46.23-112.45 47.21-201.91 52.41-113.36 6.59-154.48-21.87-223.6 32.42 77.36 75.22 445.12 135.16 623.58 245.89-36.58 68.57-14.38-25.44-72.85 90.64 141.86 89.15 308.14 33.88 443.94 197.93-237.91 110.84-581.19 58.22-773.37 158.63 29.04 26.89.59 13.71 56.06 36.25l176.79 12.58c80.86-4.2 157.51-16.67 237.58-23.79 139.4-12.4 359.16-70.21 456.22 27.38-14.06 174.31-383.11 228.46-514.2 247.8-1041.05 153.74-958.61 158.04-1899.22-157.9 179.27-44.61 612.19-15.72 734.67-93.42-117.95-183.29-981.08-223.22-1174.28-404.03 173.98-74.82 853.21 32.94 959.12-34.49-29.06-97.01-88.87-74.57-264.74-135.8l-593.57-229.75c-118.63-42.37-171.46-90.94-248.19-125.71 123.17-5.71 369.53-27.6 471.38 11.28 405.17 154.67 840.23 263.08 1296.1 192.97-13.07-66.69 5.53-44.78-79.17-82.68-3.78-1.69-126.22-43.15-132.46-44.59-221.7-51.41-292.03-13.62-865.79-163.32-370.34-96.63-681.01-144.74-916.02-433.01 184.62-61.28 604.75-20.85 783.4 59.88 170.8 77.19 573.99 237.02 706.68 53.56-112.43-84.34-529.47-172.49-702.83-266.33-109.86-59.47-500.23-352.93-568.42-376.8l973.83 232.18c165.17 74.78 303.52 191.46 483.57 220.77zm18180.93 140.21c23.49-81.04 136.82-181.24 177.35-277.82 53.26-126.87 85.79-182.09 155.35-300.76 181.76-310.11 103-322.25 462.51-454.58 429.62-158.17 967.24-350.45 1397.09-448.65-112.22 347.6-1642.42 956.41-1706.46 1249.88 113.75 18.82 234.45-69.96 339.63-130.4 345.79-198.71 691.09-209.34 1103.75-318.42-113.62 116.14-426.84 296.12-574.13 385.52-209.97 127.43-594.21 191.9-699.24 271.16 253.92 307.61 577.12-233.98 1512.75-148.42-62.04 248.95-680.82 397.77-918.1 464.46-545.19 153.23-660.49 122.06-851.98 172.52-252.16 66.47-192.04 89.41-203.51 131.9 1162.4 48.12 1142.81-336.5 1735.94-231.7-160.14 153.71-1061.87 405.02-1082.08 520.13 260.33 52.42 685.3-81.39 948.9 18.48-129.98 166.81-1016.12 227.18-1150.53 403.93 130.42 97.02 517.99 39.08 698.01 84.69-66.74 51.46-178.66 79.2-270.62 104.91-108.62 30.37-168.36 71.86-262.46 98.05-441.2 122.76-1783.8-4.28-1842.75-243.85 78.21-93.14 94.7-64.06 226.71-53.89 213.36 16.43 590.77 65.43 711.96-12.54-103.64-98.83-431.04-23.23-788.85-152.75 86.04-150.28 281.56-165.41 433.5-205.1-12.58-97.9 24.93-51.98-69.63-91.59 321.69-145.88 557.06-149.43 582.23-263.7-137.67-14.99-288.58 19.67-413.56-60.94 50.62-210.45 536.39-350.34 602.97-533.93-146.06-20.57-147.19 19.52-254.75 23.41zm-11515.57-945.1c-451.23-322.92 250.14-922.44 696.06-911.93 223.28 399.78 140.02 226.51 465.62 480.6 170.96 133.43 451.58 233.73 662.86 281.56-60.07 212.09-1064.84 608.69-1263.24 827.35 57.19-331.02 975.82-436.68 1103.16-805.32-159.22-149.31-381.09-130.77-541.87-217.11-157.27-84.46-287.53-215.19-464.7-258.68 171.69-28.99-25.81-243.96-274.96-110.99 78.72 64.47 63.64 43.38 162.72 70.23-89.41 12.33-185.52 8.34-243.77 56.2 160.8 124.94 224.34-20.96 665.25 297.22-1076.71 56.59-763.2 71.96-967.13 290.87zm3054.03-727.57c-136.78.38-354.12-71.06-469.45-12.09 37.32 93.73 203.79 119.53 301.78 171.85 174.56 93.19 216.25 12.46 367.89 86.81 77.7 101.89-62.68 28.31 39.19 167.25 162.39 221.5 144.63-15.62 318.22 478.45 58.46 166.36 351.03 503.3 383.53 669.34-63.99-101.36-369.19-357.34-479.65-372.57 13.77 123.97 311.81 321.97 419.78 503.48l-289.05-73.41c19.91 111.45 168.22 188.55 274.43 245.56 142.42 76.43 176.61 133.6 281.59 237.67l-320.49-102.93c-91.31 174.42 187.15 243.64 264.35 341.91l-169.25 16.15c32.96 143.79 109.76 116.93 316.95 211.54 116.31 53.1 215.95 137.78 287.54 242.92l-35.38 146.39c-106.58-77.29-187.42-217.37-324.06-212.73-111.08 152.7-31.98 221.5-44.43 386.36-141.21-136.43-69.65-352.12-250.36-419.83-26.07 52.67-20.18 11.01-23.05 89.41-5.36 147.36 149.94 259.02-5.52 590.17-33.13-61.56-66.73-118.51-90.95-183.39-72.22-193.48-57.65-159.2-141.42-180.97l-21.86 394.9c-105.33-79.17-6.87-99.34-146.75-142.44-74.47 95.09-46.36 263.6-65.48 387.22-80.45-140.98-178.3-486.44-245.38-559.19l-24.7 76.48c-4.36 60.33 41.9 463.05-28.83 701.44-75.71-129.91-12.51-362.91-170.89-438.56-68.94 88.32 12.41 296.37-19.64 424.35l-276.8-369.92c-59.56-97.99-30.94-98.11-113.96-103.19-43.16 226.34 76.28 402.47-13.37 627.11-120.19-64.68-112.78-378.39-251.23-492.22l-120.95 468.22c-42.08-123.28-31.1-239.71-111.97-327.44-98.9 72.48-54.22 129.35-149.8 170.99-130.39-108.3 9.03-177.68-200.77-245.89-52.29 58.76-56.79 104.33-83.44 171.59-107.53-138.45-117.04-413.35-253.17-513.9-156.35 151.87-101.52 179.09-163.84 315.17-29.28-86.76-61.12-173.82-83.43-262.81-29.08-116-17.4-193.1-110.59-239.55l-35.05 323.32c-124.87-162.82-81.23-335.95-69.4-519.22-94.58-86.26-145.15-87.38 22.57-437.27 155.69-324.78 288.68-218.35 370.06-228.05l151.56-294.49c93.4 321.74 215.39 282.8 303.25 424.8 41.05 66.35 54.65 89.73 104.72 151.86 108.97 135.18 228.95 237.44 330.42 412.05 63.67 109.6 32.1 103.41 142.23 151.01-70.47-347.13-286.16-487-415.7-795.83-39.59-94.33 50.74-191.54-52.22-432.95-80.31-188.37-208.47-140.65-292.68-289.82l210.7 28.06c-24.25-109.02-180.46-240.51-261.2-317.86 109.04 8.09 246.79 13.09 343-34.52-83.3-64.78-305.82-109.21-417.25-202.56 159.82-158.06 749.27-388.44 808.71-510.27-119.46-100.39-917.55-179.09-1039.17-357.9 218.37 43.47 601.26 260.07 816.22 126.24 150.35-93.61 61.96-198.15 212.41-270.38 123.67-59.37 283.05-81.93 310.23-217.22l-1115.2 133.24c-84.17-84.92-2.88-54.58-85.23-107.57l-118.01 57.11c-113.15-63.62 17.62-31.54-85.36-76.7-89.5 64.03-119.84 131.5-200.42 63.01 59.72-89.27 55.31-5.41 84.14-124.62l-156.93 38.21c25.07-291.47 206.81-213.19 426.24-210.84 191.59 2.06 62.5-87.55 581.81-92.31 94.72 151.98 260.56 40.66 627.9 206.15 142.03 64 510.91 183.44 542.31 335.62zm-13520.54 15.34c-244.49-75.7-409.64-222.93-590.66-380.88-162.35-141.67-458.17-230.15-624.89-372.85-129.83-111.12-82.14-116.18-273.73-215.96-65.32-34.03-227.82-179.16-249.8-166.08 451.47 107.42 570.56 230.36 964.14 404.7 777.91 344.56 1854.77 613.26 2411.55 1042.47l333.04 181.15c18.68 10.8 28.78 16.16 47.39 28.88 46.96 32.12 25 17.4 40.29 33.25-249.76-51.85-553.7-343.76-722.06-276.9 30.19 104.54 709.6 435.69 918.5 560.83-79.83 13.42-403.26.05-489.76-17.84-176.99-36.58-170.2-144.58-349.23-131.74 53.25 170.17 157.86 162.03 303.48 219.28-227 50.3-936.7-305.97-1092.77-223.39 66.08 105.97 283.79 130.84 406.88 208.05 159.04 99.72 613.66 160.8 722.54 199.1 233.44 82.1 427.93 160.8 629.11 286.48-250.39 35.94-256.84 84.93-524.78 34.52-146.97-27.64-361.97-123.01-488.86-57.91l386.08 244.2c-57.58 11.2-63.13-18.71-134.13 35.69 58.53 131.88 527.85 152.59 639.4 280.71-117.42 79.45-339.94 17.8-450.47 113.4 8.29 90.34 231.34 200.12 304.26 210.54l-295.28-40.1c14.02 243.63 258.77 88.13 651.93 273.71-193.92 52.53-404.83-32.4-541.17 113.94l422.08 161.02c88.23 34.2 303.82 111.01 381.11 131.62-129.37 7.12-162.33-17.29-270.63-24.58-79.59-5.36-178.41-.65-264.5-4.32-126.4-5.41-471.1-46.6-548 10.84 90.18 65.25 443.95 92.03 583.12 133.46-89.39 29.25-49.61-10.98-133.74 48.32 86.71 108.86 174.56 66.08 284.48 109.3 83.84 32.94 90.3 100.69 246.71 137.29 191.76 44.87 406.41 37.99 575.12 164.52-115.97 113.19-125.12 30.17-369.13 91.1-499.62 124.79-860.47 113.56-1386.65 156.25-349.6 28.36-1516.38-33.17-1792.18-197.96 351.08-141.33 1087.12 1.02 1202.06-40.69 125.26-45.45-1.91-23.7 104.51-71.65 245.85-110.76 1078.4-42.69 1345.59-169.34-50.32-56.73 25.91-7.59-56.93-35.08l-165.81-5.31c-789.69 9.47-2516.21-143.76-3132.99-458.31 313.24-31.35 627.9-11.39 948.02-35.84 794.79-60.76 497.04 121.49 871.43 99.27 36.78-67.19-10.59-49.27 23.67-96.43l337.78 51.73c4.83-5.31 8.85-14.18 11.82-17.97 139.51-179.38 415.81 21.31 539.29-109.68-164.99-74.69-1485.6-171-1791.28-207.13-360.18-42.55-1131.8-336.5-1415.66-549.16 467.47-60.76 2785.65 291.85 2978.03 57.47-58.42-46.49-1576.6-210.47-1821.12-267.55-188.4-44-575.98-219.75-730.98-323.61-95.19-63.77-531.93-369.75-583.76-425.94 255.45-24.69 612.19 193.28 858.22 284 161.13 59.44 215.02 63.62 312.82 22.29l155.93-7.2c152.42 41.94 309.65 120.62 462.65 106.65-33.86-98.8-75.97-92.26-112.03-136.08l576.91 208.57 101.43-27.44-178.18-110.82c265.92-59.24 422.93 73.1 642.57 38.94-38.55-99.71 26.74-17.52-85.02-84.46L3484 3634.76c-997.02-300.25-2033.78-644.94-2715.9-1487.22 357.11-3.53 1050.21 340.82 1371.88 481.04 376.71 164.23 199.05 50.57 328.92 68.33 113.06 15.46 395.96 202.93 461.28 214.79 151.51 27.5 16.53-16.34 143.88-44.2 117.6-25.72 270.61 59.16 378.19 8.08l-698.68-302.9zm25552.98 166.1c64.62 64.61-40.27 58.53 261.46 10.47 29.64-4.71 86.92-12.37 117.05-5.02 100.25 24.42-25.69 20.82 118.4 57.93 95.7 2.51 368.69-271.28 512.46-232.65 79.82 21.46 23.14 80.03 264.27-32.57 90.68-42.34 165.82-76.55 258.63-125.96 254.67-135.59 844.18-398.31 1131.01-400.24-182.66 348.18-984.8 870.27-1357.65 1044.12-360.6 168.16-1541.17 499.64-1729.38 666.59 88.92 56.22 423.5-59.18 627.77-33.54-72.3 72.12-128.08 37.49-170.55 130.96 102.57 59.39 565.52-182.62 687.53-195.25-71.55 114.97-66.24 1.14-107.83 126.97 303.61 32.67 415.02-225.4 623.36-94.2 231.54 145.81 871.63-438.79 1148.12-316.03-1043.98 719.31-907.88 716.67-2216.45 903.3-217.75 31.06-766.66 33.06-914.81 143.14 128.82 138.75 1230.62 25.56 1483.82 2.34 489.29-44.88 992.67-114.14 1486.27-108.32-71.94 153.89-1097.2 534.81-1420.03 573.3-298.37 35.58-608.79 89.57-904.28 118.44-135.27 13.21-821.43 53.29-857.92 146.02 153.98 31.19 336.65-25.21 490.32 21.49 89.25 27.13-33.37 30.56 216.23 25.67 264.34-5.16 109.69 10.63 230.13 68.47 227.09-6.92 192.57-43.96 368.88-87.46l1375.53 10.58-158.24 75.11c-58.36 19.64-111.35 39.41-171.34 58.22-125.88 39.48-247.33 79.38-374.62 110.55-270.35 66.17-545.83 88.56-822.71 129.18-462.91 67.91-861.24 77.85-1319.13 105.01-76.92 4.55-153.51 10.69-230.83 12.39-142.86 3.16-159.48-28.9-218.94 61.95 259.6 25.35 492.04 55.03 757.93 70.1l554.14 53.17c197.18 45.26-14.43 12.93 139.57 101.38 247.82 33.35 963.04-147.34 1191.59 9.59-338.68 149.22-1365.32 263.25-1758.15 235.88-372.13-25.94-1514.43-55.91-1761.04-256.72 303.73-153.98 542.22-122.23 679.71-210.62 97.97-62.99 13.74-35.28 97.09-78.96 109.39-57.32 165.05-17.82 297.33-119.9l-102.34-32.26c-10.53-2.09-57.44-4-73.13-5.3l631.29-134.89c-118.21-117.33-839.44 36.3-1048.52 19.68l774.55-282.24c-84.39-118.88-413.77-99.38-564.57-110.23 311.83-194.5 535.77-91.12 628.63-202.59 61.97-74.37 33-12.65 31.8-100l-296.47 54.27c88.88-39.3 281.48-136.08 315.69-227.13-122.53-98.23-345.46-17.81-472.84-109.89 59.83-109.87 502.76-150.54 629.3-253.2-38.56-94.57-39.21-32.47-113.29-61.36 225.39-162.19 151.56-91.52 272.28-161.92 119-69.42 43.42 13.56 85.94-97.36-162.72 12.48-320.83 87.75-496.32 103.05-198.26 17.27-333.51-35.98-525.48-48.19 515.36-345.9 1159.95-388.98 1363.58-505.16 276.31-157.6 369.34-92.01 413.47-232.81-207.55-16.24-819.12 266.78-1098.55 257.18 137.39-50.19 280.48-79.17 290.99-229.88-134.34 27.25-220.48 130.33-375.43 151.8-35.77 4.96-422.17-3.05-429.69-7.18 314.64-220.14 889.93-401.7 892.27-568-239.99 14.6-490.78 277.57-749.41 319.86l826.05-509.95c314.73-177 1496.54-596.02 1961.36-803.45 270.91-120.88 702.18-421.45 973.07-413.61-73.39 90.02-164.53 117.36-275.8 187.66-119.61 75.58-129.93 143.74-261.4 225.7-185.33 115.54-409.08 228.9-575.92 369.48-481.4 405.58-999.29 444.24-1255.81 633.04zm1710.39-626.07c29.8-164.08 211.02-253.16 355.48-318.61 120.7-54.68 249.14-191.09 360.32-283.08 114.55-94.78 233.91-196.51 355.17-285.65 151.42-111.33 238.32-201.21 286.73-372.17-362.22 35.54-2565.4 1055.25-3070.67 1275.29-1019.27 443.85-580.51 195.54-968.82 199.79l-2202.21 728.32c-201.07 52.82-380.63 95.18-582.95 153.72l-1911.71 242.99c-648.11 107.95-1561.26 403.99-2008.57 907.98-482.5 543.61-1636.86 601.56-2289.81 418.44-1010.05-283.26-391.86-436.84-1045.37-1031.1-163.49-148.68-107.42-252.27-237.53-425.81-149.5-199.4-75.3-267.08-182.39-447.12-152.98-257.24-543.28-528.36-813.68-644.25-335.93-144-22.36-138.85-105.45-232.99-248.05-51.34-275.39 44.31-543.63-87.96-163.73-80.73-432.73-24.21-617.25-15.63-205.6 9.55-352.68 20.78-541.22 109.67-185.29 87.35-306.33 94.19-485.67 155.82-200.43 68.89-657.32 349.78-774.37 528.63-166.98 255.17 21.61 824.97 321.51 855.11 78.15-324.8 288.08-468.98 591.3-253.22-151.88 99.85-686.67 333.69-143.58 368.12-43.54 165.74-202.41 183.54-138.59 412.7 248.77 121.52 374.3-266.64 722.54-214.33 114.2 742.39-887.14 922.63-1426.39 963.07-645.59 48.44-1350.28-44.92-1804.36-545.6-667.65-736.17-2836.9-1022.83-3783.74-976.6-393.72 19.24-2204.46-648.12-2759.4-830.58-348.66-114.63-255.1 25.69-398.12 45.95-79.31 11.22-1152.21-454.5-1267.92-502.98-282.98-118.52-544.16-266.6-820.38-382.84-207.32-87.27-1591.42-618.8-1711.57-620.96 26.69 256.45 456.72 510.14 645.79 665.71 117.61 96.75 233.94 225.19 367.61 275.9 132.46 50.21 312.94 146.76 344.95 289.16-308.83-5.04-960.28-387.89-1272.48-303.71-123.25 512.7 1079.95 1207.91 1470.07 1451.83-315.61 5.89-660.5-121.13-971.72-166.4-102.85-14.97-207.75-20.88-292.08 39.85 41.9 501.51 619.04 674.84 897.63 942.32-293 47.18-590.58-140.86-875.16-45.89-55.92 327.76 789.36 754.11 1048.52 896.03-256.52 38.07-413.37 6.2-690.3 82.5 54.16 469.73 1269.89 538.68 1586.73 713.89-241.15 87.49-682.91-2.25-893.5 119.86 105.49 357.81 803.59 350.24 1101.11 483.41-28.59 89.72-152.12 112.43-43.63 218.35 348.74 340.43 2101.92 361.11 2247.06 424.52 206.57 90.22 1077.6 733.58 1338.35 941.18 615.16 489.76 1033.48 536.88 1231.86 662.33 98.36 62.2 97.46 87.04 221.7 137.94 384.23 157.47 798.79 209.72 1204.67 310.89 265.27 66.09 255.14 185.76 544.3 119.68 5.61-1.28 500.39 106.9 568.95 118.32 252.43 42.01 392.26 8.61 528.69 237.45 228.46 383.24 190.95 153.34 484.21 206.89 87.68 72.02 79.15 151.82 185.59 251.11 121.67 113.53 154.44 94.66 298.62 140.71 138.52 44.23 131.49 114.12 232.73 198.07 146.23 121.25 197.05 33.17 343.1 56.63 34.79 98.65-404.7 307.08-498.98 374.04-352.64 250.41-732.29 505.38-1026.8 815.05-113.08 118.91-152.65 141.02-64.85 308.18 119.74 227.95 1135.42 830.95 1404.29 931.57 128.45 48.07 596.78 181.2 642.49 276.32 45.68 95.05 40.91 239.14 142.42 317.72 49.92 38.63 132.62 55.66 193.11 31.76 116.44-46 27.24-43.87 89.8-159.06l195.07 132.76c53.88 343.12 16.79 789.13 624.71 666.11 12.84-213.58-77.31-178.84-84.11-307.46 251.04-193.41 692.01 46.37 966.66 86.64 178.79 26.22 353.24 60.41 533.18 86.16 281.29 40.26 305.62-10.89 547.14-26.33 371.55-23.78 736.19 9.96 1105.32-89.42 180.35-48.56 246.56-109.69 456.25-130.82 184.58-18.59 378.11-57.05 560.48-32.33-3.07 127.24-102.59 236.03 21.72 343.93 115.59 100.32 209.94 38.69 297.69-50.65 199.43-203.11 196.88-392.81 256.71-645.2 128.38-41.72 263.81-22.92 394.28-57.81 122.98-32.87 173.91-102.36 269.95-166.12 185.85-123.41 395.93-204.97 605.21-290.22 339.91-138.47 271.21-76.06 622.18-274.85 207.47-117.49 335.78-255.87 546.74-348.27 644.29-282.19 418.24-680.39-12.74-996.81-346.56-254.44-716.39-465.76-1067.86-686.8 31.96-336.96 122.82-293.07 372.17-381.55 354.8-125.91 233.91-260.09 396.23-378.49 353.54-45.08 227.22 135.69 473.56-243.34 119.04-183.15 328.46-171.29 550.13-209.51 241.7-41.65 375.23-120.74 608.13-113.66 107.41 3.25 348.68-144.35 560.64-175.8 378.7-56.19 836.41-150.59 1177.6-338.27 205.92-113.28 285.86-162.28 510.13-255.96 343.52-143.51 633.04-356.12 922.69-590.56 69.28-56.06 134.87-129.61 205.59-179.12 83.61-58.58 159.43-73.31 243.9-139.12 261.8-203.95 569.57-517.26 897.14-607.43 176.93-48.7 510.79-31.62 715.34-53.78 303.61-32.89 1304.51-159.23 1470.65-442.64 61.32-104.59-45.82-96.84-97.29-153.75 309.5-144.83 1068.08-174.12 1078.44-534.11l-924.35-76.37c332.34-94.93 1585.09-323.25 1622.98-730.68-175.15-79.29-518.41-25.58-686.2-75.75 176.4-197.11 1124.38-543.27 1036.67-901.89-159.15-72.18-635.19 43.87-855.32 56.89 183.43-209.75 984.85-597.22 835.54-981.95-311.62-49.75-870.17 163.37-1244.11 182.84 284.74-209.12 609.96-368.9 867.07-592.09 163.39-141.81 683.77-585.76 589.16-841.26-185.54-178.97-986.81 286.23-1257.62 286.61z"/><path class="fil0" d="M16478.6 8358.89l108.88 60.7c-27.47 121.47-35.63 131.94-.03 242.77 88.36 7.76 98.36 16.28 166.81-47.2-.97 105.56-28.36 105 40.23 165.85 93.77-8.74 126.77-64.91 124.24-167.9-3.06-124.4-24.04-150.73-127.59-125.43 5.32-146.59-43.49-325.41-120.37-441.74-102.79 28.41-169.75 198.32-192.17 312.95zm239.13-4679.86c-37.7-279.22-200.02-636.33-529.73-610.37-27.71 174.32 136.38 201.57 232.38 304.24 112.66 120.47 154.84 269.25 297.35 306.13zm-1068.83 387l-33.82-140.98c172.5 31.2 390.65 267.44 552.64 176.73-92.89-100.71-688.82-388.33-832.74-373.67-6.48 157.35 223.81 344.01 313.92 337.92zm1061.17 6417.04c121.07-20.52 107.65-147.64 135.8-278.57 25.42-118.32 63.95-227.74 24.16-329.21-136.08 89.96-225.36 449.3-159.96 607.78zm-469.43-1268.49c40.32-97.2 54.34-184.43 13.11-284.76-95.87 49.97-161.28 216.97-151.46 325.05l138.35-40.29zm-745.54-5534.62c-27.22-164.2-183.42-168.72-340.79-158.62 16.97 98.62 15.76 91.81 116.58 111.5 82.05 16.04 151.55 38.9 224.21 47.12z"/></g></g></g></svg>