<svg xmlns="http://www.w3.org/2000/svg" width="320mm" height="150mm" viewBox="0 0 32000 15000" shape-rendering="geometricPrecision" text-rendering="geometricPrecision" image-rendering="optimizeQuality" fill-rule="evenodd" clip-rule="evenodd"><defs><style>.fil0{fill:#d7b56d}</style></defs><g id="Слой_x0020_1"><g id="_2737068157280"><g id="_2209967008784"><path class="fil0" d="M15310.79 13907.82c16.34 9.54 255.88 292.21 305.22 342.33 117.65 119.55 232.9 204.88 352.75 307.44-21.77 1.54-185.68-46.57-218.84-61.25-71.89-31.81-169.97-80.89-228.85-129.48-83.35-68.76-298.27-351.06-210.28-459.04zm-974.59-34.99c96.19 1.27 307.09 259.66 390.98 331.38l403.83 325.59c-93.68.45-409.48-173.95-492.21-237.47-93.52-71.81-337.44-281.14-302.6-419.5zm1577.87-335.7c20.93 228.39 36.49 283.29 215.26 432.9 54.71 45.8 328.56 245.42 369.45 225.41-47.75-41.94-97-107.08-152.58-156.99-129.68-116.46-418.99-493.1-432.13-501.32zm-1124.77 242.64c-20.05-102.74-259.42-323.24-373.87-359.09-149.28-46.75-139.27-23.19-254.47 57.56-69.98 49.04-69.66 162.83-61.91 244.83 18.82 199.91 98.83 346.83 234.56 494.93 102.06 111.37 282.04 333.83 446.4 244.76-11.73-17.54-298.14-178.15-354.73-234.42-63.6-63.25-83.45-95.69-122.63-176.95-51.2-106.11-28.87-144.82 2.31-240.76 161.4 18.54 178.36-18.38 331.83 70.38 20.05-12.49 53.67-47.11 73.29-65.15 58.85-54.04 38.83-13.3 79.22-36.09zm1536.49-106.02c91.12-266.2-361.19-758.59-568.25-887.25-60.48-37.57-208.54-26.52-276.67-3.14-125.51 43.09-122.31 84.2-154.97 210.78-48.14 186.57 68.73 119.89 204.99 489.29l-44.12 32.9c-40.11-38.12-57.02-199.75-334.72-357.96-460.09-262.1-480.64 287.2-302.49 594.48 38.33 66.13 13.67 58.4 97.71 72.05 286.75 46.51 100.39-67.19 288.44 166.3-6.95-48.78 6.76-134.87 38.51-167.23 30.81-8.73 205.13 33.71 249.85 57.91 72 38.94 133.93 106.12 186.81 152.92 14.27-64.98-30.28-135.77-54.62-197.39-12.26-31.07-22.89-64.64-37.83-93.86-12.37-24.18-46.48-49.65-49.24-71.46 66.38-47.34 66.76-7.35 106.77 35.29 34.45 36.73 57.03 53.32 87.94 87.84 12.53 13.96 66.98 91.44 74.04 95.6 29.09 17.19 113.56 16.28 130.01-1.14-90-60.38-146.55-339.83-102.32-450.68 37.86-21.98 94.37 2.77 145.15 7.25 52 4.59 86.27 28.92 123.68 59.01 39.06 31.44 58.1 40.81 104.03 85.6 17.95 17.52 77.02 80.68 87.3 82.89zm709.18-139.4c-254.47-97.17-654.65-306.86-627.79-637.01 152.63 24.75 540.45 494.92 627.79 637.01zm2079.43-497.92c67.82-145.2 341.39-435.21 528.35-396.29-5.72 88.29-144.93 215.43-213.72 258.26-43.17 26.88-262.52 163.23-314.63 138.03zm-2305.54-626.61c125.43 48.17 183.34 7.29 371.52 166.42 76.1 64.36 216.21 197.56 231.56 305.56-50.31-1.04-312.68-138.33-373.46-171.71-108.91-59.75-238.34-129.26-229.62-300.27zm1894.62 423.71c180.68-52.76 238.97-94.42 396.99-198.33 73.8-48.54 188.94-143.86 239.74-220.6 29.89-45.15 22.11-70.61 40.33-108.74-56.75-25.12-190.51 10.09-228.76 59.31-42.63 54.9-112.4 116.22-149.5 164.39-45.53 59.14-280.11 260.4-298.8 303.97zm-1562.6-433.99c-54.77-21.3-146.72-62.1-186.25-78.79-58.12-24.55-63.61-25.19-107.58.76-18.5 10.94-64.87 21.43-83.46 42.83-44.44 51.22-9.45 182.42 32.49 237.66 70.87 93.29 116.33 81.42 170.68 135.09-76.22 43.61-101.49-14.74-184.27-55.04-39.19-19.1-126.88-89.74-164.66-120.62-52.62-42.99-107.24-85.11-162.62-121.77-31.51-20.88-62.4-37.38-91.02-55.76-42.35-27.21-51.1-42-83.09 9.46 4.17 8.14 272.19 194.96 305.01 222.22 99.26 82.36 176.41 217.84 171.49 356.88-16.93-3.78-124.15-97.57-180.1-122.69-54.27-24.36-161.9-42.8-229.14-18.15-2.51 4-9.8 115.12-9.24 139.09 2.82 122.77 115.39 257.39 188.89 335.87-167.12 54.31-519.06-375.15-597.23-511.01-78.76-136.89-146.12-264.94-38.29-410.98 98.86-133.91 247.58-104.5 378.39-89.3 5.86-55.31-78.94-163 48.57-279.88 104.79-96.08 199.04-130.94 337.18-91.01 205.44 59.37 481.94 243.29 484.25 475.14zm1055 88.41c31.77-71.58 216.02-228.3 279.94-295.12 74.12-77.49 242.45-257.82 355.69-201.1 13.55 170.57-497.89 481.18-635.63 496.22zm-529.34-546.69c98.89 29.95 366.22-145.29 452.62-199.75 93.01-58.64 268.61-268.36 302.02-368.34-245.72 41.06-242.76 121.38-400.96 261.85-62.25 55.26-115 108.04-182.09 161.36-39.43 31.35-146.5 112.43-171.59 144.88zm-328.93-398.57c3.4-81.37 108.54-327.89 141.6-397.56 45.08-95.12 156.96-257.66 265.62-271.21-16.72 69.66-59.6 110.01-100.93 166.08-34.59 46.91-77.42 106.71-108.02 161.96-28.59 51.56-176.7 321.16-198.27 340.73zm-5195.75-1226.53c43.15-6.63 39.63 20.26 47.3 44.92 12.67 40.87 19.54 41.38 40.82 68.14 26.27 33.11 25.38 55.33 56.51 70.38 27.83 13.45-14.32.05 56.75 44.09l97.14 70.06c47.48 32.72 103.26 32.8 142.07 79.01-30.22 102.26-90.01 38.04-143.97 10.41-23.32-11.94-49.54-34.06-69.88-47.64-38.28-25.51-29.8-10.78-70.41-53.32-26.86-28.12-81.52-96.6-94.13-138.17l-54.39-121.8c-3.85-7.22-5.96-24.5-7.81-26.08zm1596.46-2801.74c18.55 14.74 9.17 5.67 28.28 16.93-.58 4.08-4.45 20.42-4.35 23.17 1.34 40.32 29.79 16.26.68 57.29l29.08 21.74c-21.28 44.43-4.79 3.62-26.29 29.22 14.63 15.61 30.35.67 36.81 28.46-29.13 32.04-21.47-4.99-41.14 22.65 21.95 15.83 41.44-8.82 62.91 21.9-19.32 29.68-7.09 11.35-31.97 15.7-32.6 5.69-16.28-9.88-39.42 16.71 6.93-36.52 20.78-68.26-24.86-70.08 28.43-16 30.21-14.76 20.17-49.79l-70.06 20.03c-42.57 9.74-28.67 27.93-62.53 1.72 40.07-32.61 140.73 4.55 138.73-67.74-39.06-2.78-89.28 17.04-122.47 37.9-13.73-16.96-3.05-3.81-11.48-10.58l-14.25-10.7c30.88-19.79 29.41-11.23 63.16-14.25 14.07-1.24 19.86-1.67 30.57-5.15 27.11-8.79 13.42-3.23 29.93-17.1-20.27-14.82-12.91 5.39-56.93-28.91l54.85-13.24c-21.3-50.73-6.16 24.74-52.48-41.93 102.43-12.05 9.12-23.5 79.69-17.75-3.34 20.65-.05 20.17-16.63 33.8zm6840.01 1775.38c13.74-68.73 2.47-254.1 1.83-335.01-.78-101.48 7.65-236.9 15.27-339.08 12.83-172.43 30.88-1113.57 19.78-1278.61-13.59-202.55-38.62-410.08-84.91-607.93-42.64-182.18-88.42-372.3-153.09-547.96-57.67-156.64-138.01-307.34-202.31-461.64-79.46-190.64-144.15-384.19-207.65-580.57-32.39-100.2-58.81-20.06-206.13 80.94-7.58 5.21-4.46 2.97-13.77 8.8-16.69 10.49-46.35 26.73-48.5 54.42 6.42 38.8 166.35 325.75 197.06 393.8 133.1 294.77 206.65 584.62 277.47 897.99 10.03 44.38 72.76 486.07 70.73 507.79-58.72-11.7-46-31.93-65.58-82.25-16.46-42.38-111.99-182.51-144.34-227.78-12.01-16.82-27-25.92-31.75-33.35-8.38 96.26 54.36 330.65 79.59 431.99 22.81 91.63 53.58 214.72 85.81 300.6 15.6 41.51 42.21 47.74 40.58 79.27-59.79-9.18-58.23-40.47-95.64-68.52-48.57-36.41-61.39-37.91-122.61-48.73l41.71 561.03c-67.42-15.19-41.52-16.13-63.6-76.04l-142.87-231.93c9.01 79 51.74 178.6 62.68 291.58 5.67 58.71 19.56 272.1-20.93 296.82-42.24-1.61-22.84-75.06-101.89-84.77-73.95 145-8.79 410.61 23.97 571.05 7.73 37.98 48.87 156.7 48.13 169.57-49.61 28.63-109.91-96.01-298.45-98.24l-314.93-.74c-84.1 3.19-42.13 5.46-78.97 20.93-19.37 8.15-24.12 2.36-45.91 11.05-24.2 9.64 7.18-3.35-19.62 10.65l-88.82 44.07c-127.63 84.1-230.76 176.24-308.71 333.73-61.72 124.73-16.79 230.7-53.82 376.44-50.61 199.25-141.88 419.69-309.17 552.82-62.41 49.67-177.97 165.44-253.61 165.97 2.22-23.66 230.86-270.73 262.26-318.9 58.33-89.46 143.96-326.36 95.39-453.53.14 230.37-181.99 502.93-359.05 615-67.03 42.42-108.92 104.32-109.7 196.48-48.16 2.47-28.04 11.51-60.26 21.87-15.78 5.06-53.46 5.82-70.13 9.5-49.48 10.97 3.97 10.06-58.68 19.16-112.79 16.37-183.09 55.35-250.5 144.44-74.38 98.27-162.29 368.89-64.57 494.56 75.84-141.55 197.62-303.98 386.74-251.95 21.61 130.71 29.12 177.65-28.14 292.77-45.49 91.55-112.68 172.51-180.28 232.5 121.19 64.5 161.78-70.29 257.18 2.62 49.94 38.16 13.23 176.17 69.05 259.35 17.87-17.05 54.76-40.35 61.1-64.34l-56.75-17.17 108.65-357.17-79.41 89.28-38.59-48.3c26.03-44.88 84.64-110.91 114.61-158.31 22.5-35.66 61.13-129.12 74.71-178.55 42.61-154.83 48.52-346.83 22.76-501.92 61.82-27.39 70.54 40.74 91.99 89.87 18.36 42 36.79 98.55 42.88 149.77 7.86 65.99 9.21 247.18-32.33 278.44 49.32 12.99 162.47-107.34 501.9-37.49l-5.47 59.39c-109.26 5.71-158.3-38.91-285.59 21.62-92.42 43.95-138.04 59.84-214.52 135.6-112.11 111.06-223.03 298.42-232.09 459.45 67.11-30.11 98.51-123.25 191.75-163.31 66.99-28.77 211.79-57.85 276.94-26.8 13.89 84.5-43.09 251.56-83 330.36-65.67 129.63-198.77 197.14-205.02 209.57 103.43 11.3 224.72-81.96 287.53-142.04 165.9-158.74 101.71-208.84 203.68-181.66-22.14 157.97-235.05 237.46-193.7 517.6 42.87-23.61 123.09-118.57 167.51-136.96 49.81-20.64 198.58-23.55 253.07-14.49 18.5 75.6-20.58 250.1-77.73 314.21-17.15 19.26-65.08 37.08-69.11 64.7 140.33-76.54 178.35-73.56 297.17-179.95 85.47-76.56 153.01-257.64 199.3-298.24l52.12 4.67c-19.7 163.98-401 510.63-371.77 648.85 32.07-2.9 152.37-166.08 192.49-195.49 61.79-45.34 229.89-53 292.12-12.82-2.72 175.58-127.96 275.82-143.79 335.08 112.73-24.87 307.85-366.99 402.9-441.86l40.74 40.73-357.29 438.96c42.94-6.54 109.87-43.77 172.21-56.45 245.93-49.99 164.03 46.09 96.81 203.49 131.81-29.82 141.5-26.14 225.01-129.09 60.19-74.17 87.3-133.07 118.99-223.6 140.96-402.65-193.64-222.95-242.08-298.49-4.97-10.56 40.17-297.18-66.26-355.77-178.95-98.5-293.53 54.56-340.58 59.41-48.33-85.01 142.6-324.11-87.83-463.38-185.59-112.18-337.3 14.79-470.11 129.75l-38.21-44.27c35.68-94.87 178.95-122.27 119.09-363.03-21.34-85.95-78.95-73.74 1.59-117.23 27.95 16.28 55.17 68.93 69.6 99.77 21.26 45.54 52.55 42.42 99.86 60.51 82.48 31.58 147.44 61.8 231.89 96.47 112.58 46.21 107.86 64.65 155.97 144.04 44.82 73.93 40.09 236.24 54.55 252.52 50.64-.3 106.54-58.45 223.08-26.33 89.9 24.77 109.67 78.65 133.39 158.54 8.99 30.35 56.81 208.88 62.12 218.52 22.6 40.94 146.98 25.67 186.91 37.64 21.65-263.1 46.82-408.85-67.71-657.09-43.65-94.6-240.56-384-312.76-461.07-189.64-202.47-418.72-376.19-676.09-484.12-132.35-55.5-112.78-65.24-215.53-154.55 35.64-78.86 43.85-34.8 83.24-12.8 17.9 10.01 226.48 69.43 310.05 112.92 66.39 34.55 147.4 62.47 212.63 101.44 52.28 31.23 141.87 92.45 190.25 115.66 55.69 26.72 304.74 229.3 343.08 278.59 86.28 110.96 185.33 237.44 274.44 345.85 304.01-226.37 506.58-902.16 463.59-1267.37-30.47-258.85-124.35-385.05-295.74-565.73-105.7-111.46-213.35-225.91-328.1-328.26-52.52-46.86-92.88-16.55-70.6-105.14 64.05 10.97 249.04 110.61 316.03 144.24 101.68 51.03 174.23 136.7 261.12 201.1zm-8053.55-2535.9c1.62-18.45 93.09-196.5 105.35-209.51 43.93-46.54 87.43-123.13 113.25-192.36 9.5-25.52 165.24-310.68 206.03-407.11 132.38-313.13 270.6-587.26 272.31-935.76l38.47 14.97c10.02 136.48-47.42 148.72 6.09 200.03-36.82 15.67-32.98 25.97-42.03 72.95-17.44 90.22-29.67 164.55-64.24 260.38-41.91 116.12-81.23 231.88-133.48 354.46-13.54 31.77-21.11 54.2-36.55 80.16-36.94 62.03 3.39 23.39-32.28 76.02-32.01 47.22-51.63 109.54-80.9 153.68-38.35 57.82-94.52 183.22-105.44 200.91-16.71 27.04-45.83 41.13-35.98 97 3.84-76.18-158.08 216.55-210.6 234.18zm765.75-1681.42l188.79 172.3c-11.95 62.74-293.84 389.1-364.02 812.43-56.41 340.28-36.33 695.9 97.27 1017.37 44.17 106.34 143.47 269.6 200.71 381.9 137.25 269.26 230.05 588.06 298.36 878.52 18.6 79.13 34.92 162.45 49.08 242.52 7.9 44.87 21.67 74.82 25.44 122.59 4.56 58.26-6.25 78.12 60.31 83.07 3.64-36.22-13.29-39.55-4.55-84.06 6.15-31.37 18.28-63.87 23.48-95.96 7.77-48.04 12.64-160.58 35.49-188.6 121.29 12.83 71.14 290.94 71.14 409.09l3.91 400.81c-4.48 29.53-21.01 33.03-21.34 64.48 63.28-.19 35.42-22.31 135.33-129.64 39.15-42.05 86.14-109.95 140.91-140.81-11.57 185.91 30.37 304.6 171.21 405.86 21.6 15.55 98.7 68.16 142.24 51.04l48.33-358.25c41.36-.02 91.99 94.35 152.47 162.8 128.58 145.56 330.23 352.15 468.92 480.94 99.26 92.22 205.07 219.74 276.1 358.63 79.15 154.79 166.88 261.77 157.91 477.02-52.18-13.26-135.73-69.23-291.68-102.61-113.06-24.21-201.62-22.22-292.85-50.24l-27.77 58.98c343.67 97.36 477.04 351.18 622.69 645.96 84.94 171.91 132.78 237.4 270.17 372.59 119.69 117.75 252.22 154.12 341.93 288.62-41.47 54.77-70.88 135.83-81.69 191.4-13.88 71.25 6.93 191.73 2.17 214.06-213.3-69.12-347.26-15.81-426.04 180.95-34.33 85.73-24.62 137.04-47.53 207.72-17.61-.64-45.48-20.02-93.86-20.63-80.8-1-161.45-.86-235.5 63.06-125.3 108.19-117.62 222.8-165.95 366.62-156.72-53.97-250.15-92.91-417.2-37.66-194.82 64.43-192.14 274.41-214.89 306.93-158.48-86.14-250.79-33.67-388.35-17.55-28.36 3.33-73.71 5.91-98.16 12.49-11.7 3.14-27.96 11.27-29.03 11.27-21.1.03.72-14.22-25.25-16.06l-72.48 2.5c-28.05-55.79-104.8-84.25-163.56-121.13-207.87-130.58-140.42-130.11-294-289.63-49.64-51.56-95.19-103.6-142.42-157.25-178.34-202.64-454.08-391.64-575.54-621.64-170.62-323.06-216.34-610.14-86.78-958.83 51.12-137.6 155.23-240.3 253.18-345.57 169.25-181.88 327.38-221.94 347.97-248.94l-27.45-36.1c-125.48 35.69-166.89 113.44-467.67 144.59-200.06 20.72-342.28 11.43-486.57-139.54-143.17-149.81-153.1-311.3-132.92-508.92 18.2-178.12 46.05-244.72 84.89-396.67 15.74-61.55 44.99-59.81 60.46-86.54l-49.67-41.81-163.29 182.85c-13.21 17.42-16.19 26.03-32.58 44.28-13.88 15.46-41.75 79.49-59.71 85.64-11.99-59.69 7.48-141.19 18.27-198.66 8.96-47.6 50.78-161.89 51.07-165.28l-55.62-16.5-87.43 139.62c1.05-68.56 22.14-167.1 27.9-239.84 4.02-50.61 45.35-183.21-20.93-188.31l-67.21 169.03c-7.06-147.74-64.86-186.5-33.39-352.34 24.45-128.99 32.45-214.69 68.05-331.42l-45.49-38.25c-21.17 22.01-34.39 161.41-87.93 162.01-.1-146.39 7.57-217.69 48.23-348.93 32.19-103.9 58.6-214.15 92.86-315.88 34.46-102.21 81.61-214.22 112.02-311.92 28.78-92.28 126.87-249.07 90.21-278.7 46.85 3.46 27.67-6.49 84.15-123.15 74.61-154.15 144.21-297.59 258.91-428.38 57.93-66.04 337.03-489.6 355.26-553.81 13.1-46.05 113.53-204.35 142.76-287.1 37.57-106.21 59.49-109.33 104.6-254.64 7.72-24.92-.49-.29 14.46-32.76 45.13-97.89 192.89-600.4 178.69-712.03zm2845.51-4105.22c-.43-169.95 19.37-191.11-109.72-306.86-59.99 61.14-131.29 126.1-182.84 190.07-25.4 31.51-144.57 214.87-160.33 221.63-41.29-50.23 27.35-228.36-73.01-325.31-114.97 76.66-117.83 518.71-160.63 578.2-25.72-9.61-103.56-285.89-163.21-340.24l-103.59 445.54c-46.91-16.98-89.08-170.73-137.73-210.01-61.35 108.28-221.17 218.92-273.51 325.59-19.96 40.68-57.29 88.76-83.42 127.95-110.24 165.37-207.91 345.86-296.29 516.37-5.33 10.31-20.26 46.69-28.38 64.27-18.3 39.58-29.95 41.86-30.63 47.73-4.05 34.91-118.15 299.07-141.11 354.84-22.11 53.77-152.75 502.98-167.35 521.58 29.18 2.63 69.19 6.44 90.38 14.94 15.99 6.42 11.52 7.14 37.33 15.04 52.22 16.02 12.72 2.92 39.04 17.81l102.67 44.3c68.03 40.24 139.17 82.95 198.76 136.95 9.85 8.96 18.81 16.88 30.01 28.01 4.1 4.05 49.91 52.14 50.5 52.56 85.49-26.45 358.22-561.34 428.66-683.49 96.55-167.47 251.92-326.34 403.37-435.47 44.31-31.93 124.05-124.39 168.85-85.8-19.65 24.48-49.7 23.68-75.19 61.62-31.06 46.2-37.57 35.56-73.4 65.55-87.58 73.29-327.57 420.93-324.02 513.59l115.81-2.5-134.98 126.53 16.05 38.54 98-59.01c27.1 33.14-25.39 71.57-36.95 110.44-7.97 26.82 2.42 127.34 3.09 165.57l160.03 8.72-23.88 168.21 106.11-36.34c55.74-12.75 6.84-2.58 36.89-15.86 24.32-10.76 16.7-2.82 41.57-10.92 44.22-14.39-9.44.18 34.52-18.22 70.05-29.27 354.75-104.95 400.61-88.64-14.15 33.74-25.52 20.58-49.35 41.52-19.03 16.75-.48 7.37-19.86 13.52-23.21 7.36-4.97-7.97-37.51 8.11l-125.37 63.28c-53.73 24.03-94.36 67.46-153.48 89.53-37.42 13.94-44.54 22.6-77.44 44.34l-126.2 79.56c-181.22 115.84-441.54 331.16-583.86 475.75-23.94 24.34-28.69 64.13-55.72 66.18-42.71 3.25-14.11-39.37-16.21-75.11-10.19-172.93-129.65-408.8-254.87-504.49-72.56-55.44-77.42-74.31-178.15-129.03-30-16.31-51.37-28.71-89.97-38.9-59.83-15.8-5.27-7.36-47.35-20.77-86.61-27.61-441.36-5.47-467.75-23.92-56.67 41.73 16.56 18.14-60.67 34.38-43.41 9.12-17.92 5.66-52.6 23.02l-10.24 4.94c-1.45.78-3.3 1.81-4.7 2.6-1.35.76-3.14 1.89-4.45 2.66-126.39 74.9-247.2 163.66-314.08 299.55-121.24 246.38-113.29 397.77-48.97 662.68 87.91 362.08 323.24 690.76 628.68 897.84 13.84 9.39 55.55 29.68 61.74 42.42-29.89 53.19-156.54 114.61-282.96 316.3-198.79 317.13-199.39 626.39-113.73 977.64 21.82 89.43 130.14 352.09 198.36 405.08 85.82-74.27 59.03-217.65 149.45-233.26-4.54 47.38-21.58 94.37-27.46 144.61-6.63 56.7.33 112.95-5.5 169.06-9.76 94.37 7.3 212.44 24.68 305.31 15.22 81.16 139.87 473.05 202.01 494.32 54.1-51.43 53.73-321.31 79.47-361.14 75.56 22.73-4.62 129.26 66.7 373.27 33.25 113.84 72.72 218.03 126.74 325.26 124.57 247.32 152.66 228.47 282.68 397.58 17.44 22.68 32.79 140.81 46.08 186.05 24.06-27.23 48.09-305.01 42.8-368.04-5.29-63.4-38.4-75.83 37.41-88.18 11.5 188.97 177.72 509.25 297.86 648.17 154.64 178.84 301.7 336.63 481.81 475.48l280.5 193.95c83.97 51.45 192.72 142.17 261.5 212.37 262.36 267.68 338.12 554 373.41 590.66 71.06-138.17 256.81-351.82 375.74-431.39 19.39-12.96 34.96-23.7 50.55-38.73 23.7-22.91 23.91-21.09 52.16-35.25l159.11-90.66c74.11-35.39 210.4-81.62 269.66-115.49l76.8-48.17c53.78-33.54 123.41-71.8 161.14-119.71l11.22-17.71c20.09-25.83 29.89-12.55 55.46-44.41 55.72-69.42 96.75-120.43 152.5-204.23 63.57-95.56 80.78-140.91 92.23-272.05l47.67 15.89c-.01 97.86 14.35 171.2 5.57 267.59-7.92 86.81-63.72 184.35-67.11 221 70.87-13.79 213.61-142.11 279.8-204.31 242.86-228.12 487.93-647.33 453.93-990.55 84.88 17.37 45.78 108.85 49.12 199.63 2.73 73.55 22.69 163.36 24.22 235.34 66.02-47.1 187.53-329.83 226.16-428.28 31.72-80.85 90.12-296.85 88.58-390.76-1.03-60.03-32.87-101.79 29.96-121.17 12.93 18.06 52.49 360.1 94.99 409.6 29.08-8.34 313.11-458.91 341.57-516.85 43.74-89.01 105.55-190.8 143-289.01 7.92-20.79 24.38-54.71 29.31-71.46 18.82-64.06 3.76-22.51 32.8-77.2 17.87-33.65 43.84-121.85 56.91-162.06 174.39-535.98 212.15-909.06 43.64-1460.15-132.84-434.5-353.66-729-658.88-1057.83-196.16-211.35-158.43-410.98-137.2-668.07 11.45-138.31 94.45-180.28 153.47-264.03 27.71-39.32-10.04-19.96 110.66-75.43 39.23-18.01 96.52-46.7 156.26-33.95l44.46 80.32c55.5-48.41 20.26-35.91 93.76-54.27 97.71 145.64 28.85 224.78 79.86 232.9 28.72-3.13 42.32-67.32 45.36-97.8l59.37-12.86c3.41 40.27-17.4 7.83-2.71 70.31 37.93 161.54 53.54 27.69 77.59 104.41 10.76 34.19.19 52.91 9.34 93.36 52.03 229.62-25.29 427.06-185.08 585.96-45 44.76-111.72 101.8-174.03 128.42-28.73 12.27-46.72 20.15-56.48 45.52 29.08 73.1 101.09 161.91 144.28 220.66 113.59 154.62 122.69 109.34 267.15 13.47 173.73-115.28 376.73-412.29 369.32-622.84-2.77-78.22 25.55-204.37 9.25-328.66-35.96-273.85-142.8-564.5-352.89-740.2-67.97-56.84-144.83-105.14-237.98-127.39-65.23-15.59 14.69-19.8-66.38-23.32-28.44-1.24-68.57-2.57-83.14-3.84-44.43-3.88-230.47 5.88-289.06 18.28-46.16 9.77-124.54 55.27-177.03 86.79-1.53.93-3.34 1.98-4.88 2.91l-19.66 11.22c-133.41 81.13-233.22 190.53-299.14 342.87-59.57 137.6-48.32 152.36-48.46 316.32-.23 292.04 60.14 204.27 67.06 298.75-67.29-9.39-87.02-81.61-151.27-169.99-48.37-66.5-209.78-221.6-287.82-280.35l-319.47-253.18c-63.94-44.39-155.31-92.01-232.25-125.23l-89.25-39.31c-32.71-14.18-29.68-.17-63.92-18.17-20.9-10.98 11.19-9.59-68.05-14.47-32.9-2.03-78.06-17.41-118.02-20.69-39.25-3.24-251.89-21.03-259.4-41.92 18.3-33.75 213.73-6.7 256.75-2.16 107.15 11.32 62.41 1.93 104.19-26.25 27.56-18.62 96.99.86 132.38-28.76l-105.11-142.47 146.08.97c-25.86-68.73-4.45-63.1-63.64-121.72-45.62-45.17.74-18.33-53.87-39.93-22.13-8.76-51.06-18.55-51.9-41.09 87.55-33.33 102.92 12.75 170.33 19.7-2.79-107.77-87.65-211.86-142.84-290.78-32.91-47.1-66.99-50.53-76.05-76.67 37.38-7.11-1.4-23.51 47.44 1.61 21.38 10.98 33.43 19.96 57.75 26.84-16.64-114.1-219.14-322.82-336.75-390.36-64.29-36.9-198.66-51.18-208.13-120.11 50.94 14.45 102.09 29.89 148.46 42.79 46.57 12.96 35.57 7.27 72.88 23.08 22.06 9.34 16.63 3.89 35.06 10.26l64.98 25.96c51.06 17.56 114.93 53.63 164.44 84.4l9.49 5.8c7.22 4.32 8.52 4.73 14.45 8.35l135.69 95.5c106.86 90.14 195.25 174.16 261.46 308.73 92.66 188.32 175.38 304.41 293.75 458.47 80.5 104.76 228.95 252.99 331.7 332.74 15.41 11.97 37.89 13.67 62.01 31.27 29.36-69 180.45-260.67 152.54-318.59-46.61-96.6-80.69-205-129.81-300.35-50.23-97.57-96.7-211.96-145.86-313.94-52.73-109.34-123.2-226.37-171.29-332.42-49.19-108.45-121.46-219.14-179.88-324.36-29.03-52.3-60.35-105.69-91.09-156.82-15.44-25.7-30.35-53.82-45.7-79.05-17.59-28.95-24.59-46.96-46.69-70.17-66.75-70.15-116.52-171.39-179.64-252.67-45.64-58.77-118.98-152.82-149.12-227.62-10.22-25.38-23.75-95.01-43.42-101.83l-48 138.43c-61.03-14.37-133.51-287.84-162.08-304.7-76.83 24.28-80.27 146.87-124.75 134.39-.25-.14-37.65-79.96-37.9-80.48-13.2-28.2 2.53-18.11-14-44.14-.97-1.55-31.53-22.87-31.62-22.89-23.93-1.61-45.83 134.5-76.45 151.02-13.98-4.85-46.85-197.44-54.34-226.83-31.05-122.17-48.22-146.92-150.3-222.24-28.25 56.59 11.76 48.68-82.28 180.2-25.41 35.5-46.37 55.54-61.66 91.02-15.91 36.92-19.58 82.32-44.54 110.58-35-18.59-153.53-384.27-220.4-403.83-14.33 28.63-47.35 198.42-54.15 230.4-10.63 50.2-82.44 181.86-135.51 184.97zm96.82-261.83c-32.15-28.85-72.4-167.31-88.43-208.98-2.94-7.71-80.31-168.73-81.59-170.19-27.11 12.8-162.76 435.52-301.35 481.58-.15-71.6-25.75-179.63-45.95-229.34-14.24-35.15-60.38-172.59-76.8-178.85-3.43 2.24-155.39 487.42-203.84 559.9-32-41.66-146.35-312.78-203.64-319.45 20.95 76.88 6.49 237.11-2.95 302.02-4.45 30.62-30.68 239.79-56.28 246.47l-74.25-198.33c-56.65 30.16-587.72 734.27-629.62 819.39-31.48 63.92-85.38 129.21-128.16 202.11-42.24 72-81.25 157.18-116.06 222.3-100 187.04-108.6 255.06-174.26 385.1-12.08 23.89-26.06 45.06-6.87 64.52-22.75 3.43-18.65-4.32-31.85 41.32l-63.27 181.06c-116.01 382.12-30.36 199.56-191.02 252.8-45.51 15.08-86.61 5.42-129.93 17.44-36.38 10.09.48 7.22-51.95 18.57-48.24 10.44-151.35 59.28-202.11 83.16-112.17 52.78-194.61 140.88-280.89 232.65-181.59 193.16-311.08 614.17-243.95 876.08 53.35 208.05 101.95 320.13 240.69 481.8 36.78 42.84 54.84 29.44 51.97 90.07-8.58 181.71-74.28 458.68-143.11 610.38-106.31 234.34-476.9 901.04-628.04 1094.73-187.49 240.28-284.93 460.64-418.56 727.28-50.99 101.7-108.95 325.01-145.65 388.4-45.03 77.86-111.18 455.22-122.02 479.21-11.36 25.14-13.05 61.82-19.03 81.84-50.31 168.76-44.87 545.38-22.29 704.08 47.76 335.67 113.34 607.48 230.71 924.18 47.83 129.13 105.87 275.68 161.09 401.23l283.06 760.31c41.53 159.47 65.41 309.94 114.23 470.73 78.35 257.91 206.27 549.14 361.8 770.17 31.86 45.25 242.78 217.13 303.07 273.66 202.99 190.23 377.67 391.63 517.64 628.57 92.58 156.75 116.3 241.57 185.84 397.58 102.28 229.46 276.06 514.51 458.76 688.18 104.44 99.29 178.09 188.48 319.14 242.79 93.3 35.91 342.39 44.92 386.93-13.92l-159.26-111.64c80.88 37.82 404.66 147.3 474.48 92.85-6.25-61.34-158.19-222.96-204.42-267.56-44.47-42.94-68.35-84.94-108.23-132.25-29.52-35.01-118.45-103.44-84.23-140.45 3.3.11 140.31 47.37 192.06 54.39 64.15 8.68 122.23-14.92 176.75-22.26 55.18 168.92 157.42 327.81 320.55 416.5 84.55 45.98 470.93 213.14 533.32 120.11-31.95-81.66-337.25-317.86-273.09-432.64 37.27-66.62 34.25-121.84 104.45-133.87 201.26-34.48 160.16 2.49 320.8 110.42 80.26 53.94 231.99 137.24 339.06 156.83 2.82-80.24-79.9-292.83-120.09-368.34-49.27-92.66-46.35-83.35-44.06-181.5 1.95-83.83-4.96-162.76 8-247.31 45.13-43.58 110.74-65.34 163.61-83.96 62.73-22.07 94.56 15.54 164.43 59.81 55.91 35.44 325.65 160.6 378.35 128.77-1.03-29.54-15.81-12.25-31.42-48.13-8.43-19.4-15.79-46.94-22.36-69.34-14.47-49.16-30.24-92.98-50.23-139.33-11.62-26.88-45.06-94.54-58.5-116.46-24.21-39.5-68.27-76.43-82.93-116.52 49.65-122.87 56.23-240.27 162.06-325.01 80.27 37.62 392.18 198.62 447.47 179.94 8.13-42.58-124.17-278.86-153.66-330.84-18.51-32.63-97.54-123.16-101.99-142.41-16.65-71.78-14.85-112.06-41.95-195.73-74.65-230.34-239.79-392.24-433.21-545.38-181.81-143.95-415.37-244-608.53-384.16-97.2-70.55-439.1-461.42-417.7-573.76 25.38-5.57 208.76 212.05 249.96 252.2l187.41 200.64c21.87 25.22 31.31 49.48 80.59 44.38-2.23-25.28-100.94-108.7-139.81-204.43-49.95-123.05-24.96-175.08-37.81-296.05 23.07 11.85 40.91 106.5 153.99 193.57 31.33 24.13 94.87 168.67 140.91 217.53 15.82 16.8 102.3 131.36 112.39 129.45 45.45-29.18 12.07-22.9-2.06-72.37-8.95-31.45-5.8-75.73-5.7-110.97.38-152.98 21.61-270.79 62.82-412.65 15.52-53.51 52.17-109.63 64.7-167.08 51.5 77.56 7.92 141.53 94.56 159.1-21.63-200.88 5.96-121.32 20.54-203.62 6.08-34.07 3.99-31.44 19.85-62.98 39.04-77.76 79.91-150.51 139.57-195.36l155.15-94.35c55.29-28.81 247.99-118.17 296.52-98.26-66.99 34.11-214.42 229.97-250.25 297.91-81.76 155.02-82.08 217.58-115.79 292.98-18.15 40.68-45.14 58.53-3.11 87.06 13.14-3.9 72.21-120.71 90.57-145.26 52.89-70.66 126.67-121.34 199.61-163.94l121.65-61.31c16.5-5.99 13.5-5.61 20.57-9.1 1.61-.8 3.33-1.9 4.91-2.7 24.05-11.92 85.26-29.5 106.6-46.35-3.82 43.52-222.98 276.66-227.41 613.86-1.93 146.85 39.14 259.45 34.09 380.77-4.59 109.56-52.16 240.81-37.14 354.53 49.06 10.28 223.39-169.33 251.01-226.61 41.41 21.81 41.62 45.56 96.57 48.53 117.71 6.32 190.77 55.72 200.54 191.69 4.78 66.19-261.31 212.87-270.84 300.11 16.58 16.48 152.18 17.79 164.2 16.59 73.37-7.3 132.08-16.78 206.6-35.21 113.57-28.07 103.01-4.13 183.41 7.49 65.38 9.46 130.83 15.59 206.23 25.43 19.05 251.01 88.26 158.97-51.61 297.43-50.33 49.81-187.38 190.53-181.59 264.44 35.42 4.26 323.73-88.26 384.28-107.85 81.89-26.48 81.15-62.44 181.19-49.08 108.84 14.54 137.93-7.47 235.87-24.59-6.1 49.3-29.46 103.97-32.68 153.09-4.03 60.97-18.57 69.1-62.69 112.98-34.94 34.78-174.34 169.2-177.25 218.19 54.18 32.88 236.8-2.89 306.41-29.99 67.27-26.17 59.62-58.81 143.82-59.18 82.41-.35 89.1-18.01 153.37-24.45-5.78 85.74-206.26 212.53-201.35 362.83 483.72-76.68 811.37-155.31 1065.1-608.71 149.98-268 175.92-778.22 298.26-1001.7 49.32-90.09 118.77-169.95 175.37-255.63 24.33-36.81 6.01-34.26 23.6-56.84 62.5-80.23 185.83-366.61 221.23-471.4 20.02-59.2-4.31-26.86 16.58-63.99 89.66-159.48 108.47-500.12 93.09-668.51-10.7-117.08-50.49-246.21-61.77-349.12-10.04-91.53-13.68-199.21-17.34-281.98-6.94-156.39-45.08-378.18-75.19-544.22-11.56-63.68-12.34-151.24-25.05-204.13l68.59 116.57 54.7-1.05c-8.63-138.74-41.1-313.32-75.27-438.34-27.61-101.07-61.41-54.56-40.89-201.45 68.22 29.73 2.82 74.66 97.25 73.69 7.92-18.44-77.4-279.46-71.62-366.8l91.86 78.22c49.48-66.55 15.71-44.97-13.9-106.02-8.95-18.47-15.87-44.93-24.26-64.22-21.6-49.59-26.17-20.61-37.66-47.6 8.35-76.54 31.13-154.49 31.67-232.45 3.09-458.38-82.25-738.48-204.13-1167.19-8.88-31.26-30.24-53.24-34.73-82.64-4.86-32.21-1.87-22.26-18.13-46.72-25.58-38.56-.48 6.87-14.85-42.96-20.34-70.47-60.86-120.81-88.73-174.64-128.49-248.3-219.4-452.27-312.52-709.83-17.84-49.3-48.17-136.43-56.17-172.12-23.61-105.7 3.09-65.55 66.61-180.9 66.62-120.97 109.81-256.08 131.91-417.48l-49.18-11.27c5.87-38.94 47.42-132.62 60.05-202.68 10.06-55.71-4.42-168.45-4.39-237.35l-47.39 10.76c38.64-122.13-60.57-445.27-120.85-543.11-124.47-202.04-244.53-304.28-437.5-404.24-31.7-16.44-24.75-17.49-52.47-24.54-56.54-14.34-31.39-16.65-65.9-24.05-45.11-9.64-21.11 9.07-66.1-15-34.71-18.57-30.12-10.2-76.39-12.59-52.32-2.71-96.29-21.84-133.9-19.43-128.81 8.29-264.94 18.39-363.7 68.13l-141.01 76.14c-11.32 7.86 2.37 4.24-10.52 7.94-12.08-18.51-102.1-228.02-112.14-255.92-34.53-96.02-96.57-185.89-133.48-279.54-24.33-61.68-333.68-621.7-336.44-541.98 16.07-43.28-52.18-123.72-80.21-158.04-31.26-38.3-75.25-112.68-102.41-152.86-8.75-12.95-47.33-61.8-55.41-68.29-35.87-28.79-6.41-20.64-40.3-62.5-318.05-392.77-362.45-669.81-405.1-733.11-53.8 17.14-61.31 83.2-79.99 86.07-99.67 15.28-118.75-314.41-154.33-336.85l-136.39 216.21c-18.95-53.83-55.13-238.45-89.28-255.17-23.76 20.37-13.47 20.63-11.46 52.27 3.05 48.66-2.33 24.37-10.79 52.03-10.93 35.86-5.47 64.78-24.23 116.25-8.34-30.48 6.79-.88-5.93-32.95-5.43-13.79-8.91-20.31-12.56-33.75-5-18.47-14.76-50.94-25.12-80.92-17.74-51.54-46.67-109.31-72.37-154.83-30.68-54.28-179.76-258.55-236.14-239.22-7.65 27.58 16.12 105.21 19.35 143.48 8.76 103.82-57.3 363.57-84.62 361.4-36.36-2.87-14.62-32.73-39.92-85.43-37.84-78.71-24.66-137.51-108.44-263.28-36.28-54.48-184.04-260.76-239.29-258.88 10.23 19.68 22.89 211.52 27.02 254.43 13.2 137.2 10.47 189.04 1.51 320.42z"/><path class="fil0" d="M17501.21 7610.74c-6.46 11.05-18.53 27.8-.45 39.62 20.32 13.27 13.95.51 16.16.19.67-.1 2.73-.64 3.4-.74l6.66-.7c.7-.01 2.74 0 3.44.03 78.6 2.94 35.41 5.07 66.94 34.28-26.24 16.73.14 1.11-21.63 2.24-54.09 2.84-37.91-16.34-44.03 14.86 12.8 9.18 47.02 2.9 71.38-2.52 45.94-10.23 21.79-33.97 47.85-12.66-8.56 16.41-10.39 9.03-31.91 20.92-26.22 14.49-4.02-.48-19.58 14.62-8.32 8.06.87 4.36-12.49 10.07l-16.64 1.94c-162.32-5.1-151.67 64.23-221.81 24.15-76.93-43.94 11.19 5.65-80.18 15.59-75.68 8.24-28.55-14.14-90.17 19.35-54.09 29.4-119.2 53.96-188.32 44.84l7.59 22.56c52.42 2.02 22.17 9.21 48.1 19.3 28.27 11 38.2 1.37 68.32 5.28 75.42 9.74-46.61 21.39 117.35 24.8 28.63 44.35 58.14 148.6 70.95 215.83 46.49 243.89 14.56 163.69 12.37 223.67 48.29 20.55 44.96-27.57 49.31 43.11l4.87 273.98c-45.63-6.38-28.82-117.64-126.21-115.16-8.08 45.94 15.16.1 3.43 61.14l-55.86 200.59c-33.63 98.84-50.91 174.45-115.82 227.81l-92.13 60.58c-12.04 6.71-3.83 2.44-14.43 8.3-64.13 35.52-58.24 26.48-88.55 41.35-38.35 18.83 12.31 1.61-24.29 13.04-38.8 12.1-34.89-8.07-74.87 13.6-54.34 29.45-134.41 17.31-200.86 5.35-30.3-5.47-54.57-.51-83.83-4.29-49.43-6.36-20.98-12.92-61.98-22.14-47.29-10.61-74.31-27.62-114.43-53.25-229.25-146.45-194.69-224.62-227.29-452.72-6.55-45.68-33.35-101.03-35.58-121.59-3.05-27.47-7.13-26.27-13.58-56.17-8.99-41.64 17.33-22.42-41.59-46.39l-30.56 77.58-23.09-119.22 59.64 5.84c-8.84-52.35-24.27-18.45-7.79-104.22 13.69-71.19 43.71-249.67 44.74-308.23l124.27-53.32c11.45-3.51 13.07-1.66 24.28-4.87 37.89-10.82-7.84-5.08 73.37-24.38 59.49-14.14-8.88-3.58 41.34-19.55 21.58-6.85 31.27-.03 52.28-5.26 46.32-11.51-11.14-5.96 31.98-22.94 99.08-4.24 64.58-17.27 116.42-24.62 151.27-21.44 128.42 20.42 131.75 46.99 7.11 56.47-2.68 121.94 4.68 184.14 28.41 239.36-48.29 296.52-11.66 448.75 16.56 68.87 21.88 145.72 35.96 212.08 33.65 38.93 2.79 68.21 17.93 94.93 20.85-16.97-34.3-341.73-19.02-490.18 9.73-94.4 10.79-187.01 4.05-277.04l-20.58-184.3c-2.56-31.02 21.12-48.6 19.83-45.88l-58.96-23.14 97.31-29.33c-70.16-12.83-814.43 147.64-888.68 177.17-43.78 17.42-39.54-2.68-41.17-10.45-5.72-27.74 25.54-29.1 25.62-29.11 4.94-.94 46.86 1.47 61.81-2.76 19.27-5.43 11.32-8.69 48.21-16.61 93.09-19.99 661.1-124.49 667.57-141.69-155.91-.86-188.99 55.63-198.2.59-52.6-.91-36.9-6.39-73.82 13.61-34.17 18.56-41.25 9.36-86.01 11.26-125.29 5.26-88.57 46.68-338.3 13.45-50.4-6.71-41.21 11-85.39-17.84-1.36-.87-3.08-2.13-4.42-3.01l-21.21-14.59c-172.6-129.97-93.64-441.97-67.97-650.66 29.22-237.71 52.28-393.26 135.12-618.72 46.02-125.27 143.21-243.67 228.92-338.88 20.21-22.45 40.46-34.59 49.57-45.32 28.77-33.88 4.51-36.94 22.96-63.28 103.54-2.75 67.69-11.35 131.61-59.35 50.33-37.81 97.81-13.79 145.36-15.4 31.52-41.33 6.78-28.32 47.86-62.5l56.65-45.14c146.52 65.67 49.62 79.76 217.68 84.18 35.48-41.02 27.37-35.33 50.22-77.23 51.6 96.29 139.58 126.91 225.84 180.15 41.78 25.79 23.04 23.67 57.58 44.75 34.22 20.88 24.44 6.68 56.48 32.58 141.4 114.31 237.25 220.56 345.07 406.63 84.08 145.14 124.19 375.86 131.03 545.83 4.25 106.06-17.81 340.46-56.22 444.94-9.81 26.58-55.01 90.46-51.55 108.91zm-1068.57-2953.71c-32.5-54.95-116.19-202.98-192.03-197.61 1.05 7.3 135.55 191.47 155.8 234.27 137.4 290.46 167.64 676.06 22.47 960.29-21.53 42.16-54.51 76.11-84.42 111.86-38.97 46.6-65.22 54.58-94.94 94.31-63.49 84.81-225.36 63.42-263.23-23.83-54.21-125.02-18.24-157.78-120.41-266.13-18.38-19.47-83.27-81.98-108.94-88.8-25.95-6.9-136.99-15.17-152.28-8.59 9.39 61.86 112.18 21.14 164.17 130.04-36.34-1.02-103.75-36.07-129.99-45.27-22.06-7.72-136.91-16.21-153.18-10.68-38.83 13.21 9.26 16.04-62.73 19.18-48.86 2.12-163.99 60.57-178.26 92.11l236.67 34.51c18.95 39.84-59.99 181.71 77.31 279.04 21.29 15.09 50.61 31.8 76.03 37.44 73.39 16.34 74.35 42.86 172.66-6.07 1.57-.8 3.48-1.64 5.09-2.39l20.88-8.4c29.57-13.31-9.31-10.52 35.07-18.37 39.9 88.18-150.57 179.23-144.64 233.27 66.96-12.88 98.92-59.84 138.28-105.62l106.13-74.92c21.04-9.56 18.9.88 48.19-16.56-18.1 36.71-111.55 135.92-145.35 181.35-129.96 174.88-238.7 465.14-281.02 674.29-24.95 123.34-43.1 478.89-34.91 606.25 12.35 192.1 89.73 300.15 171.93 462.3 165.12 325.64 54.45 792.45 178.24 1100.91 103.53 257.99 171.39 368.07 367.44 515.71l99.85 59.17c113.81 52.19 76.27 43.15 189.91 48.84 57.51 2.89 37.03 42.16 127.19 22.09 34.27-7.63 24.48-7.09 69.91-8.72 82.87-2.98 17.34-6.74 61.55-21.63 25.85-8.7 46.94 2.33 71.58-7.84 34.07-14.01-11.52-4.34 54.73-22.4 40.87-11.12 6.24-1.14 31.6-14.2 12.93-6.65 9.38-4.13 25.56-11.41l83.78-54.02c1.37-.93 3.15-2.11 4.53-3.06 92.5-64.53 209.47-201.49 268.97-301.78 248.17-418.29 129.72-1009.69 176.19-1202.91 19.3-80.45 147.68-75.46 166.13-299.31 16.37-198.58 37.52-397.02 38.51-596.82 2.13-435.63-180.88-718.98-185.15-773.94-2.47-31.93-2.63-128.16 2.93-156.55 8.33-42.61 41.26-84.42-6.15-97.89-34.3 18.03-51.36 102.11-139 115.66l-42.81-103.16c115.63.01 147.08-129.08 165.23-171.15 29.45 36.45 32.33 45.97 68.16 68.84 171.31 109.35 366.82-63.6 376.45-218.74 5.75-92.65 21.33-84.8 67.7-101.25 65.45-23.21 53.6-27.05 56.07-46.28-89.37-.06-13.51-10.85-71.23-23.03-16.66-3.52-21.44.41-39.2-4.94-45.35-13.68 7.27-.29-29.71-16.04-25.79-11-125.8-10.07-163.07-12.15-101-5.61-176.36 82.64-255.71 79.48.84-34.06 86.26-106.7 112.96-119.65 48.78-23.63 153.3-34.74 168.52-69.11-44.09-22.03-149.71-11-192.25 7.36-35.32 15.26 3.19 2.55-44.11 23.12-19.86 8.64-23.91 11.2-38.59 21.13-158.44 107.07-104.55 143.34-114.31 232.04-13.08 118.61-57.22 156.89-43.61 188.32l-176.02 26.41-1.9 56.7-105.92-51.9 12.62-56.2c-75.67-47.52-174.77-190.9-224.33-267.1-58.93-90.57-104.95-254.58-119.75-361.79-16.96-122.72-16.74-537.81 31.27-663.99 11.37-29.87 61.34-150.27 59.01-170.96-54.64-19.92-48.11 22.06-68.4 66.07-41.83 90.66-89.42 242.77-89.39 342.97-40.94-13.78-27.99-146.92-48.71-187.28-68.55 23.82-22 26.94-34.04 224.5l-16.38-100.4-48.86-12.76 2.38 119.92c-8.07-5.29-49.5-120.97-55.89-138.23-19-51.14-42.03-82.62-68.83-127.92z"/><path class="fil0" d="M16058.32 6855.45l24.19 24.58c-43.94 13.55-45.04 14.12-58.85 64.94-5.32 19.56-16.02 82.79-17.48 104.42 84.22-4.98 29.15-123.31 208.49-176.66 216.42-64.37 139.29-18.03 309.35 22.14 50.22 11.86 84.57 17.92 140.17 12.83 48.49-4.44 13.1 22.65 74.42-.71 54.47-20.76 8.02-.07 58.12-3.5 115.37-7.92 155.08-63.69 299.45-39.69-41.08 26.83-79.52 19.77-106.54 16.65-6.33-.72-83.9 14.95-98.51 16.75-138.14 17.05-81.03 84.93-393.61 25.95-29.45-5.56-64.1-20.82-90.15-25.33-44.26-7.68-9.85 0-40.66-9.52-8.21-2.53-12.27-2.52-21.61-5.77l-25.73-10.1c-21.2-3.67-98.05 13.71-120.86 20.83-62.31 19.45-86.03 73.15-90.14 77.65-48.62 53.24-49.8 124.71-33.67 155.78 22.56 43.37-12.53 3.01 25.71 48.7 22 26.28-2.16-19.12 5.52 14.26 14.47 63.19 149.12 39.69 150.87 39.09 66.6-22.92 51.78-36.6 86.18-57.99 3.34 28.47-40.62 62.8-69.79 80.94-47.17 29.33-123.41 6.76-129.1 53.32l57.18 2.23c-62.06 27.85-20.71 26.15 35.35 100.06 37.53 49.48 176.64 172.47 227.65 202.73 91.86 54.46 73.22 56.58 109.68 95.35 40.26-18.74 31.53-15.78 58.01-118.66 4.4-17.17-3.54 5.36 7.36-22.3 5.02-12.73 9.5-32.82 14.25-48.11 7.89-25.39 29.28-74.96 19.65-94.47-12.09-24.42-11.09.94 4.56-27.71 16.21-29.6 1.5-20.88-3.18-38.21l27.92-12.78c-2.31 41.65-18.38 46.53 20.53 64.08-41.97 16.66-25.21 27.88-29.64 62.6-5.38 42.13-36.06 64.08 8.35 72.33-26.06 6.67-31.88 2.11-44.32 67.67-7.9 41.73 12.93-4.43-2.63 26.11-3.63 7.11-18.6 28.98-20.03 38.29 40.12 16.7 126.5-23.9 148.56-51.09 15.81-19.49-1.16-12.35 25.28-24.99 21.79-10.4 14.95 1.77 35.44-16.26 22.65-19.93-11.34-1.98 24.59-26.58 14.59-9.97 19.89-6.93 32.42-17.1 28.95-23.48-5.3-3.94 24.17-26.35 22.76-17.31 11.76-1.91 33.81-19.17 26.52-20.81-9.14-3.05 26.43-24.65 14.53-8.83 18.71-4.65 33.58-16.4 25.92-20.5-2.98-6.92 25.03-26.14 25.77-17.71 20.15-.24 46.08-26.97 1.48-1.52 5.31-6.32 6.78-7.86 28.34-30.11 21.75 1.96 31.51-34.75l-94.29-4.62c-17.27-30.58 21.87-1.18-23.51-28.52-61.7-37.19-41.06-21.27-63.6-58.84-9.01-15.03-20.29-32.27-15.21-46.61 13.81-4.22 43.81 44.91 85.25 54.97 55.95 13.55 133.25 66.4 188.35-80.64 31.53-84.2 5.88-28.74 39.37-76.71 31.79-45.52 5.98-179.39-32.48-244.09-36.3-61.13-102.51-99.48-167.01-117.61-24.43-6.87-18.01-7.65-46.48-9.78-65.9-4.93 15.14-16.01-54.71-8.93-71.84 7.3-4.73-6.3-63.15-5.8-39.74.35-22.48 14.41-66.68 6.98-40.06-6.73-199.51 38.81-268.3 34.09-24.18-1.65-14.68-8.86-59.11-7.73-86.76 2.22-49.06-18.47-215.45 15.75-59.18 12.16-56.36-.94-121.96 21.97-113.43 39.56 8.21 29.55-91.17 55.66zm-2259.25-2935.42c-46.55 22.8-67.75 129.95-67.09 194.86l-45.82-130.42c-51.87 6.95-30.82 7.44-59.55 117.28-7 26.73-9.36 118.06 16.75 142.43l-113.94-77.49c1.3 144.04-36.64 270.56 50.63 385.47 119.93 157.87 197.51 240.65 338.46 369.51 18.33 16.78 49.65 39.51 63.82 54.64 28.42 30.37 24.57 73.23 64.18 44.95 1-.73 147.73-187.92 228.77-248.82 55.31-41.56 77.96-63.24 105.37-129.02 111.16-266.94-4.39-491.73-214.48-639.06-46.64-32.71-144.67-84.33-201.93-99.66-52.75-14.12-12.93 1.74-38.1-21.49-40.5-37.41-42.11-7.86-30.28 32.15 13.18 44.57 11.74 66.84-44.56 60.8-58.66-6.28-3.93-12.72-52.23-56.13zm-676.71 8213.41c26.51 8.64 34.78 15.51 55.3 36.08l174 175.82c30.21 31.96 65.13 38.98 76.02 78.17-52.6-15.76-135.94-76.89-176.63-116.88l-107.86-110.39c-22.68-26.78-17.66-20.1-20.83-62.8zm468.43 343.17c-198.82-54.27-433.57-361.84-511.82-544.91-129.45-302.79-185.51-548.79-112.6-881.88 49.06-224.05 138.92-257.93 84.83-281.45-39.58-17.22-48.85 18.61-74.12 51.59-93.04 121.47-142.04 177.13-202.93 322.75-172.19 411.76-11.83 854.52 54.74 830.48.12.4-21.41 25.54 35.99 91.77 87.4 100.8 123.63 164.1 250.32 253.54 75.22 53.13 395.57 228.07 468.04 217.17l7.55-59.06zm768.85-6086.71c-19.82-58.66 25.64-275.49 54.96-354.35 78.33-210.92 175.82-250.67 107.59-296.84-41.95 24.46-122.02 171.81-147.12 215-63.11 108.46-117.99 360.3-87.91 498.79 50.42 232.28 43.27 206.57 97.71 180.2 5.47 89.71 124.95 490.85 189.88 498.34l6.68-89.12 163.34 478.62 54.53-13.92-14.24-164.75c6.94 13.24 22.08 99.88 29.86 132.08 13.9 57.73 110.7 327.01 154.08 338.01l53.01-208.76 90.32 207.58 37.8-73.39c22.17 43.13 25.34 94.05 63.42 146.74 20.74 28.66 74.81 105.99 97.59 116.96 39.5-67.51-48.83-173.58-72.12-238.69-12.99-36.38-31.61-82.99-45.9-120.4-10.99-28.66-3.73-70.8-36.33-85.56l-56.53 79.7-59.13-185.88-73.52 84.94c-37.35-28.64-92.33-177.68-107.26-231.8-25.95-94.13-21.04-210.97-58.64-229.41l-55.01 137.5c-31.6-82.94-90.54-144.26-102.83-241.43-5.15-40.82-1.68-130.26-10.17-158.41-15.42-50.95 5.35-40.3 36.55-99.31l-28.35-53.58c-47.02 27.37-111.43 189.45-119.71 201.49-34.2-22.76-64.51-215.62-70.85-268.19-22.95-190.63 17.52-269.46 19.16-321.52l-55.14-6.68-55.72 126.04zm4495.97 451.52c46.55-107.62 95.16-143.46 117.77-311.61 2.28-16.93 9.75-178.93 10.45-179.76l35.57 63.83c42.79-23.85 59.1-353.22 51.12-431.81-13.28-130.56-153.21-371.88-155.31-401.36l-60.25 15.82c3.85 29.76 82.15 144.4 100.61 253.33 21.06 124.45 11.11 192.66 18.95 312.88l-85.82-72.82c-18.87 22.22 16.42 129.02 16.48 194.06.04 60.32 3.06 102.69-5.03 159.29-9.69 67.57-54.92 260.45-115.49 314.79l-64.06-39.03c-26.83 57.36-62.9 344.82-104.65 386.6l-72.35-42.69-108.52 329.84-44.97-54.6-124.46 171.39-44.97-60.84-143.03 429.17c86.06-7.84 70.5-64.43 95.94-126.71 19.66-48.17 41.21-89.5 59.7-136.72l61.67 43.23 67.76-182.81 31.09 68.94c65.02-2.78 168.87-233.03 184.31-340.53l32.95 70.52c74.68-2.59 113.93-277.6 142.35-348.66l33.15 77.2c24.68-10.21 58.04-135.51 69.04-160.94zM14833.9 12323.2c-150.04.35-168.24 114.28-621.63-33.09-27.58-8.96-34.64-3.41-62.87-11.48-45.28-12.91-34.45-22.3-68.56-41.46l-33.92 47.25c19.21 24.2 58.55 42.48 42.34 73.5-69.17-20.21-81.2-10.17-142.08-22-63.6-12.37-66.63-73.23-97.58 13.47l90.7 93.05c-54.39 40.04-260.34-83.61-336.93-105.53l-25.92 53.54c87.94 35.18 158.78 96.79 245.86 133.41 59.03 24.82 237.34 81.42 300.14 88.42l6.57-53.94-106.94-58.49 114.11 17.47-17.58-87.43 159.53 87.08c59.04-99.64-54.77-60.33-52.01-117.11 13.94-7.73 447.34 67.3 622.99-20.67l-16.22-55.99zm1550.25-4586.83c9.21 55.04 42.29-1.45 198.2-.59-6.47 17.2-574.48 121.7-667.57 141.69-36.89 7.92-28.94 11.18-48.21 16.61-14.95 4.23-56.87 1.82-61.81 2.76-.08.01-31.34 1.37-25.62 29.11 1.63 7.77-2.61 27.87 41.17 10.45 74.25-29.53 818.52-190 888.68-177.17l-97.31 29.33 58.96 23.14c1.29-2.72-22.39 14.86-19.83 45.88l20.58 184.3c6.74 90.03 5.68 182.64-4.05 277.04-15.28 148.45 39.87 473.21 19.02 490.18-15.14-26.72 15.72-56-17.93-94.93l4.49 104.71 48.51 16.53c.89-173.09 6.65-335.19 6.8-508.23.13-114.14-11.44-391.46-37.25-491.97l306.44 24.17-7.59-22.56c69.12 9.12 134.23-15.44 188.32-44.84 61.62-33.49 14.49-11.11 90.17-19.35 91.37-9.94 3.25-59.53 80.18-15.59 70.14 40.08 59.49-29.25 221.81-24.15l16.64-1.94c13.36-5.71 4.17-2.01 12.49-10.07 15.56-15.1-6.64-.13 19.58-14.62 21.52-11.89 23.35-4.51 31.91-20.92-26.06-21.31-1.91 2.43-47.85 12.66-24.36 5.42-58.58 11.7-71.38 2.52 6.12-31.2-10.06-12.02 44.03-14.86 21.77-1.13-4.61 14.49 21.63-2.24-31.53-29.21 11.66-31.34-66.94-34.28-.7-.03-2.74-.04-3.44-.03l-6.66.7c-.67.1-2.73.64-3.4.74-2.21.32 4.16 13.08-16.16-.19-18.08-11.82-6.01-28.57.45-39.62-33.61 11.72-55.33 64.72-142.83 112.21-103.43 56.14-234.38 51.29-368.23 44.02-49.96-2.71-111.54-16.65-154-18.18-101.2-3.67-17.65-27.74-130.39-25.08-55.27 1.31-112.89.31-168.35.23-62.66-.08-106.68 11.66-153.26 12.43zm-772.38-3731.5l124.99 143.73-364.01-94.67c-1.98 120.08 40.45 45.64 85.18 112.8l-203.97 1.78-7.24 64.21-180.77 71.97c11.07 15.67 9.16 40.36 11.3 59.2 54.43-2.85 142.9-61.12 291.59-45.56 50.69 5.31 51.31 24.77 79.73 27.23l8.04-60.73-72-33c115.91-75.46 229.2 31.1 282.74 30.72l4.21-51-45.54-36.85c55.57-2.49 66.1 16.77 107.61 36.95 75.8 36.85 38.47 14.9 80.79 82.51 16.78-1.79 54.66-1.6 66.93-10.92l-66.76-133.44 123.6 138.68c54.28-52.74 95.02.77-97.38-198.74-40.87-42.37-163.97-170.51-229.04-104.87zm1801.21 147.3l101.06-146.3-44.97-35.5-205.2 291.69c65.64 44.48 47.12-13.2 97.48 33.13l100.45-102.51 22.16 54.69 121.4-72.74-39.76 65.74c58.93 46.91 42.79 21.76 109.4 4.53 202.43-52.35 338.97-29.29 408.91-42.98l-.08-58.05-304.88-21.27 33.63-16.7-31.53-56.46-169.08 55.09c13.68-58.2 141.27-86.97 174.98-121.56-56.29-120.06-293.87 127.2-373.97 169.2zm-4888.2 2601.73c52.52-17.63 214.44-310.36 210.6-234.18-9.85-55.87 19.27-69.96 35.98-97 10.92-17.69 67.09-143.09 105.44-200.91 29.27-44.14 48.89-106.46 80.9-153.68 35.67-52.63-4.66-13.99 32.28-76.02 15.44-25.96 23.01-48.39 36.55-80.16 52.25-122.58 91.57-238.34 133.48-354.46 34.57-95.83 46.8-170.16 64.24-260.38 9.05-46.98 5.21-57.28 42.03-72.95-53.51-51.31 3.93-63.55-6.09-200.03l-38.47-14.97c-1.71 348.5-139.93 622.63-272.31 935.76-40.79 96.43-196.53 381.59-206.03 407.11-25.82 69.23-69.32 145.82-113.25 192.36-12.26 13.01-103.73 191.06-105.35 209.51zm1719.37 3676.01l6.89 55.52c432.74-42.02 617.5 73.43 642.34 74.3 45.35-65.89-7.62-70.57-76.28-118.41-115.63-80.58-253.96-93.5-385.22-74.22-19.13 2.81-173.85 54.85-187.73 62.81zm-2102.29-113.75c1.85 1.58 3.96 18.86 7.81 26.08l54.39 121.8c12.61 41.57 67.27 110.05 94.13 138.17 40.61 42.54 32.13 27.81 70.41 53.32 20.34 13.58 46.56 35.7 69.88 47.64 53.96 27.63 113.75 91.85 143.97-10.41-38.81-46.21-94.59-46.29-142.07-79.01l-97.14-70.06c-71.07-44.04-28.92-30.64-56.75-44.09-31.13-15.05-30.24-37.27-56.51-70.38-21.28-26.76-28.15-27.27-40.82-68.14-7.67-24.66-4.15-51.55-47.3-44.92zm1596.46-2801.74c16.58-13.63 13.29-13.15 16.63-33.8-70.57-5.75 22.74 5.7-79.69 17.75 46.32 66.67 31.18-8.8 52.48 41.93l-54.85 13.24c44.02 34.3 36.66 14.09 56.93 28.91-16.51 13.87-2.82 8.31-29.93 17.1-10.71 3.48-16.5 3.91-30.57 5.15-33.75 3.02-32.28-5.54-63.16 14.25l14.25 10.7c8.43 6.77-2.25-6.38 11.48 10.58 33.19-20.86 83.41-40.68 122.47-37.9 2 72.29-98.66 35.13-138.73 67.74 33.86 26.21 19.96 8.02 62.53-1.72l70.06-20.03c10.04 35.03 8.26 33.79-20.17 49.79 45.64 1.82 31.79 33.56 24.86 70.08 23.14-26.59 6.82-11.02 39.42-16.71 24.88-4.35 12.65 13.98 31.97-15.7-21.47-30.72-40.96-6.07-62.91-21.9 19.67-27.64 12.01 9.39 41.14-22.65-6.46-27.79-22.18-12.85-36.81-28.46 21.5-25.6 5.01 15.21 26.29-29.22l-29.08-21.74c29.11-41.03.66-16.97-.68-57.29-.1-2.75 3.77-19.09 4.35-23.17-19.11-11.26-9.73-2.19-28.28-16.93z"/><path class="fil0" d="M13427.68 12423.51c-10.89-39.19-45.81-46.21-76.02-78.17l-174-175.82c-20.52-20.57-28.79-27.44-55.3-36.08 3.17 42.7-1.85 36.02 20.83 62.8l107.86 110.39c40.69 39.99 124.03 101.12 176.63 116.88z"/></g></g></g></svg>