<svg xmlns="http://www.w3.org/2000/svg" width="320mm" height="150mm" viewBox="0 0 32000 15000" shape-rendering="geometricPrecision" text-rendering="geometricPrecision" image-rendering="optimizeQuality" fill-rule="evenodd" clip-rule="evenodd"><defs><style>.fil0{fill:#d7b56d}</style></defs><g id="Слой_x0020_1"><g id="_2737063106384"><g id="_2209795346432"><path class="fil0" d="M15600.39 9394.71c-7.6-260.94 135.19-421.82 347.67-542.84 299.14-170.37 430.19-115.79 734.17-82.02 355.74 39.53 381.78-69.72 775.65 65.84 273.13 93.99 386.12 120.38 465.67 432.55 78.43 307.69-120.72 387.61-330.95 528.94-182.65 122.8-541.32 123.39-761.44 123.62-191.79.2-641.16-10.21-803.45-71.23-165.91-62.38-421.87-266.56-427.32-454.86zm-1717.79-654.25c59.06-149.13-268.15-1693.61-14.12-1734.93 16.99 7.53 18.03 301.04 38.37 379.11 134.37 515.63 290.94 437.3 457.37 915.87 70.65 203.24 118.69 560.13 121.24 777.64 1.44 121 18.83 735.68 134.64 780.74l-23.06-4.24 151.54-737.43c190.21-69.86 347.4 447.66 413.34 582.72 87.31 178.84 84.11 218.03 101.35 415.18 24.03 275.01 28.54 161.87 130.96 376.73 61.63 129.34 354.5 408.57 467.97 555.18 54.9 70.92 162.56 233.04 209.51 314.82 29.55 51.5 143.14 347.62 158.13 358.22l34.78-3.99-92.73-684.69c58.62-23.46 338.41 219.32 407.62 272.09 323.6 246.5 379.31 555.25 501.94 879.61 80.39 212.6 6.89 522.62 25.42 598.77 161.82-47.44 206.34-1079.18 243.2-1254.85 49.57-236.16 131.25-314.15 274.56-482.78 51.88-61.12 312.47-389.32 369.6-389.89l39.12 6.47-109.82 663.46c61.41.27 119.28-223.91 152.06-286.86 42.53-81.82 147.52-189.69 180.27-260.76 89.24-193.36 274.17-286.26 324.02-558.22 56.18-306.75 34.13-497.48 41.74-798.87 2.77-110.67 206.21-570.71 314.92-564.39l36.96-5.36 106.92 738.3-31.61 4.59c134.87 98.5 185.66-534.69 197.92-580.15 32.06-118.86-51.48-573.45 4.31-727.89 34.19-94.69 42.91-202.7 88.47-310.98 23.58-55.94 123.24-172.82 162.21-237.29 55.74-92.2 90.77-167.64 133.95-265.52 26.31-59.5 56.58-313.01 78.48-329.36 129.64-13.3 83.91 631.18 75.12 732.3-7.33 84.36-67.73 802.54-63.52 810.62 94.91-64.51 292.65-713.73 309.35-847.45 86.6-692.99 115.49-794.96-198.74-1412.84-68.35-134.27-186.05-240.7-241.76-340.81-72.17-129.66-178.69-760.86-415.28-733.24 84.6 198.86 130.06 152.8 162.54 411.68 21.4 170.25 58.14 335.36 82.84 502.53 30.47 206.54-44.99 790.43-112.47 999.69-57.9 179.71-387.31 455.36-527.75 629.07-69.07 85.45-241.2 239.86-253.76 328.85-27.72 197.12 8.4 280.23-108.4 474.06-215.83 358.2-429.65 279.37-737.59 96.54-148.39-88.09-726.18-264.13-783.73-325.15-132.04-140.02 11.67-755.29 137.05-914.14 154.24-195.41 765.62-249.07 693.09-458.41-5.06-2.65-143.96 34.66-265.9-14.17-46.3-18.55-199.75-130.36-208.77-132.41-259.32-58.77-337.21 145.57-530.77 106.47-100.5-20.29-421.57-144.95-505.77-110.12-114.73 47.45-81.46 105.47-174.95 156.85-155.53 85.46-189-22.82-231.51-25.84-82.7 73.45 208.54 242.9 268.52 264.4 196.28 70.36 224.52 69.74 403.86 187.32 172.34 113.04 309.29 728.68 189.96 911.74-80.14 122.85-246.89 152.77-378.12 186.44-178.17 45.73-260.1 104.05-418 168.11-309.42 125.56-517.92 249.84-758.64-76.84-163.11-221.38 12.83-485.14-331.07-833.63-170.64-172.9-449.4-433.54-533.01-657.14-105.16-281.08-184.14-739.15-103.33-1028.35 65.73-235.15 201.63-680.55 239.91-897.47-189.07 216.12-325.5 513.03-404.43 785.72-51.13 176.83-310.48 443.19-406.06 784.03-98.85 352.33-137.81 624.29 3.17 976.82 52.79 132.14 107.42 298.1 155.5 435.37 25.6 73.03 65.33 135.48 91.54 208.07 34.31 95.05 5.9 170.19 49.33 250.28zm3765.27-5670.67c377.35 36.04 518.46-95.53 873.42 308.5 91.91 104.65 70.55 183.42 238.47 111.73 189.24-80.76 369.54-172.55 561.69-244.81 122.75-46.15 540.75-138.19 608.73 30.4l-43.18 74.94c-80.24 2.47-73.68-62.19-290.15-21.14-98.3 18.66-209.43 48.78-300.23 90.7-89.8 41.45-164.37 102.39-245.7 137.17-56.63 24.25-255.32 69.51-279.42 111.7l396.15 243.03-13.82 36.74-183.52 4.86 88.26 312.09c13.6-3.84 513.56-8.12 625.31 13.95 69.94 13.82 201.73 51.63 267.75 90.13 46.26 26.95 206.22 144.1 228.07 108.45l-209.68-210.02c135.06-214.72 358.12-305.56 389.93-659.52 24.72-275.19-195.76-521.04-441.49-603.86-340.93-114.87-553.88-88.74-873.36 38.97-74.5 29.78-320.15 133.18-381.52 143.46-62.08 10.38-338.95-98.45-366.54-150.74l-12.17-33.35 685.58-250.93 9.89 27.08c-106.92-131.77-593.57-96.12-758.69-51.21-86.98 23.66-551.9 282.15-573.78 341.68zm-2981.39-99.37c49.87 8.37 704.88-60.84 669.83 110-9.42 17.88-307 144.57-360.63 125.72-433.14-152.23-685.19-374.03-1242.79-181.09-251.23 86.93-455.41 311.15-438.99 590 19.5 331.32 359.99 622.06 367.2 678.13l-224.13 198.43 16.05 17.94c18.04-2.06 190.56-107.91 226.98-130.9 56.06-35.41 211.12-70.81 277.59-88.64 40.97-10.98 259.35-32.8 308.62-34.84 41.82-1.7 313.39 20.67 315.07 19.77.03-.02 98.18-297.01 91.29-310.28l-166.6 26.55-23.61-45.16 411.04-251.28c-129.09-48.73-334.98-96.42-432.37-184.81-103.72-94.16-324.23-119.45-455.04-160.88-176.78-56.01-298.81 52.52-392.81 180.5-106 144.36 67.14 423.98-25.29 453.95-98.75-38.37-148.19-399-63.49-534.41 100.18-160.14 290.12-224.1 465.76-250.04 237.36-35.03 789.58 244.79 1019.26 361.72 116.81-90.52 284.42-461.43 516.06-432.75 43.35-100.9 90.27-53.95 194.34-87.99 94.89-31.04 146.84-46.62 246.55-72.19 173.07-44.35-271.07-153.87-334.99-178.74-128.2-49.85-426.67-84.13-553.51-25.39-65.9 30.52-398.38 125.97-411.39 206.68zm1266.84-1398.64c21.18 25.17 191.2 111.58 270.03 196.04 46.85 50.14 192.79 212.23 211.94 262.45 61.88 162.19 88.66 142.35 130.95 343.46 13.58 64.53 70.14 345.24 52.89 388.15-22.64-.55-191.62-124.27-225.29-149.21-79.44-58.94-156.04-86.93-248.62-125.9-207.78-87.5-438.84-66.1-657.99-66.1 1.54 10.7 598.43 369.1 673.99 432.92 277.96 234.8 109.13 35.23 375.94 115.1 243 72.71 167.86 204.97 268.05 289.55 38.3-20.19 104.59-167.64 229.55-238.92 140.76-80.21 276.42-46.35 395.19-79.2 12.33-89.55 43.87-244.96 38.17-328.05 0-95.45-72.19-539.44-150.67-558.42-26.93 45.09-142.82 606.01-166.65 707.19-37.66 159.98-139.75 124.56-121.17-105.12 23.66-291.9-261.09-664.59-457.27-845.71-101.42-93.57-516.9-304.32-619.04-238.23zm-2305.54 9362.53c-1.44-27.75-360.83-832.77-406.91-1041.18-42.14-190.66-110.04-373.56-144.48-579.56-35.3-211.16-64.48-454.32-64.48-667.86-293.42 12.75-265.23 1087.78-147.95 1346.29 229.5 505.9 297.65 620.77 763.82 942.31zm5418.33-6424.76c12.86 140.61 29.98 386.79 161.1 446.44 113.52 51.6 273.8 211.37 290.15 338.88 22.22 173.46 66 299.96 196.43 422.96 58.84 55.46 345.79 234.72 403.93 207.9 12.29-5.68-103.08-98.31-126.47-143.86-109.1-212.29-202.69-479.89-238.17-710.88-31.76-206.78-38.42-270.97-235.1-397.39-192.51-123.74-218.25-141.01-451.87-164.05z"/><path class="fil0" d="M15900.03 6124.06c-59.29-246.69-248.66-418.72-480.41-510.01-107.1-42.16-686.82-211.05-543.33-438.71l15.75-14.27 169.48 187.19c86.58-57.21 67.01-196.68 287.05-170.79l89.08 249.22 31.76-4.93 64.91-186.6c53.49-5.64 111.03 41.87 132.17 91.29 41.17 96.5-40.71 142.68-36.84 168.44 152.21 40.41 148.91-12.44 251.52 140.34 20.84 30.99 147.23 234.09 160.31 239.16 7.91-163.05-112.05-269.11-181.24-384.65-56.33-94.12-3.37-236.69-184.76-406.14-152.41-142.35-263.86-131.32-459.3-133.68-136.23-1.63-123.89 20.14-233.49 56.78-77.15 25.77-231.46-18.65-238.77 5.28-19.02 62.28 122.56 69.14 116.39 146.26-7.81 97.68-55.05 124.61-17.24 248.95 101.49 333.43 423.97 232.53 742.66 440.25 56.23 36.67 131.69 67.58 179.68 111.61 55.89 51.25 61.86 112.44 134.62 165.01zm-3087.92-657.46c-237.18 32.01-582.33 443.94-685.58 654.37-79.45 161.91-136.13 333.52-151.02 514.52-3.84 46.72 23.66 610.07 83.26 540.4 2.13-2.5 143.54-457.76 158.7-506.32 88.54-283.73 301.17-628.33 463.41-876.48 49.85-76.23 343.66-355.15 131.23-326.49zm1656.31-965.38c-736.12 229.95-579.73 724.78-747.3 1108.64-34.61 79.25-252.54 344.03-174.45 323.59 371.7-97.16 441.51-403.06 557.5-689.59 90.03-222.34 255.29-214.94 327.36-288.51 4.21-4.29 152.9-490.34 36.89-454.13zm5701.34 4876.84c-13.47 198.53 35.33 428.04 8.55 657.69-52.27 448.87-100.53 714.54-261.58 1136.58-47 123.05-255.44 456.72-9.49 205.87 257.92-263.1 436.93-522.67 498.94-898.26 45.41-275.24-21.23-906.07-236.42-1101.88zm424.47-3420.45c-40.77 28.39 234.19 252.17 276.45 306.12 231.83 295.85 317.87 373.71 488.78 742.99 32.8 70.82 130.14 450.48 178.15 365.28 158.03-280.58-25.25-726.11-173.12-969.53-71.4-117.58-204.06-227.5-325.72-290.15-63.72-32.83-386.37-195.22-444.54-154.71zm-33.27 2113.85c.3 4.13 372.13 713.67 422.37 875.91 78.18 252.25 171.7 457.12 217.93 747.44 7.98 50.17 17.74 273.9 56.78 127.41 112.4-421.91 126.32-680.38-59.95-1089.56-103.36-227.02-400.12-577.39-637.13-661.2zm-6259-6100.2c-307.31 31.38-542.39 129.19-739.76 375.49-25.12 31.34-245.5 409.18-71.87 272.75 80.86-63.51 268.32-168.08 365.14-204.2 312.99-116.76 537.29-221.03 887.31-227.94 581.76-11.52-334.51-226.95-440.82-216.1zm3254.37 3903.13c32.06-10.87 131.95-196.3 164.55-234.92 184.49-218.5 170.14-82.28 254.47-154.02.6-2.38-125.35-186.52 56.06-235.94l89.86 188.3 34.06 5.43 110.96-296.67 278.78 179.31-16.03 24.93c31.12-12.14 146.76-157.61 179.71-188.26 55.39-51.45 234.63-155.48 77.98-135.68-201.16 25.39-376.33-118.96-660.48-47.15-156.69 39.62-344.55 233.79-351.34 389.25-7.04 160.5-194.3 304.07-218.58 505.42zm964.09 1205.38c67.11-38.92 326.04-330.87 380.05-410.62 61.46-90.77 205.17-606.95 71.1-601.7-29.73 1.17-97.48 223.36-122.41 267.46-52.59 93.15-137.04 124.58-217.16 182.31-152.11 109.6-234.41 407.72-111.58 562.55zm-3910.47-1022.3c-129.94 29.93-.8 504.79 77.49 604.92 41.87 53.54 340.71 413.44 378.41 390.68 118.97-71.89 32.11-457.54-122.11-555.4-105.58-66.99-136.97-66.79-214.36-176.83-21.6-30.8-111.78-265.13-119.43-263.37zm1503.87-1582.13c-10.01 93.57 53.17 179.83-54.7 318.11-91.78 117.63-149.51 100.81-103.15 309.28 20.01 89.97 103.62 196.4 183.32 241.14 180.47 101.3 128.13 218.11 171.73 259.55 34.36 32.6 64.16-192.22-29.68-310.04-77.59-97.33-158.05-89.78-173.61-252.37-15.16-158.72 88.04-152.5 132.41-291.43 28.74-89.88-24.87-278.6-126.32-274.24z"/><path class="fil0" d="M18721.55 5216.93c-42.33 54.13 4.09 192.32-202.2 297.18-100.28 50.99-275.82 64.37-372.17 127.19-101.3 66.05-206.63 112.03-298 201.36-32.75 31.98-232.37 336.08-126.99 276.27 48.11-27.3 72.24-152.87 260.05-243.05 98.55-47.29 240.8-128.77 344.57-154.83 615.92-154.64 397.3-507.39 394.74-504.12zm-2455.32 549.28c-9.42 6.91-273.45 474.39-332.31 549.87-134.4 172.38-295.6 389.27-165.56 617.08 41.02 71.87 109.07-217.43 131.07-260.41 48.38-94.61 110.34-186.55 161.53-279.6 33.27-60.5 287.47-687.29 205.27-626.94zm1190.19-1281.63c-101.47 24.72-142.07 206.88-112 286.53 49.18 130.28 138.48 158.67 118.29 292.94-30.59 204.04-98.3 134.13-173.04 260.77-80.49 136.43-45.26 378.34-13.38 273.55 92.66-304.42 316.88-248.93 350.85-510.21 26.97-207.7-45.22-171.73-126.6-298.15-31.95-49.6-54.94-97.31-60.27-157.26-3.74-42.09 30.82-151.74 16.15-148.17zm-158.1 1298.28c-15.02 113.11 163.28 528.98 230.44 643.41 51.98 88.54 119.01 197.62 159.86 289.53 36.25 81.51 84.31 325.82 120.9 238.94 124.88-296.51-10.33-405.99-163.95-620.3-61.94-86.34-134.67-164.87-188.16-261.29-26.48-47.76-129.41-272.11-159.09-290.29zm2771.56-3037.63c-.97-79.97-273.45-305.36-355.16-352.25-178.84-102.62-399.27-64.54-577.42 2.67-206.56 77.94 77.77 76.11 128.8 88 135.24 31.51 442.06 96.09 562.29 145.17 49.25 20.09 197.09 111.98 241.49 116.41zm-4494.49 4319.23c-134.86 39.32-134.99.35-258.98 98.92-71.02 56.46-137.09 113.44-173.49 201.02-43.2 104.04-105.98 599.69-41.91 648.81 26.53-17.36 149.28-435.89 190.33-508.74 100.68-178.6 187.51-287.85 284.05-440.01zm2455.33 16.65c8.15 30.67 215.04 328.5 260.02 439.06 21.73 53.31 178.84 518.71 201.14 494.63 65.48-70.65-12.68-536.45-52.5-634.95-49.79-123.34-299.48-317.91-408.66-298.74zm-1232.18-2425.25c35.82-24.13 63.71-433.78 65.08-499.88 1.85-88.56 38.45-523.91-56.69-515.83-152.08 12.88-20.53 1006.3-8.39 1015.71zm-1223.15 2408.6l7.63-2.13-4.78-6.14z"/><path class="fil0" d="M17913 1503.81l2.67 1.56c11 12.16 183.23-40.73 204.85-44.84 341.88-64.96 338.93-6.72 674.51 21.08 94.39 7.8 274.34 91.91 369.25 132.51 78.36 33.52 350.62 95.28 295 189.67-23.03 13.95-266.04 5.03-313.83 4.38-192.34-2.57-757.32 137.84-852.72 217.59 8.42 5.23 510.48-27.55 586.04-25.84 595.82 13.43 929.45 167.59 1426.31 480.33 269.78 169.78 459.97 367.07 662.76 608.37 124.71 148.41 230.62 325-72.66 239.43-231.7-65.38-296.66-73.28-536.99-98.05 0 126.54 124.41 74.94 331.2 203.96 411.61 256.73 488.88 440.37 754.57 851.04 123.2 190.46 675.97 1439.96 511.65 1583.92-76.08 20.24-631.28-599.52-811.4-640.22 6.39 26.46 247.66 319.11 287.81 372.81 88.54 118.37 198.32 286.81 268.33 417.39 157.58 293.91 353.29 570.93 477.31 885.8 134.52 341.55 241.27 721.9 275.82 1087.28 13.51 143.09 42.02 503.7 13.04 633.24-19.97 89.16-90.65 508.2-152.36 534.68-73.5-4.85-136.33-221.3-165.32-294.6-21.18-53.44-129.71-251.35-159.36-300.58-54.41-90.32-330.95-440.77-418.77-501.07 42.61 119.44 168.43 644.88 152.4 779.57-18.78 158.33 47.94 103.48 61.47 252.55 22.54 247.93 12.38 347.94 10.3 586.04-.74 90.15 3.15 533.87-8.55 579.57-77.46 303.03-182.77 641.69-361.49 901.16-94.26 136.88-427.76 686.68-606.78 647.61-.62-99.52 123.6-257.4 156.15-362.34 34.31-110.39 111.88-300.9 129.89-396.97 56.28-299.71-3.6-569.17-198.61-799.91l5.25 238.67c-2.45 168.9-59.09 471.66-127.48 616.68-117.43 248.75-237.88 400-371.53 623.6-101.25 169.35-894.62 999.74-1055.08 915.26-1.44-1.69-56.44-567.07-188.38-740.51-96.27-126.59-98.67-196.43-162.49-305.82-78.83-135.19-151.02-152.96-232.62-244.05-12.39 20.39 49.4 245.04 52.72 281.78 13.77 151.46-107.87 736.39-156.13 868.43-46.69 127.73-435.96 820.05-579.65 779.8l-2.38-655.04c-71.19-.12-74.61 156.94-107.17 231.33-27.96 63.82-61.63 174.61-88.34 246.18-45.8 122.85-164.35 309.34-235.47 425.16-213.87 348.34-438.66 405.69-793.17 528.07-419.52 144.8-340.47 151.72-361.99-82.67-19.8-215.35-57.63-342.56-124.29-536.39-63.4-184.27-140.47-267.78-232.75-427.87-20.61-35.67-326.41-311.94-344.2-316.43l-130.38 390.61-19.65-6.42c-63.22-.59-334.29-276.87-379.03-340.14-130.98-185.31-179.96-218.63-282.27-436.88-76.7-163.48-133.04-360.63-182.04-537.19-18.38-66.24-82.15-214.44-84.95-275.11-5.35-115.15 58.91-211.51 66.99-300.67-205.32 144.62-237.31 175.57-375.89 393.42-122.9 193.26-174.88 338.14-199.43 569.94-31.93 301.84 201.44 874.95-580.71 25.52-109.28-118.69-281.5-273.6-369.75-399.62-66.04-94.34-248.18-382.5-289.77-479.54-189.02-441.19-359.07-657.52-367.17-1171.57-3.44-21.94-101.32 317.7-108.51 351.84-10.23 48.83 72.22 650.87 74.97 827.41 1.58 102.51 94.93 342.37 86.95 369.42-126.17 155.18-519.87-484.27-572.12-586.69-147.13-288.51-251.1-609.5-293.86-935.39-58.99-449.47-70.36-657.1-13.3-1112.23 56.31-449.3 132.71-586.24 249.12-980.17-48.51 23.71-420.18 415.23-454.35 482.27-52.79 103.72-117.23 199.7-158.5 309.79-29.18 77.84-60.3 329.66-103.85 372.84-191.18 49.82-226.73-962.94-211.24-1097.71 35.8-311.03 152.85-781.68 275.68-1070.74 146.48-344.79 206.53-586.98 416.37-921.62 93.71-149.38 481.25-715.9 520.19-826.17l-14.57-17.86-657.24 535.62c-94.39-86.23 103.36-702.79 145.57-826.61 92.48-271.59 223.71-449.2 334.99-693.61 102.11-224.4 512.07-657.17 722.59-816.09 100.21-75.68 210.85-120.37 304.89-213.6-467.9 0-536.37 149.02-625.31 140.32-99.22-127.46 258.14-661.18 355.85-777.71 125.33-149.36 444.06-482.99 596.25-591.25 201.21-143.09 577.09-332.09 819.06-368.4 311.2-46.7 718.31-40.29 1003.2 108.48-80.86-119.76-314.35-223.58-441.79-277.39-97.7-41.27-183.39-53.63-279.76-79.77-86.44-23.41-309.15-12.14-339.45-28.51-64.73-124.91 420.83-282.84 512.96-312.92 215.46-70.33 528.89-108.13 753.46-83.93 248.83 26.83 498.15 51.48 738.95 122.4 86.83 25.57 578.66 261.59 585.49 261.09 14.79-1.04 198.51-152.03 237.04-175.47 309.29-188.15 679.68-281.7 1038.53-232.57 174.5 23.9 166.25 27.7 314.15 112.42 39.66 22.72 309.07 146.14 138.38 189.1-215.55 54.25-451.89 91.88-644.08 217.76zm-6613.46 8937.33l111.23-219.91 16.7 8.37c88.39 8.99 116.38 291.61 145.2 389.98 34.41 117.38 103.23 298.23 125.37 409.86 31.22 157.63 284.78 559.55 410.92 667.84 193.11 165.78 383.12 338.08 575.64 503.08 127.24 109.05 180.85 130.87 324.71 210.5 127.75 70.67 216.34 160.35 324.73 218.84l-11.23-195.21c124.24-108.43 272.41 160.9 337.37 245.38 275.43 358.2 663.41 424.74 796.52 541.45 108.58 95.18 232.92 262.7 332.31 336.65.12-228.09-49.57-382.06-140.96-578.22-23.51-50.48-101.38-580.24-74.79-624.39 120.79-110.49 233.86 335.68 278.35 420.81 79.85 152.8 191.95 310.31 310.49 433.78 315.71 328.82 580.19 388.55 580.19 908.32 80.72-56.53 144.19-229.45 175.6-317.82 50.49-141.95-53.74-381.66-19-420.38 114.6-109.85 323.74 440.79 339.59 517.96 84.73 413.03-70.87 693.83-69.69 772.17 120.06-6.42 606.51-267.56 778.96-316.51 57.74-16.4 372.32-123.92 406.68-145.2 95.25-58.96 249.27-155.77 346.63-205.27 198.21-100.78 471.59-306.99 630.41-465.07 92.53-92.08 187.56-179.56 266.99-284.9 41.66-55.22 206.33-313.48 229.94-321.71l75.34 38.97-132.07 468.67c66.49-18.63 500.67-323.77 592.71-381.66 100.78-63.4 198.51-123.37 296.71-188.33 67.48-44.67 256.73-200.22 317.94-127.91l-9.06 148.42c218.77-194.17 461.23-354.88 676.88-539.96 111.24-95.43 231.88-177.63 356.99-253.43 157.29-95.31 524.8-449.39 617.5-611.83 41.82-73.28 87.23-112.1 114.41-186.62 2.97-8.18 99.71-193.48 106.03-203.39 192.54-302.54 175.84-921.35 322.6-906.69 96.56 9.66 65.55 228.39 92.23 237.63 32.25 5.33 343.66-917.91 369.2-1005.48 113.21-387.96 152.8-809.9 149.56-1212.71-4.29-544.65-135.51-1180.44-395.24-1672.27-162.81-308.38 49.08-902.96-355.47-1718.46-164.65-331.89-282.03-625.58-408.37-971.44-192.57-527.13-233.62-903.84-738.5-1327.04-139.94-117.33-347.74-187.49-277.14-350.08-870-420.28-1405.05-1511.38-2722.36-1486.21-197.37 3.79-428.04 30.3-619.24 80.94-171.68 45.43-343.66 176.71-516.11 171.97-156.14-4.28-363.99-119.13-531.71-157.38-195.93-44.67-393.92-80.02-594.49-94.83-440.47-32.58-791.21-8.77-1196.16 180.45-326.07 152.38-565.11 400.31-862.42 548.53-180.6 90.03-243.3 65.6-227.1 261.46 13.95 169.03-208.56 237.7-311.94 331.3-635.82 575.53-735.58 1001.86-1047.85 1752.94-70.13 168.69-117.52 338.06-198.66 503.8-83.46 170.46-158.47 294.78-224.45 478-154.83 429.72-178.22 721.73-253.6 1159.72-32.65 189.89-33 437.35-89.86 612.58-50.41 155.48-176.9 291.51-244.68 457.04-167.05 408.15-199.31 773.33-184.76 1211.33 28.06 847.18 197.61 1484.5 524.28 2261.57z"/><path class="fil0" d="M17850.27 1538.59c29.85.77 29.75-2.93 48.71-29.16-16.83 3.05-34.74 11.42-48.71 29.16zm-258.49 4215.5c21.88-6.83 4.86 12.49 22.94-21.5-13.15 2.4-22.59-3.54-22.94 21.5zm-1389.05 191.53c20.54-5.18 14.1 15.98 14.05-22.1l-14.05 22.1zm-2601.11-1519.76c-24.98 7.11-11.5-8.44-14.6 16.01l14.6-16.01zm4038.89 1254.41l-7.63 2.15 4.81 6.17zm2358.07-1279.5l2.18 7.65 6.17-4.83zm-2324.62 2717.9l7.63-2.16-4.81-6.17zm-1864.75-1137.33c.81.82 2.47-3.66 2.47-2.5-.17.17-3.32 1.66-2.47 2.5zm1588.77-1404.95c.87.84 2.53-3.67 2.53-2.48-.15.15-3.32 1.66-2.53 2.48zm-3846.53-117.08l2.48-2.48c-.18.15-3.32 1.66-2.48 2.48zm66.86-50.17l-8.32 8.38zm-8.32 8.38l-8.37 8.34zm4063.97 2701.15l-8.38 8.37z"/></g></g></g></svg>