<svg xmlns="http://www.w3.org/2000/svg" width="320mm" height="150mm" viewBox="0 0 32000 15000" shape-rendering="geometricPrecision" text-rendering="geometricPrecision" image-rendering="optimizeQuality" fill-rule="evenodd" clip-rule="evenodd"><defs><style>.fil0{fill:#d7b56d}</style></defs><g id="Слой_x0020_1"><g id="_2737050637808"><g id="_1599866407216"><path class="fil0" d="M14765.85 7539.43c166.92-190.83 482.91-390.82 742.78-261.44 234.59 298.66-123.47 673.06-448.54 677.9 23.91-173.93 151.1-337.24 119.68-503.65l-413.92 87.19zm3085.74-1456.17l234.15 265.22c-227.11-10.13-437.07-236.37-658.66-290.72-259.2 344.75-113.62 192.79-473.29 225.87 42.53 207.23 152.92 212.72 221.34 345.41-194.3-50.39-267.14-246.32-546.33-231.25-214.5 11.58-298.32 242.71-401.44 388.51-262.08-109.78-446.12-231.87-507.93 125.1 637.08 453.97 895.81 484.37 1373.49 719.43 577.12 283.98 917.79 621.24 516.74 1267.2l-34.16-165.6c9.23-288.23 300.85-674.83-404.51-938.46-532.81-199.13-676.38-248.36-1142.09-598.48-394.37-296.48-902.92-260.85-1320.74 2.99-729.8 460.86-320.44 433.32-393.34 1167.28 354.73 31.74 70.25-218.31 646.04 54.87 371.36 176.21 415.38 69.34 773.08 111.91l-27.31 675.56c182.76-37.89 145.79-92.53 275.69-139.72 149.84-54.44 745.52 43.95 887.63-412.74 197.69-635.29-606.23-612.83-877-755.01 346.27-315.94 709.15-163.8 1038.27 68.64 539.79 381.23 383.71 435.02 398.88 989.94 120.48 63.5 251.9 137.6 344.24 194.26l-388.93-118.23c-97.64 90.91-184.8 212.65-190.69 348.31 309.97 28.34 727.93 44.07 973.78 158.13-1104.58 34.68-1803.94-494.14-1931.4 22.4 387.89-58.1 553.2-46.32 951.39 20.5l196.14 44.55c105.66 41.37 44.06 18.14 74.34 40.35-287.15 19.77-1189.92-59.19-1381.37 46.99-21.6 181.99-33.6 155.06 121.75 227.42 315.45 146.94 610.27 49.32 1022.36 39.54 210.47-4.99 555.85-29.28 752.86-6.11 229.28 26.97 327.55 179.71 524.55-98.22-3.47-207.27 24.26-168.69-93.56-314.78 455.67-40.4 750.95 195.98 1266.4 107.69-89.23 265.22 43.75 239.89 138.76 496.45 114.75 309.86 49.44 872.37 348.16 1113.96 147.49 119.27 451.65 167.96 597.89 28.04 281.87-269.67-550.96-1287.19-791.02-1573.54l-232.79-178.74 78.99-205.77c-322.12 13.47-762.21 4.28-1089.04 3.35-470.46-1.34-499-20.43-916.23-168.12 322.07-122.9 562.44-153.73 565.72-620.62l-465.01 39.43c312-866.89 247.56-343.5-43.09-1052.72 232.86 92.28 432.3 467.96 526.58 713.28 222.9 580.06 26.64 536.41-202.39 894.24 111.46 78.68 123.93 69.42 286.51 64.87 82.62-618.42 512.72-221.4 483.64-809.82l-285.35-2.88c449.53-1052.17-513.55-620.19-658.24-1106.28 277.34 20.62 615.75 211.38 808.39 411.28 331.93 344.45 144.2 755.19 300.15 962.79-258.37 181.87-522.48 229.38-484.19 561.22 812.09-52.53 884.18-666.19 1384.86-900-71.32 227.57-335.85 400.8-422.16 612.69 320.84-7.37 666.58-659.8 957.77-841.74 137.6-85.99 240.38-112.29 395.15-229.84l10.03-284.05c-294.51-33.82-1406.2 909.88-1794.81 1042.55 44.9-179.34 198.43-474.92 342.23-577.26l3.32 260.57c110.78-25.98 266.82-121.44 314.96-226.87 115.65-253.27-5.47-268.37-171.01-359.5l136.49-272.9 111.13 55.5c509.88-655.63 384.17-933.7-278.94-1319.49-682.43-397.03-889.17-207.81-1331.19-153.94-147.38 17.96-332.96-25.47-445.64 35.11zm4312.44-2518.73c580.45-84.63 435.48 1221.85-205.93 1250.12 65.71-202.99 210.4-256.87 275.08-552.4 87.78-401.11-120.04-418.88-69.15-697.72zm227.41-1110.36c292.6 279.84 174.75 581.74-107.12 771.43-15.09-316.25-117.54-433.52-136.33-634.65l243.45-136.78zm-1233.04-390.01c96.5 58.89 225.39 123.27 335.44 180.07l362.87 200.92c-183.99 62.11-453.34-135.97-637.55-150.69-202.64 463.52 172.33 369.26 204.61 778.35-300.92 352.91-667.39 538.98-511.8 1168.23 166.89 674.9 609.58 547.31 864.49 923.96-242.56-69.22-384.48-117.56-582.49-291.83-243.26-214.1-215.64-299.5-378.96-521.04-638.88 37.37-568.07 561.17-640.6 1052.82-69.82 473.28 289.96 414.11 637.47 1040.33 583.17 41.45 1116.83-383.7 927.81-1020.51l202.06-1.5c505.44 1001.02-808 1080.12-1036.98 1246.65 191.32 138.37 924.25-136.57 1128.2-282.71 444.56-318.53 235.65-681.1 111.44-1058.15 127.32-237.31 361.31-468.12 515.92-759.42 205.69-387.54 38.08-632.08-96.36-971.95 144.78-272.01 282.94-254.69 271.4-637.31-10.41-345.36-151.13-401.53-317.86-629.8 233.97-840.36-410.11-1463.34-1229.67-1424.66-4.58 243.99 68.81 280.13 8.43 601.6-35.41 188.51-114.87 372.54-137.87 556.64zm-9214.65 10703.52c46.77 201.12 131.39 140.04 329.57 193.01 137.31 36.71 250.85 106.57 361.44 195.36 212.91 170.95 353.46 470.89 626.16 456.46 136.4-357.01-49.94-376.76-284.41-541.84 228.16-97.67 595.17 125.58 703.84 333.26-432.08 171.31-581.71 438.55-1171.12 602.08-402.2 111.6-1344.62-156.97-1526.97-63.58 244.79 390.46 1779.59 561.16 2248.11 576.78 3491.54 116.39 3443.53-1882.66 2568.42-1999.42-657.14-87.68-1613.51 389.97-2018.75 784.23-211.11-193.96-232.2-301.05-386.47-378.58-179.19-90.05-683.19-162.06-896.29-188.89-216.39-27.24-432.54-33.95-553.53 31.13z"/><path class="fil0" d="M19465.96 2344.21c-97.02-94.82 18.24-314.02 97.68-436.91 95.3-147.44 237.3-207.06 398.33-278.28 183.95-81.38 361.61-96.18 508.45-146.87 240.17-82.91 243.48-256.96 389.09-294.28 159.41 152.88 110.8 289.43-3.15 472.01-162.06 259.64-242.96 152.83-515.67 126.96-666.42-63.23-636.02 108.86-874.73 557.37zm290.56 132.69c-137.57-680.56 719.7-295.25 1036.09-413.27 410.16-153.02 546.28-644.22 367.72-1027.13-346.55-743.17-1681.46-569.76-2268.49-160.26-778.93 543.37-456.45 1560.66 327.34 1903.93 1222.34 535.33 1456.43-496.17 1000.84-617.82-373.14-99.64-267.75 222.07-463.5 314.55zm-9333.23 6048.92c-107.44 528.7-807.22 727.84-1316.19 1133.33-175.86 140.11-418.19 588.1-551.07 646.73 103.13-513.91 505.7-784.68 867.37-1081.59 226.66-186.09 998.77-673.15 842.6-1004.39-171.59-150.46-149.1-53.38-346.3-24.36 111.31-272.21 651.42-397.27 503.59 330.28zm-2142.01 3963c110.1-240.95-72.49-812.82 265.11-1607.92 387.43-912.43 1055.8-1113.86 1841.89-1875.62 349.73-338.9 399.12-1147.1-59.86-1287.63-488.58-149.61-1611.93 1456.06-1826.02 1852.16-267.81 495.5-379.82 831.45-464.33 1391.66-46.71 309.72-89.09 1406.64 243.21 1527.35zm8347.23-1825.83c-301.04 428.08 32.46 983.76-201.62 1739.31-53.76 173.53-160.56 362.4-77.33 524.17 217.69 72.85 432.27-283.71 531.23-469.09 187.12-350.53 160.15-497.07 193.65-877.06 157.99 232.87 72.88 642-37.36 916.93-52.42 130.74-108.46 243.06-192.44 358.39-92.29 126.79-206.21 213.81-134.03 340.33 257.94 107.21 686.09-867.69 729.87-1121.8 62.12-360.68-18.12-564.37-53.75-898.3-26.12-244.8-14.71-680.28-349.15-611.79l38.43 479.81c-130.99-48.48-65.53-71.91-101.89-246.92l-345.61-133.98zm0 0c48.89-130.42 81.62-102.91 192.49-193.58-153.47-449.36-774.51-209.77-1434.01-343.3-149.39-30.25-311.97-116.37-444.47-116.44-71.78 111.74-251.02 481.76-224.17 600.56 34.57 153 348.92 354.82 508.52 384.4 223.74 41.48 647.58-119.35 1083.71-177.23 199.45-26.46 138.33-96.78 317.93-154.41zm-6082.96-3399.48c44.82 152.04 376.41 482.17 513.51 623.4 184.27-75.37 918.71-488.27 945.55-656.92l-452.5-30c169.14-253.49 966.39-348.38 1271.51-317.6 37.7 173.27-39.62 135.32 57.09 248.66 161.62-38.91 249.87-154.9 246.95-322.9-294.22-173.61-1143.61-167-1478.77-96.55-357.77 75.2-876.61 282.69-1103.34 551.91zm2962.64 716.04c229.21 110.96 291.55-18.96 465.82 229.92-4.56 259.12-161.41 242.87-188.05 483l590.09 345.26c192.36-87.53 267.27-234.48 523.83-168.96 285.66 72.94 252.44 293.95 256.04 542.29 320.85-71.93 522.69-392.23 482.18-750.31-444.33-57.88-86.14 173.78-779.05-218.77-406.77-230.43-428.65 129.26-689.26 260.8-12.49-373.03 176.69-625.4-20.25-1010.84-197.32-386.18-570.24 18.7-641.35 287.61zm7587.97 30.95c81.62 75.11 655.24 315.31 805.02 382.48 294.05 131.89 537.64 308.43 840.5 254.86-111.77 196.73-7.96 401.7 35.19 645.82 43.19 244.34 19.95 507.58 63.23 723.9 190-38.23 241.13-476.97 268.22-651.58 78.16-503.72-22.21-392.78-135.24-769.43-156.86-52.49-33.69-53.15-174.25 4.1 56.72-140.65 72.36-43.79 66.63-221.39-888.32-225.29-2110.66-1334.7-1769.3-368.76zm-1772.49-2084.95c185.72 170.99 524.84 239.88 805.32 527.06 280.32 287.01 320.06 668.23 489.22 866.99 380.13-377.19 207.5-775.57-101.62-1137.09-332.6-388.96-702.25-633.3-1192.92-256.96z"/><path class="fil0" d="M12030.37 8663.17c229.33 129.64 186.21 138.97 380.18-44.59 75.09-71.06 351.78-276.25 368.04-302.98 84.67-139.13 258.88-885.21 218.81-1012.43-469.22-226.52-998.9 1047.47-967.03 1360zm1951.54 1163.52c-72.62 727.67 40.2 500.22-449.05 941.66 46.83 36.07 10.92 33.96 115.58 63.33 48.89 13.72 85.08 14.65 137.39 16.03 1005.4 26.71 1171.26-934.92 1021.5-1158.5-363.2-32.62 3.36 695.28-592.95 811.96 58.11-243.15 151.65-75.28 192.39-716.54 25.92-407.93-277.92-81.36-424.86 42.06z"/><path class="fil0" d="M12208.96 9623.21c114.43-15.2 272.82-281.81 569.95-403.4 452.02-184.95 261.82-123.8 539.19-488.96-333.57-741.68-1271.92-85.05-1109.14 892.36zm6428.84 1160.68c-128.23-109.84-167.73-258.72-302.72-302.18-102.47 161.72 103.03 685.02 150.73 890.88 66.82 288.44 142.26 642.58 233.1 918.12l241.14 4.27c66.83-172.79-134.9-1238.63-160.95-1551.6-18.8-225.9 48.02-396.06-152.46-436.98-56.24 144.71 4.37 306.24-8.84 477.49zm-4614.37-3272.08c167.48-134.08 9.72-969.92 185.42-1241.33 33.07 221.24 9.69 925.51 135.25 1056.47 215.79-96.63 3.81-227.29 35.95-812.12 16.66-303.03 195.69-639.91 186.43-854.84-533.79-105.99-507.01 275.08-585.39 705.18-53.51 293.62-104.39 603.48-87.99 905.07 10.6 195.01-6.07 206.23 130.33 241.57zm2092.21-919.63c151.17-282.36 188.23-1174.75 582.65-1380.52-46.54 305.72-388.29 885.3-374.1 1174.61 272.3 30.92 148.9-278.89 480.96-876.92 134.57-242.38 579.78-780.34 85.2-896.52-161.17 304.94-857.94 1171.83-830.34 1824.12 8.73 206.1-32.91 69.95 55.63 155.23zm-3342.51-986.4c-25.23-152.53 27.75-79.36-50.77-205.22-178.33 65.22-671.72 233.04-557.59 483.71 89.09 27.96 263.97-107.28 374.56-145.89 311.84-108.85 155.47-44.56 450.11-58.45 172.67-8.14 313.75-82.39 516.99-74.1 319.67 13.04 593.47 240.09 713.8-233.22-273.64-39.63-551.4-57.37-829.08-69.99-570.68-25.93-583.18 16.64-618.02 303.16z"/><path class="fil0" d="M13149.04 9378.86c255.58-73.54 266.9-581.27 784.15-250.28-.92 380.66-343.14 256.21-302.46 583.71 299.89 135.99 588.94-158.01 731.32-391.77-71.96-187.81-475.98-559.43-663.83-598.12-310.18-63.9-690.72 384.84-549.18 656.46zm2181.08-3271.61c193.05-260.96 82.68-627.83 499.3-818.83-117.16 491.64-377.14 874.56-305.47 1424.97 394.84 48.35 110-198.53 289.19-930 70.95-289.62 377.82-605.1 413.18-812.17-489.15-123.79-673.57 161.35-848.28 691.63-61.53 186.77-115.7 316.98-47.92 444.4z"/><path class="fil0" d="M13976.33 5131.18c273.21 139.81 124.7-5.81 413.67 66.18 237.48 59.18 841.95 57.72 1094.13 56.56 94.61-112.78 181.57-167.51 186.26-302.55l-1160.02-38.98c-10.12-1.7-20.17-4.49-29.9-6.81-.04 0-423.22-206.76-504.14 225.6zm4230.99 8489.07c450.16-118.64 855.35-717.74 851.39-1199.59-369.07-205.48-404 208.24-496.22 454.55-79.54 212.46-351.41 567.36-355.17 745.04zm-8776.19-3472.88c-101.77-85.71-46.01-84.57-173.19-95.34-129.64 140.13-89.71 403.71-110.48 612.03-23.62 236.75-147.93 375.3-88.58 577.18 349.65-335.05 621.88-957.61 653.06-1450.46-132.84 47.41-186.82 208-280.81 356.59zm10797.6-6725.88l-20.29-404.75c-113.41 1.69-143.77 31.98-209.07 115.1 175.22 527.08 40.77 270.2-78.06 912.49-26.2 141.72-22.61 50.92-17.54 181.5 282.21-118.83 980.66-1059.6 463.34-1288.03 2.02 199.85 69.33 373.89-138.38 483.69zm-4659.16 1377.69c195.57 13.38 341.11-21.07 540.34 17.91 148.89 29.13 277.97 84.37 435.68 100.43 103.5-101.79 255.42-281.1 272.97-412.04-238.47 12.13-385.39 102.51-598.84 49.27-192.51-48.02-411.41-150.95-606.04-127.36-48.18 145.45-75.84 222.52-44.11 371.79zm-650.67 1696.04c39.26-62.19 80.57-456.41 131.72-605.68 61.89-180.56 198.95-356.27 182.16-546.35l-343.07-44.07c-189.02 286.21-275.2 1087.96 29.19 1196.1zm5450.56 6191.75c171.99-39.03 320.4-301.59 405.65-480.52 75.4-158.27 223.67-588.22 82.43-717.16-328.28-299.7-214.94 463.82-488.08 1197.68zM13630 6770.04c90.3-131.27 81.93-333.15 153.53-488.99 64.43-140.25 189.86-271.63 216.5-418.68-126.88-64.39-194.15-57.24-338.49-55.66-150.2 299.5-229.02 665.97-31.54 963.33zm6296.81 943.76l-7.86 329.01c324.42-8.07 528.51-382.96 423.68-649.88-97.41 29.82-318.53 230.5-415.82 320.87z"/></g></g></g></svg>