<svg xmlns="http://www.w3.org/2000/svg" width="320mm" height="150mm" viewBox="0 0 32000 15000" shape-rendering="geometricPrecision" text-rendering="geometricPrecision" image-rendering="optimizeQuality" fill-rule="evenodd" clip-rule="evenodd"><defs><style>.fil0{fill:#d7b56d}</style></defs><g id="Слой_x0020_1"><g id="_2737008927312"><g id="_1599802659040"><path class="fil0" d="M15636.76 6024.3c12.76-74.06 50.96-62.03 110.94-97.52 42.33-25.05 93.09-70.05 144.12-69.03 28.81.57 118.77 46.98 159.98 48.06 67.16 1.78 96.92-46.11 159.8-29.01 49.12 13.35 220.24 85.28 257.89 157.88 27.19 52.44 33.59 119.09 40.37 176.49 10.82 91.49 28.05 84.87-22.8 168.23-129.77 212.71-178.53 150.82-255.2 161.45-73.25 10.15-65.17 57.69-154 39.02-6.3-1.33-330.62 42.7-445.32-169.9-48.99-90.82-50.15-280.99-22.76-377.6l26.98-8.07zm-2534.67-1448.98c-23.34-42.94-3.14-60.62 25.03-102.54 42.71-6.04 83.85-19.94 114.23-3.96l-139.26 106.5zm896.48-272.67c58.68-18.4 54.8-22.61 111.86-2.32 7.5 37.52-1.17 57.9-12.64 93.33-21.12 65.15 2.79 35.52-8.59 93.56-7.78 39.66-79.09 134.3-112.25 143.8-31.12-19.45-23.93-30.07-30.19-64.02-12.9-69.97-2.4-22.6-48.68-50.85 52.97-101.59 40.46-63.06 112.81-128.64 1.36-36.8 8.42-57.61-12.32-84.86zm3082.92-65.24c15.38-98.07 61.03-130.44-26.13-228.27-81.37 7.34-62.58 12.81-79.67 99.89-54.7-7.45-8.57-4.22-55.54-23.75-34.71-14.42-31.35-2.81-62.49-19.68 78.24-124.1 186.36-68.89 277.21-105.04 272.64-108.44 73.85 154.86.36 241.91-38.16 45.2-10.46 32.87-53.74 34.94zm-2793.67-219.21c37.83-20.73 49.52-4.15 100.98-13.47 86.19-15.62 177.82-82.61 384.78-53.27 113.55 16.1 138.71-26.23 281.95 72.72 94.03 64.95 137.46 211.32 163.05 321.52 16.71 71.97 20.08 143.15 24.29 215.47 6.05 103.85 80.15 93.58 110.1 149.93-129.21-19.11-162-78.86-247.88-171.22-86.75-93.32-99.69-176.45-187.99-210.58 18.37-9.32 202.99 2.67 186.32-134.4-8.26-67.98-21.88-6.61-62.27-99.98-28.97-66.96-44.08-44.35-103.36-56.43l-23.52-66.37c-129.32-10.15-103.79 118.85-140.41 191.36-297.7-295.36-338.77 6.72-465.05-107.77-40.63-25.73-14.82 1.42-20.99-37.51zm-236.59-598.28l34.91 95.07c-50.99 12.2-69.72-26.41-75.87-74.99l40.96-20.08zm120.09-204.51c44.94-17.61 127.83-13.6 171.01-11.66 83.75 3.76 91.98-22.4 165.81-23.94 38.59 53.8-16.41 11.41 40.52 47.29 33.34 21.02 27.66.44 49.52 45.43 43.3 89.16-42.86 67.32 32.63 140.47-31.23 18.84-20.63 14-42.42 52.76 43.4 56.91 110.03 88.47 176.52 96.08 71.31 8.17 116.27 82.44 42.43 141.68-60.2 5.62-37.76-19.52-106.74-22.36l-227.63 4.31c-49.63-10.91-68.7-3.76-120.48 16.65l-15.78 119.45c-21.87-1.11-104.12-14.25-117.67-23.46 18.55-75.6 47.98-42.31 110.7-93.34 9.34-128.8-56.39-72.73-34.93-166.06l-51.35.02c42.99-29.76 83.18-18.11 118.31-69.97 98.53-145.43 14.59-196.46-119.16-199.25-21.44-.45-18.28 9.22-58.28 10.88l-13.01-64.98zm628.99-632.02c1.71-66.35-30.3-107.07 70.78-96.6 65.69 6.8 99.73 6.04 118.76-60.65 22.04-77.27 13.81-72.52 94.97-104.87 95.46-38.06 87-49.29 127.29-61.47 15.63 40.17 16.86 69.28-26.86 83.08-182.43 57.61-158.91 84.47-149.49 213.35l78.39 24.38c-17.25 112-92.11 27.95-140.71 104.62-14.25 22.48-75.86 126.39-78.47 159.55-5.03 64.14 24.21 28.01-67.86 120.85-1.74 1.76-4.31 4.01-6.07 5.75l-80.55 69.47c-34.4 25.17-31.16 38.75-52.51 62.6-38.86 43.4-67.84 21.69-109.58 2.78-86.68-39.26-184.45 16.75-260.45-14.78-28.08-11.65-15.53-5.92-38.76-19.53-62.75-36.77-142.08-136.18-144.08-218.08l77.78-51.7c122.85-85.99 194.65-19.63 280.26-31.67 69.62-9.78 136.36-37.92 158.86-94.27 41.57-104.06 64.1-38.96 148.3-92.81zm-1266.92 219.26c-84.94 10.17-73.94-62.99-81.43-128.87-14.84-130.4-76.57-187.53-42.2-328.3 61.16-250.52-241.35-190.75-217.69-402.13 3.38-30.15 47.1-105.35 63.49-156.8 28.18-88.45 18.78-149.61 128.49-126.15 241.68 51.67 148.69 87.65-2.06 228.59-21.76 22.15-13.45 9.05-32.58 25.09l-11.72 11.04c-48.17 46.99-1.01 10.6-61.72 41.32-2.85 129.52 132.6 166.01 213.49 231.11 2.36 99.36-2.77 76.19 97.37 137.03 49.47 30.06 108.35 71.53 130.96 117.25-89.54 90.64-132.98 33.44-215.51 76.73-27.1 99.84 45.98 219.13 31.11 274.09zm435.73 44.88c-45.43-23.77-36.79-17.83-22.82-77.32 27.31-116.25 153.75-201.61 258.62-459.37 132.34-325.29 35.34-417.55-125.6-573.21-157.78-152.6-459.9-475.07-644.47-589.03-66.15-40.85-69.22-28.74-108.1-100.86-23.91-44.34-63.89-83.04-79.31-127.13 49.88 16.3 326.4 246.49 401.03 301.95 32.19 23.91 62.93 56.94 94.77 77.68l766.32 594.13c41.46 35.93 66.68 42.04 103.94 68.67 39.31 28.1 61.82 64.91 52.8 114.37-11.37 62.43-41.95 60.03-90.19 72.12-24.74 101.15-21.38 90.65-126.71 91.05-14.56 20.19-28.71 49.54-40.2 67.2-18.58 28.54.35 2.69-26.22 30.09l-108.31 121.97c-65.02 74.29-172.38 136.92-185.16 241.51-63.4-5.69-20.09-36.3-106.31 30.81-6.2 52.13 7.23 75.03-14.08 115.37zm3283.57-1844.99c-40.34-48.9-1.24-71.33-65.7-88.8-78.79-21.35-64.64 7.99-102.89-74.13-59.38-127.41-209.07-59.66-223.05-63.7-48.8-35.33-23.67-57.08-73.84-85.65-43.18-24.58-184.43-108.78-230.54-110.32-55.54-1.86-40.33 51.34-103.45-6.05-106.39-96.77-147.84-31.67-244.7-8.69-67.31 15.96-179.04-61.21-242.72-92.29-116.51-56.87-136.41-8.12-241.21 35.19-91.41 37.78-143.5 69.16-225.76 119.03-91.31 55.36-116.72 18.25-187.21 159.23-27.05 54.1-55.57 40.26-108.12 64.42-52.74 24.24-55.46 60.57-92.06 70.66-61.5-38.39-36.35-113.72-169.4-102.55-16.78 64.76 26.05 92.37-25.34 171.76-45.99 71.03-95.08 48.26-150.39 79.81-53.21 30.33-112.82 242.52-147.53 297.3-46.39-2.79-63.54-22.92-111.1-26.48-217.38-16.24-137.86 13.73-225.94-48.55-139.57-98.68-209.69-3.88-335.68-102.33-191.29-149.5-404.19-278.26-600.14-426.01-109.15-82.3-299.89-251.65-428.86-135.42 39.33 72.45 143.89 124.39 194.47 185.26-47.49 2.35-69.87-20-105.57-29.67-59.97-16.25-175.45-55.03-211.06 15.33-16.82 33.25-30.13 25.34-35.1 71.67l130.59 982.1c17.07 186.26 28.86 373.81 40.69 561.93 7.2 114.66-7.57 165.51 46.72 273.71 27.93 55.68 103.35 170.77 113.42 222.25-37.58 72.59-72.35 97.91-90.37 187.45-33.28 165.4 50.34 208.57-84.53 424.18-60.62 96.93-96.4 62.51-168.8 116.76-9.92 136.89 67.34 174.56 170.13 204.57 64.3 18.78 87.72-.18 132.58-38.86 19.69-16.98 31.1-33.46 44.96-45.67 18.07-15.92 40.14-23.02 62.19-41.44-2.06-80.84-16.47-53.81-61.59-109.46-33.23-40.96-49.45-85.54-33.46-135.02 88.23-64.7 229.07 50.84 276.42-58.75 64.65-149.64-59.94-160.96-100.3-227.4 33.39-76.27 66.3-41.63 140.39-46.36 45.47 75.27 4.49 39.97 81.48 102.76-33.67 37.3-51.35 92.43-12.26 139.19 40.25 48.11 79.25 35.02 130.64 40.78-101.55 27.33-13.29 42.19-118.87 75.96-76.68 24.53-79.09 39.9-134.3 82.63 6.31 21.43 8.06 14.94 10.56 21.12l12.99 38.92c-38.04-1.08-115.71-13.63-148.26 49.42-30.38 87.6 9.5 97.68 38.22 154.31 50.8 100.13-2.8 101-37.35 148.82 22.11 100.86 131.09 172.91 211.49 83.43 10.24-37.16-13.6-55.27-6.34-90.55 7.4-35.87 35.9-44.22 39.17-97.63 3.75-61.17-31.56-178.82-33.39-235.7l128.5-7.61 11.42 150.45c63.72-1.2 122.15-35.47 157.4-82.14 75.36-99.72 36.55-135.25 67.92-186.39 94.17-17.97 56.45 47.72 138.68 77.24 96.46 34.62 103.23-39.07 153.12-59.97-31.88 53.88-41.58 109.56-24.85 175.08 24.21 94.73 41.82 79.82 101.06 110.32-54.22 21.21-46.7 23.3-76.77 60.83-34.46-13.37-66.05-32.33-90.2-42.24-24.11 18.77-40.09 21.98-56.28 32.81-48.83 32.7 2.01 2.17-26.22 52.63-164.87 6.45-161.14 64.33-189.9-96.9l-108.89 9.67c-32.76 107.49-105.11 180.15-140.5 320.2 138.9 61.79 152.62-50.05 224.03-89.24 134.43-73.79 110.67-16.4 205-3.92 42.29 5.59 52.09-6.56 83.58 10.12-16.13 64.1-14.4 21.67-71.53 60.23-4.96 105.45 1.66 84.45 61.19 149.04-32.04 56.15-23.77 73.97-83.31 107.06-53.01 29.47-76.89 43.01-118.59 31.81-5.78-98.77 68.68-183.26 88.41-273.73-48.28-24.53-24.44-32.66-92.59-22.36-39.33 5.95-59.89 16.77-75.77 54.65-28.07 66.91 12.84 37.06 21.78 82.65 11.82 60.26-102.23 134.44-153.21 128.22-126.92-15.49 8.01 38.45-151.74 17.3-34.07-4.51-70.48.42-107.88 11.9-20.99-34.65 49.09-34.29-70.82-74.6-80.71-27.15-164.22 19.6-249.83 37.32 4.41-37.65 24.1-44.26 23.05-74.12-1.22-34.72-20.71-38.7-21.33-78.79 36.91-36.22 60.35-26.11 69.64-73.9-10.26-47.23-40.64-36.13-65.05-67.78-21.96-28.51-16.11-65.83-41.97-107.83-30.4-49.37-112.76-118.42-167.84-60.52-14.53 36.88-2.03 21.18-11.54 48.53-18.39 52.95-52.59 77.71-34.89 147.11 10.76 42.23 63.57 98.04 99.65 167.27-43.99 36.96-33.04-4.91-71.47 59.09 15.94 57.02 8.07 32.12 48.26 67.91-20.27 34.51-52.61 35.24-46.42 91 6.89 62.08 122.87 144 205.34 128.32 41.06-7.81 21.04-18.69 59.7-.15-17.6 28.63-42.19 46.09-78.56 52.18-55.05 9.24-22.97-30.43-84.58 4.01-19 10.63-39.11 23.95-54.38 38.36-35.06 65.16 51.31 136.59 113.77 142.67 86.54 8.42 117.64-57.7 193.77-60.85 46.58 41.77 41.66 93.16 107.69 123.6 89.19 41.11 97.06-4.02 175.06-5.42-53.03 50.33-101.36 117.91-116.29 197.63 109.86 36.8 122.15 57.28 244.21.02-6.12-44.46-18.33-19.88-4.25-73.63 30.01-10.69 42.17-23.3 68.13-14.73 10.08 130.02-59.62 114.72-137.51 152.24-79.55 38.31 26.07-5.16-92.32 69.06-17.61 11.04-6.71 2.74-19.19 16.42-1.69 1.85-3.28 4.96-4.87 6.89l-9.44 13.76c-30.2 35.06-26.07-1.91-46.31 41.34 56.34 77.28 82.25 19.79 148.26-5.38l31.09 50.89c105 2.24 140.3-72.11 219.09 82.92 27.78 54.65 19.87 104.12 82.79 121.09l90.44-65.58c109.06 128.76 10.2 128.02-56.51 173.8l18.63 73.64c66.39.02 39.78 11.91 101.08 12.48 43.51.39 85.43-3.61 127.8-.78 84.93 5.71 181.89-19.35 270.8-1.53 32.3 45.47 9.86 77.52 68.96 112.24 69.34 40.73 110-2.24 144.23 57.5-32.48 32.43-135.22 58.16-189.28 93.03-56.79 36.64-13.35 17.45-34.58 39.45-25.72 26.66-28.11 6.16-55.02 30.51l-65.82 76.88c-32.66 35.65-20.4-5.03-32.4 60.96 87.96 44.31 110.94 9.38 162.31-37.55 41.15-37.59 109.68-63.21 153.71-100.59 62.48-53.05 53.7-55.19 153.86-99.61 198.49-88.03 158.57 23.93 154.02 118.29-3.24 67.11 14.25 16.66 38.48 82.31 60.54 164.08 25.37 292.25 177.82 617.38 129.65 276.51 217.35 501.55 268.23 806.96 41.83 251.16 69.97 607.42 274.49 783.9 107.86 93.08 242.48 141.67 384.34 141.03 116.68-.51 303.64-66.26 377.36-161.11l-40.31-86.24c-155.02 77.28-257.67 187.11-514.64 85.36-190.9-75.59-212.61-199.91-306.34-350.69 2.41-1.81 6.58-6.89 7.89-4.42l32.95-12.15c54.08-9.89 89.62 11.84 118.72 51.45l-42.83 79.54c191.72 203.84 401.19 221.34 631.56 69.15.7-81.49 7.02-60.8 24.06-126.13 176.91 39.55 312.26-205.37 161.28-234.92-21.63-4.22 1.74 4.29-22.05-2.74-21.41-6.32-1.96 1.52-20.04-9.48-43.61-26.52-80.35-71.75-127.91-82.92-30.58-7.18-2.13 4.27-42.24-12.26-17.84-7.35-32.32-13.67-46.96-20.18-42.9-19.08-66.13-31.72-77.87-77.95 26.17-30.18 83.92-67.34 116.38-91.2-3.51-110.84-107.93-275.01-238.16-240.51-27.2-72.61-147.93-235.96-224.2-143.5-44.36 53.79-114.85 236.83-51.31 322.96 71.45 96.9 125.43 62.4 195.22 231.51 43.73 105.92 86.28 278.69-83.54 271.11-46.99-108.31 4.77-124.99-17.19-231.28-23.18-112.11-76.52-21.5-132.48-142.04-37.67-81.17 2.93-118.7-35.88-205.78-27.46-61.62-103.1-107.95-168.61-100.77-14.48 110.68 52.55 104.54 61.71 218.01 5.64 69.77-23.48 61.29-28.25 113.84-5.23 57.41 23.15 78.35-25.01 103.74-18.83-32.2-1.94-117.63-17.94-227.77-32.46-223.44-96.27-442.58-181.35-648.13-85.69-207.01-210.68-389.4-194.83-624.67 5.65-83.73 1.66-194.82 113.45-151.89 32.89 73.46 40.52 149.71 84.23 233.95 39.89 76.86 106.26 135.61 138.81 193.88 27.29 48.86 27.99 350.67 33.83 440.13 3.61 55.28-9.43 73.49 57.26 85.43 62.09-42.26 85.68-150.3 135.14-200.93 8.46 53.5-2.8 134.2 39.49 159.58 45.2 25.16 60.73 10.69 91.66-27.07 17.48 18.5 27.53 32.82 47.96 56.99l91.04-17.11c85.12 71.14 53.77 39.42 137.21 6.83 75.47 25.29 45.68 64.45 126.93-9.99 78.87 98.66 111.09 29.39 150.54-34.97 26.68 14.45 47.11 29.19 76.04 11.27 42.07-26.04 15.28-27.3 28.96-62.53 11.8-30.4-8.43-5.36 15.07-27.58 13.05 51.82 44.48 95.62 65.17 150.02l66.23.44c73.21-97.36 40.99-345.61 34.81-472.27l187.53-193.77c57.28-61.65 129.86-167.33 159.52-243.55 25.09-64.45 3.8-233.05 97.92-295.02 44.88-29.56 38.47-.67 64.67-60.88 45.8-105.26 175.53-516.82 181.84-612.31-91.88.38-82.75 45.71-148.45 53.51 36.84-61.6 33.32-34.32 82.07-76.39 53.63-46.26 135.33-67.33 132.51-150.13l-53.22-25.68c-67.41 37.37-95.74 81.02-151.07 127.26-34.95 29.22-132.41 97.23-171.66 111.32-26.61-31.43-2.53-15.44-24.32-52.03-20.58-34.53-30.23-19.55-51.62-52.31-46.26-70.88 61.63 11.98-177.58-350.86l-113.46 16.9c21.37-56.96 14.55-30.11 55.72-63.87-6.91-174.64-59.07-82.9 41.22-258.09 21.86-38.18 30.16-84.97 69.81-104.44 51.33-25.21 72.51-2.08 108.13-65.24-33.84-30.93-49.9-33.69-81.58-68.82 8.72-31.4 3.48-38.25 35.35-54.27 38.85 42.87 22.25 91.02 75.02 117.56 65.73 33.04 105.97-2.17 166.56-1.65-8.94 33.02-38.24 49.82-65.19 80.31-59.84 52.81-156.43 59.94-206.22 104.93l-95.5 65.96c-.99 95.63 43.6 237.23 111.35 302.09 57.92 55.44 263.9 23.17 338.2-1.69 96.18-32.17 180.95-96.17 245.8-168.46 136.91-152.61 230.02-448.21 155.44-641.66-48.75-126.49 79.04-98.56-68.61-286.82-63.55-81.03-158.85-161.36-269.98-141.76-91.82 16.2-51.48-16.19-140.5 18.96-193.74 76.49-143.85-5.16-210.46-37.28-4.61-2.22-73.42-13.78-90.28-17.35-33.68-98.82-116.21-211.69-219.26-241.29-55.57 63.7-29.25 242.18-161.98 222.13l10.42-135.31-102.39-11.84c-4.6 73 25.23 29.86 14.24 96.25l-36.6 16.93c-44.18-52.18-18.47-82.05-20.95-144.82-96.38-.26-169.19 92.86-166.59 179.17 2.22 73.25 32.67 67.74 52.79 132.36 20.15 64.7-2.8 133.81 3.98 153.88 18.62 10.42 73.92 10.89 103.57 1.54 46.09-14.54 27.06-41.13 32.23-90.98 50.96 1.99 75.72 12.32 113.47 47.87-15.49 51.25-42.82 134.85-98.09 144.89l-34.89-77.91-78.38 34.94c-10.32 141.68 28.47 76.3-52.71 179.54-51.68 65.72-35.43 111.08-12.97 182.17l80.32-5.08c-15.63 50.64-72.04 117.86-70.28 167.28l104.19 7.79c46.11 100.71-135.52 131.17-169.91 235.61-14.93 45.4-24.05 63.55-45.7 107.58 40.52 82.29 95.37 127.31 84.78 232.62-8.51 84.71-7.93 247.73-.04 332.7 41.48 18.62-.31-12.47 50.61 11.98-20.08 44.05-45.22 73.12-59.99 116.32-17.26 50.46 14.84 90.43-14.78 136.71-19.37-29.54-11-72.71-14-114.74-5.13-71.76-16.28-36.26-43.06-94.56 19.24-60.89 50.43-41.27 54.44-153.09 2.3-64.47-6.34-143.4-8.01-213.2-1.5-62.49 4.54-148.24-39.66-192.01-143.15-141.74-3.52-124.67-29.54-222.58-18.45-69.39-27.41-4.62-27.83-92.53-.29-60.79 46.4-138.83 3.46-184.04-47.67-50.21-75.09-56.84-99.48-133.57-19.05-59.92-30.45-123.18-45.45-182.82-84.07.89-64.51 16.17-182.09-1.87-43.28-6.64-19.83-12.04-63.06-12.31l-17.98 71.73c-17.9-64.83-12.77-178.8-7.55-248.29 110.87 42.67 75.42 104.23 155.22 117.38 22.29-23.32 22.14-45.72 34.87-79.63l70.44 2.21c19.82-98.13 3.41-166.64-74.53-225.55-112.09 66.03-26.38 27.65-63.49 131.85-65.63 1.06-46.59-21.72-64.94-75.04-12.46-36.18-36.44-72.53-47.19-102.67-31.83-89.19 29.76-26.35 7.74-110.04-9.23-35.07-44.08-46.99-54.33-114.35 30.79 14.75 72.52 25.29 99.14 46.69 35.78 28.75 34.45 47.34 90.26 60.47 72.33 17 199.52 64.3 151.28-59.87-64.55 2.55-107.61-2.28-170.05-24.38-72.1-25.52-63.68-94.13-96.44-160.46 82.98-37.67 113.09-37.35 134.49-134.54 24.3-110.34 63.44-95.63.15-204.23 101.46-15.28 137.16-45.59 157.34-145.29 30.95-152.98 38.17-92.15-14.8-231.28-66.26-174.03-12.7-108.85 21-223.46 11.17-37.99 16.67-90.34-10.53-121.08-46.07-52.08-141.86 9.09-96.43-170.93 17.28-68.5 8.9-51.24 55.65-95.23 96.08-90.41-40.14-138.63 120.36-186.47 26.11 45.14 72.52 439.47 88.08 528.68 24.04 137.77-50.89 117.28-7.58 249.05 63.91 194.51 102.03 77.53 150.11 57.48 62.04 91.2 69.8 353.21 257.68 238.6 5.62-67.56-33.54-127.5 11.12-181.05 45.25 60.86 89.08 209.14 39.97 275.99-59.19 80.57-118.58 93.61-173.1 198.75 83.93 145.28 261.68 183.33 414.68 219.44 60.55 14.3 208.52 86.64 233.52 88.94 96.08 8.83 172.53-68.23 181.52-149 24.44-219.21-145.8-511.64-306.95-658.1-60.25-54.75-133-83.62-197.32-135.74l21.7-65.14-145.01-89.48c-44.77-24.71-101.21-91.28-139.55-76.82-17.29 13.77 7.11 114.54 13.3 144.94 16.92 83.16 67.16 64.67 17.79 149.36-17.83-15.89-5.32-.23-19.67-20.16-15.24-21.17-6.51-5.63-16.61-31.18-90.04-227.78-8.76-318.77-9.18-369.86-.51-61.41-30.32-86.53 32.76-124.5 60.78 8.99 63.82 51.24 117.32 78.59 84.67 43.31 229.21 24.18 301.98 89.41 66.74 59.83 144.23 122.53 244.51 134.23 298.81 34.86 276.58 207.58 354.17 235.25.14.05 237.27-4.94 35.18-196.49-187.22-177.45-187.59-102.57-271.76-119.43-50.35-81.73 27.61-60.9-36.78-135.94-94.99-110.72-49.02-21.07-119-63.35l43.14-60.29-31.04-69.88-92.51 24.9c-38.39-306.36 92.95-271.36 281.06-454.99 66.83-65.24 133.03-99.93 190.94-177.56l550.67-557.14c98.81-86.79 184.54-184.91 287.46-266.14 39.17-30.91 90.9-36.95 109.3-67.58-51.11-85.65-221.26 37.05-296.16 64.68-61.84 22.79-87.52 48.1-142.63 77.8-72.97 39.33-67.19 65.19-137.94 92.28-59.78 22.89-20 7.47-47.84 38.91l-196.61 142.38c-42.29 38.83-200.02 197.43-241.21 201.6zm532.4 13283.45c70.11 36.84 98.15 131.34 82.84 208.59-17.69 89.31-4.6 181.5-25.42 235.86-3.93-37.31 2.4-80.86-13.18-115.02-28.46-62.37-30.89 6.6-43.02-96.7-6.84-58.38-30.09-185.09-1.22-232.73zm-589.74-139.53c35.19 15.09 55 35.69 68.95 77.78 15.63 47.17 26.64 81.27 17.92 128.98-44.39-26.37.57-24.87-44.4-31.5-55.89-8.24-2.75 15.59-65.62 17.86 1.02-48.7-3.52-155.84 23.15-193.12zm-1364.28-892.86c-12.18 76.26 19.06 105.42 7.69 159.62-65.96 30.9-93.83-13.96-201.98 62.84-67.3 47.78 17.73 26.28-57.76 37.64 3.82-63.38 70.07-99.26 93.59-185.05l9.88-499.12c-2.08-98.6-119.76-83.01-29.65-180.8 84.37 12.62 73.12 91.03 155.34 112.56 1.75 64.67-18.79 14.9 2.53 80.01 7.15 21.84 20.83 45.16 26.61 65.17 42.63 147.75 12.29 231.07-6.25 347.13zm1246.17-3047.4c-35.27 17.56-139.56 219.21-212.38 162.35-42.52-74.55-11.22-118.95 5.44-200.25 14.23-69.47 15.86-119.19 54.59-178.29 92.99-141.89 47.89-216.03 38.31-377.56-7.22-121.71 1.69-99.99 46.94-192.88 80.14-164.51-28.3-190.22-43.43-353.92-6.69-72.3 12.6-141.57-49.79-179.98-95.13 73.03 3.58 228.42-64.68 362.82-70.08 137.99-69.93 225.95-69.94 375.77-.03 265.82-26.25 557.38-53.46 822.87-21.62 210.85-35.92 522.25-122.8 711.27-131.56 286.22-181.31 356.18-211.05 686.67-42.23 469.37 105.47 913.68-74 1495.47-46.09 149.4-240.16 119.34-248.44-.91-8.9-129.32.14-291.85-15.33-418.56-24.17-197.88-211.17-129.61-224.96-217.43-8.03-51.06 4.27-130.4-15.42-180.36-78.32-198.78-40.93-151.21-157.99-113.18-52.93-40.54-39.54-67.59-120.39-5.62-2.72 57.91 9.22 124.66-10.7 177.92-40.05 38.81-47.85 7.46-81.43 43.96-26.42 28.71-21.55 52.88-40.22 88.44l-81.01 11.94c-13.19 48.21 5.79 86.31-4.81 131.01-8.01 33.81-39.37 63.01-21.31 115.43 17.01 49.4 15.62 9 27.33 55.23 18.23 71.95-5.06 158.14 8.6 229.87 26.96 17.66 63.68 18.82 104.73 25.6l-2.23 71.93c-60.53 12.39-148.47 33.71-206.08 71.63-36.2 23.82-96.73 101.34-119.95 145.58l-56.72 227.61c-1.74 22.89.87 52.18-4.49 77.51-7.81 36.91-53.33 94.45-69.33 129.26-51.47 112-50.99 198.29 67.76 238.69l73.64-156.66c.79-7.85-4.59-39.74-3.55-57.79 2.46-42.52 29.77-77.94 46.14-115.31 20.81-47.54 18.95-72.9 69.16-81.43 51.48 75.57 14.6 54.48-6.02 97.6 43.33 48.35 52.24 27.84 82.29 1.9 39.88-34.43 37.38-21.8 83.49-43.12 51.8-100.21 102.36-279.19 170.69-370.09 24.74 32.01 12.4 30.36 5.99 83.6-3.95 32.76-3.95 59.59-3.33 92.42 2.95 156.2-27.11 310.78 29.51 465.28 111.34 8.96 91.07-66.46 142.1-135.29 30.32-40.9 89.71-146.09 130.69-159.58 43.28 70.57-26.03 152.96 55.41 213.98l66.67-9.59c15.05-78.33 42.07-167.97-23.41-227.35 84.17-131.04-7.06-124.22 28.8-253.93 42.2 37.06 89.02 51.54 129.43 100.32 119.24 143.97 136.3 318.25 84.85 487.12-16.63 54.6-31.62 127.85-45.73 184.15-1 4.01-21.14 401.34 242.96 387.26 89.35-109.3-24.2-101.41 163.2-223.08 6.53 40.73-4.53 116.84 46.52 117.04 20.49-62.57-9.44-78.1 38.19-136.82 114.08-140.6 57.89-322.74 88.72-373.83 18.75 21.85 19.08 74.69 21.88 106.03 4.47 50.14-.48 98.47 3.1 147.77 5.74 78.78 36.69 159.6 69.42 229.12 81.39 172.87 174.19 212.17 337.81 239.16 54.94-107.51 8.7-205.55 19.44-315.65 18.28 24.27 18.75 45.06 54.95 55.08 39.97-23.65 30.04-51.77 50.81-84.87l47.62 159.62c92.5-45.91 59.05-167.17 74.34-262.05 48.17 54.58 37.45 159.07 57.1 233.98 15.36 58.52 39.58 38.12 76.16 76.13 41.78 43.41 14.5 47.09 84.72 44.76 23.16-34.9-3.92-18.22 36.19-55.78 38.61 25.95 28 32.41 52.12 66.91 28.57 40.85 15.99 19.46 73.39 37.48 9.33-9.97 14.04-18.83 23.33-29.57 50.06-57.88 113.8-19.15 166-67.93 36.9-34.48 31.82-38.26 60.34-109.8 31-77.71 58.98-75.1 4.17-157.9-35.97-54.36-28.8-140.35-20.1-205.75 51.34 46.44 54.71 131.43 80.44 204.19 17.27 48.84 58.4 152.76 88.78 188.14 101.18-49.25 93.2-46.6 71.22-143.07-21.95-96.39-10.82-149.59 97-152.2l22.19 93.32c123.55 22.42 117.33-23.16 75.83-147.81-65.97-198.18-172.89-219.37-251.58-347.15-39.84-64.69-65.96-123.94-135.57-162.13-199.97-109.72-396.34-538.73-443.24-760.12-47.3-223.3-48.9-287.71-6.24-509.91 32.09-167.12 55.47-346.35 89.92-510.25 33.31-158.45 72.69-346.76 92.82-506.39 22.27-176.66 7.36-75.16 55.87-221.51 39.85-120.23 15.28-163.19 31.61-266.12 22.21-31.31 78.48-59.08 72.62-101.44-9.94-71.72-34.99-15.88-18.8-143.97-25.51-17.64-56.59-12.44-101.88-40.66-41.84-26.06-44.91-41.69-88.74-48.04-11.08 124.47 23.31 206.89-98.67 385.16-68.32-174.68-11.37-203.71 42.61-339.05 42.45-106.4 53.82-285.23-105.37-270.55-82.86 7.64-178.01 290.56-227.78 384.95-20.36 38.63-39.81 111.27-80.06 128.33-48.97-44.89-33.69-67.45-19.44-131.06 10.95-48.88 12.9-92.19 23.15-139.47 17.12-78.95 43.83-176.62 53.65-254.89 13.28-105.87 75.6-109.94 90.86-201.13l41.06-265.01c-32.89 2.76-43.98 16.26-60.6 36.32l-143.36 157.28c-158.07 188.23-114.99 108.11-208.86 50.81z"/><path class="fil0" d="M18193.72 2381.8c-46.36-12.8-79.99-67.14-121.06-95.32-43.39-29.75-119.57-43.5-149.07-82.67 33.67-84.48 329.7-337.51 199.05-776.74-17.95-60.33-52.46-99.75-25.63-158.63 35.47-77.85 84.04-46.79 134.24-86.34 16.42-12.93 22.31-49.04 20.18-69.67-6.04-58.4-9.34-28.19-54.22-55.45 57.11-96.63 313.03-223.85 176.67 70.06-92.91 200.26-85.09 117.91-147.25 383.25-23.69 101.14-32.21 153.08-31.6 259.38.68 121.33-26.21 149.33 62.6 227.6 140.56 123.9 26.6 312.64-63.91 384.53zm190.5-1925.51c-131.54 38.02-185.33 121.81-282.25 215.3-240.29 231.8-529.37 499-756.61 730.06-248.6 252.78-361.41 281.57-61.07 588.51 335.34 342.72 216.95 206.42 578.71 413.62 109.39 62.64 185.95 138.91 286.2 208.51 209.3 145.28 276.59 318.95 464.54 185.36 66.66-47.39 58.77-123.9 55.29-197.39-7.45-156.84-18.13-312.49-28.91-469.1-27.65-401.7-62.18-966.28-104.42-1361.63-8.7-81.38 2.38-357.71-151.48-313.24zM15418.2 11914.76c14.56 7.46 191.67 255.8 378-32.58 74.78-115.73 26.64-227.9-55.26-272.25l-221.81-183.85c-105.91-129.96-31.02-32.14-99.81-87.12l-97.7 55.47c-16.25 96.32 17.94 172.06-39.6 245.54-168.57 16.35-65.31-241.14-101.47-303.64-44.34-34.23-65.15-28.63-97.3-51.6-14.43-38.3-40.05-194.51-45.9-242.53-12.82-105.23-5.7-135.28-136.94-123.68l-36.53 78.38c-171.84-126.09-177.71-487.49-192.42-522.78-12.39-29.75-97.41-90.65-129.63-100.38-46.53 83.66-62.14 433.14-21.88 518.62 32.41 68.8 112.23 68.03 115.64 184.16l-15.38 508.82c2.6 119.84 29.65 119.49 89.94 200.89 53.97 72.87 31.54 117.84 119.64 167.12 62.07 34.72 146.11 32.6 204.73-13.36-9.35-46.3-37.78-43.47-8.56-89.15 59.02-92.24 169.66 19.23 224.91 41.18-.15 69.56-18.8 35.21 24.91 90.31 110.54 15.64 82.98-34.34 142.42-67.57zm3100.83-7095.04c-47.05 18.97-34.46 37.86-36.54 86.5l-54.27 557.41c-15.1 138.03-16.52 95.76-80.6 160.93-83.1 84.5-20.23 796.11 33.28 833.39 47.13-34.48 84.81-286.17 93.29-358.79 8.41-72.03.94-150.39 2.72-214.45 3.11-111.59 22.02-112.26 45.15-201.39 28.72-110.63 42.29-789.28-3.03-863.6zM15636.77 6024.3c1.55 88.61 7.25 75.72 65.43 132.41 178.93 174.38 369.07 11.24 330.47-62.92-113.04-104.57-255.14-81.8-395.9-69.49zm-939.74 7646.78c44.1 46.93 161.56 89.76 214.88 37.23 56-55.16 77.62-87.95 151.33-142.06l-20.62-106.51c-124.35-23.38-167.26 54.7-210.08 76.53-66.63 33.97-71.13 51.97-95.49 84.61-18.15 24.33-22.91 15.43-40.02 50.2zm351.75-913.1c-22.04 49.38-44.97 362.41 43.68 357.37 89.69-5.08 84.59-90.72 83.63-157.81-3.9-274.13 28.77-261.27-127.31-199.56zm272.96 1499.43c15.42-211.25 6.57-63.11 31.34-163.61 7.81-31.71-17.04-97.66-73.66-77.81-17.35 39.17-6.81 53.87-16.18 91.19-.06.2-81.03 169.33 58.5 150.23zm3036.34 394.35c48.67-24.44 35.21-33.75 58.82-75.96 34.41-61.51 44.93-8.96 65.27-60.42-31.26-14.05-12.35-1.92-32.82-6.96-37.92-9.34-6.23 1.27-36.6-13.15-35.4-16.81-15.23-27.51-70.09-8.06-46.98 49.97-15.17 117.79 15.42 164.55z"/></g></g></g></svg>