<svg xmlns="http://www.w3.org/2000/svg" width="29" height="30"><path paint-order="stroke fill markers" fill-rule="evenodd" d="M21.964 22.527h-.64l-6.42-15.59a.437.437 0 0 0-.808 0l-6.42 15.59h-.64a.437.437 0 1 0 0 .875h1.866a.437.437 0 1 0 0-.875h-.28l1.56-3.79h6.303l1.56 3.79h-.28a.437.437 0 1 0 0 .875h4.2a.437.437 0 1 0 0-.875zm-11.421-4.665l2.79-6.778 2.792 6.778h-5.582zm8.449 4.665L13.807 9.935l.693-1.684 5.878 14.276h-1.386zM27.562 2h-1.865a.437.437 0 0 0-.438.437v.496H23.83a.437.437 0 1 0 0 .875h1.43v.495c0 .242.195.438.437.438h.495V6.17a.437.437 0 1 0 .875 0V4.74h.496A.437.437 0 0 0 28 4.304V2.437A.437.437 0 0 0 27.562 2zm-.437 1.866h-.991v-.991h.991v.991zm.437 22.393h-.495V24.83a.437.437 0 1 0-.875 0v1.43h-.496a.437.437 0 0 0-.437.436v.496H23.83a.437.437 0 0 0 0 .875h1.429v.496c0 .241.196.437.437.437h1.866a.437.437 0 0 0 .438-.437v-1.867a.437.437 0 0 0-.438-.437zm-.437 1.866h-.991v-.991h.991v.991zM2.37 13.196a.437.437 0 0 0-.437.438v.933a.437.437 0 1 0 .875 0v-.933a.437.437 0 0 0-.438-.438zm0-2.799a.437.437 0 0 0-.437.438v.933a.437.437 0 0 0 .875 0v-.933a.437.437 0 0 0-.438-.438zm0 5.598a.438.438 0 0 0-.437.438v.933a.437.437 0 0 0 .875 0v-.933a.437.437 0 0 0-.438-.438zm0-8.397a.437.437 0 0 0-.437.437v.934a.437.437 0 1 0 .875 0v-.934a.437.437 0 0 0-.438-.437zm0 11.197a.437.437 0 0 0-.437.437v.933a.437.437 0 0 0 .875 0v-.933a.437.437 0 0 0-.438-.437zm0 2.799a.437.437 0 0 0-.437.437v.933a.437.437 0 0 0 .875 0v-.933a.437.437 0 0 0-.438-.437zm24.26-8.398a.437.437 0 0 0-.438.438v.933a.437.437 0 1 0 .875 0v-.933a.437.437 0 0 0-.438-.438zm0-2.799a.437.437 0 0 0-.438.438v.933a.437.437 0 0 0 .875 0v-.933a.437.437 0 0 0-.438-.438zm0 5.598a.437.437 0 0 0-.438.438v.933a.437.437 0 0 0 .875 0v-.933a.437.437 0 0 0-.438-.438zm0-8.397a.437.437 0 0 0-.438.437v.934a.437.437 0 1 0 .875 0v-.934a.437.437 0 0 0-.438-.437zm0 11.197a.437.437 0 0 0-.438.437v.933a.437.437 0 0 0 .875 0v-.933a.437.437 0 0 0-.438-.437zm0 2.799a.437.437 0 0 0-.438.437v.933a.437.437 0 0 0 .875 0v-.933a.437.437 0 0 0-.438-.437zm-13.063 5.598h-.933a.437.437 0 0 0 0 .875h.933a.437.437 0 1 0 0-.875zm-2.8 0h-.932a.437.437 0 0 0 0 .875h.933a.437.437 0 1 0 0-.875zm5.6 0h-.934a.437.437 0 0 0 0 .875h.933a.437.437 0 0 0 0-.875zm-8.398 0h-.933a.437.437 0 0 0 0 .875h.933a.437.437 0 1 0 0-.875zm-2.8 0H3.742v-.496a.437.437 0 0 0-.437-.437h-.496V24.83a.437.437 0 1 0-.875 0v1.43h-.496a.437.437 0 0 0-.437.436v1.867c0 .241.196.437.437.437h1.867a.437.437 0 0 0 .437-.437v-.496H5.17a.437.437 0 1 0 0-.875zm-2.303.933h-.991v-.991h.991v.991zm16.3-.933h-.934a.438.438 0 0 0 0 .875h.933a.437.437 0 1 0 0-.875zm2.798 0h-.933a.438.438 0 0 0 0 .875h.933a.437.437 0 1 0 0-.875zM13.567 2.933h-.933a.437.437 0 1 0 0 .875h.933a.437.437 0 1 0 0-.875zm-2.8 0h-.932a.437.437 0 1 0 0 .875h.933a.437.437 0 1 0 0-.875zm5.6 0h-.934a.437.437 0 1 0 0 .875h.933a.437.437 0 0 0 0-.875zm-8.398 0h-.933a.437.437 0 1 0 0 .875h.933a.437.437 0 1 0 0-.875zm-2.8 0H3.742v-.496A.437.437 0 0 0 3.304 2H1.437A.437.437 0 0 0 1 2.437v1.866c0 .242.196.438.437.438h.496V6.17a.437.437 0 1 0 .875 0V4.74h.496a.437.437 0 0 0 .437-.437v-.495H5.17a.437.437 0 1 0 0-.875zm-2.303.933h-.991v-.991h.991v.991zm16.3-.933h-.934a.437.437 0 1 0 0 .875h.933a.437.437 0 1 0 0-.875zm2.798 0h-.933a.437.437 0 1 0 0 .875h.933a.437.437 0 1 0 0-.875z"/></svg>