<svg xmlns="http://www.w3.org/2000/svg" width="35" height="36"><path fill="#B09867" paint-order="stroke fill markers" fill-rule="evenodd" d="M13.62 22.045c2.43 2.413 5.4 4.287 8.845 5.68 2.393.967 4.413-.043 5.24-2.481.148-.438.158-.867-.002-1.297-.385-1.04-4.037-3.673-5.13-3.732-.838-.045-1.291.52-1.675 1.08-.725 1.06-1.644 1.066-2.67.614-1.032-.456-1.934-1.04-2.679-1.78-.745-.739-1.333-1.635-1.793-2.659-.456-1.017-.45-1.93.618-2.65.565-.38 1.134-.83 1.089-1.662-.06-1.085-2.713-4.71-3.76-5.091a1.912 1.912 0 0 0-1.307-.001c-2.457.82-3.474 2.825-2.5 5.2 1.404 3.419 3.292 6.366 5.723 8.779zm4.732-12.762a6.776 6.776 0 0 1 1.635-.056 7.35 7.35 0 0 1 4.53 2.12c1.195 1.185 1.93 2.718 2.069 4.315a6.271 6.271 0 0 1-.069 1.626.698.698 0 0 0 .693.817c.335 0 .632-.24.692-.578a7.66 7.66 0 0 0 .084-1.985c-.168-1.925-1.047-3.764-2.474-5.181a8.763 8.763 0 0 0-5.404-2.524 8.198 8.198 0 0 0-1.976.068.698.698 0 1 0 .22 1.378zm6.493 8.209a.701.701 0 0 0 .786-.604c.047-.377.055-.763.022-1.146-.121-1.38-.76-2.707-1.798-3.737a6.41 6.41 0 0 0-3.95-1.852 5.865 5.865 0 0 0-1.235.024.698.698 0 0 0-.608.78.703.703 0 0 0 .786.604c.307-.04.622-.045.936-.018a4.997 4.997 0 0 1 3.078 1.448c.804.798 1.298 1.818 1.39 2.872.025.284.02.57-.016.85a.698.698 0 0 0 .609.779zm-2.27-.414a.7.7 0 0 0 .749-.648 3.05 3.05 0 0 0-.005-.487c-.156-1.787-1.744-3.313-3.616-3.474a3.626 3.626 0 0 0-.454-.01.7.7 0 0 0-.673.725.701.701 0 0 0 .73.668 2.2 2.2 0 0 1 .276.006c1.171.101 2.242 1.111 2.337 2.206.008.092.01.183.003.271a.699.699 0 0 0 .653.743zM1.545 1.842v32.21H34V1.843H1.545zM31.992 32.06H3.553V3.835h28.44V32.06z"/></svg>