<svg xmlns="http://www.w3.org/2000/svg" width="40" height="38"><path fill="#B09867" paint-order="stroke fill markers" fill-rule="evenodd" d="M28.84 21.686c-.07-.034-2.715-1.326-3.185-1.494-.192-.068-.397-.135-.616-.135-.357 0-.657.177-.89.524-.264.39-1.064 1.317-1.311 1.594-.032.037-.076.08-.103.08a9.61 9.61 0 0 1-.557-.22c-2.836-1.223-4.99-4.164-5.285-4.66-.042-.071-.043-.104-.044-.104.01-.037.106-.132.155-.181.144-.142.3-.328.451-.509.072-.085.143-.17.214-.251.219-.253.316-.45.43-.677l.058-.118c.276-.544.04-1.004-.035-1.152-.063-.124-1.18-2.799-1.298-3.08-.286-.678-.663-.994-1.187-.994-.049 0 0 0-.204.009-.248.01-1.601.187-2.199.561-.634.397-1.707 1.662-1.707 3.887 0 2.002 1.28 3.892 1.83 4.611l.075.108c2.105 3.05 4.729 5.312 7.388 6.366 2.561 1.015 3.774 1.133 4.463 1.133.29 0 .522-.023.727-.043l.13-.012c.884-.078 2.828-1.078 3.27-2.297.349-.961.44-2.01.209-2.392-.159-.259-.433-.389-.779-.554zM20.46 1C10.635 1 2.643 8.873 2.643 18.55c0 3.129.844 6.193 2.443 8.874l-3.06 8.958a.465.465 0 0 0 .11.478.472.472 0 0 0 .479.118l9.411-2.968a18.045 18.045 0 0 0 8.433 2.086c9.822 0 17.814-7.871 17.814-17.547S30.28 1 20.459 1zm0 31.44a14.19 14.19 0 0 1-7.765-2.297.473.473 0 0 0-.401-.054l-4.715 1.487L9.1 27.12a.465.465 0 0 0-.066-.427 13.634 13.634 0 0 1-2.687-8.144c0-7.66 6.33-13.893 14.112-13.893 7.78 0 14.11 6.232 14.11 13.893 0 7.66-6.33 13.892-14.11 13.892z"/></svg>