<svg xmlns="http://www.w3.org/2000/svg" width="64" height="40"><path fill="#B09867" paint-order="stroke fill markers" fill-rule="evenodd" d="M61.96 5.03C61.958 3.358 60.58 2 58.887 2h-.004L5.07 2.073a3.073 3.073 0 0 0-2.172.892 2.997 2.997 0 0 0-.897 2.147l.042 29.857c0 .811.321 1.573.903 2.145.58.572 1.35.886 2.17.886h.004l53.813-.073c1.694-.002 3.07-1.365 3.069-3.039L61.96 5.03zm-6.45.01L32.005 21.174 8.45 5.103l47.06-.064zM41.945 24.22l13.943 10.677-47.81.064 14.027-10.74c.67-.514.792-1.467.272-2.13a1.55 1.55 0 0 0-2.156-.269L5.114 33.39l-.038-26.9 26.056 17.78a1.548 1.548 0 0 0 1.751-.003L58.89 6.417l.04 26.969-15.101-11.564a1.55 1.55 0 0 0-2.156.27 1.504 1.504 0 0 0 .272 2.128z"/></svg>