<svg xmlns="http://www.w3.org/2000/svg" width="80mm" height="80mm" viewBox="0 0 8000 8000" shape-rendering="geometricPrecision" text-rendering="geometricPrecision" image-rendering="optimizeQuality" fill-rule="evenodd" clip-rule="evenodd"><defs><style>.fil0{fill:#d7b56d}</style></defs><g id="Слой_x0020_1"><g id="_2400510761072"><path class="fil0" d="M5027.3 2483.21l-5.9 1.66 3.73 4.76zm335.9 142.11l-5.91 1.65 3.73 4.77zm1182.1 387.57l1.65 5.9 4.78-3.72zm-116.27 1033.52l1.65 5.9 4.78-3.72zm58.13-1459.85l5.9-1.67-3.72-4.77zm-155.02 697.62l5.89-1.65-3.71-4.77zm-484.47-613.65l-1.66-5.91-4.77 3.73zm-167.95-32.29l5.9-1.67-3.72-4.77zM8.29 2973.41l1.93-1.92c-.13.12-2.57 1.29-1.93 1.92zm4599.14-929.46h-6.45zm-96.88 3087.66h-6.47zm322.97 549.05l-6.46.01z"/><path class="fil0" d="M4038.73 5666.95c-54.99-3.72-114.59-11.94-179.14-25.88-111.3-24.05-188.23-58.55-337-148.62-35.35 14.24-41.49 32.7-69.83 61.14-15.22 15.28-56.67 46.81-71.15 60.46 35.34 69.42 216.26 146.01 287.95 170.68 117.33 40.38 241.17 53.89 369.17 56.98v88.08l-12.85.29c-120.91 2.68-417.2-55.31-520.67-109.88-27.5-14.51-52.38-28.04-80.61-43.32-24.41-13.2-166.19-94.23-174.19-96.21-6.34-10.43-.15-10.43-6.47-.01-121.57 38.97-217.62 94.47-356.09 78.05-171.13-20.3-328.44-66.05-449.15-196.84-32.48-35.2-58.47-102.12-99.02-119.48-100.44-43-221.83-103.99-310.14-170.18-146.82-110.05-360.86-293.28-460.42-448.86-19.86-31.04-74.52-126.67-92.4-147.42-27.12-31.5-268.63-100.15-390.26-313.01-40.14-18.83.44-100.96-140.56-82.54-100.35 13.11-242.08 130.32-277.07 213.98-97.42 232.96 89.02 512.6 345.27 501.03 94.88-7.67 145.86-57 167.6-107.58-142.92-15.57-161.23-136.57-113.67-205.34 36.59-52.88 123.62-50.82 169.18-47.96 120.99 29.75 115.18 225.08 71.05 318.51-75.06 158.91-503.1 254.47-699.8-125.01-66.13-104.03-47.28-322 47.13-463.03 114.88-171.61 196.74-165.63 327.66-215.08 5.42-180.47-51.24-282.5 100.6-571.19 69.2-93.97 161.72-178.56 268.94-221.35 18.69-7.46 42.22-15.57 55.6-26.91-33.41-41.23-136-53.59-225.08-214.18-72.8-131.22-62.54-208.6-37.29-344.33 25-134.42 219.36-289.46 321.47-321.1 140.46-43.52 144.9-25.5 193.87-38.69-6.55-59.87-127.84-128.02-44.99-290.44 55.44-108.68 187.9-190.64 318.97-137.6 198.38 79.78 97.27 255.94-18.6 179.11-226.34-150.07-307.68 55.11-234.73 117.58 56.67 48.51 55.29 32.11 113.15 51.55 46.69 15.69 84.43 34.29 134.11 44.42 23.26 4.74 129.46 21.62 145.49 28.92-2.03-22.5-17.16-40.68-22.49-68.56-53.7-280.89 414.57-162.08 219.3-5.53-28.88 23.15-85.43 6.7-86.98 80.55 24.85 34.75 220.33 32.3 264.82 32.3 10.65-44.34 24.99-159.1 64.6-187.33 73.88-175.9 256.47-286.45 438.84-323.2 95.63-19.27 134.31-7.62 217.81-14.42 6.86-2.47 182.98-176.54 286.69-220.53 91.47-38.8 204.25-95.33 300.86-110.26 91.4-14.12 185.9-26.76 280.52-31.55v3771.35c-79.41-.99-150.12-2.8-194.37-2.8-60.66.42-138.65-13.24-212.85-13.24-.98 46.05-36.1 73.03-57.03 105.57 96.16 111.05 277.46 181.12 464.25 189.06v59.85zm-859.6-50.67l-82.74-98.13c-26.96-13.04-90.34 21.05-128.51 28.76-45.7 9.23-95.68 18.12-150.4 17.81-53.28-.31-118.17-5.4-161.39-19.67-30.87-10.19-108.01-38.6-128.2-27.07 66.01 66.54 169.69 133.5 287.55 151.94 112.3 17.57 284.76 14.02 363.69-53.64zm151.64-345.57c-19.44 25.15-34.81 80.14-77.27 135.88-38.04 49.94 34.96 89.43 48.58 125.51l119.91-132.35-91.22-129.04zm-351.66 80.52l196.82-63.38 33.12-58.4-47.01-21.47 13.89 79.87-196.82 63.38zm-503.85-445.71c-2.79 30.14-83.76 127.75-95.75 233.89-8.08 71.66-10.24 218.4 71.63 242.38 76.57 22.42 190.35 55.19 264.74 64.71 76.32 9.77 232.62.81 289.06-37.13l-25.83-58.14-58.13-96.9c-59.49 14.17-123.41 31.7-175.79 13.2-67.5-23.85-96.26-197.04 30.02-162.81 48.15 13.06 19.84 33.29 100.53 52.73-2.14-101.73-328.31-177.47-400.48-251.93zm310.06 148.57l-71.06-193.78 71.06 193.78zM608.46 4828.01l1702.23 498.87c-5.08-221-34.11-143.98 52.57-377.44 9.76-26.27 51.54-75.78 53.86-82.68-114.79-74.73-159.13-128.62-217.26-170.17-52.15-37.29-20.21-36.63-90.01-20.54-146.9 33.84-61.84 28.8-144.44 87.8-74.89 53.48-150.02-57.23-189.59 20.25-32.43 63.49 159.92 284.06 209.88 326.76 72.49 61.97 70.8 71.17 159.05 125.17 42.34 25.92 117 87.39 165.94 90.85L608.46 4828.01zm768.68-310.06l-290.68-155.03 290.68 155.03zm0 0c-16.95-36.8-134.5-151.72-193.79-167.95 11.3 41.3 147.92 163.82 193.79 167.95zM1183.35 4350l767.92 77.3c-206.77 131.57-103.34-158.46-239.75-204.98-145.57-49.66-234.63 145.69-177.27 221.94 17.48 23.22 105.45 156.57 107.63 157.87 75.89 45.4 202.86-45.5 276-41.4 39.5 2.21 32.25 25.16 90.94.63 49.55-20.72 34.48-25.15 8-62.92-13.17-18.76-47.64-60.21-65.55-71.14l-767.92-77.3zm96.08-116.69c76.18 26.46 139.57 101.7 168.76 116.69 20.07-84.15 57.64-123.12 115.56-175.12 90.91-81.62 208.11-26.37 232.56-38.74l-20.86-68.84c-100.74-16.57-422.63-111.28-300.77-272.51 41.99-55.57 111.77-83.58 150.63-8.96 23.23 44.59-.25 55.72-20.43 87.83 10.05 62.33 89.1 113.41 146.91 108.15-2.53-163.74-45.96-174.16-5.46-438.25 6.28-41.01 22.92-78.87 29.59-120.49-47.35-60.35-263.87-49.31-327.43-15.86-87.75 46.19-175.61 88.35-242.79 164.17-95.91 108.25-91.5 159.31-134.77 285.09-29.14 84.7-20.81 184.36-5.01 268.99 4.93 26.5 5.87 34.67 10.03 38.02 2.35 1.9 191.19 65.56 203.48 69.83zm2759.3 934.07c81.75.95 152.35-.58 200.03-4.54 24.48-2.04 254.77-27.49 265.32-31.23 3.56 5.87 280.68-58.41 327.89-66.33 108.25-18.15 426.38-156.9 531.23-204.97 170.5-98.75 295.1-169.14 445.44-310.33 182.68-171.55 362.34-449.12 380.63-704.59 6.66-93.03 8.56-190.34-11.23-282.39-24.2-112.54-88.58-285.44-159.66-378.26-88.03-114.94-175.37-239.57-292.37-323.61-103-73.97-242.83-189.73-362.81-235.81-26.56-18.29-126.86-64.06-166.26-79.2-31.64-12.16-53.92-27.21-75.68-33.04-34.7-9.28-57.82-13.16-93.96-29.87-126.94-71.66-695.22-162.85-846.08-161.6-47.37.39-94.93.56-142.49.54-47.56.02-95.13-.15-142.48-.54-150.86-1.25-719.15 89.94-846.1 161.6-36.12 16.71-59.24 20.59-93.96 29.87-21.74 5.83-44.02 20.88-75.66 33.04-39.41 15.14-139.7 60.91-166.27 79.2-119.96 46.08-259.8 161.84-362.81 235.81-117 84.04-204.35 208.67-292.37 323.61-71.09 92.82-135.46 265.72-159.66 378.26-19.79 92.05-17.88 189.36-11.22 282.39 18.29 255.47 197.94 533.04 380.61 704.59 150.34 141.19 274.96 211.58 445.45 310.33 104.86 48.07 422.98 186.82 531.24 204.97 47.21 7.92 324.31 72.2 327.87 66.33 10.57 3.74 240.85 29.19 265.33 31.23 47.69 3.96 118.28 5.49 200.03 4.54zm-2103.9-2389.27c81.21 59.09 91.6 138.8 107.64 170.18 14.91-9.76 129.29-137 147.52-147.03 16.97-9.33 47.03-32.51 52.72-53.22-13.33-12.27-282.78-134.73-312.69-145.84-114.02-42.38-227.71.88-327.4 55.97-144.46 79.85-90.54 418.27 175.11 400.14 42.37-2.89 153.19-57.72 112.33-99.69-150.48 134.27-274.48-81.42-167.63-202.99 58.58-66.63 121.35-43.81 212.4 22.48zm294.97-107.58c15.49 10.74 73.23 27.9 89.04 21.43 9.08-3.74 68.22-46.3 78.91-53.72 53.03-26.65 39.95-29.25 39.12-58.94l-336.2 9.4c17.58 32.49 107.47 76.58 129.13 81.83zm-484.47 613.65c48.22-13.05 187.85-147.02 155.02-200.24-72.38 6.29-125.81 65.75-224.35 32.91-78.75-26.26-180.49-120.7-198.24-204.59-33.25-157.26 6.21-215.93 112.54-325.7l51.63-38.19c-61.56-35.99-475.64 140.78-421.1 452.87 40.09 229.39 328.67 389.84 524.5 282.94zm768.68-1027.06l768.68-6.46-768.68 6.46zm465.1-58.14l303.58 51.68c45.14-28.71 34.94 22.14 73.88-55.31 14.92-29.67 39.74-56.42 48.86-80.34-24.37-23.48-115.14-106.22-155.02-109.81-110.21 123.85-100.42 228.26-129.19 290.68l161.47-45.22-303.58-51.68zm1059.62-37.64c96.45-.34 188.37 2.58 242.16 8.92 53.11 6.24 106.49 6.41 158.8 17.15 35.75 7.35 76.89-33.66 88.23-68.03 4.26-60.4-241.8-256.1-489.19-268.72-247.4 12.62-493.44 208.32-489.19 268.72 11.33 34.37 52.48 75.38 88.24 68.03 52.31-10.74 105.67-10.91 158.79-17.15 53.79-6.34 145.72-9.26 242.16-8.92zm-1059.62 37.64c6.18-69.52 139.03-199.43 142.11-226.08-32.03 12.23-163.03-12.04-356.92 127.56-77.86 56.05-196.52 224.04-198.61 337.53 30.85 7.27 103.11-23.02 155.31-28.51 22.48-2.36 56.67-5.72 91.1-9.71 61.17-7.1 33.63-24.45 88.79-27.08 1.82-26.9 18.12-61.45 29.92-85.82 21.81-45.05 16.21-51.39 48.3-87.89zm1059.62-416.67c39.63.78 79.06 5.13 117.81 15.4 78.53 20.84 231.29 79.83 298.03 127.81 30.87 22.21 131.15 111.26 146.41 118.43h6.45c24.72-2.14 66.74-36.58 88.32-53.75 17.87-14.24 54.27-16.34 84.44-38.34-9.19-39.19-232.01-198.83-311.71-234.03-124.51-55.01-276.37-82.44-429.75-82.74-153.38.3-305.22 27.73-429.74 82.74-79.69 35.2-302.53 194.84-311.71 234.03 30.15 22 66.55 24.1 84.45 38.34 21.57 17.17 63.6 51.61 88.29 53.75h6.46c15.26-7.17 115.55-96.22 146.42-118.43 66.72-47.98 219.48-106.97 298.03-127.81 38.75-10.27 78.18-14.62 117.8-15.4zm0 3884.64c54.99-3.72 114.6-11.94 179.14-25.88 111.31-24.05 188.23-58.55 337.01-148.62 35.34 14.24 41.47 32.7 69.82 61.14 15.23 15.28 56.68 46.81 71.15 60.46-35.34 69.42-216.25 146.01-287.94 170.68-117.33 40.38-241.18 53.89-369.18 56.98v88.08l12.86.29c120.91 2.68 417.2-55.31 520.67-109.88 27.5-14.51 52.37-28.04 80.6-43.32 24.42-13.2 166.2-94.23 174.2-96.21 6.32-10.43.14-10.43 6.46-.01 121.57 38.97 217.63 94.47 356.09 78.05 171.13-20.3 328.44-66.05 449.14-196.84 32.5-35.2 58.5-102.12 99.03-119.48 100.45-43 221.84-103.99 310.15-170.18 146.81-110.05 360.85-293.28 460.41-448.86 19.87-31.04 74.53-126.67 92.39-147.42 27.13-31.5 268.63-100.15 390.27-313.01 40.15-18.83-.45-100.96 140.56-82.54 100.34 13.11 242.08 130.32 277.06 213.98 97.44 232.96-89 512.6-345.26 501.03-94.89-7.67-145.85-57-167.59-107.58 142.91-15.57 161.23-136.57 113.67-205.34-36.58-52.88-123.62-50.82-169.18-47.96-120.99 29.75-115.18 225.08-71.05 318.51 75.06 158.91 503.08 254.47 699.8-125.01 66.12-104.03 47.27-322-47.13-463.03-114.88-171.61-196.74-165.63-327.66-215.08-5.43-180.47 51.24-282.5-100.6-571.19-69.22-93.97-161.74-178.56-268.95-221.35-18.69-7.46-42.23-15.57-55.59-26.91 33.4-41.23 135.98-53.59 225.06-214.18 72.81-131.22 62.56-208.6 37.3-344.33-24.99-134.42-219.36-289.46-321.46-321.1-140.48-43.52-144.89-25.5-193.87-38.69 6.55-59.87 127.83-128.02 44.97-290.44-55.44-108.68-187.88-190.64-318.97-137.6-198.37 79.78-97.27 255.94 18.6 179.11 226.35-150.07 307.71 55.11 234.74 117.58-56.66 48.51-55.29 32.11-113.16 51.55-46.67 15.69-84.41 34.29-134.11 44.42-23.24 4.74-129.45 21.62-145.48 28.92 2.02-22.5 17.16-40.68 22.5-68.56 53.7-280.89-414.58-162.08-219.3-5.53 28.88 23.15 85.42 6.7 86.99 80.55-24.86 34.75-220.36 32.3-264.85 32.3-10.65-44.34-24.97-159.1-64.6-187.33-73.86-175.9-256.45-286.45-438.83-323.2-95.63-19.27-134.32-7.62-217.81-14.42-6.84-2.47-182.99-176.54-286.68-220.53-91.48-38.8-204.25-95.33-300.87-110.26-91.4-14.12-185.91-26.76-280.52-31.55v3771.35c79.42-.99 150.11-2.8 194.38-2.8 60.65.42 138.65-13.24 212.84-13.24.97 46.05 36.11 73.03 57.04 105.57-96.16 111.05-277.46 181.12-464.26 189.06v59.85zm859.6-50.67l82.74-98.13c26.96-13.04 90.33 21.05 128.5 28.76 45.71 9.23 95.68 18.12 150.42 17.81 53.27-.31 118.17-5.4 161.39-19.67 30.86-10.19 108-38.6 128.2-27.07-66.02 66.54-169.7 133.5-287.56 151.94-112.29 17.57-284.76 14.02-363.69-53.64zm-151.65-345.57c19.46 25.15 34.81 80.14 77.27 135.88 38.04 49.94-34.94 89.43-48.56 125.51l-119.91-132.35 91.2-129.04zm351.69 80.52l-196.85-63.38-33.1-58.4 47.02-21.47-13.92 79.87 196.85 63.38zm503.84-445.71c2.77 30.14 83.75 127.75 95.73 233.89 8.09 71.66 10.24 218.4-71.63 242.38-76.56 22.42-190.35 55.19-264.72 64.71-76.34 9.77-232.64.81-289.07-37.13l25.85-58.14 58.11-96.9c59.5 14.17 123.41 31.7 175.8 13.2 67.49-23.85 96.25-197.04-30.01-162.81-48.16 13.06-19.85 33.29-100.56 52.73 2.16-101.73 328.31-177.47 400.5-251.93zm-310.06 148.57l71.05-193.78-71.05 193.78zm2176.86-226.08l-1702.24 498.87c5.09-221 34.11-143.98-52.57-377.44-9.75-26.27-51.54-75.78-53.85-82.68 114.78-74.73 159.13-128.62 217.24-170.17 52.17-37.29 20.23-36.63 90.03-20.54 146.89 33.84 61.82 28.8 144.44 87.8 74.89 53.48 150.02-57.23 189.58 20.25 32.43 63.49-159.91 284.06-209.87 326.76-72.49 61.97-70.81 71.17-159.06 125.17-42.34 25.92-117 87.39-165.94 90.85l1702.24-498.87zm-768.68-310.06L6991 4362.92l-290.67 155.03zm0 0c16.93-36.8 134.49-151.72 193.79-167.95-11.31 41.3-147.93 163.82-193.79 167.95zM6894.12 4350l-767.92 77.3c206.77 131.57 103.33-158.46 239.75-204.98 145.57-49.66 234.62 145.69 177.27 221.94-17.47 23.22-105.45 156.57-107.63 157.87-75.91 45.4-202.87-45.5-276.01-41.4-39.51 2.21-32.25 25.16-90.93.63-49.55-20.72-34.49-25.15-8-62.92 13.16-18.76 47.64-60.21 65.55-71.14l767.92-77.3zm-96.09-116.69c-76.19 26.46-139.58 101.7-168.76 116.69-20.07-84.15-57.64-123.12-115.55-175.12-90.92-81.62-208.12-26.37-232.56-38.74l20.85-68.84c100.73-16.57 422.64-111.28 300.77-272.51-41.99-55.57-111.78-83.58-150.63-8.96-23.22 44.59.24 55.72 20.43 87.83-10.05 62.33-89.11 113.41-146.9 108.15 2.52-163.74 45.95-174.16 5.46-438.25-6.3-41.01-22.93-78.87-29.61-120.49 47.35-60.35 263.88-49.31 327.44-15.86 87.75 46.19 175.61 88.35 242.78 164.17 95.93 108.25 91.52 159.31 134.79 285.09 29.14 84.7 20.81 184.36 5.01 268.99-4.94 26.5-5.87 34.67-10.03 38.02-2.36 1.9-191.19 65.56-203.49 69.83zm-655.4-1455.2c-81.2 59.09-91.59 138.8-107.63 170.18-14.93-9.76-129.31-137-147.53-147.03-16.97-9.33-47.02-32.51-52.73-53.22 13.33-12.27 282.81-134.73 312.69-145.84 114.03-42.38 227.72.88 327.42 55.97 144.44 79.85 90.54 418.27-175.1 400.14-42.4-2.89-153.19-57.72-112.35-99.69 150.48 134.27 274.49-81.42 167.64-202.99-58.57-66.63-121.35-43.81-212.41 22.48zm-294.96-107.58c-15.49 10.74-73.24 27.9-89.04 21.43-9.1-3.74-68.23-46.3-78.91-53.72-53.04-26.65-39.95-29.25-39.12-58.94l336.2 9.4c-17.58 32.49-107.47 76.58-129.13 81.83zm484.47 613.65c-48.24-13.05-187.86-147.02-155.04-200.24 72.38 6.29 125.82 65.75 224.35 32.91 78.77-26.26 180.51-120.7 198.25-204.59 33.25-157.26-6.2-215.93-112.54-325.7l-51.64-38.19c61.57-35.99 475.65 140.78 421.12 452.87-40.08 229.39-328.68 389.84-524.5 282.94zm-768.7-1027.06l-768.68-6.46 768.68 6.46zm-465.07-58.14l-303.61 51.68c-45.13-28.71-34.93 22.14-73.87-55.31-14.91-29.67-39.75-56.42-48.86-80.34 24.37-23.48 115.15-106.22 155.03-109.81 110.21 123.85 100.42 228.26 129.19 290.68l-161.49-45.22 303.61-51.68zm0 0c-6.19-69.52-139.04-199.43-142.12-226.08 32.01 12.23 163.02-12.04 356.91 127.56 77.85 56.05 196.52 224.04 198.61 337.53-30.84 7.27-103.1-23.02-155.32-28.51-22.47-2.36-56.65-5.72-91.09-9.71-61.16-7.1-33.63-24.45-88.78-27.08-1.84-26.9-18.14-61.45-29.93-85.82-21.82-45.05-16.2-51.39-48.28-87.89z"/><path class="fil0" d="M3050.15 2483.21l5.91 1.66-3.72 4.76zm-335.89 142.11l5.9 1.65-3.71 4.77zm-1182.09 387.57l-1.67 5.9-4.76-3.72zm116.27 1033.52l-1.67 5.9-4.76-3.72zm-58.14-1459.85l-5.9-1.67 3.72-4.77zm155.03 697.62l-5.91-1.65 3.72-4.77zm484.47-613.65l1.66-5.91 4.76 3.73zm167.95-32.29l-5.92-1.67 3.73-4.77zm1072.27-594.29h6.46zm96.9 3087.66h6.45zm-322.98 549.05l6.47.01z"/></g></g></svg>