<svg xmlns="http://www.w3.org/2000/svg" width="80mm" height="80mm" viewBox="0 0 8000 8000" shape-rendering="geometricPrecision" text-rendering="geometricPrecision" image-rendering="optimizeQuality" fill-rule="evenodd" clip-rule="evenodd"><defs><style>.fil0{fill:#d7b56d}</style></defs><g id="Слой_x0020_1"><g id="_2400580345600"><path class="fil0" d="M5246.6 6159.65c-84.42-33.78-155.05-34.07-249.8-196.49-124.6-213.59-313.17-334.95-554.25-372.63-174.11-27.21-263.97-14.07-272.5-3.81-8.98 10.81 41.25 101.09 82.48 176.25 101.73 181.9 201.64 307.36 358.52 448.64 145.48 131.03 546.05 166.37 635.55-51.96zm-464.91-702.28c536.63-11.28 662.89-630.36 772.4-1047.03-438.51 72.46-772.4 651.97-772.4 1047.03zm1253 480.61c-42.65-116.08-366.5-274.84-459.29-295.95-184.45-41.96-647.81 22.85-664.51 70.61-12.48 35.71 165.21 225.7 434.73 299.26 221.34 60.41 520.88 22.4 689.07-73.92z"/><path class="fil0" d="M4990.19 5615.76c74.22-10.61 152.88-23.97 336.78-39.45 201.06-16.92 425.75 71.5 464.09 67.67 48.87-4.88 189.85-405.73 163.69-484.29-183.5-61.24-680.86 124.93-812.63 246.16-45.85 42.18-145.03 133.2-151.93 209.91zm997.28-3270.04c-182.02 228.57-192.25 895.34 91.82 1132.6 199.63-186.99 68.48-901.69-91.82-1132.6zm-1986.71 4270.8c388.85-565.13 2.22-976.83-4.19-966.24-196.65 325.57-256.51 641.62 4.19 966.24zm1999.6-833.02c76.64 278.53 674.1 352.7 926.89 291.79-92.18-121.98-192.29-285.74-388.78-369.69-167.66-71.62-431.33-89.97-538.11 77.9zM5657.08 4479c400.06-7.7 566.42-669.28 566.42-995.54-315.02 162.94-566.42 655.82-566.42 995.54z"/><path class="fil0" d="M6017.53 5646.18c214.77-43.42 310.24-90.97 530.81-15.87 85.01 28.94 131.88 76.85 181.12 41.05 101.97-74.15 169.69-314.4 180.63-437.13-229.43 0-884.56 33.48-892.56 411.95zm823.9 188.81c3.04 2.68 7.79 2.81 9.25 7.9 328.27 225.43 631.88 188.73 896.17-102.84-31.47-123.64-882.13-173.35-905.42 94.94zm-892.57-1424.65c162.15-3.43 369.22-125.92 456.87-246.88 60.43-83.42 219.66-361.13 229.73-474.03-254.2 0-329.84-12.96-380.93 60.38-87.75 125.93-46.81 399.71-305.67 660.53zm-566.41 720.9c184.46-3.89 670.15-332.17 686.57-480.59-637.62 0-351.49-274.36-640.21 338.15-27.36 58.04-46.45 68.37-46.36 142.44zm244.85-867.6c123.28-546.51 439-442.75 245.42-890.87-226.11 81.28-301.42 658.41-245.42 890.87zm-1027.81 1136.5c44.32 0 80.47-36.14 80.47-80.46 0-44.32-36.15-80.48-80.47-80.48s-80.47 36.16-80.47 80.48c0 44.32 36.15 80.46 80.47 80.46zm1567.06-773.5c44.33 0 80.47-36.15 80.47-80.47s-36.14-80.47-80.47-80.47c-44.32 0-80.46 36.15-80.46 80.47s36.14 80.47 80.46 80.47zm-191.5-50.08c27.8 0 50.48-22.69 50.48-50.5 0-27.8-22.68-50.49-50.48-50.49-27.81 0-50.49 22.69-50.49 50.49 0 27.81 22.68 50.5 50.49 50.5zm374.97-928.42c44.32 0 80.48-36.14 80.48-80.46 0-44.32-36.16-80.47-80.48-80.47-44.32 0-80.47 36.15-80.47 80.47s36.15 80.46 80.47 80.46zm-152.42-226.06c129.33-50.54 259.71-210.02 294.51-333.09 24.02-84.86 70.19-355.04 45.01-448.77-204.34 74.91-268.96 86.77-288.43 160.79-33.44 127.09 80.15 335.13-51.09 621.07zm-210.13-1076.36c-182.02 228.57-192.25 895.34 91.82 1132.6 199.63-186.99 68.48-901.69-91.82-1132.6zm134.95-807.73c226.1 185.06 376.69 834.69 149.04 1126.51-234.55-140.7-257.05-866.99-149.04-1126.51zM2747.09 6159.65c84.4-33.78 155.03-34.07 249.78-196.49 124.62-213.59 313.18-334.95 554.26-372.63 174.11-27.21 263.98-14.07 272.51-3.81 8.97 10.81-41.25 101.09-82.49 176.25-101.73 181.9-201.63 307.36-358.52 448.64-145.48 131.03-546.04 166.37-635.54-51.96zm464.9-702.28c-536.63-11.28-662.88-630.36-772.39-1047.03 438.49 72.46 772.39 651.97 772.39 1047.03zm-1253 480.61c42.64-116.08 366.5-274.84 459.29-295.95 184.44-41.96 647.81 22.85 664.51 70.61 12.47 35.71-165.2 225.7-434.72 299.26-221.35 60.41-520.89 22.4-689.08-73.92z"/><path class="fil0" d="M3003.5 5615.76c-74.23-10.61-152.89-23.97-336.8-39.45-201.05-16.92-425.74 71.5-464.09 67.67-48.86-4.88-189.84-405.73-163.68-484.29 183.51-61.24 680.87 124.93 812.64 246.16 45.84 42.18 145.01 133.2 151.93 209.91zm-997.29-3270.04c182.02 228.57 192.25 895.34-91.83 1132.6-199.61-186.99-68.47-901.69 91.83-1132.6zm-12.88 3437.78c-76.64 278.53-674.1 352.7-926.9 291.79 92.18-121.98 192.3-285.74 388.78-369.69 167.65-71.62 431.32-89.97 538.12 77.9zM2336.61 4479c-400.06-7.7-566.43-669.28-566.43-995.54 315.03 162.94 566.43 655.82 566.43 995.54z"/><path class="fil0" d="M1976.16 5646.18c-214.77-43.42-310.24-90.97-530.81-15.87-85.02 28.94-131.88 76.85-181.15 41.05-101.96-74.15-169.67-314.4-180.6-437.13 229.43 0 884.55 33.48 892.56 411.95zm-823.91 188.81c-3.04 2.68-7.79 2.81-9.26 7.9-328.25 225.43-631.86 188.73-896.15-102.84 31.47-123.64 882.13-173.35 905.41 94.94zm892.56-1424.65c-162.13-3.43-369.2-125.92-456.86-246.88-60.44-83.42-219.67-361.13-229.72-474.03 254.2 0 329.83-12.96 380.92 60.38 87.76 125.93 46.81 399.71 305.66 660.53zm566.43 720.9c-184.48-3.89-670.17-332.17-686.58-480.59 637.63 0 351.5-274.36 640.22 338.15 27.36 58.04 46.43 68.37 46.36 142.44zm-244.86-867.6c-123.28-546.51-439.01-442.75-245.43-890.87 226.13 81.28 301.43 658.41 245.43 890.87zm1027.82 1136.5c44.32 0 80.47-36.14 80.47-80.46 0-44.32-36.15-80.48-80.47-80.48-44.33 0-80.46 36.16-80.46 80.48 0 44.32 36.13 80.46 80.46 80.46zm-1567.06-773.5c44.32 0 80.47-36.15 80.47-80.47s-36.15-80.47-80.47-80.47c-44.33 0-80.48 36.15-80.48 80.47s36.15 80.47 80.48 80.47zm191.5-50.08c27.8 0 50.48-22.69 50.48-50.5 0-27.8-22.68-50.49-50.48-50.49-27.81 0-50.49 22.69-50.49 50.49 0 27.81 22.68 50.5 50.49 50.5zm-374.98-928.42c44.32 0 80.48-36.14 80.48-80.46 0-44.32-36.16-80.47-80.48-80.47-44.32 0-80.47 36.15-80.47 80.47s36.15 80.46 80.47 80.46zm152.42-226.06c-129.34-50.54-259.7-210.02-294.52-333.09-24-84.86-70.19-355.04-44.99-448.77 204.34 74.91 268.96 86.77 288.43 160.79 33.42 127.09-80.16 335.13 51.08 621.07zm210.13-1076.36c182.02 228.57 192.25 895.34-91.83 1132.6-199.61-186.99-68.47-901.69 91.83-1132.6zm-134.94-807.73c-226.12 185.06-376.71 834.69-149.05 1126.51 234.54-140.7 257.05-866.99 149.05-1126.51z"/></g></g></svg>