<svg xmlns="http://www.w3.org/2000/svg" width="320mm" height="240mm" viewBox="0 0 32000 24000" shape-rendering="geometricPrecision" text-rendering="geometricPrecision" image-rendering="optimizeQuality" fill-rule="evenodd" clip-rule="evenodd"><path d="M18018.72 20170.94l-22.24-5.71 22.24 5.71zm-2174.7-724.91c-52.58-25.26-111.87 30.31-197.5-30.32-107.03-75.73-42.53-152.45-19.98-249.27 111.01-2.49-30.46-31.09 165.7-31.09 42.47 0-1.77-2.58 29.6 11.82l14.05 6.7c85.82 43.19 106.51 154.5 72.72 222.1-15.29 30.56-43.83 39.09-64.59 70.06zm-621.32-155.34c31.34 0 36.02-33.97 41.39 31.05-48.09-12.84-9.12-16.29-62.14-20.69 11.41-38.22-3.23-10.36 20.75-10.36zm983.78 31.05c13.21-27.48 9.46-11.07 10.36-51.75 78.3 0 57.92-6.57 103.56-10.36-24.95 21.66-84.76 59.69-113.92 62.11zm445.32-238.17l3.07 3.1c-.19-.21-4.13-2.08-3.07-3.1zm-8584.97-4359.73v-10.36l12.07 8.62-12.07 1.74zm6938.39-8626.29l-20.72 10.36 20.72-10.36zm20.17-11.91l-20.17 11.91 20.17-11.91zm10.89-8.82l3.1 3.11c-.19-.22-4.13-2.08-3.1-3.11zm62.11-10.36c-23.67 0-12.04 3.51-41.39 10.36 19.39-29 119.29-89.1 134.61-93.19 26.56 110.91-38.06 82.83-93.22 82.83zm383.21-72.47c0-30.22 11.35-42.94 20.5-72.72 60.75-198.28 533.65-139.67 417.87 159.03-16.97 43.93-61.21 108.93-121.74 104.18-81.47-6.42-183.54 42.87-265.16-55.6-28.2-34.06-51.47-71.76-51.47-134.89zm3676.26-310.68c33.11 8.85 35.68 20.51 78.65 35.28l190.77 47.4c86.49 6.86 32.57 27.55 136.13 27.62l152.52 26.12c35.8 10.79 171.06-3.97 201.81 4.19 69.59 18.49 21.9 9.89 89.29 4.71l362.48-41.11c24.39-6.85 27.46-12.78 46.23-17.37.12-.03 131.32-2.73 220.27-68.84 16.44-12.23 14.18-15.2 33.78-28.36 20.6 9.87 37.05 14.86 62.15 20.73 0 89.22 27.17 73.43 41.41 134.61-19.29-9.24-271.09 11.23-286.16 14.12-51.1 9.74-76.94 27.89-118.36 37.04-64.34 14.24-64.19 22.62-141.1 55.63l-20.35 10.7c-1.99 1.12-4.56 2.7-6.48 3.88-28.14 16.78-26.5 20.32-48.93 33.94-14.64 8.9-45.82 18.18-57.08 25.78-27.52 18.55-3.7 13.34-41.92 40.89l-119.47 108.33c-1.52 1.49-3.72 3.67-5.21 5.15l-45.55 47.69c0-52.4-7.01-53.24-10.36-93.2-54.57-12.72-66.95-6.58-115.53-6.14l-248.97-12.5c-21.84-7.23-24.08-10.77-41.51-20.6-49.21-27.77-50.66-13.72-132.23-64.56-64.78-40.4-73.96-68.57-117.39-131.11-44.52-63.97 5.49-21.72-31.86-92.39-14.18-26.68-27.03-36.49-27.03-107.63zm-7445.79 383.15h-134.64c-13.44 27.99-20.7 49.95-20.7 93.2-47-24.85-102.38-104.43-143.02-136.6-27.3-21.62-53.58-31.21-82.12-52.49-16.6-12.35-24.45-18.46-42.1-30.41l-133.22-73.87c-31.45-15.38-75.54-19.85-113.76-31.21l-68.47-24.75c-4.19-1.34-30.03-6.83-33.85-7.54-28.11-5.18-39.71-2.79-66.14-6.36-88.82-11.91 32.7-17.56-90.81-14.18-33.38.9-81.03-6.02-106.78 4.62 1.08-46.75 6.08-31.02 18.21-64.65 10.76-29.82 7.69-54.76 21.53-71.7 35.89-43.87 63.81-4.09 130.83 27.95 70.89 33.88 57.76 55.48 171.5 56.31 56.43.41 34.74 4.81 69.03 13.65 22.3 5.77 35.15-.4 67.85 4.35 122.39 17.77 93.29 25.22 133.99 32.17 80.1 13.68 221.98-.09 318.49 2.17 162.63 3.79 78.99-6.2 179.11-18.71l76.16-17.37c57.98-8.31-1.49 4.75 35.3 4.75 17.94 0 59.07-24.92 84.82-29.07 117.83-18.9 123.57-9.47 251.39-59.32 41.54-16.2-12.19-10.24 46.94-15.14-1.33 60.22-22.86 99.28-38.87 147.52l-85.78 131.63c-29.94 31.87-91.83 72.35-131.89 85.6-93.22 30.84-54.69 50.51-199.17 49.42l-113.83.03zm3759.13-528.12v10.36l-12.06-8.65 12.06-1.71zm0 0c57.31 0 90.97-17.22 134.84-31.77 46.19-15.33 20.63-2.64 58.38-4.93 105.98-6.39 153.63-12.16 253.53 24.88 35.4 13.12 14.02 12.47 50.35 22.18-9.09-38.9-6.51-35.93-10.45-82.77-3.72-44.09-13.47-35.56-18.96-64.75-7.16-38.13 4.94-41.42 5.96-78.24l44.67-260.64c9.37-33.16 9.84-24.26 9.84-72.81-42.75 28.6-80.17 52.15-126.27 80.85l-134.02 73.74c-97.61 45.33-219.53-89.16-278.23-102.81 22.25 46.26 4.87 31.92 2.58 64.41-3.35 46.47 1.95 11.54 13.74 53.73 11.6 41.54 8.59 97.38 11.2 132.13 1.33 18.03-.9-2.7 7.04 26.22 13.53 49.02-24.2 71.82-24.2 220.58zm-486.7 569.57c-69.47 0-115.97 44.55-227.78 41.33l-159.56-14.52c-46.97 1.48-6.67 4.68-42.41-11.48-55.66-25.13-45.91 15.04-95.83-17.53-22.9-14.92-8.69-15.86-45.64-27.21l-175.87-72.72c-79.86-53.18-70.27-64.56-110.42-96.67-63.2-50.54-148.7-136.17-183.26-210.25l-64.19-142.99c-34.71-55.44-11.63-51.19-22.27-92.11-8.16-31.65-10.71-8.32-15.39-41.36-19.79-140.26 18.74-165.33 40.8-283.62.24-1.46.37-4.47.62-5.86l22.4-62.3c3.5-7.2 18.36-32.98 22.58-39.68l213.97-179.51c29.45-20.94 59.63-15.23 101.83-32.82 26.71-11.14 3.44-9.46 42.47-20.48l213.69 1.99c84.76 23.27 129.56 48.46 204.64 96.21l68.68 65.92c60.66 83.55 55.6 225.76 55.6 337.89-23.18 8.4-16.57 1.86-27.12 24.66-7.75 16.69-.58 12.94-9.18 32.23-22.68 50.85-80.01 109.15-129.03 129.9l-133.56 42.54c-77.09 12.87-69.15-1.49-146.4-1.49-6.36 27.24-9.4 30.43-20.69 51.78l37.29 45.51c55.25 48.99 70.89 60.59 138.71 89.16 78.92 33.29 170.26 52.71 254.58 26.65 74.86-23.14 201.01-139.08 223.72-169.79l69.61-158.16c37.3-113.52 15.95-296.72-33.38-410.02-18.05-41.48-20.23-74.92-46.41-108.89l-144.6-166.11c-101.64-100.89-89.29-57.27-139.95-98.22-62.89-50.85-142.87-71.85-224.62-86.03-118.35-20.51-235.5-13.84-346.72 16.41-199.43 54.2-152.21 42.35-328.33 137.69l-52.4 30.43c-19.45 15.73-19.08 17.78-33.35 39.12l-91.96 218.72c-44.3 107.59-65.52 286.64-44.49 413.43 21.19 127.94 48.9 240.97 109.83 356.13-64.56 96.51-36.83 74.3-190.89 35.61-50.91-12.78-25.01-2.51-62.18-31.05-45.2-34.69-83.11-41.23-124.31-72.44-25.59-19.36-35.03-29.2-57.55-46.01l-100.92-95.87c-18.96-25.31-5.12-10.82-18.18-33.6-36.48-63.75-47.37-52.99-110.48-179.47-43.03-86.34-70.73-155.46-70.73-260.63-93.07 0-109.52 16.47-125.25 92.2-5.46 26.28-44.02 94.47-54.44 223.25-2.24 27.11 1.83 9.4 3.63 47.16 3.97 83.51-58.48 148.97-11.24 228.46l65.65 89.75c1.31 1.8 2.98 4.37 4.28 6.11 1.31 1.74 3.29 4.03 4.66 5.71 147.24 184 48.67 161.54 293.76 306.83 59.97 35.55 193.56 77.75 263.93 77.84 141.84.25 157.01-18.49 186.7 92.88-19.05 28.48-43.99 53.02-72.26 72.69-14.51 10.15-27.61 17.94-43.15 29.35-52.46 38.63-148.67 83.68-209.57 100.43-43.9 12.07-71.29 24.51-109.95 36.33-49.17 15.01-11.01 1.11-49.85 3.29-148.45 8.31-104.77-29.94-105.67 203.39-.22 62.82 10.67 75.2 10.86 134.12l-.31 404.18c0 51.56 2.04 91.43-6.11 138.86-13.66 78.71-2.02 142.09-15.39 222.79-9.74 58.6-19.95-.47-19.95 145.78-94.41 49.95-102.13 19.95-182.08-35.37-15.89-10.98-28.33-19.88-43.93-28.51-13.47-7.41-15.48-6.51-27.77-13.68l-63.13-40.46-384.64-505.97c-18.06-27.33-19.2-71.23-30.43-104.18-11.27-33.07-25.2-63.94-37.51-97.1-36.18-97.57-36.3-272.61-27.86-386.35 4.12-55.09 21.16-52.36 10.36-103.55-325.29 0-161.51-7.92-331.37-31.09-43.65-5.99-30.15-8.25-60.81-22.06l-79.29-34.59c-38.85-21.9-62.83-65.74-108.46-77.93 3.28 39.71 8.4 49.64 27.98 75.57 114.94 152.24 96.58 364.26 92.51 547.55-.34 16.75.38 1.39 2.45 29.9 17.04 232.25-56.34 459.04-118.79 676.7-15.23 53.3-21.22 109.61-53.17 153.88-26.5 36.61-74.49 221.64-106.35 287.19-21.72 44.65-62.46 67.48-83.09 113.71-35.08 78.64-52.49 76.44-69.96 137.15-13.52 47.07-48.39 80.57-76.56 120.16l-118.61 181.68c-21.93 35.36-41.97 28.35-92.7 104.08-31.86 47.53-58.17 61.21-60.62 63.66l-91.55 84.48c-26.62 29.63-14.43 29.32-50.54 53.02-165.55 108.84-64.22 56.19-161.2 128.79-23.46 17.59-34.93 26.33-61.58 41.94l-540.01 257.41c-29.47 14.36-45.2 14.98-77.44 26.12-26.77 9.24-53.36 14.83-75.88 27.67-124.5 70.92-306.49 99.75-447.09 143.18-25.07 7.72-42.04 18.55-78.4 25.16-41.38 7.51-55.16-2.08-91.58 11.98-51.53 19.82-99.43 22.77-147.8 30.15-6.14.93-64 16.01-72.29 19.02l-87.73 15.82c-39.03 5-26.47 16.07-73.22 19.98 22.99 98.87 58.76 91.43 97.91 129.9 1.55 1.49 3.57 3.78 4.93 5.4l90.63 137.22c62.98 108.12 126.64 245.3 202.89 345.95 24.7 32.57 28.02 68.9 53.15 102.19 42.84 56.81 78.12 235.29 79.02 304.16 1.11 84.98-8.1 68.72 23.89 131.42l79.14 231.56c7.26 51.53 1.49 23.61 16.16 66.64 35.18 102.85 19.24 131.36 31.49 175.32 8.28 29.72 16.41 31.49 13.71 67.54-3.16 42.16-8.84 2.98-3.22 57.12l-7.63 253.03c-17.91 57.21-12.01 207.24-25.48 285.36-8.65 50.16 2.21 99.59-10.39 144.91-11.85 42.44-20.04 86.19-24.57 131.17-9.12 90.47-13.4 164.06-37.35 252.23-8.32 30.71-12.51 105.08-15.14 140.23-1.4 19.33-6.98 50.35-13.19 70.45-10.24 33.2-4.68-4.84-9.89 25.88-8.75 52.15 5.7 36.02-12.23 85.72-23.14 64.22-25.16 117.64-42.81 185.09-12.29 46.94-9.34 91.61-20.76 134.58l-65.46 214.16c-9.49 56.03-21.65 101.32-21.65 164.71 46.19 3.87 19.73 8.47 54.2 2.26 32.14-5.77 24.91-6.98 59.63-12.69 70.79-11.6 152.17-17.12 228.15-10.86 137.03 11.33 193.43 17.07 315.88 67.61l120.29 55.78c7.81 4.93 33.31 23.89 41.88 30.65l165.6 176.09c37.88 53.8 75.58 126.52 91.28 188.35 33.38 131.73 29.16 213.72 13.77 346.88-8.03 69.37-70.36 241.93-112.83 299.48-68.29 92.48-117.8 184-216.71 249.27-11.44 7.57-8.25 4.66-18.73 12.35-19.24 14.15 4.12 1.09-16.91 14.15-39.09 24.29-26.28 5.03-60.97 42.6-24.54 26.58-85.16 50.13-121.7 75.07l-56.28 36.92c-118.3 71.08-297.24 66.67-422.67 8.78-15.83-7.32-9.28-4.59-27.71-13.71-10.27-5.09-11.32-4.68-21.03-10.02-18.96-10.39-26.12-17.65-42.47-30.03-11.86-9-7.39-4.19-17.81-13.28-26.19-23.02-57.89-36.64-71.95-62.67-12.93-23.95-6.79-29.41-24.17-48.33-21.96-24.05-24.41-26.69-24.41-68.75-18.31-8.78-33.54-11.95-51.78-20.73 0-34.37.93-69.77.4-103.99-.77-56.56-31.55-70.24-15.97-117.86 17.8-54.39 20.75-10.55 33.44-50.2 11.94-37.17-7.38 29.41 2.61-18.12 9.61-45.82 7.04-24.75 44.52-48.64 40.51-25.85-.22 1.73 23.39-28.39 22.43-28.51 7.16-4.44 26.24-25.53 17.97-19.8 1.18-5.28 16.76-24.67l114.38-72.04 157.61-39.15c87.89-1.08 149.97 3.26 220.67 28.76 22.74 8.22 16.85 1.71 38.69 13.12l98.84 66.83c27.36 18.93 44.77 34.03 77.22 36.73l33.44-140.66c5.65-33.1 5.06 7.76-7.6-39.52-7.04-26.44-3.44-36.46-11.14-62.36-11.26-38.13-8.28-15.45-19.48-42.66-27.08-65.99-69.65-86.78-121.99-136.91-33.66-32.3-94.53-40.61-139.98-48.34-21.22-3.6-13.9-5.71-37.29-11.72-71.51-18.43-180-4.87-255.54-4.91l-204.51 33.7c-40.71 11.66-90.72 128.84-147.15 173.82l-101.82 84.64c-32.89 21.31-38.19 30.84-74.34 49.95l-23.45 158.1c-6.7 35.27 8.62 262.74-.31 347.56l23.61 146.93c5.18 60.84 27.14 130.58 53.67 184.5 14.77 29.97 20.1 63.29 29.22 95.03 24.05 83.51 63.39 139.54 96.55 214.16l71.76 104.24c80.04 78.68 133.22 186.89 223.44 252.97 34.68 25.41 7.88 6.79 31.08 31.05 35.09 36.74 82.84 35.74 125.81 60.59 40.45 23.4 92.54 22.9 138.36 38.07 37.6 12.44-3.32 16.35 46.17 11.6 7.57-.71 34.59-11.97 47.59-14.95 91.46-21.03 98.03-3.94 199.73-48.89 19.21-8.5 20.51-9.28 36.95-14.83 108.49-36.58 230.51-168.43 291.75-257.13 11.73-17.06 20.7-20.26 28.61-33.48 17.21-28.76 6.88-48.83 32.17-81.78l79.98-158.19 93.01 20.91c67.2 11.92 64.59 13.19 88.76 76.97 13 34.47 4.09-.68 11.97 29.41 9.78 37.33 7.2 43.13 28.08 75.49 19.08 29.5 29.26 62.23 26.77 107.74-9.24 168.77 13.25 160.34-37.63 325.07l-34.93 99.68 217.35.66c37.17.68 60.47-8.19 75.36-8.94 56.28-2.76 4.66 16.04 67.51 16.04 45.2 0-18.74-14.18 36.58-.5 39.83 9.84-4.13 3.98 29.87 10.99 69.81 14.45 80.76 3.22 147.21 29.25l217.7 61.9c42.88 9.89 59.81 26.43 94.13 40.51 70.89 29.1 139.85 84.23 201.69 98.63 0 81.93 19.97 141.25-35.78 181.71l-85.96 48.64c-41.42 31.12-40.52 52.59-97.45 78.59l-139.67 77.84c-37.38 28.69-61.58 29.41-100.18 44.8-30.18 12.06-23.08 20.97-60.46 32.76l-283.32 78.92c-30.34 8.69-12.5 1.12-33.97 2.11-1.36.1-30.56 3.72-31.77 3.97-39.71 7.45-129.4 7.14-156.67 20.23 22.65 30.93.03 8.04 30.65 21.1l151.77 96.79 148.67 234.48c32.58 93.57 47.69 53.02-1.86 173.65-21.78 53.08-65.09 39.77-119.38 56.65l-44.21 18.58c-39.87 12.69-90.31 10.73-134.74 10.52-72.53-.38-51.81-23.3-111.34-19.08-40.49 2.85-2.73 11.75-50.95-4.84-15.82-5.46-30.96-9.31-49.14-13.84-51.81-12.91-17.71.84-50.23-22.24-22.49-15.92-14.05-12.57-40.61-21.54l-86.4-48.21c-38.65-23.92-9.15-7.32-53.79-18.7L9954 17206.76c-81.69-31.02-119.42-70.73-175.1-94.09l-392.89-290.6c-17.25-22.06-8.81-19.3-33.26-39.25-27.12-22.12-8.29.93-32.95-29.22-15.95-19.49-9.77-18.28-35.24-37.26-35.34-26.41-58.05-76.08-93.11-103.66-30.03-23.61-45.82-37.44-59.66-74.95-10.73-29.23-15.79-78.8-28.54-106.04-17-36.18-113.17-89.1-147.83-121.43l-30.4-42.1c-29.32-33.47-46.72-84.35-73.71-123.07l-108.65-160.55c-36.49-36.02-43.53-93.94-76.72-130.46-1.28-1.43-16.51-11.85-17.84-13.18-30.9-31.46-21.41-71.39-63.48-102.2 18.18 77.97 49.83 160.68 94.28 226.73 33.51 49.76 50.45 97.47 72.57 155.27 11.76 30.78 19.02 30.84 31.21 61.96l65.03 111c15.97 21.97 24.6 30.16 39.46 53.74 32.67 51.87 56.31 102.97 96.61 151.95l114.79 154.44c1.55 1.49 4.12 3.26 5.61 4.75 15.92 15.54 27.4 33.32 41.27 51.99l139.2 161.08c41.36 37.48-38.56-27.21 12.16 8.56 17.69 12.48 9.84 3.17 25.07 16.35l82.59 93.45c22.18 28.54 8.06 19.85 39.49 43.4l261.75 235.32c22.49 15.57 1.74 2.48 28.39 13 57.55 22.68 94.5 90.15 151.89 117.36 78.9 37.45 149.35 96.92 235.94 126.49 51.72 17.62 15.51-6.36 55.16 27.7 38.47 33.07 70.18 33.42 119.82 56.25 168.98 77.75 110.07 38.53 207.08 72.53 48.03 16.85 73.41 38.16 130.83 45.21 99.31 12.19 40.55 29.97 228.12 30.83 111.97.56 77.72-10.3 155.8-30.52 114.02-29.54 66.02-26.1 126.06-50.01 81.93-32.64 144.41-81.07 202.37-149.79 34.06-40.42 66.82-210.99 82.8-279.62 12.01-51.66 11.08-107.65 21.75-154.31 9.06-39.84-1.86-12.07 14.08-37.7 16.94-27.33 31.9-54.63 70.21-54.01 27.24.43 136.97 68.47 157.23 91.27l19.61 21.87c238.73 225.8 113.17 421.34 116.96 579.72.84 33.04 13.8 6.21-3.04 52.71-14.12 39.15-30.68 71.36-31.86 124.28 28.82-6.7 31.05-13.03 54.26-18.21 22.46-4.96 29.72-2.57 53.42-8.72 52.71-13.68 97.67-46.87 143.33-63.81l291.88-153.42c101.57-69.92 265.32-114.17 377.03-151.74 47.25-15.85 14.03 8.44 94.53-18.55 36.8-12.35 71.61-4.87 107.53-16.91 15.98-5.36 30.75-16.81 52.47-20.72l257.43-9.06c86.78 2.27 80.57-27.83 152.55 36.58 0 89.1-11.85 133.09-13.34 171.07l-12.84 87.17c-5.22 42.48-30.04 73.5-46.57 114.3-.96 2.42-1.58 5.36-2.55 7.78-.93 2.39-1.76 5.28-2.73 7.63-1.21 3.01-5.24 11.27-6.54 14.18l-73.59 133.5c-33.32 50.1-79.02 84.6-115.41 133.16-47.31 63.13-109.49 79.39-168.99 120.99-1.74 1.24-3.85 3.41-5.65 4.65l-26.34 15.11c-68.78 39.34-155.86 77.93-237.49 78.71l-219.43 13.22c-34.84 4.74-29.16 15.45-63.63 19.88-29.57 3.82-58.95-4.37-70.18-3.81-26.49 1.3-38.37 10.51-62.26 10.82l-346.6 31.8c-37.36 12.63-14.99 23.77-58.51 2.92 2.01 90.16 126.23 137.28 134.64 238.17 69.8 0 66.21 46.82 222.63-25.87 110.45-51.35 441.63-42.44 564.76-35.8l280.59 18.98c36.79 4.66 62.76 4.56 86.15 5.06 51 1.09 12.94 14.43 88.36 17.09 95.36 3.39 175.03 26.72 185.18 27.49l445.54 87.46c73.59 27.46 174.6 29.81 248.03 62.48 2.27.99 4.88 2.27 7.2 3.23 2.36.99 5.18 1.89 7.54 2.82l15.51 5.28c2.3.96 5.22 1.86 7.48 2.85l523.66 190.89c50.75 16.41 93.32 59.32 144.51 72.97-10.89-46.66-38.81-69.4-62.49-103.22-28.88-41.23-57.61-117.3-75.26-162.9-44.86-115.79-39.18-213.45 18.77-329.2 45.76-91.34 128.9-203.15 236.99-228.99 32.45-7.76 38.91-7.7 66.83-16.04 29.78-8.87 30.31-9.12 73.71-9.15 66.67-.03 136.76-11.23 192.69 25.44l95.9 90.49c58.54 82.87 95.3 199.95 59.07 282.7-16.26 37.16-19.11 84.32-53.86 102.31-22.93 11.92-83.67 37.14-117.43 37.88-8.19-30.62-4.18-16.78-20.69-41.41 15.08-64.84 33.44-37.17-6.55-107.28-66.2-115.85-225.04-61.77-252.35 55.5l136.42 143.17c23.39 18.62 16.53 18.71 46.35 36.52 127.6 76.35 107.93 36.36 200.38 68.87 105.45 37.08 110.51-47.8 199.12-80.5l114.54-40.86c47.28-16.66 64.96-16.1 121.18-13.5 158.47 7.39 192.75 99.59 289.92 125.53l172.46-15.11 191.39-119.29c5.46-5.15 38.07-46.6 46.29-57.3 36.73-48.15 70.92-78.37 16.16-131.95-37.91-37.07-106.75-52.43-149.51-43.65-31.05 6.42-41.44 16.38-62.14 42.26-62.98 78.55 9.99 117.24-29.81 157.07-22.21 22.28-114.05-18.27-135.7-37.38-28.79-25.35-10.15-32.67-32.39-71.36-28.36-49.39-19.92-17.99-20.51-67.01-.9-69.65-6.36-84.23 22.87-166.51 29.35-82.68 122.82-175.19 212.33-189.62 65.37-10.55 255.26 7.26 314.99 48.96 60.43 42.22 73 64.13 112.27 94.87 27.46 21.56 29.13 28.14 44.09 59.47 41.91 87.77 65.18 104.71 70.98 210.53 5.09 93.08-7.07 139.71-36.83 214.01l-50.84 104.49c-16.97 27.55-31.21 37.13-45.49 58.11l-29.47 63.69c56.25-4.66 103.53-42.57 148.95-68.53 39.37-22.53 82.93-16.6 123.66-42.01 73.9-46.04 115.41-40.83 196.79-72.44 36.57-14.21 41.26-26.96 78.49-35.43l332.42-103.37c50.29-18.03 25.72 4.25 73.68-7.73 33.26-8.28 54.45-14.7 91.43-23.08 33.79-7.63 45.2-21.56 76.97-26.43 44-6.71 13.56 11.07 74.8-7.51 35.46-10.77 47.31-12.26 85.75-18.46l355.94-58.67c19.89-4.99 37.29-1.89 56.81-.15 62.45 5.64 232.28-22.99 302.61-23.24l332.14-.09c50.57.96 46.79 9.24 92.45 11.1 163.78 6.64 77.72 11.08 182.21 35.28 47.68 11.04 39.62 4.25 80.51 23.05 29.28 13.46 48.18 16.94 79.36 24.2 24.72-36.92 47.21-73.93 75.32-111.1 31.96-42.25 68.35-58.95 69.65-116.71-21.59 10.36-167.84-8.04-191.17-15.14-25.28-7.7-47.28-5.77-75.95-8.38l-70.39-1.12c-43.12-8.09-16.91-10.67-60.37-10.51-39.59.15-59.13-16.63-140.98-16.26-51.59.22-57.98-15.02-103.8-12.01-14.4.94-24.67 2.08-39.4.56-159.03-16.32-132.07-6.64-290.23-52.18-24.79-7.14-37.85-7.1-60.75-22.09-47.03-30.71-124.62-68.9-158.84-100.08l-85.94-79.77c-47.56-52.95-98.01-86.83-125.06-154.53l-5.24-15.48c-11.23-28.42-.22-6.39-13.4-28.04-57.15-94.26-68.07-150.53-95.56-246.83-8.5-29.97-.53-22.12-2.26-36.73-.19-1.65-.44-4.57-.75-6.18l-6.76-81.81c-8.19-87.05-.16-64.5 35.65-117.92l344.08 16.44c28.89 3.17 58.33 20.45 91.62 24.17 59.66 6.7 63.41-.5 115.97 18.64 40.79 14.9 66.17 11.45 102.35 21.97l185.02 63.51c54.54 15.38 108.84 45.32 153.7 74.11 59.78 38.29 121.36 77.22 190.21 99.74 54.01 17.69 62.73 60.6 262.99 120.22 34.74 10.37 69.34 13.9 97.07 27.18-.99-44.3-19.92-96.21-33.44-133.06-10.86-29.51-8.78-125.99-30.59-196.23-.56-1.8-2.02-4.44-2.42-6.2l-.28-20.48c.53-6.86 4-23.33 4.68-36.98 5.56-106.66.31-173.46 57.68-263.83l86.74-99.65c1.99-2.26 6.98-9.46 8.78-11.94l122.55-84.54c138.64-63.98 130.98 136.75 152.76 248.25 6.55 33.48 16.47 47.41 22.65 70.58 37.69 141.63-11.2 94.47 88.94 221.7l69.06 65.58c44.49 33.29 67.42 36.21 113.61 62.46 103.22 58.72 239.54 72.96 375.46 71.04l212.64-56.59 494.58-209.6c24.02-11.63 40.86-17.9 60.44-32.76 76.63-58.11 107.12-63.1 157.94-100.95 26.31-19.64 27.77-20.85 49.67-43.59 32.51-33.78 54.08-27.52 88.61-56.31 96.2-80.2 216.51-180.65 294.97-274.59 14.59-17.41 26.34-24.92 41.24-41.64l141.53-148.42c1.58-1.45 3.75-3.6 5.24-5.08 53.18-52.99 68.94-91.65 125.65-154.04l169.92-233.92c56.34-109.83 118.82-177.65 167.62-298.42.93-2.3 2.17-4.94 3.04-7.26.96-2.36 1.96-5.12 2.89-7.51l59.22-116.78c26.4-38.47 84.76-166.44 88.54-211.8-19.73 13.22-23.11 10.58-34.53 38.01-44.17 106.6-10.7 14.67-50.44 84.14-1.18 2.04-2.23 4.96-3.32 7.01l-7.26 13.46c-2.26 4.22-4.9 7.35-11.01 20.1-23.27 48.93-57.83 81.32-78.25 128.85-21.68 50.63-60.46 68.1-82.92 113.83-47.5 96.76-86.93 155.61-179.42 214.09-37.72 23.89-51.56 17.5-66.45 68.16-17.99 61.12-11.01 103.56-60.37 146.75-40.52 35.43-58.86 72.5-91.74 105.01l-67.67 67.02c-23.17 26.4-18.02 9.89-40.26 32.17-22.22 22.18-4.6 13.12-26.78 35.4-37.79 37.97-85.72 61.08-125.58 102.19l-59.38 44.24c-80.54 52.99-50.33 61.77-198.56 132.75-30.25 14.49-51.81 40.89-81.87 52.77l-51.16 21.35c-61.15 30.96-128.69 48.37-184.72 84.54-57.08 36.86-122.54 40.39-177.33 81.56l-186.49 82.78c-96.82 37.13-251.45 29.5-348.52-.63-56.99-17.65-96.33-17.21-120.72-76.07-38.37-92.79-32.11-73.52-3.94-127.23 19.45-37.1 16.32-73 34.22-110.78 10.61-22.59 14.71-15.76 26.12-25.66 19.95-17.28 8.41-4.84 19.27-22.18 37.63-60.31 86.15-100.55 138.52-151.43 26.84-26.09 81.88-55.16 121.93-64.47-22.65-30.9-18-21.13-72.38-20.85-98.5.5-187.36-26-275.99-53.48l-88.86-26.99c-48.3-12.48-155.92-46.45-197-72.26-26.46-16.66-27.8-21.25-58.36-34.84l-121.49-64.87c-37.69-23.27-63.32-61.58-102.41-84.01-23.11-13.22-8.03.24-33.29-18.5l-75.48-48.8v-144.97l177.86-102.1c60.97-29.01 126.37-33.88 182.77-65.4 47.06-26.25 227.68-66.14 291.38-71.11 18.11-1.39 59.81-7.44 80.78-12.47l83.18-14.83c3.1-.09 11.63-1.05 15.11-1.27l256.29 8.28-35.12-99.49c-4.44-11.64-5.99-18.71-10.77-30.72-27.86-70.48-9.83-160.76-16.35-242.51-5.08-64.16-23.98-142.65 41.51-186.49-18.15-77.96 5.4-31.18 16.51-88.94 10.67-55.82 38.65-51.66 93.75-70.15 42.38-14.24 74.46-35.96 101.3 9.68 24.66 42.04 30.99 89.1 60.28 126.11 19.26 24.36 16.91 56.9 36.98 87.3l49.17 64.75c92.24 102.07 25.25 31.12 95.12 91.24l39.74 43.13c5.4 4.74 11.98 9.77 17.25 13.83 15.67 12.01 20.08 14.12 35.84 26.28l72.72 41.23c14.73 5.62 23.82 9.68 42.59 19.55 124.63 65.52 311.36 86.49 440.2 22.86 130.06-64.25 70.34-41.79 148.08-90.09 48.77-30.28 49.52-56.68 85.54-90.53l193.49-231.04 81.04-157.17c11.97-42.59 25.13-57.05 34.99-89.28 12.1-39.74 14.46-48.43 28.82-85.07l39.93-146.47c5.8-20.69 9.9-20.41 13.65-38.12 35.68-168 39.06-477.47-1.27-646.3-8.47-35.49-37.01-57.52-75.42-79.92-51.75-30.21-95.68-70.64-134.05-114.45-33.23-37.88-59.48-123.97-110.14-138.43-119.85-34.12-331.46-50.13-459.59-29.22l-102.23 22.06c-66.29 21.96-156.7 88.76-190.61 151.12-98.07 180.37-18.95 221.17-11.63 309.4 38.06-3.16 44.24-16.41 70.36-33.2 209.54-134.55 284.74-145.1 524.22-74.64 41.38 12.19 75.57 42.22 108.55 67.54l59.29 64.93c9.58 11.58 6.76 8.47 15.01 16.04l32.42 29.76c16.32 29.03 8.5 39.99 27.99 65.58 22.12 28.98 20.1 36.73 10.36 69.18-14.52 48.56-9.37 113.99-9.37 177.99-33.1 22.15-7.23 17-51.78 20.69 0 65.15-10.05 38.5-34.38 79.52l-9.55 31.89c-.99 2.27-1.68 5.4-2.89 7.45l-154.71 114.54c-2.14 1.02-4.78 2.39-6.95 3.41-58.73 27.15-153.42 48.06-213.98 49.79-.65.03-19.82 2.21-23.76 2.45-177.99 11.42-261.72-106.66-362.98-152.98-34.6-15.82-61.46-45.85-88.08-67.19l-63.57-40.02c-14.83-10.61-4.9.83-21.16-20.29-47.74-62.3-48.86-34.04-74.36-70.62l-60.34-94.99c-31.03-41.02-41.51-75.33-65.34-121.03-38.6-73.9-25.19-62.91-48.65-127.41-13.8-37.98-28.42-60.44-27.89-104.83 1.99-157.82-41.85-119.42 16.1-328.3 17.87-64.47 19.46-48.89 44.62-100.36 25.56-52.31 52.02-102.07 94.19-144.02 1.52-1.49 3.69-3.63 5.15-5.15l24.01-27.8c13.62-14.42 22.15-21.93 36.39-36.08l50.48-53.08c1.7-1.33 4.28-3.07 6.05-4.31.93-.65 18.18-9.84 20.13-10.95 16.32-9.56 30.19-22.25 42.32-30.16l105.94-49.36c96.3-49.26 194.25-34.96 294.8-46.97 56.21-6.73 50.1-31.98 115.81-11.38 62.17 19.51 77.16 5.12 142.77 12.96 30.59 3.67 102.57 33.17 103-19.32.13-13.59-25.44-69.16-29.78-116.03-4.47-48.22-22.28-57.58-30.87-114.14-8.9-59.13-23.8-64.94-35.74-119.57-9.8-44.7-7.97-82-18.3-126.7-4.63-19.86-15.02-41.42-19.92-62.73-10.74-46.2 6.05 1.55-2.95-49.21-4.34-24.44-10.8-31.52-15.29-56.96-19.39-109.33-43.41-193.96-52.59-299.57-3.85-44.48-41.35-190.39-41.98-247.94-1.17-106.79-20.75-175.04-30.15-270.16-6.73-67.79-6.48-130.05-24.76-193.4-13.37-46.42 5.96-100.96-8.31-156.71-10.33-40.33-8.19-9.64-2.89-57.36 6.15-55.04-2.26-17.93-5.15-59.16-3.32-46.82 7.51-28.61 7.54-61 .16-45.04-18.21-136.81-3.32-181.12 12.72-37.72 17.25 8.44 11.76-62.85-2.3-30.47 14.83-74.27 24.38-108.37l51.1-176.68c20.23-93.6 74.4-139.33 73.71-226.6-.43-60.25-.58-81.53 14.24-130.77l20.05-124.96c9.96-45.14 35.55-56.75 46.35-98.63 20.81-80.94 65.12-125.65 107.71-192.56 11.42-17.84 15.27-26.25 24.51-48.03 26.71-63.1 103.56-175.6 143.08-229.67l121.87-168.15c32.08-50.26 43.52-33.54 70.73-74.21l-254.83-55.69c-35.37-6.8-27.46 7.85-76.66-5.71-32.33-8.87-42.75-20.72-76.16-28.08-33.6-7.38-58.36-1.67-94.01-9.52-12.78-2.82-30.34-7.54-41.29-10.46-23.45-6.2-22.28-6.2-38.69-13.12-20.23-8.5.44-3.94-37.32-14.46l-279.84-82.61c-98.34-24.14-269.88-110.02-369.18-138.22-76.04-21.56-8.69-19.26-150.53-56.62-32.33-8.53-157.82-93.28-194.59-116.09-28.54-17.74-41.66-16.07-70.83-32.7-152.73-87.05-108.21-87.27-173.82-136.88l-92.73-62.57c-39.22-28.26-18.81-38.63-79.24-76.1-49.11-30.47-85.53-93.08-121.09-137.81l-377.87-554.16c-1.15-2.01-2.3-4.84-3.48-6.85-1.14-1.96-2.76-4.5-3.94-6.42l-69.68-137.44c-17.34-52.49-20.32-21.78-35.46-68.13l-38.16-117.12c-31.02-102.47-26.46-59.56-45.97-109.39-8.63-22.12-13.5-54.44-19.49-84.04-6.54-32.05-11.26-40.58-23.42-69.84-14.61-35.21-11.14-45.07-22-81.53-8.65-29.1-23.05-44.18-24.6-77.06-2.05-43-5.55-116.71-22.65-165.67-36.05-103.22-6.39-278.19-16.72-387.68-1.89-19.73-4.68-21.5-2.95-46.22l-1.55-83.8c-.37-43.53 14.86-54.6 16.45-82.96.83-15.6.62-49.61 1.17-77.87.38-20.29 19.3-38.9 29.42-61.99 8.12-18.61 3.47-20.32 10.73-41.1.31-.87 9.15-19.58 9.83-21.19 1.31-2.95 5.15-11.33 6.49-14.27 20.29-44.96 37.01-48.93 56.25-88.73l15.2-36.58c-21.38 14.33-50.79 28.05-69.93 43.99-22.71 18.9-29.16 30.59-54.36 49.58-49.76 37.57-164.21 66.58-226.57 84.38l-163.74 3.35c-45.26 2.92-44.64 14.62-86.06-5.24-2.86 34.13-9.99 28.17-4 56.06l3.16 367.67c-4.22 29.91-5.02 17.25-15.2 46.94l-34.47 110.54c-12.16 33.07-15.73 75.17-28.98 105.6-11.94 27.37-12.99 16.45-27.14 45.36l-74.68 132.44c-13.8 26.34-11.07 24.61-25.65 46.85-11.98 18.24-14.68 22.74-27.61 44.83-25.57 43.53-67.39 79.67-102.66 114.82l-143.15 136.48c-15.54 11.63-27.42 17.59-43.77 28.69-8.94 6.08-17.07 12.01-23.92 17.53l-16.6 14.46c-18.74 14.21-20.2 11.82-39.5 22.68l-87.82 58.14c-37.54 16.59-64.94-7.67-95.03-23.58 0-124.13-15.54-198.93-20.2-321.51-2.2-56.86-5.43-25.19-16.91-65.95-16.32-57.92-6.95-527.32-4.71-586.36 2.36-63.47 25.75-65.61 21.59-144.76l-5.71-100.14c0-.28-4.56-27.06-5.15-34.32-112.37 0-179.04-8.28-276.8-33.84-69.33-18.12-198.43-101.98-257.53-146.31-66.33-49.77-50.01-98.19-14.52-151.21 176.5 0 233.09.31 388.64-67.02l144.51-93.66c63.6-37.6 57.18-54.01 92.15-114.97l95.92-142.28c19.21-24.08 66.18-55.32 76.2-89.51 11.54-39.71-22.06-134.67-29.01-167.77-25.16-119.82 29.26-66.36-58.05-335.47-11.57-35.68-13.83-42.53-51.37-52.15-56.28-14.43-23.83 5.55-68.69-24.54 0 77.72-7.54 103.5-21.22 165.2-13.09 59.26-42.5 67.14-61.83 124.6-15.95 47.46-108.34 177.11-142.77 219.68l-78.59 66.39c-54.29 49.79 40.58-41.85-10.64 10.05l-61.71 52.22c-25.44 14.3-36.54 12.84-58.1 24.72-123.36 67.82 6.36 32.02-192.66 86.9-31.21 8.63-41.67 6.21-76.63 6.21-37.26-55.63-39.9-51.07-6.83-110.33 77.19-138.12 102.91-397.42 81.9-544.66-18.15-126.85-51.93-185.95-62.11-248.56-11.69-71.17-55.28-165.48-121.46-199.61-72.53-37.42-134.55-81.41-212.57-108.46-28.86-9.99-7.91-1.58-28.86-12.5-147.64-76.88-345.36-68.69-512.48-42.1-62.49 9.96-119.01 28.14-170.26 67.88l-126.33 80.85-166.67 185.4c-25.13 35.64-27.05 75.63-48.02 117.7-49.89 100.21-69.62 300.41-33.79 409.58 42.66 129.9 55.29 140.36 137.97 224.46 74.46 75.73 196.6 139.89 306.7 108.37l24.54-4.81c30.84-6.2.53.78 24.82-7.48 2.24-.74 4.93-2.14 7.29-2.91l190.96-110.2c1.55-1.46 3.81-3.51 5.3-5.03l14.21-16.9c5.31-7.02 10.36-16.17 12.19-18.87-11.32-21.34-14.39-24.54-20.75-51.78-67.11 0-122.42 8.23-165.73.93-53.77-9.02-21.01-10.73-66.52-27.58-80.23-29.72-158.04-84.07-182.79-169.29-12.35-42.6-7.7-18.93-30.22-52.59 0-86.31-.16-163.44 20.35-228.15 7.79-24.45 5.86-14.71 8.94-22.12 23.48-56.44 26.8-98.6 90.68-126.8 88.91-39.27-12.81-30.49 165.42-83.14 134.12-39.62 80.82-20.26 208.82-21.72 55.1-.65 42.48 5.52 90.13 21.81 74.46 25.47 67.63 5.4 131.82 54.63 16.85 12.91 15.2 12.85 35.49 26.59l134.27 114.33c20.17 20.35 11.48 12.03 26.13 35.98 12.31 20.08 12.59 15.11 21.78 40.4 10.23 28.42 11.1 65.12 23.36 100.89 33.07 96.7 21.31 107.59 23.2 199.76l-57.21 220.46c-9.83 17.31-13.37 9.06-25.56 36.58-40.33 91.08-59.69 125.77-130.46 200.88l-179.44 162.35c-32.61 21-9.46 4.12-44.77 17.34-45.91 17.13-37.51 29.1-84.69 39.62-37.39 8.34-52.37 20.69-93.32 30.9-14.46 3.6-28.33 4.81-51.97 10.2-82.49 18.93-175.04 42.04-250.67 39.59-49.7-1.61-31.31-19.82-93.39-21.22 10.27 28.39 52.37 59.88 73.28 82.09l38.38 34.1c14.36 14.21 20.13 24.16 31.4 41.1l83.3 144.51c22.36 55.35 26.86 36.64 45.29 110.02 5.83 23.17 12.38 27.08 20.63 52.74 20.42 63.38-19.51 167.71-56.93 226.44-113.05 177.4-122.57 128.69-262.55 183.45-45.08 17.62-17.81 10.48-55.76 11.72-35.7 1.15 13.62 8.13-28.91.66l-135.45-38.88c-29.66-13.74-16.88-18.83-49.7-33.13-33.2-14.46-19.92.71-52.56-19.92-88.11-55.53-98.93-130.42-115.16-175.47-12.04-33.51-7.1-57.33-11.63-112 71.94-48.15 82.77-94.37 174.04-60.09 37.42 14.08 80.51 46.47 108.28 78.15 35.27 40.24 79.02 99.12 146.68 48.55l24.57-27.3c60.31-78.89-17.19-147.83-66.36-209.01l-221.57-182.3c-55.94-19.7-32.21-30.43-124.23-51.87-14.82 28.01-45.82 74.43-69.58 96.11-91.55 83.55-104.74 69.4-154.1 84.08-34.06 10.08-24.35 18.61-43.53 28.94-49.54 26.68-149.81 10.89-201.22 16.29-71.73 7.57-129.9-17.59-190.42-42.91-40.74-17.03-75.3-51.5-112.99-73.43-30.94-17.99-36.46-37.57-56.62-67.66-138.74 0-264.05 31.89-360.1 126.61-31.52 31.11-30.65 52.74-53.49 91.52-120.84 205.66 9.84 318.65 124.29 269.44 104.92-45.11 30.24-121.67 145.1-145.07 90.34-18.39 54.1-33.44 133.83 19.95 0 97.54-7.13 56.87 31.12 113.92-21.56 92.55 12.44 44.52-48.95 137.5-12.57 19.05-16.26 35.15-35.22 47.62-43.37 28.58-60.87 49.95-122.26 64.1-40.86 9.4-34.1 17.12-57.4 25.44-22.52 8.07-37.63 3.6-63.81 9.4-64.91 14.36-50.29-1.12-117.55-4.59-22.78-1.18-52.68-4.25-69.78-13.09l-118.63-78.09c-29.07-18.43-24.17-31.12-52.4-61.49-45.86-49.27-48.37-63.14-71.36-125.46-15.05-40.8-19.14-109.12-4.59-162.66l32.64-122.67c19.79-36.95 23.11-75.83 47.31-108.06 24.76-33.01 39.58-60.19 60.77-94.53l56.13-57.8c101.88-101.88 127.75-85 212.98-139.08zm724.91-1398.04c-27.55 0-16.23-6.39-34.13-17.65-21.44-13.5-2.45-4.13-33.94-17.87-165.51-72.29-144.98-73.16-254.77-159.44-19.51-15.32-34.19-32.6-52.55-51l-99.16-107.93c-42.56-53.95-102.97-114.64-133.49-177.18l-85.82-224.86c-14.24-34.38-13.4-37.54-23.08-80.48-27.7-122.14-18.33-70.21-18.33-219.87 0-37.38-1.68 9.8 25.28-67.94 19.76-57.15 94.65-139.18 150.75-139.18 150.59 0 97.6 16.11 218.53 40.4 61.96 12.44 96.08 43.18 138.31 79.14l56.77 46.82c91.43 85.59 93.82 134.18 135.3 196.1 67.94 0 42.93-.47 68.59-24.57 18.49-17.28 20.76-21.01 35.83-36.64 1.49-1.55 3.54-3.82 5.06-5.31l145.32-134.33c26.18-23.42 26.31-41.05 67.91-77.07 54.38-47.12 69.12-109.2 178.7-89.28 47.28 8.62 80.44 10.39 117.02 28.35 24.39 12.01 23.39 14.71 41.79 30.72 23.52 20.5 17.31 14.42 43.96 28.54 0 43.93 6.61 57.36 12.16 102.6 8.63 71.01-17.37 260.26-22.46 322.06-9.18 111.41-95.49 245.99-141.56 334.78-21.28 40.86-15.89 35.71-47.41 66.52-28.88 28.23-32.42 39.83-56.99 67.29-40.89 45.76-133.8 135.01-189.03 163.03-31.46 15.91-58.29 47.87-156.95 91.61-10.3 4.59-87.24 32.64-91.61 32.64zm-41.45-1439.43c85.32-1.89-14.49-20.69 175.81 1.9-33.41 46.28-63.41 86.24-124.03 91.3-5.03-60.59-25.47-53.92-51.78-93.2zm1304.87-704.18c12.32-46.26 66.02-94.69 97.11-213.54.87-3.38 3.72-12.72 4.96-15.79 9.68-24.48 4.1-9.5 10.92-20.14 1.18-1.89 2.77-4.53 4.07-6.3l27.89-23.85c0 132.59-16.13 132.38 31.09 144.97-17.81 24.29-45.02 31.68-97.39 89.01l-20.23 21.25c-21.65 20.6-23.23 21.44-58.42 24.39zm-2620.05-289.99h20.76c36.61 157.27 88.79 195.77 103.56 258.9-20.23 4.28-26.81 24.63-75.7-38.25l-34.81-37.63c-25.69-22.59-10.36-18.46-44.86-27.68 15.7-23.45 35.86-33.81 37.35-61.36.19-3.51-6.3-66.43-6.3-93.98zm2930.73-165.66l3.07 3.07c-.18-.19-4.12-2.05-3.07-3.07zm-144.98 82.83l10.34-82.83c55.03 0 50.47-14.99 82.86 0-33.2 45.29-24.32-3.39-60.03 43.52-13.74 18.06-.75 17.59-33.17 39.31zm-2910-93.2c31.34-12.96 1.49 0 82.87 0 0 40.89 3.26 42.01 10.33 72.48-33.91-24.85-10.24-23.83-39.71-43.13-39.03-25.59-21.78 13.93-53.49-29.35zm2899.64-911.3v10.36c31.4 0 22.93 3.85 53.43 8.69 42.69 6.73 17.62-6.67 47.77 14.33 56.16 39.16 57.99 37.17 68.07 66.61 1.71 5.09 15.64 40.86 17.09 107.13-8.06 5.43-24.04 15.11-31.14 20.6-28.7 22.09-63.98 51.37-72.41 82.96 74.45 6.17 72.9 11.57 113.92 41.41 10.08 7.33 20.6 13.69 31.08 20.73v134.61c-47.4 31.74-25.87 14.8-58.14 55.78-46.53 59.1-70.7 18.15-107.53 68.5 53.43 12.44 58.64 16.07 97.73 47.22 71.7 57.18 84.17 64.22 54.97 157.26l-28.48 64.75c15.83 7.6 27.09 9.68 43.41 18.74 133.74 74.3 81.71 56.93 85.56 94.81 4.19 40.92 13.4-7.51 13.25 64.03-.13 38.29-2.79 91.15-17.93 122.74 40.82-10.89 193-173.06 230.66-214.66l109.11-180.81c10.15-32.02 5.22-23.39 19.08-53.45 33.94-73.69 65.71-210.78 65.71-296.69 0-61.46-14.21-245.27-29.91-280.74-19.29-43.43-18.14-16.34-94.71-60.59-31.37-18.11-62.05-29.84-99.93-45.1-39.15-15.76-78.86-24.23-116.78-38.54l-258.98-41.13c-47.25 4-71.83 10.45-134.9 10.45zm-2961.78 72.5c12.07-8.12 31.49-19.82 43.16-29.34 90.43-74 93.66-10.27 132.87-63.85-109.76 0-157.23-8.6-278.63 11.29l-301.92 91.58c-106.32 62.98-115.78 31.06-131.92 95.9-36.7 147.43-47.96 251.45-8.44 397.88 31.93 118.42-8.87 38.88 49.64 167.81 26.44 58.24-21.65 8.16 73.56 143.89 14.77 20.94 6.83 6.15 16.13 25.32 35.4 72.69 42.23 64.84 118.14 140.72 55.54 55.54 108.84 125.47 152.77 137.19-52.43-99.15-14.55-99.52-14.46-196.04.12-69.28 6.79-35.55 69.21-70.21 54.39-30.21-48.08 35 17.63-13.43l41.54-20.63c-10.95-22.83-31.03-128.84-31.03-165.67 72.41-48.52 20.7-30.59 77.32-67.66 89.41-58.64 62.66-14.34 77.99-56.62-56.06-26.9-37.26 9.99-91.83-42.82-37.54-36.36-11.36-25.84-63.48-60.74v-144.98c19.27-10.2 20.08-11.23 38.22-23.92 28.55-19.98-.37-7.72 34.6-17.12l82.49-21.1-51.38-41.82c-15.66-11.04-8.37-5.92-22.3-19.08-1.58-1.49-3.73-3.66-5.28-5.15l-10.67-10.17c-36.17-38.19-13.93-64.6-13.93-141.23zm1242.67 1159.84c-37.97-10.17-18.39-3.44-47.65-35.15l-10.3-10.45c-1.4-1.59-3.72-3.63-5.12-5.22-138.24-154.96-61.15-160.48-61.15-197.74 0-56.41 4.5-91.43-24.69-141.04-50.91-86.49-51.13-75.17-85.38-90.81l-20.91-10.79c-67.36-23.02-18.74 13.46-68.44-3.45l-38.81-23.14c-143.89 96.36-65.34 52.58-106.38 111.07-17.66 25.19-28.2 9.52-28.2 54.63 0 51.72 21.34 123.1 43.77 152.95l83.61 61.39c13.19 6.21 22.21 5.77 38.32 13.47 0 86.25-2.83 68.22-20.73 144.97-97.54 22.75-66.39 20.73-165.73 20.73l-77.34-88.3c-57.86-72.03-97.64-139.91-125.53-226.6-27.76-86.43-5.15 55.41-44.49-131.57-27.7-131.88-32.23-92.98-32.23-257.72 0-237.67 39.25-178.63 62.14-289.95 20.01-97.14 132.79-227.19 188.81-266.87 101.14-71.6 144.73-116.18 282.94-141.65l191.05-26.44c44.49 0-1.27 11.11 43.16 17.04.12 0 153.6-2.33 153.6 45.1 0 75.42-54.23 130.46-62.49 217.11l-40.42 156.39c-7.79 37.79-6.02 50.76-11.88 91.65-5.74 39.83-15.76 26.77-19.8 73.43-1.55 18.4.31 29.2-2.54 49.21-13.43 92.95-.47 90.09-5.62 118.82-36.85 203.61 2.24 423.7 18.43 618.93zm559.24-1325.54c0-17.12 49.27-31.73 68.23-35.15l149.97-15.79c13.4.31 201.03 38.57 246.17 62.95 146.41 79.11 162.38 79.52 277.17 219.93 9.43 11.57 7.54 8.25 15.39 15.64 39.09 36.57 20.57 10.7 39.22 64.34l57.27 149.82c36.7 96.95 34.84 390.03 1.11 475.63-11.85 30.12-15.7 2.42-15.7 25.72 0 38.4 22 7.1-6.82 54.47-33.44 55.1-43.5 158.54-161.42 284.68-50.29 53.8-29.63 51.75-80.29 95.77l-145.01-31.05c-18.15-18.15-20.69-126.05-20.69-165.7 98.66-2.2 134.92-73.19 151.52-159.12 6.18-31.9 3.82-66.12 3.82-99.78-87.77-20.44 24.45-25-95.31-101.42-30.18-19.26-25.1-12.5-70.42-12.5-16.2 42.16 5.02 10.36-51.78 10.36-44.43 0-155.31 81.16-155.31 248.54 0 28.66 7.97 24.91 31.06 31.08 0 46.91 4.8 39.37-27.12 86.78l-13.06 18.02c-6.55 9.68-6.2 9.93-11.88 19.15-17.16 27.55-69.22 93.5-92.89 93.5h-31.08l32.97-329.47c2.67-13.59 18.8-40.18 18.8-43.31 0-51.53-10.11 12.62-4.25-45.64 14.21-140.66-24.13-447.52-37.01-596.59-4.15-48.56.13-22.03-13.34-59.14-6.23-17.18-13.25-43.55-16.32-56.99-9.92-42.75-4-25.78-3.97-51.81.06-53.36-15.54-51.44-24.91-102.97-9.74-53.51-14.12-10.2-14.12-49.95zm-7901.47 13628.1c.25 11.54 3.72 40.02 3.75 43.19l2.8 675.83c6.2 22.8 8.65 22.95 9.27 36.98.62 12.69-4.22 23.95.68 45.11l11.58 84.01c18.42 114.79 94.25 450.13 144.13 537.43 29.45 51.56 29.1 130.74 95.12 236.28 24.48 39.22 25.2 78.55 50.7 114.98 46.53 66.61 87.83 174.26 144.82 259.05 1.21 1.86 2.88 4.37 4.19 6.17l309.93 414.95c42.93 54.57 251.04 299.6 293.73 327.65 60.5 39.83 41.86 46.75 88.67 77l282.88 234.88c17.09 14.49 14.49 9.59 29.97 21.87 14.7 11.73 16.69 17.1 33.47 28.61l134.52 93.29c41.27 30.46 40.34 16.47 78.71 35.24l136.54 91.27c32.02 20.91 47.81 18.52 76.88 37.05l67.85 35.74c31.61 12.56 39.21 31.42 68.78 45.1 34.78 16.08 45.2 5.96 84.79 29.14l80.88 33.01c65.05 23.3-25.44 10.89 162.1 65.74l77.99 35.95c66.61 29.57 142.93 42.82 215.03 64.56l118.57 57.49c103.16 59.97 141.69-45.6 335.81 99.12 30.62 22.84 36.27 29.17 45.45 68.47-41.79 11.14-13.71 13.87-52.55 19.92-57.37 8.94-86.13 7.26-142.22 33.85-68.81 32.57-140.26 7.57-211.77 26.4l-119.38 25.66c-8.81 1.27-41.82 10.11-58.17 14.3-27.24 6.98-36.21 8.04-59.29 13.15-46.72 10.37-48.02 35.56-93.97 51.04-86 28.94-153.07 83.36-228.52 133.9l-60.44 43.15c-1.46 1.56-3.41 3.91-4.9 5.43l-159.43 161.64c-19.08 31.02-6.95 16.04-30.59 41.88-33.39 36.49-47.53 95.28-88.17 129.31-32.11 26.96-13.16 2.26-29.82 42.75-17.65 42.94-20.69 54.14 4.9 105.14 43.03 85.5-2.2 52.74 164.49 84.11 53.8 10.11 21.38 13.56 62.36 20.47 25.32 4.25 66.08-1.86 92.92.47 67.35 5.8 4.56 12.5 84.54 7.35l124.1-4.71c20.32-3.94 30.68-1.06 49.79-2.61l146.5-29.6c107.18-14.45 184.9-35.55 281.76-80.66l131.07-55.31c-21.77 32.54-5.46 14.51-39.49 32.94l-352.25 445.2c-10.73 22.93-18.64 35.58-27.45 55.38-5.62 12.72-3.54 10.79-8.23 22.86-.89 2.39-1.89 5.15-2.82 7.54l-9.37 21.69c-5.64 14.48-4.59 17.09-11.14 30.25l-60.06 146.89c-7.94 28.45 4.81 18.68-14.33 78.68l-21.22 103.41c-8.53 33.84-13.22 36.67-21.22 61.67l-18.96 273.2c23.15 39.21 235.16 34.56 281.08 32.23l193.59-9.92c48.8 1.55 73.81-19.39 133.81-25.13 28.14-2.7 36.42-17.16 93.29-43.25 95.46-43.78 86.09-20.79 221.32-99.71 65.12-37.98 61.18-24.48 111.41-85.38l71.79-52.46c26-23.43 11.54-22.22 37.57-45.3 14.77-13.09 22.03-13.34 41.11-31.39 55.66-52.81 101.35-117.12 142.83-178.18 109.58-161.38 44.28-105.04 85.29-163.28 21.47-30.52 31.8-72.81 44.18-111.12 20.32-63.14 26.86-29.07 41.6-124.1 4.72-30.56 10.55-29.94 17.1-55.38 16.87-65.52 27.79-55.78 56.49-109.17 23.58-43.69 20.94-64.1 60.06-95.28 27.34-21.72 15.14-14.58 36.92-45.98 19.55-28.2 64.19-59.04 97.7-67.97-8.57 36.61-13.37 52.59-27.15 87.15l-24.97 182.11c.71 117.64 23.23 190.18 59.93 313.16 11.24 37.6.25 14.67 19.98 42.19 49.61 69.09 90.91 141.59 150.78 201.28 70.49 70.18 122.45 91.37 204.26 137.47 59.11 33.29 41.27 22.99 99.25 37.32 1.74.44 4.62 1.59 6.42 2.18l114.76 19.94c9.46.66 16.79 2.14 28.42 2.39 55.47-82.83 110.63-128.44 20.57-206.93-39.77-34.65-126.08-218.9-140.6-304.72-20.2-119.16-44.99-163.49-8.88-290.35 9.31-32.73 9-59.94 19.05-94.91 22.28-77.71 72.38-157.13 113.18-228.52 34.47-60.25 65.65-81.59 141.84-86.03 71.11-4.13 22.99-15.39 82.34-21.19 120.34-11.76 448.05-21.93 558.59-9.06 86.4 10.05 202.96 9.71 290.66 40.71 23.77 8.4 68.07 16.31 94.75 19.17 74.8 7.97 35.06-4.03 90.22 23.67 36.92 18.55 168.83 39.59 264.88 76.88 60.22 23.33 117.86 31.52 151.03 76.78-77.9 6.49-144.64 16.94-234.26 5.8-34.6-4.31-69.56 5.12-117.83 4.57-111.88-1.34-169.46 53.73-264.58 58.38l-45.94 13.62c-120.07 54.82-267.25 73.31-385.01 123.04-17.5 7.42-17 5.96-31.4 10.02-84.63 23.86-135.82 46.66-225.7 53.89-44.4 3.6-61.3 23.55-101.85 32.67l-155.74 21.1c-40.58 14.83-37.54-1.61-73.93 8.44l-103.53 10.2c-10.71 46.01-10.36 55.85-9.99 114.3.59 85.16-16.32 45.97-21.04 103.18 70.18 47 99.96 34.66 192.6 55.91 15.11 3.47 36.21 6.54 50.48 11.66 61.89 22.12 101.17 19.27 151.86 34.53 41.57 12.54 66.24 7.11 106.23 18.09 55.47 15.2 35.3 15.95 104.7 11.08 36.64-2.55 52.9 14.36 98.69 13.99 27.58-.22 39.74-5.96 49.39-3.82 2.24.5 12.69 6.27 16.6 9.03 16.57 11.82 10.42 9.99 16.44 15.23-139.85 32.58-107.71 69.34-207.52 134.21l-90.09 85.97c-25.94 30.59-46.72 69.06-72.63 103.4l-54.01 111.69c-17.97 43.78-24.79 83.49-37.54 138.49-30.96 133.93-32.11 134.87-35.28 275.4 45.02 16.29 63.98 57.46 93.23 72.51l13.75 6.39c1.52.22 5.46 1.33 7.41 1.46l45.48-1.18c31.49 1.08 199.05-35.9 226.29-55.44 59.75-42.85 13.12 8.68 127.11-59.35 26.83-16.01 34.4-16.1 60.65-32.55 128.84-80.72 188.19-185.4 270.19-309.74l70.67-167.5c7.76-24.94 6.21-12.97 6.89-44.86 1.67 1.92 4.5 2.23 5.18 5.65l23.98 49.98c41.51 133.65 41.54 100.7 107.41 222 25.81 47.47 67.66 78.03 99.62 117.9 16.87 21.03 105.54 101.54 126.26 101.54 41.11-10.98 47.25-38.29 82.87-62.14 0-90.19-10.49-137.69-10.36-227.81.09-83.61 1.36-159.06 12.44-236.13 8.03-55.75 60.99-192.04 65.46-230.04 5.27-44.77 22.55-43.31 74.89-95.62 53.08-53.08 103.56-102.1 173.92-126.39 21.04-7.26 23.58-10.42 42.41-19.7 159.68-78.77 348.34-39.93 510.57 4.59 2.82.78 5.64 1.49 8.37 2.3l70.8 11.54c18.89 2.88 35.09 11.63 47.99 13.86 116.87 20.33 90.22 33.45 160.09 150.69 47.22 79.17 77.68 210.53 48.15 300.5-18.93 57.55-47.84 213.29-81.75 249.68-9.49 10.24-3.54 1.89-17.06 13.99-32.33 28.95-70.99 60.44-111.5 74.86-20.95 7.45-23.58 7.61-45.8 16.35-121.89 47.91-284.05 23.95-399.77-37.29v-62.14l97.75 57.55c38.23 19.24 96.43 17.93 150.5 14.02l196.01-72.59c33.04-21.38 85.78-86.16 97.51-109.64 13.37-26.84 2.42-33.63 17.72-65.12 20.04-41.17 18.15 2.73 21.16-61.74 5.27-112.86-42.17-180.06-42.17-290.6-31.18-14.99-31.52-2.36-54.04-28.82-55.94-65.74 37.72 7.6-71.76-62.83-11.94-7.66-9.15-9.49-22.09-19.33l-61.98-31.21c-75.95-29.53-131.49-74.45-291.76-38.43-149.16 33.5-237.64 96.36-328.57 199.57-46.1 52.37-66.11 115.2-93.07 176.16-39.25 88.82-53.52 147.05-46.94 255.33 7.5 122.48-1.09 161.79 60.34 273.04l41.29 62.27c1.18 1.83 3.17 4.12 4.38 5.95 55.87 83.3 156.08 201.44 250.64 236.13 12.13 4.43 9.86.46 29.25 12.13 23.27 13.96 15.02 1.58 25.13 26.65-89.1 0-49.14-6.55-109.17 15.11-109.45 39.43-160.92 36.57-229.52 153.63-2.97 5.05-11.57 19.2-11.69 19.42l-76.82 146.12c-.49 1.27-.9 4.25-1.24 5.56-.37 1.36-.31 4.46-.62 5.89l-16.5 68.22c-4.41 50.88 2.04 87.89 10.61 124.56l90.87 33.39c55.59 18.8 100.98 45.07 158.16 48.98 12.75.87 28.14-.71 40.14 1.28 53.74 8.93 41.11 31.08 187.08 19.82 40.33-3.13 26.96-9.25 72.63-10.27-4.22 50.79-6.58 23.55-28.42 54.42l-49.21 116.52c-29.56 82.75-4.93 50.36-38.13 117.37-13.03 26.34-2.11 73.22-3.41 108.3-.03 1.96.22 4.97 0 6.83-.22 1.83-.74 4.68-1.15 6.45-8.81 38.5-8.96-12.84-9.21 76.82-.12 38.81-3.51 97.44 57.46 102.94l326.9-44.83c49.6-14.4 30.18-18.31 63.32-31.34 10.55-4.19 10.79-9.74 32.82-4.93 40.58 8.9-8.28 47.9 32.14 164.55 13.34 38.44 6.52 34.28 12.97 80.26l55.25 296.87c8.13 27.8 12.26 39.15 18.84 63.97 14.3 53.64 9.3 112 29.31 167.44 20.2 55.66 31.12 139.89 56.37 192.19 14.55 30.22 13 17.47 28.58 54.27 10.76 25.47 16.5 45.79 26.52 66.67 55.04 0 62.73 6.95 103.56 10.36 20.79-31.03 20.42-12.85 30.84-52.03l54.42-204.48c9.02-40.64 27.42-91.99 40.79-135.23 21.29-68.6 26.68-218.75 54.57-287.88 22.78-56.52 13.72-137.46 27.8-188.78l19.45-229.3c52 1.15 73.93 28.11 118.42 47.25l357.93 45.95 43.34-49.98c-8.31-62.48 1.18-48.62-2.98-94.47-2.95-31.71-12.04-26.62-14.36-79.17-2.08-47.28 1.27-20.82 5.05-66.33-27.05-40.37-22.49-9.19-34-69.56-15.2-79.36-22.12-56.9-41.91-113.42-7.88-22.53-3.51-26.41-9.19-42.6-22.61-64.28-37.35 5.93-39.15-74.74 58.95 1.31 72.54 12.54 135.24 19.58 33.47 3.75 58.57 3.07 85.47-5.96 45.98-15.42 98.1-7.63 146.87-29.16 31.08-13.71 9.02-19.55 60.96-32.26l130.64-55.76c0-60.09 6.7-79.79 10.39-124.28-4.4-16.84-11.94.13-24.57-60.18-11.41-54.48-52.09-75.92-71.57-123.33-.96-2.35-1.67-5.3-2.67-7.66l-71.51-104.52c-74.7-76.91-177.7-108.18-285.36-108.18 25.35-34.59 40.89-17.31 80.29-43.99 6.89-4.69 27.21-20.79 35.28-26.87l97.75-88.6c23.58-18.62 13.47-12.01 29.23-32.95 14.89-19.8 19.7-21.19 34.25-38.22 11.17-13.03 16.26-20.94 26.62-35.53l71.38-125.4c18.06-35.43 20.14-45.29 30.07-94.19 10.89-54.1 13.83-302.2-20.7-354.04-18.86-28.23-3.69 14.83-28.07-34.07-9.03-18.12-5.62-21.37-18.52-43.62l-44.46-90.18c-77.69-113.18-73.99-77.84-122.89-136.01-26.18-31.25-43.99-21.13-78.89-45.33-78.53-54.42-229.09-74.74-328.92-63.44-67.35 7.63-139.55 58.79-196.01 93.94-78.74 48.98-39.96 40.11-80.45 74.92-19.17 16.47-19.36-2.61-40.89 31.64-20.69 32.92-17.12 67.67-20.35 85.04-15.36 82.12-39.74 182.05-13.53 250.92 3.05 8.01.97-2.94 7.92 23.15 12.96 48.8 34.34 64.84 69.09 106.91l85.38 69.99c80.01 52.37 86.06 49.51 209 50.01 118.24.5 108-38.53 196.73-62.2-2.2 99.34-73.75 72.9-132.63 94.31-102.57 37.29-268.61 13.87-362.64-44.37l-85.5-69.83c-32.45-30.19-56.22-56.15-56.59-104.43l2.7-91.08c-3.57-21.5-12.63-22.81-11.33-41.27 1.56-22.15 9.06-13.06 13.56-44.02 11.33-78.55 3.57-144.76 33.01-226.26l79.39-169.14c22.62-45.02 82.56-49.24 124.91-61.49 43.06-12.47 62.14-8.25 105.29-29.29 31.68-15.45 12.07-5.37 50.48-11.7l160.24-27.14c72.19-23.27 8.68 1.3 89.28 7.72 23.83 1.93 45.77-2.32 70.68 1.86 14.02 2.36 79.79 21.91 96.82 27.46 61.96 20.2 179.2 107.19 230.27 152.86l122.48 188.25 38.44 158.29c31.89 280.11.68 232.68.68 465.3 93.38 62.51 70.33 97.35 171.69-4.35l133.37-135.91c18.65-29.2 16.88-40.15 33.01-70.52 15.02-28.26 32.61-44.64 46.72-67.2 28.3-45.11 36.73-109.67 50.2-167.31 24.85 28.63 32.64 102.63 51.31 135.05 32.11 55.5 15.11 47.59 68.81 127.94 39.78 59.47 67.79 123.88 124.19 165.79 36.12 26.93 24.48 30.59 48.56 55.04 29.69 30.19 79.17 54.54 116 70.3 23.61 10.11 42.22 30.96 55.31 37.91l384.95 91.43c29.94-44.71 48.46-63.23 93.17-93.2-5-60.56-4.13-126.08-17.75-178.29-15.39-58.73-50.07-217.64-72.38-249.31l-99.59-169.71c-1.27-1.76-3.01-4.25-4.28-6.04l-60.31-63.95c-29.41-26.27-159.87-132.47-170.26-161.13 49.86 0 59.63-5 94.5-9.06l386.13-59.01c29.41-12.29 38.28-27.71 60.52-43.22l64.22-39.34c99.5-78.67 144.98-220.58 57.8-231.03l-15.39 1.21c-9.74-.35-10.3.49-18.95-1.74l-75.42-24.36c-45.39-8.03 9.99 10.46-31.4-3.44l-117.21-36.2c-43.31-8.19.28-.19-39.15-12.69-69.43-22.03-131.57-19.46-220.33-48.9-47.07-15.57-88.48-6.79-130.34-25.87-35.67-16.29-28.35 1.86-71.51-9.84l-80.35-23.79c-47.9-6.3-51.47 3.29-91.3-12.22-82.5-32.08-198.43-27.21-265.91-55.17-43.09-17.83-67.85-7.04-116.53-17.43l-145.53-20.85c-48.71-1.64-86.06-24.6-228.28-30.62-36.64-1.55-20.29-.56-42.59-9.18-30.47-11.79 17.59-6.83-39.28-12.51-15.45-1.52-45.36.35-62.48.35l11.48-9.25c1.73-1.21 10.05-6.64 12.5-8.22l216.24-84.08c102.19-26.89 79.82-36.26 193.84-54.69 39.55-6.42 19.79-15.76 66.7-26.53 28.17-6.45 46.6-1.15 75.42-7.44 25.38-5.53 39.49-17.07 60.03-22.81 113.92-32.01 499.4-34.77 648-35.61l319.02 22.71c42.72 8.03 76.54 39.93 98.63 77.46l34 48.81c19.33 31.02 8.07 31.45 21.19 61.64 13.37 30.71 18.4 20.66 32.98 49.89 31.77 63.66 46.41 139.7 66.98 202.31 20.72 63.16-6.36 239.66-25.84 301.77-96.21 306.3-273.23 326.96-136.39 450.78 27.58 25 20.85 25.19 59.97 25.07l21.41-.35c115.07-.71 219.37-65.43 312.01-125.3 15.61-10.12 10.49-4.62 25.94-15.48 15.76-11.05 27.95-25.66 42.47-40.37 81.75-82.61 171.59-199.08 200.57-317.22 6.79-27.64 8.5-40.92 16.32-66.51 7.13-23.27 15.94-31.71 23.42-60.28 9.77-37.39 10.83-158.01-.74-204.76-11.08-44.96-8.53-72.69-27.03-128.13-8.22-24.76-17.49-36.36-18.36-74.83 43.03 22.77 134.52 117.58 164.15 156.86 69.99 92.82 104.67 224.8 136.72 339.68 13.47 48.4 11.85 16.22 30.62 52.18 14.64 28.02 5.12 34.44 18.68 64.19l56.93 108.74c90.59 155.56 126.45 175.41 207.89 278.85 22.68 28.79 230.08 188.81 273.17 203.17l279.12 116.37c51.07 2.86 82.59 19.39 153.14 22.96l180.19 12.63c3.16-.16 5.89-.84 8.81-1.03 2.69-.18 5.46-.71 7.97-.86l194.18-14.37c26.68-4.84 39.96-2.54 52.55-21.78 22.22-34.03-3.66-42.38-7.47-58.38-1.27-5.37-2.39-110.14-2.39-121.46-.06-32.58 6.48-27.12-5.18-58.83l-96.3-391.3-56.25-109.43c-40.3-83.17-164.24-299.25-225.33-344.24-22.71-16.72-24.88-18.71-39.86-43-44.68-72.75-25.41-34.03-80.88-84.82-27.61-25.25-10.15-23.24-49.18-33.66v-20.69c25.63.56 14.86-3.04 35.09 6.33l226.14 94.87c58.66 14.98 85.1 16.47 150.62 25.47 56.28 7.69 83.14 26.56 142.52 25.72 124.5-1.74 96.68 39.49 206.13 6.82 54.54-16.25 80.6-.71 129.21-4.9 31.84-2.73 32.08-13.62 71.42-22.34l136.6-28.41c23.3-100.03 61.18-72.85 26.19-150.5l-103.28-165.92c-21.35-33.23-20.98-15.54-37.67-34.87-26.77-30.96-21.96-55.47-64.56-80.38l-59.1-54.85c-1.3-1.68-3.26-4.04-4.56-5.78-17.81-24.1-11.04-27.61-34.47-48.36-67.16-59.48-159.15-97.32-230.07-153.91-6.58-5.28-3.82-5.99-16.45-11.92-16.35-7.6-14.95.56-45.35-7.69-29.69-8.07-11.7-3.75-22.77-8.59-1.15-.5-26.47-13.41-27.71-14.06-61.36-32.7-142.83-49.61-208.85-71.6l-165.7-20.51c-77.47 1.03-92.67 6.14-169.61-16.13-25.69-7.42-34.19-16.38-52.5-20.69-40.73-9.56-21 3.63-51.87-1.12-39.12-6.02-11.26-9.53-57.21-13.37v-20.7c49.39-11.51 74.15-59.93 229.49-102.72 58.76-16.16 31.33 8.47 85.32-6.23 50.75-13.84 101.2-56.99 155.8-72.85 17.87-5.21 24.51-4.12 42.44-9.33l450.56-170.79c47.9-27.37 113.4-44.27 154.81-73 46.42-32.27 103.04-50.67 153.88-73.96l203.58-127.82c60.75-29.72 157.39-92.55 204.11-137.63l48.43-34.37c35.12-27.83 39.93-41.88 79.61-65.4l304.59-265.01c17.07-13.77 10.37-8.06 26.9-24.82 16.29-16.44 16.51-19.08 29.44-32.73 19.3-20.41 9.87-8.19 27.4-24.35l105.6-122.27c61.34-68.69 133-131.94 180.13-213.35l185.43-270.22c31.58-47.78 61.46-80.82 84.01-133.47l191.24-378.34 85.38-246.02c15.32-73.65 43.43-103.65 47.4-180.4 5.09-97.26 39.71-90.22 36.45-179.07-1.49-40.71 33.51-139.64 31.65-179.32-2.82-63.17 10.52-30.13 15.08-86.56 12.84-157.6.86-371.76 7.88-458.48 1.64-20.22 3.87-37.32 1.42-58.38-3.53-31.03-9.18-57.27-11.85-102.23-.18-3.44-1.02-11.91-1.08-14.98l-6.95-70.37 301.37 154.29c228.67 41.38 371.08 54.54 621.41 2.17l283.81-109.73c95.27-34.97 12.44 1.18 74.27-39.65 27.55-18.21 16.94 6.11 42.44-19.64 22.18-22.37 6.61-14.99 15.76-46.38 15.95-54.54 21.25-41.82-9.34-100.58l-14.67-26.74c-32.79-58.36-4.56-34.72-52.53-82.09-32.54-32.15-39.64-71.2-74.52-101.52-76.47-66.39-93.44-108.46-195.63-156.51l-87.12-57.8c-2.02-1.15-4.59-2.67-6.58-3.79-2.76-1.48-10.89-5.55-13.83-6.91l-132.48-43.53c-79.73-25.97-166.94-24.35-255.29-24.35 0-57.24 11.38-74.34 26.55-118.45 16.79-48.9 11.7-80.45 21.1-134.37 16.97-97.17-22.68-214-44.89-272.49-26.13-68.62-65.31-128.31-107.87-187.66-14.46-20.2-6.8-11.01-19.89-21.53-41.91-33.79-71.48-25.32-119.54-35.8-106.13-23.15-79.7-20.85-154.9 91.27-34.75 51.81-101.17 120.9-153.72 156.95-12.38 8.5-18.56 9.9-31.15 20.63-46.17 39.34-104.34 64.16-140.57 118.3-85.32 0-103.97 15.79-189.16 2.76-63.97-9.77-115.69-20.73-167.09-50.38-20.45-11.76-20.08-8.26-36.39-15.42l-14.59-6.15c-17.9-11.88-4.22-2.79-15.01-16.04-23.77-29.25-34.28-22.89-54.14-49.39-9.31-12.41-7.13-17-19.7-32.08-66.95-80.19-81.38-124.96-117.58-224.18l-12.22-29.16c-1-2.29-2.02-5.12-2.98-7.38-6.24-14.27-2.02-7.91-9.62-21.44-40.86-72.53-44.18-118.11-74.86-194.4-11.23-27.79-7.54-12.9-16.63-35.21-31.74-78.34-42.19-164.52-76.13-244.87-8.32-19.73-6.12-19.08-12.01-39.78l-46.16-161.1c-7.02-20.11-11.08-22.12-13.37-38.04-6.46-43.59 5.42-12.07.55-44.09-8.12-53.17-27.36-86.49-33.78-171.4l-17.25-87.15c-15.2-58.64 16.44-31.3.62-92.17-12.47-48.12-36.45-198.37-31.34-251.05 3.57-36.24 7.42-65.71 6.52-108.09-1.74-81.9-23.8-103.99-9.71-184.53 7.97-45.33-3.29-163.5 29.97-187.88 42.01 30.77 5.96 4.22 26.25 46.25 12.37 25.48 15.82 14.09 29.06 43.47 21.04 46.82 16.7 72.29 42.41 112.93 22.65 35.77 9.28 5.92 18.9 53.58 11.73 58.23 49.3 105.04 68.72 159.12 25.28 70.42 68.87 266.53 106.47 328.05l43.9 111.81c17.59 71.76 59.78 150.68 76.1 224.24l85.6 359.66c15.11 158.57 23.02 78.62-31.18 176.59-57.4 103.87-2.48 32.02-124.44 113.71 0 162.59 62.48 135.67 115.5 164.05 28.61 15.3 9.75 22.56 61.15 32.05 93.35 17.28 250.03 25.66 328.55-22.27 113.45-69.22 35.77 25.87 219.12-153.67l37.32-55.87c12.66-26.65 11.98-45.7 23.61-69.62 19.64-40.3 42.04-92.17 43.16-143.21 15.39 7.39 27.05 10.15 43.34 18.83 14.11 7.54 29.04 18.77 43.96 28.52l140.17 66.91c22.8 12.2 15.29 15.3 45.94 26.56l82.84 20.76c45.11 15.23 31.36 18.21 77.53 26.03 20.63 3.5.59-2.89 26.27 4.84 53.27 16 32.24 19.45 77.88 20.07 59.07.84 116.65 19.05 187.47 15.48l286.08-34 129.24-47.47c18.37-7.54 39.96-9.77 55.38-17.09 63.32-29.97 5.06-13.41 97.33-37.33l46.56-25.87c43.93-32.64 19.67-31.21 55.04-48.52l14.64-6.08c2.17-1.03 4.78-2.45 6.86-3.51 2.11-1.02 4.65-2.6 6.73-3.66l40.49-21.65c49.73-34.6 55.78-19.58 71.76-83.55 5.98-23.95 11.26-26.25 17.87-54.6-46.6-69.65-185.12-184.2-248.66-238.02-50.29-42.6-71.61-63.6-143.3-94.9l-118.79-46.91c-36.24-16.26-17.28-20.76-50.85-31.99-23.7-7.97-37.57-5.68-66.02-16.85-21.75-8.53-35.18-17.83-59.54-23.26l-151.61-14.09c6.95-29.87 27.76-48.49 39-74.89 23.39-55.1 62.85-114.39 73.12-175.72 9.9-58.85-11.39-60.34.15-102.78 18.37-67.51-2.11-135.92-8.84-205.73-4.71-48.98-49.92-153.35-113.83-134.7-38 11.1-52.24 59.47-78.33 87.33l-10.67 10.08c-63.04 66.05-98.88 137.32-186.49 186.33-8.28 4.66-29.91 19.98-36.83 25.26-45.91 35.12-106.72 67.29-164.05 84.51-86.93 26.15-93.66 44.58-197.07 61.83-54.78 9.15-38.53 20.69-102.75 21.53-260.76 3.35-174.38 26.18-309.71-33.01-154.32-67.48-118.36-167.1-208.58-174.6 0-69.13-19.91-69.87-53.73-122.3l-53.77-122.27c-10.82-44.14-9.64-26.31-29.03-53.85-42.32-60.28-72.69-375.83-64.38-461.86 2.82-28.76 6.55-57.46 4.1-88.79-3.88-49.64-22.84-107.97-28.92-147.15-8.93-57.24.99-116.9 14.3-167.93 6.12-23.3 10.49-50.73 13.37-69.47l45.77-171.72c21.96-57.05 55.53-94.34 70.14-157.66 15.58-67.45 54.94-123.29 90.28-178.98 35.46-55.78 67.42-109.11 113.49-155.77l65.4-79.61c.24-.28 9.99-9.27 15.79-15.29 2.08-2.17 7.82-8.63 9.83-10.83 29.57-31.74 62.98-38.72 95.93-69.84 48.74-46.04 43.65-33.35 89.32-65.3 15.08-10.58 8.56-6.7 26.9-15.2l94.68-39.93c26.34-15.79 9.93-20.88 47.93-34.9 18.8-6.92 53.27-3.63 80.2-13.03 61.06-21.38 46.79-35.71 140.38-46.01 80.39-8.84 236.19-14.15 309.75 19.42 57.08 26.06 209.82 84.97 246.18 116.65l93.04 83.02c40.14 39.65 46.6 48.89 71.94 104.05 16.32 35.53 7.63 26.87 17.47 65.37 11.94 46.45 20.6 30.84 26.46 66.77 16.63 101.57.56 163.12-23.14 244.81-12.69 43.59 14.46 7.13-14.95 56.87-75.67 128.06-117.49 169.29-266.22 191.1-39.34 5.81-43-3.69-78.31-6.64V10478c31.68-8.44 27.58-7.79 47.84-35.02 15.02-20.17 30.09-35.5 38.47-54.73 54.39-124.9 64.41-309.25-46.22-405.95-11.89-10.36-11.55-11.98-20.33-21.13l-76.59-58.08c-38.6-20.94-16.91-19.17-63.26-21.4l-19.14-1.59c-1.49-.55-4.07-2.35-5.56-3.1-1.55-.8-3.81-3.13-5.46-4.09-63.63-36.55-129.86-8.6-192.53 3.41-64.41 12.35-93.42 21.75-164.62 21.75-14.77 63.44 6.61 36.85 4.53 64.9-2.79 37.01-81.16 1.09-114.23 73.96-27.58 60.65 1.12 20.14-56.03 47.56 0 65.8-38.38 66.61-51.78 217.45-13.21 149.35.65 235.44 69.22 355.38 20.6 35.96 64.37 52.9 88.32 87.71 38.97 56.58 141.85 124.25 207.49 144.66l109.61 35.34c73.96 24.01 200.42 40.17 282.72 36.39 33.11-1.55 11.3-4.75 48.59-19.11 45.45-17.53 130.08-8.84 172.03-35.24 3.01-1.87 17.71-12.76 18.08-12.97 46.2-26.47 80.14-35.71 140.17-77.28.9-.62 14.61-10.99 17.78-13.31 131.82-97.92 193.77-205.79 275.77-345.58l70.64-208.95c18.59-140.13 38.41-293.52-1.18-441.72-5.83-21.84-10.95-26.99-18.58-53.92-11.63-41.14-13.15-73.06-34.9-110.04-38.53-65.53-73.68-166.97-125.74-216.02l-98.04-119.48c109.45-2.45 69.03-18.61 239.69 8.88 125.4 20.22 193.78 134.45 255.77 20.56 64.4-118.26 44.7-25.4 29.31-169.14-3.38-31.8 7.61-8 .5-43.93-4.81-24.17-8.69-11.26-20.1-52.21-17.81-63.82-49.92-120.53-89.07-180.22-47.47-72.35-50.11-57.89-89.1-107.66-49.83-63.63-144.58-84.2-192.35-149.41 7.07-26.43 91.77-120.25 115.41-174.57l166.07-351.66c9.15-35.24 45.73-93.13 65.95-161.91 19.95-67.89 66.61-248.94 64.72-303.27-.81-22.12-4.25-8.12-1.02-28.44l13.4-98.6c3.82-50.29 22.46-66.17 17-119.91-2.14-21.06-1.43-34.31-1.24-58.85.62-86.84-.34-152.73.99-229.11.96-55.97-1.73-1.15-13.99-50.08-5.55-22.3-1.33-46.19-3.66-69.18l-9.37-125.25c-20.44-9.77-12.56-3.94-31.09-10.36-33.56-11.63-5.49-1.02-36.29-15.45-25.72-12.07-41.98-20.04-67.29-25.93-26.07 17.43-45.42 40.82-75.11 59.44l-115.38 81.41c-11.36 9.12-8.66 7.85-15.79 15.26-7.39 7.63-9.93 11.82-19.95 21.53l-168.93 162.41c-18.27 14.58-20.04 17.81-35.4 37.11l-60.09 74.52c-25.94 37.01-41.29 19.26-72.13 72.84l-60.38 74.24c-29.9 26.31-26.55 51.22-52.52 82.12l-59.41 75.24c-12.44 17.62-17.31 18.58-28.51 33.63l-77.03 130.02c-12.51 25.75-3.39 21.87-17.35 44.83-15.97 26.34-17.06 8.62-30.37 42.13l-95.43 184.16c-33.91-22.71-54.01-42.69-91.02-53.95l-137.75-69.4c-43.06-32.61-283.75-34.56-334.81-26.03-22.28 3.72-41.76 4.71-64.16 8.37-.56.1-31 5.96-34.5 6.89l-85.32 28.64c-55.81 20.54-80.91 78.8-80.91 146.9l143.15 84.69c115.87 87.68 70.73 39.99 151.21 159.47 23.61 35.08 15.17 6.36 29.13 53.67l38.28 117.08c8.01 62.24 21.32 228.53-9.06 279.53-14.27 23.98-40.51 36.11-69.49 85.81-25.63 43.96-73.22 86.44-105.14 122.74-23.67 26.92-25.01 13.77-49.51 33.35-34.97 27.92-27.86 40.64-122.46 105.32-22.83 15.58-29.94 26.28-47.56 35.34-24.2 12.44-30.06 5.96-53.3 19.17-178.7 101.45-221.82 77.78-475.29 74.52-73.68-.96-51.59-21.68-133.96-21.4-30.25.12-40.76-.84-68.81-4.35-58.57-7.35-14.08 6.67-65.37 3.76-27.64-1.59-29.97-12.1-54.85-17.5l-407.62-97.88c-22.25-6.77-4.63-.44-23.24-4.22l-121.37-29.16c-69.68-18.96-158-51.38-219.96-90.69-44.05-27.98-63.94-25.19-108.89-46.47-115.32-54.6-238.92-117.58-340.4-198.09-17.25-13.68-26.09-28.51-42.1-40.71l-93.07-62.26c-48.49-45.67-68.41-13.96-70.02-85.35l146.83-3.75c6.77-.19 27.65 1.43 49.64 3.44 19.05 1.74 34.59 4.93 46.57 6.45 34.25 4.29 29.32-1.39 45.45.16 56.4 5.4 12.01 21.93 84.04 25.07 94.94 4.12 180.72 39.4 278.94 52.43 41.54 5.52 49.14 19.39 83.55 30.34 54.48 17.31 127.54 19.92 176.31 41.17l61.33 21.53c32.18 11.26 10.77 10.86 48.9 33.94 36.89 22.31 71.94 42.16 101.11 74.92 25.16 28.24 26.8 35.09 44.21 69.75 36.39 72.53 34.37 91.39 34.37 193.4 36.79 24.6 41.91 61.24 102.5 51.97 49.3-7.54 75.61-52.78 112.22-75.46 41.32-25.62 27.7-27.89 62.08-62.2 23.54-23.45 22.8-9.8 40.27-32.23 24.2-31.12 73.03-177.18 73.21-225.21l-6.88-133.46c-4.38-53.95-28.2-64.5-40.96-114.39l-21.4-61.43c49.08-4.09 77.28-30.12 117.58-48.8 20.91-9.68 20.13-6.11 24.82-7.51l37.57-21.96c43.46-29.35 55.25-19.05 139.79-78.34 61.15-42.87 44-49.17 111.26-95.86l207.76-289.36c10.4-24.23 13.84-21.81 30.04-42.51 47.4-60.62 26.3-75.32 54.29-142.37 26.93-64.5 43.96-81.53 52.65-164.86l28.41-225.67c1.59-73.59-19.94-98.1-15.41-178.2 2.66-46.41-28.89-39.37-43.19-71.42-1.95-4.31-4.25-18.52-10.27-31.18-75.82 0-77.12 21.78-126.67 39.03-49.33 17.16-84.45 8.47-131.92 33.82-29.03 15.48-12.37 14.24-56.18 26.65l-87.58 36.67c-27.27 15.04-51.22 40.58-82.84 51.81-28.35 10.11-33.35 3.47-61.18 21.65-76.87 50.11-57.95 33.38-112.21 94.87l-117.74 99.81c-38 24.69-56.06 57.3-93.56 82.43-50.2-33.6-44.37-63.57-80.95-95.15-96.33-83.15-96.64-104.86-226.72-146.03-139.95-44.27-115.69-68.38-212.55 21.31 2.76 40.61 40.89 121.31 55.41 197.91 4.13 21.74 4.44 15.66 7.39 23.7 17.49 48.24 43.4 229.51 8.37 294.51l-175.32 291.07c-20.41 20.51-4.31 3.07-23.7 17.65l-61.86 52.06c-69.77 64.5-62.51 36.45-159.87 36.73-98.65.25-286.85 16.29-361.68-11.2l-340.73-218.44c-24.39-18.05-37.95-13.68-55.54-37.69-19.88-27.15-1.7-21.22-36.64-56.53l-180.62-244c-8.59-11.27-12.41-18.4-20.91-30.87l-89.57-138.28c-6.29-11.26-13.59-20.38-20.69-31.05-25.13-37.6-69.77-159.44-73.71-205.91-9.71-114.54-69.19-125.4-24.05-426.77 11.82-79.3 46.76-218.16 89.51-283.25l39.03-54.17c19.73-31.76 114.01-116.86 149.78-129.83 70.67-25.57 48.37-40.36 132.66-53.74l74.64-16.62c93.82-24.02 199.33 11.66 290.58 46.53 51.78 19.76 76.41 28.67 123.22 63.23 50.91 37.66 70.92 82.49 106.04 132.13 9.65 13.68 12.38 14.12 22.53 29.26 0 42.87 18.98 149.41-36.18 131.29-37.54-12.32-57.08-81.93-79.95-108.4-29.13-33.81-9.95-22.58-49.36-43.8-73.89-39.81-100.3-75.8-192.72-87.55-68.62-8.72-155.55-3.2-220.02 16.97-44.92 14.08-74.18 49.7-112.4 73.99-48.8 31.02-16.13 8.59-43.31 49.92-19.17 29.19-19.17 12.47-38.32 54.88-23.08 51.13.16 22.99-45.88 47.31v176.06c40.33 60.22 31.09 22.84 31.09 124.25 24.63 16.51 10.79 12.54 41.44 20.73v72.5c71.64 37.91 18.46 15.11 52.65 61.24l66.8 67.82c23.76 23.73 18.12 29.6 47.46 45.73 108.93 59.88 128.1 74.74 253.5 108.96 111.84 30.53 301.74-3.79 396.06-57.55 43.9-25.04 104.7-63.48 134.02-104.15 24.32-33.66 32.24-16.44 57.83-56.09l97.2-140.98c20.23-31.3 4.84-7.88 17.59-44.55l53.08-133.99c16.35-41.29 2.3-31.77 8.6-73.84l13.12-84.72c.99-35.12-2.82-85.16-1.77-102.51 4.96-78.49-15.45-126.27-34.93-190.98-16.76-55.94-50.91-109.89-78.62-159.53l-130.83-148.76c-33.47-27.8-61.05-64.59-100.55-85.84-144.85-77.87-125.49-43.84-154.56-135.45-10.7-33.82-6.89-3.32-13.93-49.02-7.1-45.92.75-44.89.75-103.47 17.74-9.4 33.63-17.9 55.99-26.83l83.15-51.47c47.25-37.14 98.5-44.68 147.58-80.26 38.97-28.3 105.82-33.85 189.65-89.97 29.94 44.77 100.12 81.59 143.18 115.72l207.92 154.5c51.04 53.67 138.65 97.79 199.67 152.42 29.04 26 53.3 61.12 91.65 84.45l152.45 127.1c22.83 20.45 30.13 16.11 45.54 37.33 27.59 38.03-10.73 18.39 42.97 50.25 32.05 19.02 21.01 14.15 46.14 36.68l479.19 411.44c30.47 23.98 14.52 28.04 44.46 48.89 50.11 34.87 99.59-6.67 131.23-27.86-1.17-53.7-26.15-96.82-31.02-155.37 26.25 13.9 29.19 19.02 50.41 32.42 111.57 70.55 97.76 57.12 238.67 72.69 34.07 3.79 10.02 2.89 33.94 5.37 52.22 5.4 93.14-25.6 122.24-69.03-59.88-89.44-48.96-58.88-126.3-122.23-50.29-41.24-16.16-26.03-89.54-76.14l-92.73-72.97c-41.91-31.58-55.03-29.34-102.87-73.18-20.26-18.59-74.74-43.4-143.37-105.2-21.68-19.58-14.36-23.4-37.94-44.83-41.48-37.73-69.71-42.97-144.82-114.08l-90.78-74.99c-45.26-33.44-73.77-76.13-121.73-106.07l-37.39-24.75c-21.59-14.09-4.34-.59-24.6-16.82-50.29-40.36-83.67-83.7-137.59-121.27-22.87-15.89-23.52-20.85-43.5-39.34-54.91-50.7-106.72-93.42-187.97-143.43-44.77-27.51-12.88-9.24-37.88-44.95-30.94-44.05-26.53 2.51-41.11-52.09 16.01 0 47.12 1.74 61.52-.59 70.64-11.51 26.71-33.26 133.31 12.81 19.42 8.38 8.25 6.43 27.89 13.59 28.39 10.36 105.76 25.88 139.27 26.4l311.08-10.79c32.98-49.21 62.17-69.5 62.17-134.62-6.7-3.53-19.64-9.06-27.64-13.8-29.29-17.44-41.54-29.26-84.2-40.05-47.59-12.07-70.64-42.17-116.87-59.17-23.7-8.68-39.9-8.93-65.55-17.31-47.32-15.48-24.58-19.3-60.04-33.19-45.35-17.75-153.57-40.62-186.92-71.95-38.25-35.96-72.47-37.17-111.53-64.5l-105.23-70.83c-66.95-50.63-187.95-136.88-232.06-202.86l-327.77-376.45c-48.8-49.48-54.79-42.44-102.79-73.28-35.55-22.86-54.44-64.5-91.42-84.57-32.05-17.37-24.02-1.58-54.61-28.23-8.28-7.23-11.91-13.65-20.04-21.41l-57.02-36.17c-13.5-9.03-9.56-8.41-23.98-17.47l-204.39-137.34c-85.53-53.27-157.94-69.68-215.71-229.61-18.68-51.75-40.73-63.39-53.64-122.39-6.98-31.84-6.48-39.37-14.33-68.47l-56.87-119.2c-23.76-36.92-49.42-74.74-81.13-94.96l-117.15-58.92c-23.98-12.28-45.6-13.59-74.79-18.43-72.94-12.13-62.98-20.66-134.34-20.41l-267.55 6.86c-39.9.52-40.86-7.57-73.84 2.69-37.1 11.55-31.12 11.17-83.02 10.83-27.64-.18-55.81-.68-83.42-.43l-78 2.79c-79.98-4.72-56.24 26.46-56.24 111.38l102.37 125.46c11.51 18.8 1.28-.5 12.79 18.27 47.84 77.87 101.14 151.93 114.44 248.85 5.59 40.98-3.38 44.89 4.32 77.06 12.19 50.75 19.88 18.96 8.81 83.08-10.71 62.33-8.29 138.84-5.21 203.89 3.35 70.15 16.59 22.18 21.96 82.25 4.81 53.67-14.05 120-2.88 169.85 9.18 40.93 4.37-9.8 11.66 37.92 2.02 13.21 2.45 34.12 3.82 48.86 2.32 24.79-2.55 49.89 4.43 76.94 14.89 57.46 19.86 13.9 23.86 80.54 4.65 77.47 42.13 138.43 69.71 209.91l125.03 216.7c84.63 126.21 43.77 64.93 96.08 111.01 21.19 18.64 56 80.53 94.9 112.24 58.95 48.03 23.71 2.89 87.43 67.91 53.36 54.54 39.21 29.91 87.86 67.45 12.22 9.43 15.85 17.37 27.52 24.29 24.57 14.55 11.38 3.32 38.59 13.19 29.2 10.58 121.96 62.2 128.78 88.66-2.01 24.42-3.07 28.89-7.19 44.89-14.65 56.65-8.23 15.77-88.24 45.73-1.58.59-23.51 7.23-24.04 7.36-30.93 7.23-75.73 10.48-95.18 10.27-60.84-.69-32.83 13.96-95.49 16.5-74.31 3.07-163.91.99-239.2 0-66.73-.84-48.58-14.64-93.26-20.63-82.99-11.11-73.68-3.07-148.79-25.35l-351.97-105.6c-46.16-17.04-6.98-.59-40.11-22.03l-41.7-20.44c-45.67-22.78-66.64-51.72-114.79-71.61-49.98-20.69-56.65-2.42-58.05-66.2l215.81-63.82c43.31-13.16 30.9-17.62 61.8-41.73 23.95-18.61 36.14-19.17 64.28-28.91 68.72-23.77 104.99-83.89 165.54-124.44v-134.61c-52.24-45.3-72.34-32.46-207.45-31.37-33.14.25-60.19 6.55-79.27 5.46-135.51-7.79-387.77-9.34-487.17-49.36-56.03-22.55-94.44-23.67-144.98-41.42l-233.08-87.95c-32.92-12.41-67.67-22.74-90.75-54.26 34.56-12.53 10.49 1.77 31.74-30.4 15.76-23.86 8.47-17.35 34.68-37.79 33.73-26.31 36.83-40.05 59.91-74.74 9.71-14.55 14.77-22 25.1-37.07 23.95-35.06 18.65-69.12 43.03-101.89 13.56-18.18 19.08-17.8 33.35-39.15v-124.25c-7.66-25.19-21.96-28.73-30.77-52.06-8.85-23.33-6.27-39.18-42.1-41.57-54.79-3.69-112.93 77.9-167.56 91.33-117.28 28.79-25.07 19.95-202 67.3-29.66 7.94 5.05-1.12-29.1 12.28-12.91 5.06-17.63 5.74-31.49 9.93-72.51 21.72-215.65 76.13-285.58 49.36-42.94-16.41-10.52-15.45-68.25-26.12-43.65-8.1-34.91 2.73-63.35.12-6.89-.65-46.94-15.2-69.68-21.97-42.07-12.47-24.98-10.02-60.38-9.83-47.28.25-28.17-10.92-68.96-16.38-28.48-3.82-58.98 5.99-72.04 5.68-23.36-.59-33.35-14.52-69.93-13.65l-139.39-.41c-40.21.69-28.7 9.5-62.45 13.59l-140.08-1.61c-35.12 6.14-4.68 16.69-73.96 17.37-86.34.84-134.55 25.38-212.27 46.63-49.48 13.53-86.15 15.11-135.32 40.7-31.93 16.6-21.94 22.28-67.14 26.06 3.32-39.8 17.28-42.72 28.2-75.32 5-14.77 2.58-16.1 8.44-33.01l19.67-52.84c8.56-28.51 9.49-38.16 16.88-65.95 9.86-37.23 8.31-15.58 20.32-52.15 8.03-24.54 8.31-39.25 10.08-72.82 1.61-30.9 2.61-37.85 11.63-61.21 21.07-54.73 37.67-260.07 27.37-329.91-5.28-35.68-15.95-93.54-14.21-132.75 1.52-33.48-26.43-75.02-35.18-107.84 40.05.9 50.38 12.1 93.13 10.27l86.5 6.48c36.33 7.29 67.91-.65 99.3 4.59 47.78 8.01 10.71 20.08 93.76 20.17 51.78.06 53.76 6.76 93.79 9.83 18.02 1.37 30.93-1.02 49.14 2.61 18.55 3.69 26.12 11.29 46.07 16.04 67.07 15.91 122.02 7.72 183.94 12.87l28.79-33.29 32.86-495.33c7.1-95.33 66.17-167.77 121.89-240.56 58.42-76.35 108.61-149.66 180.56-212.92l70.83-74.17 157.23 38.65c60.43-.06 66.61-34.78 132.69-69.74 0-77.1-13.75-38.25-24.01-84.39l-52.99-107.84c-16.23-22.37-.22-14.61-26.56-25.25 19.76-73.9 29.07 16.32 31.09-72.47 54.54 26.15 138.33 25.41 184.5 9.3 30.43-10.61 55.9-8.78 77.15-37.6 15.33-20.84 25.72-65.05 28.27-95.99-22.12-30.21-6.61-12.65-41.39-31.05 27.3-40.83 18.8-49.02-9.12-84.08-1.37-1.67-3.38-4-4.65-5.74-21.38-28.69-38.32-55.65-76.23-68.53-49.17-16.72-9.87 30.47-44.64-17.71 28.76 0 48.92-2.64 65.27-7.23l34.31-17.47c1.68-1.33 3.48-3.84 5.09-5.21 1.68-1.4 3.6-3.75 5.28-5.15l97.16-68.5c-.99-45.79-10.33-73.16-10.33-134.61-39.12-26.19-49.39-18.5-72.53-62.15-53.02 0-63.82-11.75-124.47-10.76-69.4 1.15-78.4 24.04-93.01-30.65 13.31-19.86 7.44-11.2 24.6-27.18 19.42-18.06 3.32 4.34 25.66-26.15l37.85-76.08c21.22-62.73 16.53-93.84-10.21-145.22-1.05-2.14-2.14-4.99-3.23-7.13-24.2-47.32-55-39.31-93.81-51.81-47.87-15.42-129.87-3.7-162.88 27.23-2.23 2.08-7.32 9.16-9.4 11.3-1.52 1.52-3.51 3.88-5.03 5.36l-11.29 9.4c-25.1 25.2-16.07-5.49-20.04 42.1-58.26-39.02-15.02-14.67-10.86-73.06 3.35-46.75-30.4-96.3-49.39-135.88-7.6-15.76-8-31.77-20.75-41.42-21.88-16.57-19.58-4.65-51.04-11.11-19.17-3.97-26.53-8.9-43.99-18.15-36.14 19.15-36.42 31.09-93.2 31.09-33.78 63.88-81 61.71-82.86 144.98-57.43 0-68.88-9.37-113.92-10.37 0-21.87 2.42-27.17-4.53-47.25-21.22-61.55-56.13-36.29-88.64-97.72-20.01 0-53.58 1.98-71.98-.53-31.45-4.28-29.47-12.44-62.66-20.2l-42.6 60.97c-6.11 7.44-9.74 7.75-19.55 21.93-36.17 51.9-7.53 57.46-20.72 113.86h-41.39c-.71-29.97-8.06-83.49-23.14-101.14l-70.05-54.17c-30.96 2.58-30.59 9.19-60.41 7.26-40.89-2.64-7.91-20.2-58.04 8.25-48.37 27.46-52.09 42.85-88.7 67.33 25.35-108.71 30.81-45.76-.81-144.14-7.88-24.48-18.74-40.71-40.45-52.74l-46.32-16.04c-45.02-17.9-126.3-13.9-161.58 36.27-13.18 18.76-19.7 35.18-34.84 58.35-14.24 21.87-24.07 46.75-47.37 56.16l-8.22-63.6c-7.32-22.62-.5 8.15-11.51-30.41-26.43-92.11-39.22-5.18-104.55-102.75h-72.51c-43.96 65.68-68.03 38.31-99.61 76.41-9.56 11.54-30.56 52.46-31.56 59.72-3.94 27.89 8.72 18.71-3.41 70.99-55.84 0-95.99 19.64-144.97 31.05l-20.76-51.78c18.55-27.7 33.54-47.03 39.34-84.94 3.23-21.22 0-37.48 4.68-57.43 20.88-89.07 22.4 12.79-22.09-179.87-11.07-47.94-45.32-70.31-73.71-112.68-49.42 4.12-79.58 10.36-144.94 10.36-32.21 60.81-84.05 44.36-123.05 115.16l-10.33 20.69c-34.46 77.22-36.76 102.63-16.53 169.36 13.06 43.31 16.72 85.23 67.01 98.66 0 120.87-19.55 78.18-55.75 68.53l-47.62-16.56c-45.92-14.96-66.98-31.9-114.08-20.91 0-53.71 3.2-89.6-32.45-133.25-34.03-41.79-49.92-11.33-91.8-73.87h-82.87c-22.15 33.13-17.03 7.26-20.69 51.78-79.54 0-79.67 11.94-90.25 85.81-7.69 53.42 11.79 46.94-34.06 59.16 0-61.89-16.17-65.55-45.45-99.49l-23.08-28.7c-56.28-46.81-152.77-42.38-203.71.93-19.58 16.69-15.2 18.52-38.44 34.07 0 79.57-16.22 75.11 0 144.97l-103.53-72.47c-16.62 3.85-38.56 13.9-43.18 13.99-27.4.59.5-9.8-50.01-13.99l-73.78 50.48c-20.97 26.03-28.94 66.64-29.78 104.86-74.09-39.22-23.27-34.5-51.31-104.06l-47.04-66.82c-5.8-11.02-10.05-17.59-15.57-25.88-100.89 0-114.88 11.23-168.46 48.99l-43.37 39.49c-19.3 27.93-25.41 34.25-26.37 77.19-54.89 0-61.15.5-103.56 10.36-1.15-52.43-10.18-50.66-38.19-86.03-33.63-42.44 27.61 26.13-9.84-10.92-51.31-50.81-73.34-42.5-128-79.08-172.84 40.27-59.32 5.12-136.42 91.37-23.27 26.03-30 79.17-21.56 118.6 6.73 31 15.79 49.08-2.11 56.31-29.78 11.95-27.73-17.68-41.17-33.78l-36.95-46.1c-35.89 0-109.23-6.61-121.46-5.53l-106.35 15.89c-9.21 19.17-10.79 33.75-20.78 51.68-21.47 38.69-36.3 30.81-22 74.59 23.24 71.1 2.76-31.21 5.4 33.44 2.08 50.45 98.66 150.56 85.5 177.95-8.81 18.34-107.93-1.36-152.08 14l-123.85 62.57c0 70.4 8.81 59.38-20.75 103.53 14.98 31.21 2.17 32.85 29.19 53.67 21.59 16.66 6.58.4 27.52 13.93 2.54 1.68 9.34 7.11 11.7 9.03 1.67 1.33 3.59 3.72 5.21 5.15 45.04 40.58 52.37 63.23 133.56 63.23v10.33c-71.2 0-84.73 35.61-113.58 72.9-1.34 1.71-3.6 3.73-4.97 5.4-1.45 1.68-3.97 3.42-5.39 5.06-28.11 32.51-24.55 46.29-.38 82.34-44.49 3.69-18.64-1.46-51.78 20.72 2.45 29.57 19.49 70.58 33.35 90.96l31.8 30.28c8.57 4.66 9.93 2.89 22.4 8.75 5.25 2.48 18.87 10.61 20.32 11.33 37.17 18.95 89.63 11.48 133.56 8.96 36.05-2.08 7.76-4.78 48.56-15.66 19.39 28.94 16.41 31.55 31.05 62.14l-103.56 196.75c-.71 43.62 80.26 98.1 173.52 91 3.41-.25 11.79-1.28 14.89-1.31 54.51-.77 41.82 4.04 101.58-27.55 27.08 18.15 21.99 19.21 42.09 40.71l87.99 88.07c1.49 1.52 3.72 3.63 5.24 5.09 82.9 77.25 56.06 64.25 111.44 137.13 68.69 90.4 68.29 108.89 85.57 214.75 7.29 44.67-1.06-2.24 12.68 39.12 14.71 44.36 4.97 115.25 13.19 162.81 31.09 179.54-30.96 337.08 64 335.03 149.32-3.19 71.67-3.5 149.88-15.54 32.85-5.06 17.4 3.17 36.61.62 38.13-5.12 5.3-7.48 44.08-12.94l206.19-10.98c13.59.65 49.55 1.18 62.11-.62 71.73-10.17 26.5-19.61 156.27-19.85 56.9-.1 61.12-10.68 113.55-10.68-10.02 43.1-32.79 56.53-54.23 90.75-44.71 71.42-84.54 297.77-80.82 386 2.02 47.16 3.72 26.53 12.53 60.65 15.14 58.61-8.4 8.01 1 60.66l100.82 344.3-104.83-40.14c-32.82-18.8-.71-17.38-50.32-22.19l-217.04-21.15c-24.73-2.95-33.07-11.61-56.71-16.6-45.18-9.53-36.49 4.59-68.1 4.9-27.37.25-105.02-17.9-135.3-18.8-39.12-1.12-31.49 6.79-58.29 5.21-160.55-9.49-290.2 40.58-438.09 51.56-114.61 8.5-57.18 62.08-244.54 11.67-31.83-8.56-33.35-3.48-65.36-7.11-43.84-5.02-76.2-31.08-117.37-37.94-91.12-15.17-103.53-45.11-171.62-66.61-100-31.64-69.96-21.9-162.29-75.85-48.74-28.48-79.36-43.96-114.45 61.77-5.68 17.28-5.83 27.08-5.77 46.84.47 106.7 33.35 89.73 52.09 166.6 13.15 54.23 48.27 82.93 76.26 130.86 29.84 51.1 15.76 17.07 51.5 52.09 11.48 11.3 40.3 51.78 49.01 64.84-39.36 26.37-79.76 46.88-131.41 65.31-74.77 26.68-151.93 60-230.95 69.4-74.95 8.9-54.6 43.68-248.13 62.58-206.43 20.13-32.51 30.55-373.28 30.55-207.52 0-249.4-33.69-249.28 61.4.03 34.66.75 69.53.75 104.27 36.57 24.51 66.11 60.47 105.29 81.07l58.82 34.44c30.38 13.71 36.98 14.89 67.79 35.74l188.13 72.69c22.8 6.7 3.6 4.09 35.28 14.27 15.26 4.9 25.71 6.6 41.72 10.36-1.14 51.9-8.84 49.2-48.49 65.37l-60.34 32.88c-105.33 61.96-130.61 86.84-259.86 123.32l-365.28 92.3c-55-.56-32.57 19.48-186.2 13.5-113.99-4.47-280.27 5.33-390.75-31.99-37.04-12.5-78.24 6.02-79.05-41.76l-8.04-77.59c76.97-1.71 127.42-54.29 180.16-89.07 32.17-21.19 51.41-35.24 78.83-55.81 16.48-12.38 18.06-15.73 33.73-28.39 29.31-23.67 52.95-32.27 73.93-60.68l103.56-103.56c36.05-26.78 152.88-199.95 170.5-243.79 26.1-65.03 67.23-111.87 86.69-182.55 8.99-32.66 19.2-71.1 28.54-106.04l28.76-147.45c1.27-21.6 1.77-46.63 4.81-67.51 7.63-51.69-2.61-137.28 9.95-197.16 5.06-23.98 13.87-24.08 18.09-54.42 9.31-66.36-1.24-195.08.13-269.13.93-48.96 8.5-66.49 10.48-124.16 1.46-42.84 18.18-70.89 29.88-104.71 17.65-50.75 114.79-214.03 149.1-254.8 28.88-34.34 48.37-33.69 50.45-96.02 2.32-71.35-8.44-61.39-66.21-57.21-134.71 9.78-453.82-29.47-649.55-15.01-55.44 4.09-158.75 26.49-205.75 53.17-38.75 21.97-122.95 110.79-144.89 155.43-9.12 18.62-1.49 1.9-10.14 20.91-31.18 68.26-33.69 142.84-60.47 208.8-11.17 27.42-13.4 15.6-27.36 45.11l-102.75 166.53c-41.36 50.36-225.98 135.95-293.74 182.58l-232.84 171.07c-35.02 37.01-83.98 50.41-121.15 85.97-124.96 119.66-221.73 213.32-327.77 355.72-13.83 18.55-15.57 18.3-26.24 35.86-22.87 37.57-51.04 58.2-87.06 88.98l-64.22 60.03c-4.87 4.87-15.76 14.12-21.93 19.52-23.36 20.38-55.16 47.31-82.37 62.6-42.56 23.95-46.66 18.21-83.98 50.66-29.94 26.03-50.76 29.51-83.61 51.01-39.9 26.12-34.41 39.8-82.06 52.58l-112.49 32.49c-59.2 16.97-39.34 32.94-88.89 45.7l-287.93 126.36c0 65.49 28.69 84.66 62.17 134.61 100.49 0 185.99 14.98 248.29 10.39 30.46-2.26 27.76-6.48 43.18-6.95 47.56-1.39-11.04 3.45 40.52 5.62 40.67 1.74 119.91-31.49 161.17-44.02 92.7-28.17 84.48-6.46 179.94-6.46-13.62 51.1-5.8 12.01-36.8 46.07-19.08 21.01-12.03 22.12-39.74 43.1-19.01 14.45-31.42 22.8-47.84 34.99-21.25 15.76-24.1 21.78-44.14 38.72l-94.41 81.59c-1.58 1.46-3.66 3.73-5.21 5.15l-37.17 24.98c-14.43 8.5-42.6 28.63-54.51 38.72l-82.83 82.8c-33.38 28.05-66.77 37.29-98.72 66.98-20.26 18.83-23.43 31.49-37.35 45.51l-181.37 150c-44.27 41.58-102.29 71.17-140.73 118.18l-240.28 184.31c-68.66 39.9-41.7 41.42-94.44 71.26-39.03 22.09-59.1 50.2-91.7 74.03-78.84 57.58-72.2 35.27-132.91 125.92 32.95 62.33 37.69 45.67 93.23 82.87l189.18-33.07c54.08-1.37 73.44-46.82 113.77-67.82 3.1-1.58 44.02-11.82 49.11-13.03l-27.99 108.09c-8.31 65.08 43.87 75.48 100.46 88.66 19.95-13.34 27.33-19.76 43.09-39.77 25.38-32.11 6.74-15.67 41.2-41.67 16.63-12.59 32.3-22.02 47.72-35.12l291-257.84c20.67-28.29 65.5-46.28 90.94-74.76l70.23-64.38c34.16-25.47 47.84-58.42 85.38-80.32l76.91-57.71c32.14-31.7 69.06-70.89 110.88-96.2 66.27-40.12 36.21-46.69 84.45-81.29l177.83-122.51c1.58-1.36 3.6-3.69 5.15-5.15l15.36-15.73c15.91-14.83 26.09-24.07 42.87-39.99 59.69-56.8 135.73-91.95 197.13-144.57l100.77-75.3 128.22 47.84c29.72 16.72 22.18 20.01 49.33 33.51l116.62 59.41c30.52 22.77 149.84 93.88 182.17 97.42 0 90.18-14.3 145.59-31.02 217.47l-256.05 178.92c-55.96 44.99-116.52 102.32-141.56 169.08-2.2 5.8-6.36 19.05-8.06 23.02-52.9 124.84-71.48 102.69-78.06 224.34l67.23 454.72 101.29 155.71c53.24 51.99-45.82-40.64 10.95 9.71 11.76 10.42 10.52 6.67 21.94 19.51 48.05 54.05 132.63 146.81 202.09 170.7l195.26 53.98c87.21 17.59 218.63.12 298.86-41.29 49.92-25.75 112.83-52.74 157.94-90.59l37.82-24.33c35.65-19.85 60.37-83.76 79.49-117.27 24.26-42.53 6.2 10.71 28.48-33.66 13.8-27.64.21-21.93 14.48-47.59 9.59-17.13 15.76 4.28 23.58-38.62 2.89-16.23-2.11-44.4.65-61.46 11.17-68.57 30.72 37.69 30.72-228.22-44.8-30-54.95-63.35-88.86-107.96-39.21-51.59-106.53-96.58-166.72-123.2-40.86-18.05-92.08-18.92-148.73-17.81-82.74 1.65-181.46 30.66-235.41 85.66-26.25 26.78-60.5 55.94-82.77 82.9-35.34 42.81-11.64 73.87-74.93 90.77-23.36-34.84-21.84-78.36-21.25-124.77 1.03-80.95 42.75-87.46 81.41-136.08 51.04-64.19 89.85-68.16 136.41-91.39 73.34-36.61 137.81-62.02 227.69-62.3 132.47-.47 166.94.37 259.45 41.51 56 24.91 128.54 73.65 165.52 124.44 21.59 29.69 50.6 47.84 65.52 79.42l36.42 77.5c71.67 160.27 87.18 391.27 47.22 561.91-5.83 25-4 37.01-10.55 61.95-22.27 84.57-52.49 187.64-99.21 263.24l-68.1 87.24c-28.32 39.84-8.44 35.56-56.99 87.99-29.91 32.32-32.36 64.9-57.43 97.94l-246.05 271.68c-47.99 40.67-120.74 88.42-178.91 111.1-21.81 8.5-33.05 15.45-56.53 26.27l-102.1 42.88c-63.88 13.59-375.39 1.77-453.92 1.77-45.32-67.7-159.68-134.99-190.95-202.56l-82.9-165.61c-79.26-197 64.04-516.86 56.38-543.14-6.98-23.95-41.7-46.63-61.25-63.01l-11.23-9.49c-45.01 23.83-88.73 25.32-137.22 38.84l-137.46 69.65c-50.64 24.36-36.33 43.5-87.62 78.06-28.66 19.3-63.16 78.24-72.62 113.76-33.73-22.52-49.46-49.45-81.07-74.27-18.99-14.92-20.79-12.59-40.86-31.64l-85.25-70.09c-33.57-23.17-12.47-21.62-35.28-47.56-25-28.41-93.13-60.4-131.82-75.26-97.6-37.48-85.44-61.12-169.73-89.23-44.18-14.76-91.28-42.47-139.46-52.52-37.78-7.88-35.18-15.82-82.89-4.72-13.5-50.47-61.15-51.77-113.92-51.77-13.31 25.13-9.99 21.25-28.17 44.36-5.09 6.48-27.46 36.52-29.26 43.03-3.16 11.48 3.94 85.84-.18 105.79-7.02 34.16-15.27 60.84-10.55 103 .21 1.99 12.62 59.57 12.75 60.19 7.38 57.95-11.23 18.61-2.24 63.91 6.77 34.28 11.08 8.56 16.04 56.25 21.5 205.25 51.75 146.21 82 280.45 11.2 49.64 37.82 56.53 56.15 99.22l51.47 93.54c25.69 33.57 30.56 61.3 56.09 88.85l72.57 72.41c60.28 81.94 176.43 163.68 270.34 206.03l77.75 36.18c34.31 21.78 58.11 43.65 110.51 44.83-9.74 36.48-9.18 14.83-22.12 50.38-6.39 17.65-1.09 6.08-6.61 24.42-30.4 100.45-13.28-32.55-41.39 155.43-7.16 47.96-3.41 111.06 6.33 144.23 14.62 49.98 28.3 57.89 47.1 108.24 33.04 88.76 168.49 209.54 236.59 220.3 61.8 9.78 62.23-24.54 101.11-50.6 0-49.08-5.25-98.72 9.83-145.5 78.96-244.87 331.59-246.21 457.92-287.75 34.71-11.42 33.29-15.73 76.81-26.71 32.52-8.22 63.97-10.8 94.56-19.33l189.25-38.59c53.64-6.95 34.1-17.41 93.26-20.67 85.5-4.74 67.91-15.2 186.45-15.82 17.47-.09 68.38 5.49 103.59 5.49-21.19 39.96-15.35 35.71-51.74 62.21l-140.2 108.33c-15.39 12.82-22.18 16.57-35.9 26.25-57.58 40.64-119.63 90.25-186.48 113.83l-163.75 84.79c-46.16 14.3-45.45-1.9-84.35 29.59-56.47 45.76-194.71 95.19-269.51 103.28-38.66 4.19-96.27 30.87-140.01 47.22l-187.26 39.71c-31.24 8.29-47.16 22.93-84.92 24.23l-38.25 7.36c-54.48 15.32-116.84 7.35-168.93 18.08-18.89 3.88-26.74 12.6-45.6 16.54-86.25 17.9-380.33 22.4-473.71 11.85-43.71-4.96-204.94-82.99-247.63-114.82l-76.01-48.27c-22.15-16.57-41.11-41.7-62.48-61.8-48.9-46.08-114.24-101.24-149.54-161.08l-70.18-85.16c-41.2-36.18-18.89-206.75-16.29-253.38 4.32-76.81 16.32-55.28 28.92-105.7 19.79-79.14 6.7-36.57 43.56-91.08 34.84-51.5 67.54-102.82 122.64-146.59l121.98-74.8c17.78-10.15 27.43-17.34 45.58-26.93 0-55.66-12.75-74.96-33.79-111.19-19.11-32.82 3.51-20.26-38.1-34.44-24.38-8.34-38.5-10.73-62.66-20.16-165.49-64.72-348.44-14.46-380.11-15.55-85.23-2.94-184.38 68.97-260.42 110.48-24.57 13.43-30.62 14.18-53.42 29.44l-271.87-463.41c-4.19-4.46-11.38-10.95-15.23-15.82l-108.46-140.04c-12.57-14.89-14.4-28.36-26.99-45.51l-233.24-243.14c-1.43-1.61-3.04-4.28-4.34-5.99l-23.4-28.42c-55.06-39.89-30.18-24.69-68.31-66.26l-104.46-92.36c-39.9-34.35-6.45 12.81-110.57-75.79l-11.26-9.5c-1.12-.96-3.79-3.07-5.65-4.68l-116.68 38.69c-35.8 27.33-21.75 154.9-30.43 197.4-15.95 77.62-16.14 29.51-15.52 120.72.13 12.59 1.31 38.03 1.86 60.09.81 32.64-.74 99.12-.8 123.17-.19 41.69-6.18 98.28 6.23 133.06 28.86 80.91 23.12 245 54.67 338.81 7.29 21.63 11.32 48.4 16.44 66.4l155.18 383.36c1.25 3.01 5.37 11.11 6.52 14.21l139.7 264.11c29.38 41.51 57.21 40.67 62.42 103.31-46.35 10.8-87.83 42.94-124.47 72.25l-66.39 57.86c-33.01 33.2-67.57 63.29-92.23 104.59-58.52 97.88-64.19 112.92-100.74 220.92-18.8 55.5.68 6.51-2.76 50.26-1.02 12.59-9.31 29.81-13.28 46.78-13.34 56.37 6.08 88.51 35.62 132.63 14.73 22.12 42.31 35.49 63.97 49.95l97.29-37.29c55.13-20.17 27.49-25.5 97.94-36.67 172.65-27.43 128.91-11.36 239.7-8.87-87.74 130.98-155.9 127.44-223.22 336.02l-41.08 91.58c-6.23 34.47 12.94 1.55 1.27 54.32l-43.68 290.42 26.43 108.55c9.81 59.94 3.23 117.24 30.07 177.03l51.68 93.32c25.97 35.49 24.45 56.34 43.03 91.58l122.83 167.16c58.97 38.94 93.44 106.44 199.92 152.11l325.29 90.93c95.67.28 194.95-20.01 290.44-41.6 71.14-16.07 271.56-147.27 307.33-189.74 42.59-50.64-20.79 7.19 61.02-83.96 75.64-84.26 77.63-228.33 70.74-333.32-3.23-49.23-10.18-84.91-19.39-125.55l-42.82-102.2c-27.51-13.18-11.13-9.43-51.77-10.33 0-56.55 13.12-60.71-30.75-72.84l-83.21-20.35c15.67-67.14 32.08-29.85-10.36-93.23-96.45 0-145.59-13.03-238.11-20.79-43.9-3.66-34-11.63-72.56-20.63l-16.94 14.09c-12.26 15.54-8.22 5.27-14.09 27.33-100.73-23.46-122.85 44.3-163.56 74.67-71.2 53.27-50.88 29.51-82.03 114.73-52.36 143.3-24.72 241.65 42.45 355.44 19.32 32.77 46.62 33.48 68.47 66.15-37.85 0-76.88 1.11-114.48.62-34.81-.47-27.61 1.86-53.49-8.66l-13.59-7.16c-2.14-1.03-4.77-2.33-6.98-3.35-9.99-4.72-10.95-4.32-21.62-9.47-57.58-27.95-52.53-42.47-92.52-83.48-33.97-34.87-45.23-65.18-67.13-108.96-11.11-22.28-21.63-72.88-23.64-100.61-5.62-78.03-5.68-173.58 16.35-232.09 92.85-246.49 239.94-253.9 333.91-318.5l58.54-24.29c2.11-1.02 4.59-2.64 6.61-3.75l66.61-26.59c109.92-19.2 73.28-25.53 211.99-26.65 19.39-.15 40.7-2.02 59.44 2.7 30 7.63 5.99 9.8 45.05 17.09 64.74 12.13 33.41.53 88.88 25.04l171.13 67.07c35.65 9.44 200.23 110.88 231.72 141.07l144.57 145.35c21.69 28.08 8.56 11.7 31.49 30.65 38.13 31.43 24.05 37.6 49.67 74.61l41.88 72.01c10.3 28.48 47.81 82.71 79.64 168.93 25.97 70.39 66.67 137.68 90.31 209.84l5.28 38.23c3.04 18.7 6.02 15.23 12.22 37.26l28.79 158c16.57 49.61 3.97 104.62-9.31 152.58-6.91 24.82-3.31 32.39-4.37 57.77-3.72 87.92-15.14 194.73-7.82 287.68 2.61 33.32 6.92 2.3-3.6 41.98-10.14 38.03-5.55 68-14.92 110.04l-39.9 136.1c-19.32 36.67-24.97 88.92-50.6 125.43-17.46 24.92-20.38 55.79-41.1 83.21-17.19 22.84-9.03 6.52-25.07 37.08l-125.03 175.25c-87.05 86.06-66.95 48.99-140.26 98.32-41.88 28.2-35.52 15.42-89.5 13.03-117.46-5.15-222.38 6.01-334.07-29.07-38.16-11.98-65.4-7.88-97.66-26.59l-306.03-170.39-145.93-154.37c-21.35-21.56-13.97-11.95-26.59-35.49-11.33-21.01-1.43-16.97-24.51-37.64-126.11-112.92-179.72 202.06-152.98 319.15 16.97 74.52-26.78 82.77 65.15 265.75 17.12 34.16 34.37 40.99 38.13 86.09-30.03 0-111.91 7.39-141.38 13.93-43.25 9.59-30.34 17.44-53.55 29.32-33.44 17.13-34.53 1.52-69.43 13.44-9.52 3.22-34.19 21.56-53.55 29.25-12.78 5.12-20.16 5.86-30.87 10.58l-231 131.45-131.45 117.12c-8.66 9.37-16.19 21.37-18.12 23.23l-99.09 108.06c6.39 27.33 6.95 19.24 15.7 46.41 19.79 61.24 26.34 39.28 62.26 72.35 36.55 33.6 45.42 22.59 86.5 48.12 64 39.8 13.46 39.68 137.5 80.01 23.42 7.6 23.02 9.49 41.94 20.2l155.47 61.98c66.88 13.53 286.41 46.32 357.55 41.67 3.44-.25 12-1.21 15.08-1.27 2.07-.07 4.93.12 6.91.12l60.5-10.39c47.34-13.56 50.35-.62 105.27-8.22 176.18-24.45 305.3-94.47 452.08-179.76 33.48-19.42 4.13-14.73 56.62-15.88 1.58 72.5 38.07 117.67 57.98 180.16 14.65 45.91-2.08 7.81 21.69 40.48l97.26 109.83c3.94 3.13 15.02 9.3 19.17 11.88l75.45 48.83c146.47 57.15 55.85 53.21 256.6 54.14 167.63.74 139.49-23.83 191.55-46.66 51.43-22.59 31.18 11.35 80.69-43.59 49.14-54.6 40.11-116.12-30.74-151.31-47.35-23.54-33.85-22.24-59.35-64.9-58.27-97.51-54.33-54.97-37.64-191.11 10.27-83.45 37.73-111.13 41.58-196.63 2.11-47.25-.9-21.84 12.1-50.01l102.16-322.43c46.57-175.97 74.67-155.59 97.35-265.1 10.18-49.24 53.98-192.51 78.68-231.97 63.6-101.64 32.64-112.96 75.42-173.15 24.69-34.77 32.61-87.52 53.86-132.5 1.83-3.75 8.75-16.72 10.51-20.6 14.93-32.51 10.71-38.25 36.21-56.96l2.67 655.26c-.78 11.57-2.61 35.68-4.97 46.44-4.46 20.11-13.27 28.14-16.69 46.45-10.55 56.4 16.01 38.34 4.69 86.06-3.73 15.66-11.26 21.96-14.55 37.82-3.76 18.14-1.24 31.17-2.67 49.2-5 65.96-35.68 171.13-36.08 176.53-2.76 38.4 8.06 20.38-11.33 76.19-55.62 160.52-88.29 329.42-142.77 489.07-12.84 37.72-25.97 41.04-37.35 76.6l-159.16 368.97c-9.77 14.48-36.54 42.31-48.55 55l-51.81 51.75c-39.8 35.15-100.08 55.22-147.05 70.42l-93.51 20.39c-83.98 27.45-97.73-7.17-183.23-7.17-36.92-55.16-203.3-132.29-321.04-289.95l-38.13-55.1c-67.5-96.14-87.67-24.7-189.71-48.46-54.91 36.76-83.51 86.19-119.87 138.99-12.38 18.02-19.3 23.11-26.81 35.33-10.98 17.84-12.01 30.87-20.79 51.72-49.6 117.96-68.4 191.73-51.28 334.44 11.11 92.33 33.57 132.54 53.08 216.18-53.95 0-129.52-4.38-180.43 5.33-51.6 9.84-110.6 41.67-160.15 49.71-73.46 11.88-111.19 57.54-186.27 91.24-25.66 11.48-48.15 23.08-71.23 42.72l-74.99 80.32c-26.33 28.2-57.39 43.77-74.02 81.31-25.5 57.77-26.43 29.72-53.83 70.43-1.27 1.89-2.54 4.68-3.72 6.67l-37.01 76.91c-17.06 42.1-30.56 66.08-8.69 128.19 10.24 29.25-1.05 16.69 24.11 27.7 11.38 4.97 10.64-.62 25.16 5.9 24.11 10.79-.47-2.83 17.96 13.12 18.74 16.16-7.01 9 29.63 22.15l46.54 15.61c1.89 1.11 3.94 3.38 5.83 4.5l91.27 43.52c35.87 23.33 68.5 18.06 88.3 24.82 50.26 17.1 217.44 66.15 263.98 66.18l265.07 1.02c25.29-6.27 10.67-9.59 36.52-15.95 18.98-4.68 30.43-1.33 49.05-2.73l170.01-47.43c40.24-13.22 65.06-37.73 101.07-54.29 38.66-17.81 69.62-43.56 112.22-53.46z" fill="#d7b56d"/></svg>