<svg xmlns="http://www.w3.org/2000/svg" width="320mm" height="240mm" viewBox="0 0 32000 24000" shape-rendering="geometricPrecision" text-rendering="geometricPrecision" image-rendering="optimizeQuality" fill-rule="evenodd" clip-rule="evenodd"><path d="M15839.11 19799.93l114.54 252.52c7.87 16.56 108.58 299.37 134.39 430.22l49.35 255.99c31.87 101.22-13.24 90.98 24.85 202.63 20.95 61.77 12 41.43 14.13 107.59 2.14 68.79 23.53 149.21 27.55 215.76 17.66 290.5-6.7 931.81-75.49 1230.19-17.46 75.85-70.23 124.13-144.19 163.33l-20.63 9.91c-176.38 82.85-397.17-47.42-446.25-203.78-34.72-110.42-80.82-264.6-92.81-379.8-14.87-142.94-59.49-205.7-55.56-400.92 1.74-85.15-14.47-129.07-13.03-214.82l105.05-842.49c8.26-47.94 20.5-46.74 29.04-94.75l211.83-638.87c37.8-77.38 32.09-94.01 137.23-92.71zm3833.22 649.62c-34.06 15.66-71.37 16.07-116.18 36.36-100.66 45.5-549.15 167.75-623.6 170.1-147.88 4.61-72.91-33.88-292-35.67l-437.6-28.8c-124.79-43.37-13.83-15.11-145.32-25.27-77.35-5.91-179.6-36.55-224.07-100.26-88.14-126.24-40.43-321.05 129.11-401.28 182.78-86.39 777.14-134.59 1081.43 41.23l19.94 10.89c3.09 1.65 28.56 14.48 30.74 15.53l494.53 231.17c47.71 23.47 66.46 23.57 83.02 86zm-7863.1-61.08c13.27-70.88 133.69-102.96 199.14-114.49 92.12-16.27 42.22-10.11 121.31-46.71l611.23-213.42c225.3-45.71 547.1-59.49 793.4-4.13 21.47 4.88-1.35-2.23 25.1 8.96 61.94 26.1 385.66 89.61 234.08 343.88-76.46 128.11-213.97 134.24-345.68 143.44-132.44 9.25-118.17 44.72-461.41 40.18-134.83-1.79-513.79.86-641.9-26.96-66.16-14.32-30.14-24.87-125.5-29.39-54.1-2.58-97.32-12.04-149.45-21.29-4.83-.84-63.41-12.34-64.76-12.73l-195.56-67.34zm10408.18-658.48c41.34-61.26 121.92-77.72 187.91-102.89 92.51-35.22 322.1-150.5 402.73-159.82 98.18-11.38 379.83-149.3 469.17-175.26l278.71-87.59c113.8-30.89 53.97-23.43 108.38-44.41l255.35-49.34c284.69-53.22 520.3-71.43 811.85-54.97l242.18 36.92c104.99 41.73 187.05-5.08 297.47 59.27 2.94 1.7 6.52 4.34 9.41 6.03l87.63 51.23c54.37 35.15 52.82 16.61 99.87 69.52 15.22 17.22 6.62 3.88 20.29 25.73 59 94.09 142.8 203.22 142.8 315.97-.05 153.74-20.14 217.11-88.93 346.27l-62.62 91.42c-27.09 38.89-69.48 55.65-109.32 74.6-217.05 103.36-321.44 100.97-481.85 143.79-175.28 46.75-97.44 30.34-313.74 51.63-192.38 18.85-623.45 1.74-828.57-39.54l-1118.87-366.26c-43.67-18.2-61.72-35.52-90.62-48.2-55.66-24.51-65.26-7.8-118.29-36.51-70.21-38-153.93-39.74-200.94-107.59zm-16161.25-381.12c1.55-115.4 11.73-138.17 82.97-241.87 68.63-100.08 88.07-103.05 156.95-134.74 42.78-19.65 41.29-29.25 91.48-46.25 3.73-1.25 8.15-1.99 11.88-3.24l22.88-7.7c3.48-1.3 7.21-3.34 10.7-4.63l58.14-18.16c74.45-18.2 145.03-58.43 220.63-69.37 281.31-40.75 474.25-83.61 771.72.24 47.99 13.52 66.14.59 118.78 20.78 73.11 28.11 16.85 25.47 118.96 35.87l1176.19 401.38c68.27 22.43 55.35 1.08 116.48 38.2 57.04 34.61 39.03 26.55 100.65 38.44 83.67 16.07 53.58 34.76 144.79 71.32 119.32 47.85 115.05 6.67 113.6 116.94-96.53 5.96-50.24 42.41-194.07 81.07-24.02 6.41-89.88 22.62-107.33 29.93-184.72 77.4-135.73 73.52-190.09 100.78-21.29 10.64-60.49 7.01-211.83 78.33l-597.25 196.62c-105.58 38.09-74.06-11.95-246.98 42.32-65.87 20.63-145.79 17.31-211.79 16.11-92.11-1.69-160.4 13.83-261.06 12.24-103.21-1.64-186.81-16.82-275.85-19.6-92.96-2.94-201.53 4.37-292.25-3.53-128.47-11.14-309.57-106.1-406.35-180.55-15.42-11.88-67.5-48.65-78.35-60.13-33.07-34.86-21.73-56.99-61.41-91.82-72.12-63.36-19.69 20.55-90.37-124.38-33.19-68.05-93.56-142.35-91.82-274.6zM21898.81 4190.79c118.37 1.65 88.32 21.3 167.71 79.34 46.56 34.02 100.77 64.51 146.72 99.77 65.65 50.48-4.42 16.16 104.95 79.82l507.41 430.98c78.69 74.45 279.93 242.61-18.6 184.87-224.31-43.36-392.18-111.21-593.41-256.14l-184.58-184.23c-18.65-29.49-5.16-19.19-20.19-41.02-33.37-48.9-201.04-208.2-110.01-393.39zm-12763.19 646.9c28.65-97.34 391.03-365.23 426.34-403.18l413.37-323.08c38.94-27.31 111.31-106.94 148.16-38.66 37.95 70.33-75.25 245.9-125.58 310.96-78.24 101.12-240.12 251.67-350.34 309.96-18.67 9.86-18.45 7.56-31.55 14.33-121.35 63.46-363.17 187.81-480.4 129.67zm649.72-1497.34c40.08.54 65.84 5.13 100.46-5.86l272.32-156.44c28.49-12.58 53.51-15.65 78.58-28.39 57.55-29.29 88.88-35.17 105.63-93.95-53.75-77.54-208.59-124.4-231.16-138.87-53.33-34.22-2.8-15.12-79.58-43.77l-284.45-147.67c-101.41-24.56-37.6-28.2-112.86-56.85-203.27-77.39-137.36-73.81-354.32 28.41-28.95 13.62-69.98 18.45-93.86 28.19-43.37 17.66-108.57 51.83-156.68 72.76-200.92 87.55-67.58 41.48-157.05 87.89-70.88 36.71-4.34-25.85-130.26 53.12-52.13 32.67-43.57 6.27-91.48 30.69l-130.21 53.18c-54.96 19.43-28.14 23.47-83.1 39.28-23.52 6.81-61.88 12.48-85.26 21.44-72.86 28.01-118.52 23.23-190.34 53.77-146.93 62.51-446.09 109.12-557.95 159.11 26.81 135.12 34.51 270.02 83.16 404.4l42.34 125.54c58.24 175.03 107.57 237.85 121.99 275.54l88.49 186.77c284.79 368.64 203.57 229.62 531.38-8.51l787.24-577.59c54.42-32.83 122.66-61.63 139.66-121.41-50.63-72.96-114.88-68.54-178.05-182.79 25.86-43.47 68.74-98.88 109.96-120.61l88.14-49.73c64.95.83 179.59-10.01 235.7 13.07l131.56 99.28zm11957.43-135.04c51.15 79.48 112.52 69.64 185.04 123.1 51.91 38.31 4.76 12.48 58.49 34.02 132 52.97 184.87 129.57 259.22 127.73 79.43-1.98 133.14-103.1 334.13-53.47 45.11 11.14 44.08 18.15 74.35 33.73 58.36 30.08 99.28 63.66 143.85 132.94-30.59 58.99-87.84 104.01-94.45 167.77l342.1 273.55c106.32 62.66 470.64 373.57 544.16 440.61 11.53 10.6 14.43 12.19 24.92 21.29l259.67 217.26c97.59-62.07 116.14-88.39 158.87-163.9l83.31-132.44c80.92-133.8 180.79-369.25 226.7-530.25 31.69-111.01 67.44-231.61 68.98-349.55-74.06-50.83-66.75-34.87-190.39-57.24-5.23-.95-48.45-8.26-52.57-9.45l-22.38-8.46c-106.44-42.27-141.71-27.15-207.21-56.05l-603.7-231.09c-43.03-21.57-41.19-39.67-67.74-55.25-36.87-21.63-35.96-6.62-84.51-23.87l-363.58-176.77c-86.84-35.11-212.37-124.74-292.74-103.3-223.63 59.63-44.47 42.22-249.29 103.3l-388.09 193.28c-37.36 13.38-91.18-.34-147.14 82.51zm1391.61-656.47c27.15-39.79 6.6-12.64 43.86-34.32l768.83-331.74c57.4-24.29 82.02-37.07 145.39-37.61 45.9 93.76 174.67 300.22 194.22 402.42 20.93 109.78 4.12-30.84 48.99 149.42l49.04 149.35c63.76 314.2 52.08 351-132.3 280.57l-545.86-226.7c-137.88-57.8-206.36-108.13-330.86-178.25l-194.31-114.15c-47.42-27.25-25.07-11.45-47-58.99zM7624.22 2912.47c-32.23-142.11 57.94-409.19 116.68-549.7 35.52-84.91 50.58-155.43 98.42-241.52l136.19-218.3c75.74 1.05 48.9 2.59 100.17 23.79 18.55 7.65 17.61 5.52 34.56 11.87l191.69 86.25c92.76 47.7 42.82 36.8 158.16 73.46 3.88 1.25 7.85 2.49 11.7 3.82 88.98 31.25 169.74 85.76 217.55 106.59l113.24 56.55c70.77 33.78 54.76-6.85 106.14 63.46-17.41 53.38-6.57 39.1-49.74 61.04l-31.77 13.68c-3.09 1.5-6.82 3.88-9.81 5.42-101.05 51.47-42.37 8.1-107.92 60.62l-553.63 272.47c-112.7 38.59-130.21 62.32-247.79 88.17l-93.45 44.28c-1.74.79-108.87 39.28-190.39 38.05zm12245.86-1037.81c195.83 3.68 345.13 90.86 467.59 120.86 52.16 12.78 119.96 15.71 167.75 33.76l654.55 227.05c24.07 7.72 43.91 7.21 75.24 17.66 75.41 25.07 2.89 21.63 143.8 57.1 39.63 9.94 79.27 36.36 220.08 73.82 45.16 12.02 92.66 58.53 287.63 114.19 40.73 11.63 42.37 21.98 72.12 35.9 19.8 9.2 15.76 4.98 34.01 12.39 137.67 55.75 194.88 57.2 218.75 138.37-58.78 76.25-4.67 5.57-111.55 72.32-16.92 10.53-20.31 13.52-39.55 21.62-38.75 16.38-45.11 11.16-85.95 36.38-46.39 28.63-40.38 33.31-89.08 48.72-83.36 26.37-91.45 42.34-161 83.82-54.65 32.58-117.43 49.48-179.2 80.81-115.94 58.7-205.55-7.11-268.03-42.81-8.91-5.08-30.03-11.94-44.46-17.41l-363.97-145.92c-11.54-5.18-44.33-16.58-55.71-21.64-127.47-56.86-97.24-30-184.53-62.97-63.66-24.07-120.35-65.8-184.33-78.28-94.89-18.42-528.95-124.89-570.22-187.76-16.46-25.12-6.47-12-19.84-41.34-73.57-160.75-61.33-216.3-34.83-363.97 13.44-74.66 18.66-145.82 50.73-212.67zM9811.79 2495.58c41.58-61.74 247.15-120.87 324.38-149.72l226.67-78.79c3.87-1.23 31.28-11.14 33.66-12.12l170.3-58.7c3.33-1.28 31.39-9.79 34.76-11.09l639.93-199.4c35.4-8.51 49.77-20.53 65.2-26.56 49.39-19.14 48.99-3.63 87.63-18.94 36.55-14.43 13.59-21.15 57.5-34.42l169.81-28.21c141.09-36.4 410.32-136.57 566.64-134.53 35.86 73.27 85.19 362.87 62.62 438.58-81.47 273.25-131 256-234.3 288.22l-976.55 321.16c-23.46 10.38-16.56 9.2-41.88 19.29-20.48 8.21-24.81 7.46-45.36 15.67-34.91 14.03-10.89 6.87-41.87 19.35-268.38 108.12-202.98 157.72-456.05 9.65-39.79-23.28-30.13-2.24-85.49-37.95-111.01-71.73-508.56-244.71-557.6-321.49zM24452 1984.83c36.16-35.32 220.88-118.14 258.19-124.2 168.85-27.6 126.12-48.3 192.28-67.29 55-15.78 42.67-1.99 109.41-27.75 60.69-23.43 146.24-20.75 305-76.31 140.45-49.14 175.06-42.57 332.93-63.01 37.6-4.92 64.07-19.64 97.19-24.82l350.7-44.82c90.92 1.5 149.7-13.67 246.25-11.92 86.99 1.52 174.17 2.43 261.21 3.43 296.93 3.42 436.25 90.31 660.91 251.06l196.85 202.73c24.38 32.82 28.94 63.02 43.47 94.05 18.91 40.09 105.45 72.67 31.29 283.91-23.33 66.53-35.61 134.53-60.24 203.86l-183.97 293.84c-1.99 2.4-5.17 5.73-7.26 8.12-73.47 84.95-318.27 263.54-391.28 283.44-38 10.35-67.19 23.84-103.01 34.32-63.51 18.51-157.02 22.19-220.09 38.8l-204.31 54.96c-40.03 13.88-181.43 24.47-231.48 27.1-156.72 8.32-324.58 22.74-478.17 38.54-71.17 7.32-374.72-34.61-490.16-35.45-103.8-.8-328.41-38-413.56-82.57 3.63-275.29 7.76-419.17-83.31-692.33-31.08-93.37-56.89-212.93-100.52-296.44-44.61-85.49-79.22-190.64-118.32-271.25zM7592.97 1778.96l-187.69 426.14c-13.08 38.49-38.91 72.96-46.46 107.94l-74.36 390.79c-10.99 58.23-10.74 264.45-25.12 285.62-36.99 54.56-692.23 82.72-776.18 91.33l-570.19-48.5c-62.02-10.4-217.99-30.39-264.11-46.16-137.77-47.15-165.61-14.43-266.39-59.03-78.28-34.71-31.62-14.72-121.11-33.68l-280.27-136.52c-104.63-98.08-56.94-38.49-116.08-84.16l-144.99-162.04c-60.42-106.59-30.68 1.35-92.95-152.14-3.04-7.51-21.04-38.1-27.25-49.34-99.63-180.7-129.68-438.99-9.01-610.98l183.87-200.53c63.02-59.09 209.1-139.51 286.75-172.79 235.16-100.96 480.15-132.99 730.92-71.02 46.31 11.43 97.78 5.57 148.32 7.16 182.83 5.77 359.7 56.45 536.21 84.46 74.36 11.78 34.67 20.73 121.65 33.12l676.98 190c63.81 23.72 28.99 30.39 167.57 64.25 73.21 17.91 29.88 11.3 72.76 35.32 3.02 1.69 6.87 3.88 9.99 5.42 57.65 28.24 38.25-18.05 70.33 38.74 17.96 31.89 7.26 35.72-3.19 66.6zm10841.32 599.28c37.24 57.5 29.68 79.73 71.81 112.01 178.61 136.72 126.68 44.31 322.49 80.27 43.88 8 132.51 39.84 148.63 67.59 22.72 38.9 14.42 131.96 4.02 176.48-38.8 165.12-110.31 326.12-250.88 428.08-178.95 129.77-44.4 65.35-192.97 113.3-191.74 61.92-173.29 90.21-462.91 24.86-115.23-26.01-59.68 11.35-162.49-54-137.82-87.7-278.93-152.1-379.54-343.19-41.53-78.99-89.12-105.1-101.21-295.98-16.46-260.67 301.5-673.29 506.67-818.92 46.86-33.28 24.56-4.43 69.43-37.75 96.8-71.87-2.09-24.08 171.5-104.21 133.74-61.72 142.53-62.92 294.43-87.08 115.25-18.31-70.12-11.68 185.87-27.16 48.5-2.94 44.36-10.79 93.1-13.98 37.41-2.38 66.95 1.79 100.63 8.02 52.97 9.74 65.9 4.91 114.1 10.13 77.84 8.51 26.35 14.03 80.22 28.01 36.35 9.4 58.09 1.25 97.09 11.68l167.26 64.57c39.74 9.35 63.41 4.83 95.2 13.37 42.72 11.55 14.23 14.28 76.2 32.04 78.82 22.57 103.01 3.43 188.16 44.21-9.06 91.27-65.52 266.94-77.94 324.79-35.52 165.32 34.96 304.04-56.15 317.07l-296.69-70.58c-49.65-11.28-82.01-4.73-123.15-16.51-192.08-54.97-107.32-7.31-243.21-36.16-90.47-19.2-130.92-33.97-232.62-18.71-43.33 6.52-82.82 5.37-121.17 15.77-61.52 16.61-33.56 18.6-85.88 51.98zm-6045.92-661.9c.59-46.55 10.84-37.45 47.24-46.4l739.24-175.28c260.92-15.77 264.75 25.91 367.31 36.9 70.83 7.63 323.99 87.4 381.74 128.67 143.39 102.37 72.15 23.58 302.25 221.34 92.51 79.52 201.63 229.82 258.32 339.85 104.16 202.38 175.77 399.93 50.98 623.25-62.9 112.71-125.68 204.37-227.39 280.37l-24.13 21.93c-80.32 72.22-59.32 47.3-124.84 74.31-143.93 59.44-208.04 97.63-377.94 94.76-75.31-1.3-115.44 7.04-184.53-17.52l-115.19-39.44c-83.9-29.44-33.57 7.31-105.29-49.14-210.49-165.42-326.92-324.18-323.24-610.37l57.95-18.4c124.18-44.82 92.7-12.88 186.21-57.99 121.2-58.49 6.86 35.86 228.89-123.1 47.44-33.93 93.76-71.34 99.87-131-60.08-42.78-139.56-59.15-207.5-71.19-120.47-21.34-123.05 4.98-225.66 31.35-108.38 27.84-231.68 22.77-357.01 54.9l-316.43 66.29c-113.39 29.31-47.59-100.12-44.46-173.83 3.54-81.11-28.94-158.75-40.15-233.6-18.89-125.15 23.89 16.46-32.21-166.17-.61-1.89-14.03-59.99-14.03-60.49zm11477.49 133.94c-57.45-24.07-8.41 5.37-43.93-48.24-9.5-14.32-27.6-40.54-37.8-54.21-87.63-117.93-243.11-216.17-304.08-280.17l-63.97-58.98c-37.49-22.79-69.04-41.99-103.16-66.41-17.86-12.73-38.79-31.38-52.27-40.03l-311.61-181.95c-19.79-7.9-13.22-2.09-33.76-12.54l-106.78-62.8c-16.97-6.97-53.18-14.67-73.32-19.55-104.59-25.22-22.77-37.8-117.48-52.48-155.02-24.01-47.89-26.56-283.2-73-121.51-23.94-49.83-31.05-130.46-39.74-30.64-3.34-54.56.78-88.83-4.49l-235.8-28.14c-69.49-22.49-74.6-19.06-151.5-19.9-85.99-.95-88.44 3.73-162.7 20.1-64.35 14.12-97.63 2.38-158.79 8.24-258.79 24.83-131.61 18.21-233.87 40.15-66.45 14.26-139.11 9.8-216.85 42.13l-264.55 86.59c-35.23 14.57-28.41 17.89-59.49 32.27-294.35 135.39-432.17 141.96-618.93 501.35 83.6 43.72 63.87 14.87 115.84 27.01 29.75 6.96 28.55 20.85 131.7 35.22l276.94 63.96c93.6 23.47 172.19 51.98 263.25 77.29 70.24 19.54 173.29 25.57 258.64 66.59 74.4 35.76 79.78 9.3 140.66 29.75 29.39 9.84 8.25 10.79 65.21 27.5l316.61 101.17c35.61 10.94 93.95 27.55 132.15 38.05 70.08 19.29 15.33 1.28 67.36 25.46 62.85 29.25 103.79 27.8 233.1 88.68l351.84 130.27c631.07 242.2 286.18 222.41 864.78-39 41.38-18.7 73.72-25.32 118.93-49.14l169.34-75.26c3.04-1.58 6.82-3.98 9.86-5.52l225.99-110.52c21.39-9.25 30.4-12.22 52.08-24.36 67.34-37.95 56.7-22.94 58.85-95.35zM11992.5 1433.24c39.35-59.1 101.42-45.46-41.78-217.16-115.37-138.41-8.09-64.76-124.28-136.71l-36.4-25.22c-2.94-1.79-7.17-3.63-10.16-5.33-2.99-1.74-7.21-3.48-10.25-5.22l-292.15-155.18-749.58-225.45c-250.77-14.23-513.63-30.2-769.34-9.76-70.12 5.63-27.25 8.16-69.57 22-41.73 13.66-97.1 14.72-145.89 21.47-77.99 10.89-37.29 21.63-142.44 40.64l-737.54 317.32c-271.57 167.16-230.35 164.14-429.33 322.2-112.67 89.42-177.31 215.16-239.35 237.05l-.94 76.78 715.91 334c33.44 17.05 21.99 16.16 53.87 38.59l153.99 77.49c17.41 9.45 14.47 5.67 30.88 15.46 23.97 14.33 30.45 24.53 52.97 39.4 71.38.93 141.7-2.14 197.5-30.74 134.95-69.08 264.6-91.46 406.96-158.31 102.1-47.95 309.81-98.54 342.29-115.79 130.11-69.08 260.08-71.77 406.85-127.38 37.05-14.07 54.1-19.34 93.89-28.15 3.38-.8 49.89-11.04 49.94-11.04l204.18-55.11c188.45-65.06 268.92-62.61 356.76-85.35l351.64-90.52c116.23-21.13 274.95-61.43 381.37-59.98zm-4184.46 48.69c-150.99-23.57-252.51-135.83-396.6-182.24-52.33-16.86-64.01-31.43-95.9-43.11-34.22-12.53-35.2-2.74-65.25-12.24l-228.93-80.38c-146.68-38.05-264.95-108.32-545.71-132.94-53.72-4.74-24.63 4.68-95.3-15.22-166.47-46.8-676.12 2.73-868.3 10.04-194.04 7.36-104.8-28.9-372.1 37.16l-271.86 94.65c-258.19 135.19-503.88 390.32-600.41 675.92-14.18 41.68-12.59 84.95-21.14 134.04-25.91 147.58 19.28 294.14 60.76 429.43l12.05 48.89c1.2 3.63 3.04 7.46 4.27 10.99l20.35 56.05c9.2 27.41 8.2 26.72 23.48 52.92 141.75 244.01 402.52 457.44 684.37 516.43l340.2 108.47c66.4 23.42 77 7.77 132.05 23.03 41.29 11.48 63.42 33.33 114.69 39.99 65.81 8.46 54.02-.1 119.22 20.43 56.01 17.66 77.15 11.95 133.45 21.59l543.18 62.53c133.09 2.18 471.85 29.19 581.77-11.04 81.07-29.61 203.42-9.91 294.94-8.71-1.79 115.3 62.92 331.59 109.27 439.53l281.47 529.74c47.5 72.81 104.73 158.52 171.09 212.52 47.3 38.56 90.03 89.98 127.73 133.4-48.25 101.27 1.48 31.69-82.13 102.56-31.92 27.06-61.47 62.12-93.1 91.17-14.77 13.58-37.5 30.54-49.69 42.42-12.28 11.94-29.69 34.07-43.77 48.54l-358.9 379.01c-37.55 40.48-35.67 64.94-77.59 107.18-100.36 101.12-243.65 289.67-327.47 411.17-112.05 162.58-238.53 319.51-334.08 497.82-24.62 45.95-2.94 14.67-34.66 57.9-82.28 112.14-124.25 240.76-202.93 352.18l-199.44 402.47c-12.54 33.33.74-.05-14.38 31.98-6.22 13.13-19.74 40.58-29.24 63.42-17.86 42.76-46.16 91.16-59.68 125.63l-249.09 678.51c-14.28 48.5-29.69 90.72-46.05 139.56-11.19 33.47-9.61 44.26-19.95 72.91-55.86 153.4-95.2 350.15-137.13 513.18-11.99 46.51-27.94 97.98-39.34 143.66-7.76 31.18.6 81.17-16.86 141.1-44.16 151-50.53 326.82-74.6 484.04-75.21 489.8-86.01 1267.64-15.33 1739.93 8.9 59.2-.25 112.97 9.61 172.75 42.17 257.83 74.31 524.47 134.24 779.22 44.45 188.8 85.64 395.82 150.85 581.08 24.87 70.83 74.94 252.51 108.92 304.64 17.51 26.96 144.73 462.96 213.13 550.49l28.04 59.93c.41 2.09.71 6.57 1.25 8.66.54 2.13 1.64 6.4 2.38 8.61l328.62 662.89c1.74 2.83 4.47 6.36 6.21 9.2 7.92 13.18 9 16.95 15.92 29.98 20.19 37.9 44.36 80.49 66.8 116.94l216.59 334.98c19.06 30.08 5.74 24.96 28.66 63.1l198.75 261.43c110.37 124.84 209.13 285.79 317.56 418.73l220.54 240.24c7.11 6.55 19.3 16.21 24.33 21.78l292.89 306.23c46.46 40.14 52.77 40.33 96.09 88.39 99.33 109.9 345.28 325.46 468.08 408.58 16.76 11.23 4.97-2.73 36.36 25.26l314.94 239.24c110.1 66.8 193.12 161.95 329.29 225.25 148.02 68.79 308.33 216.51 461.42 278.68 29.19 11.84 43.27 14.98 66.25 26.41 13.77 6.87 45.85 24.22 60.72 31.94l366.38 189.09c3.27 1.55 7.09 3.59 10.38 5.08 3.24 1.5 7.26 3.39 10.55 4.86l411.17 206.22c.49.19 60.59 30.29 61.67 30.93l131.56 53.82c132.85 38.54 179.55 75.65 271.91 99.18l555.77 186.76c141.55 33.88 297.81 69.38 432.51 124.69 74 30.45 77.28 16.42 147.96 37.9 112.01 34.06 236.8 47.06 332.89 85.2 3.53 1.38 7.21 3.39 10.75 4.77 4.51 1.79 18.69 5.88 23.13 7.77 56.49 24.61 39.08-5.23 43.91 63.41-41.38 19.19-152.29 23.17-215.41 28-91.97 7.06-136.77 31.42-215.22 43.86-32.28 5.13-75.8 9.05-107.13 14.57-84.19 14.84-111.3 32.53-215.61 43.37-45.9 4.79-63.9 19.9-104.4 32.99l-1673.43 493.09c-51.88 31.82-10.5 27.6-95.55 42.17-120.67 20.64-190.29-40.82-292.96-83.8-25.12-10.55-17.9-9.15-41.53-20.24-16.06-7.57-35.2-15.77-52.96-24.13l-116.28-53.66c-3.54-1.44-7.92-2.5-11.55-3.94l-416.85-170.3c-66.4-29.78-3.63-18.35-85.64-37.93-21.39-5.13-21.49-1.5-49.79-12.09l-1141.76-343.99c-3.73-1.2-7.56-2.89-11.19-4.22l-113.06-26.47c-94.25-11.38-117.56-36.94-215.56-47.88-186.15-20.75-415.3-59.49-600.27 9.05-130.65 48.38-226.3 42.56-388.99 130.1-27.11 14.62-65.11 33.03-89.82 47.9l-132 82.46c-92.92 51.58-220.09 171.99-281.82 271.27-18.64 29.9-26.81 53.47-40.62 82.81-46.51 98.52-97.25 344.28-54.22 453.35 4.47 11.38 21.83 37.41 22.13 38.24 29.29 75.07-1.79-10.33 4.63 48.35 22.77 209.09 368.25 491.2 553.81 591.07 17.76 9.61 31.25 13.14 42.98 18.81 29.54 14.16 16.9 9.79 48.99 29.05 63.61 38.24 45.21 16.36 75.26 23.82 31.03 7.75 45.11 27.35 90.96 40.73 30.84 9 74.85 14.22 100.32 23.72l103.15 36.01c248.58 46.46 762.27 77 994.39 62.33l187.76-24.23c230.14-20.78 547.5-61.87 763.77-135.64 38.49-13.12-.71-2.23 42.52-18.59l623.44-231.93c41.98-15.45 51.13-29.39 80.83-41.63 36.21-14.96 62.22-12.68 95.5-26.49l320.25-122.86c62.23-19.6 8.95-1.69 50.04-26.41 33.58-20.2-4.93-3.24 41.48-19.75 1.64-.54 39.59-12.83 46.85-15.26 77.69-25.72 37.05-16.83 103.11 6.35l158.5 73.77c2.24 2.13 5.08 5.76 7.46 7.9 2.3 2.1 5.27 5.52 7.77 7.52 28.49 22.68 57.34 27.31 83.21 40.39l253.45 147.41c80.97 63.97 127.04 34.32 134.2 127.12l-16.77 13.94c-55.65 35.76-163.83 63.61-226.7 78.74-61.97 14.87-66.55 13.62-127.17 40.63l-125.85 42.17c-85.89 33.18-167.01 42.53-255.45 80.28-66.43 28.39-124.82 29.74-197.65 61.78l-339.89 118.22c-22.24 7.55-18.25 4.07-36.57 9.25-3.97 1.15-8.2 1.84-12.12 3.03-3.88 1.19-7.87 2.44-11.65 3.68l-81.06 25.76c-41.14 12.64 8.3-3.33-33.04 12.79-11.63 4.53 6.43 1.24-32.82 13.02l-565.06 167.33c-126.98 25-259.67 94.4-393.86 109.51l-275.64 75.21c-91.77 7.36-76.1 17.4-140.22 27.36-90.23 14.01-199.98 26.69-288.17 62.31l-433.41 68.88c-56.64 3.49-97.34 16.71-149.96 32.88-128.96 39.49-317.76 6.08-451.21 50.63-102.46 34.17-219.48 17.07-323.54 26.02-82.75 7.12-28.29 30.43-137.38 30.28-207.94-.24-277.33 16.41-466.57 36.11l-133.6.51c-102.2 4.62-251.52 1.94-354.53-3.33-69.47-3.54-82.11-24.63-138.16-32.19l-897.64-141.84-192.89-69.99c-24.41-9.35-50.63-13.78-74.36-18.59l-128.17-42.03c-99.87-56.22-242.06-87.45-333.93-144.88-29.39-18.32 2.18-2.55-29.39-16.92l-402.44-199.55c-18.25-12.63-9.99-9.44-25.86-20.29l-76.24-62.16c-2.14-2.35-4.78-6.18-6.97-8.41-2.28-2.24-5.61-5.28-8-7.36-100.16-86.94-204.07-178.52-288.47-280.22l-197.62-323.24c-45.75-68.83-57.73-171.5-90.06-245.9-65.5-150.8-108.97-430.77-71.13-586.75 79.18-326.52 158.47-425.6 406.11-641.9l330.5-174.58c89.73-21.08 30.39-30.03 143.53-39.45 203.78-16.95 433.37-35.15 622.17 48.7 71.56 31.79 39.25 24.92 97.19 72.17 170.2 138.97 238.63 412.47 109.22 605.05-30.94 45.96-45.46 51.17-83.85 85.24l-44.48 47.76c-81.66 113.29-52.42 272.55 18.36 385.01 52.47 83.16 88.63 80.32 171.74 75.9 87.43-4.69 66.95 14.72 146.77-21.64 19.8-9 29.79-11.68 53.17-23.33l146.18-114.69c.39-.59 33.53-57.45 33.97-58.53 25.42-74.82 18.06-132.96 9.94-222.82-6.06-68.15-21.32-65.57-42.91-125.09-40.94-113.21 18.89-100.77-106.59-366.37l-376.85-436.74c-40.65-35.87.69-9.6-53.53-38.94-19.04-10.35-31.28-17.02-49.63-27.47l-259.18-96.43c-91.57-34.22-121.91-28.7-233.51-30.35-52.08-.74-117.24-8.44-161.45 5.64l-651.56 249.83c-68.04 36.6-247.39 207.64-296.63 271.55-32.43 42.14-7.56 22.68-32.68 59.94-63.56 94.45-35.61 14.12-141.55 212.72-1.74 3.09-3.58 7.12-5.17 10.25-73.81 141.5-137.92 358.29-156.07 509.36-15.28 126.97 3.68 249.87 43.71 364.17 14.72 41.88 12.64 15.56 25.37 66.29l87.14 248.84c7.75 16.22 21.93 44.87 30 61.77l175.77 298.97c2.67 3.63 10.79 13.59 13.66 17.05 103.01 128.08 210.29 233.47 333.95 342.05 141.74 124.49 333.04 229.49 505.57 296.29l313.89 118.86c42.92 16.38 26.17 15.28 61.32 31.29 74.06 33.81 189.25 58.98 271.22 84.76 76.25 24.02 184.17 67.83 257.54 82.75l134.68 35.72c65.55 21.83 78.04-8.37 155.92 30.04 56.81 27.95 214.13 46.45 284.3 56.8l957.3 71.02c193.77-30.44 456.09-1.04 655.97-27.26l642.8-40.82c103.31-.71 189.05-43.69 291.51-43.32l843.38-99.63c29.46-5.93 40.45-17.85 68.44-23.13l1167.24-203.17c66.53-7.26 70.12-25.37 129.65-38.15 48.75-10.5 86.94-16.02 139.22-28.4l209.69-49.44c47.2-13.88 26.01-12.33 65.36-26.32l374.72-129.11c168.65-34.42 340.45-112.35 505.13-166.57 37.85-12.48 36.65-10.54 71.85-19.65 138.09-35.81 655.98-243.71 699.52-248.97 44.5-5.42 57.48 7.7 91.51 26.79 87.94 49.4 194.51 78.84 292.9 109.14l151.75 49.33c419.33 134.73 940.67 142.55 1376.5 98.13l354.14-72.42c208.64-55.15 275.34-48.15 406.39-205.6 60.49-72.63 77.3-161.85 78.2-263.37.89-106.78-21.24-186.66-98.73-253.16-46.61-39.94-30.4-53.8-82.01-87.04-59.64-38.39-45.82-32.02-94.91-74.31l-221.97-132.64c-115.49-55.51-251.77-63.96-338.9-79.48-125.75-22.38-26.18-59.59-222.68-8.05-40.4 10.59-100.87 5.07-154.13 13.08l-410.04 108.47c-57.39 16.96-6.51 6.26-54.12 22.33l-396.39 122.46c-19.1 5.52-17.51 4.52-34.73 11.04l-174.32 39.03c-41.48 8.86-82.16 37.21-120.92 47.2l-291.95 89.49c-158.7 59.24-201.72 85.1-357.4-15.02l-320.56-203.38c-2.99-1.74-7.31-3.44-10.25-5.18l-221.23-118.27c2.95-88.97 47.5-78.03 105.34-110.81l227.9-76.49c4.32-1.94 16.86-7.46 21.15-9.4 53.41-24.18 54.46-35.27 118.46-49.69l471.62-154.28c4.17-1.15 8.69-1.15 12.88-2.39l567.93-179.96c46.37-11.92 106.84-38.49 160.02-53.7 61.92-17.76 114.69-24.28 173.57-39.74l286.94-79.24c.84-.24 42.17-11.23 48.09-12.88l260.22-59.88c81.57-8.36 26.82-17.66 93.96-28.06 186.66-28.75 625.09-69.48 783.5-67.93 186.12 1.79 497.52 67.54 582.92 69.28 178.36 3.58 434.99 93.36 595.6 162.99 43.02 18.64 49.33 7.75 80.88 27.45 29.39 18.3 21.78 26.22 60.07 47.59l198.35 125.35c115.39 73.45 273.01 208.89 331.44 329.3-55.29 82.22-117.58 140.91-159.14 225.86-5.22 10.79-18.71 40.03-25.73 51.44l-27.2 34.35c-1.94 2.54-5.13 5.78-7.02 8.36-11.38 15.43-.29-5.08-17.99 28.26-197.96 374.45-338.61 845.31-352.19 1273.36l-20.1 306.62c-6.01 333.09 38.05 770.78 173.34 1074.91l37.9 114.75c14.38 41.98 20.19 69.58 37.69 114.94 53.48 138.02 117.88 267.64 253.66 344.38 3.04 1.74 7.16 3.58 10.25 5.22 3.19 1.64 7.31 3.43 10.45 5.03 3.23 1.54 7.11 3.58 10.3 5.12 179.14 83.85 319.45 82.16 492.94-3.53 111.5-55.05 182.42-161.34 238.74-268.89l36.09-87.43c29.9-166.06 56.67-178 92.32-364.02 5.63-29.2 35.56-69.14 46.06-101.12 102.06-311.24 120.82-821.25 100.76-1141.71-5.06-81.22-33.52-184.57-44.31-275.24-21.78-182.03-88.53-399.04-151.41-565.46l-284.34-648.22c-105.64-207.44-131.79-198.56 129.62-366.16 195.32-125.24 505.08-286.34 734.57-335.77 80.81-17.41 14.67-.9 76.2-30.79 81.71-39.59 302.79-66.15 349.89-76.85 45.12-10.25 12.13-13.93 80.37-26.51 67.1-12.38 126.19-8.84 192.13-20.74 128.77-23.33 272.32-18.3 408.8-16.95 99.37.98 105.93 17.45 186.66 30.47l579.24 73.13c72.42 8.61 95.14-3.14 170.94 13.98 104.55 23.52 52.52 29.59 182.88 35.45 165.83 7.41 397.95 152.05 472.85 176.43 145.98 47.44 181.39 80.66 310.25 122.54l181.8 80.68c27.31 12.53 28.29 15.51 41.02 20.78l306.89 126.68c93.56 26.96 29.05-3.58 126.09 58.19 33.37 21.24 35.4 17.51 76.05 32.19l374.7 165.87c53.97 25.81 37.95 7.81 50.68 56.75-26.6 36.95-49.09 43.22-88.97 64.35l-335.38 154c-40.33 18.09-14.87 3.68-50.73 25.76l-164.73 80.07c-178.4 50.34-332.58-65.5-503.78-105.14l-497.77-139.85c-82.16-17.96-146.02-61.94-246.35-75.71-16.07-2.18-51.47-8.31-65.75-11.74-57.64-13.92-29.14-10.09-56.64-20.74-80.34-31.13-196.87-35.91-278.83-46.9-79.18-10.65-50.04-32.43-136.88-33.52-60.52-.75-276.54-10.15-319.8.3-47.05 11.34-6.32 10.99-54.07 22.28l-445.64 118.63c-200.2 126.12-169.56 135.88-260.52 293.08-88.68 153.4-53.53 156.63-37.71 366.23 79.93 6.85 31.48 11.44 100.07 69.38 31.18 26.35 66.4 58.34 99.33 85.25 2.43 2.03 5.96 4.97 8.46 6.91 408.99 311.75 677.02 215.1 1155.13 225.45 109.57 2.34 70.84-7.11 142.45-25.02 96.48-24.07 206.55-18.15 299.62-50.58 93.05-32.42 191.08-40.83 284.09-66.54l471.71-139.56c84.2-9.95 232.07 79.27 314.64 112.16l356.45 138.12c3.63 1.23 7.36 3.28 10.84 4.61 4.69 1.74 15.87 8.66 20.51 10.35 34.37 12.83 33.27 5.42 62.46 15.02 34.96 11.6 86.2 48.84 196.11 82.07l131.56 38.64c35.42 14.53-11.63-1.24 31.38 14.92l73.27 19.65c111.2 36.06 258.27 76.25 364.07 130.76 15.97 8.21 41.29 19.99 67.19 25.46l812 226.3c70.43 16.78 70.09 3.04 135.44 17.62 71.27 15.87 42.12 25.26 127.08 44.2 291.31 64.86 588.73 115.2 873.88 195.42 71.96 20.31 218.83 17.56 287.27 37.9 166.72 49.7 160.9 24.48 300.86 56.5 79.38 18.15 47.35 28.85 156.93 29.21 117.08.4 195.96 32.41 322.78 34.57 51.49.83 121.26 10.13 133.26 13.67 115.88 34.27 958.47 108.67 1047.9 109.82 107.78 1.35 249.33 11.34 352.98 4.32l492.94-39.03c119.71-40.4 257.85-32.19 378.05-63.47 38.84-10.1 24.53-16.72 69.53-22.04 85.3-10.04 54.67 10.69 143.85-23.58 132.89-51.08 281.16-80.22 415.84-118.12l753.22-301.15c222.72-95.4 318.52-89.93 562.14-310.45l119.15-111.23c2.2-2.28 5.23-5.66 7.46-7.95l245.12-308.97c81.32-105.44 66.7-155.92 121.35-233.47 62.37-88.53 111.01-265.83 124.89-370.28l36.01-243.31c11.98-90.98-22.14-391.54-48.79-480.47l-117.18-325.78c-12.34-20.29-23.53-36.7-36.41-55.49-69.03-101.02-160.75-163.19-249.93-241.93-75.55-66.75-75.85-49.88-138.16-77.74-20.46-9.05-25.78-21.83-42.04-34.91-19.29-15.58-41.88-25.17-58.98-33.58-154.74-76.25-110.91-42.77-223.73-85.4-70.16-26.55-110.71-24.31-193.26-39.18-120.82-21.78-219.19 2.28-332.4 4.62-106.13 2.18-317.52 69.23-413.16 120.81l-222.38 129.87c-33.91 19.63-10.55-5.93-56.2 35.75l-64.35 58.5c-107.14 97.98-241.83 258.67-285.4 392.17l-24.42 83.85c-36.35 85.46-38.8 254.56-26.17 364.68l49.75 133.5c44.41 70.07 85.4 149.65 174.72 178.4 26.32 8.46 252.31 28.9 314.24 5.32 26.21-13.03 18.9-19.79 35.7-41.28l35.52-41.39c69.03-84.44 45.85-242.52 15.02-312.39l-9.15-21.49c-1.5-3.33-2.73-7.7-4.32-10.94-40.75-82.06-138.33-64.41-172.39-211.24-25.73-110.41 12.73-202.31 88.58-275.73l58.98-48.4c15.23-13.18 1.45-.89 16.17-14.57 93.51-87.29 188.94-156.91 307.67-213.58 221.62-105.73 501.85-59.93 717.8 30.94l159.06 102.91c19.21 16.21 15.63 15.42 30.4 31.08l156.56 166.03c135.78 188.55 216.17 613.41 188.4 829.91-27.99 217.64-68.22 265.3-108.38 402.58-45.31 154.67-180.33 375.9-289.6 481.19-272.71 262.56-192.84 170.69-443.36 323.45-33.87 20.58-46.01 26.86-83.6 38.74l-177.73 82.27c-3.58 1.33-7.8 2.58-11.38 3.93l-393.02 157.01c-102.45 45.96-154.78 48.74-259.72 75.94-67.54 17.57-121.92 56.86-190.64 69.04-151.51 26.86-279.24 62.82-430.23 72.17-68.69 4.29-110.81 42.14-199.74 44.08-221.44 4.86-116.74 11.73-232.22 26.35-345.53 43.66-700.15-28.14-962.81-19.8-77.05 2.45-3.44-3.58-68.3-19.48l-226.99-22.84c-90.72-8.21-149.86-44.37-337.97-49.94-78.78-2.33-41.73-.84-102.25-21.74-97.98-33.81-332.6-35.75-444.15-55.59l-204.86-40.3c-74.06-12.12-123.05-39.18-214.38-49.09-49.68-5.37-90.37-47.49-296.27-72.61l-482.41-139.56c-98.82-39.79-196.36-17.81-282.51-73.16-70.48-45.36-118.66-39.94-197.95-65.55l-89.47-34.12c-29.09-7.02-88.28-12.78-117.28-22.3l-205.31-57.94c-86.45-20.14-22.39-14.36-81.93-41.52l-91.65-32.03c-56.35-26.42-163.8-36.36-202.73-60.44-84.12-52.11-282.41-117.37-384.97-140.7l-115.43-54.36c-3.19-1.49-6.87-3.78-10.1-5.27-91.77-42.17-271.62-82.16-469.07-180.16-34.67-17.15-7.91-3.37-45.56-16.31-51.27-17.6-48.4-14.16-80.58-58.04 29.6-91.36 158.57-96.83 271.22-160.2 47.54-26.76 91.06-50.04 137.57-76.85 56.15-32.32 244.95-138.12 290.26-139.1 50.04-1.1 243.77 97.88 312.75 118.66l550.44 207.07c183.82 75.29 388.59 111.99 577.7 180.48 110.51 40.04 233.41 86.99 347.41 101.46l343.62 89.98c234.62 99.63 917.51 43.42 1125.31-62.11l256.29-110.63c16.26-7.76 24.92-11.19 41.73-19.44 25.61-12.58 37.21-23.03 66.84-40.4 214.92-125.82 274.86-203.07 312.56-224.1 59.52-33.33 181.04-163.23 209.43-222.33 37.46-78.13-31.82-69.13 66.8-132.54 1.99-154.09 48.69-339.47-19.09-497.28l-41.24-83.85c-22.18-59.88-52.96-88.93-83.7-127.98l-144.74-132c-90.32-61.32-159.96-105.54-266.99-119.11l-144.28-41.53c-50.24-15.82-35.67-20.6-62.38-30.2-38.49-13.72-291.51-42.52-345.07-43.03-120.22-1.18-113.35-32.06-337.82-35-290.8-3.73-239.92 29.29-353.62 26.31-107.69-2.89-229.79 16.66-339.01 25.67-105.19 8.64-17.02 42.56-138.01 45.21-122.07 2.68-200.84 50.93-296.34 85.05-101.42 36.16-153.64 41.37-270.42 96.09l-565.06 229.62c-127.93 47.1-235.3 109.63-366.77 152.9-38.59 12.73-86.28 35.72-128.37 55.1-193.73 89.44-79.58 64.22-274.34-26.74l-134.44-66.21c-40.64-18.69-95.79-56.4-129.42-71.07l-143.49-57.45c-70.33-29.39-141.99-44.52-209.2-84.41-56.69-33.71-10.14-12.08-79.41-28.78-23.48-5.69-47.81-14.84-71.88-21-163.68-42.02-168.36-91.06-391.23-119.47-70.77-9-18.55-.39-68.69-24.11-27.06-12.84-55.56-18.06-80.73-27.47l-318.2-84.45c-66.41-11.94-115-7.26-180.26-21.58-75.04-16.46-74.7-34.52-164.07-37.41-70.87-2.28-105.75-15.76-184.72-17.25-74.36-1.4-94.16-2.19-138.33-62.43l585.46-226.99c15.96-7.12 51.23-19.16 68.38-23.23 116.99-28.05 246.95-54.96 353.84-103.85l475.97-165.44c42.83-12.61 26.02-8.19 64.41-27.3l138.97-44.21c50.34-22.62 24.97-20.09 56.25-35.62 47.35-23.42 30.99-2.62 76.1-15.31 45.46-12.73 17.25-16.51 58.14-33.73 86.14-36.2 89.47-23.42 190.59-84.64 60.59-36.76 217.2-79.53 310.86-132.41l185.17-90.21c63.22-17.46 676.58-360.2 774.51-419.44l438.53-297.22c194.71-160.76 418.43-314.69 598.03-491.55l314.03-300.46c2.4-2.04 6.03-4.88 8.42-6.92l52.02-55.66c19.9-22.13 29.3-26.4 48.39-43.71l224.12-237.1c51.07-71.07 36.99-43.17 90.27-94.1l250.62-303.24c23.87-37.76 1.94-19.6 33.09-59.49 12.17-15.48 31.08-28.75 45.7-46.51 104.49-126.17 203.47-301.84 304-435.39l564.84-914.86c57.45-81.12 73.72-163.84 123.96-246.49 78.87-129.92 92.41-230.65 132.69-315.24l205.87-536.06c15.82-56.81-4.34-18.4 23.33-69.54l103.69-342.19c.45-1.99 1.3-6.21 1.84-8.25.59-2.04 2.14-6.08 2.85-8.22 48.28-150.35 128.66-500.74 146.72-656.22 8.64-74.11-2.15-90.42 19.04-167.26 30.24-109.68 20.68-220.64 38.69-333.99 38.26-241.32 59.19-966.58 18.66-1239.1-16.51-110.41-7.77-240.02-23.28-341.33-16.8-109.29-23.42-215.76-42.53-322.6l-265.09-1182.64c-15.31-49.35-27.95-92.07-43.08-140.07l-138.26-411.32c-23.82-79.12-81.47-170.89-110.32-256.63-55.05-163.9-137.08-322.01-210.63-477.29-60.54-127.76-157.57-250.57-215.66-381.47-26.91-60.74-30.39-63.53-67.31-116.5-37.14-53.4-8.1-8.09-28.39-63.26-15.03-40.83-55.8-69.28-74.35-109.56-15.28-33.14-7.11-26.91-31.25-60.59-48.99-68.23-100.41-155.12-151.24-216.75-36.11-43.97-59.09-51.14-84.36-99.82l-242.31-310.02c-37.55-52.01-95.35-90.01-130.96-145.43-107.09-166.81-577.34-560.37-552.07-645.33 7.51-25.17 32.92-34.41 53.41-54.16 165.78-159.9 385.56-483.3 463.79-691.5l46.96-107.47c15.42-26.03 82.47-230.89 90.22-265.75 38.3-172.59-48.64-138.51 222.48-114.35 52.72 4.69 116.08-.09 169.84 1.45 123.51 3.43 112.06 58.19 328.08 26.15 79.12-11.73 78.38 16.47 149.64.25 146.97-33.42 374.13 3.09 497.33-35.8l152.39-30.34c55.25-7.92 101.27 1.59 154.48-12.73 75.61-20.44 204.37-68.05 287.63-78.38 142.65-17.62 187.67-52.99 282.02-68.64 29.53-4.93 54.11-2.15 79.17-12.19 34.92-14.03 12.94-19.06 57.84-33.98l131.66-51.76c50.88-16.63 74.6-37.46 117.97-65.72l248.9-211.68c66.58-58.68 97.57-145.48 132.39-222.16 21.23-46.86 14.92-20.95 33.81-58.7 18.81-37.44 24.73-94.4 42.54-143.19 59.29-163.14 39.84-389.84-30.44-550.79l-210.39-325.88c-59.14-87.82-279.47-232.07-368.05-278.56-129.97-68.29-282.51-120.62-428.79-128.37-33.33-1.75-55.21-1.1-89.27-4.78-194.68-21-826.88-77.5-994.49-16.22-64.51 23.62-222.93 22.13-326.48 49.58-18.85 5.03 6.57 1-26.55 4.09-62.87 5.82-68.98 16.02-125.45 30.13-70.48 17.71-141.6 22.59-219.34 55.07-41.82 17.45-14.57 13.67-65.55 26.16-70.38 17.21-70.87 19.05-137.67 45.55l-326.91 131.51c-67.15 25.22-121.92 70.63-198.61 76.45-55.76-113.85-151.65-220.89-215.95-320.51-51.14-79.33-122.07-127.32-186.61-197.36-2.21-2.33-5.03-5.86-7.12-8.24l-184.47-169.17c-42.32-33.32-78.34-69.38-117.48-97.93l-61.18-46.54c-2.68-1.91-6.26-4.59-9.06-6.38l-268.13-148.36c-108.67-50.39-170.3-110.22-369.84-170.55l-333.98-99.42c-126.38-26.82-274.7-30.59-404.06-43.97-114.95-11.94-230.44 2.19-345.28 0-99.27-1.89-452.16 55.65-552.82 86.55l-240.63 79.92c-50.58 21.44-2.33 17.6-70.53 36.56-90.42 25.07-59.48 30.64-165.22 64-125.23 39.5-399.39 259.38-515.38 342.88-89.03 64.13-184.58 173.15-243.9 263.47-1.84 2.73-4.34 6.47-6.18 9.2l-49.53 73.71c-41.48 65.6-36.16 79.88-94.81 136.23-40.82-6.42-45.7-17.46-89.02-26.66l-320.85-51.72c-153.23-7.51-263.01-59.24-409.39-86.55-318.62-59.34-271.01-10.74-434.9-1.39-235.45 13.44-441.42 115.69-641.01 229.44-49.33 28.09-87.43 79.73-131.44 114.24-16.48 12.93-20.8 17.96-33.24 28.1l-295.58 381.68-92.02 217.01c-52.87 135.29-108.07 331.54-79.78 482.19 58.34 310.87 197.41 591.88 499.07 727.21 35.5 15.96 35.82 26.41 83.36 40.14l74.01 18.94c148.91 55.91 214.71 38.49 356.72 32.24 78.28-3.49 38 1.64 102.79-19.11 190.7-61.07 328.57 59.24 571.63-160.54 86.3-78.04 107.04-100.17 165.27-204.13 50.24-89.71 76.3-179.15 87.85-284.24 7.65-70.68-28.9-150.51-36.36-207.86l45.16-47.25 406.35 160.85c403.91 153.2 223.81 106.1 367.56 203.13 32.87 22.29 23.57 6.72 68.22 39.74 22.59 16.71 47.1 36.11 70.99 52.23 152.59 103 334.88 113.16 416.14 155.72l166.47 65.4c13.39 7.22 37.41 16.56 42.53 19.26l324.29 199.84c13.42 6.86 61.32 23.72 77.23 30.93l480.67 335.69c26.25 58.53-115.3 221.47 54.26 629.61 29.59 71.12 19.55 14.81 55.54 67.24l97.39 117.53c161.1 162.15 358.36 288.98 572.08 368l141.99 43.62c53.62 17.41 5.28 18.91 80.39 27.91l310.1 30.93c49.14 3.98 123.64-19.1 196.21-8.46 93.12 13.64 282.6 265.65 336.52 339.57l184.97 244.55c13.15 20.59 29.46 43.11 43.93 63.42 33.96 47.74 39.04 89.81 81.77 132.64 42.61 42.83 38.24 54.51 68.23 100.41 47.34 72.67 108.42 147.19 144.14 223.58 1.5 3.19 3.43 7.16 4.93 10.35l76.49 153.03c10.94 16.07 8.61 9.94 18.45 27.5 16.46 29.1-.2 10.2 20.14 41.09 10.65 16.31 19.3 19.7 28.55 32.87 27.21 39.1 2.48 2.9 19.8 41.39 1.54 3.33 2.68 7.75 4.22 11.04l22.94 38.29c17.71 31.6-5.77-13.42 10.54 20.05 32.43 66.35 67.54 178.66 106.13 230.32 39.15 52.43 76.44 151.26 102.42 218.7 60.52 156.68 149.45 316.04 199.05 473.49 8.64 27.32 15.9 54.58 26.5 80.34l218.6 651.6c38.19 113 24.47 132.99 71.26 264.36l65.06 270.26c23.62 185.76 27.57 101.01 43.88 169.55 8.1 33.58-1 69.19 2.93 103.35 4.97 43.73 18.59 47.56 27.3 94.81 9.2 50.34 26.91 138.01 29.19 183.87 1.99 41.92-4.91 61.03 5.42 100.92 89.84 349.15 103.21 1035.87 83.72 1360.06-4.43 72.51-18 113.09-18.31 199.24-.45 136.52-22.92 259.47-45.46 389.24l-139.46 759.97c-17.3 62.19-16.61 17.57-29.2 78.99l-26.15 97.74c-14.57 44.01-2.89 55.71-10.3 98.42-12.54 72.61-64.21 172.24-83.16 257.14-19.55 87.38-27.51 81.17-59.74 156.68-38.44 89.82-45.06 166.42-79.78 260.67l-218.89 507.07c-.84 1.63-20.14 30.99-23.97 37.69-31.08 54.31-33.46 105.55-64.51 151.8-33.03 49.24-17.65 7.92-41.27 66.55l-421.03 735.61c-13.43 23.33-12.24 25.02-20.98 40.79-48.55 87.33-129.13 171.14-186.22 260.31-86.75 135.54-191.3 258-290.02 387.4l-841.55 926.81c-66.5 61.77-175.47 147.66-231.97 213.37l-37.95 38.84c-2.34 2.18-5.52 5.42-7.81 7.56-2.35 2.13-5.57 5.37-7.96 7.45l-542.72 408.21c-2.75 1.79-6.28 4.56-9.01 6.35l-151.94 108.68c-45.61 44.82-75.46 53.08-128.38 86.2l-828.72 488.4c-16.15 9.47-54.15 31.89-68.38 38.76-19.74 9.54-65.15 24.02-88.33 33.88-47.79 20.28-23.43 10.67-65.5 41.82-39.74 29.44-32.19 23.97-70.73 36.36-71.87 22.92-96.8 27.4-157.07 72.32-46.86 34.86-91.97 36.7-150.36 63.71-30.14 13.91-31.57 22.92-70.57 36.5l-302.9 140.61c-130.31 62.32-301.2 100.61-411.88 153.28-29.49 14.08-54.15 17.02-83.61 23.18-82.96 17.52-15.36 2.8-76.04 30.94-81.28 37.85-169.05 45.8-262.1 73.42-53.87 15.95-22.84 14.82-76.15 30.84-25.53 7.6-68.1 11.48-89.04 17.59-41.83 12.14-22.58 17.07-89.77 32.43-59.59 13.69-125.09 15.23-179.01 34.27-81.32 28.7-121.65 17.51-195.61 32.73-86.94 17.9 29.59 15.47-78.94 28.01-22.97 2.67-81.21-1.3-107.82-1.74-217.8-3.83-434.01-.61-645.69 22.32-77.04 8.36-27.16 11.85-81.47 25.37-16.91 4.22-71.07 8.95-94.35 12.09l-136.53 31.13c-16.95 5.03-32.43 5.72-50.87 9.99-144.94 33.43-266.59 94.61-400.24 149.76l-111.71 41.04c-38.64 24.51 6.13 4.03-38.69 22.53l-186.81 88.48c-2.89 1.69-6.28 4.58-9.05 6.28l-227.11 156.12c-24.22 13.47-38.4 30.32-57.8 49.68l-119.25 111.05c-44.92-14.52-356.67-298.75-449.69-353.23l-468.31-226.4-395.86-114.98c-42.72-5.87-144.13-12.39-180.14-21.69l-158.47-42.83c-133.24-15.11-249.23-13.91-383.27-21.03-85.95-4.58-72.02-33.07-167.57-34.92-98.91-1.94-83.31 20.01-182.78-2.49-34.96-7.85-43.47-9.05-79.53-14.03-80.17-11.08-28.9-4.12-83.46-24.9-72.37-27.57-176.36-27.01-248.63-45.97l-237.84-71.71c-191-56.3-134.09-21.14-304.09-98.14l-261.07-94.6c-126.14-36.01-248.18-109.86-322.44-140.91-46.71-19.53-100.43-24.61-150.77-50.32l-651.19-306.08c-24.73-11.8-13.23-7.36-40.85-20.9l-198.78-94.49c-7.97-3.83-22.29-11.54-30.59-15.73l-406-256.68c-63.97-28.01-68.84-51.34-116.74-83.45-27.6-18.52-27.26-8.42-63.42-29.26l-64.96-42.91c-47.59-20.46-7.8 13.76-61.92-30.69l-309.61-198.9c-2.33-2.19-5.12-5.77-7.41-8.02-65.1-64.8-145.42-108.92-215.11-169.59-87.49-76.15-164.83-169.91-262.15-230.09-58.21-36.01-6.08 9.35-62.63-45.16-37.41-36.11-72.32-74.06-108.28-106.88-91.82-83.95-113.34-108.53-196.75-202.68l-104.45-95.4c-144.05-158.7-293.5-310.65-425.55-480.41l-314.74-406.2c-32.33-45.16 18.15 29.79-12.59-18.1l-656.81-1104.51c-15.43-30.69-15.72-26.15-32.14-59.69l-224.41-479.1c-17.56-40.25-4.88-33.73-18.94-72.52-5.93-16.36-25.73-44.37-35.87-71.23-17.76-47.05-33.03-97.83-50.38-148.07l-99.38-297.57c-16.36-50.34-28.65-98.38-46-152.4l-113.8-389.68c-10.5-60.18 2.53-26.76-18.66-87.99-17.45-50.74-6.26-27.41-13.43-77.89-6.11-43.01-12.53-41.58-25.11-81.67-33.08-105.44-30.69-226.45-62.07-333.98-21.39-73.61-.79-122.06-18.5-179.05-11.7-37.75-10.89-3.39-23.03-68.64-18.5-100.31.24-178.35-28.41-275.64-45.9-155.92-39.64-994.44-28.95-1170.7 3.68-62.43 13.94-111.42 17.86-184.03l42.78-360.89c10.24-50.04 19.8-139.96 25.47-191.84 12.43-112.84 45.36-231.13 63.12-340.1l89.51-406.3c40.44-169.31 93.71-403.52 167.72-559.74l34.91-104.3c57.75-148.02 107.19-335.52 186.57-477.93 22.78-40.82 12.93-31.08 26.37-66.43l198.34-419.1c48.69-87.38 81.62-186.21 140.36-260.77l514.02-811.45 449.18-550.94c9.05-9.64 14.27-16.16 21.58-24.51l72.67-81.17c7.41-10.7 11.25-20.75 18.05-28.21 16.27-17.76 9.25-8 25.98-19.99 62.9-45.02 117.31-97.08 154.33-168.56 192.42 2.54 284.24-.94 465.93-35.57l130.11-37.69c98.57-19.74 389.54-135.14 472.11-216.02 37.74-36.94 53.95-44.21 93.79-74.99 3.58-2.75 13.83-10.55 17.17-13.47 117.58-102.37 136.47-122.91 236.95-255.11 142.43-187.37 73.55-475.05 74.9-561.48l645.84-411.37c85.1-48.15 164.51-78.35 245.24-121.92 42.93-23.16 57.11-35.65 108.28-60.17 20.59-9.8 33.27-19.65 60.18-31.58l287.14-125.74c45.36-23.14 99.58-28.1 154.53-59.34l375.56-174.97c59.88-26.01 64.51-25.81 125.03-42.93 68.54-19.23 63.57-38.74 130.92-52.42 10.09-2.09 54.42-9.15 64.26-11.98l177.21-68.49c69.23-27.65 93.61-19.99 82.65 69.43l-1.18 155.58c11.14 227.85 194.27 421.28 379.94 524.88 138.07 77.08 644.84 121.8 801.7 96.53l370.99-148.61c11.24-6.72 19.06-9.7 29.2-16.71 168.7-117.88 293.64-333.99 331.25-531.94 37.26-196.31 15.52-348.06-34.81-540.19-28.06-106.93-86.55-206.66-134-309.32-34.66-75.04-87.74-154.38-150.25-217.74-47.35-48.01-123.35-146.87-168.76-184.43-76.24-63.02-169.75-131.66-259.44-171.94l-61.87-30.79c-22.18-10.5-50.17-16.07-70.02-22.82-62.13-21.19-66.6-42.09-195.61-82.42-88.14-27.55-216.56-30.2-313.1-44.82-116.23-17.64-366.57 39.15-475.98 64.91-100.07 23.53-201.83 36.75-305.18 44.87-124.74 9.79-193.73 43.47-323.35 41.78-95.04-149.57-269.92-455.24-425.55-541.05l-325.12-214.16c-21.95-15.07-13.04-11.88-24.77-21.39l-184.33-93.45c-12.64-6.62-52.48-37.06-65.11-42.68-28.55-12.73-126.43-52.42-154.92-61.47-166.23-52.53-333.8-110.27-505.84-132.01l-69.42-19.6c-114.69-24.11-423.02-36.6-531.29-21.52-124.74 17.35-500.46 68.33-609.53 105.39l-666.08 297.18c-90.53 59.63-175.56 99.72-253.3 175.92l-172.19 150.2c-56.96 64.06-107.19 91.07-160.7 162.04-39.4 52.27-63.81 68.19-102.62 112.66-64.4 74-111.64 200.43-195.71 250.67z" fill="#d7b56d"/></svg>