<svg xmlns="http://www.w3.org/2000/svg" width="16" height="20"><path fill="#939393" paint-order="stroke fill markers" fill-rule="evenodd" d="M8.496 1.993C4.916 1.993 2 4.925 2 8.526a6.469 6.469 0 0 0 .16 1.445c.098.441.244.875.435 1.289.7 1.657 2.239 4.203 5.616 6.93a.459.459 0 0 0 .577 0c3.374-2.727 4.917-5.273 5.617-6.93a6.382 6.382 0 0 0 .479-1.507c.075-.403.116-.817.116-1.227-.007-3.601-2.922-6.533-6.504-6.533zm5.477 7.6c0 .006-.003.013-.003.02a7.61 7.61 0 0 1-.03.147v.006a5.49 5.49 0 0 1-.378 1.115c-.003.003-.003.01-.006.013-.636 1.514-2.029 3.824-5.06 6.342-3.03-2.518-4.423-4.828-5.059-6.342-.003-.003-.003-.01-.007-.013a5.819 5.819 0 0 1-.377-1.115V9.76c-.02-.079-.027-.13-.03-.147 0-.007-.004-.014-.004-.024a5.61 5.61 0 0 1-.102-1.066c0-3.093 2.504-5.611 5.58-5.611 3.074 0 5.578 2.518 5.578 5.61 0 .363-.034.722-.102 1.07zM8.496 4.448c-2.273 0-4.124 1.863-4.124 4.149s1.851 4.149 4.124 4.149c2.273 0 4.125-1.863 4.125-4.15 0-2.285-1.852-4.148-4.125-4.148zm0 7.375c-1.77 0-3.207-1.449-3.207-3.226s1.44-3.226 3.207-3.226 3.208 1.45 3.208 3.226c0 1.777-1.438 3.226-3.208 3.226z"/></svg>