<svg xmlns="http://www.w3.org/2000/svg" width="20" height="13"><path fill="#939393" paint-order="stroke fill markers" fill-rule="evenodd" d="M17.99 2.842A.832.832 0 0 0 17.17 2h-.001l-14.35.02a.804.804 0 0 0-.58.248.85.85 0 0 0-.239.596l.011 8.294a.85.85 0 0 0 .241.596c.155.159.36.246.579.246h.001l14.35-.02a.833.833 0 0 0 .818-.844l-.01-8.294zm-1.72.002L10 7.326 3.72 2.862l12.548-.018zm-3.618 5.328l3.718 2.966-12.75.018 3.741-2.984a.43.43 0 0 0 .073-.591.403.403 0 0 0-.575-.075L2.83 10.72l-.01-7.472 6.95 4.938a.402.402 0 0 0 .466 0l6.935-4.96.01 7.492-4.026-3.212a.402.402 0 0 0-.575.075.43.43 0 0 0 .073.591z"/></svg>