<svg xmlns="http://www.w3.org/2000/svg" width="10" height="20"><path fill="#FFF" paint-order="stroke fill markers" fill-rule="evenodd" d="M4.288 17.82c-.378-.377-.746-.933-1.072-1.637-.715-1.543-1.15-3.617-1.228-5.841-.077-2.224.213-4.328.819-5.924.55-1.45 1.31-2.333 2.034-2.361.104-.004.213-.012.325-.02.677-.045 1.44-.094 1.937.438.34.369.479.947.425 1.767-.16 2.422-1.054 2.45-2.09 2.482l-.182.006c-.17.007-.719.28-.606 3.506.036 1.053.125 1.885.262 2.472.087.37.277.989.586.977l.186-.009c1.033-.049 1.925-.09 2.252 2.31.111.813.013 1.4-.3 1.796-.456.572-1.225.581-1.903.59-.112.001-.221.002-.325.006-.36.015-.745-.183-1.12-.558zM6.784 2.766c-.365-.364-1.016-.32-1.592-.282-.115.008-.228.016-.335.02-.54.021-1.193.839-1.665 2.084-.583 1.538-.863 3.576-.788 5.738.076 2.16.496 4.17 1.185 5.658.557 1.205 1.266 1.968 1.804 1.946.108-.004.22-.005.336-.006.59-.008 1.259-.015 1.59-.433.228-.288.298-.772.207-1.44-.273-2.001-.856-1.974-1.823-1.928l-.189.009c-.459.018-.797-.424-1.005-1.315-.144-.618-.237-1.482-.274-2.565-.094-2.676.226-3.938 1.006-3.97l.187-.006c.968-.03 1.552-.048 1.685-2.066.044-.674-.059-1.151-.306-1.42a1.55 1.55 0 0 0-.023-.024z"/></svg>