<svg xmlns="http://www.w3.org/2000/svg" width="320mm" height="150mm" viewBox="0 0 32000 15000" shape-rendering="geometricPrecision" text-rendering="geometricPrecision" image-rendering="optimizeQuality" fill-rule="evenodd" clip-rule="evenodd"><path d="M12097.91 14255.72l12962.93-6503.61v73.54c-3.23 73.48-17.45 145.77-54.34 203.32l-22.37 45.62c-25.5 56.24-66.64 97.99-109.21 140.94-40.24 40.67-64.83 57.78-115.44 87.41-92.68 54.22-209.35 76.83-316.83 79.22 23.25 56.21-38.2 169.14-45.1 236.56-2.68 26.72 2.56.21-3.59 24.86-10.52 42.24-25.17 102.21-47.52 135.04l-673.7 881.57c-17.37 22.2-17.95 32.1-33.62 53.32l-46.83 49.79c-12.85 17.31-18.12 33.04-32.78 54.17l-197.25 256.72c-7.81 10.2-13.58 17.25-21.56 26.75l-51.75 64.16c-1.19 1.63-2.94 3.87-4.14 5.53l-39.74 56.85c-1.22 1.6-2.97 3.84-4.19 5.45l-82.81 120.04c-1.25 1.6-3.15 3.73-4.4 5.33-1.22 1.58-3.15 3.67-4.37 5.28-8.83 11.18-12.59 16.84-20.51 27.73-15.13 20.81-19.7 26.29-35.38 51.61l-41.87 54.74c-10.13 12.97 3.12-6.49-12.06 16.9-1.16 1.75-2.5 4.26-3.64 6.03l-59.12 85.75c-18.06 22.03-20.1 23.81-36.36 50.61l-35.17 61.48c-23.19 55.13-56.64 91.81-71.85 129.43-.47 1.13-1.31 3.81-1.81 4.98l-4.66 10.43c-.73 1.49-2.15 4.05-2.94 5.6-11.02 21.44-18.27 37.03-30.1 57.34l-79.22 155.06c-33.89 82.43-89.74 156.7-128.99 235.92-12.21 24.62-13.9 25.58-10.4 63.58 2.82 30.68-1.26-1.31 6.15 30.59l6.52 28.64c13.14 47.67 31 86.48 25.76 135.64-9.91 93.35-4.11 78.29-90.97 93.61-12.67 2.22-19.69 3.61-37.93 10.29l-80.19 15.93c-53.17-7.83-65.29-19.98-67.65 87.18 32.08 15.39 59.38 22.84 93.56 41.67l121.64 91.72c.7.64 2.62 2.53 3.35 3.18l96.18 108.5c17.98 26.43 71.74 99.56 89.92 152.09l39.65 105.19-107.69 143.44c-64.1 81.52-15.03 51.54-91.46 92.68l-201.07 73.22c-1.28.27-4.19.7-5.56.96-8.31 1.46-34.03 6.94-36.51 7.43l-199.36 3.59c-1.86-.06-4.77-.09-6.49-.23-54.72-4.17-101.72-21.36-153.47-36.6-80.73-23.75-143.73-78.29-218.38-104.83-43.5-15.45-46.18-20.08-97.4-28.18l-225.63-45.95c-40.62-7.66-89.02-4.05-126.25-19.67l-536.73-104.54c-6.88-1.16-11.69-.52-13.38-.49l-9.32.84c-1.14 0-4.08.15-5.3.09-31.97-1.52-41.7-14.48-76.49-20.83-11.04-2.01-11.97.2-14.3.32-60.23 2.5-216.93-24.71-273.42-38.73-19.76-4.89 9.15 1.31-19.9-6.03l-199.56-22.78c10.66 26.51.87 8.53 26.02 22.29l13.52 5.8c2.1.93 4.75 1.86 6.88 2.79l72.23 43.68c1.8 1.11 4.28 2.45 6.14 3.52 1.84 1.11 4.43 2.33 6.27 3.41l83.56 52.33c1.31.99 3.61 3 4.87 4.08l82.45 72.09c1.49 1.37 3.7 3.14 5.19 4.51l41.96 54.66c1.1 1.69 2.82 3.97 3.96 5.66l26.92 40.73c.91 2.13 1.9 4.72 2.77 6.9 3.53 9.09 6 20.22 8.86 29.75 9.18 30.1 11.94 31.53 18.7 68.24 11.78 63.66 6.33 103.67-7.72 156.12-8.13 30.36-6.12 41.52-18.56 68.5-9.93 21.62 2.51-4.11-10.52 19.02-1.39 2.51-5.62 9.91-6.99 12.24-6.09 10.02-5.01 9.24-13.34 19.38l-65.88 75.69c-1.05 1.02-3.06 3.21-4.23 4.29l-201.48 114.62c-53.32 23.78-185.13 62.12-255.96 66.58l-29.14.52c-73.8 11.74-116.11 8.68-211.85 8.66-144.9-.03-242.01-27.68-286.01-29-51.63-1.54-152.41-25.9-214.82-45.33-25.62-7.99-31.71-15.94-55.74-23.46-18.65-5.83-21.04.91-44.17-14.77l-20.34-13.84c-24.59-10.05 12.5 4.37-22.44-5.45-19.78-5.56-42.16-15.12-61.07-23.19-2.18-.9-4.75-1.9-6.84-2.86-2.1-.93-4.58-2.09-6.62-3.09l-255.53-188.68c-1.25-1.64-2.88-3.94-4.14-5.57l-56.99-78.35c-15.56-31.12-31.41-89.27-40.44-133.53-10.02-49.01-2.21-105.27 10.43-149.94l51.46-104.13c28.35-48.49 58.91-82.93 92.33-100.82l42.43-24.09c1.69-1.2 4.05-2.8 5.71-4.02l106.2-59.71c1.22-.43 3.93-1.13 5.16-1.57l21.99-8.83c30.25-12.44 4-3.35 29.67-10.43 1.31-.38 4.13-.96 5.39-1.28 1.13-.32 3.93-.93 5.07-1.22 1.07-.3 3.78-1 4.83-1.29l54.43-20.3c35.37-10.38 97.43-17.84 137.79-27.22-2.1-1.34-5.28-2.3-6.88-2.8l-40.21-8.07c-103.26-13.75-125.05-5.56-256.34-23.8l-299.56-28.9c-66.11-9.79-136.09.34-202.85-9.65l-613.82-43.03c-70.89-.12-141.9.32-212.79.32l-1.31 935.23c-5.5 44.61-3.55-4.05 10.93 50.14-53.5 11.34-170.25-5.97-202.85 9.65l1385.45 121.47c66.32 11.24 128.17 8.04 193.53 18.99l1096.67 168.71c64.86 10.89 115.47 17.27 179.43 33.53l166.05 27.13c12.99 2.13 24.1 7.2 43.82 10.87l116.96 30.79c38.31 7.64 56.58 7.55 92.97 13.61 52.45 8.74 5.36-2.3 42.69 14.02l23.51 4.8c1.05.12 3.76.32 4.92.47l144.35 26.72c63.92 7.46 76.98 26.4 156.2 37.09l363.42 90.24c48.86 19.6 84.5 10.81 142.19 30.47 113.49 38.67 294.95 68.44 388.01 114.71l62.76 43.51 149.39 241.98c.17.93.84 3.58 1.05 4.48.17.85.78 3.47.96 4.32l6.82 42.56c.23 1.2.99 3.91 1.19 5.19 8.07 49.88 4.92 97.05-8.48 142.57-19.87 67.45-27.94 78.64-84.52 112.17-.59.35-2.86 1.28-3.5 1.55l-74.74 41.6c-17.27 15.3-12.87 3.88-22.17 26.87-21.04-5.6-10.28-2.1-25.09-13.52l-13.54-15.44c-5.28 22.58.29 14.24-13.58 29.86-20.6 23.28-87.03 27.22-98.51 30.1l-333.59-14.02c-18.85-4.98-5.65-.32-28.09-7.92-78.52-26.69-191.72-45.66-276.74-61.27l-408.58-78.35c-27.13-6.59 8.24 5.1-16.73-4.49-71.03-27.33 4.81 6.88-75.32-10.61-1.54-.32-4.37-1.02-5.94-1.31-1.57-.32-4.37-.78-5.97-1.05-1.61-.29-4.4-.61-6-.87l-343.21-54.19c-108.3-14.08-189.47-37.1-308.38-49.68-108.56-11.54-197.84-43.97-320.45-46.59-73.51-1.58-227.7-32.37-312.98-44.47-110.05-15.61-213.14-13.72-321.82-35.57l-494.97-45.95c-41.93-2.3-119.99-11.3-157.49-16.4-58.3-7.9-119.92 2.65-178.23-5.25-278.51-37.76-557.85-46.33-843.04-45.66-119.52.27-226.86-10.28-357.42-9.61-73.6.38-104.98-10.23-173.57-9.97l-1574.2 29.72c-154.6 12.71-351.74 39.46-502.72 38.26l-669.45 54.98-1717.96 242.94c-100.52 16.76-196.53 49.74-307.68 49.74-12.88 8.97 11.1.76-25.44 13.17-81.7 27.74-181.05 29.49-267.65 51.11-52.82 13.19-116.46 16.22-169.72 33.12-97.75 31.06-122.4 43.56-233.88 10.06-43.73-13.14-89.89-19.09-126.6-45.86-.87-.62-3.09-2.31-3.9-3.01l-26.66-24.09c-38.26-30.1-43.97-30.13-70.22-86.01-76.78-163.23-56.5-79.63-67.72-226.69-6.79-89.1 20.37-187.11 74.3-259.98l24.42-37.62c.61-.79 2.33-3.12 3-3.85l60.84-65.85c13.2-13.92-10.58-1.13 22.34-16.57 15.13-7.11 12.77-2.45 29.2-9.44 50.58-21.59.29-7.55 41.43-26.23l393-99.59c40.15-9.79 74.85-6 114.18-21.06l866.53-176.72c18.68-.87 238.81-48.8 347.84-57.89v-19.32c-87.47-20.37-154.63-86.83-197.43-121.38l-47.82-48.72c-68.35-90.15-95.6-205.38-69.4-318.41 18.38-79.45 59.2-138.13 108.91-190.58l85.98-78.23c69.93-64.07 62.91-46.74 133.39-88.78l131.96-64.1c73.19-39.57 173.63-57.46 256.76-78.53 36.68-9.32 75.08-13.78 115.03-20.19 203.72-32.72 389.99-20.13 565.66 12.71 28.17 5.27 32.92 4.89 57.02 10.63 49.62 11.77 90.44 23.69 133.33 50.93 1.69 1.08 4.11 2.77 5.74 3.82 1.54.99 3.87 2.83 5.33 3.76 46.41 29.51 79.19 17.36 161.16 89.91 42.71 37.85 68.12 63.35 98.36 114.13 31 52.13 49.18 140.47 37.76 227.94-30.5 233.33-191.63 279.83-210.1 330.88 106.9 0 192.3-24.04 289.94-28.82l520.93-29.69c36.28-2.86 27.48-7.11 68.1-9.15 103.17-5.13 189.7-9.64 299.49-9.64-18.85-89.02 0-377.85 0-492.68 0-165.76-23.6-381.22 0-492.67-224.12 0-422.51 39.92-637.51 38.64l-615.63 50.9-2503.37 394.54c-56.79 15.03-120.51 25.38-182.6 39.54l-638.07 144.34c-60.11 8.86-122.08 53.52-267.41 60.25-16.61.76-7.43.32-18.18-1.19l-189.83-49.45c-48.8-15.96-51.63-12.87-68.5-67.36-16.08-51.98-56.06-137.9-36.71-194.43.7-2.07 2.01-4.66 2.71-6.61l41.6-113.37c.91-2.22 1.9-4.75 2.77-7l39.31-89.85c.58-.82 2.27-3.03 2.82-3.82l19.96-27.42c8.6-11.33 18.36-23.4 23.89-31.44.73-1.02 2.19-3.41 2.86-4.4.64-.96 2.07-3.29 2.65-4.25l160.52-156.61-117.66-122.84c-.93-1.02-2.91-3.12-3.79-4.02l-22.17-20.34c-75.23-60.23-75.2-81.96-223.42-94.32-3.47-41.46-24.88-81.87-13.29-118.84l28.76-107.72c15.39-58.51 27.71-36.16 1.4-88.87l-51.54-103.87c-6.09-10.55-9.44-14.08-11.37-17.02l-267.38-486.79c-44.58-103.96-121.13-195.74-188.02-285.3l-112.47-158.01c-6.94-10.05-9.59-14.42-15.44-23.22-31.85-48.22-64.22-102.19-105.68-145.45l-80.62-102.94c-1.26-1.58-3.06-3.76-4.32-5.34-6.87-8.65-9.2-11.83-17.01-21.62-1.25-1.57-3.03-3.81-4.29-5.36l-775.99-1011.13c-28.18-45.34-60.55-67.1-90.76-112.09-79.08-117.65-70.34-68.35-94.9-175.63-4.81-21.19-8.63-29.9-15.59-52.74-21.15-68.88-29.92-152.74-54.2-223.42-8.18-23.92 2.89-16.46-11.3-39.77-10.37-16.93-16.75-19.82-41.4-25.12-118.27-25.44-102.42 2.56-222.26-57.98-19.17-9.68-29.75-11.92-46.62-21.01l-80.59-54.63c-65.21-62.09-147.58-144.2-169.08-235.75-22.09-94.11 37.67 28.3-4.87-28.84-7.81-10.46-14.22 5.71-23.04-40.36-4.14-21.41-7.78-45.57-10.61-71.26v-195.89c8.1-59.64 25.38-113.58 56.56-149.18 19.4-22.17 22.02-51.34 37.58-78 24.62-42.19 59.79-74.27 94-109.06 34.29-34.88 84.14-69.58 130.38-86.51 2.25-.81 8.25-2.27 10.35-3.08l9.85-4.2c144.69-72.99 346.46-79.75 496.19-11.71l164.22 106.29c12.18 9.53 26.6 23.89 34.38 33.24 1.25 1.55 3 3.82 4.22 5.42l69.58 94.67c10.43 14.25 6.76 8.45 13.14 15.79 0-50.96 5.19-40.3 14.89-81.76 6.97-29.98 8.45-45.63 15.21-71.7l37.53-146.01c-59.18 28.41-106.17 28.64-193.32 29.14-48.86.29-60.26 2.65-96.91-9.35-100.46-32.93-196.18-79.05-270.16-154.84l-73.33-91.6c-23.43-43.15-2.92-13.55-4.37-23.92l-35.35-51.43c-11.56-22.81-38.66-141.93-41.11-171.7-5.16-62.56 9.38-139.16 20.11-191.84 26.57-130.3 161-297.37 294.39-340.37 29.49-9.53 5.1 4.95 31.91-10.55 21.5-12.41.55-1.66 15.76-11.54 2.74-1.75 33.45-19.78 83.91-20.57 52.48-.82 208.01-24.39 270.54 23.22 17.57 13.35 183.3 54.87 277.67 214.3 28.93 48.86 53.73 78.99 58.36 134.82l118.44-142.36c15.71-22.64 36.86-35.93 45.78-60.49-57.63 0-47.58 3.81-90.68-15.62-68.93-31.09-156.52-75.61-202.15-135.92-64.33-85.08-82.28-119.93-115.26-222.84-61.48-191.46 22.2-420.76 180.06-539.58 65.71-49.48 89.05-43.74 131.21-64.8l52.06-22.29c186.92-38.41 317.22-6.97 465.73 106.67l75.61 78.96c88.98 135.1 116.34 192.27 102.32 361.35l38.46-14.13c21.04-5.57 8.69 1.51 29.99-13.87l169.48-101.1c1.87-1.05 4.2-2.63 6.09-3.59 17.81-9.12 17.57-7.89 36.07-12.21-4.83-58.44-40.44-25.29-116.86-95.62l-69.09-75.85c-101.54-125.66-115.17-249.55-80.88-404.53 7.98-36.19 3.53-37.5 19.41-67.51 20.48-38.72 78.34-125.96 110.48-150.35l50.76-36.18c38.02-34.53 91.92-49.45 95.13-49.8l62.03-24.68c42.6-9.61 123.63-4.22 170.95-4.02 71.85.32 166.31 47.9 219.72 89.42l75.26 79.28c57.89 77.97 28.09 50.47 63.87 112.85 58.74 102.42 26.54 217.91 17.45 327.53 52.74-35.32 119.37-46.54 175.49-75.06l288.16-108.51-97.93-131.11c-28.43-80.13-81.43-161.56-41.49-307.77l27.51-59.41c.93-2.1 1.95-4.72 2.82-6.85l50.79-84.44c1.34-1.54 3.15-3.73 4.43-5.24 1.31-1.52 3.17-3.67 4.51-5.16 1.31-1.48 3.24-3.61 4.58-5.07l121.41-91.14c7.2-2.36-4.92 7.23 12.68-7.57l39.62-26.87c77.53-32.75 173.04-38.34 256.55-12.32 113.78 35.49 197.29 91.72 258.73 195.3l49.39 95.45c19 91.11 10.64 189.62-7.81 268.67 86.04-20.04 158.97-48.31 251.13-48.31-22.43-33.56-54.28-42.62-81.46-73.04-27.19-30.42-43.16-56.99-62.36-92.22-35.43-64.89-51.04-164.19-33.13-253.23 17.17-85.25 55.16-131.75 110.08-189.42l109.18-73.68c160.28-78.26 419.57-6.35 480.64 165.47l19.32 40.85c15.99 25.14 15.03 19.58 22.61 55.27 35.08 165.12-34.33 234.58-91.55 342.7 39.39 0 54.78-5.82 93.67-12.58 83.68-14.57 200.35-16.44 283.04-35.7l-27.89-30.04c-1.39-1.45-3.35-3.52-4.69-4.98-12.76-13.93-20.16-21.53-31.41-36.42-13.08-17.42-18.76-24.07-23.28-43.24l-.4-19.81c-3.01-17.48 13.54 15.12-4.17-9.32l-15.65-17.75c-8.13-14.39-1.69 1.43-8.33-21.65-21.33-73.98-15.3-173.13 16.78-234.66 17.43-33.45 31.21-68.62 60.2-94.38l61.86-54.05c46-33.39 82.66-47.26 139.62-63.22 116.72-32.7 224.06 14.45 302.47 87.11l51.89 54.34c12.7 14.4 3.06.82 11.74 17.25l11.13 27.48c54.72 111.91 38.55 19.14 39.98 192.42.67 77.44 3.17 58.39-24.01 111.21-19.64 38.11-21.85 48.9-43.85 81.73 41.81-9.73 181.2-19.32 231.78-19.32-38.98-58.27-69.23-56.43-99.47-132.31-8.42-20.94.29-.08-9.18-19.81-29.08-60.54-34.26-145.01-8.71-206.75 38.72-93.5 100.26-173.8 194.49-200.08l26.86-12.65c72.55-29.6 193.91-8.13 254.25 29.78 47.37 29.75 75.72 69.66 111.71 111.13l37.21 89.12c37.46 201.98-39.72 206.88-62.79 293.27l160.92-36.57c28.81-.15-.96 3.29 20.01-.26l79.84-30.77-52.3-53.96c-63.23-66.23-88.84-129.54-83.16-235.84 1.37-25.52 8.48-67.51 15.79-90.76 49.51-158.03 244.78-225.11 396.26-166.51l70.05 45.83c29.89 27.77 59.35 41.96 79.78 84.44 7.22 14.97 6.81 18.38 14.07 34.26 25.96 56.99 24.71 92.98 23.16 160.34 35.55-9.5 22.64-12.29 52.83-34.12l309.34-299.29c22.96-22.29 64.89-36.27 95.51-59.03 1.63-1.2 3.62-3.21 5.19-4.43 1.6-1.22 3.64-3.23 5.24-4.46l59.12-37.44c1.69-1.16 3.93-2.91 5.6-4.08l102.06-62.15c34.12-19.17 58.1-45.71 99.27-55.3v-19.32c-23.57-9.52-11.1-2.82-25.35-22.95l-13.43-25.21c-14.1-22.03-31.29-16.81-38.52-38.81-14.45-44.29 6.09-172.37 25.79-206.05l25.84-51.43c1.05-1.78 3.06-3.76 4.11-5.56l7.37-11.92c7.14-18.01 4.55-23.66 4.55-43.82 42.59-.94 23.98 3.93 52.88-14.69 2.45-1.57 8.45-6.9 10.84-8.54l24.24-14.36c60.6-27.77 80.13-3.03 77.15-77.97l4.4-123.04c-2.65-41.67-7.02-115.09-17.42-164.74-28.93-138.29-126.89-293.47-279.13-311.04-77.85-8.97-95.48 23.92-125.84 65.41-97.2 132.72-36.95 196.79-36.95 310.86-75.81 6.3-120.59 41.49-173.8-8.94l-145.62-144.99c-6.47-8.77-13.41-17.51-20.37-27.88l-54.63-80.85c-1.2-1.84-2.59-4.35-3.73-6.15-.29-.47-10.87-17.48-11.22-17.95-1.05-1.46-2.97-3.79-4.02-5.13l-11.42-12.18c-.7-.81-2.68-2.65-3.29-3.46-22.96-28.62-19.84-65.07-38.35-98.57l-19.81-42.49c-5.45-26.04-13.08-41.05-19.29-69.34l-13.98-84.85c-.35-1.05-1.37-3.73-1.72-4.8-18.83-61.63-5.1-159 4.19-216.64l4.29-37.55c.2-1.2.93-3.94 1.19-5.13l44.75-173.02c7.67-30.09 6.36-15.12 12.3-29.48l3.93-10.46c.38-1.28 1.05-4.02 1.43-5.3l38.23-69.7c48.51-61.89 124.94-108.59 196.29-141.81 106.26-49.47 268.32-86.07 398.21-55.8 23.63-101.48 21.71-240.72 56.3-330.09l166.34-451.91c1.11-1.8 2.74-4.05 3.82-5.82 16.57-27.86 28.84-56.67 43.15-82.43l91.87-159.29c10.13-17.8 3.32-8.98 14.33-24.36 1.17-1.66 2.74-4.02 4.05-5.62l55.74-60.17c2.16-3.09 6.35-8.57 12.12-16.84 8.65-12.5 15.76-25.26 23.25-34.73l140.47-149.3c21.12-19.2 26.08-28.87 26.08-60.9 59.26 0 91.43-8.68 135.22-9.64.79 1.63 11.51 26.16 11.86 26.78l201.63 281.37c.2.35 12.06 16.52 12.2 16.75l46.86 88.43c1.19 1.66 2.94 3.85 4.07 5.51 34.47 48.86 68.13 126.48 95.86 184.29 15.97 33.22 17.43 56.09 35.9 89.71l7.23 12.07c22.34 40.2 22.72 89.42 44.58 129.33l45.92 137.65c23.36 68.15 31.99 138.02 45.45 205.67 15.06 75.9 27.97 118.5 27.97 213.54 82.34-6.84 90.32-7.22 174.18-.29 106.64 8.8 204.92 43.21 291.45 94.93 100.26 59.94 119.2 86.33 142.4 138.52l33.68 82.63c.46 1.4 0 3.9 4.63 16.93l4.84 11.62c34.38 85.55 69.46 313.37 42.16 395.8l-9.01 27.33c-.23 1.05-.84 3.81-1.04 4.92l-47.82 194.43c-.64 1.34-2.07 3.79-2.77 5.19-10.37 21.56-4.51 7.13-15.15 32.25-.87 2.01-1.8 4.84-2.65 6.73l-60.6 103.52c-1.66 2.34-6.35 9.12-7.96 11.48l-93.85 118.74c-1.31 1.45-3.26 3.52-4.63 4.98-1.37 1.46-3.2 3.64-4.57 5.07l-9.36 10.02c-1.4 1.4-3.52 3.29-4.95 4.66-1.43 1.37-3.67 3.18-5.13 4.52l-102.65 87.03c-44.55 22.55-83.91-13.72-137.67-18.21 0-76.95 59.7-163.95-30.42-298.04l-22.29-25.99c-90.38-104.4-211.35-10.37-289.82 58.77-53.26 46.94-75.08 135.16-90.38 199.41-25.73 108.36-21.1 233.94-21.1 365.32 32.02 2.68 46.45 8.07 64.22 32.4l46.44 50.14c20.72 23.81-10.13-16.9 8.05 11.28l54.98 70.6c20.25 38.54-10.78 42.68 38.87 48.13 0 137.61 17.51 136.21-23.72 188.81l-31.35 55.62c-15.15 22.64-26.11 54.54-51.2 64.68l139.16 102.07c2.25 1.8 8.36 7.17 10.58 8.94 60.34 47.58 62.32 17.05 139.74 101.81l211.21 213.86c1.57 1.25 3.85 2.97 5.45 4.23l32.92 24.99c28.41 20.58 51.37 37.53 79.14 56.12v-164.24c44.43-29.78 26.83-30.22 28.03-38 .17-.96.23-3.87.52-4.89 9.18-34.91 63.61-83.13 94.99-104.51 83.53-56.94 204.86-66.52 291.07-25.73l63 33.56c15.21 13.44 11.91 11.89 30.59 27.42 35.2 29.25 70.19 100.23 81.64 140.44 59.85 209.81-89.91 276.13-135.86 338.8l309.08 77.3c-11.92-44.84-45.16-69.23-68.85-104.98-1.16-1.78-20.07-37.67-20.16-37.82-19.09-52.36-18.88-140.87-7.37-194.11 5.79-26.77.67-14.97 5.59-36.88 7.84-34.85 24.01-58.16 46.68-85.72 26.1-31.73 48.45-61.92 83.71-79.02 70.6-34.27 140.06-75.93 233.41-53.32 65.94 15.99 112.76 39.24 157.78 74.09l100.93 140.59c21.79 47.49 18.88 115.67 18.88 174.29h9.67c0-85.34 20.25-119.66 57.23-174.64 14.71-21.91 4.63-13.35 24.35-33.57 25.85-26.45 58.98-62.76 92.86-81.09l44.96-13.92c138.31-47.03 269.75-21.59 373.71 77.15l30.62 37.03c39.51 50.7 72.64 142.92 72.64 208.36 0 82.89-42.92 188.63-103.26 245.42l-61.83 54.08c137.64 0 321.87 45.33 473.3 57.95l-37.36-49.74c-16.63-15.61-21.53-9.47-33.3-40.96l-17.45-42.72c-42.8-69.11-45.57-186.33-14.4-258.91l84.71-137.49c52.15-60.26 137.58-107.75 220.21-108.22 112.35-.67 113.75-9.64 202.18 32.02 17.02 8.02 18.65 5.86 42.37 23.11 17.68 12.85 30.91 20.89 45.71 32.25 13.14 10.14 8.1 5.6 20.28 18.33 42.1 43.97 59.88 77.1 79.16 133.27.44 1.23 8.34 21.65 10.52 27.77 24.83 68.36 14.1 145.33-5.65 205.27l-78.73 133.68c-6.55 7.25-11.86 15.5-17.3 21.33l-90.94 56.14c-14.95 7.93-1.05-26.1-13.96 12.82 39.57 3.3 36.69 12.53 85.17 21.1 28.58 5.07 52.82 4.31 87.35 9.26 33.04 4.75 34.09 13 74.53 22.06 29.84 6.7 55.51 9.18 81.38 15.21-70.8-133.83-51.42-243.26 12.82-373.56 13.87-28.06 38.7-62.68 58.6-86.34 17.27-20.54 61.68-53.81 86.01-68.55l75.43-38.96c1.37-.35 4.14-.9 5.48-1.28 2.39-.64 8.98-2.71 11.57-3.53 141.17-45.19 264.09-23.22 380.82 57.37l41.22 36.02c12.82 12.52 6.85 6.49 19.15 19.49l102.59 196.88c8.83 31.93 13.66 98.65 7.02 145.5-2.54 17.66-29.75 100.64-37.44 117.16-23.66 51.08-80.77 144.26-135.4 164.04 15.7 21.45 3.67 8.71 27.04 21.86l12.09 5.62c1.55.58 4.25 1.51 5.83 2.01 1.46.47 4.22 1.11 5.71 1.49l63.95 18.85c30.95 15.35 10.7 6.14 21.3 7.4l55.83 21.06c59.61 22.12 124.18 29.43 172.93 68.01l89.27 37.24h19.35c-14.6-62.71-32.55-173.98-10.08-241.93l100.52-198.94c1.25-1.55 3-3.82 4.25-5.39 1.25-1.58 2.89-3.97 4.08-5.57l38.17-39.16c1.43-1.34 3.53-3.32 4.92-4.69l19.09-19.55c54.75-48.57 165.38-90.64 263.74-93.73 85.49-2.68 125.18-.93 190.06 34.2l60.52 23.58c11.57 6.2 20.13 12.09 30.65 18.99 9.01 5.92 8.8 5.07 17.19 11.89l97.32 95.89c6.93 6.82 6 3.58 14.34 14.86 23.8 32.08-14.89-31.91 7.69 12.03 12.18 23.72 1.63-1.25 8.97 28.03 17.08 68.3 74.68 112.88 53.96 270.3-16.37 124.88-33.36 160.75-114.83 271.59l-182.04 117.42c31.87 44.11-.61 3.64 34.85 16.2l180.09 106.93c15.3 8.28 68.18 27.62 84.53 31.44 0-96.68 8.62-164.89 52.33-238.25 18.73-31.53 22.84-56.64 48.27-85.96 1.32-1.54 3.24-3.64 4.64-5.15l114.65-107.66c18.44-15.04 36.6-26.95 58.25-38.96l59.7-19.75c160.34-80.07 391.86-31.12 518.22 93.61l97.26 115.27c78.41 127.24 97.06 281.46 54.17 425.02l-89.77 161.38c-56.35 86.54-140.41 122.49-199.24 153.82-32.43 17.27-35.49 28.64-80.94 29.66l35.72 60.86c1.37 1.4 3.64 3.15 5.13 4.55 1.42 1.37 3.7 3.12 5.12 4.52 34.09 33.24 45.92 71.38 89.22 94.28 11.28-48.36 26.05-71.97 51.25-112.96l146.12-143.67c1.61-1.23 3.85-3.03 5.42-4.29l32.96-24.97c145.39-93.79 347.25-88.81 500.74-27.09 8.65 3.49.73-.91 14.48 7.31l131.87 89.3c42.89 44.15 83.83 85.14 109.33 141.87 21.38 47.67 30.04 52.59 42.71 102.07 21.33 83.01 35.6 168.67 12.82 266.74-15.18 65.53-30.01 132.37-70.51 190.29l-152.53 156.61c-34.21 25.79-94.64 57.52-131.73 71.1-133.53 48.86-220.53 31.61-345.15 2.56 13.08 27.3 12.9 33.6 19.26 67.66l48.31 183.53 98.86-104.02c185.83-186.79 536.67-200.05 695.37-91.34 22.64 15.53 33.92 23.13 58.92 37.67l70.51 55.04c1.43 1.4 3.5 3.41 4.89 4.78 2.07 1.95 8.13 7.25 10.17 9.21 12.79 12.29 11.1 10.49 23.34 24.91 57.84 68.06 128.61 165.82 138.78 257.31 4.22 37.99 8.33 79.98 9.99 123.1l-12962.93 6503.61zm994.96-1072.32c0 26.98 5.59.03 5.71 0 9.56-1.54-5.71-24.71-5.71 0zm4327.36-241.51l-20.78-5.31 20.78 5.31zm-38.61-9.65c-.99.96 2.65 2.68 2.86 2.89l-2.86-2.89zm-38.63 0c-16.32 16.29 7.31 2.77 15.91 4.98 36.82 9.5-5.45-15.44-15.91-4.98zm-19.32 0c-.96.96 2.65 2.68 2.86 2.89l-2.86-2.89zm-9.7-9.67l-41.76 16.2c-1.04-1.98-4.45 1.83-6.52 3.12 54.75 0 37.12 8.42 48.28-19.32zm-67.6 9.67c0 26.95 5.62 0 5.74 0 9.56-1.54-5.74-24.71-5.74 0zm-3660.91 28.96c140.96 0 423.09-51.07 546.57-119.92 54.87-30.57 95.37-44.35 139.68-82.55l10.14-9.12c1.43-1.4 3.5-3.41 4.87-4.83l40.44-46.54c78.81-88.54-36.86-150.08-96.44-169.8-158.24-52.3-176.05-59.91-365.12-59.91-259.2 0-206.37 10.64-398.99 54.98-104.43 24.04-227.07 75.61-311.88 142.16-158.13 124.01-57.43 184.44 57.37 234.29 27.44 11.92 54.98 24.5 76.57 28.14 19.9 3.36 64.39 8.75 93.91 13.84 61.24 10.61 131.72 19.26 202.88 19.26zm5389.97-444.36v38.63c22.2 8.98 6.53 4.03 21.48 17.2l29.51 28.37c34.35 38.12 3.26 19.93 55.8 50.47l23.66 15c60.02 42.14 238.42 109.12 322.63 127.89l128.75 28.52c123.51 28.21 354.74 14.31 466.74-17.74 21.71-6.21 49.22-6.79 88.87-20.75 84.03-29.51 55.19 22.84 60.31-35.75 26.9-2.24 37.59-3.58 45.2-8.83 33.44-23.05 51.42-55.45 51.42-97.43-35.72-12.91-9-.15-31.82-35.84l-101.62-81.9c-15.91-8.1-28.24-13.58-45.34-22.26-18.65-9.44-23.83-13.23-37.85-20.25-22.41-11.28-24.01-10.29-46.79-19.67l-15.13-6.7c-1.04-.47-3.49-1.69-4.54-2.16l-144.55-48.6c-236.03-55.88-240.84-30.65-326.48-42.6-1.04-.14-3.58-.78-4.63-.96l-10.17-1.72c-26.25-3.09-25.37-2.44-42.62-1.8l-312.76 46.53c-1.08.44-3.73 1.51-4.83 2.04l-10.23 5.27c-13.7 7.29-19.03 11.1-37.79 19.61-108.59 49.47-83.33 71.74-117.22 85.43zm-1632.44-154.57l-9.68-144.9c-43.88-10.23-171.7-5.16-224.61-4.83l-101.89.29c-161.42 7.31-435.04-19.61-644.16-2.57-60.63 4.93-407.88 7.08-449.26-2.56 0 88.22-9.64 141.89-9.64 222.2 0 80.27 9.64 133.97 9.64 222.19l1390.38-2.12c43.5-.33 33.56-2.71 34-34.09l5.22-253.61zm2820.55-183.56l-19.32-9.65c8.1 27.36-8.83 21.74 19.32 9.65zm-917.63-115.91l-6684.35-869.44 2.91 2.89c0-1.37-1.92-3.85-2.91-2.89l6684.35 869.44zm144.84-1226.89l463.65-2231.55-463.65 2231.55zm4559.26-2260.54l61.21-35.43c86.01-56.27 73.54-31.47 136.57-75.93l56.96-29.99c1.92-.99 4.37-2.36 6.2-3.4l42.02-25.67c24.18-12.15 13.64-10.52 44.81-13.12v-28.99c-76.74-6.38-161.68-65.26-211.97-106.81-13.93-11.51-5.94-4.81-23.02-15.65-66.66-42.33-39.94-57.43-103.11-99.73 0 156.75-9.67 278.66-9.67 434.72zm-15348.8-202.88c1.95 1.37 4.95 2.65 6.29 3.38 1.31.73 4.6 2.56 6.21 3.46l163.92 96.86c1.92 1.04 4.4 2.33 6.32 3.38l152.53 79.28c16.96 9.23 16.12 5.36 33.72 14.56 32.08 16.85 23.68 22.94 75.31 50.27 0-100.79-9.87-164.13-9.64-260.84.23-90.15.03-180.32.03-270.5-28.88 21.12-18.97 26.6-40.5 56.14l-46.36 50.24c-23.42 29.54-177.03 132.28-188.92 135.63l-17.05.26c-18.15 3.06-46.29 35.75-141.86 37.88zm4201.87-9.65l11939.01-569.97c6.44-26.63 10.14-14.54-.03-56.9-71.1-296.47-365.81-280.82-465.05-176.4-77.65 81.67-135.23 198.74-82.66 307.77l94.81 127.36c19.02 14.71 15.99 14.69 40.5 27.13 85.66 43.53 136.42 49.38 223.65 16.98 121.21-44.98 156.29-110.86 188.78-245.94l-11939.01 569.97zM8514.29 7493.4c-107.95 0-114.65 21.07-172.22 59.65-67.95 45.57-119.23 154.6-112.06 235.01 24.09 268.73 277.41 325.9 411 257.13 12.41-6.38 66.46-46.7 77.71-57.51 1.42-1.4 3.32-3.56 4.69-4.95l44.17-52.45c1.05-1.87 2.3-4.4 3.32-6.32l6.73-12.59c17.6-33.77 26.4-60.2 26.4-108.83 0-101.22-11.1-168.2-90.91-237.55-16.43-14.33-3-3.14-16.37-12.58-10.9-7.76-28.18-18.3-41.44-26.2-58.12-34.53-76.28-32.81-141.02-32.81zm2849.52-347.77c0 116.17 145.62 242.36 260.48 192.91 20.51-8.8-3.38 1.6 18.71-10.28 31.32-16.84 46.96-21.54 68.85-47.09 71.53-83.42 70.92-149.12 30.27-233.73-13.61-28.32-23.98-38.64-47.2-59.06-38.23-33.54-89.13-45.63-157.22-45.63-25.85 0 11.71-2.27-16.52 9.21-1.26.52-4.08 1.48-5.48 1.95l-10.99 2.59c-24.59 6.99-1.34-3.41-29.13 10.46-63.14 31.53-111.77 117.33-111.77 178.67zm10065.11 135.25c4.78 0 71.01-24.3 78.96-27.3 44.29-16.73 26.11-11.48 54.43-42.19 24.39-26.54 28.06-20.22 40.85-55.77 34.73-96.7 12.61-173.48-64.07-236.12-183.86-150.2-448.68 123.07-255.33 303.66 33.8 31.55 81.23 57.72 145.16 57.72zm-9147.45-415.4c-28.76-18.24-47.38-.7-87.32.08-43.21.85-69.06-21.64-81.09 3.33l52.5 141.48 72.85-91.34c1.22-1.6 3.05-3.79 4.28-5.42 1.22-1.6 2.91-3.87 4.11-5.48 1.22-1.66 2.88-3.96 4.08-5.62 27.62-37.99-1.99-13.2 30.59-37.03zm8422.96-19.32c18.65 27.8 27.45 48.98 50.21 75.38 40.7 47.2 45.95 31.58 56.06 69.52h19.31c.32-13.7 2.19-30.33 2.63-40.39 1.8-45.8 1.83-48.51 26.39-94.87-66.22 0-103.17-5.36-154.6-9.64zm-11765.12 48.28c71.12 0 169.75-60.84 196.38-122.35 80.16-184.72-61.33-322.02-186.76-322.02-244.67 0-276.8 282.66-152.19 384.09 27.68 22.52 97.5 60.28 142.57 60.28zm15068.65-454.04c-9.73 0-66 31.85-77.59 38.32-66.46 36.97-108.8 128.23-101.69 199.52 8.39 84.88 39.16 105.25 93.09 157.58 75.58 73.39 226.48 38.28 286.62-30.77 122.37-140.59 20.48-309.52-84.32-345.48l-116.11-19.17zm-7514.98-154.57c-58.01 0-139.3 42.63-166.17 75.35-97.25 118.38-74.76 228.69 15.39 336.29 59.47 71.04 184.84 100.15 287.4 34.12 224.01-144.22 111.36-445.76-136.62-445.76zm-4453.02 48.31c0 71.44 59.23 154.57 125.6 154.57 82.84 0 65.94 7.52 110.84-34.06 48.63-45.05 79.63-89.25 51.05-166.34-11.6-31.3-73.95-93.12-123.13-97.23-77.48-6.47-164.36 57.83-164.36 143.06zm8732.1-164.22c-22.55 0 7.17.38-24.71 13.9-15.12 6.41-14.54 3.67-29.08 9.56-25.66 10.37-28.69 16.29-41.6 35.69-140.03 210.25 198.48 343.32 258.73 132.37 28-97.99-50.87-191.52-163.34-191.52zm-8075.25 48.31c8.72 68.07 9.68 122.2 9.68 202.85l112.09-100.43c53.75-55.83 175.17-84.58-10.73-80.42-16.37.38-8.85.88-29.8-3.73l-10.7-2.65c-2.33-.49-8.88-1.81-11.45-2.3-24.85-4.95-37.44-8.28-59.09-13.32zm7563.32 164.22c0-66.64-3-109.85 9.67-164.22-30.77 14.75-54.34 17.6-96.64 18.74-20.52.55-45.75-3.26-63.32 5.3-26.78 13-5.24 10.9 6.7 20.48l81.21 66.17c1.48 1.32 3.67 3.15 5.21 4.43 2.22 1.78 8.74 6.59 11.05 8.28l46.12 40.82zm-6993.43-396.09c-.93.97 2.68 2.71 2.91 2.89l-2.91-2.89zm9804.34-183.53c0 143.09 199.53 299.96 349.23 136.71 88.78-96.82 74.94-230.24-53.52-306.9-62.18-37.12-151.17-27.12-198.48 6.59-8.77 6.23-17.54 12.59-27.04 21.3-25.15 23.07-70.19 100.05-70.19 142.3zM9702.37 6015.35c69.46 0 117.13-27.5 157.87-73.97 65.29-74.45 68.64-145.37 28.75-238.25-47.61-110.9-235.33-162.79-343.93-38.29-63.31 72.67-68.61 146.97-25.78 234.17 32.51 66.2 104.8 116.34 183.09 116.34zm3574-38.63c47.64-3.96 11.63 1.08 41.93-16.03l222.98-144.11c.82-2.88 3.82-2.59 5.57-4.1-44.38 0-99.18-.67-128.64-6.56-35.87-7.2-23.08-2.19-52.21-16.11-122.76-58.6-12.27 40.7-89.63 186.91zm6182.03-173.89c21.83 29.75 74.21 52.59 108.04 75.47l59 37.64c37.5 16.55 29.98 5.3 55.13 31.79 0-64.71-19.35-47.93-19.35-193.21-54.13 12.62-52.65 25.73-90.85 34.73-24.88 5.86-87.52 13.58-111.97 13.58zm-6684.29 19.32c0 33.45 65.3 79.16 100.73 71.85 54.22-11.16 72.7-61.65 92.45-91.17-39.28-168.5-193.18-95.65-193.18-38.66v57.98zm7321.8-125.61c-16.2 0-51.39 28.47-62.87 43.68-65.59 86.88 48.13 151.01 88.81 144.78 116.69-17.83 111.01-188.46-25.94-188.46zm-3429.07-86.91c0-75.82-53.2-139.98-128.52-143.88-54.98-2.86-83.74 4.83-118.21 41.98-17.8 19.21-27.36 15.42-43.5 81.82-5.86 24.15-10.08-.41.55 38.49 54.87 199.97 289.68 132.16 289.68-18.41zm-2839.87 38.63c39.33-9.18 65.79-35.14 98.37-56.17 22.78-14.72 70.01-43.48 94.81-50.09v-19.32c-41.93-.96-53.67-3.23-79.34-16.61-3.67-1.92-16.93-9.17-18.88-10.28-13.32-7.43-8.05-3.96-18.68-10.69-12.41-7.81-14.89-11.6-27.97-20.4 0 125.61-28.38 98.04-48.31 183.56zm5119.44-154.57c37.24 55.54 36.95 23.89 87.21 57.69 29.98 20.13 43.85 34.35 83.65 54.08 73.45 36.45-6.64 15.18-6.64-179.4-39.37 14.28 2.76-2.06-35.99 21.94-59.96 37.21-78.93 22.03-128.23 45.69zm-5428.52-9.67c8.88-13.29 43.24-63.52-8.19-55.3-49.24 7.86-10.49 42.8 8.19 55.3zm5930.84-57.96l.81 12.71c18.42 39.1-23.3-25.5 5.92 8.83 9.76 11.45 13.93 11.53 22.23 17.1 38.23-57.11 6.61-60.58-13.66-53.96-29.43 9.55-4.58-11.19-15.3 15.32zm2385.86-48.3l-7486.01-28.97c30.36-16.08 49.35-13.69 67.62-38.66-18.79-28-19.99-29.78-56.32-38.35l-11.3 77.01 7486.01 28.97zm-3274.5-106.27c16.4 22.38 45.28 40.85 77.24 48.31-22.06-41.72-19.29-34.55-19.29-96.62-21.09 14.11-40.85 30.25-57.95 48.31zm-7872.43 183.57c27.53 0 110.14-46.83 128.17-65.01 143.36-144.52-35.25-418.72-239.97-307.6-179.42 97.41-104.95 372.61 111.8 372.61zm11620.26-29c27.09 0 115.96-51.66 131.75-71.12 81.18-100.26 43.88-153.52 20.43-206.64-39.28-88.98-136.01-129.86-241.92-82.57-25.5 11.39-83.36 65.53-94.41 98.89-3.03 9.18-14.13 67.98-15 81.64-5.68 91.14 112.87 179.8 199.15 179.8zm-8249.14-241.51c-26.45 17.71-35.28 18.04-38.63 57.95 28.38 19 19.2 19.32 67.62 19.32 12.15-52.07 14.13-48.43-28.99-77.27zm2221.71 9.67l2627.29-38.66c-16.47 11.07-33.98 20.02-33.13 37.58 2.65 59.04 123.3 22.82 33.13-37.58l-2627.29 38.66zm-2975.16-38.66c-60.51 0-110.77 19.17-166.4 36.45l-157.89 44.93c-37.88 8.88-66.95 11.94-104.8 20.8-44.81 10.52-60.08 22.67-100.79 34.47l-642.02 246.55c-34.47 16.29-63.06 27.66-94.93 40.36-34.21 13.66-56.38 26.46-86.83 38.78-40.79 16.55-53.26 24.07-89.54 45.69-59.76 35.63-117.88 51.02-175.31 85.51-25.79 15.5-18.91 12.44-45.16 22.47-66.93 25.52-129.84 70.92-196.94 102.53l-644.74 388.86c-3.61 2.45-14.97 11.1-16.61 12.38l-102.41 71.42c-46.07 25.61-81.2 65.44-123.1 99.12-19.09 15.38-16.06 16.78-35.26 32.34l-214.59 210.48c-6.96 9.15-5.3 8.05-12.33 16.61-4.1 5.01-10.83 11.63-18.41 20.22l-148.39 189.71c-1.23 1.61-2.98 3.85-4.2 5.48-1.22 1.6-2.94 3.9-4.17 5.51l-172.54 281.43c-42.63 60.05-113.11 248.54-133.6 320.44-11.74 41.09-29.19 57.99-33.74 91.87-21.91 164.01-26.63 315.44-40.41 481.37-7.52 90.35 12.12 374.29 20.63 483.15 5.59 70.94 9.99 166.83 19.9 240.99l136.39 351.41c7.92 21.89-1.87-8.62 4.81 15.56 10.92 39.69 5.13 39.86 29.75 79.84 19.6 31.87 17.62 62.29 55.33 138.31 9.12 18.33 10.57 28.26 20.48 47.14 16.64 31.76 34.5 48.52 51.57 74.01l96.56-51.19c1.98-1.17 7.58-5.25 9.7-6.65l54.98-32.07c28.35-10.26 44.15-5.42 77.36-9.59 50.76-6.35 108.07-11.77 171.62-1.63 44.4 7.08 75.75 8.68 109.17 35.75l10.14 9.15c1.58 1.25 3.7 3.14 5.33 4.34l85.72 68.91c1.46 1.34 3.71 3.14 5.19 4.45 1.57 1.32 3.82 3.04 5.42 4.35l102.53 104.51c.5.7 2.28 2.77 2.8 3.5.55.75 2.21 2.94 2.83 3.75l5.82 8.78c.85 1.16 2.45 3.75 3.33 4.95 1.45 1.95 6.2 8.1 7.77 10.05l94.44 147.29c.96 2.07 1.95 4.69 3.03 6.73 1.05 1.98 2.3 4.51 3.41 6.44 14.94 25.49 24.56 30.04 32.66 59.23l9.23 24.68c.79 1.6 2.22 4.2 3.01 5.86l25.52 74c30.8 80.95 14.48 50.94 28.7 109.67l38.37 226.14c1.26 30.68-3.32 55.62-5.18 73.1l-9.01 114.51c-2.36 13.49-2.68 28.93-3.32 34.17-.17 1.29-.38 4.14-.58 5.34l-19.81 58.01c-.47 1.4-1.4 4.08-1.87 5.53-.52 1.58-1.51 4.29-2.01 5.98l-15.85 50.87h-48.34c-6.93-29.95-11.89-54.43-19.72-86.51-13.64-56.06-60.17-104.16-90.82-140.99l-95.51-88.02c-40.42-36.98-182.95-79.72-236.21-59.15l-31.04 26.89c0 156.73-53.61 66.17 8.43 252.41l151.3 442.39c.56.93 2.3 3 2.86 3.87 55.85 81.56 8.1 134.85 126.1 91.73 43.56-15.91 62.94-8.98 105.8-18.59 28.55-6.41 170.39 12.9 200.63 24.59l111.83 43.24c2.62.99 22.03 9.15 25.84 11.18 60.67 32.55 47.99 101.25 27.68 162.24l-6.32 14.68c-.55 1.11-2.27 3.56-2.85 4.66-.59 1.11-2.42 3.47-3.01 4.58l-8.3 19.9c-.64 2.39-1.43 9.67-2.01 12.35l-39.19 83.68c-1.34 1.49-3.29 3.56-4.6 5.05l-27.86 30.09c-20.28 22.23-22.29 16.76-38.49 38.84 124.13 28.91 269.4 35.46 397.49-8.24 34.03-11.6 81.26-26.69 109.61-44.93l48.95-38.03c64.74-47.43 108.18-79.01 155.36-144.08l43.91-51.69c16.63-19.46 33.68-51.8 36.79-80.12 63.64 0 45.72 2.27 91.87 14.39 109.64 28.82 228.2 21.24 344.17 18.3 31.52-.79 10.37 1.75 39.24-3.06 33.31-5.51 3.47-2.68 29.23-5.21l67.04-11.13c1.31-.41 3.85-1.37 5.19-1.81 1.34-.47 3.9-1.55 5.33-2.01l55.48-28.79c-55.33 11.71-7.06 4.23-35.52-1.37l-53.79-18.18c-.93-.26-3.7-1.25-4.69-1.37l-31.61 11.25c-3.59-43.45-26.25-82.75-39.95-124.3-11.19-34.12-36.45-87.26-37.29-126.86 22.58-8.19 28.55-16.99 39.3-38.64l32.2-41.72c.78-.64 3.06-2.42 3.76-3.15 26.19-25.61 9.7-38.54 50.26-42.07-16.14-33.68-22.79-65.41-41.7-103.2l-155.65-327.35c-40.35-64.4-53.72-106.56-122.95-147.55-93.74-55.51-43.56-45.63-173.57-106.58-55.51-26.02-122.9-60.03-181-19.32-1.69 1.19-3.73 3.12-5.33 4.37l-47.23 39.68c-8.39 9.3-43.3 72.41-48.22 87.03-28.03 82.9-16.96 156.26 17.83 229.54 44.03 92.72 116.05 88.32 130.01 140.5-23.78 5.54-30.48 7.78-49.16 18.5-34.2 19.61 1.29 16.09-47.46 20.14-14.01-34.65-27.91-15.8-104.98-56.44l-9.35-4.61c-1.05-.49-3.53-1.63-4.58-2.12-1.05-.5-3.58-1.58-4.69-2.1l-198.71-138.43c-.85-.67-2.97-2.33-3.82-3l-269.6-395.39c-35.28-101.86-69.87-248.44-51.46-353.63l9.74-130.76c4.48-31.15 1.72 2.12 5.5-31.79 7.7-67.86 39.51-137.91 64.83-202.5l21.51-56.7c14.16-21.3 11.39-14.19 21.85-34.85 27.18-53.7 163.86-142.92 224.09-161.65 45.74-14.25 1.81 2.18 22.73-1.28 36.12-6 80.7-46.04 132.16-49.16 1.02-.05 3.67.29 4.57.27.85 0 3.35.35 4.11.32l39.51-8.8c-7.72-33.1-17.48-35-25.9-61.04-.82-2.45-1.37-5.05-2.07-7.58-.79-2.62-1.14-5.24-1.81-7.9l-28.26-65.96c-5.16-23.02-11.89 9.41 3.18-11.42l16.2-10.32c-37.56-4.14-30.19-.73-41.44-45.57l-17.13-99.62c-4.37-17.89-12.7-32.83-17.71-58.59-41.61-215.17 37.67-637.92 37.67-897.53-39.68 0-117.94-10.05-147.31-16.87l-113.7-36.51c-42.1-12.9-94.52-52.62-125.72-81.52-171.12-158.51-116.02-140.67-161.62-205.47-24.04-34.27-12.12 1.37-25.93-51.34-11.31-43.24-31.21-93.68-34.15-130.1-5.65-71.21-2.54-158.53 18-223.21 15.42-48.34 31.5-118.56 61.22-160.23 14.45-20.25 23.6-32.49 35.96-51.74l77.88-86.34c14.97-11.65 29.48-18.44 46.38-30.88 39.78-29.31 50.99-43.59 97.73-66.52 107.77-52.91 302.5-87.73 406.46-37.82-13.23-56.85-37.3-93.82-38.99-163.87-3-126.13 10.87-230.76 73.69-332.77 10.69-17.33 26.8-44.2 38.78-57.83l80.47-74.1c11.45-7.19 17.81-11.07 29.58-18.73 41.63-27.19 73.19-55.22 123.92-69.26 117.27-32.43 221.29-30.8 338.83 2.59 22.75 6.5 47.08 17.78 68.53 28.06 0-144.08-10.26-187.64 53.75-294.02 16.03-26.54 50.09-87.32 68.01-105.85l102.21-71.68c68.18-41.31 35.96-31.84 130.74-43.15 70.25-8.42 67.6-19.7 146.26-5.86l106.59 29.58c35.92 18.03-1.2-7.61 39.42 9.12 26.63 10.95 46.76 38.93 77.47 47.14 0-63.34 17.57-93.53 39.37-138.95l3.93-9.47c2.71-7.96-.29-2.65 4.28-17.54 20.75-68.09 80.3-87.41 106.96-123.86zm6375.24-19.32l45.86 41.08c66.43 52.51 108.68 165.79 108.68 258.39l103.47-60.72c23.65-9.44 107.42-26.2 137.99-26.2 125.98 0 177.79 12.68 269.98 68.1l67.62 48.33c158.77 138.4 111.37 249.41 145.4 395.56 31.23-20.92 27.09-28.11 73.33-42.56 91.61-28.68 262.99-29.46 345.27 14.74 58.54 31.41 98.6 31.7 151.4 85.69 44.93 45.95 115.73 102.07 135.11 164.48l28.78 67.04c37.41 77.15 27.48 271.29-9.41 348.21 51.17-1.13 89.98-19.31 144.87-19.31 57.66 0 105.42 20.33 160.31 32.86 90.29 20.66 128.9 49.86 197.81 101.63 6.21 4.63 15.09 9.59 22.84 15.82l77.04 77.54c26.05 31.03 36.71 66.4 57.22 100.34 8.22 13.73 19.26 12.33 22.38 42.16 4.63 44.7 10.78 10-15.99 35.37h38.63c0 64.13 19.35 100.47 19.35 173.89 0 75.73-19.35 145.02-19.35 212.53-32.46 2.82-19.46 35.57-32.46 63.43l-75.96 117.97c-1.42 1.37-3.76 3.06-5.24 4.4-1.46 1.37-3.76 3.06-5.22 4.43l-54.54 61.39c-1.49 1.31-3.7 3.12-5.3 4.37l-117.34 75.87c-63.66 34.85-76.34 33.25-140.93 52.25l-171.53 21.62c10.43 21.76 29.34 288.42 28.93 338.16-1.05 118 20.49 233.35 28.41 338.65 11.39 150.79 4.78 185.31-18.68 327.97l-86.97 280.06c19.76 0 26.49-.79 45.8 3.15l243.47 93.17c20.51 12.53 30.39 24.45 55.16 42.22l48.92 38.03c22.75 19.26 28.55 46.03 49.33 76.89 1.48 2.24 6 8.3 7.22 10.46l61.71 162.09c13.73 39.56.88 27.01 10.17 67.07 7.32 31.64 1.98 5.86 10.67 34.24 11.45 37.29 7.75 68.47 13.75 104.48 4.34 25.93 2.68 11.68 1.63 35.75l-.29 122.64c-4.72 65.9-25.23 190.52-52.04 246.35l-45.57 109c-1.08 1.78-2.8 4.02-3.87 5.8l-45.69 79.86c-1.54 2.45-6.09 9.29-7.61 11.74l-99.35 129.69c-1.02.73-3.67 1.92-4.66 2.59l-50.21 47.18c-25.61 29.37 15.77 31.26-45.36 36.33-4.81 55.3-1.92 19.87-20.14 31.58-1.19.76-3.99 2.04-5.24 2.77l-67.71 46.56c-1.64 1.2-4.02 2.97-5.63 4.14l-31.64 21.82c-.67.5-2.56 2.36-3.2 2.86l-140.44 71.06c-52.01 17.28-86.69 2.54-112.38-35.86 69.05-72.82 164.21-84.73 164.21-270.51 0-99.47-84.29-265.2-207.98-244.54-85.63 14.3-233.15 111.33-292.12 169.45-65.59 64.72-43.12 56.35-82.23 129.63l-115.81 232.63c-17.05 35.49-17.84 44.41-37.97 77.91-23.57 39.22-15.33 52.1-30.71 85.34-28.12 60.9-7.75-30.85-54.22 32.61 28.81 3.15 16.43 4.11 25.78 14.97 21.27 24.63-.2 29.67 41.81 33.34v28.96c30.95 2.71 37.3-4.17 38.67 57.98 40.44 3.53 27.56-.23 34.23 25.47 8.51 32.63-49.62 177.96-63.22 206.37l28.75 5.66c1.37.29 4.2 1.01 5.57 1.34 1.31.29 4.14 1.07 5.48 1.36l92.83 15.13c17.86 3.35 23.89 7.46 42.25 12.93 43.99 13.11 5.15-13.17 65.12 9.18l63.86-.87c52.22-.99 113.43 18.15 163.46 5.56l97.73-5.85c12.93-1.29 7.89-.56 17.27-3.03l195.6-34.07c21.33-4.02 17.77 1.49 40.03-3l32.26-12.18c58.3-20.13 112.06 71.51 155.79 103l47.99 38.99c50.46 43.47 109.61 71.53 163.08 107.37l-27.97-90.94c-.27-1.34-1.08-4.11-1.34-5.45l-4.9-51.28c2.3-21.38-2.8-17.71 19.52-39.27 34.21-33.13 64.13-35.06 70.22-35.2 13.64-.29-.41 4.6 19.32-2.97l80.83-34.71c1.31-.32 4.1-1.13 5.47-1.42l71.56-10.96c1.63-.46 4.2-1.57 5.98-2.04 61.88-16.37 145.83-2.82 205.29 8.66 89.57 17.27 37.74-10.87 77.62 4.74 0-55.56 81.5-258.41 102.8-331.95l110.69-325.17c18.33-53.84-12.5-41.95-19.67-106.67-4.66-42.48-5.21-86.33-48.89-86.33-68.21 0-149.97 11.39-207.13 53.73-24.54 18.21-5.04 4.84-24.65 23.63-10.29 9.85-12.91 10.98-26.02 22.26-169.93 145.74-137.41 277.15-186.56 277.15-50.94 0-45.98-71.65-58.02-116.52l-8.77-56.61c-.23-1.11-1.22-3.82-1.45-4.9l-12.42-149.03c.33-41.93-6.38-49.85 8.8-91.69l4.7-14.57c.05-.91-.15-3.62-.21-4.49-.09-.93-.84-3.64-.99-4.57l111.42-383.53c19.73-31.79 21.94-57.66 45.86-89.92 1.2-1.63 2.91-3.87 4.14-5.53l8.16-11.37c14.07-20.13 17.13-44.14 35.51-57.1 6.85-4.78 2.1-3.82 17.81-5.22 2.53-23.1 3.03-14.19 5.97-22.03l116.2-126.28c31.46-26.86 19.29-40.29 61.39-44.9 4.63-42.16 6.61-25.78 47.9-48.68 112.85-62.7 319.86-56.24 396.55-8.95 17.04 10.52 24.82 23.22 33.48 28.41l111.3 58.22c6.88-25.76 27.01-57.23 36.6-79.31l219.48-563.01c12.74-27.3 6.73-2.33 18.04-39.89 20.48-67.95 54.28-631.31 54.28-689.58 0-62.09-14.89-133.39-18.97-193.56-4.6-68.56-21.62-326.04-36.01-369.74L23080.22 7262c-49.36-83.45-84.24-183.53-144.29-261.44l-173.74-241.64c-61.48-72.14-228.73-266.48-298.25-310.3l-532.76-365.64c-50.41-36.59-101.22-56.26-140.7-81.44-2.42-1.57-8.8-6.55-11.16-8.18l-47.47-29.78c-1.95-1.02-4.45-2.27-6.41-3.26l-25.52-13.12c-8.57-4.4-9.06-4.28-19.17-9.84l-675.94-347.98c-11.19-4.84-19.56-7.58-33.42-14.89l-288.17-127.19c-34.2-9.9-39.86-11.07-69.11-27.47-45.89-25.73-96.85-38.87-145.65-57.23-18.33-6.93-25.73-8.18-42.31-15.61-136.88-61.37-281.11-81.76-421.99-128.67l-245.42-63.66c-29.19-7.17-46.76-15.8-78.17-18.42zm-5129.14-38.63c28.84-.7 36.33-5.98 35.25-28.03-1.02-20.9-10.4-19.76-25.58-29.93-17.02 25.35-25.32 25.38-9.67 57.96zm3834.77-38.64c17.16 8.25 63.46 16.38 43.73-24.12-10.25-20.98-5.53-19.79-26.42-8.8-28.41 14.97-12.36-12.68-17.31 32.92zm-4626.83 125.58c11.92-24.82 13-50.9 25.85-80.42 13.78-31.73 24.12-34.61 32.11-64.48l-222.2 48.31c32.43 22.49 81.9 25.61 132.98 69.87 16.61 14.42 12 13.84 31.26 26.72zm5409.21-154.57c1.54 2.85 4.63 11.3 5.62 13.72l33.01 111.86c43.53-11.6 24.97-24.83 71.48-44.49 48.33-20.46 45.6-.85 73.45-42.46l-183.56-38.63zm-2888.09 164.24c-18.8-28.06-16.73-17.77-40.12-37.2-68.3-56.76-84.06-103-108.83-160.99-28.61-66.98-24.94-108.97-24.94-188.25h-9.67c0 77.36-15.68 117.19-30.89 181.64-12.24 51.54-17.63 113.69-32.34 170.57-44.26 171.38-62.44 348.97-84.21 524.37-6.38 51.31-19.49 114.13-29.31 173.51-19.05 115.09-65.03 627.29-64.48 756.65l-11.33 191.58c-20.19 184.46-39.39 833.83-8.22 967.45l7.9-11.39c36.54-53.76 19.2-38.72 42.86-92.39l30.13-47.17c25.55-39.37 4.05-19.44 25.34-61.54l127.94-190.88c9.09-13.49 6.41-11.16 15.97-22.69l104.22-127.59c1.4-1.4 3.7-3.15 5.1-4.58 1.4-1.4 3.53-3.32 4.9-4.78l48.68-57.54c1.4-1.4 3.44-3.44 4.78-4.87l74.8-70.13c-52.62-12.27-114.71-47.87-154.81-77.04l-141.51-138.6c-33.51-48.78-38.03-49.39-62.74-111.19-37.17-93.09-28.84-91.08-41.54-181.28-10.96-77.8 6.17-174.33 32.6-245.31 9.82-26.28 1.22-10.43 9.09-33.42 27.68-81.49 179.22-268.08 271.96-275.81v-28.99c-19.49-7.05-9.9-3.81-24.53-14.07-85.63-59.85-81.87-86.42-119.9-150.58-61.24-103.23-63.43-248.07-21.03-377.58l74.29-128.58c1.26-1.52 3.21-3.61 4.46-5.16l125.38-116.17zm-1970.55-251.18c-87.64 0-84.32 12.23-96.62 28.99 52.3 13.95 33.54 35.78 85.29 48.01l11.33-77zm4366.05 48.3c31.59-8.45 41.84-24.24 57.93-48.3-37.53-3.12-25.15-8.72-67.6-9.65 0 40.09-3.61 34.35 9.67 57.95zm-6819.54 48.31l93.06-42.19c1.49-1.28 3.7-3.14 5.13-4.51 46.01-43.77 58.22-142.83-1.19-195.25-163.23-143.93-309.11 89.39-191.02 200.69 11.45 10.79 79.02 41.26 94.02 41.26zm9292.32-328.46c-82.95 0-147.64 62.74-152.36 137.24-7.95 126.8 158.77 188.75 237.12 102.09 94.69-104.74-1.11-239.33-84.76-239.33zm-4762.08 135.26c0 35.63 22.49 73.95 40.94 94.34 19.26 21.36 57.43 40.88 94.31 40.88 168.53 0 186.3-270.48-9.67-270.48-40.76 0-125.58 66-125.58 135.26zm2627.35-309.14c-21.91 31.58-29.81 93.23-67.37 135.45l-106.49 96.39c95.42 0 182.66 21.67 270.45 28.99-21.89-82.11-79.31-53.26-96.59-260.83zm-6220.64 115.9c0-47.29-44.26-89.77-88.22-90.79-62.97-1.45-126.31 88.64-67.72 149.91 8.68 9.06 38 28.55 55.16 32.08 20.42 4.22 100.78-15.53 100.78-91.2zm7399.1-19.32c0 31.09 10.23 44.79 33.68 63.41 1.64 1.31 3.88 3.08 5.63 4.31 25.93 18.21 37.7 20.39 65.85 9.64l41.52-27.47c52.38-54.69.05-146.47-59.76-146.47-61.36 0-86.92 46.38-86.92 96.58zm-4027.95-28.96l-2579.09-86.94c-88.52 0-84.53 145.45 10.51 139.21 34.41-2.27 60.37-36.36 61.86-73.1 1.81-45.07-25.87-66.11-72.37-66.11l2579.09 86.94zm3129.64-48.31c0 4.84 25.78 38.35 32.98 44.99 79.75 73.16 183.91-97.14 34.64-131.93-15.99 10.69-28.9 17.13-44.34 32.95-17.08 17.54-23.28 22.38-23.28 53.99zm-2115.42-9.67l211.16 687.28c12.85 95.54 24.94 102.47 46.88 184.9l50.32 171.91c10.22 46.44 18.85 67.51 33.53 111.36l193 705.37c12.48 45.13 12.65 84.84 26.37 128.23l58.36 221.73c23.78 81.99 47.79 420.01 47.21 533.11-.24 54.81-10.23 79.96-10.09 134.82.21 78.23-11.1 209.73-18.99 260.4l-45.63 254.62c-10.37 36.07-30.1 80.71-37.5 117.07-12.59 61.95-15.91 89.77-40.21 143.36-22.03 48.62-23.16 87.09-45.07 138.45l-11.16 27.51c-4.02 13.49-3.82 7.28-4.2 24.76 45.92 22.03 110.4 20.31 162.26 40.97l54.81 25.9c9.91.88-1.78-5.65 27.3 6.76 46.74 19.99 72.49 28.67 119.84 65.59 31.18 24.33 12.21 18.53 40.82 24.13 45.11 8.88 70.54 52.88 95.75 90l7.22 10.43c.7 1.25 2.16 3.76 2.8 5.01.64 1.17 1.8 3.73 2.33 4.9l76.34 209.14c7.08 27.24 11.59 59.32 15.56 83.27l-6.47 303.64c-.32.84-1.43 3.32-1.75 4.1-.32.76-1.72 3.09-2.01 3.79l-12.73 69.29c-.27.96-1.14 3.61-1.46 4.54-.23.91-1.05 3.47-1.28 4.35l-41.84 117.24c-6.73 19.99 3.26 2.22-11.05 24.13l-53.11 91.08-267.33 274.29c-84.06 59.47-148.54 22.7-234.96 15.5 0-120.45 40.09-121.09-.73-250.46-71.44-226.07-285.22-169.6-415.6-59.64-80.89 68.21-118.65 158.21-145.31 260.42l-28.84 320.8c3.61 43.39 4.25 29.28 39.13 38.75 35.66 9.7 31 13.46 56.78 39.83l15.45 13.52c1.45 1.37 3.78 3.06 5.18 4.46l72.06 92.19c1.08 1.83 2.39 4.37 3.49 6.18 1.08 1.74 2.6 4.19 3.73 5.91l21.3 27.01c1.26 1.54 3.29 3.55 4.55 5.13 1.25 1.57 3.17 3.64 4.34 5.27l7.87 11.45c1.1 1.84 2.3 4.46 3.38 6.3 23.77 40.23-25.64 26.6 34.46 33.18 0 9.65-9.84 195.92-11.18 201.37-8.98 37.03 1.22 3.87-20.69 37.23-5.1 7.72-5.8 9.36-11.28 17.72l-15.44 23.22c-21.12 35.84 13.87 33.57-37.99 39.25v38.63c139.42 0 258.18-6.32 386.67-9.35 107.6-2.53 394.16-74.71 508.12-119.75l32.66-15.59c2.1-.93 4.51-2.21 6.58-3.09 2.19-.87 4.69-1.95 6.94-2.77l182.74-78.05c1.78-1.08 4.08-2.71 5.83-3.82 34.56-21.3 90.94-53.64 135.84-57.37 10.02 24.79 33.91 25.58 57.66 38.9l106.81 67.04c30.83 19.43 64.1 22.26 94.87 40.41l220.51 94.46c.81.09 3.29-.2 4.02-.14l13.66.44c31.59 8.27-4.89-2.28 27.48 14.24l349.23 76.57c29.37 3.24 27.28 3.24 62.68 6.18 3.76-45.16 14.97-47.2 28.67-87.29l33.48-82.43c13.75-31.5 18.91-52.62 31.49-84.41 22.15-55.97 28.06-37.09 31.97-83.97 30.27 13.98 60.66.96 106.26-9.67l51.45-441.6c6.73-72.87-48.42-212.2-93.7-269.66-36.25-45.92-50.38-179.02-240.87-124.04-36.31 10.49-74.27 27.95-99.27 57.58l-36.37 49.7c-30.94 50.53-41.87 49.89-52.62 131.67-16.52 125.67 40.01 132.43 46.36 190.62h-106.26c-13.9-59.68-19-35.43-52.62-92.31l-37.36-59.26c-6.67-14.13-7.4-20.31-13.66-34.59l-78.88-211.24c-9.32-31.12-8.27-29.78-3.81-59.26 4.02-26.37 7.69 3.7-1.31-23.81-.15-.32-8.6-20.71-9.01-22.46-3.43-13.78-1.22-12.97-1.77-29.23-1.72-50.14-11.89-7.98-8.57-81.99l9.64-104.69c2.51-65.67 13.93-133.24 40.21-211.15l134.32-261.74c44.17-63.25 25.5-49.82 98.92-123.27l155.97-134.85c67.89-35.75 108.83-76.37 202.15-76.95 81.06-.52 261.5 1.95 328.84 48.75 54.22 5.91 5.3 1.89 36.1 12.21l99.12 45.89c132.81 92.1 52.8-50.32 129.05-189.89 10.26-18.79 13.02-25.2 19.26-48.36l25.79-71.62c1.31-2.8 7.69-16.79 8.68-18.5.73-1.29 2.15-3.82 2.88-4.99.67-1.02 2.3-3.26 2.97-4.19l57.05-103.09c5.19-8.89 5.19-9.88 10.93-18.56l33.97-43.56c24.25-46.65 50.5-66.25 79.87-102.03 1.19-1.43 2.85-3.91 4.05-5.45l129.45-132.81c2.22-1.57 9.06-5.39 11.16-6.7l13.99-8.39c.81-.56 2.91-2.36 3.64-2.92l49.74-22.52c24.09-10.66-9.62 4.61 13.34-7.63 12.53-6.67-1.43-.41 15.68-7.93l41.2-20.95c.75-.49 3-2.01 3.75-2.47l87.38-56.67c-16.2-30.57-16.72-49.71-34.32-81.64l-112.58-206.21c-40.04-75.93-114.6-161.12-147.17-229.53l-182.14-252.59c-9.9-10.93-13.34-13.99-23.04-25.26l-402.88-456.87c-25.03-25.58-26.77-30.39-54.19-52.06l-126.34-115.15c-6.26-5.22-8.59-7.11-15.88-13.11-10.81-8.89-14.86-12.18-26.4-21.89l-96.29-77.59c-4.81-4.05-22.06-20.54-25.15-23.16l-57.43-48.8c-17.86-17.46-38.05-34.33-58.65-47.61l-78.08-57.17c-4.29-3.23-12.5-9-16.76-12.24a516.5 516.5 0 0 1-5.45-4.16l-208.21-158.89c-1.66-1.19-3.93-2.88-5.62-4.08l-11.31-7.95c-8.48-5.8-9-5.54-17.57-11.45l-274.06-199.94c-10.89-7.28-2.47-.64-16.69-11.71-5.65-4.43-9.67-8.54-12.53-11.22l-33.51-26.02c-.9-.7-3.17-2.5-4.05-3.2l-224.18-119.87c-1.89-1.05-4.31-2.45-6.26-3.44l-73.69-34.06c-73.63-56.35-92.91-52.62-158.59-100.7l-97.61-56.96c-43.93-33.16-92.16-54.31-133.76-88.4-77.45-63.4-171.5-116.11-247.96-177.09l-391.51-332.98c-1.45-1.34-3.49-3.35-4.95-4.69l-113.02-109.2c-24.62-23.02-28.61-39.16-56.85-49.39zm-11.1-18.82l11.1 18.82-11.1-18.82zm-2886.72-29.46c-10.93 42.51-17.8 33.1 19.35 57.95 38.78-25.99 53.37-56.35-19.35-57.95zm1883.6 106.26l86.57-87.29c14.51-10.72 17.45-13.23 38.98-18.97-13.2-49.5-8.53-11.77-41.84-45.07-33.3-33.31 4.43-28.67-45.07-41.87-3.3 39.42-37.53 143.58-38.64 193.2zm2501.77-106.26c38.49-3.29 31.44-3.82 48.31-28.99-10.78-40.35-4.37-20.48-38.64-38.64-17.07 25.5-30.88 29.9-9.67 67.63zm-3699.55-96.62c3.73 20.28-9.79.59 9.85 1.81 10.84.67-15.04-29.98-9.85-1.81zm-2163.69 3960.79l61.56 121.97c.12.26 7.72 17.45 8.95 20.02 46.44 98.19 29.63 227.79 101.28 175.6l51.8-36.01c39.63-26.54 111.04-44.99 153.9-58.59 93.68-29.78 345.13-44.96 424.47 18.27l97.4 68.64c4.28 2.27 14.07 5.68 17.51 7.84 20.51 12.79 4.87 2.59 11.95 10.43 46.96 51.72 99.85 91.66 147.75 150.49l33.83 43.44c1.16 1.64 2.85 3.97 4.05 5.6l158.47 311.18c10.64 38.49 5.83 70.66 19.38 109.5 23.13 66.25 5.62 150.69 6.84 217.44l-88.8 344.11-118.85 209.64h-96.59c4.05-48.81 22.52-58.98 28-97.58 2.68-18.77 2.77-104.95.17-123.78-5.53-39.83-47.61-113.63-68.9-132.51-20.11-17.89-14.25-27.48-80.92-65.44-61.24-34.82-140.44-32.23-189.85 1.51-49.24 33.66-50.99 57.14-80.48 103.03l-60.89 113.02c-22.41 42.66-16.06 48.78-31.91 94.44-14.45 41.49-15.5 25-6.55 85.92 20.71 141.31 24.65 289.56 56.64 427.12 24.97 5.82 89.83 9.09 109.67 24.97 23.83 19.05 121.12 274.14 122.17 322.8-34.88 9.33-28.18 15.18-47.06 39.86-36.16 47.17-92.33 76.34-136.47 114.71 80.76 0 137.35-4.6 211.76-10.4 155.77-12.12 529.8-66.49 651.41-131.03l19.09-9.88c3.87-1.66 17.97-6.41 21.56-7.45l454.21-202.62c21.24-12.7 14.74-1.37 23.25-25.03h38.7c12.29 30.54 84.08 36.63 105.67 48.83 96.51 54.61 238.87 77.1 345.57 98.81 162.55 33.1 123.45 18.61 264.94 34.49 81.2 9.12 211.53 1.4 298.04 1.4l-13.2-15.76c-1.23-1.46-3.15-3.76-4.37-5.27l-70.19-103.7c-30.45-37.76 21.3-23.37-37.85-29.81 0-50.93-3.32-114.48.38-163.86 4.19-54.63 18.99-76.14 18.99-145.28 69.14-1.54 26.26-3.52 37.91-20.02 1.63-2.33 4.81-10.54 6.35-12.96l64.83-70.45c26.75-18.19 8.83-19.41 55.04-31.85 27.97-7.55 51.95-9.65 87-9.65-9.52-114.36-.67-281.02-43.91-390.78-17.83-45.16-47.08-106.9-73.25-139.3l-55.88-50.41c-1.49-1.28-3.67-3.14-5.16-4.43-1.54-1.31-3.73-3.14-5.24-4.42-55.54-47.41-132.31-96.3-211.45-93.21-103.61 4.02-136.33 54.48-184.84 131.75-66.67 106.18-11.42 185.23-9.53 270.65-43.88 10.23-130.88 47.09-172.66 31.3l-42.89-27.45c-2.3-1.57-9.24-6.41-11.69-7.98-16.75-10.78-21.79-12.01-36.88-21.51l-91.81-72.4c-1.58-1.25-3.88-2.91-5.42-4.25l-138.23-161.19-125.66-269.6c-.32-1.11-1.29-3.7-1.55-4.75-.32-1.08-1.22-3.7-1.54-4.75l-17.83-119.11 58.71-446.81c.84-1.43 2.59-3.91 3.32-5.33l59.7-125.55c22.38-36.13-16.14 20.51 7.25-12.07 20.23-28.23 125.53-95.48 159.29-101.54 9.85-1.78-12.03 12.01 20.98-7.28 112.65-65.79 124.21-45.34 179.75-60.9.32-.09 17.92-9.64 25.49-13.29 88.84-42.68 182.14-33.91 286.24-33.91-6.09-73.37-55.53-164.77-82.8-236.01l-71.07-247.69c-4.43-50.78-.7-33.68-12.67-74.3-30.68-104.19-64.89-377-65.56-475.42-.41-67.48-9.35-93.01-9.79-154.54-.41-64.08 9.06-93.04 10.31-144.93 2.68-109.5 17.92-188.05 27.22-281.93 17.95-181.02 104.89-454.94 148.94-643.19 8.51-36.51 27.6-83.59 34.97-119.61 11.27-55.15 15.15-85.57 30.07-134.14l153.2-552c24.97-142.42 86.48-287.11 121.56-429.09l108.91-364.42c7.14-19.87 15.62-38.37 21.12-56.14 7.87-25.03 7.23-35.2 14.57-62.74 11.86-44.6 26.95-39.77 35.67-79.33 6.32-28.53 1.02-27.51-12.24-19-35.2 22.61-78.23 75.32-110.78 107.6l-278.93 281.34c-1.42 1.34-3.52 3.3-4.98 4.64l-155.7 143.76c-.88.84-14.08 12-15.83 13.2l-188.42 149.64c-51.84 43.88-116.81 76.81-169.46 120.34-83.97 69.55-181.7 120.42-270.54 183.47l-34.87 23.05c-21.57 10.95-15.8 4.57-38.93 19.08-2.42 1.55-9.03 6.3-11.33 7.96-1.69 1.16-3.88 2.94-5.54 4.14-2.3 1.69-8.65 6.73-10.96 8.39l-929.28 606.62c-1.66 1.2-3.94 2.86-5.6 4.02l-129.63 102.22c-16.72 14.86-19.4 15.18-34.7 23.28-74.71 39.68-138.31 107.54-202.62 164.47l-10.4 8.92c-1.48 1.31-3.7 3.15-5.24 4.4l-10.64 8.65c-1.57 1.26-3.81 3.06-5.42 4.29l-74.59 60.6c-1.6 1.25-4.02 2.83-5.62 4.08-1.57 1.25-3.88 2.94-5.45 4.19l-167.59 160.87c-4.93 4.69-11.28 10.78-14.83 14.1-1.52 1.34-3.7 3.18-5.19 4.52-1.49 1.34-3.64 3.17-5.13 4.51-1.45 1.34-3.58 3.24-5.04 4.61-1.48 1.37-3.61 3.29-5.01 4.66l-342.24 391.95c-1.22 1.54-2.97 3.84-4.23 5.39-1.28 1.51-3.17 3.7-4.45 5.21l-92.05 120.51c-42.33 56.18-155.18 200.84-184.78 269.2l-47 68.9c-8.45 16-8.1 19.26-19.9 38.12l-120.39 217.65c-6.82 19.34-7.49 25.96-14.28 43.7-11.77 30.6-24.42 39.16-27.68 78.58 46.91 22.12-43.53-14.48 13.93 3.85l68.41 36.8c4.6 2.16 12.33 4.69 15.04 5.54l18.26 4.63c.94.26 3.73.99 4.72 1.28l29.32 15.5c.67.55 2.5 2.62 3.17 3.21l65.82 30.36c3.35 1.72 22.58 13.46 23.54 14.13l15.65 12.09c1.11.9 3.21 2.91 4.23 3.76l121.06 109.23c32.54 27.3 18.85 30.42 44.55 56.41l60.11 70.74c.73.88 2.77 2.8 3.52 3.68l43.71 69.43c18.73 28.44 31.5 30.77 34.88 71.38zm4066.58-4125c-2.36 28.67-9.24 61.94-17.04 88.14l-5.42 16.43c-.44 1.19-1.2 3.85-1.61 5.04l-15.58 33.51c-19.06 32.46-64.48 87.12-95.54 98.36l105.56 97.29c105.12 114.83 119.87 272.17 72.05 418.52l-57.98 106.23c-28.76 34.91-81 66.23-90.64 102.51l90.99 63.52c1.43 1.39 3.47 3.43 4.87 4.83l71.59 92.63c28.7 36.33 31.84 67.48 49.27 114.94 34.26 93.47 22.78 190.21-6.27 282.4l-43.82 73.62c-.23.5-1.05 2.6-1.22 3.09-19.99 56.73-39.43 87.76-137.18 159.35-4.69 3.38-13.69 12.44-18.62 17.1 41.52 3.44 50.58 15.36 76.31 39.6 1.49 1.37 3.44 3.47 4.9 4.81l70.86 64.33c1.4 1.4 3.61 3.27 5.04 4.66l64.68 80.16c50.58 77.24 96.94 192.74 96.94 318.44 0 388.5-309.17 483.46-347.66 540.98 7.11 26.83 34.18 50.35 53.35 72.23 16.61 18.99 3.58 4.11 19.05 19.61 52.33 52.5 28.97 76.25 82.14 82.05 3.73 45.1 31.79 63.54 56.47 98.07l7.87 11.42c1.19 1.69 2.76 4.05 3.99 5.71l108.97 180.8c1.11 1.8 2.59 4.16 3.64 6.03 10.58 18.94 13.87 33.59 24.5 52.76l106.18 231.96c.93 1.98 2.39 4.31 3.41 6.24l10.72 18.26c1.37 2.63 5.16 10.17 6.38 12.94 15.04 35.23 21.62 85.84 33.54 121.01 14.42 42.48 30.3 70.8 30.3 124.24h9.67c0-67.78 10.2-94.2 9.82-164.1-.32-50.03-3.67-115.47.35-163.84 17.34-209.67 9.18-451.38 9.18-667.08l-103.76-1239.07c-4.37-35.11-.99-64.8-6.26-99.97-21.91-146.65-41.87-302.85-76.95-444.74-6-24.33-10.2-65.82-13.02-83.57-6.33-39.77-9.94-51.92-17.98-88.25l-33.68-178.85c-6.15-29.66-13.14-47.52-21.48-75.14-16.9-55.62-18.97-124.47-35.78-176.77l-66.95-242.13c-10.52-33.68-7.61-54.08-16.5-89.8-14.45-58.27-42.33-92.48-42.33-160.51h-19.32zm-405.67-38.67c0 97.2 206.49 16.09 48.28-67.59-1.72 1.48-4.28 3.35-5.42 4.22-34.73 27.74-42.86 29.87-42.86 63.37zm608.52-9.64c9.94 22.26 9.67 45.13 9.67 77.27 54.72 6-6.9-9.64 79.05 56.15l32.81 25.17c1.63 1.22 4.02 2.8 5.62 4.05l776.85 585.18c84.93 44.84 96.53 83.33 177.85 102.3-12.79-60.46 7.92-115.29 48.57-163.95 25-29.84 17.51-8.04 28.73-38.93-90.41-21.06-242.89-81.87-330.21-123.83-29.08-14.01-52.27-18.62-81.17-34.76l-212.41-125.64c-27.53-16.78-43.33-29.51-68.82-47.11l-213.43-124.68c-83.5-52.41-109.96-47.05-171.15-108.97-4.19-4.22-11.89-12.38-14.19-14.83l-67.77-67.42zm-2240.93 869.44c39.1-3.26 51.74-17.54 78.66-37.21 48.92-35.66 101.2-56.84 147.82-93.67 8.12-6.44 2.44-2.36 10.75-8.6 15.93-11.97 24.79-16.43 40.88-26.72l538.79-398.24c1.55-1.28 3.76-3.06 5.33-4.31l169.87-148.92c1.55-1.28 3.85-2.97 5.42-4.22l74.36-60.87c1.54-1.31 3.58-3.26 5.1-4.6l170.94-146.79c15.62-13.87 7.4-2.68 12.79-15.74.21-.52 3.27-16.81 5.16-25.26 24.97-113.63 48.98-159.58-62.59-33.65-12.06 13.58-8.07 8.48-18.82 19.81-1.4 1.43-3.47 3.41-4.78 4.87-1.37 1.45-3.32 3.52-4.69 4.98-1.31 1.49-3.17 3.7-4.46 5.19-6.14 7.02-11.04 14.3-17.71 20.97L15787.38 4305l-451.8 272.69c-123.8 81.29-466.1 265.76-600.62 268.76 9.76 36.51 6.79 20.57 32.49 44.78 49.79 46.94 64.13 88.31 64.13 167.74z" fill="#d7b56d"/></svg>