<svg xmlns="http://www.w3.org/2000/svg" width="320mm" height="150mm" viewBox="0 0 32000 15000" shape-rendering="geometricPrecision" text-rendering="geometricPrecision" image-rendering="optimizeQuality" fill-rule="evenodd" clip-rule="evenodd"><path d="M7688.76 12286.38c0-288.04 210.57-66.84 331.39-39.28l710.96 144.37c145 25.49 281.55 71.14 438.49 83.2l2107.97 270.7c193.58 9.42 470.19 4.82 655.66 32.9 116 17.58 228.55 2.19 345.98 8.73l816.51 32.45c141.26-.92 415.18 10.05 623.22 9.3l604.62 21.13c183.41-.4 366.82-8.38 548.45 12.75 100.38 11.71 3234.4 20.04 3462.6-6.95 75.05-8.9 148.27-6.2 225.04-6.03 159.41.35 321.58 2.81 480.7.86l1571-47.08c103.48-.75 222.29-31.99 326.85-37.33 467.95-23.66 844.82-52.95 1302.26-116.46 130.18-18.08 234-17.28 361.37-35.14 30.66-4.36 126.85-26.93 156.77-30.89 61.73-8.16 115.19-2.82 177.38-10.51 99.63-12.29 213.56-51.74 318.76-56.91 247.67-12.06 433.66-73.79 667.84-83.26l641.76-109.4c158.32-37.32 519.92-93.48 672.26-57.99 85.74 178.58 7.24 244.05-200.63 300.21-113.93 30.78-1481.14 144.59-1671.44 167.91l-1021.8 99.34c-64.89 7.87-203.79 13.21-334.66 22.45-87.52 6.15-198.63 5.69-337.94 16.65l-692.3 56.62c-81.37 2.01-63-8.55-120.25-3.67l-566.43 28.48c-147.86-1.15-216.26 22.22-375.03 21.42-435.5-2.24-625.12 20.67-976.9 7.64-73.27-2.7-191.96-2.53-278.5 5.05-446.53 39.11-2525.38 8.04-3147.4 8.04-376.41 0-737.49 21.25-1115.8-9.36-417.41-33.77-1399.53 19.24-1861.34-2.93l-1065.15-35.08c-170.49-34.46-135.35-36.7-340.01-35.61-177.49.98-288.84-26.3-460.02-21.3-31.01.92-85.85 6.03-106 6.37-201.33 3.51-1038.45-82.75-1266.83-155.33-131.21-41.69-363.95-62.99-509.23-95.72-247.9-55.76-617.37-145.23-850.1-234.81-64.49-24.81-250.08-22.74-250.08-125.53zm2941.93-730.08c174.97-14.59 317.32-83.38 566.03-77.53 160.73 3.74 694.25-70.17 873.36-68.96 344.94 2.29 735.88-58.29 1033.51-56.68 67.3.34 108.36 9.19 163.54 6.32l2053.07-42.15c264.73-5.92 435.62 15.04 718.2-2.3l357.3 2.76c63.62-4.19 9.07-.58 59.77-.58 72.24.06 59.09 2.3 142.87 7.81 111.46 7.35 241.59 2.24 354.83 1.67l1459.25 63.97c116.34 8.9 208.45 19.81 356.31 19.12 207.02-.98 517.39 50.53 771.95 61.39 61.27 2.58 123.58-1.73 184.45 4.7l1253.1 123.41c127.31 10.51 172.73 40.48 335.64 40.48-73.27 50.88-192.02 48.47-333.69 63.97l-330.13 44.22c-306.12 36.29-341.1 57.48-652.73 77.06-266.28 16.71-530.54 13.96-772.99 41.17l-558.73 5c-916.14 39.16-2044.17 18.89-2964.45 18.89-132.24 0-132.99-21.07-289.81-15.16-429.71 16.2-912.64-22.45-1379.44-47.54-230.27-12.35-441.76-.35-542.71-9.48-182.32-16.42-438.03-36.87-626.95-51.85l-367.11-12.64c-54.9-5.22-90.27-8.84-153.21-9.24l-1169.9-112.61c-46.05-6.66-180.19-23.49-270.23-33.82l-203.11-11.26c-65.52-10.22-49.96-17.63-67.99-30.14zM25007.08 8448c0 221.83 11.89 414.26 83.38 563.22l-277.47-77.12c-117.83-47.84-163.2-40.32-285.8-68.91 41.69-56.91 10.68-14.82 58.4-45.77 94.12-60.98 178.36-101.24 254.85-183.3.4-.45 17.74-20.55 29.51-33.13 3.05-3.1 7.24-7.64 10.11-10.68l127.02-144.31zM7146.1 8823.5c0-119.79 18.95-159.41 20.9-250.37 49.5 33.08 61.96 55.7 113.07 95.67l116.46 92.11c-112.27 9.3-159.07 54.95-250.43 62.59zm16108.29-271.21c-235.49 0-135.4-22.74-274.66-48.18-54.61-10.05-5.68 19.98-80.16-14.42l121.51-170.66c45.54-69.25-34.05-.52 45.48-58.8 69.37 103.53 15.22 82.06 132.88 221.83 28.6 33.88 33.02 37.49 54.95 70.23zM8815.41 8427.1c23.2-99.28 88.55-163.37 146.14-229.46 27.85 104.28 71.73 48.35 83.38 187.77-105.2 8.73-100.78 41.69-229.52 41.69zm13479.14-41.69c-121.56-28.31-104.85-41.74-271.21-41.74 22.57-84.7 72.59-72.82 153.15-117.95 72.24-40.43 82.63-73.45 147.52-123.81l150.11-121.11c64.31-66.66 50.36-115.65 133.34-137.81 0 90.44-13.56 123.63-36.47 172.21-27.45 58.63-39.33 81.89-76.37 132.19-56.05 76.37-131.96 192.37-200.07 238.02zm-2629.03-855.32c19.64 73.5 11.72 36.29 55.41 90.72 25.85 32.45 38.19 51.23 64.72 81.26 51.34 58 98.54 102.21 159.75 153.15 24.52 20.33 13.79 10.39 34.06 28.54 3.33 2.87 7.58 7.18 10.91 10.1l21.24 20.39c3.16 2.81 7.64 7.12 10.86 9.93l162.85 129.84c.75 1.15 57.25 2.18-4.25 26.18-71.61 27.97 3.5 4.43-58.69-.22-218.09-16.37-335.18-44.57-518.82-48.76-127.48-2.93-176.46-29.4-274.37-39.62-125.41-13.04-175.72 3.1-289.59-23.43 24.98-69.14-30.43-9.88 58.34-66.9 110.09-70.86 312.56-177.9 405.93-261.62 69.83-62.48 55.36-84.82 161.65-109.56zm-7866.31 479.83l311.12-273.17c3.22-2.75 8.04-6.72 11.25-9.47 3.39-2.76 8.22-6.61 11.49-9.36 143.56-118.12 106.46-140.29 208.56-208.68.06 0 24.75 27.79 29.81 32.9l538.34 356.72c44.05 35.49 28.49-7.23 16.25 27.62l-274.88 17.29c-221.66 23.94-723.08 36.12-851.94 66.15zm3755.8-834.48c44.91 79.99 20.85 602.03 20.85 730.14h-605.02c41.4-56.45 39.28-28.71 117.72-111.8l30.55-31.99c2.98-2.99 7.69-7.12 10.85-9.99l123.63-126.79c33.71-40.31-15.21 17.34 18.78-22.86 3.91-4.59 15.28-17.8 19.41-22.39 89.58-103.77 128.46-181.98 195.82-304.87 22.96-42.09 32.32-73.79 67.41-99.45zm-6197.12 542.42c70.52 47.2 71.5 64.32 122.2 128.23 32.56 41.06 92.11 101.52 134.37 136.78 56.97 47.61 80.22 67.36 134.55 115.77 40.25 35.89 118.92 84.76 172.21 99v41.74c-52.83 1.15-236.82 25.21-271.21 41.69-20.96-78.49-37.67-63.22-88.95-119.67-106.64-117.89-147.98-320.08-203.17-443.54zm15899.62-166.93c2.06-2.07 6.2 3.33 6.2 6.26l-6.2-6.26zm-8909.65-312.9c74.31 54.38 15.33 4.13 57.65 88.37 24.98 49.67 24.24 44.16 55.13 91.02 177.9 270.06 355.45 439.64 388.01 488.16l-424.76 13.38c-129.89 7.18-86.82-170.43-82-382.79 1.84-87.57-14.13-203.28 5.97-298.14zm7386.42-333.75c92.69-24.75 263.35-101.35 396.34-104.34 35.43 132.71 31.64-23.66 43.13 250.31 2.35 53.81 16.25 179.05 40.48 229.52 145.57 69.89 241.76 33.83 354.65-41.74l-19.58 185.71c10.45 240.6 92.05 50.76-13.38 511.58-30.61 134.61-146.95 341.85-254.9 412.65-73.33 48.12-175.43 63.11-260.82 45.14-255.94-53.81-379.52-344.26-470.88-532.15-51.22-105.49-38.24-151.6-65.4-268.28 143.5 33.48 290.73 78.5 444.23 51.05 76.14-13.61 92.74-47.21 121.56-152.87 17-62.41 25.61-69.02 39.22-127.65-192.02-128.57-2.06-147.35-354.65-229.46v-229.47zm1126.66 125.13L7855.57 6758.25l-23.31 310.49c-34 235.38-238.6 202.13-394.04 127.6 7.8 91.93 28.99 65.58 13.43 178.59-30.55 222.8-45.36 303.48 30.55 528.52 54.1 160.45-7.52 41.64 90.62 201.39 127.88 208.1 192.08 238.83 428.89 238.83 98.31 0 312.56-265.3 361.49-347.88 108.7-183.64 54.89-63.05 108.13-246.46 110.42-379.74 19-126.39-311.93-166.7-171.81-20.96-158.37-17.17-197.19-160.9-43.7-162.23 72.24-350.58 310.72-350.58v-229.46c-224.64-52.31-262.26-119.56-417.36-83.44l17005.37 271.16zm-772.01-1043.05l20.85-20.84-20.85 20.84 20.85-20.84-20.85 20.84zm-16191.67-83.43c-92.8-7.76-128.17-67.25-210.86-81.14-135.35-22.69-268.86-.29-377.39 56.27-39.91 20.85-55.87 27.33-94.98 50.94-172.5 103.88-254.15 409.43-223.43 630.05 30.43 217.58 78.78 244.28 176.4 428.67-103.99-22.05-28.94-3.91-104.57 22.11-2.52.91-8.72 2.29-11.54 3.1l-25.72 5.34c-126.05 37.78-175.61 135.46-233.72 178.07 0-118.07-14.81-132.94-50.36-220.91-95.09-235.21-343.39-551.27-594.16-615.93l-290.97-126.27c-356.77-210.75-210.86-644.99-674.04-1224.45-36.87-46.23-78.56-122.83-124.5-146.66-26.93-13.9-207.24-40.54-248.24-43.93-187.83 354.88-284.99 534.85-249.33 1000.32 21.19 279.43 45.88 265.87 197.54 428.38l175.88 136.96c62.42 45.77 18.67 23.2 73.56 72.53l277.82 202.07c139.02 93.08 330.25 169.74 425.11 304.98l226.02 295.62c44.45 62.07 78.1 127.02 122.6 190.47 180.19 257.2 72.58 483.22 155.67 760.69 86.37 287.93 181.92 700.06 388.25 927.45l78.04 88.95c199.31 227.8-16.37 264.38 213.56 641.83l95.2 114.85c126.11 122.77 137.19-73.68 299.81 199.37l202.77 423.16c37.09 93.66 51.28 131.15 76.31 236.87 37.5 158.78 17.69 398.12 78.9 525.83-135.86 3.04-41.28 20.04-149.41 38.3-81.2 13.61-120.77-.69-188.24 20.33l-201.96 111.17c-92.45 74.65-181.34 185.48-228.95 292.63-83.43 187.84-116.97 461.46-14.3 654.18 55.99 105.31 178.54 291.94 297.29 328.52 293.43 90.38 901.55 256.85 1149.85 289.81l1424.86 244.28c147.58 15.74 248.99 6.72 390.77 27.51 51.68 7.58 131.9 9.13 167.04 10.34 76.38 2.52 101.07 20.9 170.78 26.41 467.83 37.16 1064.52 84.36 1522.42 84.36 555.35 0 1115.23-7.12 1670.11-.86 128.12 1.43 230.33 30.72 319.51 32.96 71.44 1.84 186.11-8.04 281.26-4.25 66.27 2.58 62.59 4.3 115.6 2.3 49.73-1.9 68.1-6.03 148.44-2.24l1033.05 13.78c397.03 0 837.35-24.41 1231.22 1.43 390.2 25.61 1095.54 29.4 1490.38 13.67 91.48-3.62 239.29 14.3 375.38-6.26 205.35-31.12 598.01-8.84 825.81-8.84l675.88-12.29c411.1-39.34 844.19-28.08 1243.57-71.15 48.92-5.28 58.69-6.2 81.25-6.6l3821.44-347.19c76.09-4.02 103.08-20.15 152-35.89 6.38-2.06 25.73-7.46 31.99-9.7 228.78-80.62 426.83-268.29 514-487.47 44.79-112.27 88.78-150.45 37.21-283.1l-69.88-184.1c-123.24-260.25-408.17-430.91-695.18-446.59-38.59-2.12-103.88 6.61-179.62 6.61l-89.92-181.17c-27.45-74.31-42.79-140.35-53.47-219.19-37.55-276.5 38.88-553.97 178.13-795.72l190.65-226.71c54.09-52.49 43.3 20.15 45.88-100.09 283.39-6.32 340.18 7.23 381.98-286.2 32.91-231.19-55.64-351.78-173.3-527.38 465.59-490.63 335.76-1542.98 395.59-1690.61 70.46-174 264.27-499.13 379.52-663.65l346.66-279.14c39.4-33.71 21.13-17.11 60.58-43.81l166.13-146.89c318.82-277.13 476.73-371.53 444.52-805.6-17.69-236.07-83.32-488.27-205.58-690.18l-126.79-206.95c-235.44 19.58-263.92 67.93-346.32 196.16-155.51 242.1-251.63 484.83-317.38 767.41-61.05 261.51-93.32 494.99-346.84 612.88-69.54 32.33-43.07 13.5-109.74 36.35-269.95 92.57-585.09 467.6-614.03 742.03-9.02 84.87-32.62 172.04-39.22 252.78l-19.76-63.74c-43.75-161.65-216.03-268.8-376.81-311.75 16.31-61.16 75.68-144.48 104.45-208.57 68.57-153.14 96.93-410.35 35.15-537.31-.35-.57-17.63-29.57-22.57-38.82-1.72-3.27-5-8.73-6.61-11.83-1.43-2.93-4.25-8.55-5.57-11.37-1.37-2.64-3.56-8.32-4.76-10.91l-21.59-54.44c-33.65-62.99-79.19-92.74-127.83-141.32-4.48-4.3-15.96-17.51-20.5-21.82l-238.54-113.12c-241.35-61.62-345.17 77.52-442.79 85.62 38.59-72.93 152.8-174.63 218.5-240.49 53.74-53.75 117.66-111.06 154.18-179.63 68.56-128.39 145.11-244.33 196.39-387.89 112.61-316.06 131.67-632.18 98.02-963.92l-200.7-717.85c-43.41-52.55-128.63-34.4-216.02-34.4-53.47 229.58-311.82 464.1-494.19 590.6-244.57 169.58-414.89 116.57-693.11 245.84-266.79 124.03-451.81 455.42-434.93 748.46 7.99 138.1 57.08 299.81 130.58 407.19 68.17 99.63 59.84 47.55 75.34 195.87 9.88 96.59 18.44 150.8 18.44 273.63-65.12-23.49-61.45-83.44-107.21-143.22l-404.95-346.09c-58.69-37.73-55.48-24.81-116.69-50.25-27.05-11.25-82.75-41-115.71-51.16-397.6-121.91-734.85-16.37-1059.47 184.9-93.43 58.11-182.61 174.51-220.16 280.34-83.95 236.07-94.98 424.88 25.55 642.52 145.97 263.57 403.35 458.3 494.31 757.36 15.16 49.21-3.45 27.05 22.85 81.54 116.11 0 155.28-34.28 220.28-113.41 59.03-71.66 151.37-271.33 129.15-379.63-13.15-63.91 3.73 13.21-22.57-62.59-10.68-30.49-13.09-51.57-26.3-78.73-55.76-114.73-125.53-60.01-29.29-241.75 137.24 0 272.59 69.08 369.87 151.65 150.45 127.77 132.25 157 214.3 328.12-198.28 0-296.02 9.31-344.25 222.41-34.63 152.4 136.9 257.43 281.72 257.43-42.72 159.92-322.38 380.26-459.45 458.58-147.64 84.36-478.86 191.05-659.45 117.61l-768.51-462.44-345.17-364.12 56.27-89.7c18.73-30.72 6.61-8.09 21.88-40.94 2.76-5.91 9.42-23.95 12.12-30.03 1.89-4.83 4.13-10.4 5.97-15.22 2.07-4.71 4.48-10.22 6.49-14.93 1.78-4.65 4.54-10.16 6.32-14.7l44.04-143.33c100.84-293.9 33.42-608.35-111.4-881.91-302.57 0-229.87-27.91-464.33 224.18-135.06 145.28-233.25 341.5-241.29 587.39l15.5 214.76c12.92 141.72-70.4 152.35-149.19 220.68-140.05 121.8-285.74 220.79-453.59 297.34l-402.77 139.83c-63.62 15.16-96.93 27.62-149.36 38.41-198.34 40.95-506.36 40.2-678-13.61-169.97-53.23-363.21-154.29-469.84-281.26-276.78-329.21-169.11-295.1-262.2-489.02l344.89-8.5c48.98-21.7 74.99-33.3 114.21-54.09 0-211.38 55.94-403.63-47.2-536.74-53.11-68.62 22.28-19.7-69.48-55.87-50.65-19.99-171.53-33.19-238.08-33.19 21.36-255.25 267.54-558.91 462.89-684.61 106.18-68.22 260.02-137.19 414.55-149.7 298.6-24.24 760.57 189.61 474.49 496.14-100.44 107.61-207.76 150.79-313.71 270.52-36.69 41.46-102.1 120.3-123 169-30.43 70.57-49.96 128.17-66.21 226.08-21.59 131.09-33.07 248.07-8.73 376.24 8.96 47.08 22.57 51.39 36.12 109.91 268.86 0 246.87-26.99 362.86-221.37l93.6-114.97c109.74-116.8 199.55-245.94 348.57-319.04l98.36-47.72c173.19-110.48 362-185.02 517.45-317.09l22.57-19.18c27.33-23.72 50.59-44.05 75.22-70.75 114.28-123.46 193.81-315.83 227.46-472.54 11.54-54.27 18.83-59.78 24.98-108.7 45.99-370.56-77.75-706.89-338.23-971.96-74.65-75.97-174.97-135.81-278.5-180.48-314.23-135.69-809.16-129.78-1133.49-14.19-70.17 25.1-35.78 19.93-99.4 46.58-165.61 69.31-435.45 215.05-563.62 333.57-63.22 58.4-82.23 92.45-136.09 156.02-27.16 32.04-45.83 43.41-71.44 74.65-89.41 109.57-369.52 616.22-428.49 739.79l-57.14 109.68c0-171.24 15.39-331.79 30.61-458.59l39.5-178.12c33.42-240.03 169.17-470.82 283.22-678.75l312.1-376.59c108.3-103.88 191.79-156.48 288.61-274.71l130.98-244.4c96.88-278.73 80.51-621.5-97.91-861.93-142.81-192.71-458.41-378.65-647.05-604.73-31.92-38.24-21.59-33.53-55.47-69.71l-668.18-959.15c-107.84-189.56 96.07-258.24-242.5-258.24-10.05 121.8-50.65 134.43-89.47 223.44-16.48 38.01 1.04 2.41-19.24 43.3-131.9 264.84-371.93 647.11-571.59 847.06l-141.38 150.68c-11.31 11.31-21.19 22.22-30.43 32.27-24.06 26.24-34.11 38.01-60.53 64.66-46.51 46.86-78.15 80.74-126.79 123.46-15.27 13.32-14.82 12.92-33.88 28.77l-34.51 28.02c-177.44 141.03-322.95 234.92-423.33 454.28-24.18 52.6-16.6 38.47-24.63 75.05-58.35 260.88-88.55 431.71 32.55 703.67l446.59 492.3c115.82 93.31 305.26 328.4 374.23 460.19 18.95 35.89 22.11 50.94 38.82 86.31l118 257.6c82.69 186.46 114.22 427.47 113.59 616.91-.35 92.97 7.64 274.48-27.05 422.98-80.22-92.28-116.8-675.36-482.07-1103.34l-175.32-179.45c-53.17-48.87-15.27-28.48-74.07-71.89-337.14-248.13-731.7-413.11-1156-392.73l-29.57.75c-66.67 1.84-65.58 3.39-111.81 8.67-177.84 20.33-330.99 23.66-493.1 113.64-31.98 17.8-57.71 35.43-86.94 58.98-125.98 101.29-160.38 154.58-261.33 281.26l-77.87 130.58c-139.19 314.86-155.27 527.04-56.9 861.82 54.61 185.82 162.91 336.79 303.82 468.12 109.34 101.87 242.05 164.69 374.47 230.61 136.03 67.64 257.66 136.78 373.54 231.59 442.16 362.29 249.62 550.46 659.51 550.46 84.01-174.91 74.65-450.77-9.76-636.83-10.4-22.62-14.59-37.26-23.66-59.77-137.47-336.39-521.52-392.61-525.43-635.4-6.14-362.46 639.07-405.81 919.64-134.25 96.13 92.96 179.34 216.71 262.54 321.63 37.16 46.85 99.69 114.9 130.18 161.93 48.76 75.74 78.9 109.22 81.09 210.86-57.03 0-100.09 3.16-131.73 14.3-76.95 26.99-96.19 116.11-127.31 185.59l-27.22 56.16c-74.65 118.76-46.57 54.33-12.86 230.79 24.23 126.22-5.23 62.65 72.92 135.69 48.64 45.31 56.97 73.33 123.35 85.28 45.37 8.09 174.28 1.43 228.09 1.43-17.34 208.34-250.26 462.72-408.11 572.34-223.9 155.34-527.1 215.11-811.75 167.45-302.56-50.65-591.52-109.39-857.51-269.2-19-11.37-20.84-11.31-39.62-22.85-154.81-94.58-278.85-222.29-428.55-322.55 0-340.53 56.73-638.44-227.06-920.45-3.04-3.04-7.58-7.24-10.45-10.28l-125.75-124.67c-35.38-28.36-4.02-6.08-36.01-26.7l-54.61-29.63c-4.54-2.18-9.76-5.05-14.24-7.12-109.05-49.84-84.64-7.64-220.51-7.64l-48.35 97.57c-9.65 19.98-8.27 16.48-19.06 43.58-68.74 172.27-95.5 354.13-84.36 545.01l24 150.57c100.96 345.86 102.74 263.57 232.05 456.63l-467.2 429.82c-86.19 65.63-177.84 104.16-268.8 169.34-100.66 72.12-198.63 97.79-306.64 152.4-144.82 73.22-387.84 19.7-540.41-44.9l-76.61-27.8c-157.05-57.82-286.31-171.29-397.72-290.68l-133.39-200.41c108.42 0 169.86-6.37 219.13-94l28.54-236.18c-33.02-93.49-58.63-66.44-80.85-149.65-96.99 0-161.25-11.83-229.53 20.9 60.3-258.29 305.9-500.67 584.35-500.67 126.44 238.99-203.51 263.57-3.33 670.76 33.82 68.57 89.18 125.93 128.4 184.51h146.14c9.82-118.99 180.6-393.3 270.92-480.18l112.15-138.11c252.15-232.39 292.86-742.43 85.39-976.49-176.46-198.97-373.94-315.02-647.62-353.9-285.11-40.54-425-34.05-691.79 76.6-131.67 54.56-297.97 169.98-393.12 274.55l-217.41 283.33c2.87-131.79 8.67-350.86 63.23-437.52 2.41-3.84 5.68-8.9 8.09-12.69l39.97-64.37c95.73-160.33 125.3-364.07 89.12-561.78-3.21-18.37-17.74-80.5-24.58-100.83-58.45-177.21-153.6-316.92-294.58-414.66-106.87-74.08-244.34-136.9-387.78-154.81-128.52-16.02-120.65.23-217.52-53.69-94.41-52.66-220.17-106.64-296.25-183.47-112.04-113.01-215.28-199.38-302.74-344.14-23.72-39.57-31.99-63.74-52.08-94.01-24.12-36.58-38.31-42.03-64.66-81.37-138.45 66.44-205.64-47.37-303.95 360.28-10.33 42.67-25.61 100.84-30.03 181.8-7.41 140.29-48.47 276.44-56.33 372.45-38.13 470.19 107.61 949.56 392.03 1315.99l290.39 314.51z" fill="#d7b56d"/></svg>