<svg xmlns="http://www.w3.org/2000/svg" width="320mm" height="150mm" viewBox="0 0 32000 15000" shape-rendering="geometricPrecision" text-rendering="geometricPrecision" image-rendering="optimizeQuality" fill-rule="evenodd" clip-rule="evenodd"><path d="M27906.08 9093.25c-492.68 333.84-536.61 1016.76-114.46 1427.2-258.07 316.88-1157.61 1221.48-1562.47 1307.92-2775.69 592.11-3396.1-3917.69-2832.8-5588.1 1187.81 57.77 1627.15-989.5 972.09-1713.6-331.55-362.53-861.34-427.53-1219.34-191.93-599.6 394.62-679.29 1110.27-318.42 1565.97-441.06 569.38-1017.23 1069.95-1520.62 1561.34-646.99 631.63-1227.9 721.39-2096.83 625.69-758.56-84.13-1242.31-738.19-1715.07-1258.79-723.28-796.57-1240.36-2031.98-1506.78-3064.68-101.15-391.98-103.87-598.88-93.24-610.17 24.48-26.03 242.23-39.73 505.78-250.18 1043.45-833.3 276.27-2736.27-1213.34-2296.91-770.9 227.38-1122.23 1261.13-701.4 1933.06 257.44 411.02 382.96 442.09 831.13 589.53l-664.9 2859.02c-183.41 749.58-566.37 1412.6-1251.77 1811.1-842.65 489.92-2024.7 556.24-2865.94 24.35C9955.21 7455.78 8820.45 6329 8579.2 6092.83c224.09-234.74 201.75-580.99 141.84-907.53-103.45-563.71-851.8-834.91-1360.89-625.42-669.58 275.66-787.94 1342.36-207.09 1757.98 165.94 118.75 450.27 235.63 661.92 209.81 104.35 1023.19 299.98 3541.14-213.62 4643.94-330.23 708.99-1339.54 1401.98-2109 899.37-160.51-104.86-1664.56-1318.33-1708.59-1392.25 27.94-258.88 163.42-405.78 16.82-794.09-283.28-750.08-1399.92-674.74-1651.22 15.23-289.7 795.46 472.95 1510.91 1311.6 1144.58 159.56 236.55 314.34 609.97 478.78 889.12 251.9 427.7 1291.29 2503.98 1438.22 2608.48 327.15-196.65 662.07-596.85 995.49-807.9 1065.04-674.13 1952.24-1343.2 3094.14-1839.52 533.28-231.89 1091.12-430.22 1594.5-656.11 1152.74-321.75 2555.71-702.76 3763.62-737.01 1438.58-40.7 2715.63-68.85 4158.89 231.3 1573 327.14 2529.02 788.51 3947.95 1325.94 516.86 195.73 1574.68 837.77 2347.8 1397.91 265.22 192.14 902.68 700.35 1136.78 829.52 255.42-392.59 649.12-1289.59 885.15-1763.58 282.54-567.49 592.17-1173.79 868.34-1763.07 1137.2-44.78 1282.19-811 984.87-1336.66-233-412.01-679.75-560.29-1249.42-329.62z" fill="#d7b56d"/></svg>