<svg xmlns="http://www.w3.org/2000/svg" width="37" height="40"><path fill="#1E2741" paint-order="stroke fill markers" fill-rule="evenodd" d="M28.813 16.893H11.625c-.38 0-.687.282-.687.63 0 .35.308.631.687.631h17.188c.379 0 .687-.282.687-.63 0-.35-.308-.631-.687-.631zm-17.188-3.786H18.5c.38 0 .688-.282.688-.63 0-.35-.308-.632-.688-.632h-6.875c-.38 0-.687.282-.687.631 0 .35.308.631.687.631zm17.188 8.833H11.625c-.38 0-.687.282-.687.63 0 .35.308.631.687.631h17.188c.379 0 .687-.281.687-.63 0-.35-.308-.631-.687-.631zm0 5.047H11.625c-.38 0-.687.282-.687.63 0 .35.308.632.687.632h17.188c.379 0 .687-.282.687-.631 0-.35-.308-.631-.687-.631zm0 5.047H11.625c-.38 0-.687.282-.687.63 0 .35.308.632.687.632h17.188c.379 0 .687-.282.687-.631 0-.349-.308-.631-.687-.631zm2.75-21.712V1.12H2v34.7h3.438v3.154H35V13.477l-3.437-3.155zM25.375 6.43l6.188 5.678 1.09 1h-7.278V6.43zm-22 28.129V2.382h26.813V9.06l-5.216-4.786H5.438v30.283H3.375zm3.438 3.154V5.536H24v8.833h9.625v23.343H6.813z"/></svg>