<svg xmlns="http://www.w3.org/2000/svg" width="42" height="39"><path fill="#1E2741" paint-order="stroke fill markers" fill-rule="evenodd" d="M39.71 22.722h-.602v-4.854c0-.768-.428-1.449-1.08-1.862v-.66c0-.96-.873-1.74-1.945-1.74h-.45l1.722-2.258c.577-.757.357-1.793-.49-2.309L25.188 1.92a2.022 2.022 0 0 0-1.393-.259c-.487.083-.91.33-1.19.697l-10.08 13.23H9.72l.677-6.128a.186.186 0 0 1 .128-.152c.871-.294 1.627-.843 2.127-1.546a.211.211 0 0 1 .19-.08l4.4.389c.316.027.597-.178.628-.46.031-.283-.2-.534-.515-.562l-4.4-.388c-.51-.045-.997.165-1.27.55a3.16 3.16 0 0 1-1.565 1.137c-.483.163-.814.55-.865 1.012l-.688 6.228h-.731l1.07-9.691c.038-.35.386-.605.777-.57l8.891.785c.315.027.596-.178.627-.46.032-.282-.199-.533-.514-.561l-8.891-.786c-1.02-.09-1.931.579-2.032 1.49L6.9 13.608H5.431c-1.072 0-1.944.78-1.944 1.738v.451C2.611 16.157 2 16.95 2 17.868v17.49c0 1.257 1.144 2.28 2.55 2.28h32.008c1.406 0 2.55-1.023 2.55-2.28v-4.854h.602c.711 0 1.29-.517 1.29-1.153v-5.476c0-.636-.579-1.153-1.29-1.153zm-3.627-8.089c.44 0 .797.32.797.712v.262a2.843 2.843 0 0 0-.322-.019h-2.434l.728-.955h1.231zM23.553 2.936a.715.715 0 0 1 .455-.267.766.766 0 0 1 .532.1l11.68 7.118c.323.197.407.593.187.883l-3.671 4.818h-.881l1.8-2.362c.291-.383.316-.87.062-1.273a2.615 2.615 0 0 1-.384-1.77c.066-.451-.157-.893-.58-1.151l-6.055-3.69a1.476 1.476 0 0 0-1.41-.062c-.6.296-1.304.412-1.983.327-.503-.063-1.013.14-1.301.518l-7.21 9.463h-.882l9.64-12.652zm.252 8.713c-2.498 0-4.548 1.742-4.716 3.939h-2.907l6.77-8.885a.212.212 0 0 1 .194-.08 4.805 4.805 0 0 0 2.696-.445.223.223 0 0 1 .21.012l6.054 3.69a.174.174 0 0 1 .09.17 3.546 3.546 0 0 0 .522 2.407.166.166 0 0 1-.011.19l-2.24 2.94h-1.945c-.168-2.196-2.218-3.938-4.717-3.938zm3.566 3.939H20.24c.164-1.63 1.7-2.913 3.565-2.913 1.866 0 3.402 1.282 3.566 2.913zm-22.736-.243c0-.393.357-.712.796-.712h1.356l-.105.955H4.635v-.243zm-1.488 2.523c0-.691.63-1.254 1.403-1.254h32.008c.773 0 1.403.563 1.403 1.254v1.424H3.147v-1.424zm34.814 17.49c0 .691-.63 1.254-1.403 1.254H4.55c-.774 0-1.403-.563-1.403-1.254v-1.424h3.094c.317 0 .574-.23.574-.513 0-.283-.257-.513-.574-.513H3.147v-12.59h34.814v2.404h-5.455c-1.719 0-3.207.896-3.914 2.193l-.007.012-.017.034c-.084.16-.157.325-.217.496v.002a3.505 3.505 0 0 0-.196 1.154c0 2.146 1.952 3.891 4.351 3.891h5.454v2.404H9.914c-.317 0-.574.23-.574.513 0 .283.257.513.574.513h28.047v1.424zm1.892-6.007c0 .07-.064.127-.143.127h-7.204c-1.214 0-2.273-.607-2.816-1.5a2.92 2.92 0 0 1-.193-.38 2.586 2.586 0 0 1 .193-2.35c.543-.893 1.602-1.5 2.816-1.5h7.204c.079 0 .143.057.143.127v5.476zm-7.212-4.82c-1.284 0-2.328.934-2.328 2.082 0 1.148 1.044 2.081 2.328 2.081 1.283 0 2.327-.933 2.327-2.08 0-1.149-1.044-2.083-2.327-2.083zm0 3.137c-.651 0-1.18-.473-1.18-1.055s.529-1.055 1.18-1.055c.65 0 1.18.473 1.18 1.055s-.53 1.055-1.18 1.055z"/></svg>