<svg xmlns="http://www.w3.org/2000/svg" width="44" height="41"><path fill="#1E2741" paint-order="stroke fill markers" fill-rule="evenodd" d="M40.911 14.468L27.93 2.48c-.701-.647-1.636-1.003-2.632-1.003a3.86 3.86 0 0 0-2.632 1.003l-20.578 19C1.386 22.128 1 22.991 1 23.911c0 .92.386 1.783 1.087 2.43l1.6 1.478h.001l10.76 9.935h-1.49c-.472 0-.854.353-.854.788 0 .436.382.79.854.79H30.04c.472 0 .855-.354.855-.79 0-.435-.383-.788-.855-.788h-9.085l19.957-18.427c1.45-1.34 1.45-3.52 0-4.86zm-1.208 3.744l-20.578 19a2.08 2.08 0 0 1-1.42.542h-.007a2.085 2.085 0 0 1-1.42-.541L5.5 27.262 25.263 9.015a.747.747 0 0 0 0-1.116.905.905 0 0 0-1.208 0L4.292 26.146l-.997-.92a1.776 1.776 0 0 1-.587-1.315c0-.499.209-.965.587-1.315l20.578-19a2.087 2.087 0 0 1 1.424-.541c.54 0 1.046.192 1.424.541l4.62 4.266L11.58 26.11a.747.747 0 0 0 0 1.115.89.89 0 0 0 .604.231.89.89 0 0 0 .604-.23L32.549 8.977l7.154 6.605a1.762 1.762 0 0 1 0 2.63zm-17.658 6.042a.906.906 0 0 0-1.208 0l-6.722 6.206a.747.747 0 0 0 0 1.115.89.89 0 0 0 .604.23.89.89 0 0 0 .604-.23l6.721-6.206a.747.747 0 0 0 0-1.115zm-2.757 5.89L16.53 32.69a.747.747 0 0 0 0 1.116c.167.153.386.23.604.23a.889.889 0 0 0 .604-.23l2.757-2.546a.747.747 0 0 0 0-1.115.905.905 0 0 0-1.208 0zm2.536-2.341l-.362.334a.747.747 0 0 0 0 1.116c.167.154.385.23.604.23a.889.889 0 0 0 .604-.23l.362-.335a.747.747 0 0 0 0-1.115.905.905 0 0 0-1.208 0zm11.773-14.216a.892.892 0 0 0-.604-.231.892.892 0 0 0-.603.231l-3.624 3.346a.76.76 0 0 0-.25.558c0 .209.09.41.25.557l2.416 2.23a.889.889 0 0 0 .604.232.889.889 0 0 0 .603-.231l3.624-3.346a.747.747 0 0 0 0-1.115l-2.416-2.231zm-1.812 5.019l-1.208-1.115 2.416-2.231 1.208 1.115-2.416 2.23zm-5.133-11.2a.888.888 0 0 0 .604-.232l.362-.334a.747.747 0 0 0 0-1.116.905.905 0 0 0-1.208 0l-.362.335a.746.746 0 0 0 0 1.115.884.884 0 0 0 .604.231zM9.586 27.95l-.363.335a.747.747 0 0 0 0 1.115.889.889 0 0 0 .604.231.889.889 0 0 0 .604-.231l.363-.335a.747.747 0 0 0 0-1.115.905.905 0 0 0-1.208 0z"/></svg>