<svg xmlns="http://www.w3.org/2000/svg" width="320mm" height="150mm" viewBox="0 0 32000 15000" shape-rendering="geometricPrecision" text-rendering="geometricPrecision" image-rendering="optimizeQuality" fill-rule="evenodd" clip-rule="evenodd"><defs><style>.fil0{fill:#d7b56d}</style></defs><g id="Слой_x0020_1"><g id="_2737100418704"><path class="fil0" d="M16934.27 5787.39c-13.4-191.57-20.55-376.17-39.46-565.45-9.2-92-13.7-190.54-20.55-281.26-3.92-51.87-8.74-87.57-13.61-133.61-3.56-33.65 3.42-74.17-.92-108.3l-638.53 4.15c-41.52 203.02-.44 785.17 1.15 1028.7 2.43 371.57 11.13 741.81 9.94 1113.34-2.28 705.78 33.64 1421.6 29.34 2126-2.2 361.05 15.36 742.84 20.08 1107.85 4.32 334.61-56.35 2053.13 83.72 2201.07 94.62 99.96 288.43 194.87 422.37 221.11 101 19.8 455.04 79.5 536.85 45.82-59.27-91.6-354.48-57.42-497.23-154.42-122.9-83.52-299.64-216.25-206.81-380.98 57.63-102.3 238.69-249.13 339.09-309.21 70.01-41.89 136.82 38.92 194.59 80.39 346.08 248.45 873.82 279.47 1282.28 149 296.32-94.65 575.14-285.3 835.33-452.74 242.01-155.74 490.78-400.74 691.78-606.99 65.62-67.34 405.27-440.66 448.59-517.87 50.94-90.79 82.83-116.12 131.09-191.71 260.35-407.86 447.13-856.93 633.17-1300.52 8.42-20.06 180.64-496.17 187.43-452.56-17.37 311.55-143.41 671.36-255.51 960.5-102.7 264.88-456.29 948.65-638.71 1192.56-87.27 116.69-181.87 222.81-267.59 336.72-182.62 242.68-351.52 428.57-565.88 642.4-174.85 174.41-486.62 389.77-700 519.19-253.93 154.01-552.67 270.89-823.5 392.46-294.87 132.38-618.83 214.68-937.86 261.33-148.25 21.68-401.1 61.27-536.79-3.11-267.61-126.99-210.36-276.13-323.82-272.93-26.86 118.22.73 759.11 6.12 924.45 6.39 196.22-33.23 736.52 54.92 870.54 296.24-283.23 657.83-598.77 1152.39-733.5 499.39-136.05 882-269.95 1324.05-567.24 339.82-228.54 785.79-534.41 1078.48-815 171.77-164.65 288.66-330.28 436.57-510.43 124.86-152.05 304.54-559.71 365.64-574.53 37.66 53.15 69.14 266.98 75.41 345.59 8.55 107.22 2.43 342.34 14.68 393.87 72.16-9.89 125.45-122.02 158.94-184.06 318.61-590.3 589.49-888.23 732.14-1623.42 126.28-650.85 144.87-1073.14-37.38-1717.54-22.03-77.89-160.87-446.23-217.85-457.84-.61.32-191.97 287.76-223.8 333.8-70 101.25-153.94 223.67-217.88 326.76-89.79 144.78-357.42 496.65-479.12 608.19-141.96 130.12-522.32 318.91-706.67 390.21-302.81 117.1-566.95 144-873.76 215.29-4.27 75.81 33.53 117.48 66.24 170.59 95.33 154.79 66.22 92.12 229.42 233.26 174.52 150.95 625.81 287.65 834.55 292.58-36.65 82.86-318.07 354.48-399.13 417.54-71.53 55.64-149.12 130.04-222.07 190.77-71.42 59.44-161.34 110.95-236.02 166.75-346.77 259.12-709.5 503.95-1161.35 449.37-284.33-34.33-345.73-93.26-571.62-244.64-225.19-150.89-268.13-1064.74-282.54-1340.77-13.18-252.71-46.77-513.12-38.14-766.39 39.64-8.14 116.4.91 157.87-153.47 28.96-107.79-41.55-148.2-63.4-234.01 99.69 53.04 89.55 177.97 129.68 241.88 65.03-5.32 183.71-136.65 221.84-193.45 70.26-104.67 63.41-181.84-14.15-284.35-57.87-76.49-154.99-129.55-234.85-187.96-225.14-164.64-152.45-70.63-227.45-7.08-2.34-3.54-216.71-2488.95-198.46-2580.34 19.17 47.14 2.41 264.31 83.68 300.1 83.06 28.8 158.35-140.98 199.72-200.86 12.94-18.74 75.87-114.82 81.28-120.59 33.65-35.95 93.53-42.64 120.79-75.34-52.43-155.96-377.44-182.41-426.15-149.2-71.15 88.15-33.13 137.04-72.65 199.54zm-5368.79 5064.35c-155.06-54.17-317.67-953.7-361.99-1137.71-74.83-310.6-238.33-1008.26-176.36-1303.17 9.67 9.77 170.3 478.68 184.5 531.41 52.17 193.69 352.44 799.54 462.23 988.35l203.03 340.8c28.71 36.22 47.63 54.64 75.13 95.93 96.75 145.27 202.8 278.2 312.77 412.56 109.48 133.74 202.87 272.86 327.35 397.74 92.61 92.91 666.75 681.17 745.11 673.34 36.25-36.82 29.93-205.15 32.13-271.26 70.18 107.68 23.73 190.53 284.51 154.68 276.1-37.94 283.7 44.57 382.66 39.59 70.25-159.93-20.85-233.96-32.11-295.53 146.2-94.27 78.26-326.54-35.55-428.31-25.33-22.66-195.19-85.15-230.43-92.14-42.52-8.44-101.6-7.37-144.4-16.2-65.65-13.53-41.83-37.52-105.58-46.36-21.8 43.08-68.94 203.56-65.65 249.15 12.54 173.28 89.67 151.58 122.49 207.12-82.36 1.76-74.29 3.1-153.39-19.57l-19.09 33.79c-22.31-75.43 19.32-76 22.53-139.33-3.83-17.22-474.43-392.26-575.53-508.68-15.96-18.39-30.51-40.09-40.74-49.85-17.83-17-29.81-21.49-48.28-42.28-29.37-33.06-67.1-60.08-88.34-93.73 60.39-48.72 472-97.88 687.9-260.14 128.72-96.73 402.31-378.22 363.42-560.02-74.29-37-150.66-12.92-244.46-26.3-381.45-54.41-329.25-73.43-677.07-189.97-344.72-115.51-825.81-390.6-1104.97-636.51-113.23-99.74-178.33-194.14-276.6-298.03-103.68-109.61-333.78-718.05-419.55-735.65-39.39 31.75-146.06 456.34-156.68 535.29-150.01 1116.14-131.11 2350.2 649.68 3250.23 59.74 68.86 305.83 320.05 394.91 251.58 11.59-33.2-33.55-92.2-42.77-131.77-18.69-80.11-14.74-271.19-9.48-352.52 4.12-63.34 18.66-100.75 19.6-173.19 99.93 16.2 645.14 757.96 782.12 892.88 151.09 148.83 275.44 263.04 441.21 395.07 74.86 59.63 405.12 354.54 469.95 350.69 9.46-38.95-60.33-388.38-79.24-438.93-44.84-119.76-54.62-311.73-161-384.3-206.29-140.73-408.98-325.85-581.88-505.31-153.09-158.91-416.88-380.51-530.47-557.73-35.64-55.61-204.4-226.54-261.38-281.97-74.98-72.96-176.51-237.91-241.19-288.48-62.03 20.35-52.68 21.69-42.74 86.91 11.27 73.97-5.16 340.53-56.31 377.83zm3578.88-9984.55c39.51-174.81-71-253.42 429.43-421.56 180.5-60.64 547.5-131.33 731.45-95.59-112.87 82.8-288.09 92.8-415.83 129.14-79.36 22.57-377.16 89.98-391.97 168.79 45.29 24.24 187.69-20.61 240.1-37.27 88.32-28.07 187.09-23.88 276.95-35.03 189.73-23.54 396.24-31.6 584.94 6.14 242.24 48.47 237.29 31.7 448.29 165.77 98.81 62.78 258.38 223.65 288.88 335.31-200.2-191.74-295.99-306.05-579.47-366.16-493.9-104.75-1012.03-130.56-1477.48 100.49-106.67 52.94-184.95 133.17-231.57 242.63-31.66 74.32-73.16 340.13-51.7 408.42 65.06 16.6 62.87-42.25 88.63-88.84 25.36-45.83 56.7-73.42 80.97-119.96 33.66-64.52 104.38-202.59 165.17-224.77 22.53 40.96-3.14 14.57 8.57 45.09 4.51 11.73 55.42 100.47 106.31 122.54 132.66 57.54 108.4-10.44 241.99-.15-56.42 55.82-61.55 17.04-79.51 131.24-54.82-89.48-59.91-61.3-152.37-101.53-55.72-24.25-146.33-68.95-207.51-69.54-49.32 115.1-121.28 252.45-17.36 364.88 29.31 31.72 125.89 52.22 172.11 78.88 57.28 33.02 92.08 106.73 153.77 84.86l42.47-224.8c2.43-27.79-14.07-73.59 11.7-35.21l-51.84 2045.33c54.62 57.57 194.61 53.63 276.61 43.75 133.17-16.03 149.86-51.95 135.16-187.96-22.53-208.18-6.68-443.71-7.91-657.42-1.19-208.45-9.19-416.63-10.06-624.56-.46-111.69 10.38-209.6 10.11-322.35-.26-106.65-4.32-228.45 2.59-333.64 398.19-4.57 267.89 29.79 274.64 565.36 2.23 176.53-18.91 357.63-18.32 538.73.37 114.49-84.63 1009.84-84.08 1011.16 49.23 43.99 515.28 10.4 578.78-25.45 73.28-41.37 48.67-183.36 45.81-265.27-13.27-381.18-5.51-856.58-4.85-1249.13.08-53.81.56-107.94.3-161.61-.34-68.91-29.39-105.86 10.69-147 92.18 382.69 534.17 919.02 926.39 995.02 157.63 30.55 403.85 45.94 544.47-46.62 180.54-118.82 197.81-170.39 260.26-372.44 59.81-193.49-11.66-351.8-65.45-529.7-57.74-190.87-498.01-705.51-573.31-714.44-47.66 44.98-28.55 96.98-27.53 162.71 1.83 117.65-36.79 260.4-30.55 380.85 6.06 116.9 37.31 74.96 98.3 120.29 64.44 47.87 341.1 510.81-111.27 477.86-168.09-12.25-368.27-299.33-429.36-441.36-48.66-113.09-71.21-210.06-109.96-322.57-25.24-73.25-49.52-70.29-96.88-114.08-46.13-42.63-62.61-98.83-124.93-68.8-61.05 207.95 110.87 583.79 266.36 722.84 123.96 110.85 141.33 239.82 396.43 358.51 34.02 15.83 40.47 26.84 78.93 41.24 38.36 14.35 60.98 24.82 69.98 60.09-107.83 15.64-350.88-135.7-439.15-202.65-257.98-195.68-413.01-496.31-475.56-815.94-10.84-55.42-14.92-227.84-94.06-226.43-32.97.58-63.69 53.68-73.17 87.17-11.13 39.33-10.05 110.64-11.03 155.52-41.2-34.04-21.62-176.19-379.31-161.02-64.63 2.75-407.76 14.28-441.35 1.57-27.37-52.03 7.7-131.67-57.57-218.88-83.52-111.58-113.28-60.46-194.35-99.24 41.74-81.25 468.9-72.1 569.56-79.12 168.14-11.74 364.24 23.76 523.43 73.65 193.88 60.75 275.02 60.51 420.04 226.41 58.02 66.36 107.97 117.87 104.62 209.54-4.27 117.16 27.94 134.18 94.16 225.7 121.12 167.39 194.62 273.45 317.83 15.92 83.67-174.91 91.82-350.95 39.71-535.91-86.89-308.47-389.41-506.08-665.99-631.32-294.5-133.36-791.45-188.75-1106.95-149.68-384.5 47.61-585.58 95.26-901.64 331.71-262.77 196.61-404.06 546.11-386.32 870.8 5.77 105.8 80.27 149.46 180.64 114.95 82.69-28.42 30.52-257.63 135.57-508.71 16.52-39.49 29.02-74.03 57.49-105.6 23.75-26.34 72.19-61.67 86.93-81.55zm818.57 4305.7c-2.13-158.89 16.14-311.57 7.94-476.38-75.73-14.6-201.39-3.06-284.77-10.63-115.49-10.5-79.39 38.16-90.57 165.26-7.68 87.3-11.18 432.14-30.97 473.42-40.28-52.66-75.04-70.7-116.52-82.03-50.43-13.78-109.97-10.28-190.42 46.67-56.29 39.85-58.53 107.41-75.69 167.01-20.73 71.95-40.15 114.57-39.37 193.05.99 99.53-35.32 94.2-49.62 168.27 43.78 57.93 65.33 51.8 134.27 62.08 11.01 1.65 171.38-11.14 177.21-12.82 177.77-51.31 85.13-183.5 141.44-293.93 26.74 105.05-51.57 1294.53-76.65 1558.88-15.21 160.35-6.04 353.21-28.74 509.63-21.97 151.4-15.63 357.2-30.51 519.12-20.16 219.27-65.64 1615.16-111.24 1692.62-.62-461.22-45.72-320.86-63.35-430.17-8.57-53.13 7.22-85.62-36.24-126.58-22.24-8.58-21.1 12.59-78.04 23.86-75.28 14.87-177.13 53.05-222.48 123.37-94.86 147.14 68.74 235.85 75.3 366.93-32.01-31.6-58.3-115.32-94.02-165.78-59.01-83.34-46.46-77.3-81.64-169.12-121.8 19.05-394.46 172.13-306.23 325.01 37.7 65.34 111.64 143.98 140.67 201.3 45.12 89.09 50.85 170.08 90.52 253.19 172.1 15.95 268.78-211.02 292.95-240.64l34.92 61.25c223.28-3.56 207.99-126.34 256.54-173.77 2.78 215.41-24.14 541.47-47.7 760-24.28 225.13-43.08 449.93-120.07 664.31-82.02 228.4-226.31 298.65-453.26 318.95-222.98 19.93-237.15-1.6-426.1-31.87-62.59-10.02-71.96-32.86-135.36-1.91-9.03 60.03 31.23 238.53 44.16 312.31 8.96 51.09 5.61 34.04 21.43 75.46 8.97 23.52 22.57 123.04 29.71 157.28 6.55 31.43 23.55 135.78 38.47 152.27 10.18 6.91 275.56 79.04 310.37 89.34 89.88 17.14 683.12 217.37 716 211.64 51.83-58.72 5.13-75.99-29.11-107.14-23.44-21.32-173.1-317.41-186.75-358.09-41.44-123.47-109.91-339.97 33.99-418.99 129.26-70.97 150.19-7.19 221.84 83.49 119.28 150.97 301.8 384.61 349.48 392.19 99.49-105.01 204.9-1513.52 210.03-1738.95 7.26-318.86 19.64-638.3 18.84-957.36-.78-310.99 22.08-637.22 19.69-947.29-4.91-635.12 15.82-1277.7 19.65-1914.68 2.97-494.09 26.79-964.34 20-1470.03zm-2474.44-795.84c-38.66-20.12-76.91-59.43-135-86.6-51.59-24.13-98.34-4.15-147.15-22.37 59.57-8.39 111.25 3.59 79.34-78.96-14.97-38.75-40.27-82.55-68.57-114.48-135.27-152.61-132.01-46.45-233.49-111.4l178.31-6.58c57.73-82.17-90.77-267.45-194.91-296.72-72.03-20.24-424.81-89.59-452.66-68.58-72.49 87.79-13.36 311.28 61.55 390 101.59 106.79 278.93-55.76 397.72-6.83-11.32 5.97-73.86 19.66-106.35 30.63-63.09 21.3-300.69 105.24-330.04 130.19-6.58 106.51 113.14 297.08 222.25 325.14 158.36 40.73 220.55-158.36 379.16-154.94-162.61 95.35-171.94 135.9-251.04 205.77-27.87 24.62-68.22 31.18-97.07 56.04 8.52 108.91 164.98 239.54 285.34 238.51 191.4-1.65 163.76-173.64 291.02-218.58-.07.18-245.94 329.32-243.68 353.94 19.79 52.79 136.67 125.47 191.05 143.08 176.66 57.17 200.39-26.37 238.85-46.69-23.25 85.68-88.18 101.85-72.33 174.8 91.05 100.37 332.05 162.23 422.97 3.12 90.87-159.01 52.2-131.95 182.28-281.93 88.42-101.96 25.94-28.85 75.62-72.89 4.2-98.29-84.67-118.7-163.73-137.61-145.77-34.85-113.61-15.26-242.37-4.38l72.3-70.07c-14.18-70.11-98.43-92.04-156.19-113.84-122.62-46.27-99.41-28.47-212.24-7.4 37.89-58.2 148.81-25.73 29.06-150.37zm2638.2 9783.57c227.19 251.64 11.72-324.68-68.96-445.83-297.48-446.73-546.13-532.08-1008.41-763.04l-632.17-256.17c-59.84-15.3-127.26-75.01-147.84 1.67-13.2 49.17 6.72 158.59 9.64 212.34 7.65 140.49 17.79 274.78 22.77 417.39 45.84 33.94 819.37 294.26 978.25 349.75 258.29 90.24 677.18 296.09 846.72 483.89zm1104.82-9563.39c1.8-42.39 3.12-28.2 4.6-98.58 1.76-83.99 31.48-308.96 17.94-361.06-75.82-19.41-2024.56-29.04-2056.69-16.83-13.23 59.81 11.73 359.66 35.46 405.64 62.49 48.8 851.25 47.51 1001.13 66.66 138.42 17.68 825.44 21.67 997.56 4.17z"/><path class="fil0" d="M13695.17 12994.94c79.09 42.45 167.3-4.11 288.14 2.54 26.89 1.49 28.83.82 54.02 7.28l36.31 13.89c-57.81 7.05-205.38 17.76-253.29 16.38-255.31-7.34-196.62-18.35-197.62 126.31-.59 84.59-16.07 44.79 22.46 118.32-24.94 62.21-69.04-21.47-51.33 168.19 6.03 64.57 14.67 133.29 20.14 207.03 4.8 64.88 28.02 149.07-8.94 206.04-21.68 33.43-97.51 92.05-59.34 130.18 24.21 28.52 264.3-6.26 315.3-26.75 54.39-21.85 319.52-260.82 139.86-438.32-39.78-39.29-185.2-93.14-221.3-143.55 122.78 19.69 122.72 7.18 242.77 60.13 115.93 51.14 114.13 127.86 151.58 149.73 80.15-22.94 103.87-225.28 101.2-300.34-5.42-152.32-68.48-165.93-137-256.78l85.79 30.71c98.92-100.28 24.41-383.22-134.46-433.39-104.56-33.02-154.76-19.67-262.94.77-33 6.23-256.85 48.8-267.29 54.53-9.04 110.24 38.47 254.79 135.94 307.1zm818.4-7946.98c4.79-65.95 4.01-59.95-50.44-92.45-41.42-24.73-78.19-35.89-127.05-40.22-304.76-26.89-311.01 192.61-399.21 415.99-16.8 42.52-44.32 62.6-34.66 113.52 45.07 46.86 263.35 87.35 328.38 54.8 66.27-33.17 107.52-184.8 144.52-258.21 24.2 49.17-18.09 119.88-28.44 172.92-25.62 131.33-65.74 137.19-40.07 171.63 49.53 33.05 208.42 56.02 269.95 47.39 120.42-16.9 102.25-132.25 145.09-175.15-.46 60-67.35 213.75-51.39 255.83 15.98 25.49 360.07 115.33 401.67-75.71 17.89-82.16 49.82-160.29 79.78-232.92 66.11-160.31 207.68-256.36-100.88-264.54-116.39-3.09-123.84 18.87-214.05 46.23 11.86-66.09 33.12-44.56 40.01-94.81-55.52-93.17-278.23-92-363.21-44.3zm3989.11-893.83l-215.7-10.12-23.48-503.39-209.54-45.89c-16.95 27.62-9.64 180.4-10.65 225.32-.98 43.24 1.57 82.28 1.6 125.44.04 43.31-11.56 80.7-11.53 125.33l-3.88 540.92c44.37 17.2 211.75-21.31 254.13-43.67l1.62-118.59c78.69 15.91-62.65 75.32 218.92-12.06l5.76 97.85c46.97 12.19 109.62 10.47 158.07 2.82 73.56-11.62 40.39-34.32 51.35-94.31l244.13-79.65-1.11-525.91-208.7-58.87c-24.95 88.69-10.55 295.82-33.69 346.42l-15.95-411.37-156.94-55.55-40.79 746.08c-1.52-44.76-4.73-100.44-4.84-142.94-.14-54.89 2.78-74.16 1.22-107.86zm-3294.25-306.33c128.68 23.1 813.22 32.86 1001.12 43.51 158.12 8.94 363.78 9.92 523.1 11.69l509.36 5.82c12.85-50.09 17.82-206.34.56-252.68-70.99-19.92-1954.71-28.31-2029.03-9.96l-5.11 201.62zm-2207.17 9668.5c100.61 31.17 182.77-68.16 273.61-107.01 19.05-8.14 211.24-144.94 221.43-157.33-8.06-45.76-60.98-121.57-82.67-146.34-51.21-58.47-89.78-49.23-133.79-59.52-.89-.21-4.64.2-5.27-1.83-.63-2.06-3.59-1.19-5.95-7.22l105.04-12.84c40.69-60.69 1.26-149.21-33.39-207.13-90.27-150.85-195.09-115.15-294.84-112.23-54.24 1.58-58.02-17.1-110.47-25.42-145.31-23.05-98.89-53.95-179.57-99.83-67.94 43.89-78.11 187.83-65.68 264.91 17.59 109.07 75.45 131.3 123.66 209.54-56.16 26.91-68.12 58.74-52.4 131.48 6.19 28.65 33 128.07 42.73 148.52 28.47 59.79 135.48 163.03 197.56 182.25zm4509.04-7276.46c24.24-37.02 33.71-38.38 64.13-64.58 125.6-108.14 55.74-78.52 234.02-159.47 115.89-52.61-163.67-219.7-214.91-243.5-56.1-26.05-124.52-18.74-179.63 10.08-90.73 47.45-77.63 53.01-135.94 126.5-162.91 205.38-59.91 124.16-147.6 247.03-22.19 31.09-26.45 64-18.2 99.87 26.39 16.93 121.31 52.12 154.69 65.99 57.16 23.75 123.42-8.27 188.57-17.39-16.65 64.83-79.29 73.02-104.64 148.38 77.81 102.71 230.7 180.49 358.14 108.11 59.56-33.83 113.19-64.52 177.01-94.84 172.57-81.99 317.04 57.56 143.75-232.44-34.17-57.18-88.24-101.78-148.53-133.22-153.44-80.02-267.09 114.07-370.86 139.48zm-3344.95 4513.04c22.68 33.37 40 78.75 88.38 51.48 27.47-15.48 59.25-60.47 69.96-82.54 126.08-259.67-25.32-343.87-86.4-414.14-73.21-84.23-91.6-74.99-167.67-133.9-91.6-70.93-38.89-140.07-159.64-37.07-35.92 30.65-97.03 145.29-108.39 194.46-45.55 196.99 210.51 213.98 265.27 325.28-74.16-30.96-112.11-66.97-183.68-94.37-162.54-62.2-111.17-81.15-162.02-97.4-59.24 55.12-231.95 330.55-28.73 437.48 63.2 33.26 157.52 48.1 231.54 91.11 58.75 34.13 124.62 129.85 190.04 133.02 35.61-25.7 70.47-124.31 73.52-166.25 7.86-108.14-15.62-119.64-22.18-207.16zm3476.25-2206.97c49.61 50.42 92.36 147.52 118.93 169 50.49-7.11 98.22-95.95 126.92-140.35 230.3-356.5-144.83-359.75-175.21-469.15 161.39 14.08 256.41 190.84 319.84 216.9 50.7-10.81 112.04-168.33 127.13-220.06 66.56-228.14-149.35-311.23-338.36-341.45-234.45-37.48-181.38-73.06-256.96-8.35 3.67 85.13-9.84 131.84 16.36 210.79 19.59 59.02 81.11 111.93 88.39 138.47-63.2-4.59-146.07-64.44-200.27-84.95-125.26 49.7-115.33 323.61-4.26 403.71 68.71 49.56 45.4-8.83 177.49 125.44z"/><path class="fil0" d="M18261.83 6924.02c31.43-37.27-.23-147.51-12.29-198.13-106.22-446.05-700.02-41.03-698.75 8.03.77 29.42 68.33 115.56 91.02 139.23 59 61.54 115.17 49.94 138.73 82.8-62.35 25.52-122.17 18.37-176.46 62.84 5.48 26.08 61.82 178.52 78.05 197.17 161.95 185.97 153.57 79.83 285.87 103.72 33.45 6.03 75.18 14.78 109.24 21.92 71.94 15.04 139.34 77.58 199 60.71 11.03-140.25 27.76-294.59-62.17-396.44-131.84-149.31-269.57-30.29-362.42-70.86 76.55-14.25 138.75-19.12 213.35-29.8 69.76-9.99 169.36 33.56 196.83 18.81zm-285.92-2420.65l30.37-361.64c-37.13-19.78-365.99-11.44-415.34 5.69-34.73 78.12-12.85 234.43-54.84 282.03-39.87-256.35 18.5-603.39 1.57-876.75-33.74-10.9-72.44-9.28-111.8-18.92-182.58-44.72-110.4-50.02-126.17 141.41-11.85 144.11 1 277.14-8.63 403.93-10.87 143.26-9.15 261.57-11.29 398.37-.84 54.46-37.88 197.44 18.25 212.62 26.2 7.08 194.36-22.69 214.35-32.18l20.93-114.2c77.1-26.91 18.41 32.9 96.86 16.36l345.74-56.72zM14324.1 2254.58c-67.3-32.02-76.24-155.33-100.02-211.09-139.01-11.04-335.87 156.03-275.68 311.94 26.51 68.66 74.16 123 102.74 200.9 26.15 71.27 38.64 196.85 64.04 245.27 89.57-.74 231.16-151.1 250.83-186.72 74.69-135.25-38.13-257.07-41.31-353.1 81.68 64.18 73.6 290.02 143.51 348.59 51.99 35.52 229.51-76.88 261.52-175.03 55.18-169.25-87.15-372.59-122.66-467.91-15.11-40.56.46-73.12-12.45-86.32-15.11-15.47-228.83 19.12-280.78 180.2-44.95 139.41-8.42 84.11 10.26 193.27zm-114.99 1382.45c-11.06 27.17-33.29 881.56-23.95 941.74 62.58 25.05 160.34 56.61 235.88 31.54l4.53-102.99c82.34-.49 168.14 19.38 252.21 29.8 116.25 14.41 109.16 56.39 208.79-9.28 3.5-66.07-20.24-332.31-45.31-384.46-125.45-28.1-287.08-8.98-427.14-13.49l-15.45-536.03-189.56 43.17zm934.23 1044.27c.94-3-6.68-1135.59-37.71-1171.33l-199.38 37.3c-7.14 18.7-4.23 1039.04 6.63 1107.59 63.33 19.32 165.22 45.05 230.46 26.44zm-1652.41 7653.96c5.7 32.62 27.07 85.27 33.55 117.85 5.55 27.82 26.49 63.42 49.1 90.64 135.22 162.82 221.43 20.94 459.78 21.28 101.43.14 209.54 54.42 195.9-74.35-16.33-154.13-113-318.19-287.31-311.88-25.75.92-240.95 39.97-259.51 47.58-152.11 62.47-208.26 13.02-191.51 108.88zm71.26 994.61c-201.83-16.96-261.54 123.87-412.14 195.23-37.39 17.71-74.51 47.61-113.92 51.72-19.35 2-241.47-50.88 11.84 217.26 79.73 84.41 349.15 178.89 448.82 69.74 54.73-59.96 88.59-479.65 65.4-533.95zm1675.57-11102.54c155.87 14.03 336.67-227.28 274.28-397.52-36.5-99.59-117.34-119.87-184.8-187.34-20.65-20.64-190.67-163.14-209.09-174.02-122.92 59.7-179.88 263.59-88.75 381.73 194.86 252.61 98.38 34.97 208.36 377.15zm-1737.07 999.4c66.06-32.38 124.19-89.44 171.3-147.75 121.75-150.67-7.91-320.46-96.38-450.01-25.11-36.76-46-59.23-69.76-92.2-42.66-59.19-4.21-53.59-69.32-102.41-127.84 56.58-309.83 223.28-202.59 395.83 41.87 67.37 93.22 78.21 150.76 180.47 30.92 54.95 72.28 184.51 115.99 216.07z"/><path class="fil0" d="M18233.56 7651.54c3.41-113.31 22.63-166.02-69.78-232.03-147.21-105.16-328.92-72.73-495.85-80.64-151.9-7.19-63.06 295.9 76.72 366.87 37.59 19.07 88.01 11.18 129.78 19.24 192.76 37.16 245.69 142.73 286.57 155.83 43.49-37.8 70.8-170.52 72.56-229.27zm-4437.37-4668.92c71.55-12.23 141.7-77.59 184.73-127.73 130.27-151.81 69.19-272.69-47.28-453.97-20.64-32.13-44.52-63.79-64.98-96.07-27.15-42.84-28.72-90.35-56.85-114.5l-190.41 131.33c-185.95 193.79 20.17 304.76 75.09 428.06 27.48 61.68 73.46 193.72 99.7 232.88zm-400.25 8845.54c-15.23 43.13 5.45 196.37 27.74 241.12 26.21 52.65 90.95 130.63 155.52 131.98 85.89 1.79 161.31-42.15 245.07-56.28 52.68-8.88 254.9 10.63 274.61 3.17 66.67-25.24 3.43-185.92-28.94-221.9-50.12-55.71-85.35-101.7-163.45-127.65-46.53-15.44-222.13-10.77-270.09.55-41 9.67-74.5 26.6-119.55 31.92-58.77 6.95-66.6-15.65-120.91-2.91zm730.43-1809.83c2.24 78.44 83.48 143.03 138.44 191.54 206.19 182.01 119.33 398.91 305.57 224.33 108.49-101.69 111.36-223.39 58.75-357.2-15.26-38.82-201.2-248.68-214.96-279.72-21.73-49.03-13.18-86.39-77.22-51.18-82.26 45.24-213.7 163.18-210.58 272.23zm-888.02-6548.06c149.83-84.75 178.77-275.01 100.58-424.03-78.6-149.81-157.38-185.79-209.84-253.35-27.61-35.57-25.51-60.14-65.67-95.96-122.87 81.47-294.62 271.68-163.15 426.27 59.67 70.15 99.74 62.42 176.31 166.16 23.17 31.39 136.91 169.68 161.77 180.91zm1586.13-981.43c131.47 39.35 336.14-109.5 364.51-239.07 31.77-145.15-133-267.32-208.26-382.38-45.44-69.47-73.83-141.72-158.96-76.33-233.71 179.51-55.67 376.59-39.1 426.72 73.45 222.16 13.44 157.71 41.81 271.06zm-2128.99 588.77c-52.33 61.27-176.79 314.39-61.77 432.43 51.78 53.15 149.46 33.76 219.47 62.3 205.65 83.82 320.3 215.85 305.89-62.28-4.05-78.2-42.08-153.41-101-202.39-62.36-51.83-90.12-90.96-166.09-135.35-34.89-20.39-64.78-30.7-97.11-54.39-28.02-20.54-69.03-75.87-99.39-40.32zm1232.36 1072.85c-23.54-557.19 12.64-512.58-166.87-439.67l-6.54 814.86c45.7 19.99 79.7 22.58 138.6 18.7 77.36-5.1 37.81-28.54 54.36-92.69l174.03 32.71c52.11-85.7 18.59-228.7 12.7-334.73l-206.28.82zm-439.36 226.59l173.02 49.71c44.18-25.58 59.1-55.04 52.45-105.3-12.82-96.71-14.86-411.09-29.98-540.15l-201.73 54.37c-10.46 65.91-17.96 509.04 6.24 541.37zm1361.48-502.32c15.96-47.59 20.68-144.17 1.58-185.96-33.4-17.12-359.97 15.33-404.22 29.65l6.13 176.21 396.51-19.9zm2782.57 5.46c68.07 2.95 118.17-3.06 185.64 5.26 53.88 6.65 149.21 21.72 196.31.96 19.92-38.03 16.35-129.67 4.99-170.59-54-13.49-356.87-42.77-399.14-26.18l12.2 190.55zm-4834.12 8479.19c-34.34 126 18.54 230.39 121.44 283.18 44.78 22.98 89.34 22.61 138.36 28.91 52.49 6.76 82.39 32.49 123.55-15.31-20.63-72.13-244.24-213.19-276.97-239.94-42.31-34.6-41.41-69.13-106.38-56.84zm5688.6-8484.85c16.63-51.51 33.19-130.01-39.24-143.72l-162.45-7.13c-19.07 56.32-1.13 113.24 29.26 157.49 52.26 2.58 125.38 12.9 172.43-6.64z"/><path class="fil0" d="M14123.17 3879.73c26.68-45.17 38.22-94.37 23.53-150.22-29.31-11.29-138.07.08-171.14 6.25-108.5 172.31 53.24 152.98 147.61 143.97z"/></g></g></svg>