<svg xmlns="http://www.w3.org/2000/svg" width="320mm" height="150mm" viewBox="0 0 32000 15000" shape-rendering="geometricPrecision" text-rendering="geometricPrecision" image-rendering="optimizeQuality" fill-rule="evenodd" clip-rule="evenodd"><path d="M18574 12813.75l2.49 126.45c-679.02-15.19-1460.9 23.08-2111.07-31.05 0-218.29.23-128.92 434.02-123.56 167.22 2.08 1674.56 28.16 1674.56 28.16zm-1968.88-820.44c559.13 149.59 1171.52 313.95 1707.49 512.26-591.16-20.48-1178.82-38.12-1769.59-77.62 0-127.12 53.86-335.57 62.1-434.64zm263.89-325.97l1179.92 15.32c133.06-.77 235.6-1.76 385.37-1.76 12.32 102.28 51.17 320.92 49.07 436.6l-1515.49-409.34c-.44-.1-46.88-11.68-49.47-12.61-33.77-12.29-24.11-6.23-49.4-28.21zm1536.75-341.5l-1275.14 28.78c-83.86 9.41-236.57 5.12-325.71 3.83-61.19-.88-95.97 7.59-84.61-53.96 10.83-58.68 1526.59-902.44 1577.58-850.14 30.34 244.55 107.88 639.52 107.88 871.49zm-1583.32-543.29l52.98-443.75c47.26-258.61 14.11-239.26 148.81-239.26 385.2 0 717.56 15.52 1102.11 15.52-56.66 77.35-1166.78 605.37-1303.9 667.49zm4645.94-337.88c-30.3 428.87-81.74 916.53-97.78 1331.33-378.5 0-281.79 180.69-278.8 418.49 5.92 469.34-60.03 468.67 232.22 466.3 132.11-1.07 197.16 16.66 326.1 15.42 128.66-1.21 230.66 52.05 247.55-78.19l16.22-713.37c0-131.3-110.72-108.65-232.84-108.65l108.66-1955.87c145.77-69.95 135.64 33.73 139.09-280.02.98-88.77 17.29-107.13 16.54-200.79-.88-107.16-26.72-171.14 61.68-171.14 35.77 0 46.57 10.81 46.57 46.57l2.5 3720.09c4.28 19.16-941.8-12.44-1062.22 8.36-49.49 8.54-43.7-50.84-42.52-173.62l.15-2111.24c.41-176.11-15.55-321.68-15.55-512.23v-791.66c-.33-202.24-33.38-217.32 108.66-217.32 73.36 0 46.61 120.56 46.57 248.37-.17 566.96-45.69 412.85 343.88 433.07 33.01 1.72 52.65 5.3 63.71 10.09 17.56 7.62-23.97 552.18-30.39 616.01zm-4366.53-1493.81c87.65 7.3 303.03 216.21 425.66 303.91l552.26 425.66c54.84 40.9 106.15 56.61 124.19 124.18-141.49 0-1223.67 18.48-1231.05 5.75-10.24-17.7 7.07-52.14 15.55-102.51 39.64-234.73 113.39-531.64 113.39-756.99zm4361.88 760.62c-308.24 0-263.9 38.47-263.9-170.75 132.46 0 202.34-15.53 325.99-15.53 0 88.99 19.06 186.28-62.09 186.28zm341.5-155.23h15.51v108.66h-15.51v-108.66zm-4377.41-869.28c211.61 0 502.77-7.09 680.5 3.05 14.86 191.34 51 402.44 64.59 617.87-47.71-12.74-319.92-246.3-388-294.99l-327.09-262.79c-42.7-42.58-20.26 12.77-30-63.14zm962.4-3259.75c69.08 0 776.31 179.31 874.78 211.82l1581.09 390.29c102.67 28.84 272.33 53.32 353.74 96.4-4.49 54.07-175.94 374.17 127.94 617.16 52.53 42.02 135.12 54.75 198.05 96.89l-.11 698.61c-.37 74.26 18.31 188.27 12.41 228.51-12.61 85.95-29.74 18.19-27.67 206.17l-31.2 682.87c0 49.11 38.18 52.9 77.62 62.08l-24.01 426.15c-10.51 25.1-24 38.04-38.91 44.3-6.09 2.56-188.74 8.6-198.56 8.05-22.75-1.32-44.79-5.47-62.37-14.94-87.1-46.93 16.46-91.76-80.23-137.09-48.37-22.68-155.73-16.02-216.84-16.02-137.59 0-108.84 131.42-108.66 263.88l15.52 3616.8c0 20.63-2.77 39.42-13.32 39.19-77.6-1.62-1616.38 17.41-1739.85-15.58-15.98-4.28-14.66-35.68-20.36-81.74-68.02-548.41-109.73-1196.16-179.43-1745.39l-251.26-2403.12c59.82-15.98 77.62-38.06 77.62-93.15.01-607.77 9.65-1221.19-18.37-1827.89-10.53-228.1-60.03-143.49-292.08-143.49-22.87-107.97 33.96-531.93 46.63-684.71 9.69-116.83-30.14-126.8-93.2-169.03 2.11-95.08 31.03-230.32 31.03-357.02zm-1505.69 372.53c-17.85 216.04 15.52 563.83 15.52 791.66-93.48 0-200.43-6.06-285.26 6.68-41.53 6.23-36.12 2.76-43.04 43.87-80.49 476.42-106.33 1504.79-106.33 2013.98 116.26 61.51 77.78 33.8 201.8 31.03 20.49 87.98-20.14 138.51-31.06 248.38-111.78 660.84-229.13 1320.77-348.29 1980.11-117.75 666.72-236.93 1333.13-356.94 1999.55-157.9 1.09-964.42-5.86-1188.54-5.86-165.34 0-2465.83-5.5-2470.29-10.1-23.85-24.58-390.61-3518.7-432.46-3901.62 0-153.98 217.32-97.8 217.32-310.46 0-71.01-49.47-121.59-89.25-159.11-135.82-128.1-46.34-235.94-114.39-382.33-38.08-81.9-76.71-39.32-76.28-187.61.89-314.26-77.09-627.7-77.09-947.4 0-65.79 190.91-286.31 233-341.32 102.54-134.02 204.97-287.43 301.33-428.23 257.9-376.71 527.59-752.35 782.13-1127.19 112.8-166.18 414.65-578.48 545.84-796.74 60.71-100.98 31.69-99.34 161.45-69.46 681.1 156.82 2724.15 689.4 3253.97 807.09l48.14 652.47c-10.6 101.43-67.44 57.18-141.28 92.61zm-5122.5-310.44c0-284.78-48.81-173.27 119.81-314.85l370.58-281.37c42.69-29.3 58.93-51.07 114.99-55.75 0 79.16-18.71 211.55-76.77 267.52-63.87 61.52-491.46 374.53-528.61 384.45zm698.51-1583.33c-2.22 100.72-37.51 85.35-107.98 124.85l-445.08 272.53c-105.22 56.53-64.61-76.4-73.67-363.69-1.11-35.4-3.09-56.76 89.91-53.34 181.2 6.67 350.76 8.04 536.82 19.65zm46.59-760.61c-81.05-1.81-229.51-24.31-310.46-31.04 0-108.07 81.67-287.78 108.65-403.6 135.87 0 203.02 20.82 325.98 31.05 0 60.88-94.98 342.74-124.17 403.59zm325.96-931.36c-56.36-15.05-109.13-67.83-124.17-124.18 42.15-45.61 203.21-181.22 263.89-186.28-1.45 64.97-94.25 277.14-139.72 310.46zM11367.5 6256.38c48.09 230.43 100.21 494.84 198.41 717.42 45.06 102.1 102.99 906.13 102.99 1045.7 0 80.78-90.12 23.57-65.75 188.17 12.69 85.69 17.17 186.77 34.69 261.99-45.29 67.64-215.94 281.48 5.2 398.39 67.89 35.9 80.82 50.19 86.52 114.86 106.05 1201.78 322.36 2819.24 422.5 3926.24-292.32 0-588.87-8.31-881.25-21.61-343.98-15.64-726.3-23.39-785.72 48.58-52.89 64.07-27.32 542.68-26.76 640.72l-15.73 418.9v450.16h12247.42c-39.96-83.27-15.52-1224.07-15.52-1428.09-58.09-38.89-11.8-32.56-93.23-46.47-163.66-28.02-242.6-15.61-403.49-15.61-41.65-178.75-15.54-1676.78-15.54-1986.9l.9-1754.97c.1-177.51-86.71-154.34-218.21-154.34-56.38 0-54.45 18.41-108.65 31.05 19.29-82.8 21.31-319.92 46.56-372.55 37.9-37.9 38.43 26.52 170.75-62.08 0-83.74-5.75-171.99-13.45-260.92-13.03-149.96-17.94-336.64-37.06-480.32-28.55-214.44-25.54-68.19 6.76-198.89 11.56-46.72-35.24-142.42-45.09-197.33-47.19-221.42-92.64-442.75-144.01-663.18 235.88-65.34 352.2-198.33 357.04-481.22 195.28 23.2 184.78 48.79 241.53-177.55l177.57-660.66c-79.89-118.58-7573.2-1983.14-8270.13-2161.14-378.07-107.43-403.79-63.89-416.66-293.96-48.4-865.6-113.8-1704.79-176.68-2589.78l-49.89-43.25c-70-23.71-295.64 188.67-369.52 244.74-378.17 286.92-760.43 689.46-1052.63 1058.45-394.01 497.62-442.43 666.55-675.36 1233.94-414.64 1515.59-407.51 1782.2-218.51 3271.51z" fill="#d7b56d"/></svg>