<svg xmlns="http://www.w3.org/2000/svg" width="320mm" height="150mm" viewBox="0 0 32000 15000" shape-rendering="geometricPrecision" text-rendering="geometricPrecision" image-rendering="optimizeQuality" fill-rule="evenodd" clip-rule="evenodd"><defs><style>.fil0{fill:#d7b56d}</style></defs><g id="Слой_x0020_1"><path class="fil0" d="M15860.88 13494.22c11.27-42.96 65.91-49.04 135.68-200.8 54.06-117.61 127.22-401.39 156.86-534.85 10.06-45.3 25.36-98.37 32.02-140.58 5.34-33.87 11.25-123.24 40.35-134.2-.42 145.68-19.3 360.44-63.51 496.05-89.09 273.36 103.41 234.25.35 440.93-41.51 83.25 7.96 72.9-116.95 71.99-52-.38-138.83-7.93-184.8 1.46zm-598.27-1084.4c-11.15-18.8-3.54-24.46 7.98-53.36l54.63-149.9c24.1-64.1 51.5-130.76 74.97-194.74l226.04-594.05c21.88-60.53 41.23-148.61 66.97-204.42 28-60.72 133-353.32 168.4-365.83 9.38 141.73.34 358.08-19.62 496.95l-130.14 8.67c-33.61 74.52-48.65 212.61-86.48 290.37-21.46 44.1-40.24 84.05-61.02 126.93l-301.73 639.38zm1158.05-1355.39c93.71 238.19 281.68 233.7 282.74 368.45 1.48 191.06-63.18 782.24-95.23 972.98-17.46 103.92 16.07 267.71 40.7 373.35 39.92 171.13 67.1 361.58 101.71 539.69 11.27 57.95 39.6 151.28 18.09 181.13-114.76-1.05 69.23-34.69-166.3-35.23-64.28-.15-121.27-8.5-183.81-9.13-1.35-26.38 24.47-116.44 32.31-149.47 11.17-47.02 17.95-113.6 24.81-163.66 18.17-132.62 1.65-181.69-64.74-291.39-94.58-156.22-45.54-143.04-48.17-312.04-.94-59.4-10.59-120.35-11.76-180.25-1.63-83.96 3.13-277.75-15.77-350.63-23.22-89.52-22.91-51.94-18.01-153.21 5.9-121.66-5.27-241.54-6.14-361.25-1.43-197.36-15.87-568.3-10.02-738.62 32.71 47.38 35.24 109.71 57.74 161.96 20.56 47.75 42.84 98.98 61.85 147.32zm-3035.18-3409.35c42.55 37.5 55.66 166.85 53.54 228.81l-85.2 23.03c-25.49-15.8-57.54-64.67-62.05-93.85-5.05-32.77 20.38-79.06 25.38-124.29l68.33-33.7zM13028 7106.43c-26.88-44.13-35.42-147.75-37.92-205.08-3.08-70.26-21.08-166.5 62.08-178.99 50.51 49.19 79.67 134.22 91.16 202.75 11.73 69.87-109.59 179.71-115.32 181.32zm549.47 780.44c-18.38-57.46 37.24-423.02 43.93-520.04 5.34-77.8 20.41-169.06 29.46-248.19 11.06-96.55-11.47-158.76 29.46-251.28 113.33-256.22 239.72-515.16 347.6-772.93 72.24-172.6 114.47-240.65 126.15-436.96 5.7-95.66-7.58-162.78 21.11-258.51 17.11-57.06 67-117.12 95.44-183.37 50.49-117.57 302.1-692.73 383.2-736.36 14.33 115.95 48.72 223.98 74.37 336.82 26.67 117.38 42.7 232.99 69.62 347.87 43.87 187.36-44.65 529.86-105.57 715.02-59.5 180.84-205.16 466.68-189.6 646.99 6.33 73.44 18.03 105.7-23.97 169.1-28 42.28-24.12 117.76-33.58 172.73-21.22 123.32-33.2 246.59-42.61 371.36-39.01 517.4-53.47 1040-104.58 1555.15-36.25 365.28-17.2 1214.39-20.25 1634.37-29.41-29.87-135.42-513.04-151.82-591.32-41.5-198.08-104.74-396.01-144.4-593.57-32.01-159.51-301.25-1112.8-289.13-1174.02 57.37-69.75 195.54-43.81 280.31-51.48 130.98-11.88 149.77 16.81 266.13-59.59 1.37-52.26 9.7-60.57-27.01-87.84-53.28-39.57-101.69-70.96-169.35-44.12-20.58 8.16-34.03 34-58.18 45.3-56.59 26.47-345.09 31-406.73 14.87zm2528.35-2987.05c34.94 22.2 302.56 173.52 305.66 177.51-35.12 15.36-407.46 56.4-463.51 57.22-45.19.67-90.39-.23-135.47-2.33-52.22-2.44-52.24-4.13-85.98-41.3-137.29-151.19-464.54-691.88-460.34-827.44 185.57 146.54 359 290.92 544.12 435.32 94.69 73.86 195.06 137.2 295.52 201.02zm2753.53-1102.7c116.63-.13 532.4-3.63 600.96 49.26-110.97 168.87-836.5 173.8-808.68-56.79 26.38-5.28 162.51 7.58 207.72 7.53zm-55.84-804.72c48.92-16.41 98.61-32.44 146.75-49.9 38.71-14.03 98.31-55.15 129.7-63.4-1.2 24 85.77 250.11 109.44 297.5 15.89 31.78 17.62 65.04 34.76 102.75 20.52 45.13 149.83 362.78 151.27 404.86-52.76-2.6-114.59-20.74-161.96-21.38-58.22-.79-115.61-2.74-173.57-3.68-55.46-.9-314.6 16.5-337.51-2.29-10.47-17.49 87.01-593.71 101.12-664.46zm803.99 353.3c33-12.22 382.47-38.91 432.96-37.61 92.46 2.37 352.48-3.4 418.48 41.89-1.83 105.85-580.41 90.2-681.71 74.53-35.61-5.5-160.83-48.35-169.73-78.81zm-6431.85 4327.19c-43.34-49.89-134.35-214.38-145.97-277.42-13.55-73.46 6.03-105.13 61.09-146.18 57.33-42.76 221.15-290.24 268.21-356.52 42.89-60.38 59.52-258.48 72.68-339.79 76.13-470.25 134.16-888.8 337.98-1326.29 50.58-108.57 90.78-164.84 135.55-286.22 50.29-136.35 145.21-507.85 178.02-656.78 70.42-319.73 113.64-727.73 221.65-1027.74 45.12-125.28 73.92-156.02 196.65-215.9 80.67-39.35 205.06-104 288.2-126.97l155.88 513.64c12.69 61.66 30.15 117.01 36.73 179.74 24.4 232.54-176.4 357.68-218.34 447.25-17.77 37.94-27.97 142.22-64.99 154.09-47.61-61.47-4.51-371.18 1.09-460.06 12.96-205.99 116.58-258.68 6.89-392.07-89.65 29.37-182.3 435.32-205.39 532.83l-138.69 600.62c-90.38 259.03-414.68 797.92-403.81 1052.94 16.56 388.83-135.45 561.46-230.03 867.85-47.15 152.77-198.06 421.01-209.09 531.39-16.27 162.71 12.84 99.4-26.02 341.09-14.23 88.45-38.84 18.22-77.27 80.21-21.35 34.43-47.31 82.04-69.13 113.67-24.88 36.1-63.06 56.41-94.76 84.99-13.34 12.04-70.29 111.04-70.17 112.4l-6.96-.77zm6869.67-4505.53c-13.17-62.87 21.9-1114.05 29.87-1127.14-5.06 15.21 116.75 358.31 145.56 429.8 81.6 202.48 132.92 377.23 203.2 574.02 20.03 56.1 41.71 92.38 44.59 151.88l-423.22-28.56zm-4911.64 2487.23c-38.07-125.61-306.57-903.17-284.21-964.08 33.5 40.46 73.64 144.68 107.61 199.7 39.67 64.23 75.61 127.87 117.58 191.1 39.55 59.57 234.6 307.01 295.72 315.59 23.99 3.37 102.43-23.48 109.32-48.34 9.38-33.84-110.34-88.54-196.47-257.87-66.5-130.74-142.2-267.78-212.63-397.21-68.65-126.12-141.95-288.34-193.56-422.53-63.16-164.28 77.38-199.35 178.8-391.93 90.74-172.3 73.19-317.62 20.29-500.39-23.2-80.12-43.52-160.7-66.38-241.65-19.91-70.48-57.22-165.84-70.56-232.21 23.97 13.68 126.78 139.78 154.57 170.55 51.35 56.85 105.69 104.9 160.07 155.82 81.65 76.46 97.61 90.21 213.73 109.7 75.63 12.7 172.9 47.55 250.06 65.97 195.64 46.72 849.21 191.37 972.12 309.25 13.79 35.03 1.72 248.02-7.66 292.07-22.05 103.66-57.21 144.1-4.74 259.24 32.26-8.95 11.32 3.59 23.61-35.8 49.21-1.97 42.8 8.13 55.48-43.12 6.86-27.73 10.26-45.66 32.54-64.05l-103.87 582.71c-28.34-19.24-68.44-288.28-74.01-334.1-14.63-120.23-15.5-260.03-36.2-376.28l-125.31 37.65-2.1 131.55c-83.89-97.66-81.11-275.19-245.41-308.79-84.85-17.36-172.53 4.61-249.52 23.33-52.45 12.76-60.82 7.58-103.6 40.26-14.55 11.11-77.73 49.51-80.17 53.57 17.87 37.16 49.42 11.85 88.23 60.66 23.38 29.37 36.3 50.59 62.89 80.15 29.15 32.41 51.11 46.8 77.28 73.11 22.38 22.48 43.29 49.76 68.2 74.9 37.25 37.59 274.74 281.62 283.43 308.75-45.31.04-182.61-84.11-228.08-108-137.01-72.01-288.51-153.18-409.13-253.41-25.48-21.17-171.71-135.73-185.3-141.4-21.75 9.59-55.45 98.36-58.2 122.78 78.77 70.75 477.56 338.53 488.2 376.54-25.03-5.17-419.01-261.79-448.33-289.62-58.27-55.34-142.55-107.4-204.28-164.32-30.31-27.95-65.73-56.61-97.41-83.18-31.49-26.42-64.7-73.66-107.74-67.06-.26.48-45.11 107-45.37 107.91 25.44 53.22 141.8 111.73 163.24 150.65-11.5 30.33-54.69 23.88-87.17 29.24-2.53 48.49 44.52 191.94 60.05 246.86 32.89 116.17 44.14 324.87 103.69 514.35 26.79 85.26 73.06 108.73 138.68 161.7 160.75 129.75 428.77 231.8 629.89 288.56 150.8 42.58 216.55 30.65 257.49 43 9.54 27.55-55.52 143.89-77.63 168.65-10.45 11.7-52.14 53.61-64.13 62.9-30.44 23.58-13.25 3.49-27.97 33.76l-24.58 41.36 101.49 58.99c40.89-21.93 51.19-46.81 85.34-74.41 29.66-23.95 65.98-34.85 100.6-49.62 107.82-46.07 119.04-79.1 212.11-4.94 158.93 126.65 157.88 214.8 212.44 398.04 48.45 162.68 83.39 325.63 125.21 490.1 43.12 169.58 75.57 351.25 81.79 526.22 14.41 405.31 10.98 812.6 8.79 1218.5-.98 181.86 29.42 1103.33-17.23 1200.81-46.58 13.59-70.32 24.89-112.46 38.09-35.5 11.13-81.4 19.53-115.13 30.4-127.71 41.18-171.82 114.85-274.7 153.76-92.07 34.83-200.64 121.03-302.21 129.97-1.89-68.98 56.92-248.94 77.42-326.04 25.53-96.03 62.85-217.79 80.23-312.39 36.94-200.99 116.11-421.26 156.53-627.65 42.08-214.76 109.05-416.93 161.05-628.24 37.71-153.2 150.18-489.45 166.32-614.92l-111.95-66.18c-51.49 101.41-61.35 217.89-100.33 327.08-36 100.79-57.33 225.69-92.89 335.55-32.96 101.82-64.06 230.67-92.95 336.94-27.52 101.3-75.94 216.3-112.41 316.53C16219 9062 16053.15 9508.97 15864 9880.26c-95.46 187.42-219.42 365.88-297.02 559.55-78.27 195.38-180.52 397.03-267.45 590.44-88.5 196.89-179.44 392.94-268.2 589.89l-261.39 589.02c-22.61-27.42 22.2-512.23 27.59-575.83 47.48-560.23-32.92-482.55 269.29-932.89 73.07-108.89 162.58-252.69 228.67-365.78 146.56-250.81 306.46-497.16 460.72-743.39 42.63-68.07 465.74-715.32 421.53-749.52-53.09-17.93-117.39-13.82-149.46 34.94-78.09 118.67-133.67 251.32-220.24 367.32-17.08 22.88-59.65 97.59-72.18 124.41-31.72 67.94-305.97 477.62-378.1 599.37-42.41 71.58-112.38 159.46-163.94 227.58-54.97 72.64-299.3 411.97-347.14 441.4 27.53-166.74 139.05-423.75 191.75-597.56 57.07-188.18 128.04-401.59 195.51-586.27 34.14-93.46 61.29-205.57 97.39-294.22 109.77-269.57 260.29-518.74 396.95-776.48 179.2-337.95 386.95-666.54 550.47-1014.52 83.09-176.8 168.11-348.55 263.33-519.1 50.11-89.75 185.55-299.21 187.31-398.22 1.52-86.61 17.24-85.66 29.76-158.08-137.09 19.72-301 470.31-390.1 586.4-32.89 42.87-60.74 102.97-95.09 152.44l-288.46 434.39c-100.36 165.87-713.11 1074.87-834.15 1120.87 32.39-93.7 275.27-452.24 343.53-573.4l341.53-561.29c88.35-133.9 685.02-1035.3 697.3-1107.54l-125.64 1.88c-30.26 10.25-193.17 291.64-224.51 332.34-80.01 103.9-153.92 223.22-221.42 334.69-68.68 113.45-147.82 224.46-227.78 328.56-37.36 48.62-77.83 112.74-115.76 163.47-149.49 199.93-1012.51 1344.61-1115.52 1384.27-12.38-172.16-14.63-347.37-14.15-521.02.49-169.04-6.57-327.66 10.08-498.38 15.93-163.31 19.39-340.32 31.21-506.26 6.57-92.54 19.85-413.51 44.12-481.19 8.9 3.63 104.22 116.31 121.85 134.69 33.03 34.48 97.71 92.58 136.23 119.68 119.72 84.23 204.64 170 367.09 123 114.86-33.22 603.37-286.21 640-390.1l-72.21-101.62c-1.74.68-166.41 122.92-179.8 133.91-58.1 47.63-127.73 87.11-200.55 106.93-196.59 53.47-316.83 63.98-462.6-92.71-108.37-116.5-195.14-207.67-272.01-352.14-43.96-82.62-6.68-162.11 24.76-241.1 19.66-49.4 57.81-201.64 77.73-231.98 25.71 5.51 296.39 382.19 338.51 438.51 58.27 77.89 113.47 140.81 179.89 211.48 91.2 97.05 105.6 102.88 127.58 94.71 59.54-22.15 80.99.46 126.04-16.44-20.23-79.58-759.06-794.73-639.77-979.6 22.76 10.72 215.25 346.48 248.88 398.94 40.19 62.69 96 128.36 129.02 193.89 19.54 38.81 96.57 174.8 126.15 199.81 33.13-4.43 72.03-39.47 98.66-60.76-.25-42.15-83.97-172.18-110.81-214.87-37.68-59.96-132.12-382.71-159.68-472.23-23.35-75.79-63.25-156.18-85.62-229.96zm3700.59-2825.63c-10.25-43.34 48.55-322.63 66.72-377.39 23.98 13.54 28.19 51.57 42.18 83.75 82.53 189.67 45.66 113.07 10.18 269.12-40.83 7.86-81.27 29.3-119.08 24.52zm769.25 399.47c3.16-24.49 32.1-103.24 41.9-130.95 54.12-153.1 248.11-860.93 280.34-890.92l-24.76 973.93c-17.11 11.78-121.6 9.7-155.31 17.35-33.58 7.62-117.02 31.34-142.17 30.59zm-4510.28-1508.46c4.49 39.48 9.58 78.77 21.77 114.42 11.45 33.54 33.78 64.51 36.46 92.74l21.67 362.27c2.03 91.73 45.14 53.98 16.09 97.02-12.28 18.19-58.8 45.15-80.86 41.56-69.45-11.33-88.46-98.5-121.13-141.53-107.56-141.57-133.43-138.72-93.8-261.61 12.3-38.15 59.79-139.32 82.06-174.71 19.64-31.25 86.04-121.41 117.74-130.16zm1706.69 944.77c-451.39-83.04-256.85 71.14-631.12-325.92-41.3-43.8-36.58-64.15-32.44-125.29 3.06-45.1 1.65-104.41 22.14-139.38 25.28 22.45 39.44 104.98 60.81 131.36 12.89 15.93 85.99 54.26 109.12 71.27 55.51 40.79 54.42 63.7 89.1 98.36 33.1 33.05 115.67 16.33 133.84-10.86-17.8-34.12-8.53-1-39.82-30.11 40.81-69.92.8-39.49-33.72-101.06-11.23-20.03-35-109.68-35.25-133.72 49.28 10.8 362.12 241.72 385.16 362.52 16.9 88.67-12.76 123.73-27.82 202.83zm-1475.01-296.63c53 93.05 70.97 207.34 151.19 294.71 87.79 95.64 211.3 108.22 324.07 50.72 58.21-29.67 63.12-87.62 76.42-149.37 12.08-56.08 26.8-125.89 34.65-182.29 12.4-89.09 9.71-302.72 104.18-337.88-8.87 126.6-18.28 263.64-38.28 389.89-8.73 55.23-65.31 330.81-52.81 361.37 17.77 5.83 50.74 9.07 90.8 10.95 390.56 18.26 693.46-21.69 1076.23-42.54 307.24-16.76 303.54 83.38 750.34 13.68 168.28-26.23 524.78-92.18 674.92-152.39 159.37-63.92 178.01-168.84 218.36-194.11 5.73 19.16-99.35 410.8-123.06 446.32-131.01 36.94-291.39 82.09-414.57 132.58l-422.13 122.69c-159.4 51.22-277.74 92.19-450.63 98.87-108.41 4.2-157.14 16.37-164.82-106.86-10.58-169.84 46.22-132.1 60.69-211.3-11.39-30.93-17.14-14.28-28.72-51.91-20.72-67.14-56.48-65.01-96.75 2.59-19.46 32.68-38.69 57.44-58.42 92.83-70.45 126.37-193.56 145.37-243.61 357.87-12.83 54.54-47.16 199.45-38.6 249.13-44.72-6.01-163.62-73.34-219.88-93.23-111.69-39.48-612.66-163.63-732.9-192.43-84.31-20.19-173.43-39.4-258.8-57.73-107.63-23.1-114.92-43.12-187.89-120-44.78-47.18-286.9-279.9-299.79-314.81 72.6-89.38 63.17-14.58 158.33-183.93 20.12-35.81 64.76-60.8 70.32-102.49 3.57-26.68 28.57-116.16 1.26-123.76l39.9-7.17zm3623.91-260.5c70.43-25.02 217.87-96.95 281.92-100.02-6.35 48.38-140.08 408.95-164.16 441.57-36.77-29.87-120.42-286.04-117.76-341.55zm-2538.7-229.1c-22.29-5.08-110.79-121.31-129.2-147.85-51.42-74.06-62.96-120.19-34.59-217.55 33.45 31.53 87.24 96.76 126.12 140.56 49.42 55.67 47.65 150.52 37.67 224.84zm2611.35-52.83c2.55-67.5 266.06-640.09 311.83-676.95 23.22 28.15 9.61 90.05 8.9 131.87l-14.99 386.02c-14.02 11.49-124.87 68.69-149.93 82.21-38.81 20.97-114.98 74.06-155.81 76.85zm-3240.44-473.32c33.1-4.9 90.11-42.61 106.15-72.58l-28.37-56.87c47.1 3.24 234.13 104.74 262.76 133.28.57 89.72-19.59 187.14-29.06 279.94-8.01 78.55 1.14 139.28-84.48 226.48-37.39-14.99-34.32-17.75-64.5-35.14-23.86-13.76-46.56-17.71-71.23-28.42-88.9-38.58-173.22-87.75-303.04-31.95-22.85 9.83-41.98 15.88-68.21 28.23-24.9 11.73-54.38 13.19-70.05 19.88l-2.52 127.91c6.04 5.35 71.99 53.65 78.61 57.42 128.77 73.26 268.77 31.65 330.77 46.31 1.36 37.36-45.17 201.46-53.62 258.99l-34.86 208.27c-1.74 25.63 1.81 46.94-3.37 70.97-44.73 36.57-123.35 31.51-168.43-9.02-19.94-17.94-70.83-108.3-83.21-133.92-81.61-169.05-87.56-295.42-105.14-332.49l-73.75 4.59-21.89-149.21c75.88-38.37 17.31 14.01 66.97 19.83 13.73-22.76 2.07-55.29 13.55-88.93 12.58-36.83 20.54-28 3.36-66.46-15.94-35.65-13.28-35.87-39.68-58.47-28.05-24-17.36-31.33-34.09-64.78-28.26-56.48-69.5-55.9-82.11-111.71-13.78-61-5.07-119.58-4.74-179.72 78.51-70.62 226.96-189.83 340.02-174.45l-20.67 47.24 65.58 98.77c32.1-9.68 71.88-78.57 101.08-107.4 54.8 17.49 37.74 41.07 78.17 73.41zm-658.33-43.74c-7.13-74.87 7.5-100.93 52.41-154.19 29.25-34.7 65.7-76.74 109.64-88.34 25.85 31.94 20.38 66.19 21.54 109.12-26.67 22.29-67.27 45.81-94.79 69.26-27.44 23.39-57.48 47.65-88.8 64.15zm985.06-110.2c-11.44-43.82-2.98-63.73 4.29-107.22-26.86-15.94-.89-3.2-33.04-12.66-52.61-15.5-126.9-33.82-166.91-81.81 8.23-20.91 22.07-32.43 34.26-47.42 44.29 7 115.25 60.6 151.38 90.62l76.8 74.67c23.19 24.79 26.22 17.53 22.24 68.82-28.25 19.54-51.89 19.64-89.02 15zm3302.58-386.86c-6.68-59.51 71.93-178.72 111.77-178.3 16.42 34.99 5.28 126.85-7.71 165.47-27.86 17.94-68 17.44-104.06 12.83zm-6161.5 5975.56c-48.78-42.28-29.01-109.61-138.61-170.63-78.76-43.84-163.88-29.24-218.54 41.19-88.98 114.63-28.06 388.75 14.51 517.78 24.19 73.31 20.52 36.6-4.34 110.27-13.5 39.94-15.36 105.38-5.54 146.16 61.51 255.23 326.08 496.53 359.48 569.55-24.58 53.56-270.01 96.69-338.87 110.89-107.9 22.25-183.93-11.75-236.36 102.27-31.03 67.48-68.79 69.3-6.89 131.61 155.8-22.24 79.41-40.23 282.76-78.77 93.17-17.65 235.17-37.32 329.27-34.51 33.93 98.02 66.84 246.41 92.89 350.69 29.65 118.73 59.7 236.57 89.04 355.62 58.25 236.4 123.95 472.05 184.4 708.19 121.07 473 236.95 949.86 364.55 1420.55 63.18 233.03 111.73 476.52 180.69 707.19 89.14 298.23 110.03 449.79 18.28 752.94-59.92 197.96-171.59 430.16-281.92 605.36-56.6 89.86-192.29 170.99-140.9 279.49 31.92 67.42 222.93 121.28 295 154.82l.68 153.85-487.46 1.71c-.57 67.78 1.85 681.25 9.96 691.81 17.16 22.38 466.04 10.03 523.82 10.05l3204.91-.21c173.84.75 361.91 6.43 534.28-.92 14.32-77.42 1.76-477.68 2.66-615.5.95-147.16 27.11-79.28-456.22-92.74-21.37-54.31 12.56-175.37-14.51-214.22-23.23-17.55-425.03-14.85-478.71-6.65-48.26-249.89-94.08-499.58-143.15-749.54-30.46-155.17-64.89-204.58-39.11-372.58 20.27-132.06 34.45-262.34 49.78-394.95 15.03-130.05 34.19-275.84 39.07-405.69 10.05-266.94 53.08-178.63 104.58-339.37l174.07-713.34c29.83-156.57 11.01-197.51 108.06-336.75 91-130.54 176.53-269.32 253.4-408.7 26.77-48.51 65.92-91.78 89.06-138.62 50.99-103.17-1.6-257.88-20.51-370.01-85.21-505.31-173.7-1014.39-266.02-1518.37-47.66-260.21-93.81-510.86-113.26-775.23-23.45-318.67-156.25-756.39-260.77-1070.65-52.35-157.41-112.99-160.43-171.17-271.9-62.54-119.78-29.34-251.36-9.19-377.12 60.84-379.61 139.22-755.05 203.73-1134.3 18.3-107.54 26.31-291.38 62.66-382.71 140-351.64 568.59-371.38 877.25-452.83 117.09-30.9 231.35-62.05 347.29-97.28 121.87-37.03 221.72-80.19 348.28-108.69-12.47 77.18-57.33 226.82-82.09 304.32-31.29 97.97-93.94 367.54-133.63 441.75-30.39 56.83-3.27 93.24 37.57 131.99 182.09 172.74 692.52 201.6 931.6 107.27 62.56-24.68 195.25-96.3 240.3-143.79 116.42-122.73-8.92-143.43-47.76-245.56-105.84-278.26-190.81-568.62-308.14-842.84-60.81-142.1-63.9-149.02-10.11-293.93 35.14-94.66 60.39-193.43 93.82-289.12 22.25-63.74 65.14-251.86 93.3-298.41 17.23-28.49 483.37-213.42 541.94-225.38-.87 19.83-38.9 168.31-46.41 189.03-9.3 25.67-26.68 53.88-35.92 81.48-62 217.87-131 436.25-191.62 653.21-24.98 89.39-54.87 189.08-81.96 278.52l-110.45 378.32c-14.65 27.03-47.43 38.56-33.97 80.38 46.72 145.34 428.07 173.8 555.15 178.99 154.44 6.3 281.35.25 432.07-36.45 32.19-7.83 82.9-37.23 181.39-59.73 58.1-13.28 121.92-42.4 161.3-87.04-7.34-36.22-37.31-68.03-68.31-89-66.31-44.84-46.08 2.14-75.29-90.17-26.11-82.53-64.47-161.51-85.79-245.81l-170.16-491.41c-43.97-130.16-138.11-376.09-166.84-495.33-16.96-70.38-60.86-173.98-85.89-246.09-31.85-91.82-15.27-33-8.85-124.61 4.27-61.09 23.43-85.14 21.4-142.65-132.77 6.34-314.73 79.25-453.28 109.32l-144.43 36.32c3.39-82.79 70.02-230.48 97.77-316.33 17.65-54.59 14.96-109.53 69.26-140.19 33.59-18.96 113.89-50.85 138.42-72.6 40.69-36.03 127.11-239.21 125.67-293.85-2.71-103.32-129.11-174.51-205.52-222.22-63.68-39.75-85.28-37.79-153.8-59.58-79.9-25.42-99.13-7.81-159.77 38.64-120.08 92.01-117.52 137.45-157.59 273.85-17.21 58.57-7.77 126.04-20.14 189.84-10.21 52.58-45.76 92.69-69.47 139.45-95.47 188.29-192.58 383.53-268.5 581.11-18.92 49.22-43.38 101.32-60.58 149.52-9.74 27.34-14.51 55.33-24.22 82.21-21.85 60.46-144.74 274-182.3 352.55-54.82 114.7-87.67 174.08-218.28 211.61-224.72 64.54-463.38 106.47-694.28 143.11-255.37 40.52-515.91-60.98-776.04-20.42-2.47-95.09 36.79-140.7-1.34-250.92-20.7-59.79-16.29-41.6-52.53-82.84-87.12-99.1-142.96-154.17-252.12-236.78l-78.73-57.36c-26.13-14.72-20.96-10.43-45.25-28.35 32.43-316.07 81.59-301.61-164.44-527.66-106.51-97.86-40.27-179.75-17.72-288 17.59-84.39 1.95-250.65-22.79-334.33-44-148.89-248.6-342.47-363.49-389.47-70.36-28.79-237.39 3.14-337.3-5.56-152.02-13.25-162.34 14.25-276.27 93.44-133.67 92.91-340.93 222.12-352.63 398.92-4.01 60.56 2.96 119.82 6.12 180.09 4.82 92-13.12 436.8-27.58 505.81-12.73 60.79-35.43 73.63-72.19 116.77-30.48 35.76-45.19 82.12-63.53 124.67-40.56 94.19-106.59 176.1-84.1 285.44 12.18 59.23 99.82 191.33 139.66 241.4 39.45 49.6 168.79 152.64 165.6 200.43-6.73 100.8-378.41 229.64-471.3 271.07-200.19 89.25-321.42 133.36-401.9 349.67-104.6 281.11-194.59 906.95-269.37 1237.6-28.15 124.43-123.45 468.96-177.4 572.83-89.62 172.56-163.54 338.45-230.09 521.46-79.62 218.95-95.55 397.14-135.24 620.4-18.66 104.94-40.27 209.55-58.7 314.76-10.36 59.13-33.93 288.24-57.3 317.02z"/><g id="_2737091004880"><path class="fil0" d="M-9398.07 9925.65c-12.21-174.52-18.72-342.7-35.95-515.14-8.38-83.82-12.48-173.59-18.72-256.24-3.57-47.26-7.96-79.78-12.4-121.73-3.24-30.65 3.12-67.57-.84-98.66l-581.73 3.78c-37.83 184.96-.4 715.33 1.05 937.18 2.21 338.52 10.14 675.83 9.05 1014.31-2.07 643 30.65 1295.15 26.73 1936.89-2 328.93 14 676.76 18.3 1009.31 3.93 304.84-51.34 1870.5 76.27 2005.28 86.2 91.07 262.77 177.53 384.8 201.44 92.02 18.04 414.56 72.43 489.1 41.74-54-83.45-322.95-52.31-453-140.68-111.97-76.09-272.99-197.01-188.42-347.09 52.51-93.2 217.46-226.97 308.93-281.71 63.78-38.16 124.65 35.46 177.28 73.24 315.3 226.35 796.09 254.61 1168.22 135.75 269.96-86.23 523.98-259.92 761.03-412.47 220.48-141.89 447.12-365.09 630.24-553 59.78-61.35 369.22-401.46 408.69-471.8 46.41-82.72 75.46-105.79 119.43-174.66 237.19-371.58 407.35-780.7 576.85-1184.84 7.67-18.27 164.57-452.03 170.75-412.3-15.82 283.84-130.65 611.64-232.78 875.06-93.56 241.32-415.7 864.27-581.89 1086.48-79.51 106.31-165.7 202.99-243.79 306.77-166.38 221.09-320.25 390.45-515.55 585.26-159.29 158.89-443.33 355.1-637.73 473.01-231.34 140.31-503.51 246.79-750.25 357.55-268.64 120.6-563.78 195.58-854.43 238.08-135.07 19.75-365.43 55.82-489.05-2.83-243.8-115.7-191.64-251.57-295.01-248.66-24.47 107.71.66 691.59 5.57 842.22 5.83 178.77-30.27 671.01 50.04 793.11 269.89-258.04 599.31-545.51 1049.88-668.26 454.97-123.94 803.55-245.93 1206.28-516.78 309.59-208.21 715.89-486.87 982.54-742.5 156.49-150.01 262.99-300.91 397.74-465.03 113.75-138.53 277.45-509.92 333.12-523.43 34.31 48.43 62.99 243.24 68.7 314.85 7.79 97.69 2.21 311.89 13.37 358.84 65.74-9.01 114.29-111.17 144.8-167.69 290.27-537.79 537.06-809.22 667.02-1479.01 115.05-592.96 131.98-977.69-34.06-1564.77-20.07-70.96-146.56-406.53-198.47-417.11-.55.29-174.89 262.16-203.89 304.11-63.77 92.24-140.25 203.77-198.5 297.69-81.8 131.9-325.63 452.47-436.5 554.09-129.33 118.55-475.86 290.54-643.81 355.5-275.88 106.69-516.52 131.19-796.04 196.14-3.89 69.07 30.55 107.03 60.35 155.42 86.85 141.02 60.33 83.92 209.01 212.51 159 137.52 570.14 262.06 760.32 266.55-33.39 75.49-289.78 322.95-363.63 380.4-65.17 50.69-135.86 118.48-202.32 173.8-65.06 54.16-146.99 101.08-215.02 151.92-315.93 236.07-646.39 459.12-1058.05 409.4-259.04-31.28-314.98-84.97-520.77-222.88-205.16-137.47-244.28-970.03-257.41-1221.51-12.01-230.23-42.61-467.47-34.75-698.22 36.12-7.41 106.05.83 143.83-139.81 26.38-98.21-37.85-135.02-57.76-213.2 90.82 48.32 81.58 162.14 118.14 220.37 59.25-4.85 167.37-124.5 202.11-176.25 64.01-95.36 57.77-165.66-12.89-259.05-52.72-69.69-141.2-118.03-213.96-171.24-205.11-150-138.89-64.35-207.22-6.45-2.13-3.23-197.43-2267.56-180.8-2350.82 17.46 42.95 2.19 240.8 76.23 273.41 75.67 26.23 144.27-128.44 181.96-183 11.79-17.07 69.12-104.6 74.05-109.86 30.65-32.75 85.21-38.85 110.04-68.64-47.76-142.08-343.86-166.17-388.24-135.92-64.82 80.3-30.18 124.84-66.19 181.78zm-4891.22 4613.87c-141.26-49.35-289.41-868.86-329.79-1036.51-68.17-282.97-217.13-918.57-160.67-1187.25 8.81 8.9 155.15 436.1 168.09 484.14 47.53 176.46 321.09 728.42 421.11 900.44l184.97 310.48c26.16 33 43.4 49.78 68.45 87.4 88.14 132.35 184.76 253.45 284.95 375.86 99.74 121.85 184.82 248.59 298.23 362.36 84.37 84.65 607.44 620.58 678.83 613.45 33.03-33.55 27.27-186.9 29.27-247.13 63.94 98.1 21.62 173.58 259.21 140.92 251.54-34.57 258.46 40.6 348.62 36.07 64-145.71-19-213.15-29.26-269.25 133.2-85.88 71.3-297.49-32.38-390.21-23.08-20.64-177.83-77.57-209.94-83.94-38.73-7.69-92.56-6.72-131.55-14.76-59.81-12.33-38.11-34.18-96.19-42.24-19.86 39.25-62.81 185.46-59.81 226.99 11.42 157.87 81.69 138.1 111.59 188.7-75.03 1.6-67.68 2.82-139.74-17.83l-17.39 30.78c-20.33-68.72 17.6-69.24 20.52-126.93-3.49-15.69-432.23-357.37-524.33-463.44-14.54-16.75-27.8-36.52-37.12-45.41-16.24-15.49-27.16-19.58-43.99-38.52-26.75-30.12-61.13-54.74-80.48-85.39 55.02-44.39 430.02-89.18 626.71-237 117.27-88.13 366.53-344.58 331.1-510.21-67.69-33.71-137.26-11.77-222.72-23.96-347.52-49.57-299.96-66.9-616.84-173.07-314.06-105.24-752.36-355.86-1006.68-579.89-103.16-90.87-162.47-176.87-252-271.52-94.46-99.86-304.09-654.18-382.23-670.22-35.89 28.93-133.07 415.75-142.74 487.68-136.67 1016.86-119.45 2141.15 591.89 2961.12 54.42 62.73 278.62 291.58 359.78 229.2 10.56-30.25-30.57-84-38.97-120.05-17.02-72.98-13.43-247.07-8.63-321.16 3.75-57.71 17-91.79 17.85-157.79 91.04 14.76 587.76 690.54 712.55 813.46 137.65 135.59 250.94 239.64 401.97 359.93 68.2 54.32 369.08 323 428.14 319.49 8.62-35.48-54.96-353.83-72.19-399.88-40.85-109.11-49.76-284-146.68-350.12-187.94-128.21-372.6-296.86-530.12-460.36-139.47-144.78-379.8-346.66-483.28-508.12-32.47-50.66-186.22-206.39-238.13-256.89-68.31-66.47-160.81-216.75-219.74-262.82-56.51 18.54-47.99 19.76-38.94 79.18 10.27 67.39-4.7 310.24-51.3 344.22zm3260.54-9096.4c35.99-159.26-64.69-230.88 391.23-384.06 164.44-55.25 498.8-119.65 666.37-87.09-102.83 75.44-262.45 84.55-378.83 117.65-72.3 20.57-343.61 81.98-357.1 153.78 41.26 22.08 170.99-18.78 218.74-33.95 80.47-25.58 170.45-21.76 252.32-31.92 172.84-21.44 360.98-28.79 532.9 5.6 220.69 44.15 216.18 28.88 408.41 151.02 90.02 57.2 235.4 203.76 263.18 305.48-182.39-174.68-269.66-278.82-527.92-333.59-449.97-95.43-922-118.94-1346.05 91.56-97.18 48.23-168.5 121.32-210.97 221.04-28.84 67.71-66.65 309.88-47.1 372.09 59.27 15.13 57.28-38.49 80.75-80.93 23.1-41.76 51.65-66.89 73.76-109.29 30.67-58.78 95.1-184.57 150.48-204.78 20.53 37.32-2.86 13.27 7.81 41.08 4.11 10.69 50.49 91.53 96.85 111.64 120.86 52.42 98.76-9.51 220.47-.14-51.4 50.86-56.08 15.53-72.44 119.57-49.94-81.52-54.58-55.85-138.82-92.5-50.76-22.09-133.31-62.82-189.05-63.35-44.93 104.86-110.49 229.99-15.81 332.42 26.7 28.9 114.69 47.57 156.8 71.86 52.18 30.09 83.89 97.24 140.09 77.31l38.69-204.8c2.21-25.32-12.82-67.04 10.66-32.08l-47.23 1863.4c49.76 52.45 177.3 48.86 252.01 39.86 121.32-14.61 136.53-47.33 123.13-171.24-20.52-189.67-6.08-404.25-7.2-598.95-1.09-189.9-8.38-379.57-9.17-569-.42-101.76 9.46-190.96 9.21-293.68-.23-97.16-3.93-208.13 2.36-303.96 362.76-4.16 244.05 27.14 250.2 515.07 2.03 160.83-17.23 325.82-16.69 490.81.34 104.31-77.09 920.01-76.59 921.22 44.84 40.07 469.44 9.47 527.29-23.19 66.76-37.69 44.34-167.05 41.73-241.67-12.09-347.28-5.02-780.39-4.42-1138.02.08-49.03.51-98.34.28-147.24-.31-62.78-26.78-96.44 9.74-133.92 83.98 348.65 486.65 837.27 843.98 906.51 143.61 27.83 367.93 41.85 496.04-42.47 164.48-108.25 180.22-155.24 237.11-339.31 54.49-176.28-10.62-320.51-59.63-482.59-52.6-173.89-453.71-642.75-522.31-650.89-43.42 40.98-26.01 88.36-25.08 148.24 1.67 107.19-33.52 237.24-27.83 346.97 5.52 106.51 33.99 68.3 89.55 109.59 58.71 43.62 310.76 465.38-101.37 435.36-153.14-11.16-335.51-272.71-391.17-402.1-44.33-103.03-64.87-191.38-100.18-293.88-22.99-66.73-45.11-64.04-88.26-103.93-42.03-38.84-57.04-90.04-113.82-62.68-55.62 189.45 101.01 531.86 242.67 658.54 112.93 100.99 128.76 218.49 361.17 326.62 30.99 14.42 36.87 24.45 71.91 37.57 34.94 13.08 55.55 22.61 63.75 54.75-98.24 14.25-319.67-123.63-400.09-184.63-235.03-178.27-376.27-452.16-433.25-743.36-9.88-50.49-13.6-207.57-85.7-206.29-30.03.53-58.02 48.91-66.66 79.42-10.14 35.83-9.15 100.8-10.05 141.69-37.53-31.02-19.69-160.52-345.57-146.7-58.88 2.5-371.48 13.01-402.08 1.43-24.93-47.4 7.02-119.96-52.45-199.41-76.09-101.66-103.2-55.08-177.06-90.41 38.03-74.03 427.19-65.69 518.89-72.09 153.18-10.69 331.84 21.65 476.87 67.1 176.63 55.35 250.55 55.13 382.67 206.27 52.86 60.46 98.37 107.39 95.32 190.9-3.89 106.74 25.45 122.25 85.78 205.63 110.35 152.5 177.31 249.12 289.56 14.5 76.23-159.35 83.65-319.73 36.18-488.24-79.16-281.03-354.77-461.06-606.75-575.16-268.3-121.5-721.05-171.96-1008.48-136.37-350.29 43.38-533.49 86.79-821.43 302.21-239.4 179.12-368.12 497.53-351.96 793.34 5.26 96.39 73.13 136.16 164.57 104.72 75.34-25.89 27.81-234.71 123.51-463.46 15.05-35.97 26.44-67.44 52.38-96.2 21.64-24 65.77-56.19 79.2-74.3zm745.75 3922.7c-1.94-144.75 14.71-283.85 7.24-434-69-13.3-183.48-2.79-259.44-9.69-105.22-9.56-72.33 34.77-82.52 150.56-6.99 79.54-10.18 393.7-28.21 431.31-36.7-47.97-68.37-64.41-106.16-74.73-45.94-12.56-100.18-9.37-173.48 42.52-51.28 36.3-53.32 97.85-68.96 152.15-18.88 65.55-36.57 104.38-35.86 175.88.9 90.67-32.18 85.81-45.21 153.29 39.89 52.78 59.52 47.19 122.33 56.56 10.03 1.5 156.13-10.15 161.44-11.68 161.96-46.75 77.56-167.18 128.86-267.77 24.36 95.69-46.98 1179.37-69.83 1420.2-13.86 146.09-5.5 321.79-26.18 464.3-20.02 137.93-14.24 325.43-27.8 472.94-18.37 199.77-59.8 1471.49-101.34 1542.06-.57-420.19-41.66-292.32-57.72-391.9-7.81-48.41 6.58-78.01-33.02-115.32-20.26-7.82-19.22 11.47-71.09 21.73-68.59 13.55-161.38 48.33-202.69 112.4-86.43 134.05 62.62 214.87 68.6 334.29-29.16-28.79-53.12-105.06-85.66-151.03-53.76-75.93-42.33-70.43-74.38-154.08-110.96 17.36-359.37 156.82-278.99 296.1 34.35 59.53 101.71 131.17 128.16 183.39 41.11 81.17 46.33 154.96 82.47 230.67 156.79 14.53 244.87-192.25 266.89-219.23l31.81 55.8c203.42-3.24 189.49-115.1 233.72-158.31 2.54 196.25-21.99 493.3-43.45 692.39-22.12 205.11-39.25 409.91-109.39 605.22-74.73 208.09-206.18 272.09-412.94 290.58-203.15 18.16-216.06-1.46-388.2-29.03-57.02-9.13-65.56-29.94-123.32-1.74-8.23 54.69 28.45 217.31 40.23 284.53 8.16 46.54 5.11 31.01 19.52 68.74 8.18 21.43 20.57 112.1 27.07 143.29 5.97 28.64 21.46 123.71 35.05 138.73 9.27 6.29 251.05 72.01 282.76 81.39 81.89 15.62 622.36 198.04 652.31 192.82 47.22-53.5 4.68-69.23-26.52-97.61-21.35-19.43-157.7-289.18-170.14-326.24-37.75-112.49-100.13-309.73 30.97-381.72 117.76-64.66 136.83-6.55 202.11 76.06 108.67 137.54 274.95 350.4 318.39 357.31 90.64-95.67 186.67-1378.89 191.35-1584.27 6.61-290.5 17.89-581.52 17.16-872.2-.71-283.33 20.12-580.54 17.94-863.03-4.47-578.63 14.41-1164.05 17.9-1744.37 2.71-450.14 24.41-878.56 18.22-1339.26zm-2254.33-725.05c-35.22-18.33-70.07-54.14-122.99-78.89-47-21.99-89.6-3.78-134.06-20.38 54.27-7.65 101.35 3.27 72.28-71.94-13.64-35.3-36.69-75.21-62.47-104.3-123.24-139.03-120.27-42.31-212.72-101.49l162.45-5.99c52.59-74.86-82.7-243.66-177.58-270.33-65.62-18.44-387.02-81.62-412.39-62.48-66.04 79.98-12.17 283.59 56.07 355.31 92.56 97.29 254.12-50.8 362.35-6.22-10.32 5.44-67.29 17.91-96.89 27.9-57.48 19.41-273.95 95.88-300.69 118.61-5.99 97.04 103.08 270.66 202.48 296.22 144.28 37.11 200.94-144.27 345.44-141.16-148.15 86.87-156.65 123.82-228.71 187.47-25.39 22.43-62.15 28.41-88.44 51.06 7.76 99.22 150.31 218.23 259.96 217.29 174.38-1.5 149.19-158.19 265.13-199.14-.06.17-224.06 300.03-222 322.46 18.03 48.09 124.51 114.31 174.06 130.35 160.94 52.09 182.56-24.02 217.6-42.53-21.18 78.05-80.34 92.79-65.9 159.25 82.95 91.44 302.52 147.8 385.35 2.84 82.79-144.87 47.56-120.21 166.07-256.85 80.55-92.89 23.63-26.29 68.89-66.41 3.83-89.55-77.14-108.14-149.17-125.37-132.8-31.75-103.5-13.9-220.81-3.99l65.87-63.84c-12.92-63.87-89.67-83.85-142.3-103.71-111.71-42.15-90.56-25.94-193.36-6.74 34.52-53.02 135.58-23.44 26.48-137zm2403.53 8913.3c206.97 229.26 10.67-295.8-62.83-406.17-271.02-406.99-497.55-484.75-918.71-695.17l-575.94-233.38c-54.51-13.94-115.94-68.34-134.69 1.52-12.02 44.8 6.13 144.49 8.79 193.45 6.97 128 16.2 250.34 20.74 380.27 41.76 30.92 746.49 268.08 891.23 318.64 235.32 82.21 616.95 269.75 771.41 440.84zm1006.53-8712.7c1.64-38.62 2.84-25.69 4.19-89.81 1.61-76.52 28.68-281.48 16.35-328.95-69.08-17.68-1844.47-26.45-1873.74-15.33-12.05 54.49 10.69 327.67 32.31 369.56 56.93 44.46 775.53 43.28 912.07 60.73 126.1 16.11 752.01 19.74 908.82 3.8z"/><path class="fil0" d="M-12349.04 16492.08c72.06 38.68 152.42-3.74 262.51 2.32 24.5 1.35 26.27.74 49.22 6.63l33.08 12.65c-52.67 6.43-187.11 16.18-230.76 14.93-232.6-6.69-179.13-16.72-180.04 115.07-.54 77.07-14.64 40.81 20.46 107.8-22.72 56.67-62.9-19.56-46.76 153.23 5.49 58.82 13.36 121.43 18.34 188.61 4.38 59.11 25.53 135.81-8.14 187.71-19.75 30.46-88.84 83.86-54.06 118.6 22.05 25.99 240.79-5.7 287.25-24.37 49.55-19.9 291.1-237.62 127.42-399.33-36.24-35.79-168.73-84.85-201.61-130.78 111.85 17.94 111.8 6.54 221.17 54.78 105.62 46.59 103.98 116.49 138.1 136.41 73.02-20.9 94.63-205.24 92.2-273.62-4.94-138.77-62.39-151.17-124.82-233.94l78.16 27.98c90.12-91.36 22.24-349.13-122.5-394.84-95.26-30.08-140.99-17.92-239.55.7-30.06 5.68-234 44.46-243.51 49.68-8.24 100.43 35.04 232.13 123.84 279.78zm745.61-7240.07c4.36-60.09 3.65-54.62-45.96-84.23-37.73-22.53-71.23-32.7-115.75-36.64-277.65-24.5-283.34 175.47-363.7 378.98-15.3 38.74-40.37 57.04-31.57 103.43 41.06 42.69 239.92 79.58 299.17 49.92 60.37-30.22 97.95-168.36 131.66-235.24 22.05 44.8-16.48 109.22-25.91 157.54-23.34 119.65-59.89 124.99-36.5 156.36 45.12 30.11 189.88 51.04 245.93 43.18 109.71-15.4 93.16-120.49 132.19-159.57-.42 54.66-61.36 194.72-46.82 233.06 14.56 23.22 328.04 105.07 365.94-68.97 16.3-74.85 45.39-146.03 72.68-212.2 60.23-146.05 189.21-233.55-91.9-241.01-106.04-2.81-112.83 17.2-195.01 42.12 10.8-60.21 30.17-40.59 36.45-86.37-50.58-84.89-253.48-83.82-330.9-40.36zm3634.26-814.33l-196.51-9.22-21.4-458.61-190.9-41.81c-15.44 25.17-8.78 164.36-9.7 205.28-.89 39.39 1.43 74.96 1.46 114.28.03 39.46-10.53 73.52-10.51 114.18l-3.53 492.81c40.42 15.67 192.91-19.42 231.52-39.79l1.48-108.04c71.69 14.5-57.08 68.62 199.45-10.99l5.24 89.15c42.8 11.11 99.87 9.54 144.01 2.57 67.02-10.59 36.8-31.27 46.79-85.92l222.41-72.57-1.01-479.13-190.14-53.63c-22.73 80.8-9.61 269.51-30.69 315.61l-14.53-374.78-142.98-50.61-37.16 679.71c-1.39-40.77-4.31-91.5-4.41-130.22-.13-50.01 2.53-67.56 1.11-98.27zm-3001.21-279.08c117.23 21.05 740.88 29.94 912.06 39.64 144.05 8.15 331.42 9.04 476.57 10.65l464.05 5.3c11.7-45.63 16.23-187.98.51-230.2-64.68-18.15-1780.83-25.79-1848.54-9.07l-4.65 183.68zm-2010.84 8808.47c91.66 28.39 166.51-62.1 249.27-97.49 17.36-7.42 192.45-132.05 201.73-143.34-7.34-41.69-55.55-110.76-75.31-133.32-46.66-53.27-81.8-44.85-121.89-54.23-.81-.19-4.23.18-4.8-1.67-.58-1.87-3.27-1.08-5.42-6.57l95.69-11.7c37.07-55.29 1.15-135.94-30.42-188.71-82.24-137.43-177.73-104.9-268.61-102.24-49.42 1.44-52.86-15.58-100.64-23.16-132.39-21-90.1-49.15-163.6-90.95-61.9 39.98-71.16 171.12-59.84 241.34 16.03 99.37 68.74 119.62 112.66 190.9-51.16 24.52-62.06 53.52-47.74 119.79 5.64 26.1 30.07 116.68 38.93 135.31 25.94 54.47 123.43 148.53 179.99 166.04zm4107.94-6629.21c22.09-33.73 30.71-34.97 58.43-58.84 114.43-98.52 50.78-71.53 213.2-145.28 105.58-47.93-149.11-200.16-195.79-221.84-51.11-23.74-113.45-17.08-163.65 9.18-82.66 43.23-70.73 48.29-123.85 115.25-148.42 187.11-54.58 113.11-134.47 225.05-20.22 28.33-24.1 58.31-16.58 90.99 24.04 15.42 110.52 47.48 140.93 60.12 52.07 21.64 112.44-7.53 171.79-15.84-15.17 59.06-72.23 66.52-95.33 135.18 70.89 93.57 210.18 164.43 326.28 98.49 54.27-30.82 103.13-58.78 161.27-86.4 157.22-74.7 288.84 52.44 130.96-211.77-31.13-52.09-80.39-92.72-135.32-121.37-139.79-72.9-243.33 103.93-337.87 127.08zm-3047.4 4111.6c20.66 30.4 36.44 71.74 80.52 46.9 25.03-14.11 53.98-55.09 63.74-75.2 114.86-236.57-23.07-313.28-78.72-377.3-66.7-76.74-83.45-68.32-152.75-121.99-83.46-64.62-35.43-127.61-145.44-33.77-32.73 27.92-88.4 132.36-98.75 177.16-41.5 179.47 191.78 194.94 241.67 296.34-67.56-28.2-102.14-61.01-167.34-85.97-148.08-56.67-101.28-73.93-147.61-88.74-53.97 50.22-211.32 301.15-26.17 398.57 57.58 30.3 143.51 43.82 210.94 83 53.53 31.1 113.54 118.3 173.14 121.19 32.44-23.41 64.2-113.25 66.98-151.46 7.16-98.52-14.23-109-20.21-188.73zm3167.02-2010.66c45.2 45.93 84.15 134.4 108.35 153.97 46-6.48 89.49-87.42 115.63-127.87 209.82-324.79-131.94-327.75-159.62-427.42 147.03 12.83 233.6 173.87 291.39 197.61 46.19-9.85 102.07-153.36 115.82-200.49 60.64-207.84-136.06-283.54-308.26-311.07-213.6-34.15-165.25-66.57-234.1-7.61 3.34 77.56-8.97 120.11 14.9 192.04 17.85 53.77 73.9 101.97 80.53 126.15-57.58-4.18-133.08-58.71-182.46-77.39-114.12 45.28-105.07 294.82-3.88 367.8 62.6 45.15 41.36-8.05 161.7 114.28z"/><path class="fil0" d="M-8188.6 10961.18c28.64-33.96-.21-134.39-11.19-180.51-96.78-406.37-637.76-37.38-636.6 7.32.7 26.8 62.25 105.28 82.92 126.84 53.76 56.07 104.93 45.5 126.39 75.44-56.8 23.25-111.3 16.73-160.76 57.25 4.99 23.76 56.32 162.64 71.11 179.63 147.54 169.43 139.91 72.73 260.44 94.49 30.47 5.5 68.49 13.47 99.52 19.97 65.54 13.71 126.95 70.68 181.3 55.31 10.05-127.77 25.29-268.38-56.64-361.17-120.11-136.03-245.59-27.6-330.18-64.56 69.74-12.98 126.41-17.42 194.37-27.15 63.56-9.1 154.3 30.58 179.32 17.14zm-260.48-2205.32l27.66-329.47c-33.82-18.02-333.43-10.43-378.39 5.18-31.64 71.17-11.71 213.58-49.96 256.94-36.33-233.54 16.85-549.71 1.43-798.76-30.74-9.93-66-8.45-101.86-17.24-166.34-40.74-100.58-45.57-114.94 128.84-10.8 131.29.91 252.48-7.87 368-9.9 130.51-8.33 238.3-10.28 362.93-.77 49.62-34.51 179.88 16.62 193.71 23.87 6.45 177.08-20.67 195.29-29.32l19.07-104.04c70.24-24.52 16.77 29.97 88.24 14.9l314.99-51.67zm-3326.97-2048.76c-61.31-29.17-69.46-141.51-91.12-192.31-126.65-10.06-306 142.15-251.16 284.19 24.15 62.55 67.56 112.06 93.6 183.03 23.82 64.93 35.2 179.34 58.34 223.45 81.61-.67 210.6-137.66 228.52-170.11 68.05-123.22-34.74-234.2-37.63-321.69 74.41 58.47 67.05 264.22 130.74 317.58 47.37 32.36 209.1-70.04 238.26-159.46 50.27-154.19-79.4-339.45-111.75-426.29-13.77-36.95.42-66.61-11.34-78.64-13.77-14.09-208.48 17.42-255.81 164.17-40.95 127.01-7.67 76.63 9.35 176.08zm-104.76 1259.48c-10.08 24.75-30.33 803.14-21.82 857.97 57.01 22.82 146.08 51.58 214.9 28.74l4.12-93.83c75.02-.45 153.19 17.65 229.78 27.15 105.91 13.12 99.45 51.37 190.22-8.46 3.19-60.19-18.44-302.75-41.28-350.26-114.29-25.6-261.55-8.18-389.15-12.29l-14.07-488.35-172.7 39.33zm851.13 951.38c.85-2.73-6.09-1034.58-34.36-1067.14l-181.64 33.98c-6.51 17.04-3.86 946.62 6.04 1009.07 57.69 17.6 150.52 41.05 209.96 24.09zm-1505.43 6973.12c5.19 29.72 24.66 77.69 30.57 107.37 5.05 25.34 24.13 57.78 44.73 82.58 123.19 148.33 201.73 19.07 418.88 19.38 92.41.13 190.9 49.58 178.48-67.73-14.88-140.42-102.95-289.89-261.76-284.14-23.46.84-219.51 36.41-236.42 43.35-138.58 56.91-189.74 11.86-174.48 99.19zm64.92 906.14c-183.87-15.45-238.27 112.85-375.48 177.86-34.06 16.14-67.88 43.38-103.78 47.12-17.63 1.83-219.99-46.35 10.78 197.94 72.64 76.9 318.1 162.98 408.9 63.53 49.86-54.62 80.71-436.98 59.58-486.45zm1526.53-10114.95c142 12.79 306.72-207.06 249.88-362.16-33.25-90.73-106.9-109.2-168.36-170.67-18.81-18.81-173.71-148.63-190.49-158.54-111.99 54.39-163.88 240.14-80.86 347.77 177.53 230.14 89.63 31.86 189.83 343.6zm-1582.56 910.51c60.19-29.5 113.15-81.49 156.07-134.61 110.92-137.27-7.21-291.96-87.81-409.98-22.88-33.49-41.91-53.96-63.56-84-38.86-53.93-3.83-48.82-63.15-93.3-116.47 51.55-282.27 203.42-184.57 360.62 38.15 61.38 84.93 71.25 137.35 164.42 28.17 50.06 65.85 168.09 105.67 196.85z"/><path class="fil0" d="M-8214.35 11623.98c3.1-103.23 20.61-151.25-63.58-211.39-134.11-95.8-299.66-66.26-451.74-73.46-138.39-6.55-57.45 269.58 69.9 334.23 34.24 17.38 80.18 10.19 118.23 17.53 175.62 33.86 223.84 130.04 261.08 141.97 39.62-34.44 64.5-155.35 66.11-208.88zM-12257 7370.38c65.18-11.14 129.09-70.69 168.3-116.37 118.68-138.3 63.03-248.43-43.08-413.59-18.8-29.27-40.56-58.11-59.2-87.52-24.73-39.03-26.16-82.31-51.79-104.32l-173.47 119.65c-169.41 176.55 18.37 277.65 68.41 389.99 25.03 56.19 66.92 176.48 90.83 212.16zm-364.65 8058.71c-13.87 39.29 4.97 178.9 25.27 219.67 23.88 47.97 82.86 119.01 141.69 120.24 78.25 1.63 146.96-38.4 223.27-51.27 47.99-8.09 232.23 9.68 250.18 2.89 60.74-23 3.13-169.39-26.36-202.17-45.66-50.75-77.76-92.65-148.91-116.29-42.39-14.07-202.37-9.81-246.07.5-37.35 8.81-67.87 24.23-108.91 29.08-53.55 6.33-60.68-14.26-110.16-2.65zm665.46-1648.84c2.04 71.46 76.05 130.3 126.12 174.5 187.85 165.82 108.72 363.42 278.39 204.37 98.84-92.64 101.46-203.52 53.53-325.42-13.91-35.37-183.31-226.56-195.84-254.84-19.8-44.67-12.01-78.71-70.35-46.63-74.95 41.22-194.69 148.67-191.85 248.02zm-809.03-5965.6c136.5-77.21 162.87-250.54 91.63-386.31-71.61-136.48-143.38-169.26-191.17-230.81-25.16-32.41-23.24-54.79-59.83-87.43-111.94 74.23-268.41 247.52-148.64 388.36 54.36 63.91 90.87 56.86 160.63 151.38 21.11 28.59 124.73 154.58 147.38 164.81zm1445.04-894.13c119.78 35.85 306.24-99.76 332.09-217.8 28.94-132.24-121.17-243.54-189.74-348.37-41.4-63.29-67.26-129.11-144.82-69.54-212.92 163.54-50.72 343.09-35.62 388.76 66.92 202.4 12.24 143.69 38.09 246.95zm-1939.61 536.4c-47.68 55.82-161.07 286.43-56.28 393.97 47.18 48.42 136.17 30.75 199.95 56.75 187.36 76.37 291.81 196.65 278.68-56.74-3.69-71.24-38.34-139.76-92.02-184.38-56.81-47.22-82.1-82.87-151.31-123.31-31.79-18.58-59.02-27.97-88.47-49.56-25.53-18.71-62.89-69.12-90.55-36.73zm1122.74 977.42c-21.45-507.63 11.51-466.99-152.03-400.56l-5.96 742.38c41.64 18.21 72.61 20.57 126.27 17.03 70.48-4.64 34.45-26 49.53-84.44l158.55 29.8c47.47-78.08 16.93-208.36 11.57-304.96l-187.93.75zm-400.28 206.43l157.63 45.29c40.25-23.3 53.84-50.14 47.78-95.93-11.68-88.11-13.54-374.52-27.31-492.1l-183.79 49.53c-9.53 60.05-16.36 463.76 5.69 493.21zm1240.37-457.63c14.54-43.36 18.84-131.35 1.44-169.42-30.43-15.6-327.95 13.96-368.26 27.01l5.58 160.54 361.24-18.13zm2535.05 4.97c62.01 2.69 107.66-2.79 169.13 4.79 49.08 6.06 135.93 19.79 178.84.88 18.15-34.65 14.9-118.14 4.55-155.42-49.2-12.29-325.13-38.96-363.64-23.85l11.12 173.6zm-4404.11 7724.95c-31.28 114.79 16.89 209.89 110.64 257.99 40.8 20.93 81.39 20.6 126.05 26.34 47.82 6.15 75.06 29.6 112.56-13.95-18.79-65.72-222.51-194.23-252.33-218.6-38.55-31.52-37.73-62.98-96.92-51.78zm5182.58-7730.11c15.15-46.92 30.24-118.44-35.75-130.93l-148-6.5c-17.37 51.31-1.03 103.17 26.66 143.48 47.61 2.35 114.23 11.76 157.09-6.05z"/><path class="fil0" d="M-11959.11 8187.69c24.31-41.15 34.82-85.97 21.44-136.86-26.7-10.28-125.79.08-155.92 5.7-98.85 156.98 48.51 139.37 134.48 131.16z"/></g></g></svg>