<svg xmlns="http://www.w3.org/2000/svg" width="320mm" height="150mm" viewBox="0 0 32000 15000" shape-rendering="geometricPrecision" text-rendering="geometricPrecision" image-rendering="optimizeQuality" fill-rule="evenodd" clip-rule="evenodd"><defs><style>.fil0{fill:#d7b56d}</style></defs><g id="Слой_x0020_1"><g id="_2737092899408"><g id="_1599858742624"><path class="fil0" d="M16463.14 11721.45c96.34 88.56 372.1 477.43 411.74 599-97.73-22.6-43.5-50.07-180.39-33.99-108.76 115.46-31.57 97.7-95.7 187.31-66.93-89.4-113.16-610.14-135.65-752.32zm-794.05 753.51c-9.36-36.86 20.28-301.53-256.28-132.06 23.47-104.28 336.7-574.39 422.05-616.61-31.15 108.27-52.54 450.29-107.24 680.8-.21.89-11.07 42.8-11.38 43.28-39.94 61.71-4.04 18.62-47.15 24.59zm939.31-2562.54c-20.31-8.27-18.46-35.47-3.46-51.22 17.53-18.4 54.51-10.01 58.5 16.36 2.63 17.43-6.48 28.82-13.99 35.08-10.11 8.44-21.87 7.6-41.05-.22zm-967.62-38.39c53.77-21.84 73.62 46.94 20.9 65.34-42.9 14.98-79.77-41.44-20.9-65.34zm-1476.06-775.54c15.92-93.2 80.43-106.83 113.96-36.13 46.89 98.89-133.99 153.36-113.96 36.13zm2959.76 377.62c-82.86-31.27-191.57-82.44-169.03-189.67 24.39-116.07 125.94-218.8 250.67-206.32-59.84 41.65-126.66 75.01-157.28 162.09-42.75 121.57-6.33 167.57 75.64 233.9zm-2075.67-411.43c127.69-11.64 261.47 85.62 293.69 220.9 28 117.5-103.17 193.24-198.35 176.98 203.96-75.3 124.93-304.8-17.45-364.52-48.19-20.2-34.39-.87-77.89-33.36zm2971.02 6.72c-6.38-29.75 47.94-150.04 92.7-40.28 62.4 153.01-81.25 93.66-92.7 40.28zm-4725.13 138.66c-17.89-162.21 40.12-216.95 201.18-217.92-126.71 32.86-144.48 93.28-201.18 217.92zm4928.85-251.01c135.66 2.46 262.54-20.23 398.39 9.9-69.06 30.46-132.44 36.31-208.39 120.61-339.35 376.66 338.22 540.06 342.18 281.56 1.29-84.61-16.68-93.63-82.95-109.19-19.72-4.63-31.91-12.05-66.57-40.28 250.01-157.2 320.25 294.7 87.09 431.78-42.94-27.3-41.1-29.18-72.73-69.87-252.26 3.69-366.38 63.7-569.5-107.97-177.49-150-112.12-195.95-287.15-189.92-85.44 2.94-38.17 7.49-91.58 20.27l-4.47-48.61c124.81-7.41 141.31 39 206.2-55.94l5.47-3.69c7.09 2.16 125.95 167.76 326.62 57.95 130.99-71.69 113.89-210.83 17.39-296.6zm-3789.38-16l-13.4 43.03c-30.84-36.46-20.26-21.35 13.4-43.03zm-725.15 29.09c116-13.01 276.79-32.47 379.26 12.62-47.92 55.59-83.04 57.53-83.06 152.15-.01 68.71 33.18 115.83 90.4 145.75 181.05 94.65 228.07 33.25 344.19-66.61 42.77 56.36 92.48 16.38 170.81 44.39-51.83 60.74-38.45 27.92-160.05 21.48-496.23 483.2-717.49 189.41-827.27 381.05-43.39-62.84-87.51-66.44-137.36-177.61-100.13-223.29 94.71-365.02 205.78-254.37-57.49 54.26-61.74 27.53-132.88 46.15-50.85 136.36 18.8 217.48 166.69 222.02 310.39-16.87 338.37-353.53-16.51-527.02zm5368.86 177.47c41.21-102.17-167.77-208.47-180.53-161.38-.41 1.49 64.27 32.19 105.95 67.3 26.18 22.06 56.72 67.94 74.58 94.08zm-4643.71-206.56l46.11-125.75c-48.41-50.76-95.11-63.58-53.08-114.06 19.07 30.86 32.34 71.24 48.68 89.27 25.01 27.6 45.2 24.28 85.03 64.82l-126.74 85.72zm4470.62-300.52l65.21-87.64 52.27-103.54c34.74 66.49-25.76 187.17-117.48 191.18zm-5618.03-164.92l177.37 181.78c-54.47-9.6-160.35-33.83-177.37-181.78zm4012.15-127.08c16.73 47.82-44.96 40.2-48.88 15.09-5.66-36.17 27.98-57.83 48.88-15.09zm-2241.49 14.63c-.46 45.79-55.67 30.03-54.08-6.58 1.42-32.62 54.6-45.14 54.08 6.58zm484.57-107.09c301.36 78.89 550.24-100.74 604.88-279.7 77.78 210.53 419.39 398.72 627.93 274-95.88 291.62 54.6 447.27 246.09 601.61-186.31 178.45-282.31 199.51-285.53 514.43-277.49-26.85-419.86-21.44-588.49 247.4-250.87-331.72-403.72-239.06-589.1-228.51 17.08-255.49-107.4-479.46-300.17-538.65 184.76-122.42 403.11-336.89 284.39-590.58zm1661.76 364.51c-238.98 47.39-359.76-377.83-63.12-380.15-76.77 59.37-127.04 96.84-90.29 206.48 24.52 73.16 60 124.81 153.41 173.67zm-2109.26-3.19c88.3-63.88 131.13-52.24 169.71-174.86 35.12-111.69-13.1-192.1-118.06-212.39 309.9-28.81 222 422.33-51.65 387.25zm3486.35 111.84c-791.63 84.35-542.13-289.42-459.02-173.06 38.6 54.05-12.39 60.25-21.87 108.84 113.08 53.03 204.43 28.32 200.69-113.18-5.06-190.67-281.48-254.54-416.22-70.28-68.29-20.05-22.58-21.84-76.32-33.48-27.64-5.98-84.74.65-120.13-.63 46.58-115.93 88.58 25.89 194.81-68.63 48.89-43.49 125.44-129.62 171.75-163.68 226.52-166.55 294.31-105.46 568.68-94.56l47.71-79.45c208.11 131.7 266.11 574.14-67.59 435.64 25.39-33.68 48.99-38.82 79.2-45.15 146.21-30.63 44.72-203.1-61.46-219.34-192.27-42.56-372.21 132.83-245.55 354.62 65.28 114.32 117.59 110.64 205.32 162.34zm-5007.79-308.92c75.84 6.56 105.72 2.56 132.38 68.22-336.01 69.21-274.06-339.38-60.3-455.32l45.7 77.66c312.71 7.87 278.66-76.45 543.85 91.89 157.1 99.74 132.71 205.16 273.96 199.18 47.77-2.01 82.43 5 114.57-21.47l20.61 54.14c-106.19.59-137.25-11.59-206.78 53.86-111.99-113.8-169.42-136.74-322.69-61.59-144.92 71.06-170.78 299.87 99.91 264.25-9.59-23.61-20.28-41.32-27.47-58.19-37.79-88.8 49.87-98.67 93.06-52.33 45.35 48.67 4.02 149.1-253.49 162.03-106.63 5.34-282.67 28.25-367.94-13.59 161.26-58.73 387.6-151.07 310.64-384.21-76.68-232.29-498.05-197.52-396.01 75.47zm2815-625.55c44.5 188.51 286.94 283.62 391.74 90.54.22 320.45-466.19 152.38-391.74-90.54zm-855.87 84.73c132.13 213.66 335.59 93.38 385.06-100.89 62.91 311.46-388.54 402.28-385.06 100.89zm1149.14-95.28c-21.35 26.78-60.81 5.73-48.54-26.55 12.56-33.05 86.82-21.44 48.54 26.55zm-1014.86-62.37c21.81 16.59 7.87 68.91-32.15 50.3-44.64-20.73 8.87-67.98 32.15-50.3zm611.53-592.26l-119.66 161.59-144.05-166.95c79.55 2.57 93.27 56.54 135.54 60.8 26.04 2.62 61.75-32.82 128.17-55.44zm6.68-256.62c7.49 71.35 31.13 34.81 90.59 28.96 48.68-4.78 79.92 25.91 61.5 67.36-37.93 85.44-175.92 6.72-152.09-96.32zm-434.74 82.41c-3.79-44.89 20.81-62.46 63.39-54.08 50.34 9.91 53.5 60.08 106.41-48.47.31 228.91-165.48 153.4-169.8 102.55zm684.11-524.14c-35.7-59.82-35.41-149.59 5.23-208.87 139.38-85.3 387.27 16.88 443.02 150.36-45.82-13.83-97.94 11.93-101.43 78.73-12.92 246.87 131.55 303.2-215.75 651.38-114.55 114.85-60.54 99.15-76.44 251.36-76.34-94.41 34.66-119.42-88.35-195.46 84.41-116.46 164.21-163.76 61.57-343.79-115.17-202.03-296.88-12.64-297.06-12.54-13.36-129.04-23.59-318.24 3.85-443.01 23.58 60.47 70.06 391.73 367.97 329.03 166.36-35.02 214.26-202.04 144.63-333.27-34.03-64.14-63.79-105.64-134.04-89.24-120.85 28.2-12.2 69.63-113.2 165.32zm-499.68-56.29c5.17 129.57 24.77 321.66-14.42 431.7-73.83-57.33-170.59-140.11-266.7-21.08-87.92 108.87-103.67 271.27 32.94 365.81-94.21 94.12-.05 84.07-63.45 184.57-33.16-118.64 37.23-127.53-86.86-245.04-68.85-65.19-130.26-149.84-181.89-230.94-74.52-117.07-35.75-244.4-33.69-378.95 1.51-100.05 6.24-91.55-76.93-128.49 104.66-154.24 478.92-325.61 455.88 61.72-53.4-26.08-55.93-41.47-61.39-74.31-13.29-80.16-71.26-93.64-138.55-55.09-145.02 83.06-125.57 315.21 26.97 385.01 185.52 84.88 406.06-142.69 408.09-294.91zm364.86-294.35c39.24-65.83 60.62-77.24 137.17-64.09l-137.17 64.09zm-485.11-6.14l-141.61-64.17c35.98-15.97 110.49-8.38 141.61 64.17zm-233.69-96.97c-119.3 22.91-168.99-10.31-300.55 41.41-264.61 103.99-445.11 383.5-374.61 669.04 19.36 78.39 189.45 392.09 239.43 468.62 54.46 83.43 111.4 120.27 170.21 184.6 74.01 80.99-16.25 149.07 147.34 178.88-108.28 57.81-179.52 68.11-224.52 206.02-40.42 123.92 26.87 260.17 14.79 335.06-224.35-87.58-503.08-32.43-541.76 232.44l-34.5-156.38-89.74 11.62c-140.12-109.81-190.2-185.11-362.96-282.95-136.46-77.29-298.16-181.72-456.24-186.73-386.71-12.27-630.32 323.16-595.02 692.67-133.18 36.07-162.55 143.62-167.6 245.33-127.29 52.8-223.11 59.76-315.44 180.56 13.56 150.97 202.89 220.42 328.89 254.61-2.34 161.58 56.98 199.52 148.25 257.3-9.33 205.65-4.47 338.92 132.08 504.62 107.53 130.49 281.26 205.21 451.3 199.85 304.78-9.62 606.04-302.11 822.86-489.83l81.04 11.94 49.16-121.92c12.45 387.4 519.56 214.87 574 210.44-129.79 298.76 62.76 601.21 399.49 467.66 220.43-87.43 201-398.89-36.37-431.47-112.31-15.41-126.05 27.31-192.15 80.9 75.7-272.49 365.94-136.99 412.48 53.6 30.61 75.13 35.92 326.27-14.72 390.08-262.93 331.21-612.65 140.66-689.96 365.71 329.6 126.11 413.93 47.25 702.42-61-44.1 134.58-142.78 244.42-233.82 360.51-89.57 114.19-187.92 248.1-355.94 212.36-79.96-333.84-405.58-198.17-288.3 92.95 99.71 247.53 561.53 87.85 739.99-47.79-116.61 146.24-313.49 381.46-502.61 453.13-62.8-86.09-40.58-138.3-182.65-158.98-283.12-41.21-416.87 456.59 207.12 421.43-168.06 230.68-508.57 627.36-610.03 878.21-153.58 379.71-33.97 833.13 280.87 1085.81 300.15 240.89 867.2 78.25 968.03-297.4 47.62-177.45-44.9-404.63-233.35-456.84-157.79-43.71-466.3 54.42-521.24 218.81 84.7 149.81 250.42 183.68 406.36 157.62 162.4-27.13 165.98 98.53 26.23 181.42-168.2 99.76-440.54 113.99-616.11-193.34 121.76-130.26 62.64-160.52 36.88-344.73-15.5-110.75-55.4-327.84 11.13-415.88 112.44 77.79 82.98 207.73 305.88 251.22 42.01-131.38-35.64-174.39-24.74-313.68 98.01 121.05 171.88 242.88 377.85 161.67 171.13-67.45 185.79-224.92 261.85-367.82l134.29 109.17c15.41-8.26 125.96-98.08 135.4-114.19 37.98 225.19 261.3 479.45 503.02 344.22 80.08-44.79 104.85-128.09 145.12-188.42 4.42 122.97-66.14 293.74-36.7 357.73 156.57 4.37 245.24-141.59 309.13-272.35 103.06 230.54-102.41 655.43-.11 742.92l44.26 27.6c-76.74 154.39-118.02 226.99-303.49 252.4-118.58 16.26-246.42-17.64-337.91-88.91-111.34-86.74-94.54-176.56 70.47-151.67 132.79 20.04 223.9 23.03 349.18-104.32 166.32-169.1-344.14-302.63-479.33-266.53-189.56 50.62-279.65 295.39-223.04 469.19 126 386.86 637.26 501.79 957.19 281.49 324.93-223.74 407.66-709.26 285.96-1065.52-57.04-166.95-459.87-769.73-591.52-880.09 58.08 11.25 94.2 19 171.82 8.39 291.29-39.83 326.14-511.25-19.82-423.15-100.89 25.68-106.16 80.69-148.06 145.3-111.07-23.22-386.08-294.57-439.56-381.6 129.53 85.24 605.23 199.83 677.01-31.28 35.8-115.24 17.9-222.41-44.21-259.33-42.28-25.13-104.64-13.18-152.94 18.65-94.32 62.17-53.3 111.5-94.82 178.74-199.34-7.62-234.23-105.79-346.17-233.43-73.39-83.67-230.58-259.72-230.53-368.9 226.15 142.42 422.44 167.33 674.9 66.4-36.38-173.82-216.04-97.38-406.1-177.35-106.52-44.82-212.14-120.26-283.94-206.6-23.43-84.51-33.4-309.87 3.83-394.91 126.42-288.8 400.97-223.5 411.48-28.17-59.45-63.93-72.56-103.35-171.46-90.79-224.35 28.49-303.89 312.41-86.05 422.29 129.19 65.17 267.03 63.66 373.36-40.15 156.36-152.66 114.97-297.12 68.57-401.95 249.9 131.13 570.5 12.4 569.2-192.87l18.88 111.63 116.35-10.52c114.13 117.17 180.03 207.82 335.51 288.07 148.62 76.72 283.01 178.96 455.55 194.22 168.13 14.87 356.56-61.9 460.2-190.72 164.75-204.76 143.41-239.84 158.87-491.55 159.32-127.74 150.1-77.15 122.63-282.88 135.21-23.34 288.1-63.13 344.77-197.12-73.77-161.73-186.06-177.62-324.71-235.2-30.33-186.2 27-146.38-152.84-246.34 30.9-365.07-186.57-683.02-570.2-684.7-175.71-.77-310.65 103.5-459.57 178.5-131.79 66.38-261.89 171.3-355.83 283.21l-97.5 3.34-31.73 185.27c-57.02-126.31-13.87-190.93-174.37-275.22-143.56-75.39-259.37-16.17-409.12 15.72 95.89-271.39 92.02-387.16-144.43-540.08 1.45-24.78 34.54-24.84 50.28-73.18 25.31-77.71-18.13-63.29 59.27-134.31 156.77-143.84 232.58-311.92 348.94-483.35 67.05-98.78 87.94-221.19 75.91-338.06-60.26-585.52-608.75-473.62-700.76-538.11-42.08-29.49-40.86-92.04-98.13-118.83-48.78-22.82-89.5 2.59-151.33-20.56-48.14-79.55-35.82-142.34-116.49-254.41-170.97-237.52-283.83 239.02-357.57 261.7-49.89 15.35-87.97-10.14-135.76 33.08-38.11 34.48-30.38 65.62-86.25 107.03z"/><path class="fil0" d="M11262.84 10947.49c-8.25-155.19-12.58-37.26 99.55-222.34 17.01 46.1 40.98 128.41 23.13 187.03-51.25 168.4-173.4 269.12-345.06 326.72-69.31-83.03-55.06-38.15-49.69-191.66l65.83-58.28 108.9 29.86 97.34-71.33zm-124.19-162.29l-8.91 83.03 85.64-13.52c10.66 103.23-23.98 114.83-122.85 103.72-30.26-47.84-8.25-44.18-52.64-74.63-44.56-30.57-35.92 12.95-67.6-52.8l166.36-45.8zm-203.51-83.32c53.03 12.32 38.97 16.52 52.79 85.22-55.95-10.79-104.61-23.7-52.79-85.22zm243.8-36.11c-23.86 78.87-62.55 87.41-143.19 98.01l-13.38-109.39 156.57 11.38zm5.93 130.39c10.72-71.55 72.23-193.85 146.66-233.52l27.61 95.95c-66.09 77.21-63.27 112.87-174.27 137.57zm-65.1-450.25c-21.72 9.06-46.2 24.56-112.05 10.61-10.01-61.58-34.77-243.53-17.4-291.93l42.54 134.69c32.59 16.46 90.27-3.33 86.91 146.63zm319.74-472.26c-1.59 118.52-105.16 114.05-23.05 352.2 23.58 68.39 121.29 186.71 166.44 278.91 71.21 145.46 153.2 568.78-8.01 672.36 16.83-95.54 81.45-221.93 25.22-315.1-51.65 64.51-57.62 500.36-294.42 500.59 35.34-77.46 285.62-419.21 228.72-552.9-56.53 50.47-83.02 228.39-134.76 313.39-48.97 80.43-107.82 183.44-172.46 247.43-53.65-13.76-105.27-37.4-129.77-89.97 111.87-79.17 200.98-84.64 277.19-237.98 24.23-48.75 69.23-139.24 66.6-192.53-1.9-38.4-15.65-33.51-20.16-87.38-38.24-458.08-322.03-492.59-117.7-867.85l136.16-21.17zm-1267.75-451.73c-30.54-67.73-41.39-53.88 107.6-110.69 2.35-.9 9.48.76 11.13-3.78 1.54-4.23 6.91-2.35 10.41-3.34-36.46 60.73-61.4 108.22-129.14 117.81zm1258.56-466.65c32.34 64.12-.57 118.6-65.67 176.82-44.12-56.49-65.36-121.96-49.29-183.38l114.96 6.56zm-1274.12 63.21zm27.28-127.2c14.08-66.17 9.1-60.3 77.29-82.3l25.19 102.2c-50.6 6.74-61.5 1.65-102.48-19.9zm1123.99 14.05c70.41-64 116.83-142.67 187.52-210.75 31.89 72.04 14.24 130.71-2.28 214.78l-185.24-4.03zm-532.7 1012.54c196.21-157.05 513.78-516.97 616.99-729.87 47.17-97.3 79.43-93.37 123.55-212.12 107.41-289.07-43.53-266.52 40.91-399.83 161.58-255.11 97.63-114.57 295.77-204.48l-93.58 211.43c-108.61 262.98-47.13 410.04 148.17 572.53 49.51 41.18 118.96 62.36 145.6 133.24 105.34 280.34-304.07 422.34-393.08 430.21 164.45-228.43 101.5-156.59 84.77-189.89-44.76 43.88-165.72 238.1-272.73 266.91-58.37 15.72-28.53-26.43-95.09 10.65-21.89 12.19-1.05 40.93-33.24 4.07 39.71-52.65 76.36-113.22 113.74-167.69 40.6-59.15 98.62-117.98 91.1-181.05-90.93 25.09-270.28 353.58-326 458.36-102.23 192.29-7.36 439.87 95.43 567.03l-113.08 91.41c-6.61-83.28 24.27-72.73 37.82-155.92-60.58 22.22-38.09 18.84-90.48 61.25-6.72 81.3 29.28 49.17-14.92 120.74l-44.15-179.05 81.21-21.74c27.22-152.82-109.28-296.41-109.29-296.43-75.79-120.26 44.46-226.99 49.66-334.19-108.2 39.69-88.22 193.15-143.37 224.05-41.63-62.16 8.03-79.71-.53-168.59-70.91 31.94-66.13 154.15-64.79 231.21 2.1 120.65 66.68 133.28 38.63 253.92-42.85.32-91.3-36.35-128.22-62.92 26.25-210.59-10.01-167-40.8-333.24zm891.43-1552.85c117.93-199.59-37-13.22 213.55-208.03l39.69 42.79 106.23-50.23c-51.1 115.46-212.26 225.25-359.47 215.47zm-1669.23-132.39c-14.2-24.53-17.9 36.91-14.1-46.7 2.78-61.28 52.98-94.38 93.44-118.78 59.69-36.01 133.34-69.78 197.52-76.13-46.01 31.02-114.34 61.09-158.03 98.61-70.12 60.19-91.49 114.53-118.83 143zm2228.92-293.23l-54.59 76.89 54.59-76.89zm-2168.74-275.86c4.28-49.54-1.71-29.72 34.27-70.15 61.99-3.06 120.23 7.97 169.91 37.63l-204.18 32.52zm70.94-125.98c92.53-58.95 92.81 30.23 202.84 52.59l-202.84-52.59zm2135.3 443.13c.24-158.76 161.51-822.72 239.64-948.82 115.52 163.37 188.8 318.28 89.9 566.57-53.14 133.4-196 324.21-329.54 382.25zm-1033.82-371l-82.72 30.86c-75.92-82.01-6.3-57.13-126.74-111.21-10.11-4.54-60.11-31.21-65.86-37.9-50.38-58.65-6.28-58.22 2.49-73.67l177.39 110.57 120.83-31.83-25.39 113.18zm73.71-188.42c-33.34 19.5-27.71 27.68-70.91-13.55-44-41.96-22.39-47.86-8.14-79.27 51.51 73.72 66.73 17.06 79.05 92.82zm65.36-103.28c-50.99 46.25-107.05-3.58-128.35-52.15 64.82-49.02 24.25-29.28 74.05 5.34 34.93 24.29 27.38 14.13 54.3 46.81zm-414.98-91.08c67 119.91 4.16 128 168.54 229.27-84.56-22.92-218.87-128.76-168.54-229.27zm1817.84-637.07l16.23 200.69-102.01-25.2 85.78-175.49zm-255.83 178.82c29.84-18.02 28.36-11.99 54.37-5.42-46.08 19.91-22.22 21.06-54.37 5.42zm-731.46-34.78c-20.21-88.87-25.15-107.4 55.89-150.87 57.53 29.24 62.66 58.44 40.31 130.09l-96.2 20.78zm-1338.35 260.79c-4.63-76.25 73.86-336.98 135.32-383.58 141.93-107.64 240.62-28.27 357.29 49.64 149.38 99.76 460.93 532.01 211.08 610.95-41.98-51.02-32.25-54.94-52.81-114.79-114.13 44.22-38.6 127.76-15.48 208.26-103.88-39.93-47.54-108.34-104.54-206l-93.47 69.28c46.29 111.81 24.1 135.53 1.18 243.98 39.56 43.88 68.73 73.94 127.4 103.81 105.33 53.61 45.88 37.46 104.5 125.76l152.16-68.54c67.29-208.11 159.08-340.46 288.19-524.72 32.04-45.73 51.73-84.37 79.68-131.89 76.67-130.33 254.9-200.59 312.61-302.69l103.72 9.24c50.69-64.43 62.8-69.82 145.2-100.81l60.29 68.09c-52.06 99.73-264.73 206.31-295.69 274.36 109.33 12.15 232.42-133.26 298.47-207.45 31.12-34.95 47.72-58.81 88.57-70.47l17.31 86.62c-63.07 62.67-122.44 123.26-142.73 213.46 93.55-7.81 117.06-157.24 216.79-197.93 37.19 106.42-144.06 142.16-76.8 284.57 87.85-47.95 37.22-175.27 152.03-205.51-83.24 151.97-181.59 537.76-227.67 727.46-31.63 130.2-53.81 244.56-116.58 362.87-46.41 87.48-141.88 206.94-244.57 217.25 92.97-102.1 247.52-234.53 241.44-391.97-59.66 18.19-64.64 75.69-109.4 135.72 8.29-86.8 101.78-278.9 57.49-358.04-37.18 23.69-89.71 266.26-115.02 333.34-46.19 122.44-102.99 189.52-180.05 281.56 4.12-116.56 123.02-204.09 127.43-298.18-100.44-3.43-129.93 214.04-194.52 277.68 4.62-156.43 76.93-282.53 187.96-392.35 71.33-70.55 79.75-16.72 88.83-106.93-114.95 19.68-203.25 157.95-262.46 247.91 12.4-195.32 222.87-446.64 363.66-586.65 56.15-55.84 118-102.13 133.27-178.81-94.5 40.91-323.65 306.92-385.2 404.73-106.37 169.03-207.92 363.86-197.01 570.32 14.89 281.97-126.79 322.67-211.27 539.41-66.28 170.09-232.78 301.02-391.46 379.27 38.82-134.17 206.19-370.88 203.17-488.15-47.76 12.92-29.45-4.23-57.87 58.93l-119.92 251.21c-54.57 101.58-100.99 225.22-154.23 324.2-77.59 144.24-221.41 297.25-302.29 440.57-28.31 50.15-59.24 104.36-107.82 89.94-20.43-52.97 16.89-50.35 53.84-92.79 63.47-72.9 159.12-225.15 125.6-318.2-49.16 26.53-32.63 34.56-60.71 100.67-19.85 46.73-144.05 308.35-204.37 244.22-34.11-36.26 20.25-57.03 53.45-111.98 72.77-120.39 148.36-248.27 182.7-386.14-70.97 17.01-57.68 44.38-92.51 123.13-21.45 48.51-49.84 90.84-74.74 137.21-84.7 157.73-112 201.11-189.57 176.82 58.12-130.5 214.19-241.01 231.92-426.61-62.97 30.13-52.23 50.24-85.96 117.77l-142.22 211.19c-64.96 77.45-64.46 50.15-89.89 40.98 1.99-77.35 46.22-72.27 85.25-153.4 97.73-203.17 297.2-303.2 292.07-400.75-62.21 18.1-281.05 340.32-484.68 377.56 49.89-159.75 321.73-287.42 344.04-372.8-65.34-10.07-134.43 73.33-185.63 115.23-49.63 40.61-112.15 111.9-166.73 139.36 5.29-201.88 224.68-227.29 315.12-335.29-46.99-24.38-56.75-4.22-107.1 14.33-41.99-109.57 53.96-84.92 87.56-183.54-93.07 17.01-69.64 55.89-195.65 77.76.95-211.85 199.91-131.47 260.2-129.26l-15.68-73.2c111.96-38.09 241.15-63.82 326.7-137.77 78.97-68.26 169.96-121.79 252.95-189.69 108.51-88.79 379.55-371.8 365.51-505.59-57.02 19.4-140.38 199.07-191.58 257.51l-216.01 199.17 86.87-157.62c-108.63-6.18-261.86 409.14-506.21 436.04 73.5-84.02 251.22-276.24 268.43-388.37-129.35 42.72-301.11 495.44-464.99 443.42 20.65-141.22 251.48-188.49 292.56-311.45-85.05 16.81-172.85 92.92-236.21 150.92-92.41 84.58-106.93 93.08-107.93 213.79l-115.74 11.49c-19.79-138.28 29.63-129.93 116.62-225.76 30.38-33.47 64.12-48.3 100.49-77.2 77.84-61.85 68.05-20.91 91.61-104.33-106.66 28.33-318.31 266.99-372.14 257.47-29.38-59.81-23.8-37.73 25.03-89.03 61.16-64.26 165.58-120.32 182.64-203.47-105.59 35.23-227.86 215.06-282.76 227.52 15.67-167.59 174.65-156.52 213.8-268.86-148.21-21.44-183.33 175.04-277.84 205.59 29.5-183.59 310.08-261.78 460.21-330.81-43.22-51.74 24.77-25.21-68.65-29.93-79.83-4.04-136.62-14.59-222.49 14.46-81.88 27.7-160.28 94.38-235.94 114.57 2.47-189.51 313.01-133.27 386.54-248.43-95-28.9-292.87 82.65-385.29 119.6-10-149.4 201.75-154.49 315.14-154.96 25.47-.1 76.97 6.34 89.16 5.76 99.79-4.77 17.04 8.26 52.86-20.52-90.12-74.97-292.21-1.4-401.44.74 25.21-129.38 335.05-88.24 435.25-77.01-65.62-149.77-134.44-128.74-232.1-223.57 66.8-37.75 72.61-3.9 155.14 12.49 38.78 71.98 15.75 76.63 92.81 72.8-5.67-138.3-89.36-148.73-194.55-190.42 83.25-64.49 135.88-33.64 217.04 32.68 88.5 72.31 107.97 128.72 184.17 144.57-30.28-167.38-278.02-218.08-307.07-282.88 122.26-56.94 185.81 104.53 279.11 136.77-52.23-163.77-186.44-159.85-231.76-227.77 89.64-39.91 140.97 70.7 224.01 96.74-3.8-29.52.65-27.14-12.67-51.53l-85.09-79.06c-82.64-42.81-107.8 28.99-102.98-88.13 202.58 43.04 23.08 121 178.26 103.72-29.13-80.09-91.72-128.69-173.96-160.86zm1566.82-459.41c27.8 43.29 32.44-16.95 13.29 77.17-53.26 18.68-70.19 11.56-114.83-22.86 17.49-52.16 51.5-72.74 101.54-54.31zm228.47-83.15l31.43 149.41-59.41-37.52 27.98-111.89zm121.44 134.7c-54.18-50.68-36.76-5.25-41.43-59.38 45.15 4.77 37.01-13.87 41.43 59.38zm-870.93 313.99c-198.1 17.18-108.39-399.66 112.27-503.25 153.7-72.16 638.83 23.96 537.23 148.23-85.65 7.81-229.48-166.35-426.22-146.46 50.95 56.92 149.11 56.01 209.73 102.59-58.31 33.11-45.09.12-128.74 51.27l-188.5 147.46c-39.25 41.6-2.18 46.09-71.88 84.49 34.48-255.67 195.22-198.07 188.11-311.79-55.61 7.94-115.93 47.75-149.95 105-154.61 260.19-54.89 126.63-82.05 322.46zm689.16-503.25c-54.17 33.77-286.25-47.05-334.47-84.45 64.01-60.73 107.32-27.8 177.6 1.15 45.07 18.57 140.92 52.36 156.87 83.3zm449.82-226.38c109.38 15.41 165.09 1.77 262.23-34.13 20.26 107.55 15.58 104.86-61.42 178.67l-101.41-12.7c13.49 58.06 33.52 17.54 29.69 93.59-3.84 76.4-144.59 412.62-390.4 106.76 110.58-135.62 118.3-66.5 140.77-264.65 122.05-7.36 51.37.12 120.54-67.54zm-968.16 138.32c24.6-89.02 46.69-131.08 116.21-179.05 162.05-111.82 251.53 23.83 452.18 156.45 97.07 64.16 32.76 76.73 32.03 78.14-121.79-19.32-266.92-134-426.8-119.64l-50.62 74.75-123-10.65zm731.2-161.44c3.31-82.93 10.51 5.19 21.75-64.59 10.91-67.62-63.23-3.65 21.9-67.14 34.99 78.84 21.75 86.86-43.65 131.73zm-143.31-290.35c81.84-2.65 32.08 14.43 99.59 13.78 86.26-.83 10.74-14.77 77.9-13.27 42.59 41.81 79.83 49.78 13.4 107.29l-60.82-81.44c-25.19 50.55-4.92 42.93-11.64 119.1l-55.22-85.05-64.4 16.56 1.19-76.97zm-9.12-201.56c-16.29 42.82-3.97 35.43-41.09 42.61l41.09-42.61zm-715.17-47.68c55.13-45.21 169.59-102.6 228.92-104.09l-4.04 146.29c118.21 28.24 117.38-54.99 177.86 44.41-43.72 43.59-43.51 13.22-109.27 51.52-43.68-64.01-47.25-56.81-131.61-84.49l-65.43 39.62c-61.01-21.49-78.49-28.88-96.43-93.26zm715.17 47.68c13.2-24.11 146.44-168.62 169.37-186.97 31.13 57.56 31.81 110.75 39.34 172.65l90.45 30.59c91.89 76.48-60.37 336.64-89.81 75.59-97.43 27.42-10.05 76.74-156.88 72.87-28.93-55.54-32.72-52.73-8.06-114.38l92.78-3.54c48.33-58.34 50.09-30.24 59.64-99.64-47.81 5.43-22.79-.48-52.44 21.51-73.78 54.73 13.63 30.64-144.39 31.32zm381.7 98.58c-16.78-84.33 10.94-202.54 60.1-263.53 15.05 11.36 35.24.09 43.68 63 10.65 79.39-87.09 107.41-46.96 200.01l-56.82.52zm501.02-189.96c165.43-14.05 291.12-49.19 456.64-14.85-50.5 107.74-188.8 165.81-308.25 215.85-121.03 50.69-285.84-23.81-441.34-28.5l9.3-76.13 153.32 36.07c70.99-61 74.7-51.59 130.33-132.44zm851.79-124.57l18.02 101.3c-131.09 106.03-107.45 63.01-250.68 93.57-42.01 60.47-293.86 366.65-352.71 390.15-277.07 110.62-530.13-23.08-617.75-33.92 25.27 57.65 52.51 51.64 98.13 98.86-88.36 46.41-177.59 47.74-276.2 45.18-47.43 56.84-6.17 61.1-76.83 37.54-50.64-128.46 13.26-269.52 101.43-369.23 326.39-74.76 426.54 237.09 715.62 97.21 73.45-35.54 204.29-120.22 272.53-167.99 44.05-30.85 79.17-74.12 121.2-109.8 75.7-64.29 52.58-42.92 77.36-139.14l169.88-43.73zm-1030.31 357.3c244.85-7.47 189.66 110.2 481.26-51.87 292.66-162.65 146.11-243.69 329.32-251.52-16.6 113.67-250.39 258.53-350.85 317.81-154.17 90.98-202.52 123.61-359.19 46.84l-100.54-61.26zm1092.46-401.27c99.76-15.03 300.07-88.02 372.83-74.82 9.33 92.86 19.9 148.55-6.39 240.98-287.75-63.56-243.05-28.49-375.28-49.83l8.84-116.33zm-912.2 120.75c7.37-9.01 1.9-25.82 53.27-39.19l334.37-9.76c138.51-5.23 91.8-8.02 122.62 18.55-65.32 17.32-402.64 24.71-510.26 30.4zm-624.8 90.81c-27.84-85.94-65.08-194.49-3.66-263.68l123.65 92.01c12.9 80.54-18.64 111.24-26.82 189.17l-93.17-17.5zm-1203.12 85.62c-46.1-99.39 18.3-47.3 45.5-188.91-89.18 22.56-32.95 40.47-131.6 43.28l-23.38-115.81 61-41.93c76.51 32.36 155.48 117.58 185.32 171.84 64.26 116.84 41.61 120.33 170.75 192.61 75.08-18.92 110.3-66.88 136.98 6.86-95.27 52.17-231.75 91.98-332.01 53.82-49.5-18.84-85.97-64.44-112.56-121.76zm846.98-44.53c2.34-99.12 59.76-214.15 150.44-257.14-13.29 79.13-62.71 250.31-150.44 257.14zm-328.01-83.64c-34.97-69.73 61.99-137.98 123.82-151.77l-4.87 75.49c49.76 22.88 49.87 20.06 64.4 70.58 135.55-33.99 112.99-17.41 99.77 129.5l-110.57 9.9c-82.35-81.55-55.61-38.75-50.24-128.77-65.38.01-69.1 20.53-122.31-4.93zm-105.31-101.87c-10.6-117.83 3.32-63.71 79.04-115.11 58.1-39.44 22.09-70.95 112.99-26.63-25.7 72.43-112.25 144.08-192.03 141.74zm-536.53-157.71l36.03 45.35c-71.89 43.58-75.07 60.69-149.36 23.79l113.33-69.14zm145.78 65.83c29.54-83.3 61.53-32.24 191.73-87.07 74.91 45.01 89.78 45.04 155.55 103.46l-5.19 94.04c-25.87 18.22-130.19 58.65-179.75 86.53l-26.98-53.5c80.91-88.99 97.39-11.83 158.29-91.01-113.75-53.78-128.55 56.34-204.04 20.14 60.28-118.5 140.58.86 176.73-107.68-137.48-19.7-204.61 60.83-266.34 35.09zm-491.29-321.66c69.32 5.58 63.01 42.12 147.2 70.48l10.71 75.53 135.66 11.88 20.75 62.34c-62.96 30.13-144.7 98.96-208.95 33.31 41.59-27.31 39.23-13.67 63.22-25.84 58.31-29.59 25.24 6.89 44.62-56.11-144.33 4.6-80.48 21.09-174.7 51.01-103.13 32.75-127.68-27.71-134.84-37.11 26.13-77.21 11.84-46.57 95.72-76.63l.61-108.86zm386.07 220.09c-117.59-92.91 25.83-121.24 100.95-143.12l23.92 47.74c70.23 5.82 66.89-2.47 112.21 21.59l-1.87 56.73c-56.44 29.69-69.44 11.38-112.28 24.63-74.87 23.15-2.31 24.82-80.26 40.78 31.85-77.6 72.96-31.69 130.6-107.22-55.74-19.57-51.68-4.82-129.15-1.81l-44.12 60.68zm1652.27 352.67c-36.49-80.98-18.83-144.26-60.94-189.66-27.44 48.95 8.53 108.57 2.8 169.52-7.63 81.03-14.21 20.42-28.77 76.63-14.42 55.67 14.44 10.49-8.09 69.63l-46.17-11.24c-15.87-128.46 162.91-196.2-68.01-304l27.84-55.34c68.5-2.92 14.27-1.84 87.98 16.39 8.02-90.03-20.47-276.25 133.58-261.3l-17.5 133.82c82.25-25.92 54.77-128.82 149.36-235.54 85.35 97.11 51.15 262.47 74.41 394.42-28.93 66.01-21.56 40.81-46.48 120.13-18.05 57.45-26.22 50.19-68.44 95.54l-131.57-19zm-330.66-316.61c15.79-21.86 112.28-113.89 136.92-136.6 54.59-50.35 68.87-67.9 107.06-126.48-2.43 237.71-43.4 45.91-54.36 263.23-74.18 37.99-57.23 41.6-113.8 75.01-60.06-23.63-41.84-13.57-75.82-75.16zm-1987.01-146.16c30.31-75.92 138.37-108.89 226.84-107.15l-7.98 77.77c-73.13 22.31-148.42 49.83-218.86 29.38zm478.23-3.12c-13.14-139.92 206.46-153.33 282.09-121.13-31.2 113.19-23.76-1.5-132.02 88.2-53.91 44.68-77.29 42.53-150.07 32.93zm756.85-16.15l-116.51-139.1c57.47-39.06 50.87-27.12 131.55-17.72 16.19 70.19 28.42 98.42-15.04 156.82zm-1413.66-86.08c82.46-92.47 156.08-63.23 258.3-65.92-12.44 33.99-79.56 87.57-109.9 99.23-60.88 23.42-105.45-4.94-148.4-33.31zm548.96-18.18c110.91-73.33 46.07-57.59 126.61-155.03l67.26 102.47c-51.41 42.14-127.82 97.39-193.87 52.56zm1914.5 46.09c16.55-36.67 16.75 5.84 89.95-68.82 47.13-48.08 25.8-58.64 84.27-79.84 87.57-31.73 167.84 32.31 223.26 87.39-109.7 170.26-15.49 78.63-70.1 155.32-76.68-93.31 78.37 27.63-127.96-209.72-77.48 59.18-87.24 111.56-199.42 115.67zm-2606.59-48.5c-30.74-128.72 128.36-135.74 210.62-84.11-148.31 43.57-59.17 106.09-210.62 84.11zm1394.84-175.56c33.54 34.57 30.27 24.36 29.28 87.93l-61.21-4.04 31.93-83.89zm-937.42 148.06c32.38-103.78-23.76 30.84 132.19-129.74l146.86 20.49c-28.28 112.17-172.87 109.17-279.05 109.25zm604.29-240c85.84 58.73 156.34 86.65 258.4 117.57 3.02 62.23-7.65 39.13-22.75 113.51l89.19-2.32c39.71 161.78 33.37 3.66 94.07 147.86 78.32 186.03 17.07 80.49 51.81 170.32l-96.93 16.66c44-71.3 42.34-10.75 55.78-100.27-95.52 20.11-182.04 95.69-233.36-32.72 66.33-57.58 132.5-31.36 182.51-76.29-21.98-51.87 20.75-18.86-55.24-41.47-29.49-8.76-52.23-9.83-78.67-12.23-60.54 64.49-75.57 80.42-170.23 68.42-26.25-199.62 80.4-68.3 134.45-229.32-90.95 2.67-112.4 32.41-173.76 79.22-100.22-1.76-158.57 7.39-216.94-72.23 49.6-83.09 111.27-93.26 181.67-146.71zm1535.15 60.62c73.26 33.41 61-7.84 128.63 29.66 3.17 86.94 10.73-20.9-119.97 177.41 16.01-131.73 52.2-52.54 6.21-153.87-48.47 46.46-90.62 131.71-140.31 191.3-36.29 43.5-92.08 125.83-151.22 138.31 16.86-101.72 127.87-218.72 113.5-308.63-156.88 64.22-100.43 339.93-322.5 566.67l7.75-128.67c98.17-84.79 70.67-233.94 122.48-357.57 60.59-144.58 132.2-159.34 191.86-146.1 66.42 14.73 59.02 46.57 109.31 3.13 31.17-26.91 19.72-27.39 54.26-11.64zm-1134.96 86.6c25.7-21.27.66-11.48 36.88-23.5 41.51-13.78 68.77 9.47 117.04-17.19 57.1-31.54 15.51-53.42 81.04-104.34 37.56 106.08-20.51 138-64.81 211.94-139.97-100.27-70.8 8.51-170.15-66.91zm-1556.49-36.64c25.75-50.96 80.4-64.97 143.3-81.6l57.23 52.36c-83.72 42.7-155.96 129.95-200.53 29.24zm410.91 53.88c9.05-16.58 118.86-143.45 139.32-166.42 72.54 7.82 61.14-9.03 107.32 45.01l-42.49 60.46c-56.63 58.26-127.42 87.6-204.15 60.95zm-107.14-39.38c163.41-84.83 83.78-160.91 192.02-150.34-60.04 104.46-109.52 181.57-192.02 150.34zm-352.13-163.89c47.02-36.49 62.53-31.29 121.31-39.66l64.79 59.3c-84.19 24.98-171.21 91.62-186.1-19.64zm234.58 46.71c60.03-65.85 123.79-100.73 215.02-62.57-16.19 84.67-70.36 102.24-149.79 114.23l-65.23-51.66zm210.86-125.48c42.17-97.14 404.63-1.18 545.75-14.1l157.19 107.95c-90.79 78.51-301.01 161.32-405.97 79.59 18.87-94 177.58-78.12 258.16-160.3-38.96-23.51-43.91-21.93-87.29-7.25-61.1 20.68-113.57 60.43-195.56 72.98-85.72 13.12-217.85-17.74-272.28-78.87zm-274.28-38.94c58.65-28.31 184.8-14.47 242.22 19.46-64.84 36.91-89.44 24.18-167.44 52.07-50.81 18.16-101.96-1.29-74.78-71.53zm1310.13 229.74c-78.79-4.65-382.71-149.53-422.61-224.89 5.26-14.2 28.97-53.7 36.29-68.14 75.51 14.79 60.3 29.67 113.88 40.71 111.67 23 57.06-45.11 296.4 84.09-32.41 58.89-36.77-10.37-23.96 168.23zm-1493.25-202.85c-10.94-58.7-9.06-27.03 5.62-73.04l124.51 6.88c6.17 85.65-52.5 74.41-130.13 66.16zm1524.35 115.09c71.37-39.42 46.6 5.01 107.91-34.61-12.28-63.67-42.01-39.99-108.08-77.87-59.16-33.9-46.73-29.51-114.7-54.87l10.93-77.61c143.45-73.22 296.22 104.27 379.91 214.08-62.18 175.45-251.09 163.96-275.97 30.88zm-990.56-292.22c137.58-78.78 498.28 12.75 534.34 47.9-44.57 95.46-132.3 92.89-238.29 80.57-81.94-9.51-220.49-13.63-295.05-42.65l-1-85.82zm-392.48 58.06c10.85-57.72-1.41-56.72 81.18-72.41 119.1-22.61 246.79-22 266.8 119.38-61.45 11.1-302.69-11.75-347.98-46.97zm863.21-146.26c161.76-86.6 310.25-38.58 453.87 70.43l-75.56 21.94-36.65 84.55c-148.04 12.89-284.85-46.04-341.66-176.92zm-426.54-2.27c-70.47 24.91-46.1-18.02-89.42 63.32l-119.25-80.09c-72.62 17.39-69.8 33.98-129.78-.02-27.38-60.38-12.44-34.08 20.58-91.26 192.22-26.94 182.78 44.81 317.87 108.05zm233.23-157.99c226.86 28.93 45.64-13.66 298.71 79.34-70.39-.39-85.45 19.09-152.55 47.74l4.85 60.71c-.44 3.22-5.01 16.76-5.5 14.09-.53-2.89-4.67 9.86-7.3 14.64-298.43-50.71-289.62-24.38-463.58-187.1 110.78-51.32 215.05-43.48 325.37-29.42zm-292.47-34.68c-97.83 42.7-79.89 33.37-183.27 22.23-70.67-7.61-105.43.59-74.85-80.41 101.16-49.97 184.69-12.94 258.12 58.18zm-101.78-178.33c82.66 41.69 228.03 60.4 279.29 130.44-244.02 78.55-98.01-65.14-416.62-67.45l137.33-62.99zm-402.66 278.69c73.62-46.01 61.12-21.67 121.55-104.83l-16.6-192.05c107.92 33.34 58.09 3.17 131.83 88.74l-56.2 66.23 30.43 100.75-67.13 74.8 42.85 95.99c-187.98 27.23-33.06 101.3-193.38 105.74-2.05-86.7 7.92-59.75 49.94-128.88-19.95-42.21-37.49-58.93-43.29-106.49zm188.91-318.64c41.18-32.95 67.33-61.3 105.87-94.44 68.53 18.45 69.92 17.03 86.93 86.3-40.74 32.4-81.34 51.43-135.47 57.57l-57.33-49.43zm223.08-73.11l150.82 88.38-123.35.03-27.47-88.41zm-272.37-68.97c61.19 4.87 65.46-.94 106.7 35.85-41.32 45.48-39.04 45.74-103.64 48.13l-3.06-83.98zm-170.81-14.46l123.41 8.99-4.18 91.37c-95.1 20.93-128.72 6.49-119.23-100.36zm2162.28 1585.9c-78.07-89.72-71.46-28.99-138.78-152.88-38.94-71.67-55.47-142.87-45.11-226.29 16.26-131.04 116.14-275.2 180.62-383.92-31.53-116.8-39.09-104.45-136-148.31-62.29-28.18-97.3-71.51-150.88-114.17-182-144.82-398.24-324.64-647.92-398.16-116.89-34.42-300.83-59.41-382.27-130.15 58.12-49.54 110.6-39.25 187.5-37.82 149.88-100.4 85.03-107.13 267.56-8.45 98.41 53.2 767.75 406.91 795.86 442.58l-101.55 10.91c-69.54 7.48-66.17-7.05-64.77 63.61 1.34 68.44 21.92 39.18 30.49 23.29 11.77-21.8 14.23-49.86 34.59-52.56 130.11-17.17 355.85 28.64 225.61 173.92-10.01 11.37-35.83 27.82-37.31 67.01l136.4-33.5c119.19 119.15-17.51 268.42-90.6 383.99-44.72 70.72-22.13 14.82-34.83 106.66-22.51 162.71 33 219.92 52.56 351.7-41.63 26.87-50.91 38.84-81.17 62.54zm-1250.13-1231.69c-143.84-68.39-130.74-107.35-223.89-184.77-323.32-268.69-781.75-183.76-942.05-223.07-47.78-11.71-53.08-27.59-9.5-58.06 31.95-22.33 70.67-12.9 132.87-13.3 447.41-2.88 764.96 163.58 1119.49 259.2 198.37 53.51 392.72 115.44 562.23 231.81 117.24 80.5 351.02 228.95 426.32 344.3-25.53 54.77-42.25 12.28-47.33 77.66 101.64 13.05 44.31-54.56 138.1-56.75 72.98 73.76 11.86 127.22-26.92 201.56-235.32 451.07-15.27 510.88 73.54 676.43l-57.82 87.53-67.87-69.75c-37.28 43-12.82 40.09-66.08 50.11l23.73-117.38-56.99-5.59 4.91-85.99-151.11-24.42c12.86-77.95 34.32-51.13 57.98-100.03 16.48-34.09 11.01-77.75 17.78-120.82 92.08-84.57 110.77-120.35 104-252.39-119.56-132.55-268.96-307.73-434.02-385.56-286.45-135.05-391.9-142.53-577.37-230.72zm85.94-452.51c1.08-2.5 4.35 4.05 6.42 6.19-25.5 39.8-60.4 46.3-98.87 45.64-54.69-.94-67.49-20.46-94.55 24.87-27.9 46.76-22.25 42.1-81.02 30.1-102.8-20.98-213.49-75.9-303.16-103.21 120.82-56.26 331.68-53.32 465.83-29.72l105.35 26.13zm1158.22 532.09c-87.39-82.97-43.66-76.92-171.8-131.26-110.95-47.03-443.07-241.08-641.02-348.32-114.71-62.13-136.99-74.05-263.46-94.06-142.57-22.57-355.33-47.06-416.15-45.51-237.75 6.02-254.57 78.35-520.8 33.45-97.04-16.37-293.18-46.44-415.06-5.47-63.54 21.36-103.14 47.78-64.77 113.69 53.8 92.44 185.08 4.99 269.74 51.72 52.8 50.05 31.5 71.34 75.73 115.91 41.78 42.12 69.89 30.53 92.16 103.57 57.68 189.21-56.92 155.45-118.62 232.2 22.91 142.43 57.33 40.9 2.48 197.5-25.86 73.84-19.41 165.2-4.85 241.59 24.49 128.41 98.2 279.08 187.76 370.81 122.07 28.47 165.48 23.34 278.4 94.75 73.96 46.78 74.59 27.81 144.23 51.35 74.18 25.06 47.96 54.37 94.14 83.13 80.01 49.81 44.51-37.02 277.25 96.12 178.17 101.91 74.64 16.78 176.89 177.55 144.42 227.07 78.4 333.19 456.44 270.57 120.13-19.9 171.85-70.49 287.36-91.36 138.98-25.11 159.57-41.62 283.55 7.61l-20.07 128.92-10.64 68.33 69.82 33.5c-37.88 59.91-44.75 40.85-53.08 112.81l144.69-19.98c-1.95 2.66-5.65 7.29-7.96 10-15.7 18.4-28.28 32.42-38.25 42.92-14.61 15.38-3.69 28.37 11.72 34.08 99.33 36.72 71.67 4.84 149.08 5.15l-21.06 171.34c-62.53-45.9-77.47 13.72-175.33-85.73-45.86-46.59-99.75-73.91-156.45-109.94-113.26-71.97-234.62-134.28-342.17-74.19-37.33 20.86-71.36 40.11-105.05 101.22-27.48 49.84-42.87 102.58-55.18 157.98-103.39 62.01-188.26 125.57-231.85 244.29-50.27 136.94-63.72 157.18-23.31 263.8 25.49 67.29 28.82 95.73 96.69 94.11 66.53-1.58 84.49 17.35 97.16-43.27 14.63-70.04 18.13-100.07 171.03-222.58 8.37 22.57 31.7 79.47 40.27 105.83l-370.95 485.29c-80.49-51.81-99.25-82.6-115.74-178.94-39.44-230.41-200.34-385.79-382.07-506.3-165.03-109.43-326.9-64.65-386.57 44.97-121.92 223.92-96.62 370.26-113.72 469.91-14.21 82.88-41.23 139.81-102.79 196.33-83.36 76.54-35.16 90.96-126.74 156.72-190.05 136.48-129.78 187.85-207.75 376.79-52.68 127.64-56.55 379.69 34.84 490.46 69.79 84.59 68.72 79.39 143.59 152.49 83.35 81.38 10.29 104.02 100.66 168.75-37.56 67.23-136.94 431.82-141.86 493.5-7.91 98.97-4.28 283.61 82.94 339.17 63.67 40.55 66.22 66.15 119.09 93.32 135.96 69.87 140.46 91.07 249.38 172.82 95.72-37.53 61.82-4.32 110.24-82.02 79.5-127.58 291.23-408.73 366.79-552.85 26.61-50.73 176.96-123.91 236.35-146.28 36.44 222.16 149.28 168.56 3.28 370.46-89.78 124.15-388.43 467.38-488.14 535.69-109.68 75.14-169.77 245.37-66.88 341.06 49.99-100.93-46.54-44.14 11.04-147.97 10.22 44.02 17.62 104.72 21.12 142.8 7.42 80.83 43.7 89.47 177.53 160.66 11.2 5.96 229.65 75.44 138.74 238.44-97.22-34.88-15.4-140.66-121.94-183.52l15.81 117.87-74.23-24.04c7.59 73.75 39.49 49.8 75.8 122.44-46.12 65.55-118.26 48.94-57.26 158.66 81.09 145.88-12.24 45.75 123.58 155.77-30.28 75.75-84.2 48.44-73.02 196.91 3.93 52.19 219.17 413.51 483.83 224.42 103.93-74.25 229.47-157.8 264.49-285.43 34.73-126.62 14.45-355.45-21.74-482.96-43.03-151.6-139.72-244.75-198.37-365.64-39.44-81.29-56.86-140.94-30.94-233.41 80.12-285.83 185.54-169.42 475.11-335.46 182.79-104.81 197.77-163.39 192.76-367.91-51.33-162.15-424.1-226.17-351.99-569.99 57.45-273.94 176.5-378.5 375.32-542.06 49.35-40.61 72.62-102.83 113.07-135.63 86.72-70.3 229.58-121.72 351.52-339.41 66.33-118.4 86.37-256.91 78.49-389.6-11.99-202.05-150.41-320.68-150.47-320.81-19.63-255.67 157.13-165.31 300.57-164.19 35.74-96.3-42.65-300.1-11.1-440.9 51.85-63.05 82.72-26.84 121.59-111.7 47.69-104.08-5.62-92.29 3.57-167.28 116.3-32.05 424.91 38.25 536.28-87.51 96.85-109.38 211.97-233.14 302.33-349.85 202.75-11.8 205.15-109.16 304.16-115 137.01-8.09 277.48 58.08 370.03 51.21 3.4-110.56 23.35-267.74-26.07-351.82-62.06 4.6-199.2 59.55-277.84 77.41-105.14 23.86-206.63 40.49-310.11 60.63-158 30.76-513.06 55.08-672.53 40.65-35.97-72.96-38.38-113.57-32.4-206.52l39.03-13.38c51.17-17.56 43.85-7.1 45.57-62.56 2.26-72.92-.1-53 70.43-136.44-119.69-68.04-106.05-127.72-277.91-137.42l-30.41-47.71c-22.72-35.65-16.02-36.3-60.68-37.64-38.66-1.15-48.76 6.67-89.87-8.26-44.03-16-29.13-24.35-70.68-1.93-44.94 24.23-58.28 21.75-92.3 15.85-97.09-16.83-74.71-14.71-140.73 40.75-46.99 39.45-70.76 43.57-113.18 153.96-32.31 84.03-8.64 218.98-76.43 275.35-96.02-245.48-65.46-279.78 50.4-476.96 179.05-304.73 22.29-301.84-29.15-399.05-90.95-171.87-35.1-55.45-144.43-159.29zm8822.75 6469.63c49.82 108.02-4.13 41.69 90.76 114.02l11.53 119.57 100.6 71.51c233.54-82.79 180.27 138.13 123.11 212.42-233.85-15.26-321.84-258.72-371.91-354.7 39.88-84.68 23.77-65.69 45.91-162.82zm241.02 70.59c79.15 50.68 84.55 6.9 143.36 62.56-60.8 67.34-45.34.92-121.97 115.2l-99.85-.76c-33.54-59.14-32.01-42.43-11.72-107.07l81.82 19.06c-3.87-52.02-24.14-75.5 8.36-88.99zm135.07 2.65c3.48-85.32-3.16-76.97 57.18-85.37 28.21 64.05 4.04 82.06-57.18 85.37zm-49.16-22.44c-88.01-17.21-139.83-12.24-136.47-112.04l142.82 2.37-6.35 109.67zm-328.13-98.21l28.08-106.84c78.85 29.66 123.61 158.56 145.29 229.14-128.37-11.52-88.6-40.9-173.37-122.3zm354.13-310.21l-112.05 5.83c-14.56-177.36 48.29-80.86 98.57-213.55 12.79-33.73 23.12-59.75 36.55-80.07l-23.07 287.79zm282.35-184.82l15.6-145.37-15.6 145.37zm-723.02-301.96c74.91 17.37 72.68 29.24 152.84 18.84 22.71 181.52 117.95 173.96 30 394.77-52.07 130.74-117.5 209.26-147.24 364.54l-23.49 212.42c-4.94 95.5 92.54 250.89 175.81 313.42l163.69 112.52c-32.4 41.11-83.81 67-132.36 85.59-170.12-138.63-274.31-518.61-301.78-558.38-42.5 66.39 45.6 225.64 75.46 292.94 52.49 118.3 128.43 188.38 157.42 269.33-154.29-35.06-236.7-201.95-265.91-342.89-12.6-60.83-9.81-127.07-36.68-171.33-63.33 120.15 22.5 231.92 32.13 336.05-83.27-115.74-102.95-108.81-98.13-338.75 9.69-463.82 298.34-501.3 274.87-830.13-8.39-117.71-37.49-63.7-56.63-158.94zm1144.13-578.54c70.27 47.42 116.76 31.71 146.95 104.8-74.77 68.33-120.07-33.44-146.95-104.8zm94.45-327.01c58.49 27.54 41.63 7.11 50.3 58.27-50.03-20.96-29.94-8.94-50.3-58.27zm-1160.75 164.41c-51.78-56.59-86.6-83.27-78.71-168.34 74.35-17.97 70.31-24.48 143.88-3.71-10.24 76.59-14.21 113.88-65.17 172.05zm1107.06-316.7c79.51 13.54 75.16 15.25 72.64 91.6l-103.42 21.98 30.78-113.58zM20902.22 8683c18.35 23.6 31.65 55.36 37.78 63.72 42.11 57.43 14.74 6.44 57.65 46.83 31.15 29.31 52.66 65.16 96.85 105.73l-190.08 3.91c-25.57-74.44-37.31-148.99-2.2-220.19zm-357.35-319.5c65.46 42.93 169.61 16.69 223.63 78.13 30.75 34.98 95.58 183.08 88.63 226.75-19.17 120.36-18.02 177.76 23.18 294.61 41.39 117.4 308.55 521.42 401.83 607.3 90.23 83.07 87.11 89.56 160.78 177.98 33.16 39.81 132.31 112.05 175.99 160.25-39.65 165.09-54.63 131.91-44.95 324.08-43.47 45.91-65.81 59.14-127.09 72.53-4.75-103.87 111.16-374.7-13.16-482.48-39.82 92.55 59.49 112.11-20.84 167.98-37.93-58.98-40.77-198.06-131.17-210.29 50.96 188.74 84.28 102.01 53.45 330.46-72.51 44.67-51.55-.43-81.14 103.91-19.55 69.01-35.65 111.67-36.07 183.02l83.25 26.52-38.29 165.01c-40.65-58.3-21.43-35.65-14.54-103.84l-84.48-71.16 37.16 146.18c-10.57-.11-99.93-53.88-119.51-64.47 48.75-160.15 231.46-296.4 87.53-584.69-29.11-58.29-55.39-71.4-75.67-116.69-23.35-52.15-25.73-87.37-61.23-135.24-40.94-55.23-122-173.68-181.18-197.64 4.99 68.95 165.14 278.97 211.49 363.11-93.37-42.72-63.79-15.68-137.75-36.88-25.17-7.22-85.22-51.81-109.62-68.66-66.55-45.96-114.1-158.11-172.46-185.28-1.35 80.75 76.82 124.9 105.38 183.94-76.79-15.68-141.9-43.56-206.7-80.58-144.85-82.76-263-168.48-198.99-352.81 40.2-115.75 348.2-192.89 352.85-498.34 2.16-142.04-109.42-293.2-150.31-422.71zm-185.38-226.7c95.8 48.93 93.85 62.7 140.85 35.02 3.31-1.95 15.32-13.62 20.12-17.02 58.06 44.81 95.67 85.65 167.34 99.09 11.16 50.29 24.69 74.46 34.5 104.45-176.72-2.75-271.09-83.99-362.81-221.54zm1829.82-22.82c63.56 24.7 188.18 112.42 168.41 181.22-46.05-.96-11.57-2.61-75.24-79.8-31.24-37.86-68.48-69.87-93.17-101.42zm-44.74-115.78c61.83-10.95 120.95 22.18 174.05 56.55 85.67 55.47 87.96 74.15 95.65 170.33-93.76-42.14-97.93-142.97-269.7-226.88zm-1960.1-54.41l52.52 71.62c-41.2-25.64-56.05-29.06-52.52-71.62zm2160.92-296.21l-221.61-19.49c53.54-29.07 185.57-94.47 221.61 19.49zm-209.41-81.67c50.81-62.78 70.5-77.61 136.17-30.58l-136.17 30.58zm-2240.67-534.6c82.95 164.16 224.17 741.13 235.66 932.55-310.35-114.82-525.41-696.09-235.66-932.55zm1346.81 476.1c136.62 7.82 128.07-65.54 203.41-98.83 45.76 107.91-38.78 35.61-194.8 224.32l-88.02-26.69-25.88-100.46c56.68-19.12 123.5-45.51 188.52-73.98-53.29 22.41-71.52 25.16-83.23 75.64zm-137.59-73.37l-27.22-40.44 106.28-76.21c15.65 53.04-19.17 79.03-79.06 116.65zm-51.94-93.86l-27.99-35.63c38.6-34.92 76.17-64.58 121.56-63.85 7.65 60.4-45.82 87.38-93.57 99.48zm367.92 14.43c-5.62-57.22-5.34-92.47 22.04-133.49 29.27 46.14-6.3 89.15-22.04 133.49zm420.62-219.84c26.12-63.48 40.68-62.34 103.26-93.12 37.43 77.98-29.86 79.44-103.26 93.12zm-2242.91-364.22l27.65-181.74 91.65 176.94c-65.38 14.27-55.76 22.91-119.3 4.8zm903.75-90.25l41.39-110.36c82.82 51.18 105.47 71.02 60.93 155.45-62 4.04-52.93-4.42-102.32-45.09zm1687.34 1433.68l-95.34-19.71c50.9 119.68 181.7 65.67 206.61 271.01-119.55-64.51-135.65-164.91-271.55-220.19 49.49 110.08 268.71 196.71 186.87 294-63.87-57.63-269.41-249.33-354.76-251.57 66.02 124.74 302.25 159.2 310.52 383.23-67.28 7.29-66.2 17.44-121.99-16.68-8.1-34.52-4.48 1.98 13.95-66.95-76.69-90.87-226.34-244.36-344.01-278.85 12.51 84.61 236.23 178.91 274.96 287.59-90.77 56.18-190.61-103.85-249.76-167.22-66.31-71.03-128.61-212.79-209.33-252.16 38.05 125.51 188.79 273.98 255.83 380.59-273.17-50.37-344.24-394.84-491.09-439.82 3.19 52.53 45.87 107.15 82.02 144.15-71.5-11.33-177.82-133.17-230.38-194.28-64.04-74.46-99.63-194.34-179.61-241.96 20.85 122.01 169.23 329.38 266.15 423.82l404.38 303.46c114.74 72.48 290.51 20.79 261.55 172.01 128.31-16.62 244.31-54.7 254.47 124.95-118.26 5.72-85.19-37.5-178.76-54.99 42.74 105.5 88.5 25.75 85.87 167.68l-101.29-25.09c42.63 112.16 315.83 152.69 293.3 349.12-81.19-57.84-249.44-255.35-338.94-250.82 33.04 100.9 299.1 195.15 328.2 364.15-243.23-46.45-329.45-293.8-477.07-368.3 17.99 87.29 153.6 191.35 218.86 265.43 56.62 64.28 51.29 103.31 93.74 157.29 40.19 51.1 105.84 97.08 21.99 131.6-45.29-21.49-109.96-120.01-142.4-170.15-36.64-56.63-62.19-162-122.9-193.98-43.48 106.65 208.98 319.23 208.65 416.67-60.7 7.43-65.66 3.59-105.07-63.44-32.2-54.78-48.83-61.32-77.88-116.23-26.36-49.84-112.56-227.58-133.64-251.81-11.08 18.23-39.76 21.71 15.76 119.51l141.73 250.44c40.57 55.71 83.5 85.64 36.4 120.9-108.83 39.08-183.38-289.01-247.07-347.12-27.28 58.66 28.22 179.99 60.6 232.62 53.66 87.24 146.51 115.12 108.23 199.93-120.13-132.08-103.18-131.93-202.76-260.93l-141.31-211.31c-14.43-22.93-39.38-45.42-53.93-70.84-32.42-56.67-37.98-86.26-79.38-151.29-23.46-36.86-58.83-128.03-78.89-171.26-42.59-91.78-112.93-245.37-160.4-314.47-6.34 9.33-48.37-2.61 13.34 111.6 65.6 121.42 124.85 235.87 167.91 367.92-160.32-76.66-318.89-209.15-385.52-378.14-20.34-51.6-107.28-156.17-143.89-227.75-185.07-361.87 95.56-501.74-450.87-1092.14-51.85-56.02-128.4-173.62-198.93-171.68 134.69 195.18 521.03 516.77 494.81 760.19-48.51-58.3-116.8-208.85-213.72-242.66l-43.37 4.55c116.36 120.53 300.98 277.54 260.2 476.41-43.88-70.04-95.22-254.25-180.73-274.53l141.95 285.78c-231.66-101.69-214.51-492.19-309.64-606.57-47.67 86.94 47.74 304 64.46 383.29-41.3-55.51-43.98-121.62-113.53-154.2.27 173.39 138.29 258.39 231.31 381.51-121.48-25.25-188.23-127.07-242.71-214.53-121.72-195.36-157.65-636.73-269.26-881.32-31.82-69.75-32.02-135.74-57.62-183.23 17.05 2.33 30.27-39.39 75.33 78.62 21.49 56.26 12.68 71.27 46.79 110.94 51.27-37.26 10.11-81.87 3.41-167.91-66.11-27.05-99.67-48.17-52.93-116.2 115.2 62.21 98.53 165.98 200.2 195.8-11.83-98.03-85.44-147.86-146.37-217.34l29.19-82.28c102.75 46.64 198.8 256.96 384.72 290.09-31.99-83.45-132.68-111.34-299.68-286.32l73.48-65.4c89.35 41.84 83.81 16.48 140.26 98.55 88.91-5.02 27.7 1.15 94.68-20.93 32 54.32 27.47 78.82 93.25 102.11 97 34.36 45.85 14.96 122.97 84.33 102.82 92.49 332.95 467.37 409.05 597.81 32.65 55.96 43.13 115.65 54.83 163.97l156.42 85.93c48.07-69.23 6.4-75.77 90.24-124.3 52.86-30.6 90.44-64.06 138.53-89.68-13.05-152.08-28.77-118.37-.42-274.76l-61.26-40.97c-38.33-25.63-35.47-20.94-51.99 31.41-21.37 67.71 8.51 78.54-81.48 166.98 26.33-106.08 83.96-110.71 6.88-227.7-53.23 30.25-39.4 58.32-62.73 117.36-52.56-10.98-46.9-1.56-71.8-46.88-.33-.61-15.76-36.01-15.85-36.22-107.5-241.76 483.41-846.84 676.87-536.51 47.57 76.29 98.49 247.02 102.2 336.04-37.34 31.21-67.67 34.02-94.8 59.28-26.54 24.71-35.31 55.25-71.31 89.08 24.6 73.36 16.34 9.03 27.34 60.25-51.17 39.09-49.55 21.33-55.3 75.42 76.13-3.7 84.83-83.44 159.9-96.75 86.78-15.39 49.3 4.93 65.31 14.09-66.04 51.51-209.99 74.71-226.72 207.8 95.62 2.84 146.53-195.36 270.85-122.01-27.25 29.73 4.39 9.65-46.84 36.66l-131.42 81.83c-54.69 42.51-106.28 93.17-135.58 154.55 59.15-10.98 140.82-95.07 199.21-144.58 56.77-48.12 168.39-111.73 205.95-17.53-53.26 26.12-36.2-38.06-131.44 37.45-50.63 40.13-62.41 89.17-54.95 150.26 89.27-29.54 93.99-131.8 230.13-108.41 2.15 11.47 38.68 6.05-29.4 51.61-24.22 16.21-55.89 27.42-82.68 42.16-59.01 32.49-83.89 80.76-97.66 136.42 114.72 1.3 370.82-42.82 434.08 77.41-71.96 36.28-279.85-53.57-402.11.82 25.04 26.05-6.19 18.11 48.68 24.8l228.96 10.88c106.56 18.32 167.3 26.44 176.85 140.92-93.06-24.93-301.25-156.11-381.14-107.16 97.93 75.97 393.48 77.47 375.55 238.4-76.58-22.05-153.24-84-240.08-115.11-64.05-22.93-84.52-31.36-136.04-13.98-47.09 15.9 14.28 11.27-63.44 6.82-68.34-3.92-34.23-19.23-79.22 12.76 64.45 48.8 253.37 68.5 277.21 156.09zm-1838.47-1539.71l80.06-47.92 55.29 48.1c-57.97 50.61-96.57 75.18-135.35-.18zm-225 17.17l27.5-141.74c31.57 58.8 38.95 111.08-27.5 141.74zm-82.38-8.08c7.01-59.04-1.23-56.94 39.2-58.15l-39.2 58.15zm211.28-33.77l-19.62-76.85c511.2-278.96 823.16 32.44 768.74 328.85-17.53 95.54-27 98.96-105.48 94.73l23.64-129.28c-76.32-122.53-94.2-235.66-242.61-289.15.74 76.4 165.52 106.9 170.1 287.82-76.79-30.51-29.46-39.43-73.33-80.22-32.71-30.42-45.51-15.76-94.19-69.27-60.07-66.05-131.3-72.88-206.77-108.74 70.68-48.65 170.83-59.89 210.83-108.35-62.23-41.61-168.21 33.45-237.84 53.51-56.74 16.36-28.44-28.85-91.38 38.05-43.24 45.98-33.35 55.26-102.09 58.9zm-41.58-152.04c38-38.52 109.98-55.73 163.34-79.94 74.63-33.85 123.73-77.61 172.52 2.71-61.43 24.61-281.84 114.4-335.86 77.23zm-707.77-260.77c111.83 22.03 139.23 32.69 263.34 40.89l39.19 54.83 77.76-5.72c15.68 174.79 26.57 139.43 133.2 263.16-95.52 186.9-299.28 227.51-395.43-113.41 41.28-64.88 32.04-9.62 44.32-84.11-125.38 30.11-216.23 9.51-162.38-155.64zm596.04 211.37c33.41-60.39 287.18-229.55 371.97-270.99 132.71 28.08 268.5 90.99 247.6 251.53-62.45-18.52-48.63-13.7-115.55-1.06l-28.94-83.04c-218.29-54.41-347.23 158.17-475.08 103.56zm-74.58-201.38l-83.59-39.45 3.8-93.35c80.88 24.31 29.05 9.85 31.14 50.74 1.74 34.16 25.71 53.03 48.65 82.06zm56.65-143.99c10.12-12.65 35.94-3.09 14.06 8.23-6.47 3.35-17.73-3.64-14.06-8.23zm-136.91-36.71l-34.48-60c70.63-74.39 209.79-41.62 237.92-26.22-49.21 103.2 16.53-2.72-68.09 53.25-36.9 24.4-20.63 31.87-59.34 65l12.93-112.2c-71.75 17.87-34.76 20.53-88.94 80.17zm777.93-469.29c23.93 49.04 275.54 124.24 55.98 208.72l-89.13-42.84c-58.88 29.7-78.87 16.47-100.6 77.04l-125.98-40.61c70.3-115.9 75.35-3.87 183.12-48.77-26.91-71.98-36.67-49.66-6.81-146.33l83.42-7.21zm-610.12 201.97l1.15 109.05c-113.12 31.09-78.3 14.47-154.43-69.52-61.61 100.99 28.14 32.81-69.94 124.95-49.54-53.92-80.25-37.4-64.27-131.5 14.6-85.84 51.5-72.51 119.11-91.26 6.54-66.19 8.57-121.27 45.9-181.32 4.43 11.09 85.55 106.94 99.32 122.18 35.02 38.71 82.54 59.85 97.4 120.39-48.26-62.74-79.04-36.68-146.42-32.96l-67.17-63.59c2.86 105.05 68.33 98.47 139.35 93.58zm-399.51-213.63c37.34 67.69 75.46 164.9 62.09 251.42l-42.85 12.46c-67.26-198.87-102.27-195.98-19.24-263.88zm-898.38 58.14c128 2.24 306.43-24.96 427.24 21.5 72.69 27.96 82.06 84.36 137.96 109.68 58.55 26.51 115.46-23.11 178.02-3.05l5.39 55.05c-47.1 21.68-401.4 60.72-452.75 39.92-123.24-49.93-257.24-103.06-295.86-223.1zm-169.42-54.51c192.92 18.96 62.93 123.01 348.58 268.8 325.39 166.08 365.42-42.43 500.45 46.52-241.65 14.6-177.38 198.71-503.17 7.87l-285.74-225.31c-45.19-44.12-64.21-19.07-60.12-97.88zm1924.35 90.21l-108.07-6.18c-10.83 73.43-8.15 65.83-57.55 119.71l-110.54-5.48c-10.64-52.33-13.79-105.03 7.48-142.45 28.15-49.57 30.76-7.01 59.99 15.5 26.65-13.68 49.44-29.09 71.47-53.87 45.19-50.82 17.26-43.05 41.32-93.16 84.55 25.39 62.1 41.59 122.11 102.7l-26.21 63.23zm-2143.04-141.34l155.01 37.7c49.82 130.19 90.09 166.38 203.76 246.04 95.13 66.67 171.47 131.84 276.9 180.17 298.01 136.6 428.96-180.28 720.77-98.63 21.34 25.38 78.77 131.08 93.52 167.15 34.96 85.47 27.55 144.86-18.8 218.31l-70.04-54.66c-89.73 5.07-186.95 8.71-258.4-48.88 54.66-33.68 96.68-39.98 94.21-99.47-17.33-.61-524.08 197.24-715.16-34.3-66.45-80.52-142.7-172.84-211.06-250.43-109.9-124.72-197.46-26.34-307.33-168.01l36.62-94.99zm2218.17 298.41c69.85-53.04 73.87-15.4 150.25 17.47 136.08-90.66 122.8-111.66 165.29-194.96 28.58-56.03 15.18-12.77 40.9-43.6 17.22-20.65 52.12-121.49 165.38-129.84 53.84 64.57 42.78 79.45 6.35 156.12l-110.44-26.7c13.24 93.21 111.41 212.55-68.49 286.71-83.56 34.44-307.5-1.86-349.24-65.2zm-2667.18-198.24l3.6-232.1 387.44 102.36-8.92 100.99c-74.41 6.04-335.06 45.75-382.12 28.75zm1074.94-48.19c86.74-18.31 137.43-24.36 219.28 13.65-38.96 21.74-170.28 1.11-219.28-13.65zm-165.32 2.68c-67.61 5.84-73.69 17.78-131.18-11.88 6.59-4.65-33.46-34.33 73.55-20.41 41.4 5.37 38.45 13.83 57.63 32.29zm1012.19 114.49l-92.75 19.03-44.85-158.88c30.37-37.3 123.22-114.69 152.52-130.9 28.29 132.41 10.64 142.68-14.92 270.75zm195.26-227.01c89.43 48.45 158.73 173.83 148.94 276.96-116.1-27.68-114.74-197.75-148.94-276.96zm1129.16-92.13l107.57 75.59c-53.65 47.05-94.78 25.65-149.32-8.48l41.75-67.11zm-730.39 17.09c79.8-15.57 72.54 1.64 129.11 45.12 66.5 51.1 70.25 26.31 55.76 102.86-79.83 3.88-182.35-62.66-184.87-147.98zm229.29 192.06l4.43-118.32c116.43-63.62 255.35-143.39 356.23-30.12-47 114.59-125.47-87.33-276.68 7.26 82.83 41.51 192.8-3.47 170.92 96.17-55.77 3.28-110.78-57.18-191.05-27.29 48.43 57.93 71.92 14.82 145.58 72.98l-19.68 68.45c-94.53-43.29-49.02-65.17-189.75-69.13zm355.73-231.04c68.22 14.71 43.75-4.7 48.08 57.51-99-44.76-32.75-39.35-48.08-57.51zm278.88-30.31c36.6 66.1 48.03 16.67 102.83 71.88-44.82 20.59-57.18 19.54-110.16 6.61-92.23-22.52-93.66-26.75-81.35-112.44l138.28-7.85 7.71-83.3 155.37-76.03-.14 107.33c66.33 45.76 59.91 6.44 88.51 72.36-66.79 153.19-192.94-30.32-301.05 21.44zm-1989.16-204.3c79.46 88.52 48.31 167.84 118.2 240.67 45.13-73.49-7.81-41.13 9.97-148.02 117.91 28.44 116.22 123.46 119.94 218.22 1.54 39.1-7.19 45.19 32.12 46.66 32.18 1.22 6.92-9.86 62.41-17.56l24.41 59.24c-180.73 98.19-111.97 159.01-77.44 245.72 28.2 70.83 2.94 61.04-47.46 66.42 18.11-116.96 17.82-38.22-34.5-121.32 14.02-55.23 37.25-153 10.9-193.58-73.61 50.2 13.33 210.68-155.98 209.14-99.16-.91-112.78-130.85-153.76-210.65 15.43-71.35 26.76-136.47 25.32-208.99-2.08-104.93-36.12-120.87 65.87-185.95zm1652.32 179.54c-3.8 33.48-.58 19.79 48.13 55.9-59.44-2.87-71.66 5.05-115.44-19.78l-17.44-63.2c181.39.39 74.97 12.67 158.75-63.49l120.88 35.95 4.78 94.46c-97.2 25.65-102.17-75.22-199.66-39.84zm-1397.77-173.78c59.62 122.88 141.52 140.73 231.32 265.86-46.62 80.66-83.79 106.35-111.75 44.9-19.18-42.17.16-45.65-46.16-35.87-36.3 7.68-25.03 8.57-28.16-28.38-10.3-121.48-84.4-113.88-45.25-246.51zm1996.49 4.11c85.87.5 151.86 15.85 201.65 83.22 16.72 22.63 10.2 11.06 17.71 37.17-65.7 11.09-149.79-6.58-209.86-37.37l-9.5-83.02zm-862.04 33.74c-47.21 41.95-16.37-.03-25.32 42.42 95.48 74.01 131.05 8.85 172.68 96.35-75.95 112.21-140.86 23.69-226.71 23.72 23.73 67.52 44.41 14.26 38.99 92.37-146.32-11.38-41.54-175.18-7.75-252.46l48.11-2.4zm607.89 73.64c-84.18 14.47-92.91 22.09-154.59-31.27-107.58-93.09-100.17 23.37-124.1-86.03 86.35-12.05 105.94-26.07 183.31 7.08 88 37.71 105.88 16.94 95.38 110.22zm-747.82-.54c-54.07-59.97-45.52-90.64-22.87-165.78 66.69-6.4 79.16-14.35 131.09 17.77-41.19 77.13-11.29 1.15-64.05 69.71-20.61 26.79-12.32 37.72-44.17 78.3zm1148-163.54c98.25-16.26 199.5-23.67 250.81 70.16-53.56 43.7-71.84 37.41-147.52 41.36-85.9-75.09-62.41-19.95-103.29-111.52zm-481.83-.53c27.75-53.13 31.51-74.77 82.63-99.12 3.93 7.08 21.94 48.89 46.84 84.09 26.02 36.77 58.88 66.86 58.61 67-87.41 47.74-118.17-5.43-188.08-51.97zm-2046.18 190.79c-43.72-58.59-10.21-32.71-26.21-78.66-14.81-42.56-21.82-28.23-46.4-63.8 113.55-153.48 258.55-147.91 337.69 26.46-96.32 6.63-81.73-24.01-141.33-93.28-25.6 30.87-56.83 52.27-77.95 81.33-54.15 74.52-5.66 63.02-45.8 127.95zm2710.73-238.9c96.69-15.13 206.34-65.95 223.98 66.34-93.85 72.45-116.87-5.41-160.78-34.76-24.85-16.61-36.93-14.4-63.2-31.58zm-1184.81-76.07c8.47 7.55 25.88 3.26 31.45 39.98 13.63 89.83 1.23 26.8-16 57.48-52.44-33.37-58.71-39.38-15.45-97.46zm657.99 35.82c91.26-30.56 77.51 12.05 165.81-35.97 60.06 82.04 113.48 78.01 122.99 145.35-237.32-4.35-230.64-28.69-288.8-109.38zm-663.97 179.33l13.77-77.07 93-6.13-31.12-104.85 289.61-116.56c63.57 32.87 115.26 69.87 159.54 125.18-49.95 101.34-110.44 80.71-216.56 86.21-66.86-55.5-50.6-59.89-162.15-79.79 6.47 64.2 73.78 102.99 134.64 119.6l-10.32 121.82c-106.92-22.55-103.89-8.72-183.74-79.97l-86.67 11.56zm-1327.48-204.63c45.13-62.15 34.79-24.86 106.03-33.61 108.77-13.38 9.3-37.01 126.42 19.27 295.53-106.78 292.86 304.11 327.92 402.44 39.78 111.54 64.41 17.33 62.68 200.71-179.06-118.16-149.99-429.9-317.16-560.22-2.33 115.04 107.04 191.82 101.65 318.51-123.65-60.6-232.22-293.39-295.02-319.47l17.79 119.41c-67.76-46.27-26.29-27.34-53.57-69.78-56.52-87.95-25.1 32.32-76.74-77.26zm2636.8-27.72l63.49-53.56c88.07 45.96 123.74 18.7 128.24 106.88-89.72 41.03-136.06-3.8-191.73-53.32zm-469.93-17.67c67.01-68.05 14.39-69.71 132.71-54.21 61.16 81.11 106.58 118.19 115.76 153.43-86.16 51.31-203.72-41.32-248.47-99.22zm-1148.65-17.67l41.98-53.45 34.97 104.35c193.77 60.43 138.05-28.01 180.42 56.97-54.34 41.15-50.3 22.76-127.5 7.2l-42.29 55.77c-51.63-49.5-66.66-103.29-87.58-170.84zm1318.58-53.02l39.63-26.28c37.57 35.1 33.85 51.04 57.71 85.34 38.79 55.77 50.58 31.7 97.17 80.99-92.54-1.06-154.37-66.95-194.51-140.05zm358.82-17.67c60.96-73.76 120.27-68.34 190.28-19.23l-29.29 64.85c-58.13 11.37-114.54-7.13-160.99-45.62zm-273.23-17.67c68.04-53.32 203.52-27.37 213.75 69.77-76.99 77.25-183.76 5.06-213.75-69.77zm-528.47-33.93c49.81-2.71 207.98 60.95 245.02 105.43-76.23 150.44-404.06-30.3-404.24-30.34 70.42-164.43 242.86-130.51 282.78-131.34 113.25-2.32 311.97-71.28 404.83-17.74-.38 80.15 2.88 44.38-92.25 84.63-177.35 75.06-289.51-19.04-360.74-39.02-123.18-34.56-52.64-1.12-75.4 28.38zm571.21-81.3l241.6-10.64c18.03 87.78-11.29 107.54-94.79 80.55-101.59-32.86-111.2 1.66-146.81-69.91zm-659.97-76.63l12.63 84.42c-81.22 94.59-290.09 191.78-412.57 228.25-2.9-155.81 7.13-141.84-53.92-148.93 174.13-145.88 303.9-68.41 453.86-163.74zm942.81 50.47c70.77-36.93 63.1-25.5 143.54-7.35l-9.79 73.68c-68.2-8.78-104.09 3.92-133.75-66.33zm-1492.36 124.08c.11.07 237.13 75.72 28.17 133.43-109.28 30.17-163.43-19.6-194.56-114.68 37.85-60.42 351.63-369.78 387.6-195.69-9.63 83.19-22.95 50.59-104.18 96.06-43.6 24.4-80.39 47-117.03 80.88zm1148.98-144.33c22.96-159.99 257.52-163.42 351.46-68.11-39.7 67.39-270.63 82.55-351.46 68.11zm-599.43-30.22c67.38-76.41 175.75-66.88 271.89-86.26 144.42-29.13 146.8-52.46 278.59 14.57l-4.96 95.71c-377.93 33.4-304.93 90.92-545.52-24.02zm-368.2-103.37c159.71-85.38 256.34-147.26 432.42-71.17 3.78 94.35-98.7 147.93-182.6 175.32-189.15 61.71-113.59-20.48-241.2-97.77-1.66-1.01-5.86-4.1-8.62-6.38zm1215.2-69.75c-151.44 33.56-90.59-48.78-234.53 77.11-60.8-60.94-60.22-34.85-117.5-59.84 148.16-49.12 58.68-132.4 317.18-111.5 37.01 33.18 61.36 46.38 34.85 94.23zm-735.77 67.6l22.82-89.18-56.69-22.62-77.36-30.85c131.31-93.09 442.7-114.44 596.94-46.92-123 133.12-268.42 179.25-485.71 189.57zm465.46-248.56c65.34-61.14 267.91-154.68 255.19 8.96-97.3 32.04-159.16 33.86-255.19-8.96zm-182.04-37.34c27.17-68.13 38.45-57.92 185.12-107.96 98.18-33.49 123.48-43.34 200.11 17.18-374.98 34.53-28.75 130.27-385.23 90.78zm437.11-68.36c64.49-64.71 45.09-88.05 138.59-87.62-7.53 56.56-31.94 142.86-3.43 199.46 20.06 39.81 75.66 59.54 107.26 98.67l-40.22 97.49c42.29 81.1 48.3 32.85 46.63 135.95-166.21 13.37 10.54-68.73-205.49-120.39l46.99-103.04-55.01-56.96 23.86-115.87-59.18-47.69zm-45.27-203.32c45.13 55.62 7.72 56.82 86.59 83.73l-53.7 53.88c-64.68-10.23-83.59-20.4-132.07-59.87 23.11-60.2 30.35-69.62 99.18-77.74zm-122.21 18.78l-24.06 77.98-128.26-11.52 152.32-66.46zm320.29-87.85l114.43 1.65c2.54 103.2-20.63 114.98-121.05 101.12l6.62-102.77zm-52.5 12.98l-2.18 74.85c-60.21 12.1-70.71 3.08-112.8-55.01l114.98-19.84zm-1992.76 1583.28l-77.04-91.02c213.64-563.06-305.1-597.46-65.55-831.31 68.82 15.89 19.75 13.05 69.52 25.44 84.69 21.06 32.36 6.46 64.13-8.69-40.23-62.85-24.07-10.49-72.91-71.39-2.08-132.36 147.32-145.39 256.29-133.09l29.92 61.48c1.82 3.56 4.94 9.81 7.89 14.43l33.68-100.91c-102.05-59.9-105.68-9.16-174.08-40.83 52.71-49.81 887.59-497.8 953.54-506.34 66.71 34.41 47.66 63.05 124.05 79.8 74.92 16.42 99.61-14.02 166.79 37.49-48.24 52.69-206.13 78.9-286.91 100.64-115.05 30.95-185.24 62.49-286.84 118.91-350.5 194.63-189.11 94.6-490.94 339.11-41.43 33.58-65.31 69.89-110.45 89.33-219.87 94.69-113.78 117.4-15.3 351.21 111.87 265.6 70.15 374.03-125.79 565.74zm415.36-138.8l-120.38 3.68c-51.12 82.64 23.86 41.38-63.67 119.37l-5.77 117.53-57.25-71.54-67.99 74.65c-113.25-93.44-4.57-140.28 41.48-193.38 226.43-261.15-65.9-609.55-90.53-703.67l53.32-74.61c81.28 34.5 44.79 62.84 125.25 66.38-.22-78.58 1.41-15.39-50.9-83.91 398.25-375 543.52-421.38 994.75-574.68 211.33-71.8 1141.65-399.34 1286.69-220.57-55.4 70.33-128.16 37.9-216.26 35.94-66.66-1.48-160.69 6.07-229.11 11.04-141.46 10.27-258.1 57.21-383.59 116.6-159.45 75.47-161.42 118.32-279.65 212.17-106.85 84.81-218.56 109.21-343.4 154.32-261.41 94.46-422.18 168.13-621.01 369.19-103.07 104.21-198.54 140.21-130.16 308.68 33.08 81.49 75.61 78.63 90.81 158.86 20.7 109.28 72.55 117.61 67.37 173.95zm789.78-1573.72c21.64-6.24 53.4-9.02 77.24-12.95 180.2-29.69 289.56-18.87 453.41 35.6l-354.1 111.46c-116.95-120.23-114.32-18.48-231.82-101.59 8.41-7.85 5.2-11.81 28.9-23.32 2.05-.99 23.11-8.27 26.37-9.2zm-1329.45 1586.99c-68.62-83.29-26.36-289.74-127.96-397.87-82.89-88.22-163.27-95.35-261.04-63.34l-52.31-49.38c-78.77 36.09-101.71 30.68-176.5 30.57l-44.38 90.55c-93.49 1.26-93.68-13.99-167.77 36.84-44.29 30.37-82.06 65.74-105.67 105.76 84.05 124.53 41.5 21 75.57 172.94l71.63 34.69-25.09 202.68c-238.06 27.47-729.38-29.27-980.78-96.18-91.86-24.45-209.77-70.23-289.52-83.66-47.32 80.87-39.81 257.17-15 348.76 89.86 5.38 183.02-59.66 417.76-44.83 94.46 117.74 132.63 95.21 265.28 124.79 50.42 87.54 207.55 256.59 283.69 334 114.21 116.12 384.01 79.87 534.06 83.02 4.22 153.63-47.23 179.18 126.05 268.65 28.04 184.04-27.98 294.92-22.27 462.56l250.22-13.89c57.64 55.76 64.22 92.13 65.07 166.69-132.69 164.91-158.26 225.51-152.02 443.63 6.69 233.48 180.24 454.54 348.18 570.72 34.86 24.13 57.74 22.27 90.49 50.69 47.11 40.88 18.67 44.91 69.11 89.1 109.46 95.92 237.83 181.23 303.86 313.33 291.91 583.99-94.04 612.15-204.17 772.99-172.09 251.3 109.63 432.28 311.11 514.69 77.9 31.86 169.11 41.71 240.77 81.77 113.78 207.76 99.61 333.02-30.53 526.08-128.92 191.25-168.91 370.63-162.33 600.82 6.44 225.11 138.18 317 307.77 433.47 176.53 121.23 389.26-66.73 458.45-222.46-6.82-183.78-34.79-108.64-78.53-213.53l98.27-51.03c12.09-117.65 40.74-85.5 54.06-179.67l-78.89-80.75c35.62-74.83 87.04-62.57 73.41-135.36-57.32-5.35-34.21 24.52-82.64 42.51l27.11-132.95c-89.76 19.83-47.72 111-96.64 177.45l-48.56-1.31 32.52-168.82c119.34-67.04 485.11-177.58 369.01-433.83-63.01-139.05-97.19-78.18-282.01-300.61-155.02-186.57-175.41-140.81-388.44-476.55 46.01-146.23 28 14.2 87.22-249.53 184.52 34.54 287.41 219.75 373.01 354.08l145.89 224.16c33 50.37 54.43 66.74 81.79 113.74 42.46 72.94 23.28 56.43 115.32 87.97 88.78-62.89 90.99-87.02 198.39-146.04 55.74-30.63 160.54-101.3 212.97-141.62 15.16-36.4 38.85-240.26 39.67-286.97 2.66-150.04-76.12-170.2-49.59-300.96-76.16-114.35-32.99-116.84-94.28-221.61l41.36-24.21c65.7-283.02 260.81-157.44 274.77-584.06 4.08-124.7-14.55-142.55-53.9-250.18-21.88-59.86-41.63-167.95-71.87-215.83-25.98-41.12-124.7-108.12-156.05-142.9-285.93-317.01-147.74-366.41-234.17-594.95-56.48-149.37-74.58-285.32-251.7-309.7-173.57-23.89-408.7 183.11-511.76 362.75-93.73 163.37-54.35 304.02-194.33 384.7-71.58-53.52-214.79-361.17-370.39-479.39 59.11-74.39 8.18-37.42 38.09-111.75 210.71 191.29 144.34 150.55 182.4 277.14l145.17-2.16c45.89-110.02 74.41-173.17 32.87-301.29-29.67-91.52-74.57-178.99-156.78-234.69-219.61-148.78-4.17-117.85-257.26-325.11-47.9-39.22-91.97-33.3-160.61-41.36-70.29 15.26-401.5 282.61-439.65 293.39-61.94 17.51-69 1.55-77.86-2.66l-13.88-159.52c87.02 17.63 88.18 24.92 150.3 5.69 38.48-11.91 45.55-20.51 7.62-57.49-14.29-13.95-17.83 7.58-63.94-44.09 79.91-52.54 56.72 12.36 140.69 21.08 49.68 5.16 29.16-6.92 7.19-40.55l-29.73-45.49c59.25-90.52 75.11 5.4 48.09-153.84l-17.16-101.16c252.57-86.18 514.17 122.17 823.98 101.52 153.73-115.37 121.59-60.65 168.56-261.2l66.07-32.9 14.74-111.82c77.84-21.48 172.23-71.41 245.88-108.84 119.26-60.61 138.07 19.43 246.1-130.64 120.48 10.8 76.54 17.83 170.48-44.89 76.24-50.92 145.33-68.16 235.69-89.28 65.18-15.24 52.35-3.73 67.89-69.02l10.54-44.23 31.46-12.76c54.06-21.92 40.71-13.24 54.51-70.83 55.82-232.72 52.14-37.31 56.17-226.84 3.31-155.51 26.76-130.93-49.14-287.59 42.09-60.36 44.32-45.79 49.69-123.68-63.6-41.63-60.2-2.82-129.22-74.24-8.99-75-13.88-154.33 48.19-206.89 108.86-92.17 67.07-14 106.71-155.78 96.06-24.69 175.86 12.87 250.69-23.36 60.51-29.3 69.71-48.63 25.13-96.7-118.75-128-384.56-55.41-545.64-26.82-191.44 33.97-419.79-108.51-783.01-7.86-96.95 26.87-156.65 8.52-221.08 43.32l-773.73 411.61c-136.04 61.93-82.96 54.59-164.18 137.38-23.64 24.08-54.36 33.91-82.26 58.19-67.7 58.93-29.82 54.74-55.95 106.91-26.16 52.24-226.51 79.16-19.21 396.41 91.3 139.73 139.72 313.82 32.64 461.51zm3951.96-3215.44l109.37 62.37c-.26 41.43-346.93 900.55-391.11 971.78-75.11 14.73-53.18-14.66-135.33-23.3l-47.79 122.47c83.49 46.69 488.69 211.48 566.5 218.25l36.97-110.26c-49.2-40.17-42.36-17.93-72.07-54.35 54.51-122.98 75.5-243.85 188.48-300.33 104.05-52.03 239.04-145.71 346.14-175.15L24359 3353.3l-99.41-10.93-56.06 129.41c178.77 31.63 406.48 191.62 584.98 209.98 1.82-66.17 22.09-50.21 24.13-134.18l-101.15-40.01 405.19-987.3 115.8 46.45c29.88-54.18 27.18-72.65 26.63-129.54-52.1-41.12-446.57-203-523.54-224.19-37.83 50.95-44.82 67.38-54.5 133.15 67.82 22.57 37.23-.66 75.89 47.93-78.08 171.08-30.68 128.88-198.13 222.15-75.71 42.17-212.11 126.83-286.62 145.55l209.32-504.67 79.72 27.11 53.97-105.06c-31.65-35.92 8.45-11.29-55.91-42.3-21.59-10.4-50.88-21.12-75.06-31.05-117.37-48.21-346.38-167.38-437.89-163.74l-42.75 107.89zM13226.22 709.08l12.76 116.28 94.48 1.79 22.6 192.28c-63.87 93.01-174.78 310.75-248.82 368.24l-79.09-516.38 90.62-27.71-25.33-118.37c-60.63-5.39-519.58 37.99-596.62 87.55l11.79 107.99 142.1-3.34 140.46 1061.3-120.67 22.34c5.69 97.02-26.6 65.27 30.19 128.4l573.33-71.15-12.09-127.1-88.28-12.65c-29.35-175.08-70.57-238 20.61-383.75 29.93-47.84 180.93-279.3 187.72-305.42l93.41 661.81-82.6 13.45 8.9 132.17c61.24-3.98 529.26-52.22 597.34-91.75.68-119.97-41.51-119.82-143.32-102.07l-145.52-1074.27 123.76-18.58-20.31-129.22c-111.37 3.15-505.07 41.64-587.42 88.16zm9349.12 865.13l111.72 40.62c-5.79 109.92-119.57 385.1-160.94 503.47-59.34 169.77-109.9 348.84-173.58 511.85l-133.88-32.15-38.27 122.26 574.88 199.29 42.79-124.76-75.97-53.97 169.5-502.56 286.1 92.11-163.14 507.38-96.34-8.33-47.96 137.36c284.78 19.5 586.64 322.65 612.55 53.47l-104.66-46.73 335.63-1020.01 129.89 41.08 28.38-135.58-574.54-192.55-40.61 140.87 85.56 30.32-111.01 352.87c-73.94-2.11-215.06-60.79-289.26-85.26l114.66-361.54 95.46 15.69 29.4-126.86-564.28-192.56c-34.65 55.69-40.45 62.88-42.08 134.22zM8394.4 1891.64l33.25 123.72c70.01 2.97 53.38-7.31 119.89-26.11 39.36 35.92 344.85 926.03 352.96 1022.79l-99.51 28.59c.45 64.58-2.67 76.74 29.56 129.07l562-183.33-30.42-120.81-87.62 7.5-341.05-1004.68c49.6-40.14 222.58-91.68 285.49-97.79l341.49 1011.12-77.65 40.92 26.05 100.78c90.57 18.02 138.65-26.26 293.89-75.25 90.72-28.63 186.77-75.86 283.3-91.18-8.64-77.86-2.19-71.52-59.56-119.81l-99.09 19.98-342.54-1010.39 112.42-50.44-46.04-127.82-1256.82 423.14zM18570.22 755.2l106.27 22.12 238.12 590.54c-99.06 132.71-213.27 346.69-323.54 422.97-92.01 63.64-79.35 25.68-173.57 40.03l-16.91 131.96c114.51 31 364.59 67.62 477.57 60.28l12.43-131.83-94.07-32.05c48.41-136.66 147.65-225 188.67-309.72l166.17 375.02-130.25-11.57-27.58 127.14 684.01 97.82c40.68-54.81 42.79-70.04 35.45-131.03l-131.54-28.83-300.7-739.65c185.24-304.54 229.99-107.48 417.6-92.84 7.93-10.27 121.06-253.64 123.31-262.71-61.46-134.39-228.85-172.37-358.92-96.31-140.88 82.39-151.91 156.98-256.94 252.21l-97.1-192.05 79.09-14.21 6.85-130.45c-109.71-21.74-168.47-13.03-283.3-43.24-73.92-19.44-221.18-27.62-301.23-33.1-38.61 50.85-43.32 61.03-39.89 129.5zM8519.71 2622.45c-59.67-4.03-413.24 150.63-478.28 192.25 66.3 198.42 67.17 25.65 116.38 171.49 49 145.22 50.55 332.37-82.13 412.08-58.69-136.73-84.64-203.84-165.06-338-66.13-110.32-132.5-199.83-192.77-319.46-213.83-424.48 87.8-576.56 225.17-275.95-15.83 65.46-44.41 65.81 23.25 160.06 134.44-34.15 351.68-126.15 469.81-191.51l-25.25-102.49-106.82-13.89c-55.47-92.61-37.29-114.19-148.54-160.65-474.21-198.01-1193.5 402.61-708.79 1011.71 67.59 84.96 273.68 161.79 372.26 231.43 89.43 63.17 77.42 132.68 179.36 127.57 216.9-10.85 418.74-226.37 500.98-414.62 45.88-105.05 77.17-409.26 20.43-490.02zm3958.11-1091.09l-499.42 89.31 15.89 118.27c61.14 27.32 58.46 6.88 67.3 100.85 15 159.47-13.91 285.29-152.12 374.16-30.25-50.86-29.69-131.6-45.98-187.94-18.27-63.19-45.76-114.37-69.57-179.76-58.14-159.81-266.34-611.9-86.37-736 150.42-103.73 207.18 77.39 242.91 166.07-26.14 66.32-70.53 23.16-14.78 148.98 101.15 22.95 385.91-69.13 512.57-86.15l-21.27-109.09-101.66-41.75c-.05-.05-18.82-232.39-339.28-264.13-513.71-50.9-950.57 438.63-641.57 960.45 51.07 86.25 227.1 218.18 310.11 293.76 24.78 22.58 112.4 274.3 411.24 86.86 203.12-127.4 380.18-261.97 401.87-515.99 8.09-94.63 54.57-150.66 10.13-217.9zm3841.89 310.69c330.73 122.87 739.46-102.97 821.01-390.14 32.01-112.71 27.19-43.99 77.04-124.74l-42.39-104.45-480.15-7.7-12.93 120.95 53.22 36.3c-2.7 175.23-68.62 373.48-252 402.77 41.14-306-197.27-1049.49 67.04-1119.42 154.18-40.79 185.92 112.15 194.17 228.14-66.3 43.15-65.48 40.41-55.61 143.45 96.75 15.74 446.92 26.88 527.9-2.02l3.49-88.07c-119.83-135.14-71.98 17.72-103.4-207.05-104-89.8-59.42-96.56-206.06-170.52-230.92-116.46-658.49-55.31-826.88 208.58-103.61 162.39-132.54 420.63-48.86 596.72 105.04 221.02 155.26 115.51 284.41 477.2zm-5895.37-149.58c55.56 94.26 157.06 216.82 134.44 334.1-83.56 433.01-329.87 498.12-246.77.09 8.56-51.31 32.04-131.93 48.11-181.38 19.43-59.78 67.36-126.57 64.22-152.81zm-282.36-358.9l8.09 120.35c67.3 5.24 59.86-.44 122.01-12.83 108.48 182.35-273.05 638.15-160.97 1080.32 24.9 98.23 55.17 144.45 164.23 173.66 321.71 86.15 399.41-343.44 438.4-563.57l154.94 263.53-77.27 20.74 14.8 131.33c116.67-11.45 497.52-99.63 576.56-161.15-22.25-96.91-53.98-106.01-140.26-89.95-17.43-55.95-559.39-941.52-578.82-957.12l92.33-28.51-34.58-124.93-579.46 148.13zm11531.63 300.6c-3.01 69.98 6.7 194.58-1.92 254.44-9.42 65.53-312.65 395.99-407.62 280.65-76.51-92.92 243.34-464.48 409.54-535.09zm-128.84-339.44l116.41 32.62c4.7 138.07-245.51 293.76-339.94 383.47-641.34 609.32-232.32 833.96-38.72 776.88 196.24-57.86 283.59-193.6 411.46-328.05l7.6 284.58-98.39-5.95-34.99 123.71 549.1 148.11c47.34-66.1 48.69-56.25 57.21-134.89l-92.31-33.08-35.57-1103.36 103.43 7.1 19.39-119.79c-113.96-53.93-433.49-120.16-580.2-155.78l-44.48 124.43zm-3562.16 361.58c-44.22-61.38-4.03-32.53-145.25-218.53-68.92-90.76-449.69-479.48-78.35-605.96 32 33.73 92.39 153.4 136.95 210.46 53.08 67.97 106.53 129.88 158.27 196.49 125.56 161.67 161.71 337.82-71.62 417.54zm-82.05-1125.8c-229.86 116.57-565.14 432.89-586.11 705.96-28.32 369.12 165.54 468.1 327.55 643.86 56.44 61.23 112.58 133.88 201.16 102.95 117.61-41.08 268.71-194.79 359.81-279.95 147.51-137.92 207.11-223.13 235.68-429.9 38.28-276.93-152.93-437.61-342.5-642.44-60.72-65.6-108.91-144.44-195.59-100.48zm2517.59 971.04c21.62-99.55 65.08-325.66 118.76-408.58l106.09 14.35c64.04 96.68 12.14 299.75-44.35 392.55l-180.5 1.68zm-505.28 535.65l-128.29-10.05-29.43 123.57c115.41 39.4 562.64 140.65 648.61 119.91l8.22-126.66-108.43-21.36c-5.96-95.39 31.44-194.44 50.51-287.55 32.78-160.02-8.59-115.74 134.04-201.42 538.52 413.86 931.84-550.69 166.73-680.42-543.65-92.19-501.6-25.07-573.36 294.31-28.31 126.01-55.55 262.93-81.04 394.56-20.57 106.23-51.61 303.81-87.56 395.11zm-3178.4 11918.22c-159.41-102.57-361.96-162.37-427.56-361.6-88.47-268.68 102.49-811.61-156.62-1028.04-148.34 199.66-135 563.56-138.54 855.36-2.7 222.28-40.62 268.37-241.51 410.9-44.95 31.9-131.21 77.41-197.43 114.88-95.26 53.91-123.33 127.39-.31 174.26 114.33 43.55 317.64-9.52 393.45-61.02 8.54 97.69-69.85 151.37-6.09 249.52 160.49 247.06 250.12 270.17 390.82-4.62 55.69-108.79 13.09-125.12-.13-223.33 80.35 53.22 234.55 86.24 348.03 52.98 121.36-35.58 141.83-111.11 35.89-179.29zM15032 1162.65l-188.59 127.63c-21.04-106.56 34.91-208.7-.76-303.38-72.8-38.38-128.97-13.51-218.37-17.53-135.31 156.77-121.88 118.58-95.68 453.59 10.33 132.07-5.89 392.02 96.95 479.47 69.6 13.78 197.56 2.6 244.61-45.02 50.13-123.68-29.58-275.8-22.45-404.66 63.14-38.47 147.42-110.79 207.32-128.3-4 141.2-2.4 467.28 101.13 557.08 75.85 10.39 141.14-6.56 215.63-18.91 35.36-76.17 14.1-332.82 6.33-413.79-15.63-162.8-6.57-304.41-12.26-452.96l-50.92-60.07c-41.16.44-188.22 10.09-221.86 26.46-62.89 30.61-52.11 139.87-61.08 200.39zm1213.19 7547.99c-18.84-134.32 111.24-591.32-112.59-560.77-194.79 26.6-121.12 428.44-117.57 566.56-253.54-14.45-327.76-52.28-540.71 66.73l1.51 117.21c244.38 68.29 292.23 33.91 538.94 35.1l-3.18 461.48c51.77 66.71 88.28 83.31 168.52 76.82 124.95-131.79 46.27-341.7 55.03-531.52 392.58-28.09 335.7 68.35 613.21-103.25-96.09-248.37-373.88-111.11-603.16-128.36zm-4073.89-694.35l54.59-76.89zm9515.21 2000.97l-15.6 145.37z"/></g></g></g></svg>