<svg xmlns="http://www.w3.org/2000/svg" width="320mm" height="150mm" viewBox="0 0 32000 15000" shape-rendering="geometricPrecision" text-rendering="geometricPrecision" image-rendering="optimizeQuality" fill-rule="evenodd" clip-rule="evenodd"><path d="M14250.1 8650.2c22.44 15 9.95 3.09 20.11 26.3l57.11 141.84c.58 1.65.94 3.48 1.52 5.13l14.45 31.99c.65 1.39 1.54 3.03 2.17 4.45l59.94 192.04c5.81 21.7 7.69 18.38 13.56 32.88 12.64 31.17 3.16 33.24 19.47 73.39 26.41 65.07 10.31 27.93 21.02 78.47l18.61 74.2c6.59 26 6.75 2.67 10.6 35.81 2.62 22.2 2.85 164.59-.18 185.26-6.84 46.8-3.77-3.29-11.57 34.84-3.07 15.05-.06 29.84-1.6 44.79-3.59 34.31-4.06 9-10.63 35.8-2.93 11.86-3.43 28.35-5.1 41.33-.73 5.66-5.16 33.32-7.07 39.34-7.27 22.41-8.35 12.75-14.76 31.67-5.34 15.71-14.84 67.04-15.26 84.26-20.63-5.5-22.64-14.34-32.72-66.72-1.52-7.82-.76-8.11-2.93-16.96l-17.43-62.19c-7.12-24.37-12.33-56.72-19.08-80.41-3.43-12.09-6.86-30.23-11.44-42.06-25.84-66.95-4.11-30.15-20.44-78.39l-22.64-70.36c-13.93-58.19 6.98-14.95-23.61-75.88-9.06-18.03-7.39-18.98-12.8-40.28-5.53-21.73-7.38-22.67-12.54-40.49-5.55-18.98-5.71-24.16-11.54-41.52l-55.49-163.38c-5-14.55-2.6-5.78-7.28-19.26-28.61-82.84-59.36-93.97-22.96-144.75 15.66-21.85 8.98-2.88 18.06-35.15 2.52-8.87 2.47-12.88 5.48-21.07.57-1.54 1.28-3.27 1.91-4.74.6-1.44 1.44-3.11 2.12-4.5l21.33-45.05c14.37-34.83 11.54-6.33 23.42-51.4l15.97-48.4c5.08-13.66 8.8-26.04 12.22-40.83zm-221.98-8164.32c-37.25 2.67-69 7.12-88.99 13.92-1.58.55-3.28 1.28-4.85 1.83-1.59.53-3.32 1.18-4.89 1.71l-85.09 20.99c-41.99 7.14-14.01 2.25-40.42 19.29-34.84 22.51-30.02-8.85-83.15 36.17l-89.42 49.89c-33.13 12.69 28.8-9.58-10.34 2.9-26.14 8.33-36.17 23.75-53.37 39.48-14.63 13.32-37.35 16.85-55.67 30.54-1.1.84-2.56 2.12-3.64 2.96l-99.15 86.53c-6.54 8.56-1.02 18.77-14.39 18.77-15.58 0-17.67-2.43-27.33-5.81-62.58-21.91-79.31-30.89-152.07-33.61-70.67-2.64-29.63-36.33-75.1-9.53l-8.37 4.87c-47.9 20.1-138.49-9.68-186.76 25.47l-11.88 8.11c-1.31.76-3.17 1.47-4.58 2.18-59.86 30.49-25.23 8.32-57.74 8.32-17.98 0-30.63 17.98-44.97 28.01-1.15.81-2.75 1.88-3.9 2.67-1.67 1.1-6.46 4.11-8.17 5.15-42.43 26.36-56.56 13.01-92.26 46.99-41.2 39.23-55.18 33.71-92.11 60.56-24.94 18.17-8.4 23.77-33.9 34.21-6.36 2.62-20.12 8.75-25.31 12.23l-45.15 34.73c-18.87 16.54-9.81-2.12-12.3 27.48-31.04 2.59-48.16 30.1-68.24 51.15-17.19 18.06-19.05 30.44-34.6 51.56-18.22 24.79-37.19 26.88-53.39 52.74-18.75 30.03-48.92 49.32-75.57 70.31-24.37 19.16-3.82 3.32-19.63 26.78l-37.51 48.73c-13.14 15.68-31.72 20.23-47.01 39.19l-52.37 67c-16.21 19.11-7.52 8.72-23.46 22.93l-19.97 19.81c-12.48 13.82-9.5 12.36-20.28 26.15l-6 7.25c-.91 1.05-2.22 2.49-3.14 3.51-3.01 3.51-7.85 9.06-9.24 10.65l-57.08 68.9c-29.87 36.53-70.78 57.81-93.55 98.78-27.01 48.6-85.64 106.58-127.29 144.61-20.28 18.51-5.39-1.59-20.07 26.39-17.72 33.84-65.57 80.9-92.61 112.94-8.9 10.57-11.93 16.75-19.81 26.59-13.69 17.12-27.3 27.25-42.72 43.48l-36.12 50.1c-17.69 19.94-17.09 28.24-34 45.62l-89.47 169.14c-20.39 66.06-17.56 30.78-43.21 129.22-3.64 13.98-4.03 15.94-8.14 31.67-4.55 17.62-8.25 22.51-10.68 35.73-2.64 14.21-.84 23.24-3.01 36.75-5.55 34.34-12.17 8.43-12.17 34.26v258.68c0 24.56 8.48 22.51 13.01 53.27l74.07 303.94c.55 1.65 1.23 3.27 1.7 4.94.53 1.68 1.1 3.38 1.57 5.11.47 1.75.84 3.51 1.29 5.31l40.07 152.23c5.52 17.23-.34-5.47 5.16 14.79 2.12 7.83 1.83 8.72 3.32 16.57 2.33 12.48 1.78 14.87 5.73 27.4l36.23 131.53c3.74 15.76 2.56 6.89 9.37 21.36 15.47 32.87 19.13 78.84 33.03 113.36l81.85 259.39c.36 1.68.94 6.26 1.33 7.85 5.94 22.7 10.92 14.82 18.72 41.93l23.16 76.41c.79 1.96 3.12 7.41 3.85 9.39 11.07 30.05 15.68 60.23 30.7 88.68 6.86 12.99.68-.36 7.36 12.54l24.78 48.19c37.93 58.37 77.72 126.08 97.35 194.45 22.53 78.52 24.89 384.29-63.53 433.42-50.75 28.19-42.32 26.28-64.54 20.37-1.44-.4-3.25-1.21-4.77-1.63-48.92-13.71-107.08-46.17-131.81-95.17-2.83-5.52-3.61-8.98-6.47-12.64-.63-.84-1.99-2.36-2.69-3.01l-6.05-3.8c-.5-.34-2.49-.89-2.98-1.2l-5.4-14.89-41.74 11.28c-56.15 29.6-5.97 58.42 2.22 94.57l16.91 62.69c8.61 34.18 8.82 30.17 24.34 55.43 26.41 43.09-13.27 74.55 28.17 150.74 32.9 60.57 47.82 73.58 100.71 111.45 35.47 25.39 42.36 15.47 74.97 31.15-6.34 27.2-29.13 59.08-43.24 82.74-9.24 15.44-11.44 12.93-20.99 25.47l-33.56 52.63c-18.48 20.08-32.3 20.73-34.81 51.38-42.38 3.54-57.06 53.45-99.78 59.39-53.47 7.46-74.83 35.91-117.05 61.98l-33.43 26.31c-21.88 31.23-23.71 38.19-53.05 66.3-23.14 22.2-9.82 25.89-29.81 49.73l-24.43 35.28c-6.64 9.92-.65.89-8.66 11.21-14.84 19-30.34 55.46-47.11 72.29-36.54 36.7-38.45 40.47-69.47 89.67-31.02 49.29-77.74 99.81-88.81 110.12-7.51 6.96-12.56 13.35-20.6 19.21-22.48 16.47-36.25 11.36-44.37 41.86h-59.65c-14.21 21.2-10.89 4.63-13.27 33.13-31.2 2.62-29.02 23.38-52.56 40.31-33.42 24.06-55.56 63.27-89.04 96.66l-6.39 6.84c-.94.99-2.2 2.53-3.11 3.53l-33.61 45.96c-14.55 16.88-41.67 11.6-83.29 49.37-.97.91-2.33 2.38-3.32 3.29l-98.6 46.86c-85.54 25.18-74.42-4.4-204.4 34.73l-261.14 50.49c-41.2-.34-40.41 12.46-85.8 13.69-97.87 2.7-345.84 16.83-436.25 4.4-21.83-2.99-47.87-7.57-80.72-4.22-30.92 3.17-40.52 6.52-57.04 29.21l-22.25 37.46c-7.82 17.35-7.53-6.41-7.53 58.74-55.44 1.25-171.11 27.85-210.45 42.03l-58.42 20.16c-37.35 11.57-71.93 29-109.17 30.65-10.81.49-14.14-.5-25.29 1.62l-171.86 47.22c-53.21 26.72-124.67 36.09-139.59 45.41-15.23 9.58-8.69-3.72-14.6 18.51-.47 1.12-5.34.68-6.63 4.79v5.18c.95 4.74 4.32 12.06 12.15 23.56 32.01 47.27 49.6 20.44 79.36 11.56 9.53-2.85 8.95-1.88 21.31-5.96 43.58-14.37 29.39 2.2 55.33-3.04l50.52-9.68c41.61-3.28 15.28-4.61 42.14-10.92 17.8-4.21 36.35-1.31 55.8-3.87l219.55-22.77c18.38-4.9 13.12-6.76 38.56-10.79 100.74-15.91 115.93 13.04 152.96 50.13l96.27 109.33c13.01 13.35 13.48 16.54 23.87 29.21l101.93 156.7c24.21 30.73 55.25 91.85 84.96 127.24.78.91 11.93 14.29 12.07 14.47 10.12 15.97 22.4 50.94 46.61 85.96 9.45 13.64 14.56 13.48 23.74 29.34l145.56 245.73c25.86 29.73 60.99 110.82 86.66 152.05 10.37 16.59 13.72 14.57 22.75 30.31l54.6 104.59c20.94 41.59 57.58 90.12 75.67 136.52l27.04 65.83c.68 2.02 2.51 8.04 3.29 9.98l86.8 325.37c.29 3.88-.79 13.59 0 19.55 3.32 25.65.68 3.56 5.6 19.79l4.56 15.71c.44 1.93.6 3.69 1.07 5.62 3.11 14.09.71 8.17 5.02 21.55l10.92 28.89c10.55 28.38 12.09 60.05 27.12 85.64l33.73 78.97c21.86 40.63 38.48 34.42 77.19 24.42 37.56-9.71 13.04-10.18 45.1-21.22 15.99-5.53 30.18-3.2 51.67-8.01 25.05-5.6 110.48-68.16 119.96-72.35 25.81-11.38 17.01.79 43.11-16.54l28.03-25.02c1.6-1.55 3.8-12.99 47.32-25.6 21.36-6.21 25.08-9.95 42.04-24.32l10.78-9.13c1.13-.82 2.7-1.94 3.93-2.7 3.48-2.17 17.77-8.27 22.82-10.34 33.11-13.58 49.58-29.31 78.06-47.9l47.79-18.53c24.5-6.73 17.88-10.29 42.17-17.51 58.84-17.48 137.02-6.99 198.58-6.99 13.17 0 43.27 22.43 49.42 30.13 2.02 2.51 23.53 55.7 23.53 56.09 0 33.06-61.64 110.8-95.06 143.7l-21.83 31.25c-13.01 17.33-5.42 6.07-27.56 18.85-20.6 11.91-15.06 12.51-29.11 23.92l-63.19 56.17c-22.32 39.03-22.01 22.33-50.83 48.66l-47.11 52.37c-19.27 19.01-33.92 10-36.65 42.9-36.43 4.01-5.02-8.19-29.08 17.38l-52.42 53.66c-6.89 7.75-10.16 20.47-21.78 31.28-28.37 26.33-24.08 14.47-51.67 54.44l-15.31 17.85c-.97.92-2.57 2.1-3.64 2.99-.99.91-2.62 2.07-3.66 2.95-1 .92-2.65 2.07-3.64 2.99-9.87 9.06-16.94 18.58-23.17 29.86-8.66 15.55-7.53 20.13-13.55 32.91-16.91 35.96-6.97 5.15-25.29 27.79-29.55 36.52-4.34 81.77 13.87 114.52 6.68 12.09 11.57 22.61 19.14 33.89l30.57 49c41.8 67.53 95.77 132.44 151.6 186.62l155.5 169.41c1 .91 2.62 2.12 3.62 3.06.97.91 2.54 2.14 3.5 3.09l27.04 26.04c69.65 40.7 13.48 57.43 70.46 62.17 3.38 31.3 46.23 34.15 107.37 104.8l16.78 23.03c25.42 41.99 22.3 19.37 48.13 44.68l258.77 258.53c32.24 34.08 72.26 69.1 107.65 104.51 53.63 53.63 113.76 104.33 162.18 162.81l53.39 52.66c78.71 72.56 57.98 60.75 102.9 115.95 9.21 11.31 16.36 15.79 25.73 27.38 8.82 10.94 11.91 17.93 22.85 30.15l48.13 57.98c13.56 20.91 37.14 33.61 51.25 54.89l152.78 198.64c13.43 13.24.97-2.46 12.8 13.76 11.57 15.81 6.86 15.87 21.07 31.96 9.19 10.45 18.01 15.71 26.25 26.83 14.03 19.01 5.71 15.55 23.46 36.2l138.54 179.77c26.15 28.08 42.74 66.66 69.31 96.48l37.64 41.98c17.87 23.22 9.34 27.35 29.63 49.94l420.59 600.68c10.87 14.55 11.6 24.42 20.73 38.95l61.8 97.32c21.78 30.15 10.37 32.43 38.35 67.81 15.21 19.24 16.36 41.62 31.41 61.41 1.2 1.54 4.94 5.57 6.15 7.12l77.58 141.26c19.42 53.29 63.94 123.6 94.86 177.02l40.15 65.99c19.16 35.96 41.46 64.75 56.48 102.68 23.14 58.34 45.26 74.05 59.55 106.21 29.13 65.41 78.26 122.42 102.11 189.69 11.67 32.93 35.91 56.77 51.87 87.42 6.7 12.96 8.77 22.25 16.47 36.57l39.16 66.95c13.89 18.74 8.66 14.22 18.92 34.14 11.23 21.75 27.46 43.84 39.31 66.77 35.94 69.41 38.43 83.65 76.62 142.26l60.3 105.45c15.84 32.64 28.32 36.02 36.23 69.91 16.02 69.1 70.83 19.74 82.53-15.28l71.87-239.86c5.5-24.64 2.38-16.73 12.49-33.93 8.48-14.39 3.5-2.2 10.1-16.41l41.96-123.93c10.28-17.62 3.37.36 8.24-16.21 8.69-29.34-4.6 6 2.41-16.49 6.26-19.89 8.59-5.83 17.38-31.85 6.78-19.82 2.83-23.87 10.73-42.48l25.29-74.23c7.33-24.21-4.66 11.93 3.69-9.58l10.49-29.27c.55-1.78.74-3.63 1.26-5.39l16.28-30.57c17.72-32.06-.5-22.48 15.78-43.06.79-1.02 2.41-2.25 3.2-3.32l14.26-32.72c11.52-29.18 16.12-22.8 24.16-55.41 12.93-52.82 21.93-16.2 32.64-66.82l56.25-209.01c14.4-32.98 6.96 16.36 16.38-36.72l17.93-81.51c5.5-31.07 3.59-65.7 9.71-96.4 3.49-17.35 7.2-14.63 10.27-36.17l4.92-41.49c15.31-53.26 8.24-90.61 17.04-142.15l14.73-64.84c5.16-21.9.21 3.56 6.91-19.63 12.04-41.85 3.38-99.22 13.66-138.85l26.86-125.01c2.12-29.34-3.74-9.35 3.25-37.17 5.57-22.12 3.5-18.69 7.04-46.09 5.91-46.72 24.81-76.75 26.17-126.35l13.11-112.89c2.67-7.75 1.68 9.27 6.08-20.44l8.08-98.05c3.43-23.95 8.25-17.93 11.52-41.54 2.44-17.95-1.15-32.01 3.04-50.02 6.02-25.75 7.09-1.28 11.04-42.01 3.01-30.57 2.02-21.72 7.57-45.59 6.31-27.23-.92-24.4-.92-53.87 0-25.34 3.74-2.2 9.63-23.56l14.45-57.77c6.21-13.42 1.7 1.34 4.11-10.88l7.02-78.16c11.02-46.59 27.14-57.77 36.95-142.13l9.58-36.83c.71-1.3 1.86-2.8 2.6-4.05l37.69-94.96c6.99-24.37 2.69-38.61 10.28-62.67l42.93-132.52c4.61-16.17-6.47 1.34 7.38-22.69 9.03-15.73 25.36-23.61 35.26-37.72l50.17-95.72c13.98-22.32 18.35-23.06 25.68-47.3 7.99-26.46 13.98-21.14 21.7-51.24 10.29-40.08 8.01-27.12 28.37-57.85l34.19-98.44c2.75-9.37 3.61-14.56 6.99-26.15 3.58-12.17.28-4.14 5.05-14.84l9.55-16.99c.63-1.46 1.42-3.14 1.99-4.66 12.49-33.66 17.07-68.78 33.9-98.73 18.11-32.22 22.32-71.61 34.52-111.37 5.86-19.06 10.58-34.97 17.9-55.05l16.94-56.01c.6-1.52 1.39-3.17 1.94-4.71l53.39-158.83c53.06-110.09 58.11-108.2-5.15-213.45-.71-1.23-1.81-2.83-2.57-4.06l-133.44-138.43c-24.34-14.53-46.01-41.1-70.62-55.36-50.56-29.32-160.58-159.82-195.28-215.89-5.24-8.51-7.91-10.42-13.82-19.32l19.84-46.43 141.6 90.54c1.26.76 2.91 1.7 4.19 2.43l8.56 4.69c38.42 20.57 71.95 51.09 117.55 54.91 4.94 59.89 81.69 47.98 86.66-6.7 1.68-18.79-5.23-59.76-7.04-86.25-3.11-44.81-13.74-17.85-13.64-72.55.11-85.38-12.93-33.74-12.93-132.97 35.29 0 27.28-2.64 57.67 21.88l58.99 27.2c56.62 17.48 44.94 27.69 76.12 36.64 43.55 12.59 58.84 30.1 102.05 41.91 26.78 7.3 2.41-7.91 24.92 10.1 28.98 23.14 28.66 15.86 63.47 29.4 21.05 8.16 4.58 5.89 33.61 12.82l75.25 17.59c39.53 18.35 55.34 11.13 100.54 18.66 31.09 5.19 49.1 2.78 77.06 9.3 30.44-45.44 36.9-58.74-56.88-89.02-92.5-29.92-44.34-28.17-93.65-38.95-28.74-6.26-36.8-8.72-64.91-21.31l-32.57-13.87c-1.83-.89-6.8-3.74-8.56-4.69-59.33-31.56-46.14-37.97-97.31-55.22-28.51-9.58-8.06-1.08-29.32-17.07l-81.09-51.54c-28.89-12.53-31.72-35.38-60.41-52.32-24.34-14.32-41.93-22.85-60.77-45.36-26.26-31.38-36.05-15.42-54.94-37.87-20.11-23.82-3.96-24.5-35.86-50.36-31.46-25.55-56.62-59.97-75.99-96.46-10.21-19.34-15.31-47.19-27.72-65.12-14.24-20.65-76.22-46.96-105.32-67.06l-112.5-99.72-162.47-188.98c-16.3-14.45-8.82-12.15-22.45-24l-48.9-37.28c-32.19-33.37-68.39-47.53-99.59-79.46-22.01-22.54-45.1-32.07-65.96-46.8-29.32-20.73-75.8-20.5-80.98-64.89-1.73-14.79.86-30.13-1.42-45.02-5.34-34.5-12.33-3.85-12.33-80.51 0-11.18 12.41-28.27 13.35-66.22 1.23-49.53 18.69-139.17-9.58-182.94-25.1-38.81-17.04-24.6-17.04-75.83 0-11.62 10.24-23.89 17.88-28.55 13.64-8.32 5.37-1.21 19.6-6.91 25.08-10.03 58.03-44.11 81.88-44.11 25.49 0 26.57 2.23 46.07 13.62l64.91 47.82c25.78 16.7 36.51 37.06 63.79 48.92l132.18 66.77c15.7 6.67 35.91 21.83 51.12 21.83 218.32 0 111.73 11.25 269.23-22.51 40.54-8.67 51.01-24.69 88.83-37.14l36.23-23.48c21.54-16.57 64.6-38.95 82.63-69.86l7.09-26.07c22.85-1.91 45.6-17.88 55.97-36.88l5.68-14.22c.7-1.36 1.38-3.22 2.09-4.55.73-1.28 1.67-2.96 2.43-4.19l14.79-18.35c.76-1.28 1.6-3.01 2.31-4.37l29.47-56.72V7111.5c0-38.42-8.59-60.8-5.21-90.87l12.54-60.96c.55-1.57 1.25-3.25 1.8-4.82.53-1.62 1.15-3.32 1.65-5l24.48-55.1c21.43-28.55 45.93-42.19 53.08-46.38 1.25-.73 3.01-1.59 4.29-2.33 60.07-34.15 46.67-21.56 104.75-67.68 19.81-15.74 18.06-6.68 32.46-20.63 14.1-13.69 17.27-35.94 26.01-53.5l28.17-64.7c6.62-17.28 7.72 11.88 7.72-65.23 0-14.87-5.24-14.55-13.27-26.54 26.98 0 74.26 2.75 98.81-1.18l23.03-5.99c1.02-.21 2.93-.45 4.01-.63l22.09-3.35c1.36-.42 3.22-1.15 4.6-1.68 1.42-.49 3.2-1.33 4.61-1.91 1.44-.6 3.17-1.46 4.58-2.12 56.04-25.44 56.51-30.41 83-63.5 32.46-40.52 13.9-23.16 13.9-52.29 0-27.57 4.47-10.53 3.95-32.25-.78-32.93-4.89-74.89 8.87-107.45 13.72-32.45 1.97-8.45 18.69-21.09l20.47-19.29c12.17-12.75 19.87-14.66 40.05-20.16 1.67-.47 3.56-.94 5.15-1.39l21.44-5.7c39.84-6.76 92.19 2.09 131.74-3.4 23.16-3.22 4.84-4.98 34.73-7.8 57.93-5.45 108.89 2.9 168.7-17.33l38.66-14.35c43.52-16.96 90.66-43.13 119.48-79.49 18.43-23.27 4.64-4.08 14.16-32.22 22.46-66.06 60.88-48.66 19.56-184.4l-15.32-51.01c-2.25-11.47-1.23-15.71-4.24-28.95-10.68-47.46-31.85-96.22-39.29-145.37l-42.27-170.95c-5.26-16.67-2.82 6.81-7.09-26.1l-57.17-287.71c-5.2-17.98-9.5-7.17-9.5-30.23 0-53.68 106.06 16.96 106.06-59.7 0-54.76-128.7-3.61-39.94-132.84 14.29-20.78 32.64-39.86 54.31-51.77 14.42-7.93 3.8.05 16.65-9.95 10.76-8.32 5.6-6.72 13.79-13.19 26.91-21.3 79.86 1.36 129.33-22.64l36.59-16.44c33.22-17.95 54.76-27.53 73.27-59.39 18.92-32.51 53.03-57.55 66.19-92.94l8.77-24.42c.55-1.52 1.28-3.25 1.88-4.77l40.99-98.28c7.41-19.87 2.39-2.8 6.91-19.58l22.02-123.81c5.18-62.24-13.41-150.24 4.03-208.29 16.98-56.67 20.28-119.36 28.06-184.17l25.59-126.94c7.54-32.22 4.06-59.42 9.85-96.27 15.07-96.38 25.94-60.75 82.79-82.98 62.84-24.6 64.54-14.68 139.64-59.28l112.18-60.25c1.34-.71 3.19-1.37 4.61-2.05l62.48-50.22c21.43-27.7 53.24-49.24 75.88-76.67l100.22-138.49c13.77-31.36 24.42-38.92 36.22-69.89 6.13-16.04 10.32-20.54 17.1-35.99l33.92-125.21c16.51-58.77 7.61-197.73 3.92-261.85-3.06-53.63-47.79-112.24-75.2-156.92-14.55-23.64-19.05-52.4-51.01-55.07-3.01-36.23-38.55-85.67-62.53-109.88l-61.38-71.3c-52.71-71.38-49.34-61.72-116.48-128.88-33.08-33.09-68.55-69.52-105.11-93.81-41.33-27.46-69.34-73.53-113.31-98.92-44.05-25.44-31.18-47.69-91.53-47.69-8.8-37.64-11.1-24.91-39.27-40.31-15.96-8.74-27.37-22.4-44.94-34.68-19.11-13.35-30.23-16.36-52.45-27.09-28.06-13.53-20.84-17.74-47.72-31.9-67.66-35.63-126.13-84.63-186.96-131.29-18.69-14.35-24.21-23.04-41.2-38.38-21.8-19.63-26.07-11.28-47.66-31.93-10.92-10.42-3.59-8.79-21.18-18.64l-107.63-91.29c-13.95-14.95-26.7-23.01-43.11-36.41l-53.32-46.17c-18.97-13.51-19.29-20.34-43.97-22.38-2.28-27.72-39.05-59.6-59.36-79.91l-71.56-67.66c-17.15-17.36-24.79-35.65-54.73-38.14-2.41-29.11-14.77-28.98-31.7-47.85-1.28-1.44-4.9-5.65-6-7.27l-101.63-123.86c-51.28-48.01-83.26-113.86-112.5-139.51l-53.87-65.49c-6.75-9.42-3.74-6.54-10.18-16.33-13.5-20.42-27.53-27.36-42.06-44.13-9.03-10.39-15.37-21.47-28.58-31.12-14.32-10.5-4.09-2.31-16.7-9.82l-64.26-48.48c-15.08-14.5-.26-2.09-19.29-13.87-19.89-12.33-11.68-8.32-34.37-18.69l-34.55-25.12c-24.87-21.81-4.58-5.71-39.03-14.03-16.17-3.9-24.1-10.26-40.59-19.08-12.75-6.81-26.73-12.33-42.22-17.46l-132.18-40.23c-37.69-11.96-103.37-17.25-143.26-29.14-67.13-20.02-248.78-.86-283.05-8.4-21.96-4.84-25.12-7.12-48.42-11.54l-340.01-64.7c-15.49-1.08-9.52-.06-23.61-3.17-2.12-.45-7.4-2.41-9.29-2.85l-59.81-6.89c-11.43-3.92 12.83-1.65-20.57-6.23-10.29-1.44-21.72.08-32.35-.83-30.18-2.57-20.91-7.91-47.69-11.97-19.32-2.9-49.86-5.62-85.85-7.61h-221.36zm-374.79 8422.97l-19.03 126.85c-10.89 43.24-31.91 102.29-47.54 204.47-11.04 72.24-10.44 46.02-26.22 106.4-.47 1.81-.76 3.61-1.26 5.42l-75.56 309.07c-2.67 10.34-1.71 6.23-2.78 17.14-3.35 34.24-7.14 72.27-19 107.11l-3.22 10.21c-.6 1.59-1.23 3.37-1.86 4.92l-30.7 115.77c-.21.99-.5 2.9-.68 3.9-5.6 27.43-13.64 30.59-19.63 67.6l-20.11 92.64c-.57 1.62-1.17 3.32-1.7 4.94-.52 1.57-1.28 3.22-1.86 4.82-14.29 42.35-24.73 122.13-34.83 164.11-6.23 26.1-1.47 3.01-8.17 24.97l-39.94 138.83c-13.4 37.46-14.82 95.72-37.09 128.99-25.31-16.96-35.02-44.55-35.02-44.55-.24.89-1.42-3.74-1.7-4.94-13.25-60.1-22.49-72.51-44.61-127.84l-236.04-526.61c-20.44-27.66-15.57-32.77-28.37-64.46-4.21-10.42-10.42-18.53-18.17-28.61-18.58-24.24-13.55-29.27-25.15-53.66-6.1-12.85-9.37-21.31-15.57-31.25l-67.69-118.02c-16.49-19.71-7.83-12.75-18.38-34.68 17.1-25.52 37.04-26.75 39.79-59.71 24.79-2.04 33.84-10.68 41.59-31.36 18.53-49.33-11.31-16.72 32.14-47.42 24.03-16.96 33.11-38.72 49.16-63.61l97.21-134.87c.71-1.29 1.65-2.99 2.41-4.24l104.41-180.84c4.42-13.96 6.86-16.05 11.44-27.57.39-1.04 1.12-2.9 1.46-3.9l91.01-182.82c15.34-20.29 19.32-44.08 33.56-65.94 8.85-13.5 22.3-26.67 30.54-42.85 10.26-20.07 4.37-14.92 7.12-24.57 2.67-9.43-1.75.99 4.11-10.89l90.07-154.62c7.14-10.57 9.66-10.33 17.41-22.37 11.22-17.49 17.22-33.8 34.68-46.54 28.5-20.79 13.29-13.17 23.95 33.5 4.97 21.52-1.18-4.53 4.89 15.23l49.97 182.15c1.91 6.18 2.54 9.53 3.98 15.92 7.4 32.53 4.29 29.23 21.93 57.76 26.99 43.77 30.91 93 61.98 143.41 11.02 17.8 27.07 37.67 27.07 52.61zm-2333.96-311.71c0-16.98 10.47-1.07 3.9 0-.05 0-3.9 18.51-3.9 0zm3249.02 431.1c0-208.43-21.57-185.76-24.58-233.06l-7.54-39.71c-3.3-10.65-2.72-5.7-4.24-16.88l-18.61-93.13c-36.17-84.91-48.11-174.79-75.15-263.05l-8.92-30.89c-2.75-16.04-2.72-31.28-7.23-45.91-6.78-21.83-15.39-30.15-17.93-51.93-.57-5-2.19-13.3-3.48-18.98-.1-.47-5.21-20.59-5.47-21.35l-35.46-150.4c-.37-1.6-5.76-16.81-6.99-19.53l-27.36-65.49c-7.64-25.05-5.83-54.81-9.94-83.21-3.54-24.13-7.54-15.26-8.61-38.6-4.22-91.48 21.83-123.84 22.8-167.6l-21.42 31.62c-8.19 8.85-15.75 13.64-23 23.45l-42.8 50.05c-20.39 19.47-5.05 10.36-20.21 32.85-17.9 26.59-4.42 4.66-24.78 21.59-19.27 15.99-28.93 38.5-47.48 58.61-.95.99-2.31 2.46-3.2 3.45l-43.6 35.99c-40.23 21.83-39.11 39.03-104.94 80.75-1.17.76-2.72 1.91-4 2.64l-28.61 11.15c-20.29 12.23-13.17-1.62-13.92 32.51-27.33 2.33-11.76.5-19.87 6.62 22.54 6.05 15.28 11.18 40.52 19.19l138.22 73.94c13.51 9.63 15.68 11.49 28.53 24.5 19.3 19.5 33.53 33.79 53.06 53.06 27.85 27.45 25.44 35.59 46.83 65.9 30.65 43.38 16.62 33.12 36.88 69.24l13.9 39.15c6.46 43.69-.06 11.62 15.99 43.69l21.07 78.44c8.64 41.54 22.61 46.7 34.68 78.06 13.58 35.12 19.19 86.58 40.33 118.8 15.39 23.38 11.52 1.34 19.84 33.22l48.87 156.7c21.88 46.28 15.76 22.99 35.47 83.92 8.69 26.78 13.24 61.3 26.91 86.51.52.96 1.78 2.56 2.33 3.61 8.27 16.57 12.35 26.77 13.19 66.4 22.19-16.28 7.06-31.2 14.32-78.23 3.82-24.74 5.6-34.53 5.6-67.66zm-3103.17-3302.86c0 77.5 4.6 48.87 12.06 94.02 3.72 22.3-1.36 25 5.71 47.38.63 2.06 3.17 7.35 3.9 9.37l3.48 9.76c.31 1.05 5.13 27.8 5.18 28.01 4.16 26.98 1.76 22.43 10.34 42.71l74.86 150.59c.68 1.36 1.41 3.19 2.07 4.55l96.27 162.39c28.79 33.4 82.55 127.36 128.04 183.64l122.08 169.71c29.76 42.48 100.96 116.37 121.66 150.24 15.76 25.94 25.42 47.72 64.15 48.56 2.96 35.39 12.65 33.66 31.07 55.15 16.76 19.52 21.18 27.27 40.18 46.04 36.54 36.09 395.81 402.9 441.43 433.92 17.33 11.83 25.76 9.47 35.99 23.66.53.65 7.62 15.81 8.72 17.83 7.8 13.87 4.84 10.96 18.66 21.12l58.53 47.58c1.62 1.15 13.9 11.26 14.6 11.94l148.7 116.55c25.68 15.92 25.5 23.35 46.02 40.18 26.35 21.52 52.82 31.96 76.09 56.54 21.67 22.88 55.59 31.3 78.89 53.73l78.91 53.74c37.22 18.32 25.34 28.61 77.22 55.41 22.48 11.62 31.28 21.94 53.13 33.03l57.38 28.88c30.99 9.5 25.46 23.05 54.65 38.16 10.36 5.34 17.77 8.45 26.83 12.98l137.33 81.46c22.57 12.09 40.65 18.92 53.98 38.86-17.54 65.73-66.72 63.77-111.22 100.99-43.32 36.22-75.09 40.83-104.93 80.72l-48.9 63.84c-5.83 9.08-.47 1.25-8.32 11.62-.79 1.05-8.01 10.23-8.8 11.04-23.58 23.9-28.16 12.1-54.6 64.79-6.3 12.61-4.55 15.18-13.58 26.2l-34.68 38.26c-9.5 14.58-20.21 25.76-31.96 40.99-17.22 22.25-16.46 44.19-32.25 67.27-8.43 12.33-.76-1.62-8.48 11.36-.76 1.28-1.65 3.01-2.33 4.32-.76 1.33-1.38 3.19-2.06 4.58-23.72 46.64-22.17 23.53-55.21 97.34l-118.12 226.7c-.81 1.15-1.94 2.72-2.7 3.93-5.42 8.61-2.04 3.53-6.78 13.11l-92.94 159.06c-10.89 15.37-18.82 27.77-29.11 43.85l-56.33 89.56c-1.46 3.01-9.68 20.92-10.62 22.51l-23.06 23.4c-27.38 23.98-39.26 69.52-68.42 97.37-9.03 8.59-14.01 11.15-22.78 17.02l-33.76-32.56c-14.61-28.43-29.76-68.06-51.62-94.26l-30.83-42.14c-23.43-46.69-63.79-89.23-84.52-134.33-6.38-13.95.29-5.57-12.9-20.23-8.01-8.87-12.54-10.16-19.27-20.52-10.6-16.2-8.24-23.71-23.11-43.21l-30.2-42.75c-23.9-25.44-11.36-14-28.66-44.31-12.8-22.49-19.82-18.38-32.3-40.62-14.74-26.36-4.58-24.37-25.65-47.28-6.6-7.11-10.24-8.76-16.34-16.83l-74.07-111.6c-8.95-15.94-11.52-28.85-22.75-43.58-23.58-30.97-41.64-49.37-59.83-86.09-13.53-27.43-28.3-39.11-43.77-62.3-7.04-10.49-9.6-10.6-17.56-22.25-13.53-19.84-11.04-26.8-27.74-45.22-20-22.17-16.05-11.44-31.73-41.2-20.83-39.47-52.66-66.96-74.91-104.13l-45.57-67.19c-14.5-18.21-14.58-28.79-26.62-46.32l-77.34-115.02c-26.81-30.57-44.66-66.45-65.05-100.71-11.78-19.87-22.04-24.01-32.69-40.26-25.28-38.61-100.77-194.82-115.32-209.61l-47.69-78.31c-6.63-11.26-1.52-.45-6.36-13.53l-93.97-184.4c-3.95-6.75-10.58-21.62-13.17-26.78-13.71-27.04-43.84-69.62-50.46-95.48-13.74-54-7.77-30.86-35-71.17-9.34-13.9-6.96-25.55-13.55-39-6.13-12.59-6.05-8.46-12.07-28.09-13.4-43.66-28.09-66.01-45.39-107.23-.57-1.47-1.28-3.25-1.86-4.71l-50.72-115.12c-1.62-4.87-3.64-13.27-4.43-15.47-4.42-12.12-3.01-7.8-6.07-13.79l-88.62-236.33c-2.81-10.58-5.87-19.95-9.56-30.26l-35.28-110.3c-.58-1.62-1.1-3.46-1.73-5.03-15.78-39.23-24.34-46.59-24.34-101.84l21.15-78.63c6.07-25.91 3.69-8.79 11.44-26.09l10.6-50.73c8.42-21.52 16.33-20.42 25.41-47.82 3.12-9.27 4.08-16.81 8.01-25.16 18.64-39.62 49.08-76.95 69.99-115.69.73-1.33 1.44-3.14 2.2-4.45l81.22-104.43c6.83-10.05 1.75-1.99 6.81-13.09l31.51-41.43c29.05-24.42 8.87-11.6 24.24-48.71 8.06-19.5 17.64-26.65 28.74-44.24l83.13-135.69zM22167.1 10381.2l1.99 1.99c-.13-.14-2.64-1.34-1.99-1.99zm881.88-26.52c40.15.89 19.44-4.29 26.54 13.25-3.8-1.81-11.55-4.59-14.03-5.87-12.25-6.23-6.08-2.93-12.51-7.38zm125.97-6.65c-11.36 1.42-9.37-19.55-.44-8.84l.44 2.53c.03.58 5.53 5.63 0 6.31zm338.2-198.95l1.97 1.96c-.13-.13-2.65-1.31-1.97-1.96zm112.71-159.19c.66-.66 1.96 1.04 1.96 1.99l-1.96-1.99zm258.58-165.79l-126.03-13.61c-25.81.15-106.03 17.67-106.03-19.56 0-27.95 29.91-20.62 59.46-20.12 26.62.44 53.4.36 80.07.49 54.18.29 65.33-13.4 122.92-42.84l130.56-108.18c22.06-27.46 5.65-39.58 38-48.22-5.83 21.73-1.44 4.37-7.77 18.8l-59 120.03c-23.98 40.05-37.93 58.56-83.84 75.31-43.18 15.78-30.7 4.58-48.34 37.9zm331.55-789.24c19.71 5.26 34.08 18.14 43.58 36.43 18.85 36.28 3.64 218.82 2.83 221.68-6.81 23.34-3.74 10.62-16.02 30.91-17.64 29.05-33.63 55.72-63.55 75.75 0-79-5.11-98.32 20.89-138.31 11.2-17.17 11.09-12.28 14.1-38.21 4.32-37.54 3.28-148.44-1.83-188.25zm-4203.86-53.06c0-16.96 10.52-1.07 3.93 0-.05 0-3.93 18.51-3.93 0zm-218.82-1193.82l2.02 1.99c-.13-.13-2.64-1.31-2.02-1.99zm-198.92-72.94c4.68 36.3 8.98 100.98 53.08 112.76-7.7 28.81-8.98 10.67-19.16 34.31-12.54 29 2.59 36.67-9.58 62.53-28.4 60.52 7.9 65.93 9.29 121.56 1.62 68.02-4.66 140.29 5.63 206.75 3.4 21.7 4.47 20.41 7.12 32.27 4.71 20.86 4.53 1.49-.81 25.89-9.5 43.58 5.94 28.82-.19 65.67l-22.14 58.42c-30.1 50.88-.24 53.08 10.1 115.33 4.17 25.12 8.04 43.26 13.51 66.61 6.7 28.5-.39 179.43-.39 218.74 0 22.04 16.96 8.74 12.25 64.21-3.82 45.67 7.4 59.23-20.42 100.66-13.35 19.97-9.27 20.79-6.36 47.85 6.94 63.39 39.21 56.59 28.11 137.08-1.54 11.2 6.23-5.27-2.43 8.16-.71 1.15-4.11 4.3-5.24 5.58-8.56 9.63-8.77 4.21-15.23 19.08-4.27 9.87-6 12.85-3.33 27.22 6.18 33.53 30.37 37.74 23.64 86.98-.97 7.14-1.94 13.19-6.83 24.24l-32.72 81.53c-11.12 17.77-10.21 28.22-16.04 49.18l-9.98 30.57c-.34 1.29-.97 3.14-1.31 4.53l-13.37 46.41c-19.27 33.87-10.34 86.19-10.34 128.93 41.3 19.79 33.24 27.88 62.53 56.86l6.47 6.77c14.99 11.6-2.07 8.59 30.44 9.32-3.51 42.27-9.43-1.28-8.35 90.64.39 30.58-1.97 3.62 11.8 38.11 17.3 43.24 2.7 81.7.94 126.14-.96 24.18 8.88 35.62 8.88 70.09 0 89.02-18.59 73.4 8.37 172.18 3.51 12.8 10.34 25.86-8.37 33.43v19.89c20.28 5.42 12.8 10.31 29.76 17.61 3.11 1.34 16.83 4.06 18.79 4.17 25.39 1.36 29.06-18.17 41.57-38.22l18.82-96.45c7.09-64.65-13.35-91.56-11.31-114.59l12.2-59.89c9.89-63.76-11.63-78.84-23.61-123.83l14.42-18.77c12.27-9.76-15.31-4.03 18.71-7.75 0-64.88 11.86-58.76-19.89-106.14 32.25-15.46 45.44-8.63 46.43-53.05 15.76 10.57 6.89 8.03 26.52 13.27 4.37-52.38 26.59-73.45 5.13-164.3-1.99-8.3-4.69-19.13-9.16-30.65l-18.19-54.73c-3.93-13.85-3.2-9.97-9.48-23.69l-35.15-119.38c-5.55-13.69.31 3.72-5.79-10.89l-5.28-19.37c-9.48-34.89-2.72-70.69-10.08-105.82-6.05-29.18-12.12-12.9-10.44-59.02 3.24-88.84 20.36-55.05 28.08-106.74 2.44-16.41-15.18-70.18-23.58-93.97l-3.98-43.45c1.65-9.76 2.28-13.35 1.7-27.35-1.15-30.73-.16-3.46-3.24-22.43-4.27-26.13 6.64-14.11 6.64-46.72v-145.93c0-21.07-10.44-10.62-6.2-38.55l-8.74-49.6c-3.56-32.51 5.21-30.1 15.28-50.73l19.53-53.45c-12.88-19.24-9.87-8.74-20.21-32.82-24.44-56.83-21.93-148.31-26.07-226.38-1.41-26.88 6.5-54.24 6.5-92.29l-10.13-196.18c-12.86-23.3-7.39-58.97-15.37-83.37-7.14-21.7-.63 10.16-6.49-20.05-1.54-7.72-1.15-10.99-1.15-18.77 32.06-6.77 35.02-12.85 53.05-39.78-30.93-58.45-3.03-32.64-44.81-67.92-17.43-14.71-19.16-34.4-49.96-35.63l-13.77 2.44c-.63-1.39-2.91.84-4.16 1.62-24.69 12.51-3.01 41.46-46.46 53.06zm3872.33-145.9l-3746.33-192.36c7.07-7.04 25.13 10.55 7.38 3.46-.15-.05-18.5 7.67-7.38-3.46l3746.33 192.36zm-3540.75-477.53c-53.61 0-66.04 21.78-64.11 69.63 1.52 35.99.14-1.42-6.64 31.98-4.45 21.83 5.18 46.46 3.27 81.93-.92 17.09-5.5 46.77-5.5 75.12 0 32.25 14.21 4.19 8.93 54.47l-15.37 277.71c-4 25.57-7.17 30.28-1.44 47.03 18.17 53.19 13.48 31.86 4.84 95.31-6.67 48.86 14.22 73.44-10.07 141.97-41.67 117.7 13.11 91.74 13.11 126.31 0 39.08-8.01 79.39-3.04 115.3 7.31 53.35 3.36 109.15 11.26 161.71 3.38 22.8 11.7 35.75 11.7 67.87 0 32.93-6.28 17.64-11.41 42.19-6.55 31.18 7.35 41.78-12.09 73.5-3.28 5.37-25.5 31.2.05 66.64l8.77 11.36c1.25 1.52 4.89 5.68 6.12 7.22 8.43 10.79 15.18 6.52 15.18 24.58 0 84.83-19.89 87.56-19.89 126.03 0 54.81 19.89 45.57 19.89 66.33 0 96.48-2.38 46.25-22.32 83.76l-21.62 63.55c-7.49 43.79-34.37 101.29-34.01 145.35.14 10.2 5 22.64 5 32.3 0 36.51-14.08 11.54 2.7 57.03 5.94 16.18 3.38 34.71 11.67 43.32 20.71 21.62 58.29-4.14 51.96 72.08l-19.92-6.62c0 64.13 15.26 60.99 27.75 111.53 6.12 24.74-.03 3.38 6.15 20.36 6.41 17.62 5.89-16.38 5.89 14.01 0 25.94-13.25 28.95-13.25 46.43 0 41.3 14.66 41.41 20.63 119.09 4.39 57.3-3.51 45.97-16.94 90.67-6.44 21.41-1.54 134.72 0 166.42l-.21 77.58c11.81 99.81 3.33 40.68 42.96 123.26h33.11c-8.25-39.03 3.03-3.17 6.62-46.44 38.32 0 46.43-3.27 46.43-46.43 0-27.61-3.79-19.74-8.45-38.4l-10.76-48.08c-6.83-16.67-7.28 6.26-7.28-26.25V9598.6c0-14.05 5.37-14.65 12.36-27.43l4.89-8.35c.68-1.2 1.78-3.14 2.38-4.24 7.49-13.37-1.57 10.24 6.86-13.03-11.1-12.77-14.68-14.5-20.44-33.16-4.37-14.24-4-17.72-4.63-34.48l6.02-37.11c23-43.29 33.34-40.57 10.31-85.41-22.3-43.5-44.52-37.61-50.8-60.59l79.43-7.91c2.26-27.04 3.01-14.76 14.11-38.94 30.16-65.65 7.44-121.61-7.09-174.01-8.48-30.71 8.77-40.49-14.79-64.03-12.59-12.53-18.77-12.85-24.68-28.76l-33.87-105.48c0-58.87 23.14-86.41 11.91-130.77l-18.53-107.97c62.61-41.93 36.38-60.78 30.36-76.77-9.19-24.24-21.18-38.16-22.75-61.56l-7.85-212.99c2.8-53.68 20.73-148.77-12.98-199.16 26.96-40.28 29.5-24.44 30.49-77.53.11-6.59 2.65-23.63 2.65-35.23-67.88-18.11-7.83-123.62-32.49-159.32-9.68-14.03-32.06-11.15-32.22-45.41-.1-32.98 16.52-33.9 31.62-47.22 44.94-39.76 2.7-81.33.42-93.58-7.12-37.98 9.06-125.4 6.36-184.76-.73-15.45-1.1-37.98.29-53.16 5.55-60.05-7.12-46.15-7.12-79.76 0-73.99 19.84-116.6 19.84-145.92 0-55.33-29.74-35.41-39.73-72.95zm3540.75 477.53l-126.66-145.27c-8.09-12.72-8.27-21.83-16.83-36.17-16.91-28.17-9.11-6.7-25.81-27.25-14.99-18.4-10.6-37.82-53.34-85.93-26.3-29.58-14.53-22.69-31.2-48.37-32.51-49.97-38.55-33.35-68.18-84.39-37.25-64.2-37.38-49-55.91-76.69 19.52 0 32.95-.86 51.67-2.25 36.64-2.75 5.15-2.49 38.29 11.31 1.52.63 3.27 1.33 4.89 1.88 23.85 8.14-17.61-3.51 10.76 2.67 41.8 9.14 85.17 8.48 138.36 60.73 21.72 21.38 32.67 37.09 46.83 65.9 35.12 71.59 14.58 78.24 36.56 149.12l15.08 51.22c10.36 44.06-1.28 30.65 24.31 114.99 6.26 20.7 10.53 19.34 11.18 48.5zm-391.2-510.69l1.96 1.96c-.1-.1-2.62-1.31-1.96-1.96zm-3215.88-66.33l1.96 1.97c-.1-.11-2.61-1.31-1.96-1.97zm46.41-152.54c6.67-25.08 16.93-24.16 19.92-59.68-16.91-6.12-25.6-17.98-33.19-46.43h-39.79c-9.32 34.89-31.98 35.12-36.56 69.8-5.21 39.61 36.56 32.43 36.56 62.85 0 24.39-19.89 15.39-19.89 39.78 0 41.31 16.25 29.35 19.89 72.95h26.54c2.57 30.81-7.09 11.62 13.25 26.54 14.47-7.17 2.33-1.99 19.89-6.65l13.92-38.68c5.55-13.09 19.27-30.99 19.27-40.89 0-56.48 7.64-68.52-39.81-79.59zm2267.68-185.71h-53.03c.65-.65 1.96 1.05 1.96 1.99l-1.96-1.99h53.03zm-112.71 0c.65-.65 1.96 1.05 1.96 1.99l-1.96-1.99zm-33.14 0c.66-.65 1.97 1.05 1.97 1.99l-1.97-1.99zm-19.89 0c.63-.65 1.94 1.05 1.94 1.99l-1.94-1.99zm-2181.49 0l3680.03-13.24c46.2 0 84.39-5.53 116.53 22.71l18.4 21.36c7.25 13.43 10.52 30.47 10.92 48.77-19.84-22.85-20.18-15.58-43.09-36.49l-18.4-14.74c-55.62-29.65-44.44-28.37-84.36-28.37v-13.24l-3680.03 13.24zm2347.23 0l-86.17-6.62 1.96 1.99c-.15-.13-2.64-1.34-1.96-1.99l86.17 6.62zm-742.65-179.06l1.99 1.99c-.13-.13-2.65-1.34-1.99-1.99zm-1995.83-99.49c7.4 5.42 22.01 22.09 28.66 31.04 16.41 21.96 11.12 13.01 11.12 48.56h-33.14c.37 17.48 1.65 12.27 4.14 22.9 3.32 14.53 3.32 5.84 3.46 16.28.47 36.93-14.71-8.79.94 31.54 21.07 54.34 17.59 114.02 10.28 173.83-2.01 16.04-8.53 23.92-3.19 44.49.37 1.57 1.18 3.27 1.73 4.79l23.53 76.41c7.75 30.31-17.01 45.51-19.61 75.56-2.74 32.75 4.58 15.03 3.85 44.29-1.54 57.32-7.38 24.84 5.76 90.14 4.32 21.7 1.39 25.24-6.36 40.84-11.05 22.14-7.9 21.59-37.8 22.24 6.05 25.97 6.05 13.85 0 39.82 21.99 5.1 32.8 15.78 46.1 33.47 39.52 52.67-8.43 250.34 20.15 304.83 8.67 16.54 1.21-2.12 7.98 11.91l14.06 45.44c6.05 25.49-18.16 57.01-18.92 83.97-.42 15.54 1.23 12.93.89 29.97-1.7 85.27 19.26 112.31-6.6 205.05-10.31 36.98-11.39 77.95 1.02 115.85 17.46 53.55-2.17 42.87 26.96 99.28 8.69 16.83 16.62 44 10.63 60.59-9.16 25.36 6.91 16.93-29.32 17.72-2.64 31.54-5.68 13.22-2.07 41.77l11.15 82.09c.45 1.83 1.1 3.45 1.63 5.18 17.77 62.11-19.71 114.49 5.02 160.76 16.89 31.47 9.5 1.68 15.13 27.85 8.67 40.39-1.93 49.58 23.9 78.61 18.19 20.46 12.04 4.16 19.19 33.81 13.58 56.33 20.75 116.03 4.45 168.67-.29.89-.87 2.65-1.16 3.53-3.27 11.08-4.11 20.19-10.91 34.42h-53.06c-14.84 30.97 3.56 17.07-19.92 26.55 5.55 66.37 78.34 68.89 37.01 136.13-34.62 56.3 11.02 81.4-6.75 199.03-3.37 22.67-7.96 63.97-7.77 80.07.29 19.86 5.18 40.31 4.13 75.77l-.05 79.36c-61.4 5.11-22.09 23.72-53.05 46.44-30.18-2.52-15.11 4.24-28.09-18.35-23.35-40.65-18.37-80.78-18.35-127.58.05-89.33-5.31-186.88 3.06-268.83 3.51-34.27-14.86-31.83-27.64-65.18-7.8-20.44-10.49-41.09.32-61.04 18.84-34.63 24.26-22.61 24.26-75.82-26.12-2.86-29.21-14.03-45.99-33.56-14.99-17.43-16.75-28.43-23.06-56.54-32.51-144.45 4.74-110.3 24.19-200.18 21.28-98.44 33.89-57.56 24.73-206.99l-.39-145.42c-5.97-30.84-23.48-19.08-22.9-55.34.31-21.04 2.8-8.21 10.26-24.42l4.81-16.49c.27-1.04.4-3.01.61-4.05l1.67-7.96c9.87-41.07 16.34-337.31 2.62-399.5-6.41-29.29-13.58-32.12-20.15-59.42-12.39-51.33-4.87-91.61 7.35-139.59 12.96-51.04 6.13-179.92-.05-239.83-4.92-48.3 44.36-58.43-8.69-103.37-44.45-37.64-8.43-82.13-7.59-137.49 1.59-99.39-32.28-70.02-33.61-133.23-1.05-46.17 20.42-79.26 30.49-121.48 6.21-25.75 2.65-56.74 2.65-83.88-31.99-2.81-13.77 1.85-17.31-62.22-3.27-57.79 6.84-85.25-5.7-134.01-7.3-28.3-4.74-19.3 5.89-39.4l12.46-21.09c11.64-18.82 23.21-26.15 51.06-28.48 6.31 15.57-1.75 2.96 8.01 11.91l7.62 5.63c.79.6 2.98 1.43 4.27 2.35zm530.45-311.71l-2207.98-1187.17c7.7-7.7 37.8 11.23 8.3 2.69-.79-.23-19.79 8.83-8.3-2.69l2207.98 1187.17zm-2161.57-1226.96l1.99 1.97c-.13-.13-2.64-1.31-1.99-1.97zm2048.86-152.54c0-16.96 10.5-1.07 3.95 0-.05 0-3.95 18.5-3.95 0zm-99.44 6.62l-6.62-6.62 6.62 6.62zm-19.91-33.16h13.29v26.54c-20.41-14.95-10.73 4.26-13.29-26.54zm311.66-6.62c-2.36-12.57 8.34-23.59 4.18-4.22-.08.45.21 27.35-4.18 4.22zm-311.66 6.62l-13.25-19.9 1.99 1.99c-.13-.13-2.67-1.33-1.99-1.99l13.25 19.9zm298.38-33.17v13.27h-19.89c10.45-15.05 1.26-7.74 19.89-13.27zm-26.54-6.62l-311.6-26.54 311.6 26.54zm-311.6-26.54c-7.88-12.38-7.46 14.82-5.5-13.24 1.05-14.16.81-5.94 5.5-13.27v26.51zm-1982.56-46.41c46.72 31.31 7.43-11.91 41.19 111.32 8.33 30.24 6.47 17.75 22.49 37.2l10.6 15.91c.78 1.26 1.65 3.01 2.43 4.24 29.76 47.98 26.18 26.99 16.1 70.1-64.99-17.38-53.42-88.26-67.82-137.76l-24.99-101.01zm1962.64-19.89c7.9 12.38 7.46-14.81 5.49 13.25-1.02 14.16-.81 5.94-5.49 13.27v-26.52zm477.42-59.7l7.62 12.93-7.62-12.93zm-6.65-6.62l6.65 6.62-6.65-6.62zm119.36-192.36l2.01 1.99c-.13-.13-2.67-1.31-2.01-1.99zm-517.16-19.89l-6.65-6.63 6.65 6.63zm-6.65-6.63l112.71-46.43c11.2 12.88 14.87 14.29 19.92 33.16-20.13-7.27-16.39-5.49-19.92-33.16l-112.71 46.43zm431.02-145.92l3.64-14.24-3.64 14.24zm-358.07-106.11h6.62v39.81h-6.62v-39.81zm676.3-291.82l2.01 1.99c-.15-.13-2.67-1.31-2.01-1.99zm1233.34-729.54c.66-.65 1.94 1.05 1.94 1.99v-.02c-.11-.13-2.59-1.31-1.94-1.97zm-86.22 66.33l40.36-45.86c38.95-54.44 54.76-32.43 65.73-73.52-30.39 2.51-48.84 27.56-63.42 49.29-51.59 76.98-41.44 15.44-42.67 70.09zm-39.76-119.38l1.94 1.96c-.13-.13-2.59-1.31-1.94-1.96zm165.74-19.92c-19.81 3.87 1.49-23.66 1.94-11.73.08 1.47 5.05 10.4-1.94 11.73zm19.92-39.78l1.94 1.98c-.14-.13-2.6-1.33-1.94-1.98zm19.87-19.9c-2.39-12.53 8.35-23.58 4.21-4.19-.11.45.18 27.33-4.21 4.19zM19965.7 6063.61c-11.57-28.01 16.51-12.15 26.57-39.79h26.48c7.28 18.01-3.82 6.08 14.37 12.17 3.49 1.18 20.45 1.68 24.87 1.65 80.72-.57 48.84 12.78 82.29 23.82 10.79 3.59 32.14 2.72 47.2 5.84 62.66 12.9 103.96 42.74 169.47 42.74 16.02 33.37-5.02 19.69 24.92 23.4l67.09 10.66c30.6 13.97 78.94 6.7 106.53 19.34 30.07 13.77-4.79 8.77 40.25 12.82 35.68 3.2 49.68 15.18 81.38 24.71l18.93 7.7c1.28.73 2.67 2.07 3.87 2.82 33.21 21.28 40.02 5.74 74.65 17.52 32.27 11.01 18.37 17.06 59.55 20.62 20.96 1.81 11.83.34 28.92 4.58 57.29 14.24 121.11 6.52 130.45 41.51 26.6 0 57.74.16 74.65 4.95 23.14 6.54 12.2 4.95 28.93 10.81l135.13 50.57c8.69 18.79 8.69 7.75 0 26.54 33.4 0 18.2-3.22 37.41 8.98 1.7 1.05 5.86 4.68 7.43 5.81l23.87 15.97c16.02 9.05 36.86 9.03 57.27 9.03 6.68 16.2 4.45 5.36 0 26.54 33.77 0 54.68.89 81.69 11.15l130.56 34.68c44.94 6.67 5.63 14.32 52.98 20.47 41.25 5.34 23.87 8.5 57.84 21.75 19.45 7.59 11.76 1.33 27.88 5.23 31.57 7.65 18.53 9.87 44.44 21.91 33.19 15.5 17.93 17.46 67.95 17.7l7.44 26.27c21.9 0 43.97-2.53 62.47 4.01 36.52 12.93-1.36 11.96 35.63 18.71 14.42 2.65 19.34-1.59 38.4.29 14.24 1.42 38.16 5.47 51.82 7.54 35.21 5.34 69.44.6 103.76 2.25 45.7 2.15 153.67-13.64 202.25-10.55l208.01-2.88c46.88-7.09 18.06-19.37 99.93-19.37l-5.47 42.77c3.01 18.8 6.07 32.72 19.47 49.21l25.84 34.03c66.25 0 64.75 2.28 115.4-17.2 25.34-9.74-2.67-2.12 24.89-8.22 70.13-15.52 47.96-28.84 65.23-34.26 26.38.58 35.05 8.43 54.13 1.52 20.83-7.54 29.29-20.23 49.84-30.21l8.95-4.47c13.97-7.49-1.31-3.46 17.04-9.71 24.31-8.27 46.98 3.71 74.1-4.71 13.03-4.04 7.72-3.25 13.61-6.57 44.26-24.97 130.48-12.18 180.18-12.18 14.48-27.35 27.15-28.94 54.89-37.95l38.66-14.37c50.88-18.48 220.26-30.2 273.29-2.9 25.6 13.19 39.73 4.84 58.18 28.08 15.47 19.55 18.12 31.91 25.08 51.43.31.87 1.07 2.65 1.44 3.51 20.81 48.69 14.63 89.41 27.69 109.62 13.27 20.47 8.17-1.88 19.5 33.58 5.81 18.12 1.57 15.6 14.03 32.41 30.47 41.25 11.83 56.3 16.73 109.27 4.18 45.5-12.85 58.79-12.02 125.33.58 49.81-8.37 42.19-17.25 82.21-11.85 53.42-49.39 66.07-73.83 111.9-36.94 69.33-74.13 145.74-36.62 224.86 21.91 46.23 8.4 58.77 53.97 91.95 26.2 19.09 33.53 28.3 65.36 34.11 36.43 6.67 89.78 7.85 122.07-6.86 22.02-10.02 34.4-25.81 46.8-46.04 28.56-46.69 14.48-46.77 3.85-86.61l-18.01-55.07c-19.52-35.7-50.7-49.29-86.76-52.45-144.54-12.62-57.69-129.59 66.37-92.95 73.24 21.62 56.78 40.07 145.61 40.07l39.24 86.74c6.25 11.34 9.03 8.41 16.72 23.12 38.61 73.84 56.02 196.41 42.93 274.2-3.22 19-17.09 35.78-29.94 49.65-26.41 28.35-13.77 18.43-29.14 50.44 32.23 15.47 67.01 25.31 93.63 52.25l73.52 79.02c1.13.86 2.91 1.72 4.04 2.56 1.12.84 2.93 1.76 4.03 2.62l74.99 97.42c8.63 14.71 1.2-.97 7.95 18.61 32.41 94.67 22.23 141.11 20.18 231.88-.34 17.33-1.28 42.9-2.72 48.97-4.53 19.14-.91 17.7-23.69 23.77 0 82.48 3.54 153.59-17.11 228.27l-15.89 63.68c-4.58 15.05-6.62 16.41-12.28 27.54-.86 1.75-6.52 12.66-6.72 13.14-14.19 32.58-10.74 33.97-33.04 66.48-14.92 21.78-14.86 27.69-24.97 54.6l-15.94 63.63c26.99 18.06 22.56 34.1 44.58 54.86 29.13 27.43 21.49-7.12 48.92 43.92 7.56 14.03 13.4 18.25 23.92 35.76 53.14 87.86 14.5 139.32 23.38 179.71 10.23 46.35-.32 48.79-10.97 94.15-17.54 74.57-36.75 102.97-77.95 167.44-37.25 58.34-79.05 53.76-102.21 116.61-6.07 16.33-2.57 4.5-7.54 19-6.23 18.14-9.92 35.39-14.92 51.38l-87.81 157.57c-16.18 25 7.46 12.93-26.02 33.66l-32.25 34.08c-20.1 30.62-12.69 10.49-34.78 24.92-24.77 16.25-26.21 33.42-65.75 53.58-22.59 11.51-28.61 7.56-51.39 14.97-22.66 7.4-14.55 11.62-35.2 17.8-1.81.52-3.61.7-5.5 1.17-15.68 3.83-10.23.29-27.27 5.84-42.95 14 27.14-10.73-9.5 3.77l-32.85 13.64c-7.62 2.64-11.65 4-20.97 5.94-34.89 7.27-56.8-4.4-121.52 23.92-28.54 12.49-38.48 51.78-48.45 77.56l-26.1 66.74c-9.19 11.68-26.72 19.45-46.62 46.2-31.72 42.56-75.25 33.74-96.84 55.67l-60.41 92.14-97.42 61.72c-1.65.55-3.41 1.1-5.03 1.65-42.09 13.68-44 19.99-55.39 24.15-44.23 16.23-61.27 4.9-97.97 10.53-1.1.15-2.9.83-3.98 1.04-22.64 4.35 13.04 2.6-21.72 3.2-29.5.55-37.85-3.64-64.65-13.93-7.59-2.9-20.97-5.73-26.18-7.3l-45.25-14.4c-31.15-3.48-85.51 0-119.25-.1-118.47-.34-55.81 25.78-156.71-2.41-21.8-6.1-48.45-13.32-61.72-31.12l-12.67-20.5c-5-8.89-6.2-13.08-11.36-21.98-8.24-14.32-4-5.34-10.65-16.1l-15.15-32.14c-15-28.66-12.04-5.31-3.62-41.57-40.83 10.92-20.49 24.76-38 41.54-20.71 19.87-11.26 4.09-29.95 16.47-5.57 3.69-16.77 16.85-23.42 23.06-56.67 53.16-108.42 113.78-187.41 130.84l-30.76 9.14c-28.29 9.16-58.68.83-84.7 1.91-34.6 1.46-50.44-14.82-76.85-30.29-24.44-14.37-58.31-13.76-83.44-29.26l-105.69-80.01c-50.86-46.6-26.54-32.28-54.94-77.69-20.16-32.27-62.51-62.37-88.89-90.12-20.86-21.91-17.25-34.26-44.65-41.59 12.9 19.32 31.43 46.64 37.9 68.21 10.6 35.57 33.71 70.02 53.81 105.35 8.04 14.11 13.77 19.45 21.96 31.1l62.11 90.38c10 11.38 15.18 17.69 24.53 28.55l210.08 201.16 60.41 31.93c23.55 15.81 31.14 35.02 57.32 49.21 14.29 7.77 24.05 9.39 36.25 16.8 9.45 5.73 14.61 11.62 27.17 19.24l98.78 60.83c39.63 31.04 51.51 9.66 100.83 37.98l70.98 28.48c28.22 12.22 39.11 26.98 69.28 36.8 35.34 11.51 44.4 17.32 75.07 31.04 7.99 3.59 8.72 4.11 18.38 8.14l55.23 24.34c24.68 12.51 7.61 4.95 38.63 14.42 35.41 10.79 69.62 36.36 103.47 49.06 10.02 3.76 9.87 2.72 19.68 6.83 9.45 3.92.03-.16 9.06 4.19 1.86.88 6.91 3.63 8.69 4.58l346.52 223.76c17.35 17.41 10.29 10.79 30.49 22.56 30.94 18.09 54.84 47.59 74.42 78.11 25.91 40.36 87.08 91.03 124.33 134.27 22.38 25.97 13.08 60.47-23.11 74.18-20.97 7.96-31.83-5.1-55.81-8.4-37.59-5.13-72.79 7.72-103.68 8.69l-94.51 10.52c-42.12 4.66-17.07 16.18-48.24 24.03-24.92 6.26-20.97-12.83-51.36 15.31l-21.67 18.43c-60.38 33.42-48.92 16.72-117.31 68.37l-84.21 68.34c-25.91 18.09-45.3 45.59-62.79 56.56-32.61 20.42-60.15 56.83-90.82 81.61-30.73 24.9-51.8 55.15-82.69 83.11l-131.95 133.3c-.99.92-2.59 2.1-3.63 3.01-1 .92-2.57 2.12-3.56 3.04-1.05.92-2.52 2.2-3.51 3.12l-9.79 10.1c-17.69 17.3-26.72 18.11-42.61 36.98-15.26 18.09-13.56 23.17-33.95 39l-242.04 235.44c-1.41 1.31-5.39 5.13-6.83 6.42l-35.91 30.41c-25.52 35.05-22.64 17.07-49.6 43.21l-72.45 53.56c-1.26.76-3.06 1.57-4.29 2.33l-31.33 28.37c-39.74 30.55-88.29 40.2-127.68 71.27l-7.17 6.08c-1.08.86-2.49 2.22-3.51 3.08l-65.8 33.72c-1.42.63-3.04 1.57-4.45 2.2l-9.3 3.97c-1.54.58-3.35 1.1-4.97 1.65-37.51 12.67-39.21 28.3-73.03 39.66-31.54 10.6-24 6.31-49.81 23.16-29.89 19.58-71.06 26.62-97.84 40.86-28.16 15-111.42 19.76-152.25 40.57-15.03 7.64-10.74 9.5-24.01 16.26-33 16.8-29.29-1.47-57.55 2.35l-47.98 17.62c-36.04 15.47-93.39 10.2-125.43 20.49l-15.44 4.48c-6.99 1.59-10.11 1.25-17.25 2.9l-15.5 4.5c-38.34 11.18-88.34-.23-129.35 9.48-99.07 23.43-80.91 7.56-169.19 16.46l-67.3 12.28c-22.56 5.5-47.35.08-70.72 2.25-35.44 3.32-21.65 12.54-66.2 13.35-13.74.26-25.57-1.1-39.34.99l-49.05 10.03c-43.32 9.74-68.6 7.85-110.69 22.01-2.72.92-14.84 4.03-15.68 4.19-60.67 11.02-27.17-15.63-83.78 22.3-20-5.34-14.56.08-19.9-19.89l-117.15 46.72c-56.51 12.09-69.94-1.13-141.66 26.04-41.8 15.84-82.92 20.34-125.98 33.17l-104.72 34.49c-34.45 14.48-82.56 18.67-95.83 24.27l-206.46 71.3c-15.47 7.06-7.64 6.07-27.22 12.59l-34.16 12.27c-19.21 12.59 1.02 10.16-29.5 16.91-16.44 3.64-29.42 2.67-40.78 5.73-32.17 8.75-5.78 2.83-27.45 12.31-23.82 10.41-34.27-2.83-60.94 18.37-11.02 8.72-14.19 15.31-26.36 20.23-31.67 12.8-25.02 4.82-59.41 26.78-24.4 15.57-4.61 6.31-35.73 10.7-35.78 5.06-41.17 8.69-68.05 24.79l-254.45 150.06c-1.7 1.05-6.65 3.95-8.29 5.05l-45.36 24.47c-17.04 8.56-.48.24-17.73 17.99-30.17 30.94-72.08 34.18-103.33 62.92-24 22.07-33.22 32.82-63.79 48.92-52.4 27.61-143.57 129.15-210.99 160.37-24.37 11.31-24.19 19.4-24.19 48.79-35.99 2.98-48.84 34.73-71.3 54.68-14.24 12.64-22.64 15.63-37.92 28.4-22.51 18.82-18.51 32.48-41.67 51.17-5.55 4.5-18.04 12.56-19.37 13.77l-26.44 33.24c-34.29 50.25-127.15 153.59-142.05 176.31-29.34 44.76-48.58 76.77-94.83 110.98l-25.47 14.37c-22.87 2.98-20.93-7.07-38.21-18.66 0-41.36 9.19-45 12.93-79.91 1.75-16.47-1.41-26.86 2.49-43.9 4.68-20.23 4.84-4.21 9.89-29.94l16.31-103.08c2.77-8.95 1.49-2.43 4-15.86 1.26-6.7.73-10.34 2.2-17.69l10.65-35.76c1.36-7.51.95-11.02 1.55-18.34 1.73-20.24 1.93-25.47 5.02-41.44l27.91-104.7c15.02-71.87 24.34-82.68 28.45-104.22 5.15-27.09 2.85-50.05 15.99-76.85 16.23-33.19 21.52-77.4 30.89-108.39l122.36-447.95c4.08-8.48 3.3-2.91 11.36-15.21 10.16-15.47 16.05-75.77 33.48-119.01l17.69-68.55c5.05-14.64 1.68-2.6 7.49-19.01l89.28-282.11c10.18-25.52 3.22-9.84 8.17-38.26l52.37-173.12c7.15-22.04 5.92-10.94 12.98-26.83 9.79-22.09 8.48-47.51 19.03-73.79.63-1.46 1.42-3.16 2.02-4.63l95.19-335.87c.16-.73 11.91-32.61 12.54-33.87.71-1.33 1.68-2.98 2.36-4.29l13.27-26.52c3.19-12.67 2.48-26.15 5.55-40.88l69.44-321.87c.16-137.68-12.8-124.01-13.9-165.66-3.22-126.81-2.17-139.98 30.49-242.19 8.98-28.14 9.56-21.36 26.33-40 13.43-14.94 8.22-24.91 21.83-44.49 19.22-27.69 41.78-36.02 57.38-68.58l30.39-62.45c28.89-40.02 8.82 1.6 31.14-55.07 7.41-18.72 22.15-24.68 30.37-42.61 6.49-14.19 1.46-3.9 4.6-15.26l60.31-204.98c3.06-13.82 3.22-22.14 7.77-38.66 10.81-39.1 8.98-69.02 15.24-110.77 12.14-80.38 2.95-184.45-3.22-263.1l-12.96-73.24c-5.6-39.03-5.55-80.2-16.65-116-.49-1.68-1.07-3.38-1.57-5.08l-17.9-68.29c-10.39-63.34-36.41-128.2-37.38-135.04-6.3-43.37-32.45-113.65-48.6-156.99l-47.04-151.94c-8.74-34.89-21.91-21.54-26.67-49.89l-40.26-95.36c-19.39-51.43-51.38-98.73-69.25-149.63L18470.53 9131c-30.65-48.01-17.74-49.37-63.73-108.65-15.03-19.35-16.41-34.71-33.79-52.46-17.83-18.21-32.07-25.23-45.63-47.19l-61.9-70.7c-15.96-18.74-9.37-9.03-24.71-21.72-19.47-16.07-20.96-27.8-40.17-46.04l-76.72-62.56c-7.15-7.35-14.08-13.09-21.78-18.01-1.23-.78-2.96-1.67-4.21-2.43l-406.23-210.44c-21.99-4.74-54.86-4.11-75.96-10.29-22.48-6.57 2.7-7.2-36.88-9.53l-75.07-11.1c-72-20.83-82.16-5.81-108.52-10.81-24.39-4.6-1.04-6.93-35.65-10.78l-74.41-11.83c-38.29-7.93-93.13-2.1-126.01-6.6-26.46-3.61-66.3 2.86-89.2-3.82l-29.34-14.92c-44.16-12.17-78.05 1.6-134.72-26.41-27.95-13.82-70.91-16.91-99.7-32.93-26.62-14.84-43.53-15.91-58.84-22.64-27.01-11.88-56.88-27.82-78.57-52.11-39.74-44.42-42.09-41.43-82.06-96.98l-36.2-89.8c-13.09-35.13-12.62-113.49.97-152.42.57-1.57 1.31-3.21 1.88-4.79l106.74-244.7c42.22-72.74 21.83-62.03 47.17-125.35 15.57-38.84 9.42-30.49 13.84-60.99 6.23-43.08 21.26-62.48-8.97-104.01l-42.28-143.28c1.13-23.72 13.48-43.53 21.23-65.94 10.58-30.49 10.13-34.73 32.82-60.04 22.88-25.5 34.32-37.93 74.13-36.62 66.67 2.2 50.07-1.02 57.93-17.04 20.99-42.93-57.12-58.08-102.87-169.22-21.02-51.04-2.23-54.7-16.49-115.95 11.02-5.86 11.44-4.95 20.05-13.09 17.33-16.23 21.04-42.3 43.47-56.01 27.7-16.94 63.82-19.66 77.27-55.39 22.51-60.04 14.27-107.76-14.68-160.86-12.07-22.15-17.33-22.78-27.43-38.87-8.38-13.33-3.33-7.62-9.92-23.25-9.29-22.09-10.66-14.21-22.38-30.67l-4.92-8.33c-1.23-2.59-6.68-22.43-7.75-25.41-38.92-107.84-45.39 3.85-47.3-218.4l7.49-58.89c1.25-4.22 1.31-1.6 3.27-12.93l.76-8.49c1.15-8.37-2.57-2.27 5.08-22.01 9.08-23.45 17.61-30.57 36.72-43.26l62.09-30.79c1.36-.68 2.98-1.64 4.29-2.35 1.28-.68 2.8-1.83 4.08-2.54l8.19-5.08c21.94-10.21 32.75-4.89 60.83-5.44 47.33-.97 21.36-6.94 53.66-12.67 18.3-3.25 45.41.16 65.15-1.2l162.57-36.34c34.89-7.4 52.71-36.09 82.95-49.67 1.44-.66 3.24-1.29 4.68-1.94l17.38-9.16c1.73-1 6.49-4.06 8.22-5.05l51.33-34.84c18.16-12.93 32.51-10.37 44.76-24.58l21.7-27.9c18.66-11.7 25.8-7.02 44.28-15.86l-62.61-30.26c-.65-.18-30.8-14.42-31.51-14.92-15.6-11.36-13.79-9.69-19.76-28.79l21.02-25.52c62.06 0 132.26 9.37 172.41 0-14.63-21.88-19.58-13.77-36.62-29.66l-26.65-33.06c-17.98-21.22-26.41-18.16-39.89-39.65-27.69-44.11-46.48-97.53-49.18-149.8-3.14-60.64-22.8-25.88-15.83-94.78 3.92-38.71 6.96-44.7 28.94-77.5h46.41c10.63 45.78 2.15 91.82 15.68 130.22 11.86 33.66 19.74 84.83 42.3 110.22 36.38 40.86 30.23 62.92 94.51 77.9 0-49.63 4.17-104.34-8.79-143.73-6.46-19.6-.86.26-5.68-14.26-1.73-5.32-2.07-1.5-4.37-15.53-2.09-13.06-.18-24.52-1.96-37.76-4.09-29.45-12.28-19.58-13.01-60.57-.5-27.54 28.19-171.37 39.65-193.2 6.94-13.16 19.08-25.07 28.9-44.07 10.02-19.43 12.01-33.04 11.91-67.74-.16-96.85-6.65-46.07-41.28-111.64-39.97-75.67-36.3-107.16-38.24-187.22-1.7-71.46-27.35-112.35-50.7-174.8-13.09-35.1-10.08-76.06 1.52-112.6 10.91-34.13 36.12-89.31 61.12-111.32l78.62-73.92c.97-.97 2.41-2.27 3.33-3.3.86-1.04 2.14-2.51 3.01-3.63 10.68-14.29 5.6-18.9 20.81-32.2l234.39-123.41c23.69-11.62 1.83-3.87 32.27-7.83l22.54-3.98c1.52-.55 3.11-1.49 4.5-2.14l53.87-19.06c24.71-11.23 6.62-20.31 51.64-21.3-8.48-36.46 10.23-77.61-6.65-112.74l25.78-40.54c16.81-39.52 44-28.64 75.02-50.96l52.22-40.68c9.55-5.68 2.56-1.8 12.25-7.61l8.35-4.93c69.15-40.8 49.34-41.66 102.86-76.19l73-59.6c14.24-11.78 20.11-19.86 32.17-34.16 18.85-22.22 18.51-12.98 31.36-28.32 14.03-16.67 4.4-16.49 27.33-39.02 2.9-2.88 16.17-16.26 16.46-16.68.81-1.15 1.88-2.77 2.64-4 7.38-12.33 11.02-29.45 32.75-53.45 11.62-12.88 15.75-21.36 25.1-34.58 64.02-90.77 56.38-61.9 90.54-101.76 45.62-53.29 29.1-15.58 73.23-52.77 28.85-24.34 49.55-26.51 80.83-45.15l36.04-23.66c6.18-2.59 8.35-2.49 15.18-4.74l33.9-12.49c25.41-10.49 55.02-29.42 83.91-35.49 28.93-6.04 20 9.29 54.68 2.1 24.24-5.06 7.28-11.31 54.99-11.73 38.87-.31 85.46 1.81 117.92-8.04 21.18-6.41 29.26-5.18 54.73-4.97 173.3 1.36 103.21 26.04 196.39-42.35l56.69-42.74c29.5-20.81 29.63-44.47 68.16-58.27 16.2-5.78 5.97-2.9 17.22-5.26 18.77-3.9 16.91 4.09 41.15-15.18l60.99-32.19c23.84-11.65 35.88-22.3 65.93-26.91 43.08-6.6 264.34-4.06 305.48 7.96l192.15 59.83c35.86 14.55 13.19 8.46 34.42 25.26 23.9 18.87 32.06 8.85 59.89 39.55l6.44 6.83c28.63 28.53 36.09 47.98 63.91 75.38 30.92 30.5 56.57 62.98 94.05 84.97 40.49 23.74 90.72 55.93 136.39 55.93 7.54-28.37 29.71-34.52 51.2-48.21 16.41-10.45 26.07-32.72 39.21-47.06 19.06-20.89 48.29-32.2 71.09-48.27l20.13-13.01c15.36-11.46 5.26-5.44 14.05-12.48 8.88-7.15 2.83-2.7 11.65-8.22l12.88-7.04c89.15-54.21 24.68-15.34 98.39-40.84 15.13-5.23 29.55-14.92 40.41-19.29 23.38-9.39 25.24-4.05 49.79-9.86 22.8-5.4 41.3-24.09 64.23-26.76 26.91-3.14-5.42-.73 16.15 3.01l29.86-4.63c41.33-13.11-34.15 8.09 10.63-3.35 34.24-8.77 42.19 2.51 64.13-8.32l22.82-10.76c23.27 15.57 23.59 6.36 26.54 33.16 29.01-19.39 17.83-6.25 48.17-18.14 16.93-6.64 24.26-17.53 41.38-24.91 36.69-15.81 56.77-12.04 94.88-37.75l125.19-64.12c28.74-8.83 59.76-31.07 85.25-43.72 50.83-25.18 138.75-34.15 97.42 45.81-3.95 7.67-20.8-1-3.74 16.2 11.6 11.65 1.94 1.76 12.67-.73 23.14-5.37 40.41-6.86 56.54-17.75 25.86-17.4 3.74-18.19 45.51-20.81 42.43-2.69 66.36-12.69 104.31-28.61 26.3-11.04 80.2-14.44 107.18-9.97 28.85 4.79 2.57 4.53 22.8 6.55l44.94-5.97c37.04-1.42 111.59 9.53 138.83 18.03 31.33 9.77 66.04 9.92 95.46 23.9l29.74 16.73c6.04 2.98.55 1.7 14.34 5.81l58.47 8.66c89.94 31.85 45.89 45.83 128.1 45.15 38.32-.34 64.05 27.88 64.91 65.75-19.57 5.24-17.9 12.8-34.52 18.53l-15.97 3.98c-28.32 8.14-22.53 12.36-50.57-.31l-37.29-9.4c-21.55-7.25-34.35-23.4-53.82-32.82-34.52-16.7-72.19-21.68-107.97-37.96-17.12-7.8-51.33-5.99-77.08-9.05-16.91-2.02-27.96-7.91-42.41-10.68-42.58-8.22-172.7-16.49-222.61-7.57-30.99 5.55-5.13 8.12-47.3 12.41l-143.15 29.24c-39.73 12.48-45.04 12.67-75.72 43.68l-33.92 25.71c-18.74 13.45-25.49 29.57-37.56 48.66-14.03 22.14-33.03 36.56-52.38 53.71l-102.55 109.67c-13.14 14.6-.44 3.5-16.46 16.7l-46.85 32.71c-22.49 13.88-39.74 41.07-63.79 49-33.22 10.97-53.4 18.3-84.15 2.04 0-46.43-2.28-21.49 17.69-48.6l63.34-135.64c.79-1.23 1.73-2.93 2.49-4.19l69.65-116c5.34-11.36 4.06 2.69 6.02-20.55l-108.34 57.45c-7.27 2.73-7.98 1.92-15.44 4.51l-47.79 25.15c-10.16 4.87-11.65 4.69-23.61 9.53-49.03 19.89-48.32 33.03-94.78 51.12-44.71 17.43-10.78 57.84-88.02 57.84-26.1-38.97-26.05-57.79-13.28-112.76l-27.4 12.41c-33.08 10.47-54.18 14.76-85.33 7.51-19.34 36.59-48 30.02-82.66 43.29l-61.72 37.75c-2.72 1.46-12.98 7.4-16.91 9.63l-55.33 44.1c-38.4 26.44-23.19 23.72-43.66 49.21-15.99 19.87-16.59 11.31-38.08 21.62 6.75 28.98 15.49 30.13-4.53 54.84l-57.09 75.85c-32.43 65.75-29.1 44.58-62.55 89.94-12.96 17.53-11.36 30.44-22.8 50.17l-44.73 61.41c-5.21 8.48-7.91 10.42-13.82 19.29-38.66 0-60.94-29.34-72.72 86.45l-66.74 311.3c-5.73 106.63-13.01 43.21-26.31 93.05h-46.46c-35.54-53.16-26.49-60.05-26.49-126.03-21.01 10.07-30.23 6.65-59.67 6.65-6.29-26.89-1.78-19.98-19.92-26.55 6.78 29.03-3.85 53.95 7.75 78.03 24.42 50.57 12.17 203.77 12.17 266.85-31.7 8.48-40.97 51.62-92.84 6.65 15.39-66.07-.16-49.6-6.55-100.04-2.54-20.31-1.46-40.47-2.28-47.3-2.95-24.45-8.69-16.44-11.04-45.02-57.72 38.63-26.07 13.85-66.33 33.16-1.59 73.71 5.37 57.09-19.92 86.22h-46.38c-22.22-33.19-31.35-49.52-66.32-72.95 0 60 6.12 36.73 16.67 76.17 11.94 44.47-9.82 13.95 23.11 63.11-12.3 14.19-5.76 18.5-35.46 30.86-69.18 28.74-35.08-31.28-103.76-77.27-2.07 24.92-6.62 44.71-20.6 58.97-17.38 17.72-26.38 13.98-59 13.98-12.25-25.65 6.21-24.45-46.38-59.7 0 112.6 15.21 132.36 33.14 218.84l16.07 56.9c2.88 7.28 6.62 18.38 8.77 24.37 7.09 19.45 10.76 34.61 18.48 54.5 14.71 37.95 50.54 80.48 49.52 89.75-2.54 22.51-39.6 39.05-72.95 39.81-18.63-27.85-15.15-39.81-46.41-39.81 7.65 11.44 9.66 18.61 16.65 29.79l61.22 76.09c39.45 22.98 30.76 23.58 59.24 35.54 1.46.63 3.29 1.23 4.76 1.86 22.25 9.37 26.75 15.23 57.03 15.91-15.26-20.86-65.27-32.98-79.54-39.81v-46.43c46.54-12.43-14.4-.79 53.06-33.14 12.85 19.24 13.4 8.88 19.89 33.14h53.03c7.06-17.56-13.67-12.36 26.49-13.25l-69.47-56.53c-33.24-16.31-29.94-17.72-29.94-89.39 60.3-14.05 52.24 5.97 79.51 13.27-7.04-10.57-83.94-74.2-6.59-126 25.23 16.91 31.38 29.34 54.15 38.68 51.78 21.28 19.21 12.36 51.93 34.27-2.22-8.41-10.07-25.55-15.05-31.36-6.91-7.98-.91-1.34-10.73-9.19-41.9-33.61-28.79-36.01-46.9-66.01l-14.24-18.9c-2.96-5.57-2.46-3.01-4.19-12.43-.21-1.18-.26-3.19-.37-4.4l-.13-8.95c.42-30.23 5.71-35.02 18.66-54.36 47.12 0 43.25 9.71 55.57 24 56.07 64.81 14.4 46.85 57.14 75.49 0-37.93 3.38-53.06-10.96-82.06l-4.77-8.85c-16.38-41.49 3.17-59.6 48.19-48.21 34.99 8.84 67.01 55.85 67.01 92.68 19.89-5.31 27.43-22.43 56.72-62.69l39.89-59.57c19.5-22.98 21.04.24 44.18-35.39 17.88-27.51 37.03-33.42 60.64-59.2 20.58-22.49 20.21-27.2 30.6-16.76 13.53 13.48 6.44-1.99-2.09 17.57-15.63 35.99-49.76 59.7-66.49 93.31-.31.73-.94 2.62-1.3 3.32-.45.74-1.21 2.54-1.71 3.28-6.28 9.5-3.79 4.71-11.88 12.17l-53.29 59.96c-.84 1.13-1.94 2.72-2.8 3.82-8.95 11.7-17.2 22.04-26.31 33.4l-18.24 21.54c-.94 1-2.3 2.39-3.3 3.35-.97.95-2.43 2.26-3.4 3.2l-56.04 62.79c-.76 1.23-1.83 2.91-2.54 4.19l-32.87 47.22c-20.73 22.51-13.77 19.29-27.75 44.55-3.92 7.06 2.41-2.23-6.83 7.77-.99 1.05-4.53 3.61-5.39 4.74-11.52 14.79-.45-4.64-5.84 13.27l-140.03 254.41c-9.35 22.15-8.82 15.26-16.99 42.69-12.62 42.12 2.7 15.58-25.18 33.82-42.35 27.69 4.06 13.56-67.03 19.87-57.51 5.13 8.77 20.39-98.97 20.39v-19.92c-76.45 0-121.68 17.04-176.23-16.05-28.61-17.35-55.86-40.75-88.08-51.72l-28.03-14.94c-.66-.47-2.15-1.65-2.88-2.12-38.97-24.82-37.64-34.53-89.39-34.53l-19.86-39.81c-26.31 0-36.28-1.2-55.23-12.77l-56.69-22.22c-31.26-11.02-21.99-24.14-65.15-33.24-51.44-10.84-81.67-53.53-136.77-68.84-40.15-11.18-28-15.34-52.71-27.02-11.07-5.23-41.59-5.52-43.53-18.92-.16-1.18-.52-1.86-.99-2.7-11.68 0-27.51 1.42-38.45-1.33-11.83-2.96-4.03-.08-13.72-6.2-19.63-12.49-6.67-11.94-33.87-19.16l-51.8-21.13c-1.31-.7-3.01-1.62-4.29-2.35l-21.2-11.94c-29.74-12.46-5.84 5.79-32.3-14.11-1.57-1.17-5.26-5.28-6.78-6.49-9.66-7.61-1.41-2.27-11.73-8.19-4.32-2.46-7.59-3.17-13.63-6.23l-99.49-39.78c-22.8-12.44 0-1.65-18.04-15.13-21.85-16.36-29.23-2.49-32.66-33.64h-53.03c-8.17-22.51-14.45-16.98-26.54-39.81-49.29 0-31.73 4.58-61.25-18.35l-35.7-23.92c-1.1-.84-2.54-2.17-3.64-2.98-26.83-19.69-63.61-34.53-89.1-56.83-24.16-21.17-36.67-18.19-73-33.08-1.55-.61-3.3-1.21-4.87-1.78l-23.87-9.3c-27.85-14.68-57.98-54.07-93.13-39.47-21.83 9.09-10.73 3.38-27.9 31.81-.73 1.23-1.68 2.98-2.49 4.18l-21.93 24.55c-46.28 55.05 18.9 84.26-.73 125.17-33.67-24.66 5.1-26.51-59.68-26.51-7.41 27.69-2.96 14.05-26.54 26.51 0 21.12-2.75 51.49 1.85 71.12 5.42 22.9 26.41 51.67 40.84 71.92l56.53 75.78c1.13.86 2.73 2.02 3.9 2.85l43.01 30.1c15.31 15.08 12.9 16.49 34.92 31.44 6.3 4.27 14.91 9.63 19.68 13.45l77.87 61.38c6.28 5.92 1.75 1.81 10.52 9.4 16.86 14.66 22.75 11.52 45.49 20.81l169.98 95.27c29.16 23.93-7.23 20.55 45.78 20.55-14.74 20.13-11.49 13.24-46.41 13.24 6.81-32.09 5.23-9.31 0-19.89-13.72 6.57-22.82 9.4-45.83 6.62-13.19-1.57-12.41-1.46-21.41-6.15-23.11-12.09 3.37 2.52-12.98-11.15-16.05-13.35-42.43-7.75-65.6-8.27l-6.72-.94c-33.14-8.85-13.54-10.84-21.73-17.33-11.36-8.95-25.34-3.09-46.35-13.61l-68.22-32.19c-19.55-7.75-17.24 5.28-30.07-11.05-11.88-15.18-.29 2.98-.08-9.63.03-1.02 1-1.63.68-2.41-33.87-.76-31.17-14.79-54.55-25.73l-28.87-16.73c-18.71-12.72-2.04-8.34-29.29-10.6 3.59-15.36 5.97-12.06 1.89-23.24-4.4-12.01-17.8-16.88-26.88-24.66l-13.77-12.82c-1.44-1.28-5.76-4.76-7.15-6.1-13.11-12.56-16.49-30.83-31.38-41.56l-12.88-7.02c-10.31-9.55-8.84-3.09-9.26-23.87-41.91 0-61.2 3.98-92.87 6.62 3.48 14.76 7.28 27.22 12.2 40.86l13.69 39.39c1.15 2.31 18.74 27.3 21.85 31.23l117.55 110.8c.11-.79.05 2.22.47 3.21h33.19c2.99 7.26 1.6 8.46 2.86 10.92l123.17 75.23c1.1.83 2.65 2.06 3.75 2.93l22.32 17.46c7.1 3.66-2.14 1.43 14.79 5.07l55.57 17.38c62.03 23.95 46.49 34.84 135.61 36.83v13.27c-291.69 0-184.61 14.32-237.87 24.32-33.9 6.38-34.53-5.92-53.9-24.32-16.15 3.77-34.47 22.25-47.92 14.87-.63-.34-2.1-1.7-2.75-2.1-.71-.39-2.23-1.72-2.96-2.14-15.55-8.82-27.53-6.68-42.06-8.46-39.13-4.79-27.14 6.7-30.28-22.06-24.06 0-62.85 7.43-80.83-8.95l-5.39-10.97c-22.51 0-31.05 1.94-46.75-6.26-1.31-.68-2.72-1.96-3.95-2.67l-11.99-7.95c-1.26-.76-3.01-1.6-4.29-2.33-1.26-.76-3.07-1.52-4.35-2.28-1.23-.76-3.06-1.57-4.27-2.36-1.23-.75-2.93-1.72-4.08-2.53-7.54-5.19-10.34-9.3-14.37-12.18l-7.98-5.28c-43.82-24.29-52.22-41.28-93.84-26.54-20.07 7.12-30.39 6.59-34.29 32.11-.15 1.1-.34 3.06-.41 4.22-2.94 32.69 20.33 89.2 54.18 96.74 35.78 7.95 27.53 11.57 53.68 20.23 14.13 4.66 9.14 1.7 22.88 3.72 37.24 5.39 40.44 22.17 79.65 26.41l130.84 48.18c33.09 25.66 64.89 12.2 93.5 25.47 39.44 18.3 6.15 10.42 60.57 19.42 28.84 4.77 14.68 10.08 36.17 16.86 12.46 3.93 12.12 1.15 23.4 3.11 41.2 7.12 39.05 36.68 112.89 46.26l80.67 25.46c66.06 15.6 92.97 40.44 165.11 40.44 12.85 24.34 4.5 21.31 35.52 30.78l73.31 19.53c23.48 8.32 50.07 15.26 68.16 31.83l44.21 27.66c1.39.68 3.17 1.5 4.55 2.15l237.69 140.79c1.13.81 2.75 1.91 3.88 2.75 57.08 43.87 44.31 7.04 88.34 44.32 1.36 1.12 4.71 4.42 5.83 5.47l39.68 28.39c11.55 10.97 18.09 21.89 22.51 37.36l9.11 68.99c-4.81 27.2-45.62 88.68-10.68 151.4l67.95 97.81c9.37 15.78 12.88 22.46 12.59 47.17-.47 46.09-13.29 14.63 6.86 45.7l15.76 24.47c49.83 88.29-11.36 73.42 2.09 129.72 5.79 24.05-3.32 10.16 12.17 21.83 2.49 1.88 42.17 14.06 42.85 14.19 18.14 3.24 26.07-.89 36.83-13.01 17.04-19.14 2.38-16.28 36.09-24.16 0-52.27-4.45-26.73-13.22-59.68 20.26-4.71 25.5-10.31 39.76-19.89 33.06 22.12 40.55 46.61 56.8 58.97 4.63 3.51 20.89 4.27 30.52 19.13 6.99 10.73 10.55 29.32 10.39 41.12-.68 51.59 7.23 95.8 1.89 146.21-4.9 46.54-34.82 42.38-7.91 120.07 7.88 22.77 30.08 55.22 19.76 79.33-11.75 27.48-7.61 62.4-10.6 87.89-4.89 41.49 31.65 47.75 18.8 110.46l-15.97 33.79c-8.27 19.42-5.68 50.21-1.94 69.91 4.74 24.97 7.62 22.8 14.77 39.19 15.05 34.44 6.3 16.46 2.32 39.73l-1.25 8.51c-.11 1.91.16 7.59.21 9.76l-6.44 74.68c-10.6 40.3-1.47 33.66 9.29 67.97 7.75 24.79 10.55 150.16 4.53 179.92-5.86 29.06-21.65 14.95-11.73 51.8 11.73 43.66 12.57 41.57 12.57 101.27l27.92 18.46c13.82 7.04 19.09 7.64 38.38 8.06 3.82-35.02-3.59-6.83 14-25.76 40.65-43.81-2.38-29 5.52-107.05 5.55-54.71 8.33-2.3 12.17-40.81 3.33-33.06-2.06-4.87-9.5-34-9.76-38.08 1.1-148.09-2.59-196.65-2.15-27.51-13.09-58.97-13.14-86.58-.13-54.55 23.01-80.1 10.39-183.04-3.69-30 3.75-42.51 5.03-78.24.63-17.45-2.17-59.62-1.94-90.19.24-40.68-6.65-64.13-6.93-93.03-.61-54.99 36.22-62.42 10.6-116.19-25.55-53.63-22.36-166.57-20.26-220.41.57-13.22 4.81-32.2 10-41.02 25.91-44.15 50.15-40.02 99.35-40.02.68 31.12 11.6 32.62 4.45 64.21-8.37 36.83-13.01-2.85-1.07 51.17 10.73 48.34 10.63 85.01 2.33 129.82-5.52 29.61 5.65 77.17 9.79 111.22 4.79 39.6-7.72 68.97 4.42 121.11 44.66 23.66-3.58 5.99 20.63 22.77 8.9 6.23 29.34 3.77 45.65 3.77 2.95-35.62 4.71-13.82 22.87-37.4 26.26-34.16-15.7-59.42-9.42-99.07l12.98-47.09c7.8-22.38 8.06-62.43-1.67-87.74-8.22-21.38-8.35-14.08-8.2-36.49.21-31.77 7.28-52.66 13.35-94.04 8.54-58.03-20.1-41.72-22.85-81.74-1.28-18.77 29.14-73.66 37.41-88.68.6-1.08 1.72-2.78 2.35-3.93 18.67-35.28 7.59-33.14 26.1-40.62zm1903.02-265.28c-.66.65 1.88 1.83 2.01 1.96l-2.01-1.96zm-59.68-46.43c-.66.65 1.88 1.86 2.01 1.99l-2.01-1.99zm-1478.63-1041.28l-12.95 7.65 12.95-7.65zm0 0c11.6-17.32 27.07-19.76 18.09-50.96-7.64-26.59-38.4-26.17 1.52-34.47 29.73-6.18 60.83-1.86 70.02-36.85 2.33-8.75.49-22.33-2.12-30.65-14.48-45.13-88.89-37.59-113.31 14.39l-148.6 236.04c-29.84 32.54-46.12 93.34-64.02 134.91-8.74 20.26-4.06 9.18-14.06 25.75-2.51 4.19-1.91 2.51-7.35 12.54l-18.64 41.04 16.99 22.77c15 37.62 10.73 63.45 69.18 63.45.47.86.73 1.6.86 2.85l56.93 71.98c10.55 15.21 16.36 32.62 30.03 42.93 25.83 19.6 58.52 8.4 84.38 21.72 45.05 23.22 2.2 19.69 93.05 19.69 5.24 10.55 6.81-12.2 0 19.89h66.3c2.25 8.45 1.76 11.62 12.8 16.7 12.77 5.86.53-.08 11.96 1.94 34.89 6.12 70.36 5.02 103.65 18.68 53.35 21.86 43.27-14.94 77.11 35.63 15.66 0 31.34-.34 46.86-.34 7.43 0 19.08-.05 26.2.78l35.83 12.02c25.05 10.05 52.87 4.66 74.94 15.94l81.43 30.26c22.4 3.61 20.07 7.66 53.05 7.66 5.24 10.55 6.81-12.19 0 19.9 36.78 3.06 65.73 14.68 97.82 28.61 1.25.55 3.01 1.54 4.16 2.06l120.69 50.65c19.5 17.38 43.45 11.54 69.07 11.54 6.49 11.76 15.08 15.58 32.72 19.84 6.34 1.57 21.28 4.82 26.44 7.2l19.6 13.56c14.53 8.51 7.99 2.72 23.82 9.5l125.46 60.07c1.64.55 3.53.87 5.23 1.39 8.59 2.67 5.76.08 15.68 4.21l58.76 35.08c6.6 5.81-12.98-1.36 7.77 6.41 10.45 3.93 24.43 1.91 35.94 1.91 9.9 24.45 23.87 8.56 54.81 31.38 22.28 16.42-1.02 8.8 25.76 14.01 20.05 3.9 21.83-3.35 40.96 5.49l37.69 22.02c15.94 6.25 9.92 3.32 17.3 9.18l53.66 26.1c36.54 12.12 57.22 4.82 83.65 15.26l11.63 4.92c16.3 6.2-4.56-1.39 10.44 3.51 54.91 18.01 54.6-4.61 122.34 26.62 52.37 24.13 133.41-6.07 188.8 17.77l129.72 27.9c74.25 6.47 38.87 21.75 95.27 31.18 14.14 2.38 28.01 2.64 41.83 5.34l35.05 3.69c25.67.89 40.75 15.36 60.04 26.43 16.2 9.35-4.58 2.31 18.82 7.75 12.38-25.86 7.12-42.48 26.1-66.74 19.39-24.82 31.64-23.85 47.24-45.6 11.88-16.6 19.4-40.02 32.09-60.75l12.46-20.71c20.44-31.93 27.9-74.59 49.29-103.23l43.68-95.67c10.89-38.45.29.79 2.7-32.32 2.48-34.05 12.4-38.74 11.99-85.54-.55-58.42 5.68-130.66-7.57-178.38-5.63-20.23-3.61-13.9-5.89-40.62l-9.13-46.83c-.19-1.15-.21-3.14-.42-4.26l-1-8.22c-.23-1-.68-2.91-1.02-3.9l-40.46-103.52c-16.65-43.56-48.71-85.78-63.32-128.99l-31.38-61.43c-16.15-18.95-23.59-32.83-35.91-56.98l-133.96-144.54c-41.23-39.89-57.46-71.4-47.69-137.39 6.88-46.3 3.56 2.75 11.64-34.79 9.29-43.11 2.52-93.39-9.34-133.93-13.43-45.86-26.83-95.67-48.01-137.68-8.53-16.88-7.87-15.52-14.02-32.43l-49.92-89.31c-9.24-13.58-11.23-13.03-20.31-26.17-9.29-13.53-7.98-15.02-18.17-28.19l-130.69-154.51c53.03-28.06 113.31-41.64 169.75-62.32l33.84-12.9c37.98-14.64 37.17-4.38 81.53-4.38 16.62-24.83 26.54-38.18 26.54-72.94-18.79-9.95-39.89-17.85-66.82-20.08-59.62-4.89-41.12 17.85-128.8 43.27l-132.03 40.38c-1.41.63-3.14 1.44-4.47 2.12l-53.61 32.67c-1.57.6-3.45.99-5.02 1.6l-159.49 86.87c-1.38.68-5.15 2.02-6.51 2.7-.79.39-2.62 1.12-3.43 1.57l-14.87 9.13c-1.28.73-2.98 1.76-4.27 2.46-6.23 3.46-7.17 3.35-13.61 6.68-94.54 49.13-39.23 2.72-111.89 47.32l-87.61 33.66c-59.96 13.53-103.13 28.06-156.36 31.04-19.45 1.08-11.29 5.24-33.4 9.09-9.32 1.62-16.28 1.12-25.65 1.12-7.6-14.34-23.43-39.18-35.03-51.2-32.92-34.08-57.66-49.68-109.22-64.05-37.04-10.28-18.61-9.94-54.71 9.14v39.81c7.75 5.18 8.06 6.6 15.24 11.28l73.21 59.44c11.15 11.44 19.03 14.27 24.26 28.74-18.4 0-33.66 2.33-49.29-3.69l-86.11-39.89c-1.15-.83-2.64-2.04-3.8-2.82-1.2-.81-2.8-1.89-4.03-2.65-16.49-10.55-25.05-22.14-45.72-27.79-16.05-4.4-13.48.36-27.67 3.32-52.14 10.81-55.2-9.53-55.2 60.28 27.19 6.33 34.55 19.34 57.95 34.86l8.35 4.93c-74.73 1.64-76.25 94.04-100.3 131.78-8.9 13.93-8.14 9.11-12.41 27.38-72.19 0-93.49 16.86-165.79 0-18.08 26.99-25.6 12.78-26.51 53.06 5.31 18.27 107.55 62.53 66.3 86.22-.79.36-2.33-.79-2.59 0-.24.83-2.31-.16-2.7-.29-29.5-10.05-70.46-36.96-94.33-39.79-37.72-4.42-45.39 1.29-70.12 16.23l-16.81 9.71c-41.51 29.76-.16 45.23-11.33 81.41-5.45 17.51-22.15 19.5 12.22 52.11-48.74 0-19.89 1.33-50.25 16.1-30.76 14.94-67.95 11.33-92.61 40.1-4.82 5.68-1.41 1.17-5.73 7.85-35 54 33.89 63.94 75.46 61.48l105.64 8.46c14.84 3.66 8.72 5.28 33.82 5.28-17.07 23.25-190.4 113.81-235.97 142.05-24.73 15.34-29.29 26.67-29.29 63.55l20.89 12.31c19.29 11.77 35.94 20.2 65.33 20.86l-26.83 46.48c-.86 1.08-2.3 2.46-3.35 3.43-.96.94-2.67 2.1-3.76 2.91-1.1.81-2.88 1.8-4.01 2.51l-8.35 3.82c-15.13 5.5-114.46 1-164.19 9.35-17.25 2.9-44.52 1.78-54.81 1.78l-106.69-9.85c-21.49-6.8-9.29-7.43-27.77-12.04-12.72-3.16-24.47-1.96-37.87-1.96-12.83 19.13-25.81 27.77-26.54 59.68-16.57-11.1-21.73-17.07-33.14-33.16-5.03-7.07-7.78-11.86-13.95-19.19l-6.36-6.91c-26.44-28.85-5.55-58.87-12.83-93.26l58 8.72c31.99 9.68 91.67 4.97 118.57-4.51l85.75-28.97c26.1-7.38 52.56-5.94 56.38-35.7 6.55-50.36-54.89-45.68-99.88-45.68l14.92-11.65c42.22-37.03 22.46-74.57-81.25-74.57zm-954.82 955.06c0 71.27-9.37 129.61 13.28 172.44h33.13c-6.86-32.38 3.72-30.94 6.62-66.33 13.46 15.49 15.47 36.67 53.06 39.81 4.24 38.69-10.03 2.2 21.8 31.25l64.58 41.41c31.98 21.91 15.05 19.61 78.96 20.31 33.14.34 66.67-.13 99.91-.13v-19.92c21.7 0 48.63.08 61.9-12.04l17.67-34.36c38.51-.87 20.52-3.2 53.71-32.75 1.1-.94 2.57-2.22 3.69-3.14l7.93-5.84c12.93-9.84 5.03.24 12.65-10.26 22.93-31.54-8.77 25.24 2.01-7.25l51.28-54.83c23.29-11.81 21.59 7.25 43.26-36.31l4.45-8.79c1.73 20.6 8.9 55.12 37.93 45.93 21.23-6.72 15.42-36.27 22.98-64.62 6.47-24.26 15.08-38.14 18.17-68.05 2.22-21.6-1.84-15.05 5.26-34.53 13.29-36.62 15.15 13.51 15.15-71.06l-10.62-174.4c-.32-1.1-1.21-2.83-1.55-3.85l-25.18-67.19c-1.44-5.13-1.57-10.91-5.55-16.15-18.29-23.87-1.44-4.66-14.5-5.08-.52 0-2.43.19-3.01.21-25.2.53-4-12.01-24.42 8.64-33.37 33.79 11.88 8.38-21.25 32.3v-19.89c-49.13 0-20.21 1.96-44.21-15.47-18.27-13.27-5.42-3.51-21.33-11.81l-8.67-4.63c-13.79-7.96 2.7-.34-11.96-7.96l-47.37-12.3c-85.33-23.98-44.24-14.47-65.81-1.28l-87.86 14.05c-24.53 5.08-12.23.29-28.59-1.36l-20.23 2.52c-25.18 3.84-17.09-4.45-34.84-6.44-25-2.83-11.99-.89-24.34 6.88l-76.64 83.16c-13.74 14.13-4.74 3.61-14.47 18.71-5.95 9.21-4.35 7.91-10.37 16.44-37.14 52.66 2.41 24.63-22.64 62.71-15.13 22.93-19.26 8.46-31.8 28.43-16.15 25.73 8.66 10.97-28.48 64.39-.92 1.33-12.09 20.02-12.49 20.68-14.76 27.19-10.41 17.85-11.38 54.94-1.28 50.33-19.82 62.06-19.82 112.81zm3195.99-2546.78c0 48.48 38.03 39.79 72.92 39.79 26.62 0 32.9-12.1 53.66-19.32l19.84-6.65c1.57-.55 3.17-1.36 4.82-1.86 63.83-20.52 133.43-8.06 198.48-13.84 24.31-2.18 111.19 3.37 142.31 20.41l29.18 17.25c1.42.68 3.2 1.31 4.69 1.94 18.9 8.06 154.16 92.34 163.69 128.07h-119.35c-23.43 27.06-16.91 24.73-6.63 53.05-42.35 0-32.29-1.57-64.36-9.55-57.82-14.45-9.05 8.4-61.64 9.55 0 44.68 25.65 79.76 62.79 103.05 19.58 12.31 30.73 30.68 43.3 49.5-35.03-2.91-9.01-6.75-34.89-10.81-22.23-3.48-14.53 4.19-44.66 4.19-8.85 0-8.11-8.14-19.05-14.14l-94.28-31.67c-27.8-10.57-62.93-14.08-92.22-7.25v72.95c54.89 36.75 86.46 15.29 134.04 44.99l150.11 37.88c26.23-1.6-7.14-2.33 15.66-3.8 49.99-3.22 45.96 45.31 133.59 2.93 27.38-13.24 24.11-19.34 24.11-55.46 20.73 1.7 22.95 7.28 45.54 5.58 69.21-5.19 35.34-.32 95.46 12.56 22.77 4.89 27.4 15.02 44.65 15.02 15.5 0 33.19-17.72 33.19-33.16 0-14.71-18.95-37.59-28.97-50.62-20.39-26.52-24.35-9.48-54.11-25.47-22.19-11.93-19.68-25.26-44.52-35.07-33.79-13.32-31.28 2.04-51.43-28.14 51.67 4.32 88.68 50.6 125.98-19.89-12.25-23.09-7.67-30.47-39.81-33.17 0-42.29-7.67-38.58-31.47-61.37-24.78-23.82-42.5-51.93-70.2-69.05-23.13-14.29-9.84-5.97-24.52-21.91-25.81-28.06-57.93-57.43-93.55-72.24-1.91-.79-7.96-2.54-9.97-3.25-36.73-13.14-65.7-47.14-97.19-54.62l-29.47-5.08c-20.18-8.98 5.18-4.71-32.54-13.14l-70.46-1.18c-31.01.97 7.12-3.22-24.68-3.22-38.95 0-5.78 16.88-38.01-1.67-46.9-27.12-34.57-16.55-83.15-15-31.02.99 7.09-3.25-24.68-3.25-25.45 0-75.83 1.05-101.67 11.02-2.01.79-7.4 3.2-9.31 3.98-2.18.89-16.57 6.6-18.75 7.83-27.09 15.28-10.41 12.72-30.78 28.92l-7.87 5.37c-1.1.83-2.73 1.93-3.83 2.8-6.64 5.44-39.99 37.74-39.99 46.22zm-490.64 2845.22c-11.15 11.12 7.2 3.4 7.35 3.45 17.75 7.07-.34-10.49-7.35-3.45zm-808.98-99.46v6.62c38.37 0 55.18 6.62 99.49 6.62l.97 6.62c.08.29-5.84-1.41 3.98 9.79 7.8 8.95 8.69 7.65 21.7 9.5 45.38 6.44 23.92-10 59.07 14.32 27.41 19 15.58 8.46 51.54 21.44 21.07 7.59 36.86 12.12 56.7 16.23 55.07 11.38 50.9 19.65 118.15 21.2 30.18.68 24.34 1.96 39.34 11.7 31.62 20.49 101.29-2.52 134.87 12.9 27.25 12.51-2.4 11.94 50.34 22.69 40.07 8.17 6.36-.41 18.22 7.2 24.52 15.76 30.65 8.8 51.95 15.86l44.76 14.4c12.35 3.87 16.88 8.27 25.57 14.19 1.65 1.12 6.08 4.55 7.72 5.57l92.58 40.1c28.93 11.15 17.91 14.95 57.95 14.95v19.92c58.84 0 21.91-1.65 68.03 24.84l16.88 9.65c5.55 3.35-2.38.84 12.25 7.59 18.4 8.48 18.14 1.65 48.09 18.46 1.44.81 24.84 13.35 25.33 13.53 28.69 8.9 58.74-11.91 85.49 6.6 21.88 15.15 18.43 5.78 41.62 26.14 15.1 13.33 13.63 16.94 40.51 19.19 0-53.68 1.26-33.84 9.24-57.06 6.34-18.38 6.73-36.28 12.46-53.87 14.11-43.08 12.02 10.24 37.98-101.32l-80.38-9.53c-.34 2.18.89-11.09-16.78-18.76-15.94-6.91-8.09-1.52-21.23-5.66-29.86-9.37-17.4-13.11-41.93-17.93-67.32-13.19-6.49 6.86-68.7-24.1l-12.93-7.02c-1.29-.68-2.75-1.86-4.11-2.51-35.24-17.22-104.41-4.56-146.01-6.49-28.87-1.36-30.02.31-32.29-27.38l-13.28 19.92h-66.32v-19.92c-25.13 0-30.6-2.41-49.26-2.75l-152.05-34.63c-59.21-15.31-111.92-5.05-143.59-8.95-36.94-4.55-16.55-15.86-45.31-17.64-12.54-.79-3.06 4.29-27.51 4.29-7.96 0-5.47-12.82-45.91-13.77-49.47-1.15-145.45 8.54-176.1-3.53-35.89-14.08 4.94-19.42-38.11-8.64-.94.21-2.86.89-3.8 1.13-27.43 6.59-94.59-1.7-147.18-1.7zm-66.32-119.39l2.01 1.97c0-.94-1.31-2.65-2.01-1.97zm-968.04-371.41c0 111.5 21.7 82.19 76.95 108.73 32.12 15.44 40.73 10.65 82.19 10.65 5.21 10.55 6.78-12.2 0 19.89 123.31 10.26 75.2 9.92 103.55 22.41 33.11 14.6 39.65-9.84 85.17 14.32 32.85 17.43 10.91 5.68 52.22 12.17 38.29 5.99-5.76 16.54 53.03 22.48 36.69 3.72 33.66 14.27 46.06 20 38.69 17.85 27.88-17.28 31.28 21.38 15.65 1.29 29.84 4.74 41.62 11.41l37.85 21.83c1.15.79 2.72 1.94 3.85 2.75l7.27 6.02c1.07.87 2.51 2.2 3.51 3.12 54.89 46.9.26 11.72 89.67 43.13 1.63.58 3.25 1.31 4.95 1.84 12.3 3.87 40.83 5.86 44.73 6.98 9.06 2.57-.1-1.78 13.25 7.57 53.26 37.19 46.35-10.08 58.31 34.63h13.22c-7.59-31.8-4.47-10.32 0-19.9h79.6c15.28 27.7-26.78 17.25 54.75 15.13 37.67-.97 10.79 11.39 38.06 11.39h218.85c22.82 0 25.65-4.9 46.4-6.62v-13.27c-25.59-2.12-26.12-6.63-59.67-6.63-6.02-12.11-5.11-8.32-6.65-26.54-64.18 0-25.76-8.24-70.36-22.45-16.54-5.29-21.64-2.83-37.93-8.54-6.96-2.43-11.54-5.52-13.45-6.38-16.17-7.2 5.92-.53-19.21-7.33l-38.61-14.42c-1.25-.74-2.9-1.78-4.13-2.49-1.34-.73-3.09-1.57-4.38-2.3-64.54-36.02 19.64-7.2-62.19-30.65l-115.77-50c-42.9-22.64-40.8-8.22-72.76-20.05-4.35-1.59-25.91-12.67-31.67-14.73-19.06-6.86-15.73-3.38-38.32-8.12-10.13-2.12-8.51-1.36-20.39-6.15-52.38-21.12-23.9-6.18-59.1-13.82-19.63-4.27-18.35-9.79-31.96-14.47-27.25-9.35-59.13-3.41-82.92-9.92-17.09-4.69-7.33-1.97-14.4-5.5-15.42-7.8 6.49-.76-16.2-10.29-17.88-7.51-19.55-1.57-37.93-8.5-21.41-8.09-1.44-9.53-31.38-15.03-15.92-2.93-32.75.76-50.57-2.51-15.55-2.88-54.84-20.63-70.2-23.06-22.3-3.51-26.88 1.83-36.54.21-20.52-3.48-12.98-9.06-26.65-15.86-35.88-17.8-17.43 10.96-71.19-21.94-44.58-27.24-53.19-10.57-75.64-10.57-40.21 0 8.69-19.89-86.17-19.89v19.89zm-994.61-444.37c-.65.66 1.84 1.84 1.97 1.99l-1.97-1.99zm-716.1-411.2c-8.9 6.73 13.97 6.65-19.87 6.65-7.25-19.94-27.04-24.73-44.63-41.62l-115.87-63.13c-12.8-4.92-4.87-.65-13.59-6.36-22.69-14.95-16.25-21.54-51.35-21.54l-2.28-5.37c-.16-.47-.94-2.54-1.12-3.11-1.81-5.73 2.01 1.31-3.25-11.41-27.93 0-26.8 2.77-46.43-6.65l90.43 128.44c32.06 22.3 8.66 37.37 62.09 37.37l-14.22 19.11c22.8 2.59 25.37 8.32 36.62 18.17l72.35 53.63c13.69 4.24-5.63.08 11.17 2.12 7.12.86 25.03-.19 33.35-.19 3.09 37.54 10.29 19.95 41.41 31.52 1.52.55 3.17 1.39 4.61 2.01l8.69 4.58c1.38.63 2.95 1.65 4.39 2.26 18.64 7.53 39.79 6.07 60.2 6.07 5.29 10.55 6.81-12.2 0 19.89 45.39 0 49.84-2.9 53.09 26.54 16.72 0 42.5-2.46 57.82 1.83l84.98 41.05c12.7 4.81 13.01 2.3 25.52 7.59 18.33 7.69 2.99 3.06 20.94 12.22l62.82 30c1.7.57 3.61.78 5.32 1.36 1.62.55 3.53.86 5.13 1.46l205.7 92.71c1.44.63 3.09 1.49 4.48 2.15l17.74 8.77c21.55 8.27 29.32 8.74 44.11 22.25l38.47 21.14c16.65 5.58 9.95.45 24.9 8.28l37.74 21.96c26.04 9.68 39.16 24.91 73.79 25.67 4.29 12.12 4.21-5.65-.61 7.23l-6.04 12.67 115.24 57.19c10.76 6.07-.42 7.12 23.98 9.13 10.73-29.63 31.83-13.16 59.68-26.51-1.13-50.65-15.34-29.92-49.97-49.47l-86.35-52.88c-20.55-19.97-77.14-37.19-104.67-54.52l-44.29-28.68c-12.88-6.7-.13-1.91-16.96-9.53l-108.75-50.39c-27.99-8.4-15.53-16.75-58.64-27.61l-199.84-78.63c-26.2-14.4-40.7-26.8-69.96-36.12-1.68-.5-3.41-1.1-5-1.65l-33.82-12.59c-20.94-7.8-46.28-29-92.4-46.85l-120.35-65.39c-32.71-18.71 22.96 10.45-7.48-3.82l-69.02-39zm2539.55 1585.13l1.94 1.96c0-.94-1.28-2.64-1.94-1.96zm-324.93-13.3c-11.1 11.13 7.25 3.41 7.41 3.46 17.74 7.09-.34-10.5-7.41-3.46zm-33.14-39.78l1.94 1.99c0-.94-1.28-2.65-1.94-1.99zm-232.06-106.11c-.71.65 1.81 1.86 1.94 1.96l-1.94-1.96zm437.59 86.22c-9.37-9.87-4.79-8.43-21.1-12.02-15.21-3.32-19.74 1.26-35.57-4.24-41.02-14.26 34.31 18.59-12.43-7.43-12.78-7.12 3.37-1.89-12.93-6.99-23.72-7.38-18.07 5-47.75-11.96l-7.8-5.47c-1.33-.66-2.9-1.65-4.39-2.2-21.89-8.14-55.57 3.3-109.96-9.37l1.02-4.58c-1.02-11.83 12.98 10.28-1.18-6.73-17.25-20.65-80.17-9.89-87.32-9.29-48.81 4.11-15.52-8.61-61.09-11.13-1.33-.07-3.27.03-4.66-.02l-48.24 2.33c-81.03 12.17-49.68-11.1-86.71-6.44-25.97 3.24 9.42 5-25.6 4.47-37.15-.6-30.92-6.85-63.53-2.69-23.92 3.03-25.15-8.61-40.46.91l7.64 12.93-27.51 13.59c52.58 0 96.64 29.71 119.83 32.69 14.26 1.83 37.37.47 52.58.47 10.55 15.79 8.01 6.91 13.24 26.54 70.65 0 31.73-2.48 88 7.86 48.3 8.87 31.12 12.04 84.42 12.04 3.84 44.55 4.34-8.25 81.53 37.82 18.32 10.94-9.03 1.05 22.82 10.31 9.53 2.75 12.86 2.93 27.46 5.73 17.46 3.35 44.34 4.27 63.81 9.11 14.48 3.56 12.44 5 25.37 7.78l52.71 13.61c31.78 11.28 14.24-.37 76.8 22.64 21.49 7.9 37.22 5.76 67.21 5.76 25.71 38.42 6.57 9.68 59.84 39.62l52.58 20.32c22.99 8.14 22.04 6.38 53.35 6.38 25.02 47.3 8.69 13.43 77.42 48.56 30.94 15.78 18.04-12.41 22.01 24.36h66.33c1.83 16.52-12.09 11.55 39.05 40.57 36.91 20.97 25.18-4.97 98.6 38.72l20.29 8.82c4.58 1.38-1.73 1.25 14.92 3.77 12.93 1.93 26.28.99 39.34.99 10.23 38.37 27.27 27.46 59.68 19.89-7.28-27.22-4.98-19.89-39.82-19.89 5.08-24 13.22-9.81-15.23-30.68-15.99-11.72 4.14.14-16.1-11.38-29.68-16.86-14.29 4.37-44.86-20.18l-22.2-21.49c-22.17-35.91-35.1-30.86-53.29-36.46l-35.78-17.72c-25.65-12.72-31.83-18.9-55.57-23.01-68.23-11.86-19.57-22.67-83.57-49.6-7.17-3.04-6.81-2.28-14.24-5.68-31.17-14.24-17.72-15.91-56.98-15.91-.47-1-.37-4.06-.47-3.25l-1.18-6.02c-8.38-18.01-17.98 1.33-38.92-19.16-30.52-29.89 34.39 7.33-35.91-20.78l-63.79-29.37c-.47-.24-15.05-8.4-16.91-9.61-52.74-34.97-4.03-21.77-74.13-31.98l-15.96-3.93c-1.13-.31-3.27-1.02-4.71-1.93zm669.72 218.87c1.13 13.76-1.91.44 2.36 10.89l20.21 26.22c5.54 4.01 2.27 1.44 8.19 5.05 45.86 27.88 11.31 18.88 57.08 55.65 1.55 1.2 5.84 4.74 7.44 5.84 10.18 6.96 1.25 2.04 12.61 7.3 8.33 3.85 14.01 3.3 24.71 8.43 13.43 34.31-27.95-6.94 5.55 33.27l6.86 6.57c61.59 60.8 71.8 37.92 89.05 63.86 13.79 20.78-5.76 7.78 17.98 22.17 17.87 10.86 23.92 3.82 47.45 18.9 9.76 6.26 8.22 6.78 19.63 13.56 5.37 3.17 24.55 11.57 27.54 12.22 42.64 9.58 151.99 8.35 203.87 8.72 9.37.05 24.19.47 33.06-.58 31.8-3.69 10.42-4.21 28.37-7.33 26.6-4.58 95.57 1.84 137.71 1.49 46.85-.39 29.78-5.47 54.78-11.51 34.5-8.35 152.41-2.17 203.4-2.17 6.34-13.17 9.5-23.72 13.27-39.79-11.91-6.31-29.37-10.6-40.33-19.37-10.63-8.45-17.85-22.14-19.35-40.33h-19.91c4.21 19.76 8.58 15.52-7.62 25.28-26.52 15.92-84.89 1.26-144.85 1.26-5.24-19.63-2.7-10.76-13.27-26.54-34 0-140.11 5.07-166.99-5.42-87.06-34.05-73.9-4.92-155.59-17.85-26.56-4.22-16.93-9.01-37.5-14.22-26.78-6.75-25.63 2.78-50.91-9.05-15.11-7.07-12.93-12.07-34.66-18.9-26.36-8.24-30.18-1.18-43.21-4.63l-8.04-3.3c-23.32-10.78-1.62-8.11-32.01-14.42-22.33-4.64-17.75 3.48-38.37-7.99l-65.57-33.94c-73.68-24.71 3.17 27.06-64.7-21.52-36.12-25.83-20.94 11.31-25.21-27.82h-53.03zm-2890.94-1028.01l-185.66-99.49 1.94 1.99c0-.94-1.29-2.64-1.94-1.99l185.66 99.49zm0 0c16.22 24.27 32.5 23.51 49.75 36.44l35.13 17.93c1.28.7 2.72 1.91 4 2.59 12.46 6.78-4.94-1.15 8.41 4.89 19.6 8.88 20.86 3.01 38.05 15l18.25 14.92c12.61 8.04 30.02 12.3 41.12 18.53l263.81 153.96c53.76 38.82 10.84 13.53 74.18 36.78l6.49 3.5c9.16 4.61-19.26-3.03 9.55 5.53l45.89-28.17c15.07-29.13 24.94-104.56.23-127.44-16.12-14.89-1.38-2.98-22.14-11.05-1.57-.6-3.32-1.23-4.87-1.8l-20-6.49c-35.31-8.35-60.96-18.06-88.81-37.17l-104.75-47.77c-10.23-3.35-15.49-3.98-26.64-6.52-46.59-10.55-45.31-21.28-91.93-25.49-26.54-2.36-15.81-1.39-37.79-16.75-1.15-.81-2.75-1.99-3.98-2.78l-38.56-21.43c-28.34-12.93-118.62-26.05-123.49-29.06-17.9-11.07-8.48 11.2-12.04-21.09h-66.3c-4.97-13.75 0-4.74-7.22-12.65-.92-.97-12.96-10.07-15.52-11.02-32.2-11.62-87.43-1.1-125.75-13.53-29.81-9.71-40.88-8.43-76.16-7.46-30.99.84-59.73-.94-73.74 18.11 21.81.5 29.34 3.54 51.44 7.73 1.17.21 15.88 3.53 16.22 3.63.68.21 2.44.92 3.14 1.13l54.47 14.55c24.42 4.01 24.61-3.11 39.68 6.89 12.02 7.95 15.79 21.07 30.34 29.39 23.92 13.64 66.96 18.64 90.7 28.69 25.75 10.86 24.55 7.48 58.84 7.48zm2440.06 716.29v6.63h39.79v-6.63h-39.79zm-862-285.19l1.99 1.99c0-.95-1.34-2.65-1.99-1.99zm643.16 218.87c24.21 16.2 15.91 4.95 45.09 21.2 1.29.71 2.73 1.96 3.98 2.67 27.83 15.26 21.05 5.65 40.55 12.56 38.11 13.51-11.96 1.99 21.96 18.59 20.57 10.1 39.47 2.14 58.55 10.55 7.49 3.29-5.97-.29 14.61 7.87 15.83 6.31 74.25 13.54 87.55 5.84l12.82-12.96c-86.63-20.2-63.47-7.19-66.27-33.16-9.34 0-37.82 1.18-45.07-.65-54.86-13.8 24.6 3.84-21.23-19.27l-179.29-92.6c-18.54-10.32-19.35-2.62-52.27-20.68l-63.79-41.83c-25.5-21.02-3.93 4.09-50.55-28.79l-9.76-5.26c-.73-.37-2.67-.81-3.43-1.15-17.32-7.83-39.94-25.16-82.53-37.85-53.05-15.86-32.95 15.97-98.67-20.65-39.81-22.17-42.82-1.1-98.97-20.42l-49.29-10.39c-49.7-10.34 18.14-12.25-80.09-19.37-122.52-8.9-52.35-11.49-86.74 60.26 10.6 5.07 13.19 3.87 19.94 6.62 28.51 11.57 17.41 15.44 44.37 18.27l95.25 7.85c48.37 2.7 14.29 15.7 68.68 22.22l38.95 8.82c21.38 4.77 33.53 3.48 51.9 8.35 45.15 11.94 31.18-3.22 74.26 18.56l24.52 8.66c35.03 9.77 16.76 9.82 38.48 21.68 29.81 16.3 25.47-4.43 53.19 18.82l116.24 56.61c29.71 12.93.42 14.95 50.28 22.64l22.01 4.53c1.13.31 3.33.94 4.77 1.86zm-371.29-1591.75c25.65-2.12 21.02-2.62 37.09-15.94l45.62-33.92c.97-1 2.07-2.65 2.99-3.67 41.8-47.58 87.37-72.82 109.27-96.29 29.87-32.01 13.82 2.95 45.84-40.42l107.49-98.05c12.23-7.64 4.43-.91 16.73-9.81 47.38-34.21 34.24-32.96 80.04-65.8 15.68-11.23 58.53-40.1 58.84-60.55.53-32.85-32.43-55.17-89.54-10l-30.15 22.88c-70.94 52.8-30.71-7.25-92.01 53.89L20669.5 4055c-34.6 23.51-32.9 9.22-56.66 49.4-12.83 21.69 0 20.05-30.44 22.58 2.35 28.53-.95 11.97 13.24 33.17-10.55 5.26 12.2 6.8-19.89 0 7.9 29.57 16.78 8.69 1.88 61.17-15.02 53.08-14.47 27.48-35.02 58.21zm-2433.47 119.38c-.21.81 1.39 1.07 1.49 2.04.06.97 1.31 1.78 1.42 1.99.21.5 2.12 2.99 2.12 3.59-.03.08 23.76 2.56-11.62 5.65.75 35.13 16.2 40.02 29.39 69.6 4.4 9.71 3.45 9.89 8.19 18.77 16.99 32.06 10.76-11.99 15.45 31.01 31.56 2.62 14.02-3.74 28.24 18.17.78 1.23 1.52 3.11 2.25 4.4l42.79 56.69c15.42 18.71.16 13.58 39.45 13.58 1.96 24.08 12.9 31.52 32.17 41.31 18.53 9.42 25.99.73 20.88 25.02h46.39c14.08 34.08-19.45 9.03 29.1 30.15l47.98 18.8c29.92 11.2 49.99 43.45 82.95 49.68 7.17 1.33 9.84.57 17.48 2.35 18.09 4.24 9.06 2.7 14.82 5.11 1.41.6 3.01 1.57 4.42 2.22 1.39.63 2.96 1.68 4.32 2.3 1.39.66 2.98 1.6 4.4 2.25l97.68 41.54c21.96 9.11 42.14 4.45 63.58 16.02l64.28 15.29v19.89c60.07 1.34 37.35 26.54 106.09 26.54l1.72 5.87c11.73 21.04 39.11 16.09 59.34 25.91l38.01 15.02c35.36 7.88 11.7 13.85 46.88 19.48 6.46 1.02 25.36.05 33.08.05l-15.1-24.68c-24.5-19.56-37.64-21.76-71.12-21.76v-19.89c-59.78 0-41.9-15.78-73.97-25.49l-76.32-29.95c-85.02-26.9-58.4-12.95-68.53-37.43-35.62 0-39.6 3.64-63.94-15.62-18.32-14.5-35.94-9.01-60.96-18.61l-41.91-17.77c-1.31-.66-2.88-1.71-4.21-2.39-1.34-.68-2.8-1.85-4.11-2.51-21.2-10.86-49.55-9.4-67.66-25.2-1-.92-2.25-2.44-3.3-3.35l-59.73-33.09c-13.35-6.54-7.88-4.21-12.83-7.07l-87-40.04c-15.91-15.37-23.01-12.33-25.34-39.95-33.79-.75-42.16-30.67-68.26-44.44-55.57-29.29 8.27-15.76-58.29-54.44-25.6-14.82-35.81-35.91-49.39-63.35l-18.95-27.48c-14.48-15.39-21.73-16.38-23.93-42.4-11.43 6.44-13.08 3.85-19.89 6.62zm2048.89 1392.77c-23.38 1.94-7.51-2.28-20.63 6.39-7.09 4.68-36.14 40.05.71 40.05h338.2c25.34 0 2.41 2.04 19.87-6.65-4.98-12.91 6.07-6.76-32.62-13.72-22.51-4.08-22.95-6.15-53.58-6.15-8.32-23.53.19 18.9.58-6.86.13-8.74 9 11.49-.58-13.06-33.18 0-55.98-3.61-72.94-2.9-79.94 3.32 12.53-14.66-92.56-24.24-22.3-2.02-38.66-15.84-67.95-1.28-22.92 11.38-16.28 1.41-18.5 28.42zm-1007.85-775.97c-.65.66 1.86 1.86 1.96 1.99l-1.96-1.99zm-59.68-6.62c53.06 1.18 5.71-.86 49.08 30.47l51.14 35.62c29.11 17.36 23.38 6.78 19.14 26.75 11.72 0 28.19-.94 39.39.39 30.1 3.56 33.19 18.67 90.33 48.92l38.37 27.93c10.92 10.21 63.94 58.82 63.94 15.63 0-52.9-6.36-35.86-35.72-50.49l-45.02-27.9c-1.73-1.05-6.15-4.43-7.88-5.4-27.3-15.54-23.3-4.42-46.54-13.19-32.35-12.19 1.57-15.78-57.14-15.78-2.9-8.3 7.96 2.15 2.67-14.06l-10.63-10.07c-1.36-.66-3.45-1.08-5-1.68l-31.77-15.63c-1.13-.83-2.59-2.06-3.74-2.87l-59.47-33.35c-16.28-7.17-21.26-12.7-51.15-15.18v19.89zm3063.33 1293.28l26.55 6.62c-6.63-4.34-1.73-2.72-13.75-6.17-1.93-.58-9.08-.45-12.8-.45zm-172.41-46.43c-11.1 11.12 7.25 3.4 7.41 3.45 17.75 7.07-.31-10.49-7.41-3.45zm-198.87-46.43c7.59 18.84-5.94 1.57 34.08 18.97 37.66 16.39 22.04 20.76 76.87 29.21 42.9 6.62 36.15 4.77 41.52 18.14h66.32v19.89c126.21 0 31.07 19.92 192.31 19.92v-19.92c-154.3 0-95.78-2.72-99.39-12.25-3.93-10.39 2.54-5.54-9.29-10.73-29.32-12.85-35.65 9.19-74.23-12.93-38.09-21.85-27.8-2.01-57.51-15.44-12.46-5.65.26-10.76-35.02-18.53-20.13-4.45-26.51-.24-42.87 3.58 3.82-18.08 28.97-26.54-72.92-26.54-7.75 0-18.3 4.71-19.87 6.63zm-1239.94-1929.98c-21.15 5.65-82.55 80.83-99.49 106.11 31.8-8.48 62.98-44.26 82.58-69.96 15.73-20.68 14.61-8.67 16.91-36.15zm1041.01 1969.79l7.17-12.91c-35.07-16.93-21.01 2.96-40.36-33.53h-39.76v19.92l72.95 26.52zM19143.56 5194.8c-8.06-30.1-20.42-19.92-59.68-19.92 18.22 27.27 16.62 19.92 59.68 19.92zm338.12 815.75c14.13 19.27-.94 12.51 33.16 13.27v-26.54c-17.69.4-30.52-2.14-33.16 13.27zm1949.4 159.17c36.88 3.06 7.69 6.6 29.97 10.42 15.07 2.59 12.56-2.49 16.49-17.04-7.62-1.83-42.25-17.83-46.46 6.62zm324.9-66.3c34.5 2.85 27.85 18.74 46.44-6.65-19.64-9.42-18.51-6.65-46.44-6.65v13.3zm-2181.46-39.81h19.87c18.69 0 12.3-2.88 19.89-13.27l-39.55-7.64-.21 20.91zm1624.49-99.49c34.45 2.88 27.8 18.77 46.44-6.62-25.76-2.15-17.3-6-46.44-6.65v13.27zm-2055.45-756.08c19.47 4.56 20.23 6.65 46.41 6.65-4.04-6.07-10.82-19.89-19.9-19.89-13.4 0-20.73 5.5-26.51 13.24zm2367.11 994.84l7.23-12.9c-39.66-10.78-2.04-15.1-40.36-6.99 11.51 17.22 6.72 17.69 33.13 19.89zm-1359.29-252.03c19.5-4.53 20.26-6.62 46.41-6.62v-6.63c-28.69 0-45.52-18.19-46.41 13.25zm1253.21 198.98l26.28 7.43.21-20.7h-26.49v13.27zm-981.34-1731.03c24.4-2.01 24.48-2.12 26.49-26.51-26.46 7.07-14.84 2.98-26.49 26.51zm934.93 1711.13c34.37 0 25.71 5.92 39.76-13.27-19.16 0-36.91-3.42-39.76 13.27zM19236.4 5261.1h19.84v-19.89c-15.13 4.05-19.34 1.51-19.84 19.89zm232.04 729.56h19.86c-10.15-14.66-1.1-8.24-19.86-13.27v13.27zm3063.35 371.39c0-3.69.16-10.81-.44-12.8-3.35-11.73-2.15-7.38-6.2-13.71-6.18 29.18-13.77 11.77 6.64 26.51zm-3129.65-497.39c14.63-10.21 8.24-1.1 13.21-19.92-10.96 7.61-12.72 1.41-13.21 19.92zm132.57 172.43h19.89v-6.64h-19.89v6.64zm676.35-92.86c6.8 6.83 24-9.53 7.69-3.59-.15.08-18.82-7.54-7.69 3.59zm1220.02 92.86c6.86 6.81 24-9.55 7.69-3.58-.15.05-18.82-7.57-7.69 3.58zm682.97-72.97c6.8 6.83 24-9.53 7.72-3.56-.16.05-18.82-7.56-7.72 3.56zm-2506.39 112.76c0 7.8 14.26 14.94 10.26 0-3.98-15 16.88-.18-3.04-1.96-8.35-.76-7.22-11.52-7.22 1.96zm-384.53-848.92c0 7.78 14.26 14.92 10.23 0-4-15 16.86-.18-3.06-1.99-8.35-.73-7.17-11.51-7.17 1.99zm-1014.5-868.83c0 7.8 14.27 14.94 10.26 0-4.03-15 16.86-.19-3.09-1.97-8.35-.76-7.17-11.51-7.17 1.97zm2135.05 159.16c0 16.49 10.61 1.7 4.11 0-.1-.02-4.11-18.82-4.11 0zm-908.43 1857.03h-6.63l5.53 7.75 1.1-7.75zm1478.65-344.87h6.64l-5.54-7.73-1.1 7.73zm-2387.01-1512.16v-6.62l-7.75 5.52 7.75 1.1zm2387.01 1352.99h-6.63l5.53 7.72 1.1-7.72zm-669.7 66.32l-14.27 3.64 14.27-3.64z" fill="#d7b56d"/></svg>