<svg xmlns="http://www.w3.org/2000/svg" width="320mm" height="150mm" viewBox="0 0 32000 15000" shape-rendering="geometricPrecision" text-rendering="geometricPrecision" image-rendering="optimizeQuality" fill-rule="evenodd" clip-rule="evenodd"><path d="M9881.85 10020.6c-602.98-58.77-963.52-197.6-1403.93-621.2-223.84-215.34-268.34-400-265.11-706.25 3.11-295.84 38.39-617.18 52.12-918.31 26.52-581.36 126.94-1153.42 163.76-1727.78 41.69-650.64 19.47-1031.19 259.88-1664.52 294.72-776.43 650.94-576.62 1307.04-581.56 524.32-3.96 970.02-331.38 1211.76-782.09 270.06-503.55 532.23-797.64 1140.72-850.06 615.49-53.06 1066.02 274.64 1661.86-21.26 497.95-247.28 693.97-614.65 1128.89-891.64 438.67-279.39 1077.57-419.69 1588.69-315.58 544.39 110.88 677.11 588.23 1308.84 694.22 624.32 104.77 771.13-297.21 1605.05-221.74 493.18 44.64 1012.38 264.3 1281.24 696.34 268.72 431.83 432.65 936.24 577.06 1419.83 306.83 1027.23 607.81 2054.97 914.56 3081.88 76.1 254.72 137.88 513.17 214.79 767.52 76.41 252.75 175.19 497.96 247.44 751.39 163.83 574.47 211.66 1181.29 158.26 1775.31-58.23 647.78-191.33 947.92-448.77 1525.82-371.4 833.73-432.73 1210.24-1044.21 1966.43-183.27 226.61-381.07 299.35-663.33 339.41-620.89 88.17-1113.9 86.95-1736.39 41.38-1046.43-76.63-1121.12 184.54-1686.7 258.77-507.36 66.57-1082.08-182.22-1333.23-637.83-247.74-449.42-88.6-1124.26 369.12-1382.8 216.33-122.21 600.19-93.14 853.86-123.04 314.99-37.09 477.28-108.75 805.21-40.26 289.8 60.49 478.9 139.35 791.6 169.91 832.5 81.37 1533.83 76.61 2359.01-190.93 430.05-139.43 1017.74-341.78 1256.42-744.78 315.91-533.38 281.78-1014.23 208.26-1604.69-177.7-1427.35-306.73-1915.96-612.7-3276.87-51.35 5.68-190.28 80.92-225.94 119.14-4.42 80.77 71.45 419.71 91.62 523.13 147.59 757.02 288.01 1934.42 346.61 2697.59 29.61 385.79 37.29 709.88-172.85 1054.37-331.6 543.59-1036.66 827.73-1638.69 950.65-466.53 95.26-708.75 61.77-1127.36 77.46-278.73 10.46-827.58-65.04-1070.99-204.7 124.45-214.33 212-241.49 285.8-522.21 162.42-617.76 217.29-1338.23 217.71-1974.11.62-952.33-171.68-1751.54-365.22-2672.87-44.76-213.2-89.63-425.25-134.91-638.53-54.41-256.25-65.02-553.31-254.62-499.55-209.47 59.41-102.84 451.27-78.95 605.59 177.86 1148.73 405.39 2353.98 347.96 3510.2-27.35 550.37-127.54 843.65-250.24 1357.96-96.1 402.79-406.11 688.2-804.27 787.82-288.28 72.15-1185.42 27.42-1507.81-4.94-488.44-48.98-911.18-141.77-1384.69-208.95-253.08-35.92-407.57-136.12-379.68-420.67 26.4-269.59 19.69-516.46 19.53-786.46-.32-507.76 27.3-1025.05 23.32-1529.74-3.64-465.31 16.23-953.63 33.87-1419.08 14.87-392.14 60.78-1015.63-24.19-1387l-236.27 39.18c-193.31 294.43-538.3 4954.92-425.43 5259.44-612.66 126.6-1497.52 253.21-2086.74 9.93-300.7-124.15-495.71-243.03-728.36-472.79-67.73-66.87-239.7-256.93-271.32-339.52l21.97-1159.78c.02-186.73 23.27-390.6 27.24-576.16 6.28-293.78-.58-720.46 35.88-1004.14 21.02-163.46 26.24-396.6 32.01-565.54 5.52-161.87 21.86-331.35 25.25-490.6 4.95-232.29 111.99-848.14-93.83-994.01-312.59-60.32-328.8 856.05-355.99 1053.76-78.89 573.75-144.85 1851.37-150.97 2449.54-2 194.02-16.35 418.4-12.51 605.55l12.53 526.57c-.8 10.65-3.07 24.08-4.87 34.77-.41 2.58-2.39 13.96-2.73 11.8-.35-2.21-1.47 8.07-2.94 11.88zM22473.9 5275.11c-185.09-670.04-663.37-2464.11-901.23-3018.51-239.09-557.21-359.83-783.95-917.63-1068.19-471.03-240.04-1085.28-341.41-1600.84-204.4-595.61 158.32-853.88 489.1-1440.78-49.99-448.14-411.61-871.52-489.04-1472.59-454.24-525.67 30.42-1025.64 189.88-1433.65 531.29-358.41 299.91-605.79 780.7-1113.54 847.43-471.14 61.94-958.27-261.63-1552.03-158.74-500.52 86.73-886.54 365.81-1126.79 809.25-292.33 539.57-518.11 756.88-1170.43 780-535.84 18.99-984.78 65.58-1314.25 559.41-266.65 399.67-404.1 1076.96-432.16 1550.33-33.39 563.18-101.64 1106.81-138.53 1665.72-20.21 306.08-30.56 614.86-29.18 921.61 3.88 853.68-142.92 1471.22 797.43 2045.77 824.56 503.81 1096.63 173.87 1454.14 467.36 252.16 207.02 292.97 529.79 1109.13 856.95 417.82 167.46 1212.19 228.14 1660.08 170.88 241.02-30.79 521.97-168.03 751.19-148.03 209.53 18.28 463.46 179.95 681.88 240.89 140.58 39.24 277.02 54.59 417.98 84.38 131.98 27.89 252.92 75.93 387.38 101.76 135.01 25.94 652.09 44.85 719.66 129.33 68.57 85.78-198.12 462.28-242.18 588.29-69.8 199.69-54.18 586.58.44 790.45 119.39 445.65 533.63 852.27 955.32 1024.61 255.81 104.54 565.95 151.78 841.06 127.28 286.44-25.49 492.49-132.76 759.75-203.75 626.93-166.47 1094.29-31.92 1708.44-56.13 353.32-13.94 1397.23-81.71 1660.56-247.24 234.5-147.41 698.93-878.69 841.33-1142.49 230.33-426.7 430.38-892.81 631.01-1335.36 252.15-556.31 367.07-906.94 425.8-1522.33 51.77-542.28 23.22-1069.73-79.23-1604.45-98.4-513.57-304.56-1032.95-429.3-1556.86-123.14-517.22-267.17-1011.6-408.24-1522.28z" fill="#d7b56d"/></svg>