<svg xmlns="http://www.w3.org/2000/svg" width="320mm" height="150mm" viewBox="0 0 32000 15000" shape-rendering="geometricPrecision" text-rendering="geometricPrecision" image-rendering="optimizeQuality" fill-rule="evenodd" clip-rule="evenodd"><path d="M16109.55 9156.46c34.29 160.95 99.71 335.21 157.46 504.63 135.87 398.64 193 1041.56-153.85 1345.77-308.95-362.67-261.69-877.17-157.23-1303.13 58.92-240.25 131.17-507.32 153.62-547.27zm-416.78-2682.27c30.59 60.07 142.24 471.86 167.51 626.34 124.98 764.14 135.49 1694.86-119.43 2431.55-65.57 189.52-170.67 516.22-440.19 491.92-24.01-2.17-33.65-5.55-55.47-16.23-57.31-28.06-4.14 2.82-43.88-32.15 296.82-279.82 467.48-1072.09 549.37-1459.23 100.77-476.39 91.26-1224.47-6.17-1731.68-20.25-105.52-68.81-205.87-51.74-310.52zm1283.87 3534.21c-417.01 350.98-657.56-843.17-710.99-1321.82-47.12-422.05.01-844.69 15.8-1267.14 7.02-188.22 92.89-806.16 214.75-934.38 8.57 36.75-66.36 340.39-77.21 413.11-82.1 550.08-86.22 946.76-12.48 1510.41 37.38 285.75 109.5 601.66 205.79 873.41 46.7 131.8 98.08 268.36 152.19 396.9 31.92 75.82 211.18 326.56 212.15 329.51zm-1215.22-4333.83c105.29-1.38 112.67 49.82 216.65 62.64l105.81-89.02c268.18 218.91 58.8 70.65 326.99 34.25 91.81 171.55-40.63 272.28-23.11 503.37l-280.81 250.81c-452.46-428.98-227.61-200.5-305.8-407.5-47.07-124.63-73.26-189.2-39.73-354.55zm2929.09-1095.38c76.28 105.78 205.49 379.51 94.76 482.73-97.34 35.77-104.51 7.04-192.7-29.68-72.96-269.29-149.98-423-451.79-491.07-533.89-120.41-398.7 312.13-594.76 322.42-165.93 8.7-149.56-196.95-86.91-295.31 130.81-205.37 1036.4-37.7 1231.4 10.91zm-5249.95 486.25c-147.58-89.08-82.68-259.07-7.59-398.86 81.8-152.27 86.53-127.35 412.68-179.17 154.81-24.6 406.76-45.1 559.27-34.78 177.65 12.02 354.73 12.71 367.06 244.16 4.91 92.07-40.59 159.88-138.39 149.77-172.82-17.87-65.91-436.06-567.09-335.31-207.74 41.77-412.81 211.82-460.04 425.68-23.94 108.43-57.41 115.11-165.9 128.51zm4933.04-749.02l293.58-100.28c19.82 19.9 44.96 62.39 63.87 92.89 43.07 69.52 40.78 38.62 2.38 115.06l-359.83-107.67zm1139.09-5.13l162.09-131.61c109.53-1.61 361.37 75.72 433.01 156.69-60.79 103.32-244.69 157.41-364.11 177.94-76.11-57.15-143.41-147.56-230.99-203.02zm-6032.89 100.6l-50.48-81.47 76.75-129.98 289.15 104.94-315.42 106.51zm-1010.04 94.58c-152.11-26.07-278.81-94.22-397.97-181.19 75.53-26.68 90.29-118.17 450.61-175.35 58.62 70.97 111.72 126.02 158.41 178.28-70.7 32.08-164.3 106.71-211.05 178.26zm6205.34-445.79c-297.69 74.53-551.69 100.73-862.69 93.46-143.77-3.36-265.97 29.66-368.12-91.97-71.87-85.59-80.73-289.66 65.42-292.36 201.88-3.74 57.98 452.26 607.87 332.36 163.93-35.75 221.49-96.68 306.44-177.15 139.77-132.39 131.43-249.01 155.67-332.16 402.14-162.08 171.08 308.22 95.41 467.82zm-5063.84-479.54c6.58 252.62 201.35 450.12 443.54 505.31 507.59 115.66 399.48-220.99 579.94-329.74 159.84-4.87 198.15 135.22 135.37 263.13-71.78 146.27-225.66 135.17-365.23 135.09-327.28-.16-570.36-31.77-885.12-106.59-69.32-154.78-331.46-640.93 91.5-467.2zm2486.78-560.6c29.47 81.1 70.77 146.48 67.72 195.1-8.28 131.95-135.96 140.7-138.94 6.46-1.06-47.7 40.79-119.35 71.22-201.56zm417.72 196.5c15.58-35.15 63.04-57.74 103.92-55.72 74.34 3.65 95.68 90.97 2 99.32-36.1 3.22-71.09-15.45-105.92-43.6zm-925.73-59.62c34.84-4.07 53.49 11.24 80.26 62.37-42.97 26.7-67.67 50.42-106.19 46.58-102.13-10.2-67.67-98.03 25.93-108.95zm637.79-224.06c-57.91-285.99 176.07-721.5 332.63-771.23 201.46-64.01 181.16-97.41 294.82-60.34-113.67 30.28-509.5 697.41-627.45 831.57zm-318.07-868.24c76.48-45.45 142.58-178.36 187.97-247.65 120.69 216.02 126.48 181.14 190.83 277.88-74.18 84.78-170.82 313.88-187.84 432.43-8.66-113.19-121.69-356.21-190.96-462.66zm-235.54 417.34c-55.1-80.71-288.3-365.26-352.88-403.53 91.34-37.47 136.85 47.6 250.07 74.13 136.94 32.1 149.62 30.82 231.24 160.41 138.11 219.29 181.51 358.69 171.61 625.08-73.31-77.74-225.39-346.76-300.04-456.09zm15.98-586.2c-73.01-22.53-132.51-49.83-142.58-135.4-22.81-193.66 299.73-145.12 142.58 135.4zm796.78-2.86c-31.13-124.6-85.53-264.66 100.03-243.57 199.52 22.67 44.92 233.89-100.03 243.57zm-617.11-776.21c27.52-51.1 156.68-141.85 219.84-165.3 89.56 30.92 167.9 94.8 220.45 167.51-65.24 72.22-189.47 173.35-201.49 277.53-69.37-62.1-76.16-156.69-238.8-279.74zm-587.21 736.57c-171.9 4.21-291.08 27.08-407.7 151.68-109.09 116.56-37.83 72.95-80.52 182.72-39.3 101.04-87.04 58.05-54.54 206.93 67.4 308.72 483.38 408.96 573.72 44.03l315.23 445.39c-373.84-88.17-585.5 262.29-348.34 579.01-34.26 33.93-282.35 229.79-298.06 235.91-116.92-113.77-212.98-268.99-431.94-200.29-250.32 78.53-182.14 343.43-295.78 384.07-170.03-.24-383.64-113.85-433.02-276.24 85.52-23.44 225.68-4.75 273.66-92.77 101.33-185.93-150.89-613.76-517.31-440.04-141.6 67.12-309.86 230.59-363.44 375.12-73.39 197.98 88.71 553.56-129.99 566.88-112.05-89.87-43.63-143.36 16.27-227.46-91.02-304.33-627.36-299.83-657.82 158.32-325.83-6.81-635.65 229.52-650.8 372.49-10.32 97.48 130.93 251.49 205.78 304.27 131.88 92.97 264.61 105.56 422.55 109.12 63.17 343.81 521.19 437.11 654.95 93.31-54.58-107.52-130.07-76.09-30.41-236.46 326.12 59.45-153.54 592.84 471.98 919.81 107.59 56.23 188.29 65.56 309.68 31.86 71.56-19.87 173.9-96.8 207.27-157.95 57.2-104.86 107.14-319.32-90.25-359.02-26.84-5.39-52.61-6.79-78.57-13.13-6.24-1.52-24.38-5.95-30.06-8.09-60.49-22.91-8.34 1.44-41.28-23.47 89.77-161.78 236.11-257.59 432.19-251.94 123.69 43.8 19.12 246.96 265.34 358.85 263.86 119.91 409.14-134.75 430.17-152.08 79.36 68.04 110 131.39 100.48 249.11l-139.42 62.48-9.6 118.79c27.94 87.75 218.26 221.21 421.61 106.31l116.6 141.3-61.1 317.3c-145.83-8.85-247.76-74.41-391.47 58.18-204.14 188.32-173.38 555.06 183.65 598.16 228.43 27.59 259.16-150.68 316.48-217.2 150.69 317.42 155.61 1232.46 119.44 1619.08-47.95 512.58-191.82 970.98-373.62 1420.89-52.23-17.23-288.71-202.92-522.59-45.11-269.81 182.05-231.03 590.61 256.59 820.29 203.07 95.65 402.18 60.33 611.9 31.01 33.88 272.91-12.08 443.83 136.44 783.43 105.75 266.78 269.07 410.42 416.03 580.57 79.01-10.31 393.3-465.58 427.06-541.04 149.26-333.51 157.22-400.36 190.78-770.37 1194.85 73.27 1149.19-1034 487.49-943.71-74.96 10.23-153.24 78.32-222.34 118.93-198.62-443.8-318.94-907.58-383.57-1430.55-69.03-558.69-3.45-1078.7 112.12-1618.55 93.01 79.05 105.59 364.82 515.74 142.41 200.77-108.87 135.38-381.91 12.24-513.59-156.69-167.57-353.72-71.35-409.7-67.11-13.67-147.47-25.05-194.74-59.82-333.34 36.96-45.7 86.91-89.63 113.15-130.14 245.82 70.6 259.23 68.49 421.76-107.09l-8.84-120.37c-79.01-36.2-142.99-20.51-135.16-130.68 5.09-71.52 50.51-141.01 97.31-177.79 108.2 112.03 99.51 173.72 305.6 176.55 319.97 4.4 273.49-317.71 365.84-371.87 83.44-48.94 371.44 44.57 436.22 249.11-99.91 19.02-197.48 4.01-245.51 91.89-117 214.08 159.99 616.89 525.73 431.92 119.42-60.39 309.64-250.93 347.08-376.68 61.93-208.05-84.39-485.97 142.06-544.05 114.35 88.81 46.94 157.15-16.31 232.96 34.69 178.41 199.53 245.23 373.01 212.02 230.77-44.16 213.5-156.23 289.8-310.29 267.79-30.05 503.23-109.48 611.9-368.14-21.11-292.64-398.6-421.29-654.37-419.83-34.34-434.81-531.05-483.9-664.3-153.3 53.66 92.88 121.79 132.76 40.19 242.81-54.91-5.46-66.09-16.52-117.62-53.68-32.48-233.77-32.51-7.85-2.44-283.32 13.64-124.97 3.91-220-51.35-318.01-128.27-227.48-612.61-559.31-837.04-123.4-31.89 61.96-58.44 194.35-20.3 258.58 45.73 76.96 179.2 73.54 273.77 88.12-23.18 181.38-271.37 282.56-438.2 264.62-136.67-114.37-23.8-283.44-297.77-363.37-200.08-58.38-312.12 67.15-422.25 208.2-49.71-36.64-91.55-82.03-137.66-122.07-49.24-42.75-114.1-79.28-163.8-120.14 211.51-277.05 91.6-690.15-337.56-586.9l297.29-449.39c82.47 116.05 91.21 272.59 301.99 239.56 170.65-26.74 386.12-219.48 239.85-477.65-60.02-105.94 26.51-80.08-94.43-190.97-145.05-132.99-199.7-128.54-392-144.73 13.12-109.24 35.9-158.44-.9-273.02-48.66-151.56 96.19-523.96-328.29-577.86-78.94-177.97-304.66-469.61-499.77-513.81-86.9 12.28-350.92 296.54-434.21 402.33-189.27 240.42-362.6 129.22-378.37 453.91-2.06 42.42-9.59 88.75.94 129.81 12.94 50.48 40.05 36.77 27.39 104.63-22.28 119.37-57.41 103.21-22.81 253.03zm-8963.07 11947.1c366.99 150.01 864.11-71.15 1152.12-424.03 35.48-43.45 66.99-131.91 81.18-187.02 44.57-172.97-18.83-93.33 101.6-175.89l-11.25-172.12c-147.79-10.46-340.15-4.58-489.27-4.8-253.68-.38-307.23-60.95-292.62 181.51l79.8 32.89c-4.92 183.15-5.84 283.55-97.17 436.18-65.55 109.51-151.79 237.34-299.37 205.15 120.83-277.53-350.69-1546.54 69.26-1718.95 250.27-102.75 326.25 168.04 330.2 352.77l-82.6 35.68-4.55 161.36c119.03 45.27 643.31 22.08 801.76 19.02l-9.12-181.26-106.41-25.84c-150.29-399.64-253.81-524.6-639.83-573.9-324.36-41.44-692.23 52.96-907.95 310.5-210.26 251.04-270.4 666.71-148.04 967.55 37.78 92.85 184.6 268.92 251.75 355.17 279.09 358.54 126.02 170.22 220.51 406.03zm11670.71-739.3l83.92-47.7-17.23-173.08-767.5-1.61-21.46 164.49c59.85 60.01 25.09 8.89 88.25 55.31-1.94 255.18-88.88 637.82-399.76 642.01 89.94-304.7-105.34-867.73-110.18-1227.49-8.84-657.96 493.67-687.75 513.75-149.33-63.21 43.38-85.64-29.79-90.75 218.51 136.63-.22 261.77 12.82 391.83 15.21 79.4 1.45 112.84-19.25 189.46-20.98 82.22-1.85 130.37 10.58 216.08.57l-2.49-177.04-107.01-24.99c-60.71-182.11-179.14-439.29-369.86-510.74-237.44-88.95-511.04-96.56-755.38-25.23-469.26 137.01-702.42 626.1-608.73 1089.78 73.94 365.91 433.39 569.59 486.05 817.75 23.75 111.99 30.27 133.79 308.01 127.87 436.23-9.31 933.81-310.57 973-773.31zm2075.23-111.27c-203.58-363.59-72.46-508.97-394.02-518.96-99.72-3.09-190.52-31.99-248.8 46.35-77.53 145.55 373.02 789.86 395.44 1004.01 7.92 75.72-169.75 407.05-214.69 497.27-91.88 184.5-263.54 405.04-161.15 486 190.84 69.63 279.66-60.17 343.53-211.88 58.19-138.21 124.4-276.53 166.66-419.36 58.29 57.93 186.9 356.69 227.28 452.82 116.51 277.32 192.34 227.93 478.85 204.38 25.1-44.11 18.05-35.8 52.37-62.39-12.66-175.62-371.57-841.06-480.37-1095.98-75.91-177.85 93.13-398.49 154.78-425.61 42.84-18.85 200.86 38.25 285.85 36.66-15.65-124.54 31.16-349.96 17.66-403.39-27.41-108.69-189.82-149.8-299.68-135.24-220.59 29.23-220.43 440.46-323.71 545.32zm1120.21-210.69c242.35 64.83 518.89 813.97 274.27 865.35-158.66 33.31-278.99-215.82-312.12-334.93-51.75-186.06-21.54-360.75 37.85-530.42zm16.46 981.87c558.43 446.63 1000.14-347.64 621.63-1035.88-64.47-117.23-234.26-348.17-376.29-351.71-327.82-8.16-622.11 508.68-636.15 804.38-11.2 235.94 16.01 433.26 37.39 664.75 18.94 205.07 5.98 492.54 46 682.03 433.9 162.42 290.73-535.63 307.42-763.57zm-9303.11-1296.46c-105.72 177.08-116.64 1237.21 25.72 1382.73 113.87 29.95 263.42-7.92 371.4-34.04 95.7-226.89-44.2-470.58 10.74-651.64l330.09-203.6c54.51 884.67-141.78 980.18 459.36 858.82 37.55-271.56 24.56-428.43 9.92-698.27-10.06-185.35 72.99-526.15-36.33-663.65-86.62-20.46-259.03-35.93-346.11 7.38-95.96 47.72-78.33 195.31-86 293.11-61.57 62.3-258.04 180.55-344.16 205.59 6.09-147.91 93.88-376.18 35.34-510.49l-429.97 14.06zm2589.1 518.07c14.86-140.58 78.74-411.38 33.66-528.26-121.76-33.14-284.41.54-415.84 7.56-115.98 211.42-77.39 452.26-77.74 694.42-1.07 766.06 4.19 754.62 464.68 657.48 81.54-232.74-21.92-408.57-3.2-636.82 2.4-5.81 271.77-204.94 341.96-204.05 11.81 220.11-3.35 456.19 13.13 675.47 24.36 324.06 225.43 189.65 451.28 171.12 47.98-396.47-15.65-589.82 19.47-1042.05 4.91-63.3-2.18-126.19-3.81-189.73-2.94-113.63 13.83-50.28-44.36-141.34-371.16-2.19-406.96-40.1-429.56 215.88-14.98 169.65-74.09 135.47-349.67 320.32zm11328.02-206.58l-330.32 200.82c10.55-477.55 257.48-592.55-395.92-513.05-104.79 220.03-100.02 1241.41 1.19 1345.33 75.48 77.51 302.55 37.89 401.89 2.97 81.02-207.24-31.46-421.17-6.33-635.8l338-220.95 15.23 655.6c8.27 88.31 59.3 163.21 134.44 206.39 94.06 54.07 211.71 15.71 317.79.1 10.59-102.08 39.06-1238.23 3.72-1316.3-34.24-75.66-150.99-60.72-226.84-57.81-294.01 11.28-209.81 92.76-252.85 332.7zM8254.83 13767.92c83.93-322.82-23.99-783.25 45.36-1164.11l301.8-.29c-19.51 295.21-20.46 558.51-22.18 854.58-2.15 369.54 113.79 421.98 467.97 323.63 35.31-267.63 0-425.85-.91-684.43-1.65-475.65 41.31-389.93 52.45-626.86-155.98-121.93-456.73-64.93-657.99-62.95-691.59 6.84-635.61-84.91-633.83 766.08.45 211.15-13.69 441.65 85.23 625.85 77.58 34.3 285.38.83 362.1-31.5zm16527.87 28.23c97.33-155.44 46.62-389.11 33.74-569.66-40.59-568.34 116.94-765.3-78.67-809.57-69.95-15.83-235.38-11.4-294.92 23.35-125.29 73.16-90.49 387.43-98.56 522.43l-277.76-2.22c-107.1-23.01-36.17-6.48-71.52-33.26 16.32-130.25 56.42-403.47-49.59-491.55-86.21-58.6-327.64-39.8-372.41 78.45-44.73 118.08-34.52 304.99-34.1 432.37.93 276.52-59.08 631.05 98.4 858.85 527.79 27.99 350.36-146.4 358.45-640.87l350.26 3.86c-2.96 661.89-30.88 620.1 436.68 627.82zm-14978.28-965.54c47.45 122.47 238.32 611.89-65.49 543.56-158.02-35.55-135.32-161.72-88.93-282.41 24.56-63.9 105.85-221.11 154.42-261.15zm-25.95-402.26c-109.24 88.25 92.44 67.76-120.09 334.12-200.57 251.35-526.17 503.63-393.92 874.79 119.65 335.76 538.75 310.89 754.36-110.61l108.97 267.1c134.16 2.38 289.88 32.43 398.91-36.55 44-143.03-84.2-404.7-125.25-551.91-49.78-178.52-85.47-352.41-131.65-529.57-101.96-391.14-410.18-312.92-491.33-247.37zm12906.77 395.64c65.04 200.96 154.14 348.44 57.59 542.58-150.38 35.87-272.6-75.42-233.87-214.38 33.75-121.12 137.28-233.2 176.28-328.2zm-31.01-405.14c-62.16 220.96 140.39 58.88-242.2 488.25-141.21 158.49-247.32 275.08-284.79 495.41-36.76 216.18 80.34 459 323.46 464.13 225.57 4.76 338.56-171.91 455.47-332.04 39.25 106.65 43.4 160.06 138.96 221.97 77.44 50.17 219.06 113.98 306.21 50.95 138.86-100.41-16.6-434.57-54.72-564.9-56.55-193.36-99.63-390.57-155.23-584.39-33.92-118.25-43.04-166.79-159.26-225.42-94.08-47.44-229.9-55.55-327.9-13.96zm-4139.63 320.6c283.69 35.32 640.07 575.19 395.16 794.23-128.48-49.82-621.8-433.55-395.16-794.23zm149.73-387.23c-270.56 84.81-492.81 597.48-491.81 861.92 1.12 295.35 301.6 780.87 635.25 692.63 162.84-43.07 461.5-508.3 484.71-865.32 20.8-319.74-279.05-798.67-628.15-689.23zm-7269.62 1119.1c-197.02-161.21-435.22-510.81-324.03-793.93 12.96 25.38 292.86 208.35 370.17 216.84l198.89-250.52c-35.25-130.5-492.14-710.03-908.6 187.98-225.93 487.15 188.77 1098.67 521.71 1018.71 178.25-42.82 638.47-483.55 292.95-560.42l-151.09 181.34z" fill="#d7b56d"/></svg>