<svg xmlns="http://www.w3.org/2000/svg" width="23" height="25"><path fill="#B09867" paint-order="stroke fill markers" fill-rule="evenodd" d="M18.808 2a.74.74 0 0 0-.73.75v2.74a9.312 9.312 0 0 0-13.409.222A9.868 9.868 0 0 0 2 12.5c0 .414.328.75.731.75a.74.74 0 0 0 .731-.75c0-4.556 3.6-8.25 8.04-8.248 2.255 0 4.407.972 5.929 2.68l-3.238 1.107a.756.756 0 0 0-.463.95.727.727 0 0 0 .925.475l4.385-1.5c.3-.102.501-.39.5-.714v-4.5a.74.74 0 0 0-.73-.75zm1.462 9.75a.74.74 0 0 0-.73.75c-.002 4.556-3.602 8.25-8.042 8.248a7.947 7.947 0 0 1-5.928-2.68l3.238-1.107a.755.755 0 0 0 .463-.95.728.728 0 0 0-.925-.475l-4.385 1.5a.747.747 0 0 0-.5.714v4.5c0 .414.327.75.73.75a.74.74 0 0 0 .732-.75v-2.74a9.312 9.312 0 0 0 13.408-.222A9.867 9.867 0 0 0 21 12.5a.74.74 0 0 0-.731-.75z"/></svg>