<svg xmlns="http://www.w3.org/2000/svg" width="320mm" height="150mm" viewBox="0 0 32000 15000" shape-rendering="geometricPrecision" text-rendering="geometricPrecision" image-rendering="optimizeQuality" fill-rule="evenodd" clip-rule="evenodd"><defs><style>.fil0{fill:#d7b56d}</style></defs><g id="Слой_x0020_1"><g id="_2736993858544"><g id="_1599803864608"><path class="fil0" d="M25382.46 7766.41c-607.57-10.84-1373.09 244.16-1782.05 711.01-269.03 307.11-208.2 469.16-638.67 278.78-329.93-145.92-769.12-124.16-1121.73-68.49-1465.63 231.31-2241.14 945.23-3527.56 1532.13-600.08 273.78-1217.99 467.31-1839.5 680.05-1270.14 434.76 352.33 664.86 743.47 750.12 699.2 152.46 1251.88 328.95 1906.81 621.41 325.1 145.18 534.12 217.18 843.67 412.56 337.78 213.23 650.79 248.09 1041.52 169.33 1395.63-281.35 629.08-1240.55 1015.26-1296.85 140.35-20.46 1714.11 216.31 2232.53 221.2 660.03 6.23 1397.54-210.48 1958.43-558.66 260.45-161.65 461.25-380.81 724.29-532 279.39-160.6 540.48-272.28 817.26-454.57 479.79-315.97 962.58-758.97 1313.41-1214.61 125.4-162.87 1213.33-1607.44 265.27-970.8-523.22 351.35-1356.29 69.33-1947.47 10.76-504.33-49.95-1716.34-286.22-2004.94-291.37zM9793.16 9069c53.24-223.63 151.7-17.31 371.2-30.56 714.89-43.15 475.71-105.12 327.2-372.99-41.8-75.39-56.51-69.77-104.63-128.02-54.91-66.48-39.8-104.31-76.79-171.34-113.1-204.91-216.29-419.93-326.4-619.64-107.58-195.1-483.51-1365.62-371.69-1494.68 132.04-107.92 823.4 63.02 1046.4-23.9 80.51-61.43 48.37-246.21-11.45-417.93-128.89-370.15-398.13-724.84-542.77-1124.93-20.06-55.49-55.88-91.49-200.96-82.31-140.88 8.93-298.56 47.2-437.03 61.15-253.28 25.53-426.96 224.17-600.09 392.54-150.31 146.19-268.3 585.43-162.68 775.51 117.06 210.66 313.45 477.37 256.13 713.56-37.83 155.9-133.96 189.76-107.25 376.72 18.13 126.95 27.65 325.25 62.47 435.2 44.15 139.41 39.19 288.36 65.37 430.89 26.62 144.85 77.78 245.55 114.94 381.32-510.68-392.35-613.34-681.34-910.52-1229.72-302.6-558.37-212.34-867.74-682.05-1458.15-283.7-356.61-818.18-724.48-1274.81-781.32-314.06-39.09-552.03-113.2-853.46-178.47-414.38-89.72-420.95-155.81-757.28-288.48-266.16-105-397.95-77-705.21-236.54-224.97-116.81-482.14-239.53-712.53-347.65-126.53-59.39-562.77-437.53-611.57-201.81-20.37 98.34 120.66 758.58 160.89 890.61 238.79 783.72 1053.4 2059.47 1564.15 2719.79 368.91 476.95 559.3 731.87 1073.85 1066.45 455.53 296.19 875.92 536.91 1364.87 775.51 450.76 219.94 1059.45 465.98 1540.85 599.58 316.01 87.71 510.54 49.96 743.59 326.62 200.98 238.59 289.37 343.35 576.09 494.07 473.57 248.98 1006.88 519.33 1539.36 605.94 338.06 54.98 1430.01-159.58 1541.96-554.14 59.11-208.29-434.46-310.77-586.36-390.96-234.92-124.01-460.84-239.29-683.63-386.14-298.95-197.02-289.84-297.31-691.47-378.7-311.63-63.16-598.11-68.35-938.69-147.08z"/><path class="fil0" d="M13810.7 10542.16c-243.26-19.19-266.26-26.1-447.53 116.68-145.3 114.45-230.15-78.54-374.66-84.99-116.21-5.18-194.2 158.24-296.78 230.89-114.55 81.12-245.61 143-373.79 199.48-115.24 50.77-384.28 44.42-417.47 134.33-46.5 125.92 514.37 593.86-574.94 889-171.95 46.59-717.02 209.96-859.92 273.26-330.47 146.39 139.16 524.16 287.6 615.57 563.08 346.79 995.11 493.62 1633.99 646.05 565.13 134.83 1401.36 225.93 1969.08 85.27 679.24-168.28 896.4-437.66 1260.62-1005.26 113.32-176.58 241.28-654.88 256.97-864.03 10.62-141.52.89-385.93-9.01-530.08-15.29-222.36-142.28-204.02-307.85-265.46-516.13-191.55-1198.48-397.51-1746.31-440.71zm6313.27-5473.96c-578.51 63.4-994.36 138.92-1425.45 575.38-352.18 356.59-562.85 810.3-774.33 1257.32-216.21 457.01-334.08 1228.68-291.28 1728.34 61.12 713.72 186.53 840.59 264.54 1268.87 27.55 151.24 28.62 282.51 222.25 231.09 395.12-104.92 1005.47-452.68 1311.03-729.78 1030-934.04 1063.87-1563.39 1092.04-2928.12 3.24-156.39-50.22-281.64-58.43-429.91-18.21-328.35 174.67-365.38 40.03-872.63-47.79-180.01-243.56-115.55-380.4-100.56z"/><path class="fil0" d="M17347.38 6277.75c-148.34 16.9-293.94-8.7-434.66 28.1-812.05 212.5-1780.84 565.99-2031.69 1445.07-323.56 1133.96 503.13 1928.5 1353.98 2507.66 249.6 169.88 371.11 326.14 699.99 274.98 122.88-19.11 669.18-178.84 744.44-253.23 90.55-89.52-76.68-724.08-174.97-1178.65-226.56-1047.66-465.43-1046.63 124.6-1813.52 104.5-145.92 235.84-521.86 290.27-701.79 133.5-441.23-232.96-347.26-571.96-308.62zm3787.88-3039.17c-236.62-4.17-523.77 50.44-730.65 171.8-107.61 63.12-448.36 313.68-458.77 433.87-13 150.03 149.47 402.95 83.16 771.79-79.21 440.62 98.74 294.83 438.2 403.67 342.7 109.87 238.57 341.06 231.06 638.45-7.91 314.75-70.41 479.36-49.3 824.29 18.24 297.97 22.57 549.78 16.93 847.97-1.79 94.92-41.84 329.51 109.48 289.99 104.34-27.25 300.34-61.46 381.5-92.66 107.71-41.38 185.18-116.92 288.27-161.86 115.03-50.15 209.89-55.09 320.95-128.85 223.71-148.6 290.75-273.24 379.87-519.65 122.82-339.63 442.18-1026.62 460.72-1354.66 23.63-418.26-446.8-807.61-597.41-1202.31-70.49-184.69-82.4-520.22-164.32-735.13-70.24-184.24-545.2-183.82-709.69-186.71z"/><path class="fil0" d="M13795.19 6975.56c-202.17 46.05-354.56 353.57-494.7 497.91-292.52 301.29-380.03 193.3-631.2 376.94-496.43 363.01-256.18 986.25 41.82 1387.42 653.05 879.2 1444.1 1290.32 2508.35 1493.21 425.26 81.07 488.04 58.07 904.5 63.24 639.22 7.98 60.45-234.64-77.46-347.03-162.83-132.68-417.28-288.45-562.13-430.74-95.24-93.54-391.34-455.42-443.58-564.51-108.37-226.32-276.22-379.37-325.32-667.2-40.73-238.8-38.65-695.17 1.58-933.91 28.48-168.97 176.61-759.07-35.75-816.32-145.53-39.23-744.11-91.38-886.11-59.01zm8377.1 1535.95c388.78-99.03 1002.61-215.16 1355.51-381.71 129.74-61.24 272.65-126.2 405.28-184.1 282.86-123.49 494.19-270.39 751.53-396.21 520.53-254.49-235.24-472.35-258.92-551.65-36.77-123.17 2.91-337.94-160.95-393.56-167.4-56.81-371.05 52.42-499.16-90.41-310.22-345.82 341.65-520.69 233.99-742.78-157.15-137.25-198.3 117.76-356.68 63.89-79.21-26.95-292.53-99.12-328.96-155.79-75.93-118.11-221.99-761.31-426.39-360.24-97.23 190.75-310.03 812.36-432.61 1102.54-58.87 139.34-35.35 242.98-121.49 405.79-167.6 316.87-176.69 354.62-482.16 541.44-203.81 124.65-422.08 293.63-624.69 414.48-233.17 139.07-413.42 191.49-626.7 396.96-113.13 109.01-228.17 268.52-281.74 435.38-120.27 374.64 82.04 316.67 261.56 254.61 339.77-117.45 1221.92-292.16 1592.58-358.64zm-9738.16-3795.98c88.71 14.14 118.93 377.5 163.44 464.44 72.72 142.05 326.84 177.79 440.05 30.31 59.02-76.88 545.51-723.7 550.15-740.04 23.13-81.6-182.68-238.29-205.93-415.78-17.32-132.32 53.74-416.9 206.12-415.42 238.26 2.31 380.92 445.8 847.37-86.39 150.35-171.56 179-131.73 260.05-372.45 67.11-199.3 168.79-336.74-105.03-397.32-357.5-79.09-710.72-164.19-1079.88-161.46-842.36 6.24-2.53 293.23-468 609.58-125.09 85.03-245.88 180.33-371.77 263.36-247.29 163.11-158.01 128.98-283.54 366.54-102.61 194.17-20.29 312.35-228.32 333.66-132.71 13.59-211.53 221.26-295.45 338-214.04 297.78-313.44 484.63-474.69 810.15-186.3 376.07.71 507.43 239.96 836.86 102.15 140.65 422.67 720.48 500.79 788.69 63.91 55.8 354.18 44.62 511.4 90.87 114.95 33.82 464.21 11.13 587.43-13.41 453.16-90.24 431.53-5.23 51.02-639.93-178.94-298.5-251.33-534-494.33-792.89-132.92-141.6-466.39-730.53-350.84-897.37zm3334.34-1748.76c68.55-130.46 826.59-8.84 987.21 11.18 307.41 38.34 665.45 37.7 898.76 277.46 294.62 302.79 490.63-280.98 464.8-504.84-33.84-293.44-212.06-603.88-526.22-653.19-176.59-27.7-548.8 75.31-806.38-236.79-224.33-271.79-557.74-261.39-853.95-114.02-125.03 62.2-479.06 514.01-517.12 646.97-43.97 153.56 193.9 222.71 148.82 369.37-14.68 47.78-263.1 123.13-359.89 195.02-301.51 223.95-358.76 308.82-516.93 645.42-130.62 277.95 155 546.34 292.45 776.6 166.83 279.53 304.17 707 453.83 201.58 59.09-199.59 244.81-692.12 504.92-648.75 186.38 31.08 288.47 38.65 469.28 105.06 213.26 78.32 243.27 110.99 477.2 87.69 361.92-36.04 172.06-17.45 440.33-149.09 77.08-37.83 162.25-321.9 175.31-415.69 29.36-210.72-126.11-202.75-293.82-275.17-160.17-69.17-281.06-95.07-446.97-142.42-216.55-61.79-848.48 16.47-991.63-176.39z"/><path class="fil0" d="M9994.8 6277.73c-180.01 34.12-174.82 573.72-135.82 709.38 170.37 592.76 516.58 1255.85 932.65 1719.5 265.38 295.73 608.65 616.98 944.28 823.79 167.45 103.19 1082.35 626.29 1224.74 483.96 80.11-80.1-265.38-383.44-332-492.52-265.79-435.12-487.13-729.08-444.12-1316.52 14.4-196.78 225.6-614.28 58.87-670.11-112.65-37.71-228.44 14.74-382.95-52.18-117.82-51.04-154.62-129.76-238.36-211.4-118.58-115.64-367.39-275-511.11-372.96-89.19-60.79-445.96-115.12-652.02-232.05-160.61-91.14-358.58-408.89-464.16-388.89zm7802.42-2077.92c-179.91 26.92-282.2 98.35-493.94 131.77-418.77 66.12-823.52-68.58-1242.89-68.28-319.6.22-253.51 40.84-374.38 307.06-143.68 316.47-258.94 652.33-389.51 975.23-56.85 140.58-146.09 366.34-171.68 511.31-17.01 96.29 59.92 481.23 103.32 558.78 51.82 92.57 402.55-46.65 488.69-91.64 146.02-76.26 347.18-128.51 506.82-175.65l1020.15-344.77c365.62-171.04 479.63-361.33 635.92-728.88 73.89-173.79 226.69-1121.2-82.5-1074.93zm-4203.7-310.15c-72.25 38.67 49.41 376.21 66.08 461.16 61.33 312.42 119.99 207.38-83.45 436.3-200.75 225.86-291.86 656-307 949.33-11.61 224.56-126.23 279.23 25.74 498.59 138.79 200.36 141.92 176.12 321.59 314.39 380.06 292.48 532.22 234.3 986 240.81 134.42 1.92 427.94-3.96 414-194.44-79.79-1090.18 55.7-733.25 93.02-1112.71 39.75-404.35-32.34-678.18-266.22-981.95-55.9-72.6-267.01-246.34-348.28-287.62-213.13-108.21-639.33-464.13-901.48-323.86z"/><path class="fil0" d="M18621.3 2585.09l-230.4-114.78c-105.37 193.24-80.68 332.34-117.35 577.45-27.28 182.28-119.5 314.86-212.35 470.06-312.74 522.76-204 334.57 116.25 844.09 134.49 213.97 195.72 235.57 376.8 50.25 136.36-139.53 211.28-192.47 308.11-372.59 269.54-501.42 68.49-1007.12 94.69-1058.75 117.75 108.04 159.28 386.1 190.73 551.13 75.38 395.5 66.91 253.96-99.06 585.38-53.46 106.75-228.28 360.83-308.26 451.67-48.76 55.35-128.55 165.08-180.56 207.17-65.84 53.27-171.19 102.49-230.45 157.3-358.27 331.38-567.67 999.82-336.47 977.36 33.63-3.28 907.09-539.53 957.99-588.64 129.44-124.87 276.78-225.76 418.12-341.83 145.08-119.13 262.73-252.47 398.11-377.45 164.13-151.55 112.76-403.95 41.37-584.67-74.07-187.52 18.24-565.99-36.11-738.6-48.19-153.1-315.2-189.36-383.84-376.12-52.3-142.29-99.23-479.7-230.81-544.6-88.42-43.61-545.42-146.31-638.9-142.53-322.26 13.04 165.44 269.22 102.39 368.7zM13438.41 850.3c-529.78 112.14-201 352.39-912.02 732.02-274.61 146.62-594.91 66.37-741.12 902.83-34.66 198.37-34.34 592.03-19.15 796.74 20.76 279.91-51.98 423.8-103.79 693.57-22.22 115.75-108.31 214.41-115.59 297.46-13.22 150.55 153.78 140.05 231.77 48.12 132.12-155.71 237.49-320.82 305.02-514.27 207.74-595.21 611.42-533.66 768.87-875.09 168.18-364.69 434.61-664.83 797.46-846.53 258.48-129.43 365.33-122.06 631.95-190.41 376.29-96.44 272.96-162.87 189.61-464.4-47.52-171.94-228.87-348.63-374.1-447.88-130.28-89.04-512.17-163.21-658.91-132.16zm-5072.35 9180.13c-106.01 14.22-502.88 76.65-422.3 245.41 64.31 134.72 173.31 359.56 262.79 472.3 411.62 518.56 612.97 682.7 1187.12 999.72 170.79 94.31 312.8 30.86 496.85 232.13 379.46 414.97 304.15 247.68 890.26-93.86 97.79-56.98 420.71-184.13 527.34-201.62 269.34-44.15 309-354.18 150.34-404.45-765.73-242.61-831.54-159.04-1592.14-593.96-104.91-59.98-374.31-229.93-463.47-265.5-155.99-62.2-313.11-182.22-454.64-274.33-84.15-54.76-507.95-125.8-582.15-115.84z"/><path class="fil0" d="M18169.49 726.25c-157.83 14.16-600.71.37-712.65 78.42-157.74 109.98-310.93 229.41-481.62 324.89-145 81.11-450.22 193.95-327.96 370.06 113.62 163.67 292.09 263.84 466.86 344.25 185.36 85.29 1172.01 159.89 1407.49 150.98 343.05-13.01 319.52-87.21 621.84 114.63 456.06 304.47 383.8 803.33 596.08 1000.58 140.09 130.21 476.13 53.99 611.14-30.63 205.7-128.93-24.65-375.15-96.79-529.18-114.46-244.36-192.36-256.94-400.3-406.17-272.64-195.69-114.22-332.17-258.66-536.33-88.33-124.83-671.41 158.55-1040.75-490.71-182.95-321.6 63.3-430.96-384.68-390.79zm-6701.08 1550.7c-441.84 36.58-1090.35 500.08-1185.59 970.23-76.48 377.61-168.96 533.17-55.38 937.16 71.25 253.38 119.57 570.84 327.17 759.72 162.17 147.56 449.4-270.69 593.73-381.93 562.65-433.68 146.05-291.18 344.6-709.97 244.62-515.95 193.8-214.54 192.75-831.03-.28-166.89-13.42-356.2 24.21-517.76 67.81-291.1-12.69-245.37-241.49-226.42zm4529.44 9428.22c-47.44 23.07-275.49 921.19-239.42 1044.41 44.22 150.94 252.47 239.52 457.98 325.14 192.37 80.13 467.38 125.13 555.62 89.38 294.06-119.08 199.4-633.91 274.15-690.05 105.05-78.92 711.74-34.92 882.83-78.9 143.82-36.95 125.74-228.12 26.17-305.07-34.33-26.55-280.09-139.31-327.36-153.53-185.77-55.92-1509.03-290.19-1629.97-231.38zm-868.66-10203.58c-342.45 63.93-537.83 480.68-834.12 561.76-1146.73 313.84 363.09 397.51 685.13 582.97 141.61 81.55 231.94-277.05 293.31-364.67 24.19-34.53 187.41-419.01 213.32-485.97 84.34-218.08-147.6-333.29-357.64-294.09zm-4064.07 4248.92c-98.32 41.5-171.99 273.62-215.01 374.33-57.86 135.5-191.35 271.02-61.49 398.27 343.32 336.4 320.75 323.28 786.94 407.37 234.24 42.25 280.41 182.56 266.15-203.97-4.88-131.97-139.09-264.58-229.82-359.58-109.03-114.17-386.97-683.89-546.77-616.42z"/></g></g></g></svg>