<svg xmlns="http://www.w3.org/2000/svg" width="320mm" height="150mm" viewBox="0 0 32000 15000" shape-rendering="geometricPrecision" text-rendering="geometricPrecision" image-rendering="optimizeQuality" fill-rule="evenodd" clip-rule="evenodd"><defs><style>.fil0{fill:#d7b56d}</style></defs><g id="Слой_x0020_1"><g id="_2737002442304"><g id="_1599796297712"><path class="fil0" d="M16581.45 2733.8c142.69-353.38 663.81-578.88 1004.02-669.52 144.01-38.36 1060.03-144.17 1122.53-101-2.33 8.81-636.5 885.63-708.92 881.25-178.95-10.81-1367.88-84.27-1417.63-110.73zm-463.23-925.46c-533.12-153.54-1153.66-226.78-1709.31-243.69-279.9-8.52-1638.25 57.86-1794.39 211.99l-111.76 1195.02c526.34 136.4 1324.27 424.68 1792.79 659.81 271.72 136.37 1443.85 839.71 1504.37 1076.01l-2789.48 714.65c-165.46-501.08-316.97-1080.96-454.02-1593.66-73.71-275.76-33.27-485.51-381.78-541.65-255.13-41.08-604.74-11.69-853.83 56.49-414.74 113.53-1040.94 477.87-1290.54 832.71-149.4 212.41-272.96 523.33-276.76 784.37-4.84 333.27 223.31 414.45 420.05 623.95 336.24 358.01 661.11 786.47 932.51 1195.79 383.78 578.82 461.61 725.66 523.41 1432.13 92.3 1055.44-304.61 2354.86-654.12 3351.68-200.33 571.35-427.74 997.28-471.16 1620.07-41.8 599.69-7.17 1127.54 568.29 1432.02 513.07 271.47 1019.74 159.08 1304.39-361.05 242.3-442.78 553.15-890.4 814.06-1329.12 150.62-253.29 743.66-1118.73 752.19-1340.19 4.54-117.69-106.34-612.16-137-760.02-231.98-1118.69-471.57-2981.21-487.52-4063.36l2863.25-773.26c50.55-253.15-2.98-899.45 5.72-1198.1 5.56-190.93 19.14-301.22 10.38-493.6-35-769.36 164.83-772.11-694.59-1187.81-172.69-83.54-290.61-127.72-465.88-192.28-71.75-26.43-471.57-142.88-497.57-174.37 94.95-85.71 745.56 58.1 913.35 91.54 82.55 16.45 497.81 182.23 564.56 235.85 30.53 24.53 145.76 95.49 178.77 108.12 49.71-42.06 22.83-178.9 20.95-240.73-2.6-86.3 4.14-149.57 9.44-237.58 7.91-131.64-31.95-515.49 19.82-595.06l434.79 2013.22 529.42 12.83c-.06 39.75-316.16 376.98-375.48 439.35-101.37 106.55-89.09 102.07-49.17 237.69 30.46 103.43 58.66 218.52 86.42 320.52 42.15 154.97 277.61 1193.72 350.54 1217.76 19.79-19.11 91.36-472.63 114.25-559.69 147.97-562.64 388.9-882.96 813.69-1286.64 199.03-189.14 294-89.6 542.86-71.71 227.19 16.33 374.97 73.57 577.63 93.15 215.43 20.82 1014.67 285.63 1116.47 269.6-10.75-286.96-226.24-799.73-287.9-1112.37-53.42-270.87-174.56-218.84-407.55-308.73-458.86-177.03-680.48-67.89-239.33-466.2 154.78-139.74 54.45-175.96-21.67-335.11-111.36-232.83-272.61-485.51-374.22-717.75-93.33-213.32-78.64-636.24-118.89-877.06-138.78-830.4 50.74-748.35-319.38-667.72-534.9 116.52-1129.78 149.53-1621.55 407.43-373.05 195.65-630.3 410.47-903.19 724.38-110.91 127.59 29.51 180.52 23.67 370.38z"/><path class="fil0" d="M20647.86 14707.72c94.48-61.06 84.31-106.14 148.64-279.94 328.24-886.86 428.55-1437.36 531.38-2367.28 127.39-1151.89 195.66-1927.26 69.39-3111.4-29.3-274.91-264.15-1676.21-435.03-1805.42-41.28 146.76-46.34 1066.54-46.04 1301 1.03 795.33-186.22 1797.55-564.76 2499.98-216.11 401.02-381 656.41-888.55 681.8-360.24 18.01-753.14-257.14-980.54-517.9-246.09-282.18-400.23-688.15-541.96-1038.16-239.02-590.28-470.19-1118.26-648.18-1741.9-42.09-147.47-103.01-509.94-235.99-568.67 49.44 829.08-99.71 1544.39 10.35 2618.86 80.38 784.66 194.35 1571.07 420.34 2329.07 87.5 293.5 215.99 730.88 337.66 1003.6 98.89 221.65 274.28 871.33 501.38 942.5 487.63 183 823.79 282.68 1398.97 260.74 321.26-12.24 644.61-27.08 922.94-206.88z"/></g></g></g></svg>