<svg xmlns="http://www.w3.org/2000/svg" width="320mm" height="150mm" viewBox="0 0 32000 15000" shape-rendering="geometricPrecision" text-rendering="geometricPrecision" image-rendering="optimizeQuality" fill-rule="evenodd" clip-rule="evenodd"><defs><style>.fil0{fill:#d7b56d}</style></defs><g id="Слой_x0020_1"><g id="_2737090484048"><g id="_2209807058192"><path class="fil0" d="M11291.26 8344.79l1726.73-264.65c1.3-1.25 3.77 1.98 3.77 3.77l-3.77-3.77-1726.73 264.65zm9868.93-403.28L13623.03 7513l7537.16 428.51zm-11141.96-491.52l9982.43-365.47-9982.43 365.47zm-1172.18-579.73l78.55 72.71c-37.45 19.47-51.17 27.49-83.56-4.91-34.1-34.09-7.63-32.85 5.01-67.8zm239.48-151.24c82.32 55.1 83.34 58.61 75.63 151.24-57.97 0-67.29 11.68-81.97-49.97-20.02-83.81.9-37.41 6.34-101.27zm2205.73 1625.77l-60.12 53.12c-3.74-55.67 34.81-136.99 67.23-184.61 43.85-64.2 34.41-156.37-28.2-166.49-79.48-12.87-125.4 27.77-197.53 67.71-94.11 52.1-101.16 18.71-176.81 20.75-70.95 1.9-29.43 29.68-80.53-7.17-79.68-57.4-42.57-11.74-93.08-35.63-80.13-37.87-32.34-75.88-176.79-100.25-56.17-9.5-142.91-2.1-185.42 10.71-52.92 15.93-132.68 53.31-177.92 115.02-80.75-54.05-6.52-27.55-99.49-46.68-28.71-5.93-63.75-35.35-92.91-63.35-58.39-56.01-128.71-116.55-134.84-187.84-17.26-200.31 127.3-270.35 163.38-370.09 86.99-100.03 125.11-186.68 146.2-319.21 20.78-130.87-92.63-78.46 115.67-137.33 182.82-51.7 498.15-151.73 662.21-180.53 50.91-8.93 114.09-33.44 147.14-39.59l449.31-96.26c261.53-62.44 429.19-89.03 715.66-141.86 2123.84-391.69 4612.15-302.32 6764.59-82.32l795.4 99.44c77.46 16.97 109.46 20.63 197.78 29.11 67.83 6.54 109.19 30.61 190.67 36.19 93 6.35 128.35 24.41 192.29 34.61l1149.33 211.87c136.57 26.82 484.58 117.86 561.05 119.59-17.29 81.49 113.41 296.25-6.97 211.39-65.73-46.4-2.52-24.12-30.87-85.37h-100.85c-17.34 37.61-41.24 215.87-24.49 266.43 10.06 30.19 3.23-6.8 8.93 25.8 8.99 51.13-9.81-28.58.82 24.4 8.42 41.81 6.75 10.46 34.64 52.66 26.73 40.48 5.19 75.94 68.37 122.22 60.68-33.44 329.13-174.11 365.5-37.81-24.32 33.19-29.71 34.5-60.41 42.12-69.44 17.18-69.1 43.91-211.81 126.79-55.95 32.54-80.59 70.32-124.24 115.27-40.16 41.39-89.85 78.91-50.62 149.21 16.47 29.59 40.56 37.44 64.94 37.75 81.97.97 183.78 27.78 342-158.39 233.64-274.85 75.42 70.95-142.94 197.73-46.57 27.04-239.99 40.93-286.45 9.36-54.67-37.13-24.86-36.82-82.11-40.54-44.73-2.91-22.45-9.21-70.92-46.28-68.17-52.13-20.8 1.93-94.81-32-111.76-51.28-23.64-9.47-83.39-22.22-86.65-18.46-149.57-64.46-263.71-67.46-28.35-.74-182.09 32.51-195.95 66.75-32.91-13.61-101.47 10.8-147.5 28.57-33.84 13.09-89.14 34.63-114.09 34.81-79.13.45-182.9 2.35-267.03-27.75l-129.53-47.74c-53.94-10.65-37.98 16.95-113.92-60.26-50.05-50.87-209.46-151.89-223.63-204.9 53.99-80.64 107.05 21.86 127.66-78.2 12.87-62.44-11.51-15.93-27.27-139.45-4.5-35.15-1.25-3.91-11.85-38.58-33.41-109.29 9.56-69.16-91.69-169.1-54.9-54.28-98.21-112.56-160.68-154.39-68.51-102.3-205.64-173.13-281.52-249.6-113.21-114.2-258.38-136-406.65-177.75-120.75-33.98-276.87-41.3-405.07-81.4-44.87-14.03-697.44-59.92-729.33-58.14-62.07 3.43-179.39-13.06-245.63-23.98-340.92-38.12-405.83 92.6-465.24 99.35-261.11-69.7-411.05-75.25-671.11-88.38-260.51.31-296.74-81.63-362.27-67.63-11.65 2.5-284.69-54.25-337.55-67.71-38.41-9.78-511.05 4.96-685.42-13.83l-377.91-.32c-325.51 2.1-274.75 107.4-582.68 97.62-43.17-1.36 5.22-8.9-57.54-10.94-61.9-1.98-9.83-6.94-84.38-14.68-38.94-4.03-52.66 11.56-140.53-2.13-191.69-29.9-277.12 43.09-425.39 90.37-71.91 22.93-84.38 19.92-164.93 44.81l-513.77 19.81c-68.57-3.57 2.8-5.1-70.95-24.8-9.38 14-39.68 46.88-54.33 59.07-53.69 44.73-118.03 80.86-187.39 166.38-45.58 56.15-2.07 26.05-57.99 92.37l-102.44 174.86c-18.73 66.89-2.97 317.54-85.88 430.44-66.38 90.36-101.44 98.09-180.64 86.19-68.25-10.35-100.65-42.2-171.06-21.91-53.99 15.56-69.07 39.37-105.44 71.37-342.51 301.22 35.8 136.28-282.7 335.65-57.09 35.75-37.87 10.75-84.61 40.22-95.04 59.98-365.36 266.27-389.05 354.96zm4335.82-2999.48c-97.7-67.85-132.14-91.18-264.71-88.23-2.86 129.39-62.89-60.23-29.16 295.63 19.3 204.13-56.69 267.94-194.28 363.17-177.52 122.93-351.1 115-472.61 197.79-837.91.74-1285.61 77.38-2049.23 154.05-93.99 9.44-222.39 31.75-317.17 48.33-244.67 42.77-395.46 52.38-639.96 104.56-201.87 43.08-625.96 114.91-813.51 168.05-90.08 25.51-182.14 48.13-253.82 65.99l-713.03 190.42c0-98.95 12.13-179.91-71.74-242.8-8.76-6.55-104.36-36.96-110.66-36.88-105.44 1.25-150.33 38.72-112.92 134.13 15.84 40.53 38.15 83.44 55.84 120.32-50.6 4.22-68.23 11-98.21 6.6-56.66-8.3-54.94-22.81-53.72-63.46 1-33.11-19.16-179.42-83.13-209.21-34.01-15.84-192.34 25.79-215.98 33.65-80.42 26.67-91.07 100.65-116.13 119.01-29.82-111.67-105.67-32.05-170.46-11.33-32.88 10.51-63.64 24.91-69.05 74.34-33.9 58.28 54.25 14.09 12.61 100.82-33.47-38.54-26.55-50.53-63.69-50.73-.36 0-82.11 5.04-108.89 16.89-48.56 21.49-29.17 16.38-45.1 61.17-21.4 60.17-129.25 182.76-95.66 355.66 5.01 25.96 10.8 37.95 16.86 49.29 36.31 67.72 68.17 72.93 110.8 6.46 5.36-8.36 9.3-14.34 14.51-55.35 4.23-32.74 94.53-170.55 234.21-161.17 153.29 10.29 52.52-50.25 233.3-73.81 186.42-24.31 45.92 128.66 266.89-33.3 48.24-35.4 111.08-62.27 216.58-44.16 115.62 19.84 198.69 210.85 198.75 210.91 22.02 31.63 56.18 28.26 92.8 45.8 6.46 14.54-32.91 131.41-49.55 159.67-51.24 86.9-234.94 142-244.92 286.44-4.5 65.88-7.88 96.74-7.28 164.34-2.33 128.63-39.03 340.19 99.32 488.01 155.29 165.95 269.52 91.69 353.9-40.59 41.13-28.94 26.65-30.1 91.78-33.08 70.1-3.17 75.03 27.07 107.4 86.56 33.16 61.06 54.65 67.32 105.95 108.31 74.12 59.27 172.19 119.38 235.4 182.42 66.69 66.58 6.86 25.54 33.25 69.61 37.01 61.77 52.97 209.24 152.23 125 32.6-27.63 68.06-62.98 105.61-71.71-13.89 33.62-9.27 230.07-8.76 279.02l19.14 503.85c3.37 16.41-2.33 5.7 11.82 26.42 27.86 41.04 50.25 84.32 88.97 88.52l54.28-2.02c283.78-17.34 323.61-131.63 423.92-36.05 201.21 191.75 140.47 213.77 318.05 161.62 163.23-47.93 356.77-446.93 504.5-461.81 42.31-4.26 228.39-13.75 270.54-24.95 58.25-15.5 117.01-141.38 350.96-253.22 129.65-61.96 177.49-78.4 206.26-160.94 9.13-26.28 36.62-98.39 42.55-127.92l12.84-304.76c-6.3-60.03-2.95 2.33-22.68-50.11-26.36-69.93 31.92 14.85-8.67-50.23-22.71-36.48-29.22-14.51-57.97-53.74-16.24-45.8 35.26 28.09 2.64-42.32-21.29-45.97-14.17 5.53-43.96-52.77-47.48-92.92 41.83-169.64 1.05-235.69-38.58-62.55-42.18 18.83-30.33-104.33 6.26-64.94 113.4-101.22 96.2-203.68-9.33-55.87 6.49-63.69-27.3-114.71-47.13-71.2-20.52-61.91-99.12-103.49l-77.77 162.7-105.25-65.16c40.76-71.43 123.22-188.44 180.59-263.8 35.37-46.55 51.98-98.56 87.35-139.49 39.54-45.66 84.3-74.37 116.7-122.76 58.27 39.01 96.14 46.29 199.91 47.48 115.33 1.33 137.3-153.71 282.62-90.08 47.79 20.92 57.06 1.96 101.81 37.19 46.57 36.62 144.33 125.65 159.35 181.86-41.92 28.03-65.13 40.53-113.74 63.63-56.07 26.67-52.33 9.64-116.38 45.86-178.63 101.11-72.51 11.4-217.57 51.53-107.91 29.85-92.83 112.19-104.71 193.71-10.68 73.66 82.09 182.84 151.93 162.01 35.14-10.49 25.99-64.45 72.76-151.27 56.83-20.58 4.73-28.77 85.4-36.62 155.69 24.4 274.74 42.6 424.54 96.2 228.45 91.69 246.74 160.68 482.11 51.16 112.04-55.07 317.93-50.31 331.34-211.56-71.34-16.61-93.08-13.95-147.59-41.55-138.54-70.19-314.08 136.05-419.61-21.46 51.08-76.25 120.1-64.57 190.85-67.66l212.49-7.96-13.29-138.52c74.6 48.61 254.93 166.83 332.25 139.22 36.05-12.84 67.18-49.29 109.58-25.9 47.48 34.27-37.61 98.95 180.86 145.32 73.36 15.59 33.54 28.85 117.72 26.39 112.41-3.32 152.04-36.2 110.48 104.36-18.25 61.74-8.5 41.3 34.36 98.38 42.4 56.55-23.33 21.55 56.77 108.08 40.65 43.88 39.91 79.19 104.85 84.61 20.94-15.36 91.94-127.49 95.12-147.16 3.43-21.46-2.95-58.76-1.3-81.55 5.07-69.93 21-166.1 15.9-232.11-3.8-49.32 11.53-100.99 12.3-162.73 1.93-163.66 39.71-341.49 27.12-507.02-5.84-76.78 48.36-88.89 115.53-104.53l108.65 205.38c29.73 61.73-28.6.06 29.19 109.81 16.78 31.83 29.06 44.41 36.2 60.71 19.47 44.13-12.05 2.35 19.98 60.77 264.68 482.93 228.82 334.06 376.95 413.34-5.89-70.94-36.68-187.86 46.6-207.25 78.2 116.81-90.11-27.3 122.39 193.05 61.9 64.23 143.68 55.9 217.88 71.6 0-75.71 65.68-165.02 105.33-209.78 52.15-58.84 38.18-5.83 102.24-49.03 36.02-24.32 37.7-51.56 82.34-81.46 49.29 104.5-65.02 319.83-164.09 415.84-60.31 58.44-73.92 107.56-123.27 192.91-68.65 118.67 2.67 95.63 75.43 92.57 47.5-2.01 7.23 2.75 60.71 17.03l-3.06-150.99c44.87-58.13 93.59 34.33 183.56-71.82 74.4-87.87 69.44-72.19 159.46-92.86l840.92-53.03c146.57-1.56 100.62-121.45 218.17-223.63 31.26 20.97 92.91 53.03 116.72 72.33 48.1 39.06 42.06 73.36 110.11 91.52 30.79-66.49-15.27-123.89 100.88-201.67 36.42 77.38-9.49 304.2 127.78 500.82 2.24 3.17 51.05 126.95 96 182.85 159.64 198.47 378.14 361.93 454.36 453.51 35.57 42.74 158.27 282.62 167.17 334.97 20.07 117.46 61.51 233.53 135.94 320.52 17.66 20.49 423.55 607.02 428.14 624.08 1.19 4.37 9.53 69.56 2.16 80.92-45.86 71.09-33.45-33.56-88.15 48.13 93.99 25.12 22.98 44.3 142.28 26.02 118.97-18.25 289.31 109.75 374.52-51.22-49.07-13.09-164.88-117.74-212.5-153.05-36.79-27.36-120.89-130.76-153.06-174.63-52.15-147.48-92.06-302.44-91.92-458.47 17.97-54.96 42.43-64.06 78.97-66.16 203.28-11.76 410.08 274.71 560.39 393.17 247.05 194.72 38.35 279.41 612.58 215.1 42.34-4.76 98.61-50.93 137.95-84.81 33.81-29.02 20.86-18.53 44.33-28.68 42.83-18.48 289.45-238.18 344.5-287.38 24.03-21.49 50.22-55.95 79.25-84.61 29.5-29.17 51.56-49.94 81.8-82 55.04-58.25 108.84-106.63 160.74-166.98l142.09-183.53c25.28-40.61 48.18-140.67 67.66-224.28 108.58 28.99 46.03 127.77 176.44 138.63l50.42-126.05c25.91 108.22 102.21-6.01 108.31-45.83 9.58-62.76 41.32-115.73 81.43-180.38 35.12-56.64 116.98-91.13 151.56-95.04 52.77-5.93 56.69 13.66 110.94 7.42 99.74-11.45 110.45 21.97 166.38-75.62 41.38-72.14 68.02-41.95 99.8-102.04-93.51-21.8-48.3-39.11-124.83-1.47-36.65 18.02-55.64 25.99-102.01 1.47 37.61-56.21 210.17-165.73 261.11-323.27 21.74-67.31 55.75-187.55-9.05-243.87 76.42 0 1156.99 422.08 1197.41 403.28 41.07-19.13 64.51-138.23 84.69-186.9 18.08-43.82 44.81-78.85 60.88-121.2 18.31-48.3 19.16-107.93 30.87-158.19 59.18 31.32 71.34 107.45 38.24 176.76-26.02 54.47-74.21 79.84-76.08 163.51 44.93 0 24.94-2.12 52.55 10.52 111.28 90.08 86.76 116.75 157.37 21.43 54.42-73.39 197.76-57.14 281.66-57.14 54.7 135.51 309.74 289.84 453.73 289.84 6.41 58.51 11.59 37.82 88.27 37.82 5.13 61.76 66.58 146.28 126.01 151.24 163.18-340.07-332.25-541.46-564.87-619.83-92.54-42.91-240.1-64.17-316.58-99.38-99.06-45.6-30.83-140.73-156.88-221.25-2.35-1.48-5.44-3.43-7.77-4.96l-15.02-10.57c-132.59-89.37-115.84 52.72-199.29 86.39v63.01l88.49 11.05-15.7 139.82-208.19-83.13c-130.35 97.9-81.12 103.17-228.54 54.17-235.31-78.21-537.09-160.63-783.38-247.65-26.56-9.41-76.95-27.46-99.2-34.8-104.62-34.53-84.27-95.81-102.78-141.24-15.22-37.33-92.8-63.13-118.71-78.55-30.01-14.11-103.71 37.31-120.06 77.87-156.97-105.1 9.47-182.43-210.26-219.1-97.59-16.3-44.1-50.74-180.98-20.78-66.72 14.6-115.64 4.34-188.6-5.24-27.64-3.63-47.99-8.59-70.61-8.11-55.58 1.25-1.55 33.93-65.95-25.31-67.58-62.19-52.89-26.42-142.86-54.82-105.78-33.45-224.57 85.97-249.91 194.72-828.11-192.91-1684.67-349.74-2588.82-473.97-457.93-62.89-850.93-79.93-1342.13-132.51-104.79-11.19-258.22-7.71-358.27-19.84-114.4-13.89-255.75-22.45-361.96-28.77-242.77-14.48-514.39-12.87-755.97-12.87-14.77-63.4-31.55-89.45-60.26-134.07l-88.49-189.16c-18.85-27.02 11.68 10.79-12.59-15.48l-44.61-47.7c-43.45-57.03-46.14-100.54-46.14-205.93l201.1-52.55c.57-87.98-60.12-254.33 38.38-262.52 0 63.29 22.62 83.59 48.81 116.07 8.7 10.8 15.92 19.13 16.49 19.84l66.3 87.3c10.85 12.53 38.75 28.57 49.2 36.76 54.03 42.26 70.95 103.23 88.07 155.9 8.39 25.76-.88 4.84 7.94 30.18 8.07 23.19 6.71 15.54 9.89 23.02 18.88 44.78 9.27 53.74 45.15 81.29 176.33 135.23 310.57-28.54 323.58-147.08 99.94 0 164.74-6.97 247.47 18.23 85.91 26.16 33.08 68.11 57.26 181.15 24.54 114.76 176.58 221.56 312.86 77.89-20.18-30.08-47.05-60.69-65.95-84.78-28.18-36-5.87-6.27-22.08-36.51l-153.4-259.07c-11.51-23.04-11.71-20.15-27.84-55.58l-51.73-105.81c-20.4-57.93-5.35-163.71 31.1-239.62l225.11 37.95c15.3-110.31 7.57-125.45-51.39-209.55-89-126.92 14.45-288.29-36.28-408.38-22.88-54.11-13.1 38.63-21.03-68.4-6.01-81.2-63.55-102.46-76.7-198.97-16.44-120.72 16.01-65.48-31.27-156.52l-17.09-37.47c-25.71-43.25 7.12-29.9-79.56-29.9-14.71 63.01-8.62 151.18-57.94 177.57-47.42 25.4-96.62-12.44-105.95 99.69 58.59 21.17 50.94 25.28 57.74 73.81 18.76 135.09 57.11 173.24 28.52 339.19-27.78 161.62-149.46 217.15-376.13 217.15 0 70.12 16.12 73.81-37.84 88.21 0-69.33-10.83-205.95-48.05-254.28-13.29-17.2-8.3-8.08-28.77-34.41-99.6-128.26-217.03-84.69-305.52-72.08-37.02 5.3-46.43-13.15-96.6-17.32-7.28 87.7-15.61 15.22-51.44 74.58l-45.55 93.11c-63.29 97.81-148.89 101.41-237.07 166.26-110.43 81.21-89.17 67.75-153.15 161.85l-10.4 14.85c-23.24 33.59 15.76 9.07-31.72 43.88-73.01 22.99-197.58-124.66-328.02-61.99-23.13 11.11-24.27-5.7-41.95 43.91-17.75 49.68-8.17 124.43-8.17 181.91-85.09-45.04 8.03-41.27-75.59-50.4zm15187.85 4285.01l-3188.81-2684.43c1.21-1.28 3.74 1.98 3.74 3.74l-3.74-3.74 3188.81 2684.43zm-1373.85-2407.17c-69.95-16.75-42.82-26.25-100.82 12.58l37.02-617.59c121.85.11 112.81-16.47 77.69 200.34-9.32 57.59-1.16-10.29 9.55 65.28 10.44 73.69-23.44 244.95-23.44 339.39zm-1726.79-932.61l3.77 3.74c-.22-.26-5.01-2.49-3.77-3.74zm-25.19 0l3.77 3.74c-.23-.26-5.02-2.49-3.77-3.74zm-113.41-12.61c1.25-1.25 3.74 1.98 3.77 3.76l-3.77-3.76zm0-126.05l3.77 3.77c-.28-.26-5.04-2.5-3.77-3.77zm1109.14-680.55c136.93 31.89 431.8 189.26 480.44 263.18 144.47 219.5 187.58 452.32 187.58 732.44h-126.05v-37.78h-100.82v-37.81l-125.73-38.63c-45.58 40.13-43.97 69.01-63.33 152.03h-63.03l-35.69-126.69 73.53.68c23.12-281.09 34.07-321.31-53.15-602.23-38.75-124.8-165.16-254.88-173.75-305.19zm-1247.77-100.82l63.01-327.69 255.15 110.77c135.18 39.15 118.65 5.3 218.48 134.01 129.53 167.15 169.13 463.8 169.13 700.45 0 66.92-35.68 22.5-40.64 20.63-51.7-19.58 14.03-9.95-72.76-8.02-6.13-69.84 13.03-25.31-42.15-25.37-45.07-.02-33.05-8.56-69.28-6.37-32.05 1.92-105.01 45.69-153.25 56.94 0-137.95-64.06-622.81-127.1-767.71-45.26-104.08-98.84-142.11-137.58-215.33l-63.01 327.69zm0 0c-76.73-104.65-220.58-202.4-358.92-218.25-87.11-9.98-63.78-36.39-183.11-8.59 5.56 66.7 18.34 80.59 20.38 148.72l27.69 452.27c-14.99 139.96-3 401.69-23.44 500.9-9.04 43.99 2.58 79.13 1.08 114.37l-70.61 375.02c-20.38 87.75-28.77 159.09-59.04 271.45l-54.62 254.76c-12.27 45.46-19.81 68.42-29.28 111.99l-71.68 279.05c-.34.96-1.59 4.19-1.87 5.16l-133.47 429.84c-13.15 43.17-36.08 67.2-46.66 114.45l-59.46 175.91c-15.99 49.06-4.74 28.25-22.11 64.59-46.86 98.16-76.47 158.76 49.15 212.75 66.49 28.58 75.93 43.94 130.32 50.88 41.78 5.3 56.52 14.29 74.83 18.85 111.51 27.84 281.43 50.2 281.43 212.5 137.22 0 56.35-50.28 151.25-75.6-21.26 91.1-64.29 142.49-99.77 227.92-68.71 165.56-223.87 391.52-260.03 488.57-23.3 62.53-56.13 54.87-56.13 153.12 36.23 17.06 88.01 21.85 114.12-16.59l192.97-310.54c20.52-37.66-9.73 14.18 10.4-18.16l90.19-161.71c.57-.85 2.64-3.71 3.15-4.56l201.35-449c9.27-25.37 52.87-146.85 55.84-173.72h62.98c14.91 44.98-1.75 2.97 26.39 19.16l88.72 43.9c2.49 1.22 16.35 7.65 18.93 8.96l29.93 16.78c48.02 26.7 67.32 62.44 138.55 62.44 22.48-46.85 27.64-115.56 48.53-164.03l86.08-225.93c13.41-46.48 49.01-95.27 54.11-139.34l155.04-532.05c.14-.77.74-3.77.94-4.51 8.78-35.71 27.01-80.86 58.64-93.62 21.23 51.39-203.09 793.33-243.08 891.2-94.78 231.69-163.55 506.26-287.21 721.39-24.97 43.51-61.82 48.33-49.49 76.22 47.7 65.11 109.44-13.97 141.86-47.17 115.16-117.79 241.89-260.71 299.26-419.15 227.12 18.91 126.13 50.42 327.72 50.42l15.44 176.28 98.61 22.84c65.22-129.93 122.51-455.69 166.47-611.75 25.79-91.33 55.78-209.44 83.53-307.2 13.97-49.26 26.87-110.11 34.69-154.59 19.33-110.4 15.93-72.81 105.42-70.8-72 308.98-107.71 596.39-214.06 883.43-32.14 86.85-7.06 71.03 12.41 124.8 6.04 2.78 353.85 113.44 365.5 113.44 84.41-175.96 127.38-380.01 193.88-574.97 17.15-50.36 25.25-175.45 70.8-193.81 58.96 122.81-95.97 450.41-137.18 606.36-19.76 74.63-17.41 29.48-33.08 94.93-24.69 102.8-15.34 8.7-6.8 86.51 253.68 0 745.08 316.2 971.1 321.25l107.91-130.61c60.37 239.88 67.03 187.47 292.37 259.69 69.3 22.22 375.87 119.39 419.01 122.99 59.89 52.04 247.5 49 264.68 113.4l-1106.79-323.27-24.06 134.92c337.04 78.72 748.17 236.17 1094.37 325.62l364.2 114.8c0-61.6 7.28-50.26 14.11-99.92 10.23-74.2 5.5-2.97-14.11-76.53l75.16 14.52.46-291.78c-286.76-66.81-720.83-255.04-995.74-340.27-154.44-47.88-168.73-75.63-378.14-75.63l-29.48 79.2c-4.93-41.44 30.33-140.42 53.72-181.43 43.17-75.8 198.89-732.33 217.43-840.84 97.22-568.92 98.63-635.28 98.63-1224.64-41.21-.91-21.4.6-70.49-30.3l-130.64-71c-.11-.06-23.58-14.54-31.2-19.22l-39.63-23.38c-211.67-112.67-129.67-92.83-130.89 93.08-2.38 342.71-92.92 1135.07-202.04 1475.04-32.97 102.83-61.59 212.55-96.43 319.83-16.89 52.07-64.42 290.96-117.91 259.83-60.74-24.51-12.22-83.61-.23-113.32 14.32-35.6 19.05-85.71 33.31-130.86 27.55-87.05 39.79-172.84 63.46-264.2 108.47-418.7 250.93-1370.95 218.53-1760.15-113.37 9.44-100.05 125.03-239.45 113.43 0-205.52-128.94-233.16-149.97-253.34-53.88-51.7-50.73-254.36-59.55-329.41-20.04-170.18-140.73-595.57-294.35-677.83-194.13-103.91-650.31-224.85-819.8-316.63-90.48-49.01-58.34 3.14-87.96 64.85 133.02 35.51 308.76 261.16 360.6 357.79 132.73 247.64 118.34 294.04 118.34 587.43-60.35 0-206.21-45.21-222.45-54.96-141.64-85.03-78.91 4.54-218.7 4.54-76.65-328.94 31.06-759.32-304.71-1031.22-125.33-101.47-412.46-197.53-578.1-215.5-101.82-11.03-230.93-92.75-328.43-125.77-75.88-25.71-304.73-62.98-349.6-91.52-112.64-71.6-183.05-69.98-291.94-60.94v100.82c294.78 0 265.24 196.82 365.5 176.44l24.51-88.29c72.71 16.87 451.36 182.08 494.19 225 213.8 214.37 228.34 567.96 273.89 797.41 69.98 352.57 68.99 514.22-2.33 915.74-11 61.99-2.04 68.97-14.71 134.64-10.03 52.1-21.71 107.4-26.3 140.1-16.22 115.22-110.4 453.71-126.11 548.24-10.85 65.59-57.48 176.92-80.27 265.44l-238.54 768.84c-40.48 91.1-53.23 173.61-165.67 199.8l105.78-323.29c60.37-127.01 175.7-575.79 222.5-708.55l117.94-433.1c9.35-46.46 15.42-35.49 33.53-89.71 11.51-34.47.74-66.3 14.57-106.49 96.68-281.69 105.44-622.16 126.27-930.6 7.34-108.48-25.59-283.62-23.55-452.46 1.59-137.16-39.51-324.77-143.28-434.21zM6716.01 5912.43l-1611.29 176.55c-256.51 20.67-228.85 10.52-316.03 29.03 0-155.78 1.89-69.33-1.62-256.49-.96-51.28-11.59-96.82 21.31-119.22 8.71-5.95 286.76-42.43 306.89-44.1l-10.55 390.78 1611.29-176.55zm-1789.83-693.16c0-49.8 0 49.8 0 0zm1789.83 693.16c-57.03-85.15-111.17-158.45-179.53-236.42l-192.03-228.91c-73.78-83.7-239.34-264.71-338.61-317.09-1.38-.74-4.62-2.75-6.06-3.46-26.5-12.95-105.16-14.82-141.69-14.82-49.46 0-40.2 22.67-69.76 10.43-38.72-16.04 35.86-98.67 54.88-120.24 73.86-84.01 165.92-119.47 269.46-117.91 128.6 1.96 148.61 25.2 267.01 104.42 493.36 431.03 818.92 900.33 1043.26 1519.79 6.72 18.6 26.62 54.11 34.53 69.64l279.42 695.69 124.29-53.72c-65.17-123.12-109.75-402.77-166.47-546.42-71.54-181.26-162.13-384.57-215.64-514.05l-304.59-566.77c-25.26-43.08-37.42-86.14-62.64-126.36-174.8-278.62-191.04-307.68-419.5-538.37-104.28-105.24-215.3-165.81-336.22-243.59-222.19-143-549.03-229.76-804.49-36.91-133.5 100.82-272.53 283.31-272.53 508.9l-341.24 29.79c90.22-156.6 175.82-296.99 312.78-423.78 83.98-77.8 106.21-38.12 41.1-135.34-85.54 45.26-185.8 116.12-254.59 181.97l-48.78 43.11c-216.49 216.69-366.15 528.93-377.52 871.1-40.81 1224.34 46.71 2053.69 426.84 3152.96 114.37 330.78 260.8 628.79 417.77 930.77 66.21 127.35 90.7 252.64 201.78 226.76-6.18-74.49-198.86-457.68-245.77-586.08-208.33-570.31-475.25-1400.57-524.37-1983.67-7.29-86.99-33-140.5-36.57-240.67-8.42-238.66-62.95-457.51-62.95-781.42 131.38-30.62 206.4-147.68 365.5-151.22 0 274.65 35.54 684.51 91.95 941.48 16.61 75.71 49.63 206.94 54.33 287.67 3.26 55.75 209.78 698.63 238.21 780.94 40.25 116.66 40.79 161.39 69.27 283.64 93.4-7.79 79.88-63.04 63.81-138.94-21.97-103.86-.4-317.06 4.39-428.34-.03-5.61 0-11.14.14-16.58 1.93-95.92 8.25-499.91 32.45-550.42 47.82 22.93 59.33 14.54 75.63 75.62l73.35-30.36c-107.85-480.43-73.35-1546.8-73.35-2137.35 39.03 28.57 240.27 850.78 253.14 956.82 14.23 117.26 89.65 370.6 123.52 494.01 62.48 227.86 41.33 155.89-46.11 328.99-13.52 26.79-29.79 96.2-39.03 124.83-51.56 159.72-47.48 370.66 18.37 520.34 31.17 70.89 84.83 146.29 68.56 207.17l-258.33 752.26c-47.19 130.61 55.98 140.5 94.16 320.86 100.96-26.96 76.39-73.27 125.2-126.05l101.19-131.72c20.29-29.02 8.24-9.55 23.29-29.28l141.9-189.42c.9-1.08 3.37-3.83 4.28-4.93 27.6-36.77 55.52-76.62 84.41-111.96 44.89-54.68 245.31-294.36 263.29-339.71l-118.74-666.63c63.72-.88 210.09-10.2 252.58-43.71 43.36-34.15 30.18-90.78 56.35-134.77.65-1.14 2.63-4.31 3.31-5.5 5.73-10.15 22.65-42.52 22.99-43.14 11.31-19.11 10.29-17.09 21.94-34.69 34.78-52.53 50.39-85.89 105.89-125.49 2.24-1.58 5.3-3.65 7.57-5.18 68.9-45.81 89.28-79.34 177.58-99.92-66.36-138.29-101.28-289.53-182.23-422.72-49.06-80.73-83.16-181.18-142.26-274.06l-230.07-361.87zm945.25 2444.97c-15.95 38.72 15.96 909.6 26.02 994.52-4.22 64.4-74.74 761.16-53.74 767.48 36.77 11.02 112.33 15.33 115.99 15.02-4-179.68 56.26-394.72 75.02-554.56 34.13.6 60.92.4 88.84.03 0 73.02 21.57 103.4 31.74 171.68 18.79 125.62-6.55 340.81-6.55 471.06l-57.9 351.72c58.05-3.46 106.6 4.45 135.88-40.31 249.8-382.7 234.35-988.76 198.52-1525.6-18.68-279.25-63.23-1003.24-212.95-1226.11-9.38-13.98-32.2-17.27-101.39-17.27 68.54 294.95 201.59 592.34-239.48 592.34z"/><path class="fil0" d="M3943.06 6517.38c0 324.03 3.29 622.92 59.02 919.85 38.37 204.45 48.1 316.24 96.39 537.95 21.26 97.5 301.9 1062.8 361.39 1062.8 41.3 0 116.47-50.4 163.86-63.04-198.32-374.77-430.38-1571.15-428.62-2016.41 1.16-286.14.08-555.38.08-844.43 0-305.92-28.37-499.09 84.87-734.35 65.73-136.67 252.46-432.87 381.45-462.95-3.99-48.55-57.56-75.62-100.82-75.62-49.74 0-271.7 212.87-306.99 260.17l-118.11 171.74c-215.5 406.83-192.52 683.21-192.52 1244.29zm-768.81 2986.89c99.92 62.3 251.36 214.11 277.27 214.25 64.11-33.93 39.76-46.11 23.52-116.12-41.47-178.43-144.27-460.57-206.49-671.31-13.09-44.3-29.59-92.2-42.57-133.87-16.75-53.48-20.32-100.62-36-153.09-96.51-322.58-154.39-873.4-154.39-1307.57 0-286.79 33.96-562.24 56.69-805.38 9.72-104.56 44.33-237.52 62.27-361.16 17.35-119.53 81.8-265.33 70.13-320.6-147.14 34.26-146.57 27.46-199.38 203.39-3.43 11.6-12.18 46.94-12.95 49.01-5.78 16.36-12.92 20.41-24.91 51.7l-79.37 343.51c-19.1 66.95-22.93 132.56-39.82 204.78-15.68 66.73-36.11 198.05-44.56 271.63-69.19 599.93-36.28 1100.21 70.95 1630.25 31.26 154.53 139.05 513.4 204.84 686.38 19.64 51.7 73.04 136.65 74.77 214.2zM527.41 9655.51L482.94 9919c135.74-9.58 701.26-239.56 762.88-200.48l-703.98 244.67 26.81 246.51 1518.51-574.93-60.79-470.69-368.96 121.6c-113.94 33.56-281.69 76.9-382.28 121.85l-747.72 247.98zm15981.91-5381.44c9.16 12.5 7.51 19.22 40.93 17.74l14.66-3.03c57.22-12.84 51.04-27.92 83.05-14.71-22.65 84.86-186.25 118.79-193.48 121.57-18.82 7.23-48.16 30.07-71.2 42.26-41.19-154.19-147.59-81.29-189.06-100.82-99.66-41.41-35.97-178.23-226.87-50.42l-62.98-126.02c-32.91 2.72-88.94 22.05-101.27 28.2-76.22 38.01-17.83 38.69-88.61 11.96-115.02-43.45-194.69 71.82-274.09 139.09-121.88 103.31 2.92-11.29-83.02 117.17-27.15 40.5-69.33 111.08-70.66 169.87 138.44-32.23 285.83-222.39 360.31-238.01 67.8-14.23-38.06 12.53 40.22-.37 60.18-9.92 5.82-39.17 133.39 33.05 48.84 27.64 34.98 18.03 74.52 42.8 146.23 91.64 123.78 26.82 231.26 180.33 64.74 92.46 80.53 43.08 171.26 27.89 82.2-13.75 119.16-81.38 182.05-113.46 69.05-35.24 23.22 13.69 97.48-27.24 36.17-19.93 58.22-36.23 95.97-56.21-7.34-88.29-35.8-18.34-25.03-79.56 6.89-39.17 25.03-32.88 25.03-109.49 191.69-15.96 146.77 116.97 339.4-89.12 90.64-96.97 102.01-138.23 341.18-11.71 42.94-64.05 134.35-124.68 138.66-176.44-56.01-13.04-71.83-61.25-210.29-130.01-71.2-35.35-51.81-46.43-100.99-76.45l-72.56-26.9c-29.28-10.65 6.89-17.74-19.5-6.09-44.82 30.02-78.03 68.22-118.6 109.29-48.15 48.81-19.58 22.17-59.89 34.84-60.85 19.13-10.77 7.03-69.95 48.92-115.22 81.46-279.25-93.19-386.16-87.16-149.66 8.48-238.72-22.96-274.94 81.24-18.17 52.46 33.08 71.74 39.91 153.14l-80.98 82.77c46.23 24.4 35.37 21.2 160.09-27.38 66.75-26 22.22 12.67 75.36-27.47 38.21-28.85 28.63-54.28 59.78-40.5 36.42 14.06 13.46 3.63 14.12 56.69 1.5 120.52-89.34 120.83-34.7 148.66 28.15 14.34 74.95-14.71 96.2-28.91zm7865.37 3681.95c-.46 122.79-46.77 134.58-69.05 215.39l-41.3 118.73c-11.62 29.14-18.87 38.81-31.37 77.75-10.29 32-23.53 75.11-32.91 101.27-15.42 43.06-29 108-43.88 162.25-27.21 99.43-106.77 509.12-100.22 609.03 4.62 70.15 9.86 487.78-9.44 541.09 114.59 7.54 221.2 8.11 333.35 12.79 63.52 2.63 42.8 51.78 120.44-.17 28.4-33.31-16.89-24.35 4.34-152.72l24.12-271.29c8.76-69.5 2.92-88.26 16.24-146.65l58.22-351.84c44.38-134.92 24.86-115.16 40.61-161.28 10.18-29.9 37.16-63.09-17.51-63.09-2.01 0-112.19 18.76-126.62 23.41-6.06 1.96-140.98 14.4-163.26 14.4 95.97-83.42 132.37-155.16 239.48-226.87-16.27-44.92-102.66-100.45-151.27-113.43-5.08-228.8-2.98-163.35 25.03-403.31l-75 14.54zM3590.57 5586.5c-49.26 207.93-142.03 476.12-166.49 687.26-57.31 495.8-44.44 595.4-48.19 1012.4 0 144.04 56.35 451.27 88.75 667.45 41.95 279.42 161 537.63 188.57 655.86 95.47 0 186.28 58.87 168.37-26.08-19.45-92.49-82.99-288.91-111.45-434.18-85.69-437.83-145.18-689.73-145.18-1215.94 0-182.76 18-566.8 49.04-719.77 11.39-56.18 21.45-103.23 25.68-163.38 7.59-109.41 89.14-366.09 89.14-490.55l-138.24 26.93zM2266.75 7651.63c0 270.6-37.81 392.26 8.93 746.33 56.07 425.14 41.3 425.48 163.55 858.24l142.63 449.71 111.08-43.45c-39.26-176.93-126.33-433.95-178.26-682.93-108.87-522.27-81.23-718.04-83.98-1201.77-2.64-463.54 188.94-1085.38 188.94-1172.18-116.83 0-82.37-6.85-151.24-12.58-11.65 140.08-120.69 377.94-137.56 555.6-21.23 223.92-64.09 395.72-64.09 503.03zm12392.46 473.04c153.31 27.29 196.51-55.81 335.99 32.74 84.35 53.57 91.01 143.81 87.98 241.52-4.62 150.45-22.62 158.16 152.38 213.29 73.44 23.13 234.1-10.74 270.26-48.95 50.99-53.86 7.8-77.52 7.8-155.44 0-46.03 10.09-23.3-14.74-84.44-10.52-36.79-11.11-70.12-26.47-89.03-58.54-71.65-141.02 4.34-149.95-109.78-5.1-64.88 21.04-132.08-6.43-194.07-25.65-58.02-98.64-95.78-165.08-102.21l-203.54-23.07c-88.6-4.65-171.23 27.21-254.16 63.63-179.28 78.77-326.24 130.3-199.23 208.5 32.91 20.24 92.91 18.2 165.19 47.31zm10647.72 383.98c8.56 102.69 32.17-12.7 38.92 112.33l14.68 727.2c-3.29 107.96 16.98 211.36 9.44 294.72l-44.11 542.51c110.72 9.16 107.91-43.14 111.48-119.87l75.11-361.44c32.91-112.64 63.89-213.12 75.74-327.72 4.22-40.73-8.42 19.19 4.76-15.45l7.85-17.23c.54-1.36 13.78-45.69 14.09-46.57l83.13-290.36c1.34-50.14 5.53-44.47 17.18-83.47 10.4-34.78 53.29-163.55 45.47-200.4l-173.02-91.63c-61.5-26.48-70.26-3.18-166.75-98.9-43.05-42.77-42.37-58.08-113.97-23.72zM22307.17 9227c98.67 108.9 305.98-34.4 398.69-117.51 22.08-19.78 35.69-47.19 56.35-68.71 27.49-28.74 72.9-166.29 74.35-179.25l51.1 125.8 37.1.22c10.52-95.83-.56 29.71 81.75-118.87 80.38-145.04 134.44-182.34 163.52-378.57 11.28-76.25-31.78-51.5 32.03-57.08 0-74.72-56.72-126.51-100.85-128.15-93.91-3.57-289.79 326.47-331.35 401.72-89.79 162.64-423.66 412.64-462.69 520.4zM9980.45 9050.56c24.37 46.09 82.31 128.74 116.95 185.54 115.39 189.2 247.56 202.27 344.21 260.2l194.21 96.2c62.19 0 43.77-57.51 49.92-90.87 12.3-66.66 30.98-58.1 52.21-109.58 140.19-339.9-260.29-338.97-503.82-340.41-52.27 2.55-173.24-49.32-253.68-1.08zM7661.26 7613.82l3.77 3.77c-.22-.26-4.99-2.5-3.77-3.77zm50.43 12.61c-6.21-74.49-23.05-12.16-15.45-79.53 5.61-49.52 2.86-25.94 2.86-96.91h252.07c49.01 0 54.48-20.3 113.43-25.2 5.7-68.28 71.63-114.37-65.13-106.89-51.82 2.84-227.3-4.42-257.37-24.46-53.26-35.45-152.18-117.2-194.27-120.71l-20.12-139.57-42.86.93c-6.35 76.36-30.13 17.1-88.1 87.73-51.5 62.78-112.64 207.2-110.51 268.36 3.03 84.95 5.05 84.84 20.75 159.67.76 3.54-24.97 97.9 82.4 183.04l39.71 10.32c138.15 12.59 181.09-89.68 282.59-116.78zm4537.35-189.17c125.08-97.3 104.16-182.51 154.42-286.95 8.95-15.76 17.29-31.84 26.1-47.54 22.76-40.25 22.74-26.22 55.13-59.66 73.39-75.74 132.85-199.32-33.87-185.46-4.34-49.8-12.41-38.66-75.79-15.02l-256.23 151.04c-60.43 64.2-79.79 20.81-130.33 96.77-8.14 12.28 7.37-3-12.22 16.5-30.52 30.33-46.48 45.35-75.36 82.11-54.88 74.55 3.85 135.4 43.05 234.13 31.55 79.44 50.99 106.37 113.09 96.28 49.12-7.96 137.5-39.79 192.01-82.2zm4146.82 786.7v209.07c0 132.25 174.21 135.03 342.03 129.95 239.28-7.25 151.25-163.68 89.4-171.54-62.9-7.73-236.25-22.16-123.24-126.21 33.98-31.29 77.46-73.27 82.57-134.67-88.89-98.1-58.39-38.88-151.87-63.57-53.89-14.23-34.55-14.23-104.88-7.26-110.54 10.97-134.01 67.12-134.01 164.23z"/></g></g></g></svg>