<svg xmlns="http://www.w3.org/2000/svg" width="36" height="36"><path fill="#1E2741" paint-order="stroke fill markers" fill-rule="evenodd" d="M33.773 9.561a.285.285 0 0 0-.02-.013L22.02 2.081c-.013-.008-.029-.012-.042-.019a.543.543 0 0 0-.192-.057c-.015 0-.028-.005-.041-.005h-7.478a.532.532 0 0 0-.157.025c-.008.002-.015.007-.023.01a.53.53 0 0 0-.106.048L4.035 8.41a.521.521 0 0 0-.208.085.508.508 0 0 0-.116.12l-1.465.933a.533.533 0 0 0-.15.756l3.733 5.334c.16.23.472.295.712.151l4.598-2.759.456 5.477-2.654 14.866a.533.533 0 0 0 .525.627h17.068a.533.533 0 0 0 .524-.627l-2.654-14.866.457-5.477 4.598 2.76c.24.143.551.077.712-.152l3.733-5.334a.533.533 0 0 0-.131-.743zM18 3.065h2.362l-2.764 2.534-2.172-2.534H18zm-3.838.164l2.65 3.09-.622.569-2.745-3.2.717-.459zM6.418 14.62l-3.129-4.47.723-.46 3.142 4.489-.736.44zM14.8 32.933h-4.697l2.48-13.884a.493.493 0 0 0 .083.017H14.8v13.867zm.173-24.928a.533.533 0 0 0-.173.393v9.6h-2.134c-.014 0-.027.008-.042.01l-.49-5.92a.534.534 0 0 0-.807-.413l-3.253 1.952-3.158-4.51 7.62-4.852 2.867 3.345-.43.395zm1.96 24.928h-1.066V19.066h1.066v13.867zm0-23.468v8.534h-1.066V8.633L21.792 3.2l1.043.664-5.727 5.205a.534.534 0 0 0-.175.395zm8.964 23.468H18V19.066h5.334a.49.49 0 0 0 .083-.017l2.48 13.884zm1.777-19.459l-3-1.8a.533.533 0 0 0-.807.414l-.494 5.92c-.014 0-.027-.009-.042-.009H18V9.701l5.692-5.174a.51.51 0 0 0 .059-.08l6.973 4.438-3.034 4.551c-.008.012-.01.026-.016.038zm1.908 1.145l-1-.6 3.041-4.562 1.087.692-3.128 4.47z"/></svg>