<svg xmlns="http://www.w3.org/2000/svg" width="37" height="30"><path fill="#1E2741" paint-order="stroke fill markers" fill-rule="evenodd" d="M34.95 26.63V9.954a.995.995 0 0 0-.995-.995H30.97V4.98h2.984a.995.995 0 0 0 0-1.99H6.797A2.989 2.989 0 0 0 3.984 1 2.988 2.988 0 0 0 1 3.985 2.988 2.988 0 0 0 3.984 6.97a2.989 2.989 0 0 0 2.813-1.99h4.215v3.98H5.973a.995.995 0 0 0-.995.995V27.01c0 .381.214.712.527.879A3.377 3.377 0 0 0 8.012 29a3.378 3.378 0 0 0 2.817-1.508 1.406 1.406 0 0 1 1.194-.622c.496 0 .932.227 1.195.622A3.378 3.378 0 0 0 16.035 29a3.379 3.379 0 0 0 2.817-1.508 1.375 1.375 0 0 1 1.162-.622c.474 0 .898.227 1.161.622A3.378 3.378 0 0 0 23.992 29a3.378 3.378 0 0 0 2.817-1.508 1.406 1.406 0 0 1 1.194-.622c.496 0 .932.227 1.195.622A3.378 3.378 0 0 0 32.015 29a3.378 3.378 0 0 0 2.817-1.508.995.995 0 0 0 .117-.863zM3.983 4.98a.996.996 0 0 1 0-1.99.996.996 0 0 1 0 1.99zm20.953 0h4.045v3.98h-4.045V4.98zm-5.968 0h3.979v3.98h-3.979V4.98zm-5.967 0h3.978v3.98h-3.978V4.98zM32.96 26.644a1.372 1.372 0 0 1-.945.366c-.475 0-.898-.227-1.162-.622a3.41 3.41 0 0 0-2.85-1.508 3.41 3.41 0 0 0-2.85 1.508 1.375 1.375 0 0 1-1.16.622c-.476 0-.9-.227-1.163-.622a3.378 3.378 0 0 0-2.816-1.508 3.378 3.378 0 0 0-2.817 1.508 1.375 1.375 0 0 1-1.162.622c-.475 0-.898-.227-1.161-.622a3.41 3.41 0 0 0-2.85-1.508 3.41 3.41 0 0 0-2.85 1.508 1.375 1.375 0 0 1-1.162.622c-.41 0-.781-.169-1.044-.468V16.92H32.96v9.724zm0-11.714H6.968v-3.98h4.044v.995a.995.995 0 1 0 1.99 0v-.995h3.978v.995a.995.995 0 1 0 1.99 0v-.995h3.978v.995a.995.995 0 1 0 1.989 0v-.995h4.045v.995a.995.995 0 1 0 1.989 0v-.995h1.989v3.98z"/></svg>