<svg xmlns="http://www.w3.org/2000/svg" width="33" height="33"><path fill="#1E2741" paint-order="stroke fill markers" fill-rule="evenodd" d="M1 1v30h1.875V2.875H31V1H1zm3.75 3.75H8.5v1.875H4.75V4.75zm5.625 0h3.75v1.875h-3.75V4.75zm5.625 0h3.75v1.875H16V4.75zm5.625 0h3.75v1.875h-3.75V4.75zm5.625 0H31v1.875h-3.75V4.75zm.598 14.108L14.781 8.175 12.256 10.7l9.707 11.863h-11.12a4.219 4.219 0 1 0 0 8.437H23.5v-1.875H10.844a2.344 2.344 0 1 1 0-4.687h12.87c.52.355 1.126.562 1.755.6h.172a3.484 3.484 0 0 0 2.207-6.18zm-.961 3.717a1.73 1.73 0 0 1-.108.119l.002.002a1.562 1.562 0 0 1-1.218.468 1.588 1.588 0 0 1-1.125-.548v-.053h-.052L14.78 10.826l.126-.126 11.753 9.612c.688.563.79 1.576.227 2.263zm2.238 6.55H31V31h-1.875v-1.875zm-3.75 0h1.875V31h-1.875v-1.875z"/></svg>