<svg xmlns="http://www.w3.org/2000/svg" width="33" height="38"><path fill="#1E2741" paint-order="stroke fill markers" fill-rule="evenodd" d="M30.964 3.899a.522.522 0 0 0-.59-.448.53.53 0 0 0-.44.603c.04.277.02.4.025 1.221-.43.386-.708.594-1.29.594-1.32 0-1.41-1.414-3.226-1.414-1 0-1.528.463-1.953.835-.383.337-.66.58-1.274.58-.613 0-.89-.243-1.273-.58-.424-.372-.953-.835-1.952-.835-1 0-1.528.463-1.952.835-.384.337-.66.58-1.274.58s-.89-.243-1.273-.58c-.425-.372-.954-.835-1.953-.835-1 0-1.527.463-1.952.835-.384.337-.66.58-1.274.58-.458 0-.728-.136-.995-.344-.073-.607.32-2.126-.899-3.464 4.347 0 20.265-.001 20.17.001a2.289 2.289 0 0 1 1.523.524c.223.185.55.15.732-.076a.538.538 0 0 0-.074-.746C29.2 1.29 28.463 1 27.548 1H4.44C2.543 1 1 2.573 1 4.506V28.46c0 .802.64 1.453 1.425 1.453h4.852v4.264c0 1.557 1.242 2.824 2.77 2.824h13.812c.287 0 .52-.238.52-.53a.526.526 0 0 0-.52-.53H10.046c-.953 0-1.728-.792-1.728-1.764v-.84c.272.112.596.186.995.186 1 0 1.528-.463 1.953-.835.382-.337.66-.58 1.273-.58.614 0 .89.243 1.273.58.425.372.954.835 1.953.835 1 0 1.528-.463 1.952-.835.383-.337.66-.58 1.274-.58.613 0 .89.243 1.273.58.425.372.953.835 1.952.835 1 0 1.529-.463 1.953-.835.383-.337.66-.58 1.274-.58 1.313 0 1.414 1.415 3.226 1.415.554 0 .963-.142 1.29-.333v.987c0 .972-.775 1.763-1.73 1.763H25.94a.526.526 0 0 0-.52.53c0 .293.233.53.52.53h2.29c1.527 0 2.77-1.266 2.77-2.823V4.395c0-.167-.013-.333-.036-.496zm-1.005 27.968c-.43.386-.708.594-1.29.594-1.32 0-1.41-1.414-3.226-1.414-1 0-1.528.463-1.953.835-.383.337-.66.579-1.273.579-.614 0-.89-.242-1.274-.58-.424-.371-.953-.834-1.952-.834-1 0-1.528.463-1.952.835-.384.337-.66.579-1.274.579-.613 0-.89-.242-1.273-.58-.425-.371-.953-.834-1.953-.834s-1.527.463-1.952.835c-.384.337-.66.579-1.274.579-.458 0-.728-.135-.995-.344v-2.6c.272.112.596.186.995.186 1 0 1.528-.463 1.953-.835.383-.337.66-.58 1.273-.58.614 0 .89.243 1.274.58.424.372.953.835 1.952.835 1 0 1.528-.463 1.952-.835.383-.337.66-.58 1.274-.58.613 0 .89.243 1.273.58.425.372.954.835 1.953.835 1 0 1.528-.463 1.952-.835.384-.337.66-.58 1.274-.58 1.313 0 1.414 1.415 3.226 1.415a2.48 2.48 0 0 0 1.29-.333v2.497zm0-3.82c-.43.387-.708.595-1.29.595-1.32 0-1.41-1.414-3.226-1.414-1 0-1.528.463-1.953.835-.383.336-.66.579-1.273.579-.614 0-.89-.243-1.274-.58-.424-.371-.953-.834-1.952-.834-1 0-1.528.463-1.952.835-.384.336-.66.579-1.274.579-.613 0-.89-.243-1.273-.58-.425-.371-.953-.834-1.953-.834s-1.527.463-1.952.835c-.384.336-.66.579-1.274.579-.458 0-.728-.135-.995-.344v-6.35c.272.113.596.187.995.187 1 0 1.528-.463 1.953-.835.383-.336.66-.58 1.273-.58.614 0 .89.244 1.274.58.424.372.953.835 1.952.835 1 0 1.528-.463 1.952-.835.383-.336.66-.58 1.274-.58.613 0 .89.244 1.273.58.425.372.954.835 1.953.835 1 0 1.528-.463 1.952-.835.384-.336.66-.58 1.274-.58 1.313 0 1.414 1.415 3.226 1.415a2.48 2.48 0 0 0 1.29-.332v6.245zm0-7.567c-.43.387-.708.595-1.29.595-1.32 0-1.41-1.415-3.226-1.415-1 0-1.528.463-1.953.835-.383.337-.66.58-1.273.58-.614 0-.89-.243-1.274-.58-.424-.372-.953-.835-1.952-.835-1 0-1.528.463-1.952.835-.384.337-.66.58-1.274.58-.613 0-.89-.243-1.273-.58-.425-.372-.953-.835-1.953-.835s-1.527.463-1.952.835c-.384.337-.66.58-1.274.58-.458 0-.728-.135-.995-.344V18.13c.272.112.596.186.995.186 1 0 1.528-.463 1.953-.835.383-.336.66-.58 1.273-.58.614 0 .89.244 1.274.58.424.372.953.835 1.952.835 1 0 1.528-.463 1.952-.835.383-.336.66-.58 1.274-.58.613 0 .89.244 1.273.58.425.372.954.835 1.953.835 1 0 1.528-.463 1.952-.835.384-.336.66-.58 1.274-.58 1.313 0 1.414 1.415 3.226 1.415a2.48 2.48 0 0 0 1.29-.332v2.496zm0-3.818c-.43.386-.708.594-1.29.594-1.32 0-1.41-1.415-3.226-1.415-1 0-1.528.463-1.953.835-.383.337-.66.58-1.273.58-.614 0-.89-.243-1.274-.58-.424-.372-.953-.835-1.952-.835-1 0-1.528.463-1.952.835-.384.337-.66.58-1.274.58-.613 0-.89-.243-1.273-.58-.425-.372-.953-.835-1.953-.835s-1.527.463-1.952.835c-.384.337-.66.58-1.274.58-.458 0-.728-.135-.995-.344V15.72a.525.525 0 0 0-.52-.53.525.525 0 0 0-.521.53v13.131H2.425a.389.389 0 0 1-.384-.391V4.506c0-1.348 1.076-2.445 2.399-2.445h.851c1.116.151 1.986 1.172 1.986 2.334v9.203c0 .293.232.53.52.53.288 0 .52-.237.52-.53v-3.036c.273.113.597.187.996.187 1 0 1.528-.463 1.953-.835.383-.337.66-.58 1.273-.58.614 0 .89.243 1.274.58.424.372.953.835 1.952.835 1 0 1.528-.463 1.952-.835.383-.337.66-.58 1.274-.58.613 0 .89.243 1.273.58.425.372.953.835 1.952.835 1 0 1.529-.463 1.953-.835.384-.337.66-.58 1.274-.58 1.313 0 1.414 1.415 3.226 1.415.554 0 .963-.142 1.29-.332v6.245zm0-7.568c-.43.386-.708.594-1.29.594-1.32 0-1.41-1.414-3.226-1.414-1 0-1.528.463-1.953.835-.383.337-.66.58-1.273.58-.614 0-.89-.243-1.274-.58-.424-.372-.953-.835-1.952-.835-1 0-1.528.463-1.952.835-.384.337-.66.58-1.274.58-.613 0-.89-.243-1.273-.58-.425-.372-.953-.835-1.953-.835s-1.527.463-1.952.835c-.384.337-.66.58-1.274.58-.458 0-.728-.136-.995-.344V6.743c.272.113.596.187.995.187 1 0 1.528-.463 1.953-.835.383-.337.66-.58 1.273-.58.614 0 .89.243 1.274.58.424.372.953.835 1.952.835 1 0 1.528-.463 1.952-.835.383-.337.66-.58 1.274-.58.613 0 .89.243 1.273.58.425.372.954.835 1.953.835 1 0 1.528-.463 1.952-.835.384-.337.66-.58 1.274-.58 1.313 0 1.414 1.415 3.226 1.415a2.48 2.48 0 0 0 1.29-.332v2.496z"/></svg>