<svg xmlns="http://www.w3.org/2000/svg" width="320mm" height="150mm" viewBox="0 0 32000 15000" shape-rendering="geometricPrecision" text-rendering="geometricPrecision" image-rendering="optimizeQuality" fill-rule="evenodd" clip-rule="evenodd"><path d="M18277.16 7941.39c-7.01 26.31-38.37 92.81-52.8 116.12-41.36 67.21-199.45 221.63-341.34 221.63-282.32 0-554.57-74.86-790.81-203.8-142.06-77.63-316.27-186.27-434.56-297.26-193.8-181.86-166.55-561.81-62.03-823.53 120.18-300.68 358.24-445.28 650.91-531.32 148.55-43.67 522.67-62.27 687.4 22.6 79.21 40.78 153.25 119.88 207.86 186.21 170.97 207.28 166.38 445.4-81.27 548.68-58.03 24.19-92.05 28.37-149.07 57.32-55.86 28.37-89.93 40.96-140.96 65.51-109.23-162.97-77.27-34.55-152.25-279.38-173.79-567.4-670.57 42.79-146.6 596.76 90.4 95.52 187.21 160.91 310.45 215.05 76.74 33.85 397.55 103.29 495.07 105.41zm-4109.98-637.84c-211.87-101.7-388.6-120.83-476-294.62-37.25-73.92-18-125.47 1.94-197.63 34.43-124.12 112-198.1 144.84-230.94 30.61-30.66 38.2-32.6 70.39-61.03 106-93.81 189.09-126.58 353.12-134.83l457.93 48.09c267.19 68.21 465.05 226.93 590.35 460.34 153.54 285.78 132.3 459.7 65.62 717.77-26.19 101.16-37.96 116.17-107.46 174.03l-30.9 25.42c-207.93 173.49-413.21 300.38-682.28 387.3-134.77 43.62-331.69 81.69-500.07 81.69-163.61 0-359.12-187.5-394.08-337.75 223.94 0 561.45-98.05 746.84-266.42l157.02-180.74c231.23-330.28 115.58-864.02-146.13-652.68-54.97 44.32-70.75 97.17-94.17 168.61-77.21 235.83-68.44 161.32-156.96 293.39zm6605.91 56.26c64.21-55.79 139.78-48.56 332.05-212.1 103.81-88.23 187.15-163.91 295.03-249.19 111.93-88.51 221.46-130.41 385.89-158.31 171.68-29.13 321.51-37.08 525.91-37.08-90.1 78.34-231.41 138.18-332.69 211.52-62.39 45.26-98.99 74.69-170.32 111.11-32.26 16.48-43.61 22.07-90.64 40.73-138.77 55.14-394.84 166.31-518.19 194.91-107.88 25.02-345.7 96.59-427.04 98.41zM9625.64 6703.13c196.46 0 348.83 7.65 509.79 34.48 162.55 27.08 288.32 72.52 391.72 152.5 174.56 135.18 350.23 320.39 540.33 416.67l97.11 53.03c-86.52-1.94-133.54-28.31-208.64-43.9-316.92-65.74-718.47-209.93-988.54-391.55-62.04-41.67-108.88-72.22-171.68-109.76-50.14-29.95-137.42-66.98-170.09-111.47zm-37.48-18.77l5.53 5.59c-.35-.36-7.42-3.71-5.53-5.59zm-3359.3-150.08c-259.25 0-493.07-37.13-742.61-83.04-228.41-42.02-389.66-75.8-596.35-135.54-254.31-73.62-605.12-246.47-836.12-271.07-375.42-39.9-533.55-45.85-907.57 34.42-360.23 77.34-682.1 272.08-950.7 512.96-2.88 2.53-6.88 6.42-9.59 9.13l-147.02 172.03c-49.55 51.25-37.72 37.72-70.09 98.81 29.08 39.61 53.15 47.84 93.93 75.04 23.9-66.15 190.09-158.26 256.01-194.22 105.99-57.67 198.21-111.29 318.51-150.66 503.89-164.78 858.07-177.44 1378.97-50.91l562.51 150.54c386.13 79.4 832 132.72 1293.64 132.72 107 0 129.71-18.77 243.89-18.77 0 380.42-107.82 515.78 212.4 913.45 54.44 67.62 66.68 92.22 140.25 141.18 229.34 152.61 306.91 166.09 569.1 237.77 300.14 82.1 507.25 34.73 773.03-104.7 79.21-41.61 151.37-141.42 200.86-211.93 59.15-84.27 109.35-164.55 135.36-271.95 8.47-35.26 3.47-21.43 12.42-54.8 29.08-108.58 28.48-254.59 2.18-367.59-68.1 18.19-44.61 8.76-76.63 73.51-92.99 187.85-185.39 317.45-394.72 393.37-246.3 89.34-583 59.56-778.68-80.22-74.04-52.91-112.05-88.93-156.96-162.08-125.24-203.92-117.53-445.05-1.88-638.79 166.31-278.78 543.79-279.96 883.43-279.96-119.88 163.44-212.22 173.73-317.45 395.61-28.36 59.68-51.31 106.23-57.91 185.98 93.58-7.77 95.52-40.32 168.91-75.04 289.97-137.19 564.75-150.08 882.02-150.08 86.87 0 305.74 315.86 350.47 400.14 24.95 47.26 43.37 79.57 65.56 122.07 22.31 42.78 36.66 93.98 50.9 136.64 20.61 61.5 26.9 77.46 40.56 147.08 17.48 88.75 3.58 105.94 93.04 113.35 40.67-174.38 105.59-513.31 18.78-694.16 171.85 3.82 599.77 310.33 728.88 415.73l70.92 60.44c221.29 194.21 805.1 368.18 1107.78 449.81 516.38 139.19 1124.09 143.43 1676.83 143.43 113.88 0 502.6-8.54 563.05-37.5 0 139.49 44.19 267.85 115.94 371.9 65.5 95.04 139.24 186.38 253.18 234.64 171.79 72.74 176.08 53.32 380.83 69.38 132.3 10.36 269.02 74.51 413.56 74.51 10.54 126.42 240.3 187.92 334.11 247.66 46.72 29.78 88.63 46.72 135.07 71.32 0 336.88 132.24 600.36 506.71 600.36-54.08 255.48.66 293.21 62.68 425.15 53.97 114.71 105.7 194.04 206.98 270.66 46.27 34.96-19.77-24.01 21.43 17.78l221.69 162.13c3.89 1.89 8.72 4.24 12.6 6.13l25.19 12.42c176.97 90.98 208.28 41.84 376.01-42.97 134.06-67.68 225.41-233.76 294.97-361.82 61.86-114 167.2-382.9 167.2-508.26 125.83 29.31 256.25 18.19 372.42-40.36 115.23-58.03 185.39-180.15 222.52-302.86 24.48-80.81 43.9-158.55 5.53-238.36l397.85-202.74c54.32-27.84 83.86-41.14 90.16-116.24 124.17 0 251.89-33.43 364.06-68.97 100.64-31.84 172.38 4.12 277.49-23.25 124.94-32.54 229.7-87.04 323.45-181.2 96.58-96.82 198.45-293.44 198.45-477.01 143.31 68.69 882.38 37.5 1088.48 37.5 409.49 0 788.62-48.44 1151.75-143.14 66.56-17.36 137.89-43.9 198.68-62.09 47.91-14.29 28.67-6.82 76.75-21.07 22.06-6.58 67.68-19.47 99.63-29.48 212.52-66.92 597.89-209.86 751.38-355.94 219.57-208.86 512.78-347.88 780.85-476.47-63.32 271.78-40.9 457.11 18.77 712.94 149.97-12.47 44.38-188.21 240.01-510.55 272.95-450.04 310.68-408.73 604.47-408.73 142.72 0 288.2 31.19 416.5 69.92 116.18 35.01 328.34 153.84 390.43 155.2-8.77-104.88-88.69-253.25-139.31-329.75-11.41-17.25-39.19-51.74-49.78-62.81-2.65-2.76-6.6-6.64-9.36-9.35l-19.65-17.9c-19.96-18.18-19.02-14.88-39.67-35.42l-117.53-126.36c316.86 0 694.23.95 868.72 257.19 234.05 343.58 52.79 819.52-354.06 914.04-297.73 69.21-523.67 59.97-759.14-120.12-90.69-69.45-156.31-164.2-201.39-267.66-32.07-73.62-7.12-69.92-79.57-89.28-74.03 317.74 40.13 598 255.01 833.18 24.48 26.83 5.59 8.88 27.66 28.65 2.83 2.48 36.72 27.55 43.55 31.49 36.96 21.36 54.74 24.19 89.22 42.14 325.63 169.08 578.05 132.77 914.57 18.96 188.74-63.86 211.1-83.93 370.24-192.64 81.86-55.84 72.27-54.32 133.07-129.64 304.44-377.36 212.17-599.19 212.17-913.57 109.64 0 131.17 18.77 225.22 18.77 1321.12 0 1863.68-375.24 2477.23-375.24 302.55 0 548.97 60.79 774.85 144.65 158.37 58.86 303.97 137.36 444.93 230.53 50.25 33.2 114.16 64.97 131.35 112.59 40.67-27.2 64.8-35.43 93.93-75.04-41.78-78.86-79.45-109.29-141.65-177.39l-162.79-156.19c-65.39-58.2-99.88-90.28-176.03-143.01l-210.4-127.3c-31.07-17.66-66.8-34.25-100.28-49.9-38.85-18.19-72.69-33.38-117.6-51.26-434.8-173.33-1000.19-212.11-1440-48.26-193.44 72.09-351.29 136.01-560.27 190.33-202.81 52.61-374.13 103.99-592.59 139.24-260.78 42.13-471.83 86.04-758.49 86.04-60.27 0-65.97-52.78-107.88-98.51l-101.28-105.11c-152.14-140.26-352.06-219.17-548.98-276.67-74.57-21.78-94.23-18.19-174.98-31.43-378.76-62.15-435.91-21.18-798.68 52.67-42.79 8.71-190.09 48.55-248.36 74.16-31.07 13.71-21.06 11-50.49 24.54l-164.97 97.69c-410.14-274.54-1076.52-112.17-1521.75-20.3-302.09 62.32-606.18 176.03-888.43 293.67-693.23 288.79-1150.28 740.55-1549.66 833.59 48.09-71.74 117.24-114.82 169.32-187.27l107-174.38c53.49-97.63 110.34-236.94 108.4-345.81-8.17-447.81-541.2-640.44-840.3-329.64-62.84 65.21-124.05 153.61-126.11 249.06 123.3-28.71 255.71-169.84 437.51 12.89 59.44 59.8 95.1 103.53 63.38 185.51-89.69 231.52-252.71 367-487.18 415.79-321.45 66.85-486.65 323.57-576.76 286.37 33.2-45.31 534.32-295.43 228.94-885.49-115.7-223.58-264.54-379.95-485.18-490.53-229-114.82-442.16-112-689.93-76.39-276.96 39.78-437.8 16-688.46 174.67-34.37 21.72-77.22 53.61-110.58 77.16-269.78 189.68-492.24 511.89-542.21 847.53-66.74 447.58 84.46 923.81 415.14 1230.43 65.8 61.03 135.89 97.94 204.58 152.02 115.64 91.28 264.89 141.25 403.49 196.98 5.48 2.24 21.6 8.59 26.66 10.88 36.55 16.84 15.48 5.24 36.43 19.78-190.39 0-199.27 4.36-254.13 121.18-46.13 98.11-91.51 216.57-196.21 216.57-29.54 0-292.73-88.86-325.86-105.81-70.57-36.08-111.77-220.05-149.55-300.8-27.01-57.79-46.55-86.56-64.5-141.77-33.61-102.81-78.1-168.56-145.84-248.19-56.43-66.14-79.92-103.99-177.56-103.99-25.42 70.39 10.18 2.36-40.37 53.38l-203.69 265.43c-12.71 17.65 2.12-7.77-23.89 32.48-27.9 43.32-52.32 98.82-76.28 148.72-113.4 235.12-24.07 400.55-462.69 400.55-21.07-90.51-75.93-156.66-117.83-238.7-53.73-105.05-129.47-99.05-276.25-99.05v-18.71c272.67 0 708.41-329.23 849.83-519.91 114.76-154.6 179.98-277.55 236.53-457.82 57.61-183.5 61.97-398.66 37.43-614.94-28.55-252.6-186.57-487.83-340.99-672.1-77.51-92.4-189.39-166.44-289.32-236.18l-227.23-110.46c-127.06-54.32-626.43-109.06-772.98-109.06-108.57 0-311.44 59.09-390.89 96.99-149.07 71.1-304.98 193.1-399.37 332.46-16.84 24.78-22.19 42.14-39.96 72.68-21.01 36.2-32.26 50.79-49.15 82.16-64.8 120.89-96.52 302.68-96.52 466.35 0 110.99 64.39 189.15 117.36 257.95 58.09 75.57 153.25 107.53 201.63 173.55-79.93 37.03-85.93-22.88-173.91-88.68-370.77-276.96-711.82-130.47-889.68-613.42-55.91-151.79 128.01-273.49 275.49-273.49 158.31 0 117.3 66.09 225.17 75.03-30.08-360.88-534.5-561.8-840.59-258.77-252.01 249.53-70.57 695.23 131.77 911.1 47.55 50.61 89.69 80.04 127.01 135.71-182.27-42.49-348.48-143.48-498.25-233.58-30.25-18.18-18.89-8.12-47.67-27.42-190.92-128.19-373.3-275.38-582.23-374.78l-606.24-275.67c-81.28-32.43-143.08-55.03-219.58-80.63-83.46-27.95-141.95-40.14-233.94-66.32-85.98-24.42-146.07-46.62-232.7-67.56-288.91-69.92-717.18-131.07-1069.94-131.07-203.99 0-346.83 68.15-469.18 150.07l-203.45-115.58c-210.11-87.45-636.08-165.85-866.31-165.85-129.88 0-385.13 62.5-513.61 105.64l-142.95 63.5c-133.18 60.45-262.78 148.13-358.23 260.95-35.2 41.67-56.74 114-111.23 114z" fill="#d7b56d"/></svg>