<svg xmlns="http://www.w3.org/2000/svg" width="320mm" height="70mm" viewBox="0 0 32000 7000" shape-rendering="geometricPrecision" text-rendering="geometricPrecision" image-rendering="optimizeQuality" fill-rule="evenodd" clip-rule="evenodd"><defs><style>.fil0{fill:#d7b56d}</style></defs><g id="Слой_x0020_1"><g id="_2737002432864"><g id="_1861758867104"><path class="fil0" d="M19707.56 2442.27c-38.3-207.13 80.18-825.36 293.96-924.29 113.42-52.48 676.84 249.37 830.48 311.43 605.67 244.74 1176.44 425.39 1809.54 584.15 205.74 51.57 852.27 125.4 946.24 272.38 129.19 202.07 93.12 841.83 42.19 1078.85-129.67 603.48-524.05 1100.31-1058.91 1402.48-268.07 151.45-630.87 290.71-940.86 278.94-220.56-8.37-736.08-184.76-813.28-419.37-41.6-126.58 516.01-226.9 691.55-317.46 254.8-131.48 480.63-344.25 638.21-582.81 194.98-295.14 356.4-498.7 74.8-809.76-221.3-244.53-464.01-381.97-796.49-412.28-424.38-38.73-604.87 218.04-1040.43 100.84-241.38-64.94-627.46-295.35-677-563.1zm-7459.98-234.45c19.39 390.33-147.09 572.95-489.16 733.31-483.13 226.51-592.18 19.49-1004.57-33.83-548.24-70.96-1464.38 419.69-1036.22 1076.28 179.05 274.47 311.06 449.84 586.7 637.84 183.58 125.25 823.71 323.64 823.97 323.91 149.97 180.12-494.48 457.08-631.55 484.41-344.79 68.67-682.81-44.37-989.93-193.38-936.65-454.26-1372.53-1382.07-1199.23-2385.59 65.1-376.96 481.32-315.86 815.24-398.06 632.99-155.82 1222.04-313.08 1829.89-556.44 213.25-85.4 683.17-334.93 849.97-380.85 304.57-83.85 434.23 476.8 444.89 692.4zm8035.44-916.52c398.11 285.65 1856.84 781.68 2434.91 933.03 138.35 36.23 897.07 324.76 690.11-5.81-297.27-474.66-746.05-809.49-1267.33-1005.27-412.44-154.92-1554.57-313.78-1857.69 78.05zm-9506.11 2504.44c304.78.16 650.74 224.28 763.25 504.92 95.09 237.02-11.4 374.36 217.2 399.82 189.33 21.05 366.78-10.23 553.19-39.9 616.8-98.02 1180.06-417.18 1600.86-874.22 502.8-546.05 718.08-1121.09 408.98-1840.38-273.45-636.04-1044.21-904.27-1683.17-754.46-283.95 66.59 106.17 424.64 182.83 739.59 175.97 723.3-230.72 1384.31-897.23 1549.73-534.86 132.7-607.58-58.12-1029.34-125.83-981.35-157.59-1031.16 713.76-359.28 1185.33 962.81 675.88 1078.25-384.21 242.71-744.6zm884.61-2483.13c149.54-270.95-2024.82-690.32-3094.81 867.4-261.68 380.9 499.01 94.4 637.15 54.02 280.11-81.89 573.06-161.8 848.16-259.87 183.58-65.42 1562.4-576.26 1609.5-661.55zm9473.98 2504.44c-282.78 117.47-551.17 413.93-524.74 745.13 29.88 374.41 687.76 77.3 857.59-49.91 210.48-157.69 461.24-558.42 411.32-826.75-57.26-308.51-620.1-376.33-865.74-321.03-400.56 90.14-560.81 248.52-1030.73 102.02-662.83-206.65-1042.09-885.73-834.53-1585.74 93.28-314.31 497.78-643.81 120.98-701.03-677.1-102.87-1346.64 118.96-1642.15 769.91-309.15 681-80.82 1279.31 384.74 1804.27 533.21 601.19 1357.09 995.15 2160.82 951.04 255.34-14.01 148.63-120.29 236.22-388.74 71.92-220.71 546.05-608.01 726.22-499.17zm-8067.3 2781.46c67.39 5.28 403.34-215.65 724.31-213.47 288.85 1.98 589.15 84.6 870.7 60.68 334.87-28.5 494.8-70.42 809.33-128.49 312.82-57.75 406.69-432.53 477.17-460.55 98.55-8.95 195.19 377.81 480.68 459.59 269.62 77.24 549.04 107.72 828.99 130.09 302.01 24.19 600.55-75.81 881.41-72.24 277.02 3.47 694.36 227.69 735.54 224.39-325.55-721.27-835.64-593.36-1521.06-596.98-212.61-1.17-794.94 30.52-950.4-44.43-242.82-116.99-294.12-535.77-69.52-708.17 526.24-404.08 1093.81-269.45 1629-8.41 450.9 219.86 1125.66 415.05 1618.66 512.75 504.65 99.94 1344.67 232.81 1847.25 214.38 392.79-14.44 1347.6-222.53 1700.7-390.5 518.46-246.65 776.19-609.71 996.21-1123.64 122.21-285.34 190.46-536.36 219.49-846.47 35.05-374.19-53.54-571.03-56.68-909 149.69-46.19 1235.14 46.61 1703.84-193.17 442.38-226.36 828.03-658.14 580.52-1174.63-288.32-601.67-744.98-588.19-1307.81-511.64-338.66 46.08-530.23 28.5-865.05-1.76-291.35-26.31-495.39-154.06-750.84-218.26 85.45 494.01 481.7 850.09 937.03 1013.16 555.32 198.92 1005.64-285.02 1609.92 180.44 14.97 446.85-314.53 629.79-703.21 650.2-466.19 24.45-839.27 31.22-1310.9 31.86-293.75-629.27-580.46-895.11-1187.57-1231.58-582.97-323.16-1286.6-498.16-1952.95-471.68-281.28 11.24-788.55 61.05-1039.25 174.68-351.24 159.34-502.96-75.01-885.62-138.35-637.9-105.54-1345.15 93.87-1826.37 530.02-1141.01 1034.19-295.62 2365.77 725.1 3051.45 511.05 343.29 1213.68 580.95 1830.1 590.43 161.63 2.5 415.16-52.74 557.35 6.55 134.51 56.05 187.09 219.22 286.93 320.6 131.74 133.77 712.96 435.14 726.17 476.27-354.54 265.14-2552.17-390.98-3022.73-567.42-237.76-89.13-425.61-126.95-639.5-276.97-220.5-154.6-488.89-189.01-751.9-170.05-697.61 50.29-973.25 757.87-1046.98 807.26-131.21-131.91 12.15-173.09-387.46-529.01-379.04-337.49-956.15-373.71-1386.22-115.07-244.85 147.19-373.61 191.36-638.81 288.42-431.72 158.01-2738.04 851.26-3017.61 553.19 18.11-37.13 435.61-245.85 511.53-287.67 232-127.91 235.62-252.52 401.15-410.95 172.49-165.15 426.34-113.42 642.15-104.53 259.5 10.71 478.56-32.39 729.69-89.55 773.42-176.17 1497.78-653.61 1974.26-1286.13 553.83-735.28 595.54-1659.25-151.35-2280.26-303.77-252.63-715.46-454.37-1106.97-511.22-868.89-125.99-1030.57 197.17-1343.77 195.3-183.63-1.11-416.92-124.76-613.97-162.05-207.61-39.21-526.88-62.28-739.6-65.8-890.09-14.7-1707.46 292.31-2405.51 832.3-131.47 101.75-321.98 262.79-405.3 404.66-107.4 183.21-126.95 388.68-360.61 459.91-203.93 62.17-1291.98.11-1513.49-75.43-425.07-145.01-579.41-741.57 67.23-803.64 521.49-49.97 831.33 221.94 1384.36-70.42 418.04-221.09 581.58-475.42 708.54-918.92-458.26 174.26-767.57 255.98-1266.1 247.14-450.43-8.05-864.84-206.17-1285.54 59.34-860.58 543.18-359.86 1490.97 460.71 1688.56 274.78 66.22 1341.16 91.26 1384.04 111.82 148.79 71.28 14.86 434.93.37 576.58-19.02 185.66 23.55 511.11 68.51 695.01 181.83 745.4 619.31 1459.21 1390.6 1687.7 1163.06 344.47 1433.37 342.23 2633.2 195.52 773.79-94.56 1687.48-317.57 2383.39-675.19 426.24-219.01 776.68-252.46 1232.38-88.92 477.97 171.49 607.26 704.33 201.96 867.51-199.41 80.28-1201.74 30.31-1493.2 36.28-510.42 10.39-736.88 136.06-946.62 598.58z"/><path class="fil0" d="M15871.02 683.87c-1013.47 316.18-419.69 1308.19 106.71 1191.31 566.29-125.78 728.89-642.06 334.56-1046.46-72.08-73.99-353.9-172.12-441.27-144.85zm0 2792.12c-250.22 143.15-595.65 182.89-548.87 655.64 32.44 327.31 339.88 572.95 667.78 528.63 313.51-42.35 595.22-324.27 529.75-660.22-27.81-142.77-90.89-286.56-209.1-377.44-70.16-54.02-370.2-186.3-439.56-146.61z"/></g></g></g></svg>