<svg xmlns="http://www.w3.org/2000/svg" width="320mm" height="70mm" viewBox="0 0 32000 7000" shape-rendering="geometricPrecision" text-rendering="geometricPrecision" image-rendering="optimizeQuality" fill-rule="evenodd" clip-rule="evenodd"><path d="M16724.08 5135.25c62.96-1.4 49.1-16.49 181.59-27.26 166.43-13.5 233.74-9.37 374.99 44.89 222.5 85.45 240.6 174.95 354.02 311.5 39.68 47.62 144.2 218.32 159.57 284.12-116.62-2.62-141.62-123.91-221.81-182.66-69.89 18.64-68.78 76.06-130.52 117.4-76.18-20.29-107.85-80.66-153.75-133.35-54.95-63.1-107.42-111.19-120.32-166.72-190.31 11.49-108.64 38.07-283.44-121.07-46.73-42.52-130.34-85.91-160.33-126.85zm-750.37-352.26c44.35 70 82.93 79.34 119.17 109.26 41.3 34.19 63.24 49.09 109.29 73.41 46.11-30.92 94.13-57.57 149.83-85.05l405.74-259.77c10.05-7.51 12.82-8.84 23.13-15.95l376.85-327.76c40.3-42.13 76.79-93.56 127.61-120.42-4.52 53.87-34.08 91.11-54.27 141.5-18.92 47.41-42.63 101.32-61.48 147.25-20.62 50.29-36.64 88.03-57.79 137.99-26.65 62.85-25.61 93.92-61.45 147.36l39.18 39.11c-93.06 0-178.1 23.24-254.6 45.58-107.28 31.32-213.12 77.5-304.96 138.7l-71.76 45.61c-27.58 22.52-2.9 2.23-19.93 19.29-17.42 17.49-10.2 12.68-33.22 32l-111.62 123.3 117.47 156.59c48.42-12.93 16.92-13.18 65.23-26.11 8.44 101.42 181.08 254.78 244.11 330.02 58.69 70.07 192.83 262.79 296.45 276.69 40.18 5.39 136.22-.64 192.43-3.09 2.62-.1 6.5-.46 9.12-.54 2.62-.07 6.5-.39 9.12-.32 38.72.61 42.13 10.45 82.14 25 33.69 12.24 101.14 14.87 136.34 20.68 74.91 12.47 180.97 19.69 249.14 38 43.53 11.71 55.16 21.73 106.31 37.14 62.85 18.93 58.61 20.11 136.55 20.11 17.74 66.48 73.84 98.88 104.4 156.56 43.5-11.6 19.83-10.42 53.55-24.64 63.14-26.58 71.19-17.24 81.6-88.07 2.84-19.14 6.75-46.25 12.39-78.97 18.46-107.96 12.36-203.93-11.53-309.7-25.21-112.27-39.29-164.53-80.05-259.16-36.6-85.16-81.31-142.48-121.29-218.01l152.93 33.3c550.79 35.87 512.11-363.36 810.78-213.88 36.78 18.46 62.39 42.49 105.88 47.3 2.95.32 6.83.22 9.7.4l28.44.21c2.8-.03 6.58.18 9.34.07 85.8-3.55 60.59-42.52 148.8-63.1-1.33-61.88-44.75-124.34-81.46-166.39-71.5-82.14-178.78-86.38-284.77-185l-28.01-24.17c-34.3-26.01-120.1-92.05-140.75-120.25 61.09 5.1 27.15 3.67 64.28 23.2l18.72 9.2c166.75 62.74 516.74 162.84 692.37 196.99l333.15 58.36c42.02 9.59 57.39 18.21 104.29 27.05 50.18 9.48 45.4 4.81 93.89 9.44 241.89 23.13 561.42 63.72 796.2 63.43 23.92-.04 72.26.07 92.98 0 28.02-.11 33.69-.43 45.98.04 13.54.53 36.34 3.08 55.05 3.52l107.75-3.34c40.51-1.84 73.16-9.81 126.78-9.81 110.15.04 125.09-3.99 215.71-18.46 125.73-20.11 311.24-20.61 430.3-43.89 74.23-14.51 151.92-35.34 228.6-41.73 0 74.45 13.03 90.25 13.03 169.63-60.16-14.01-80.77-13.04-156.59-13.04-1.25 56.24-10.38 61.31-30.35 101.57-33.65 67.73-40.47 179.82-30.85 271.12 5.79 53.94 6.79 53.33 26.33 118.41 36.45 121.54 173.68 325.36 256.47 396.29 67.34 57.64 113.6 72.15 200.26 112.95 36.24 17.06 78.15 31.21 112.95 43.6l265.2 61.2c155.55 28.38 44.07 94.68 70.07 202.82 13.54 56.24 33.04 69.89 56.5 114.17h156.59c20.07-75.35 69.28-133.86 90.47-222.57 11.02-45.61 14.9-87.59 26.83-129.97 35.84-127.18 43.02-615.84-2.98-740.36-50.61-137.23-143.34-292.45-275.19-364.14-114.67-62.35-89.68-50.46-230.64-95.64l-173.83-60.99c-61.85-18.13-25.11 18.89-61.06-30.27 54.95-26.36 483.74-113.35 639.43-195.7-14.51 54.3-26.07 72.94-26.07 130.47 46.98 12.54 74.09 45.26 125.38 58.01 37.6 9.37 87.38-13.33 144.45-23.06 120.32-20.47 220.3-.11 310.67 50.03 95.71 53.05 192.57 149.19 277.55 218.29l133.75 114.25c-47.55 0-110.77 3.59-156.38-.25-102.25-8.59-203.46-47.66-293.42-98.27-67.09-37.71-96.47-18.78-189.82-17.95-133.38 1.22-179.43-49.82-260.09-132.21-31.39-31.96 6.64-20.36-52.94-25.32-13.61 50.68-36.67 48.63-65.33 91.33 17.56 75.39 30.56 119.31 70.5 177.46 68.71 100.24 158.89 184.25 281.14 214.63l444.6 64.43c68.77 1.69 170.63 14.15 225.62 35.45 90.61 35.12 139.71 28.41 213.69 23.74l116.9-37.5c49.17-29.95 35.06-7.54 43.46-68.67 8.48-62.63-5.6-107.38 2.88-185.5 6.93-63.28-22.2-120.89-47.88-178.53l-92.66-168.37c-161.19-234.99-344.68-249.76-445.31-311.46l-181.37-79.62c-51.47-13.33-66.66-.43-109.51-21.01 24.82-33.94 76.32-43.46 121.29-61.34 45.82-18.25 84.25-35.38 123.76-58.98l744.16-391.11c39.08-18 81.67-45.97 121.86-38.25l234.99 44.82c151.17 24.46 532.16 82.14 665.94 137.19l75.1 42.42c52.55 33.33 107.28 64.76 146.46 114.5 28.45 36.09 61.67 66.05 84.05 98.62 68.41 99.56 135.32 307.97 87.7 429.15-70.11 177.92-284.27 313.61-477.96 261.1-170.34-46.18-174.44-399.55 59.91-445.52 168.15-33.01 95.78 136.98 171.1 201.55 14.62 12.57 3.27-.43 22.16 17.03 53.04 49.16 13.93 53.29 103.22 53.29 47.33-89.32 119.67-176.66 86.23-334.11-51.25-241.57-298.46-321.95-515.27-238.09-73.81 28.52-130.88 53.48-191.07 108.76-22.81 20.97-8.7 9.05-25.86 26.36-19.58 19.75-18.75 16.63-33.26 31.93-72.12 76.14-117.87 183.59-145.31 286.2l-9.52 182.13c4.06 38.75 31.32 138.99 46.91 175.8 60.55 143.05 122.65 181.05 248.71 247.21l129 40.65c78.12 26.11 102.97 22.16 201.17 21.55 185.07-1.22 353.36-67.66 476.63-201.88 57.42-62.6 134.32-130.66 191.42-304.38 65.58-199.51 26.98-502.52-61.63-675.06-126.02-245.66-340.58-424.37-609.51-499.58-62.96-17.6-109.33-31.85-173.08-49.74-36.78-10.34-48.3-9.8-75.03-13.32-27.51-3.63-47.73-14.44-88.56-17.82 53.58-73.16 476.05-176.16 585.99-210.03l520.88-144.56c45.21-5.92 73.84-15.23 116.22-27.4 259.77-74.78 653.15-46.76 921.76 38.1l199.83 74.24c80.17 35.63 199.55 86.45 261.97 142.48l77.54 53.01c185.5 137.12 399.23 370.07 508.74 574.21 55.38 103.22 143.91 266.42 148.11 386.88 4.1 115.82 17.78 252.84-10.02 368.88-30.67 128.22-74.7 222.49-135.33 334.41-54.55 100.67-138.13 185.07-223.14 259.59-92.48 81.03-213.3 165.61-341.37 193.65-228.67 50.07-450.02-42.27-625.18-174-40.72-30.53-79.01-49.1-108.28-87.49l-94.03-114.75c-18.06-27.08-8.26-16.85-22.8-42.49-46.3-81.56-122.76-132.74-214.88-111.26 0 77.9 2.01 45.93-19.07 99.26-16.13 40.59-17.46 55.67-10.89 86.7 31.07 146.72 182.49 369.82 296.48 447.79 31.72 21.7 40.19 23.13 71.04 46.44 27.84 21.08 44.36 37.46 76.25 54.27 186.98 98.73 417.62 126.74 630.56 87.99l202.21-45.75c195.66-57.58 384-153.04 526.69-295.48 4.92-4.85 9.95-10.77 19.36-19.72 87.09-82.13 158.74-169.91 222.39-273.49l65.79-116.9c8.95-20.55 8.69-27.33 17.42-47.77l34.88-95.68c11.06-42.41 21.04-56.13 30.63-86.8 60.88-194.77 53.91-396.08 11.78-593.75-4.78-22.13-20.08-64-30.67-99.81-21.87-73.66-40.33-113.64-73.77-174.19-71.47-129.44-141.83-259.74-237.83-375.46l-44.36-47.01c-1.72-2.01-4.34-4.85-6.07-6.93l-66.87-76.68c-26.61-26.51-39.79-37.35-64.11-66.41l-169.05-157.05c-2.12-1.76-4.96-4.31-7.08-6.07l-157.77-116.19c-25.79-17.06-52.51-36.74-78.76-51.79-28.02-16.09-46.3-23.52-75.17-42.27l-250.87-127.57c-98.7-43.32-267.39-108.5-378.15-117.73 4.78-20.37 8.73-39.65 16.7-61.67 53.48-149.55 87.78-306.78 87.78-473.25 59.72 43.78 88.56 158.64 126.35 225.94 42.77 76.25 98.15 145.74 153.17 212.15l31.72 33.47c152.28 146.97 363.39 212.55 561.46 273.82 98.59 30.46 179.61 35.92 277.51 62.64l78.51 10.95c2.81 0 6.51-.11 9.31-.14 94.27-1.01 83.64-17.03 160.29-39.8l103.4-60.41c44.53-28.94 19.53.87 50.6-40.72l82.28-100.49c100.13-105.95 201.81-220.95 319.11-307.19 47.8-35.09 57.14-45.79 98.01-84.61 40.37-38.25 66.55-40.55 112.27-70.47 38.18-24.89 68.2-51.03 105.05-77.68 54.06-39.15 54.52-36.1 80.56-102.11 88.32-224 63.43-507.34-87.88-696.21-64.08-80.09-50.03-71.76-141.58-85.84-50.61-7.79-26.33-24.14-76.93 4.85-38.39 22.01-82.93 52.94-96.68 88.21-20.37 51.86-15.2 77-15.2 140.42-47.62 22.88-52.54 7.76-86.27 57.18-60.33 88.46-108.6 162.95-211.54 219.08-82.13 44.82-108.35 51.61-220.19 67.09-43.85 6.07-67.34 11.1-127.28 2.05-43.93-6.64-88.61-7.22-124.67-32.29 97.3 0 174.23-5.1 248.47-25.64 34.33-9.56 58.82-21.26 94.92-35.59 72.51-28.77 102.11-54.63 169.2-104.73l73.62-69.96c23.6-26.73 35.13-53.77 56.93-86.56l38.86-65.55c55.16-105.12 68.59-235.28 12.39-345.28-45.4-88.86-137.7-159.57-240.89-177.39-112.12-19.39-147.89 37.14-205.47 75.67 23.82 35.56 37.79 43.61 39.12 104.41-14.8-16.31-15.09-16.99-26.08-39.15l-52.33 28.05c-1.72.54-5.46 1.26-7.22 1.69-81.2 19-129.65 21.05-209.13 93.13-39.29 35.63-66.26 74.02-83.86 124.84-17.64 50.82-40.44 125.34-12.86 182.84-47.3-5.17-7.94 1.58-30.13-9.05l-72.3-69.96c-13.5-28.7-9.34-12.18-4.6-65.19 5.68-65.68-4.56-38.14 22.52-83.79 23.53-39.75 49.57-72.33 81.89-100.81 9.19-8.12 9.16-8.3 21.15-17.99l98.84-57.68c-14.58-62.85-47.59-93.96-65.18-169.59h-78.37c14.47-53.84 2.58-13.9 87.7-68.93 36.89-23.81-.07-6.17 49.93-28.44 28.04-12.5 35.23-15.34 66.33-24.93 229.14-70.5 224.54-32.43 376.97 50.39 47.62 25.93 63.06 32.29 104.04 65.62l14.3 11.82c42.02 36.34 137.95 122.4 149.08 164.06 136.62-36.46 128.97-52.87 131.81-103.33 11.78-210.89-73.45-354.2-208.56-485.32a509.51 509.51 0 0 1-6.61-6.54l-214.41-123.4-289.3.14c-136.66 21.73-240.24 91.23-300.43 105.23 45.79-86.34 101.03-118.45 55.45-211.54-19.82-40.55-23.09-37.21-72.87-45.57-113.81-19.15-238.44 23.13-342.66 66.65-159.97 66.77-271.16 171.61-389.25 263.23l-159.61 166.64c-.43.47-21.76 29.17-22.23 29.92l-63.43 93.13c-84.07 139.6-124.23 232.8-169.77 391.4-17.6 61.42-66.48 287.68-45.43 377.33 8.19 34.47-2.37-4.67 14.15 38.14l82.96 190.99c16.45 35.2 25.83 43.6 29.53 87.92l-124.49-149.44c-1.76-2.08-4.16-5.06-5.92-7.15l-163.92-188.37c-24.1-28.55-16.48-22.41-43.24-48.09-1.94-1.87-4.92-4.42-6.79-6.25-1.94-1.87-4.88-4.45-6.82-6.32l-79.48-77.11c-26.8-22.2-20.65-16.41-46.98-44.28-71.87-75.89-85.37-102.97-175.05-101.25-76.97 1.47-85.37 19.68-117.26 67.23 13 48.38 13.21 16.88 26.18 65.26-74.7-50.03-34.91-51.61-232.34-172.25-176.16-107.71-460.21-104.01-643.81 79.12l-80.95 101.82c-30.46 48.96-49.1 79.81-64.33 144.45-22.55 95.61-13.29 247.57 40.55 344.72 28.73 51.93 45.04 81.74 91.01 117.8 89.1 70.07 179.83 73.8 282.58 71 84.8-2.33 172.79-64.57 227.74-126.67 6.46-7.22 25.93-26.25 26.04-26.47 11.7-13.93 27.79-12.82 23.84-73.16-1.58-23.56-9.73-46.51-9.73-95.03-130.55 0-211.79 9.7-339.51-12.82-67.55-11.96-29.91-7.15-78-39.4 0-117.55 19.07-156.73 93.66-206.33l32.15-20.19c61.02-25.43 169.77-5.42 224.11 20.19l104.51 65.08c40.15 35.91 47.95 41.37 73.77 108.96 53.51 140.25 32.9 235.75-47.26 343.64-109.36 147.29-170.82 268.28-322.74 394.92-104.98 87.56-128.82 130.26-300.93 233.99l-118.3 64.39c21.44 40.52 42.05 53.37 52.14 91.34l-201.37 59.58c-46.87 17.38-167.87 56.78-216.17 57.86l87.41-82.18c99.49-102.5 171.78-210.75 163.13-352.07-16.41-268.68-46.8-347.12-131.45-572.06-11.96-31.82-2.84-10.99-15.41-36.85l-22.62-42.59c-30.6-55.63-25.9-31.79-60.23-70.22l-99.2-148.79h-130.52c-7 64.86-68.63 105.59-128.18 289.26-20.58 63.14-137.88 161.26-183.06 247.56-80.66 154.11-92.41 248.32-93.38 441.83-.64 132.17 12.11 190.6 84.47 267.82 101.61 108.17 225.62 92.34 359.37 123.51-2.76 1.76-7.5.22-9.01 4.09l-501.31 203.32c-42.84 19.57-33.47 16.02-84.36 33.04-59.66 19.9-32.5 28.2-97.01 33.55-15.87-68.17-19.86-128.65-49.74-185.18l-162.7-267.86-314.94-337.46c-112.12-108.53-259.2-208.95-401.24-277.3-153.47-73.77-328.73-133.1-497.14-155.22-191.71-25.18-367.23-42.24-597.27-42.88-96.86-.29-525 30.27-621.04 53.76l-143.48 26.36c-25.21 7.08-18.71 5.35-54.92 12.5-203.64 40.37-439.02 107.03-636.66 186.98-50.25 20.36-65.33 42.12-122.73 46.9 31.54-135.4 27.8-356.28 26.94-535.82-.43-110.4-77.72-229.57-123.8-332.89l-46.65-96.87c-42.63-81.45-130.81-275.9-199.23-322.73l-114.03-81.67c-52.83 27.98-96.86 49.38-117.98 103.79-70.97 182.52 44.97 114.93-57.28 281.9-40.66 66.41-73.88 121.68-102.75 197.46-25.61 67.13-53.66 155.84-94.93 218.19-139.82 210.85-154.61 227.63-125.09 440.35 11.06 80.38 26.07 326.61 112.74 355.53l111.23 20.65c11.92-17.71 17.06-25.65 33-45.29 1.73-2.12 4.24-5.07 6-7.15 36.78-43.89 81.92-67.99 75.78-139.06-8.58-97.98-49.45-194.3-49.45-265.16 113.56-9.45 163.98-122.65 139.81-231.59-23.34-104.62-25.6-78.43 35.92-192.9 15.59-29.05 23.45-41.66 46.04-58.25 14.8 63.43 52.8 119.89 48.2 192.61-3.95 61.67-15.84 171.21-21.69 238.3l-35.06 331.64c-4.05 38.36-.75 89.11-6.46 122.61-11.35 65.8-238.33 195.24-288.72 233.24-31 23.34-45.11 30.67-79.05 51.46-77 47.23-144.38 139.64-243.61 147.9l63.1-215.6c46.11-310.02 32.65-701.56-262.72-876.43-94.71-56.07-94.49-63.43-204.14-94.64-71.69-20.36-210.03-30.74-304.74-4.52l-173.08 74.91c-116.58 74.13-227.23 174.73-278.3 308.8-143.77 376.75 210.03 669.71 567.56 528.31 154.9-61.23 240.24-127.53 279.1-294.89l21.76 56.85c5.82 27.55 6.22 55.38 2.98 84.29-11.92 106.74-26.32 209.53-58.43 307.76-55.56 169.52-158.28 311.92-282.44 435.33-58.86 58.5-118.41 91.69-189.27 162.98-33.44 33.65-61.59 53.84-98.77 83.97-123.22 99.99-267.02 143.69-407.09 219.26-23.38 12.61-36.92 21.73-58.44 32.86l-261.28 104.08c23.7-44.89 144.74-246.66 190.57-292.13 193.87-192.36 258.66-479.32 125.84-728.75-68.56-128.58-66.19-79.7-164.38-214.06-8.69-11.89-7.58-11.49-16.52-22.59l-57.11-60.44c-8.94-11.57-20.76-31.86-32.36-45.9l-150.52-162.66c-42.13 9.84-57.25 22.16-104.4 26.07-11.93-56.31 7.61-15.41-24.82-157.74-22.99-100.81-109.86-252.3-118.16-312.49-10.2-73.67-16.56-117.91-43.89-177.96-112.09-247.1-262.14-440-520.01-549.86-152.86-65.12-335.24-105.6-506.01-93.03-104.55 7.73-233.06 59.23-301.08 129.73-20.44 21.19-31.07 29.95-53.37 51-1.98 1.87-4.78 4.49-6.72 6.36l-19.21 19.86c-107.28 120.85-45.54 155.62-37.96 183.88-94.5 50-164.21 134.76-117.48 247.89-322.81 0-353.26 22.59-445.71 298.1-22.84 68.2-63.89 236.93-63.68 314.65l6.32 346.76c25.83 140.03 54.99 229.39 110.55 359.29 41.27 96.54 38.86 48.92 169.92 117.16 53.33 27.76 202.67 106.24 258.84 119.6 16.02 3.8 51.54 9.66 74.77 17.59 52.47 17.82 22.31-19.96 58.54 96.18 9.81 31.36 13.15 49.24 13.15 92.06 49.2 1.11 43.35 6.1 83.32 6.89 149.27 2.95 103.62 7.51 217-72.01 123.66-86.84 112.99-92.77 184.17-181.12l50.61-40.8c-9.34 40.08-20.62 50-39.08 78.37l-79.87 155.04c-28.95 63.57-15.52 18.72-50.68 66.7 1.98 2.37 4.78 3.23 5.64 7.43l18.07 21.88c44.06 44.75 39.79 14.33 108.82 46.51 72.08 33.58 78.98 16.77 167-37.28l634.48-487.7c1.9-1.86 4.74-4.49 6.68-6.35 1.98-1.87 4.81-4.46 6.75-6.32l135.73-151.42c0 136.51-67.45 266.78-125.99 382.89-30.82 61.05-55.17 96.14-86.6 161.4-1.72 3.63-6.57 14.12-8.44 17.67l-79.12 155.66c-42.52-28.41-29.12-21.52-52.29-65.22-54.19 14.47 7.97-3.13-28.01 11.13-2.44.97-6.5 2.59-9.23 3.7l-613.33 197.89-296.48 53.77c-53.8 11.96-115.35 7.47-175.26 7.47 17.56-75.14 39.15-100.53 39.15-195.7-107.17-24.97-185.79-110.84-271.59-172.04l-144.63-129.36c-121.65-126.64-210.75-275.4-285.21-432.46-41.01-86.41-55.99-175.41-86.44-265.84-43-127.25-5.64-185.32 35.01-287.93 21.44-53.95 20.83-89.36 38.14-144.63 63.25-203.43 18.25-291.49 144.74-481.48 39.33-59.01 66.41-120.32-7.43-170.96-55.38-38-187.41 5.86-248.68 3.74-133.6-4.6-102.11 9.87-198.47 104.19-166.61 162.98-316.52 347.3-496.74 494.94l-45.9 45.4c-16.05 17.53-25.89 30.35-44.53 46.83-80.99 71.73-45.83 91.26-31.97 188.63l58.65 215.42c7.19 16.91 23.74 43.46 32.15 59.19-11.03 0-43.78-1.51-52.48-.18-48.88 7.54-20.9 3.05-37.6 14.51-123.62 84.86-131.77 147.54-141.32 298.92-5.57 89.53 4.45 154.83 23.77 259.66 7.47 40.95 12.72 45.04 26.61 77.72 42.46 99.78 83.36 208.53 158.64 285.06l38.07 40.16c9.56 10.52 4.13 7 18.96 20.14 137.6 121.54 300.94 210.04 440.86 329.09l320.55 240.6c21.76 16.31 34.33 25.5 59.79 44.54 14.3 10.7 17.57 12.6 29.49 22.77l321.73 245.83zm-110.94 123.95c71.22 33.11 112.2 76.89 151.56 115.93 156.16 154.72 121.14 108.68 5.13 282.01-52.07-1.15-48.41-6.04-78.36-26.11-1.51 66.98-24.96 79.55-52.15 117.51-11.96 16.81-23.02 39.08-35.41 55.85-23.13 31.28.25 1.44-18.21 21.01-.36.36-14.73 13.61-19.97 19.18l-151.35 174.87c-56.96 57.61-106.7 104.55-163.2 162.95-66.04 68.23-77.36 55.81-166.07 56.2-190.56.83-119.02 2.05-290.48 35.45-40.98 7.94-107.03 15.88-132.53 18.14-162.19 14.33-216.92 51.18-367.73 81.74-70.97 14.4-48.56 23.24-93.99 75.71-26.69 30.71-43.03 60.34-74.96 81.67-120.49-28.08-124.91-75.2-136.73-196.6-8.11-84.69-28.33-183.96.97-291.45l42.6-140.07c14.76-51.72 29.99-74.02 48.45-121.14l55.13-114.57c21.37-40.66 44.57-70.36 54.84-114.71-56.06 14.94-18.53 20.04-67.84 29.38-70.61 13.39-180.94 17.63-255.43 6.78l-214.74-72.36c-32.86-15.12-31.78-10.38-58.93-32.36-19.97-16.17-32.36-33.66-52.55-51.9-101.82-92.38-218.9-121.72-338.43-32.22-117.33 87.99-166.93 10.56-201.73-14.87-26.04-19.03-28.48-20.11-63.18-28.15v-52.22c41.2-14.91 86.2-128.11 146.97-166.26l116-53.65c63.47-31.39 80.17-57.18 83.47-60.02 45.11-38.32 148.73-110.51 175.66-150.62-36.06 8.4-71.9 12.67-103.61 26.93l-585.85 170.89c-144.16 48.09-342.7 78.22-501.48 98.8-79.41 10.31-145.03 29.52-223.47 36.34l-206.51 17.03c-232.52 29.27-869.72 40.15-1167.75-1.65l-617.49-87.39c0 82.86-11.7 134.61-13.03 195.71 19.1-10.1 4.13-1.26 23.88-15.48 2.16-1.55 5.21-4.13 7.4-5.79 2.23-1.65 5.06-4.27 7.36-5.92 24.57-17.56 27.66-25.57 63.21-23.2 40.62 2.69 65.23 28.55 80.02 64.21 12.32 29.63 22.27 86.45 31.86 124.77 32.14 128.36 3.7 289.87-38.47 388.93-35.37 82.96-124.66 202.13-183.09 273.63-12.14 14.87-8.08 10.28-17.78 21.37-31.1 36.06-65.19 49.78-106.81 75.86l-200.37 99.7c-21.19 10.31-36.64 14.94-58.01 20.29l-294.89 67.56c-1.91.5-21.09 6.1-21.09 6.1-.86.25-4.99 3.84-5.64 2.01-.57-1.69-3.69 1.01-5.38 1.94 0 82.14 35.98 102.58 19.93 162.23l-27.15 65.37c-9.77 21.11-22.13 40.87-32.15 56.24l-143.33 16.23c-27.98-52.86-47.59-61.45-73.16-122.58-63.9-153.1-70.86-322.8-89.32-494.01-14.12-131.2-3.02-411.94 56.46-546.27 24.6-55.67 35.59-26.61 40.83-89.68-52.97 14.15-80.48 68.17-134.36 100.6-28.23 16.99-47.87 32.72-74.05 43.39-95.43 38.89-364.97 61.99-468.37 79.69-72.52 12.46-120.03 18.79-203.14 20.69l-77.5 24.35c-62.53 20.62-140.11 18.68-195.42 8.62-88.67-16.16-160.54-20.83-161.01-122.11-1.11-227.06 47.12-415.5 205.69-584.59l45.79-45.65c28.98-28.48-9.95 1 35.45-29.77 86.73-58.8 154.51-99.02 255.21-136.19 135.98-50.21 133.79-83.58 327.98-128.8-60.98-52.97-342.99-169.52-438.52-227.05l-435.76-229.68c-88.57-46.47-170.24-102.54-275.29-79.73l-314.12 60.91c-32.32 4.2-23.27-4.24-67.12 2.16l-346.91 70.39c-218.5 39.94-386.84 190.85-473.29 387.92-69.03 157.09-97.9 332.54 35.63 464.2 46.51 45.94 62.82 69.71 126.17 95.64 147.97 60.67 320.83 85.34 384.47-92.05 90.8-253.31-285.16-438.3-306.39-227.73-7.22 72.22 17.53 30.99-3.77 75.71-8.87 18.46-7.51 11.24-22.95 27-1.94 1.94-4.85 4.49-6.82 6.43-49.93 49.13-61.2 70.32-139.18 70.32-4.59-55.56-195.77-236.21 1.76-480.97 18.64-23.09 8.44-12.72 30.53-34.8 23.74-23.85-1.72-3.2 27.84-24.32l66.76-37.6c56.39-30.21 113.35-27.66 195.85-20.33 159.25 14.08 272.38 103.08 376.93 211.65 50.1 52 70.57 107.42 103.51 171.13 45.36 87.53 52.22 249.61 29.98 356.71l-45.97 123.62c-12.67 31.79-1.15 9.56-15.91 36.31-22.19 40.12-67.37 86.92-101.85 120-63.07 60.66-161.76 84.61-248.21 111.26-60.91 18.75-154.9 35.59-233.38 23.42-76.17-11.82-115.14-20.4-178.53-43.46-132.42-48.27-213.52-85.3-308.55-200.37-8.26-10.02-14.65-17.67-23.31-28.8-282.08-363.11-165.1-987.27 210.21-1243.92 48.31-33.05 77.58-64.4 132.6-89.15 110.48-49.59 204.39-93.09 331.75-112.01 58.25-8.7 103.22-36.82 154.51-43.21 26.03-3.23 2.76 4.56 33.86-4.67 34.09-10.13 19.76-7.08 33.87-16.92L6351 3267.73c-140.07-40.9-286.89-62.06-433.96-101.1-363.14-96.36-792.58-41.3-1129.64 120.18-150.24 71.97-202.89 106.77-332.29 202.7-111.73 82.93-247.89 218.08-340.87 324.57-23.85 27.26-31.89 46.51-52.51 78.04L3957 4061.35c-112.02 206.19-187.44 372.76-145.49 649.31 31.03 204.54 82.28 320.18 187.23 491.25l122.04 138.99c92.51 94.78 198.97 162.3 317.34 217.68 32.61 15.3 57.07 29.45 91.66 38.86 112.3 30.64 338.46-15.44 447.82-72.15 95.18-49.46 161.23-100.38 239.84-164.67 174.62-142.91 163.53-301.26 348.81-316.7 29.13 55.2 65.19 110.87 47.77 203.71-33.8 179.47-168.08 347.33-301.4 456.12-22.99 18.78-7.87 8.58-37.57 27.66-10.05 6.53-30.45 17.67-41.73 23.56-36.53 19.32-53.23 28.37-84.69 45.79-213.69 118.3-367.34 108.21-587.97 78.01-55.56-7.62-49.77-1.12-93.41-10.2-41.12-8.59-69.03-16.67-99.06-20.3-42.77-5.13-42.12-7.47-87.05-28.08-83-38.04-171.21-63.97-249.83-115.83-65.62-43.24-130.37-76.21-186.61-126.6l-31.25-33.94c-24.1-26.94-39.47-40.76-64.68-65.9-78.26-78.01-153.83-170.1-201.56-268.18-1.33-2.7-2.87-6.11-4.2-8.77-61.67-124.15-105.7-249.5-135.69-386.66-35.48-162.55-20.51-450.12 33.19-603.95 50.82-145.74 196.42-404.04 295.61-526.44l85.84-96.76c1.9-1.97 4.56-4.7 6.43-6.71l84.36-98.23c72.95-79.52 154.4-138.2 234.14-209.56 97.54-87.28 262.57-185.54 382.71-243.62 119.85-57.89 236.68-90.79 351.79-144.34 56.06-26.11 109.5-30.31 175.84-45.76-30.24-129.72-94.78-260.34-103.91-391.9-5.02-72.91 19.33-96.36-26.54-129.98-6.5 27.84-14.04 46.26-23.99 67.41l-121.43 204.79c-66.05 124.09-181.4 243.72-304.38 308.8l-131.81 63.97c-170.31 72.8-367.88 132.99-579.52 151.34-140.93 12.21-176.13-6.21-285.82-67.38-11.53-6.39-17.42-8.33-25.89-13.18l-215.42-228.31c-11.1-11.42-9.37-9.84-19.47-19.68-9.19-9.12-8.54-8.51-19.89-19.14l-68.6-61.99c-2.62-2.66-10.2-10.53-12.82-13.22l-294-241.06c-55.6-44.18-145.75-81.17-185.72-140.5-29.16-43.39-35.41-59.8-51.11-118.45-11.31-42.02-30.78-65.26-35.2-121.46l-.14-2.02v-178.92c7.97-86.85 29.49-170.46 72.48-242.25 77.83-129.73 56.35-149.52 206.11-185.4 36.06-8.65 27.37-9.77 60.7-17.52 84.22 125.7 135.65 30.45 117.48 247.88 58.54 13.62 77.25 30.03 104.8 77.94 1.36 2.51 3.09 5.96 4.56 8.48 118.63 206.29 407.49 326.18 640.58 245.8l46.12-19.07c-291.13 0-507.63-66.16-665.15-326.58-31.71-52.47-69.75-123.58-75.53-179.57-23.31-230.69 82.57-348.02 294.47-397.76 108.14-25.4 118.16 23.99 185.29 68.88-29.56 44.1-50.86 68.63-52.3 130.48l11.46-15.34c1.51-1.83 4.13-5.42 5.93-7.36 2.55-2.62 10.12-10.95 13.03-13.18 64.87-49.27 228.21 57.29 253.17 78.51 15.62 13.25 46.94 43.17 59.29 58.18 69.32 84.66 61.71 153.18 61.71 264.48 81.67-6.78 145.74-115.39 84.72-214.52l-84.51-111.8c-32.32-28.27-81.24-53.77-117.69-78.12 64.04-133.42 9.59-166.64 143.55-169.62-39.54-54.06-142.01-96.33-218.08-121.18-125.12-40.8-189.63-52.11-272.77-4.24-109.51 63.14-181.66 99.16-277.84 191.86-12.39 11.96-1.76.07-19.32 19.9-46.41 52.68-23.46 41.19-86.27 83.28-45.58-10.59-71.58-30.17-104.44-52.22 0-190.06 16.59-308.65 112.52-435.5l29.7-35.52c51.72-60.63 94.31-94.71 166-134.15 8.76-4.88 27.58-14.22 34.55-17.6 147.04-70.43 134.22-43.49 240.63-46.76 81.67-2.48 193.77 23.2 263.48 44.64 35.59 10.96 49.52 14.05 86.44 31 34.3 15.66 50.64 24.96 84.55 32.86-20.94-31.35-56.71-68.74-70.57-113.85-16.78-54.66-8.34-30.24 9.91-76.21l11.49-28.59c3.7-10.09 1.15-10.77 10.02-29.23 125.52-29.24 258.23 2.87 360.34 44.28l268.21 149.37 371.01 372.69c65.58 86.52 127.28 215.17 162.26 320.54 44.71 134.61 22.34 27.19 51.97 182.74 29.27 153.5 69.46 243.36 11.82 364.39l-14.91 37.36c-7.68 19.86-3.52 11.24-15.59 36.59-1.22 2.7-3.12 5.89-4.41 8.59l-159.65 349.2c24.07-2.62 51-.25 67.13-46.4 10.2-28.88-7-28.09 11.78-82.32 35.34-101.24 216.5-273.78 288.61-364.86l162.45-163.85c10.59-10.84 13.97-13.32 26.32-25.78 76.18-76.68 115.11-129.73 208.63-108.75 92.23 20.72 76.68 49.88 70.22 126.56 26.68-17.81 45.18-34.84 70.36-60.16 168.55-169.62 372.8-204.39 596.26-150.27 46.65 11.28 50.42 6.65 87.02 31.11 25.47 17.09 43.57 32.86 69.39 47.98 156.77 91.87 238.62 314.65 200.84 489.49-30.39 140.64-66.16 223.82-190.82 292.06-106.45 58.22-290.48 53.98-396.9-29.45l-28.3-23.81c-11.17-9.27-11.2-8.41-21.44-17.78l-38.21-40.44c-24.82-29.24-32.18-33.3-30.17-76.79 8.62-181.3 73.87-76.89 216.06-83.72 36.49-1.76 171.89-27.08 196.78-39 36.28-36.35 29.56-198.65-88.39-237.87-109.86-36.52-266.7-11.24-365.11 97.69l-38.03 53.26c-23.46 48.96-41.88 83.94-44.65 139-2.94 59.8 11.71 127.42 29.02 167.86l257.62 342.63c75.75 78.55 191.14 198.47 278.06 256.94l225.19 141.97c58.43 39.94 10.41 38.97-5.82 108.4l205.86 68.23c53.7 18.36 147.69 60.84 211.76 62.25l-104.05-91.66c-144.12-156.09-146.82-185.04-159.86-412.95-6.71-119.28 39.12-299.82 83.87-406.09l229.78-383.47 66.88-24.49c12.57-.94 38.68.89 53.01.89 36.24 68.31 82.06 115.33 112.12 187.98 28.41 68.56 42.1 135.58 99.52 187.55l173.69 269.98c45.65 136.4 45.43 229.6 45.83 372.65.39 116.76-40.59 191.5-110.12 255.25-86.45 79.34-149.69 87.42-238.94 70.36-28.91-5.57-85.05 19.1-108.18 39.25 34.41 8.01 71.69 15.84 104.91 25.65l397.8 163.23c11.81 5.64 25.82 10.7 37.06 15.19 43.85 17.67 38.04 17.85 81.89 35.56l83.03 34.37c0-92.7 42.71-203.5 78.8-260.49 16.49-25.93 22.99-27.3 37.78-53.55 59.73-105.7 120.82-214.31 211.72-297.24 18.93-17.27 22.24-18.42 39.12-39.18l82.74-86.88c240.67-222.56 366.3-285.27 667.88-415.18 365.83-157.63 1069.05-144.81 1471.98-79.94 130.52 21.01 284.96 40.58 399.92 81.95 43.85 15.73 75.78 19.47 122.9 34.66l475.99 163.38c0-116.26-42.42-264.23-24.21-428.65 6.07-54.23 12.25-154.07 27.33-207.59 25.64-91.4 164.46-362.38 215.74-449.73 10.63-18.24 9.16-17.88 18.28-33.83 23.85-41.62 55.42-109.04 92.56-142.33 77.72-69.67 118.09-115.32 194.12-70.46 54.52 32.14 65.18 89.64 80.52 155.58 29.81 129.15-55.06 72.51 42.7 203.85 46.62 62.64 82.46 134.51 105.45 207.84 60.26 192.87 89.5 159.54 153.82 302.81 60.88 135.57 67.78 200.04 53.88 350.6-6.32 69.03-27.77 329.12-113.82 341.05l-102.54 18.75c-32.1-47.95-112.95-116.26-117.94-182.96-5.35-69.02 22.8-190.99 52.79-247.59-42.41-28.38-78.87-45.04-111.23-84.51-31.06-37.82-53.47-78.84-44.53-148.51 11.78-90.94 42.6-128.04-47.55-255.25-12.14-17.06-4.31-10.09-18.64-20.58-113.42 236.5 13.07 650.46 13.07 926.36l152.39 95.61c114.53 59.9 354.27 273.99 447.9 295.83l-47.38-172.36c-2.62-19.46 1.51 1.62-4.34-25.18-24.1-111.48-33.01-176.84-23.45-291.09 16.12-195.38 29.52-290.12 132.49-445.7 79.66-120.18 233.7-229.47 367.73-258.77 103.37-22.63 194.81-22.16 293.86 4.34 197.68 52.91 380.31 203.25 454.04 394.42 72.05 186.51-12.46 449.23-208.56 519.01-119.88 42.63-258.3 43.39-383.32-5.53-79.16-30.99-153-89.25-203.14-149.15-109.68-131.06 2.66-147.87-64.72-170.17 0 96.5-21.94 127.71-5.85 240.67l41.19 219.83c43.68 134.33 102.97 216.46 184.64 324.25l58.87 71.61c22.37 26.04 39.18 44.5 63.6 66.91 43.28 39.79 90.04 72.48 136.45 111.48l155.11 144.95c56.93 50.5-49.27-35.84 14.37 11.71l121.57 61.13c-17.17-32.47-37.17-71-52.33-104.26-20.04-44.36-16.95-59.23-32.21-111.19-47.7-161.37-95.79-240.64-14.94-327.51l12.46-13.72c69.42-82.86 232.3-235.18 304.17-283.19 9.15-6.15 13.71-9.02 23.56-15.48 133.49-87.03 285.77-197.61 450.91-196.68 76.18.44 124.63 19.15 169.77 86.52-20.65 88.68-110.9 166.47-149.23 385.73-45.61 260.78-31.28 266.17 87.56 484.79l240.31 307.72c18.79 17.95 28.38 31.42 42.96 48.41 77.75 90.4 252.37 191.46 356.71 243.54l243.82 95.5v156.55c-189.84 91.05-421.78 68.17-621.4 45.18l-338.86-102.79c-219.62-92.05-261.93-194.26-389.86-144.45l-37.53 15.09c-52.15 19.11-45.04 4.02-73.91 43.46 60.87 0 87.74-20.33 150.99-8.44 123.36 23.2 239.98 54.84 341.05 129.61 47.3 34.95 55.05 30.24 97.04 72.62l39.25 39.12c66.05 75.2 81.93 195.73 63.25 275.93h39.15c15.15-37.46 85.76-59.04 119.63-76.17 254.78-129.01 542.43-117.02 803.67-38 67.96 20.54 143.56 70.39 212.05 94.6zm-874.32 763.27c-32.72-48.78-66.88-113.5-130.52-130.48-67.98 49.81-97.11 179.9-221.81 182.66 11.53-49.78 50.43-113.06 75.82-158.96 19.32-34.73 15.19-24.71 35.45-55.92 13.86-21.19 17.31-30.17 30.38-47.91l211.54-245.19c15.73-9.88 6.54-3.88 23.31-15.84 174.62-123.8 324.39-115.5 523.89-115.5 73.77 0 71.4 26.11 156.7 26.11-39.9 59.54-203.46 171.42-250.83 218.93-48.84 48.99-27.08 40.23-114.82 41.85-73.7 1.32-73.73 5.56-104.76 51.78-67.7 100.85-68.24 91.66-143.05 170.17l-91.3 78.3zm-5650.71-574.07l13.04-13.07-13.04 13.07 13.04-13.07-13.04 13.07zm12828.28-65.26c71.18 1.58 143.16 39.15 313.22 39.15l94.63 153.28c142.55 217.83 258.91 137.67 280.72 306.43l29.12 257.91c-159.42-84.37-130.33-117.16-247.81-117.59-200.3-.72-122.98-122.18-156.66-196.92-42.13-93.24-108 34.62-175.05-202.02-14.33-50.68-28.27-89.86-56.53-126.14-32.83-42.2-53.16-71.58-81.64-114.1zM9807.54 5657.17c103.19 0 123.88-67.59 130.77-156.23 11.78-150.95 122.15-40.98 165.35-186.98 9.45-31.71 9.06-27.29 16.74-48.52 5.6-15.55 9.27-27.98 16.88-48.34 52.8-139.64 94.42-150.66 127.03-212.29-131.41 10.91-33.22 39.11-326.25 39.11-8.66 37.13-78.62 155.55-102.21 184.92-96.08 119.96-206.44 156.56-233.13 184.46-40.33 42.28-56.24 283.88-56.24 348.24 44.78-23.71 24.53-18.03 60.59-43.82 141.39-100.85 164.38-60.55 200.47-60.55zm12319.33-678.47l15.01 25.42-15.01-25.42zm-3914.96-13.04c-106.21 0-234.82-20.01-287.11-91.33 71.43-16.67 59.73-34.23 99.23-70.36l174.73-99.27c221.02 0 201.7-8.33 365.47 78.29-18.21 27.12-36.09 44.29-61.48 69-57.25 55.7-196.35 113.67-290.84 113.67zm-4345.74-208.78c19.36 28.99 33.26 58.98 63.46 80.02l49.57 28.74c150.23 97.18 429.97 107.13 513.37-17.42-30.85-20.62-45.58-28.7-74.96-55.53-52.54-47.84-79.51-66.44-146.57-88.35-259.7-85.01-336.88 34.41-404.87 52.54zm-4515.39 326.19c58.93-67.85 95.13-117.12 167.07-159.07 169.88-98.98 46.87-58.76 313.15-130.55l29.12-10.02c2.88-1.19 6.25-2.84 8.98-4.06l53.09-25.32c37.38-17.24 44.1-22.13 94.09-23.24l-497.74-143.05c-42.28-14.11-21.37-12.71-73.45-29.52-23.74-7.69-52.19-16.38-81.28-23.17 16.67 71.44 40.48 105.81-14.36 141.47-106.64 69.21-162.05 26.44-217.15 11.75-90.61-24.17-223.53-6.94-303.23 42.77l-249.39 181.23c-2.12 1.76-4.92 4.42-6.93 6.14l-174.62 151.6c77.54 1.72 62.63 17.42 147.28 4.42 281.22-43.21 252.42-94.14 346.41-124.34 60.84-19.58 181.15 73.19 357.75-72.59 65.65-54.26 37.1-54.8 88.17-68.45 133.14 89.18 15.59 160.32 13.04 274zm4358.8-561.03l4724.1-91.34c13.9-13.86 49.53 20.73 14.55 6.79-.25-.11-36.42 15.09-14.55-6.79l-4724.1 91.34zm4032.52 430.55c-44.72 18.49-70.36-49.89-190.24-96.87l-119.46-37.17c-39.11-9.98-77.79-25.5-121-35.56l345.8-241.42c32.64-9.8 49.09-6.46 84.94-6.39 94.85.14 67.26-7.36 136.62-33.04 43.49-16.09 88.6-25.25 127.5-42.09l123.15-46.55c127.93-39.04 60.16-72.12 213.48-22.41 28.05 9.12 12.57 1.04 38.71 13.39 21.05 9.88 24.28 13.44 39.04 26.22-66.65 14.12-107.27-17.45-199.54 9.27-184.93 53.55-461.55 158.71-488.52 397.72l-1.54 18.36c-5.43 126.74 36.27 31.85 11.06 96.54zm-443.73-835.03l3.91 3.91c-.36-.25-5.21-2.58-3.91-3.91zm769.98-13.04l13.04-13.04-13.04 13.04 13.04-13.04-13.04 13.04zm-2805.8-469.7l-26.11-13.03 26.11 13.03zm-26.11-13.03l-13.03-13.08 13.03 13.08zm-13.03-13.08l-26.19-26.07c42.74 7.9 18.21-16.63 26.19 26.07zm-26.19-26.07l-13.03-13.04 13.03 13.04zm1644.38-169.63c4.34-52.18 7.68-55.27 39.11-78.29-4.35 52.18-7.76 55.31-39.11 78.29zm52.15-91.33l-13.04 13.04 13.04-13.04zm-1709.56 247.92c-66.52-17.78-216.79-212.72-221.82-273.99 18.21 20.93 35.85 39.68 54.16 63.21 20.87 26.75 31.21 49.77 53.84 76.64 20.15 23.81 36.31 35.91 57.97 59.55l18.24 20.86c1.73 2.09 4.35 4.96 6.04 7.04l31.57 46.69zm1709.56-247.92c3.88-45.61 2.8-38.32 26.11-65.22-3.74 45.61-2.66 38.32-26.11 65.22zm8208.58-117.41l3.88 3.88c-.32-.25-5.17-2.58-3.88-3.88zm156.6-52.18l-25.43 14.97 25.43-14.97zm-12567.36 0l-5507.16-13.07 28.05 7.18-28.05-7.18 5507.16 13.07zm5063.57-52.22l8508.62-260.93-8508.62 260.93zM5279.11 2617.13c0 79.02 8.08 110.59 13.04 169.63 84.08 0 170.77-11.89 221.81 0-29.16-43.67-73.02-60.98-115.75-93.06-38.29-28.8-69.32-63.28-119.1-76.57zm21846 208.74c-82.24-6.82-134.9-26.07-234.95-26.07l261.06-169.63c0 91.83-9.34 123.62-26.11 195.7zM7249.63 2538.84c0 210.06-4.6 344.75 116.4 418.59 6.5 3.95 21.08 11.74 24.93 14.22 15.41 9.91 7 3.09 22.8 16.41l18.68 20.48c5.24-63.25 26.07-81.78 26.07-156.56 0-118.7-76.89-398.87-182.7-469.7-14.94 64.04-26.18 76.43-26.18 156.56zm17748.26 495.81c-7.36-88.86-26.07-14.23-26.07-234.85 0-140.11 151.67-346.12 156.63-404.48h26.07c0 148.9 49.31 41.48 8.62 322.63-19.57 135.25 41.59 163.55-115.54 275.03-26.18 18.5-29.67 20.51-49.71 41.67zm-2283.8-456.67c140.93 0 385.72 51.83 499.75 100.5 26.73 11.42 24.89 13.32 54.52 23.81 29.06 10.2 34.66 9.34 59.05 19.32 35.84 14.65 68.2 34.84 102.9 53.69 22.37 12.25 27.22 13.83 49.81 28.48l184.82 128.33c12.32 9.98 6.32 4.74 20.04 19.07 11.6 12.07 6.03 7.58 18.21 21.01l119.02 115.79c14.51 14.98-1.94-5.32 17.82 21.33 11.7 15.88 4.95 9.2 15.4 23.78 40.84 57.07 97.94 115.39 131.2 181.95 33.87 67.59 62.13 147.14 107.53 205.57 25.97 33.37 57.25 58.8 68.56 101.18-46.51 3.84-53.12 19.14-93.34 37.13-37.78 16.88-52.22 24.5-87.17 43.32l-265.41 139.13c-34.48 17.28-54.27 26.51-88.75 41.81-27.87 12.42-59.97 26-89.71 40.76l-280.68 123.8c-294.11 103.18-841.85 304.49-1131.58 343.1l-452.38 82.64c-35.06 6.89-69.54 6.86-117.56 13.07-22.15 2.84-87.3 12.68-105.15 14.22l-460.29 34.12c-21.91.36-40.3 2.23-60.59 3.31-167.91 8.87-408.03-2.23-590.52-3.38l-444.38-25.82c-51.1 0-.21-13.76-66.91-24.39-31.03-4.92-67.77-.14-100.99-3.41l-484.24-89.9c-112.74-19.28-206.88-45.72-321.12-70.32-105.38-22.7-198.97-76.03-318.64-85.98v-26.11c146.28-34.05 311.49-156.16 456.59-208.95 94.24-34.3 181.84-102.15 272.74-144.88l87.92-42.49c34.94-21.19 52.54-26.33 83.07-47.37l425.45-253.1c21.66-14.58 15.48-11.67 39.15-26.07 24.71-15.05 28.34-14.51 50.75-27.66 28.94-17.02 49.16-35.91 75.6-54.88 30.81-22.19 47.08-28.84 78.58-51.89 103.69-75.96 205.54-168.34 314.58-234.31 38.47-23.28 167.01-9.02 237.4.97 209.17 29.66 358.4 38.14 548.64 90.83 106.45 29.52 139.89 139.99 187.48 230.03-147.33 70.68-380.13-11.56-479.36-94.85-99.09-83.18-101.25-163.41-290.63-179.14l-52.15 143.51c0 51.47 67.02 136.52 101.03 172.97l73.52 83.11c58.87 55.34 130.84 103.54 205.54 133.67 78.19 31.54 162.05 67.2 240.02 71.98 1.01.07 32.62-.79 34.3-.83 40.62-1 104.05 3.52 139.03-1.18 1.72-.26 18.03-3.45 23.45-4.35l109.69-24.82c21.69 93.06 56.82 104.55 130.51 143.52 13.26-32.79 1.12-14.87 32.97-32.25 70.83-38.65 123.66-12.46 123.66-124.3 0-58.62.18 5.74-15.23-37L21696 3256.67c-11.03-24.31-21.69-40.87-33.44-70.93l-45.61-97.98c-18.89-31.21-33.29-68.2-62.6-93.95-62.28-54.63-232.98-116.19-312.89-130.84-71.73-13.11-105.59-37.1-184.68-37.1 22.12-30.2 120.71-62.13 166.18-81.63 115.5-49.42 264.8-81.85 387.27-108.68 105.77-23.17 248.07-76.22 354.92-26.4l293.46 124.09c40.76 16.27 77.5 37.63 117.91 51.82 96.43 33.83 160.22 30.31 218.94 107.21 100.31 131.12 115.29 282.33 60.12 436.08-26.04 72.44-145.28 254.28-215.49 254.28-54.31 0-106.17-.83-140.9-41.81-27.36-32.28-75.24-167.83 7.83-160.39 44.68 3.98 38.9 38.86 54.7 71.72 4.56-.36 30.21-4.13 31.25-4.1 25.03.54 7.79-2.37 32.9 6.4 21.01 7.36 40.29 17.7 66.4 23.81 59.08-39.61 69.32-57.07 104.7-117.12 47.8-81.17 22.12-103.33-29.85-192.58-34.44-59.22-128.11-124.37-194.91-145.02-28.59-8.91-44.79-11.03-72.15-12.11-83.47-3.26-185.51 18.79-252.6 74.28-17.59 14.51-3.05 3.12-20.22 18.96-13.28 12.32-13.68 11.28-27.36 24.82-24.82 24.49-54.74 74.67-66.66 103-129.48 309.09 54.05 625.93 377.68 688.03 161.84 31.06 307.76-25.36 425.96-132.53 70.14-63.57 98.08-59.87 158.35-141.72 135.04-183.09 197.42-419.13 132.74-651.46-8.55-31.03-58.94-143.92-75.86-171.97-31.06-51.35-67.34-88.85-107.74-127.21a3318.8 3318.8 0 0 1-26.72-25.5c-24.75-24.1-2.66-7-33.65-31.49-41.67-32.94-39.94-15.91-69.89-60.67zm-3314.69 0c0-33.36 20.58-2.08 7.76 0-.21.04-7.76 36.42-7.76 0zm3275.54-13.03c13.9-13.87 49.52 20.68 14.54 6.79-.25-.15-36.34 15.04-14.54-6.79zM10094.65 3908.82c-84.18 0-153.97-9.98-244.33-42.85-3.02-1.07-6.32-2.44-9.52-3.52l-39.97-12.14c-48.67-17.34-192.87-144.52-225.26-179.28-176.74-189.35-242.18-433.54-183.96-686.85 21.48-93.09 143.12-274.1 214.88-333.14 22.34-18.39 24.24-20.01 45.11-33.19 22.12-13.9 24.96-13.07 48.16-30.2 16.52-12.25 29.38-24.35 42.49-35.74-131.45 2.91-285.92 38.97-416.47 66.34-57.97 12.17-72.05 18.17-119.24 37.35l-358.36 189.67c-183.46 109.36-369.89 355.27-463.09 554.74-47.73 102.07-101.64 136.19-117.52 195.67 33.69 16.12 60.63 27.15 99.13 44.39 46.37 20.68 52.47 28.73 92.41 51.21 167.54 94.32 489.27 246.77 656.21 309.41l397.25 150.81c218.12 66.59 659.73 209.24 868.18 233.88 26.22 3.09 9.55-1.3 43.28 4.38 28.62 4.78 33.26 7.07 52.07 11.17l231.95 42.81c212.86 36.85 429 58.9 651.89 64.86 220.59 5.89 475.91 27.73 699.56 5.75 13.9-1.37 23.23-2.48 46.25-3.84l859.02-93.78c38.47-7.97 81.96-17.52 120.64-22.84 69.86-9.55 57.9-11.53 105.7-24.85 46.33-12.93 76.25-10.24 123.15-20.33 30.86-6.65 62.78-24.5 98.66-31.86l327.91-89.71c44.28-16.99 55.06-18.25 112.3-18.25l-927.22-469.05c-31.71-18.25-64.11-35.27-92.98-50.57-176.27-93.45-341.88-208.13-513.01-309.12-29.6-17.53-57.4-40.94-83.18-60.34l-238.51-179.07c-134.22-94.28-234.57-43.89-393.74-30.42-43.71 3.7-91.08 7.18-117.59 11.53-55.56 9.08-81.56 20.97-116.8 26.79-48.01 7.94-77.75 4.45-117.04 13.47-94.24 21.58-142.08 6.43-189.17 84.9-28.08 46.98-90.11 121-94.92 179.07 128.32 0 266.63 77.04 485.39-114.92 53.91-47.3 67.85-95.47 134.94-126.03 147.25-67.13 126.13-32.32 167.61 41.23 24.1 42.63 44.75 62.74 14.4 113.6-95.17 159.75-107.78 146.86-222.46 248.28-147.71 130.52-489.34 218.4-684.21 124.88-29.74 61.77 9.84 34.84-44 86.55-92.81 89.11-216.82 5.71-233.49-57.86-13.71-52.29 40.19-241.56 59.88-298.34 41.12-118.49 130.12-348.06 198.5-440.97l71.47-59.01c8.91-5.64 2.37-3.3 24.39-14.69l104.65-38.86c27.62-12.64 13.9-10.23 44.68-20.68 19.14-6.5 31.97-7.69 51.14-14.01 63-20.72 174.59-53.91 244.73-55.45l-37.14-15.16c-16.95-6.14-17.74-4.02-39.07-13.9l-279.06-98.55c-42.45-12.46-45.83-16.59-76.93-27.44l-159-36.74c-70.21-17.13-239.59-63.07-313.9-34.84l-524.75 219.19c-40.59 15.7-71.15 17.74-97.73 45.87-45.76 48.3-76.46 101.56-98.37 162.76-.86 2.45-2.23 6.11-3.05 8.41-41.7 117.26-4.35 286.24 46.9 367.48 32.15 51 54.09 60.52 86.45 109.36 34.77 52.51 43.24 70.29 125.34 70.29 163.99 0 188.09-195.7 104.48-195.7-39.97 0-44.53 47.87-91.19 63.46-1.72.57-5.39 1.47-7.18 2.08-1.8.58-5.46 1.69-7.4 2.34l-47.37 15.19c-46.87 10.2-78.58-6.54-103.83-47.95-45.61-74.7-82.68-100.02-38.43-186.43 2.12-4.03 10.49-19.25 13.97-25.58 1.94-3.48 7.29-13.54 9.27-16.95 29.12-49.67 76.53-103.04 129-131.91 79.73-43.93 224.62-65.94 310.67-24.46 318.6 153.43 312.57 530.97 115.54 737.62l-58.04 46.37c-57.11 45.4-195.09 114.21-251.12 114.21zm9291.68-1369.98l3.92 3.91c-.22-.25-5.21-2.62-3.92-3.91zm-482.84 104.4c-84.04-125.52-60.16-287.07 182.7-287.07 115.32 0 245.69 66.73 300.14 169.63-140.32 32.68 24.67-53.23-184.39 37.35-35.45 15.37-60.3 26.26-91.19 39.4-35.8 15.23-46.22 23.2-90.36 27.08-62.13 5.5-64.32 1.37-116.9 13.61zm-5859.56-143.55c78.4 16.63 36.89-24.17 111.98 4.02 115.33 43.35 124.23 113.42 384.01 113.42 9.12-109.5 77.58-89.61.39-209.06-69.85-107.85-339.86-97.08-445.85 24.67l-50.53 66.95zm15490.6-104.37c1.29-1.29 3.81 2.05 3.81 3.92h.11c-.36-.29-5.21-2.63-3.92-3.92zm-26.18-13.04l3.91 3.88c-.25-.25-5.2-2.58-3.91-3.88zm-24560.4-26.11c-53.84 4.6-23.13 1.01-39.15 13.08 66.66 0 21.73.18 39.15-13.08zm24469.14-13.03c47.48 11.06 41.84 7.21 65.18 39.14-47.44-11.06-41.8-7.22-65.18-39.14zm-24442.96 0l-26.18 13.03 26.18-13.03zm22289.63 495.8c13.25-18.1 1.08-2.22 18.6-20.58l242.86-253.02c19.11-21.76 19.11-32.43 38.29-53.04 21.83-23.49 19.5-7.51 47.08-44.25 75.64-100.89 91.73-179.15 174.44-191.79 84.33-12.89 228.06 3.16 274.75 66.88-80.38 0-95.6 19.03-135.36 60.3l-447.58 322.37c-45.21 24.96-50.35 37.75-95.32 61.27-36.16 18.93-74.09 41.7-117.76 51.86zm2153.33-495.8c-60.63-5.03-22.84 14-52.29-26.08 36.02 8.37 29.48 6.29 52.29 26.08zm-24442.96 0c36.96-9.88 19.11 2.73 39.15-26.08-37.31 8.91-19.72-2.01-39.15 26.08zm1592.12-91.34c-78.87 0-149.12 19.29-182.7 65.26 40.84 3.38 86.45 33.04 113.85 55.74 35.2 29.06 43.24 49.06 82.36 74.2l486.5 322.59c39.76 22.2 56.03 44.5 100.21 56.28l-205.98-224.54c-24.53-28.3-43.67-51.57-67.98-75.53-94.5-92.73-183.93-245.77-184.43-246.27-32.75-32.22-97.26-27.73-141.83-27.73zm-1539.93 52.19c-1.33 1.29 3.63 3.66 3.88 3.88l-3.88-3.88zm-861.39-13.04c7.76 21.33 6.03 14.3 13.65 25.57.61.94 12.42 16.45 17.56 21.59 25.43 26 13.36 9.08 35.59 29.63 20.22 18.75 15.66 18.06 30.89 34.3l256.29 226.55c116.9 102.03 96.47 146.6 246.31 146.21 80.16-.25 64.97-2.59 124.12-20.54 42.95-13 64-11.82 107.42-23.13 127.5-33.26 448.98-170.17 486.33-309.7-71.51 37.82-115.11 92.12-230.25 148.22-42.06 20.47-99.67 44.47-137.06 58.72l-295.58 76.93c-73.7-6.42-183.81-57.53-221.92-143.12-16.56-37.24-36.78-83.43 10.35-153.82-61.46 1.4-72.12 11.85-115.33 4.74l-231.58-75.35c-40.4-23.06-46.15-35.02-96.79-46.8zm25199.87 26.11c-37.21-8.94-19.61 1.98-39.15-26.11 37.31 8.91 19.72-1.97 39.15 26.11zm-23424.98-26.11c0 36.42 7.61.04 7.69 0 12.96-2.08-7.69-33.36-7.69 0zm-874.43 0h24260.26l-26.08-13.04 26.08 13.04H4065.39zm24234.18-13.04l-13.03-13.07 13.03 13.07zm-24234.18 13.04c45.62-12.17 29.35-4.96 52.19-39.15-45.58 12.18-29.2 4.96-52.19 39.15zm78.37-52.18l-26.18 13.03 26.18-13.03zm24142.78 26.07c-45.15-12.03-40.16-7.07-52.15-52.18l52.15 52.18zm-24129.71-39.11l-13.07 13.04 13.07-13.04zm26.08-13.07l-26.08 13.07 26.08-13.07zm26.07-26.08c-42.74 7.9-18.24-16.63-26.07 26.08l26.07-26.08zm13.04-13.07l-13.04 13.07 13.04-13.07zm23164.02-52.19c8.04 9.23 7.36 6.68 16.73 22.41l48.6 108.07c-52.33-5.71-37.54-.86-49.78-48.7l-15.55-81.78zm-23164.02 52.19l23934-39.11 3.92 3.88c-.22-.26-5.21-2.59-3.92-3.88l-23934 39.11zm13.04-39.11c-1.3 1.29 3.66 3.62 3.88 3.88l-3.88-3.88zm25252.16-65.26c-1.26 53.19-4.31 60.41-37.1 93.49-1.8 1.9-4.78 4.49-6.72 6.32l-356.85 321.69c-83.43 71.29-41.99 55.34-151.06 135.94-18.39 13.54-12.32 8.58-27.59 24.64-41.19 43.31-48.59 43.99-89.42 80.19-118.6 104.84-65.44 97.73-222.86 59.44-229.32-55.81-541.28-129.43-661.41-356.38 53.91 14.4 63.03 56.03 162.91 111.12 22.59 12.46 36.71 23.31 56.1 35.16 124.66 75.96 441.11 180.94 564.05 114.71l51.82-39.54c79.77-77.11 65.51-103.22 65.51-208.41 76.57-6.36 229.97-44 298.6-79.84 100.56-52.55 103.22-32.94 192.43-120.79l161.59-177.74zm-13115.43-13.04c57.36 1.26 101.93 22.95 145.53 37.17 77.97 25.47 112.56 56.86 173.11 113.96l46.05 45.29c52.18 54.84 39.82 56.86 39.82 155.84-50.24 4.2-42.02 13.07-104.33 13.07 26.94 400.99 2.62 197.71-12.6 404.98-8.73 119.92.07 242.93-53.23 338.14-78.4 139.71-140.11 137.84-264.34 122-94.02-11.96-89.93-1.04-152.46-43.45l-113.96-81.78c-128.46-98.23-163.84-254.57-168.15-428.43-2.55-103.22 61.02-387.35 151.35-441.97 188.77-114.21 232.44-53.66 311.49-81.21 56.03-19.54 1.72-68.92 1.72-153.61zm-12071.4 13.04c-1.33 1.29 3.55 3.63 3.8 3.88l-3.8-3.88zm25186.83 0L3164.93 2290.95c-32.22-8.62-207.05-150.95-223.54-207.01-3.26-10.92-7.79-38.61-11.31-53.95 46.51 34.12 21.15 54.88 138.24 161.84l96.61 99.12 26322.29-221.81zm13.03-52.19c1.3-1.29 3.88 2.05 3.88 3.88l-3.88-3.88zm-861.39 13.04c-66.51 0-21.58.22-39.11-13.04 69.03 0 19.5.11 39.11 13.04zM4339.5 2016.95l23725.22-13.03c1.3-1.3 3.81 2.04 3.81 3.88-.25-.26-5.1-2.59-3.81-3.88L4339.5 2016.95zm-522.06-26.07c-1.3 1.29 3.62 3.63 3.91 3.88l-3.91-3.88zm24234.25-13.07l3.8 3.88c-.25-.26-5.1-2.59-3.8-3.88zm-1292.05-130.48l-21115.16 91.33c0 51.11 18.24.04 0 78.29-45.65 9.67-39.55 2.59-76.04 5.07-29.38 2.01-22.19 3.45-32.79 5.24-56.71 9.56 30.82-2.22-15.23 2.98-67.55 7.69 10.89-40.65 59.09-104.37 32.35-42.81 58.64-87.23 104.11-117.65-7.18 30.74-39.14 111.12-39.14 130.44l21115.16-91.33zm822.24-182.67h13.04v78.3h-13.04v-78.3zm-22759.54 65.26c-1.29 1.29 3.67 3.63 3.92 3.88l-3.92-3.88zm23764.38-13.04l-24730.06-39.14 25.42-15.02-25.42 15.02 24730.06 39.14zM16919.86 3256.46c32.54-139.68 115.32-279.42 58.65-529.75-18.53-82.07-23.53-32.4 20.97-107.67l66.95-103.3c26.29-40.4 76.03-197.67 70.18-238.65-14.37-101.03-117.48-255.79-191.4-337.64-130.15-144.13-362.88-258.34-560.38-274.79 37.32-25.89 80.99-37.28 130.41-39.83 81.81-4.23 88.56 6.65 149.8 20.65 152.5 34.91 228.03 81.71 330.35 191.58 93.2 100.06 146.17 219.76 158.17 363.74 14.58 174.87 95.32 305.86-13.51 571.23-16.52 40.3-37.13 72.09-53.87 115.69-30.46 78.9-120.75 335.34-166.32 368.74zM4835.38 1612.48v52.18c9.12-14.4 8.76 1.76 10.81-26.07 3.91-55.24 4.63-1.69-10.81-26.11zm21806.89 13.07l2140.15 156.56c-78.19 0-132.71 2.83-169.63-52.19 40.55 9.41 37.78 16.67 78.33 26.08 35.09-52.44 60.66-46.01 113.67-121.18 18.5-26.22 10.42-18.68 33.19-45.15l140.17-185.93 13.15 182.66c0 57.04 1.36-1.97-11.24 27.98-3.02 7.33-11.93 28.41-15.66 36.46-29.49 62.95-99.45 131.27-181.98 131.27l-2140.15-156.56zm-21806.89-52.22c8.69 45.58 8.04-7.36 8.26-8.22 8.22-38.15-12.97-16.45-8.26 8.22zm-978.72 104.41c-51.94 12.1-78.12 19.25-91.41 52.18-79.34-1.76-73.59-27.15-104.98-77.65-22.09-35.41-50.35-56.56-77.86-91.83-116.26-149.19-102.76-169.16-130.37-208.89 0 72.19-25.25 131.27-10.46 219.19 19.58 115.8 147.76 217.11 268.04 195.78 54.7-9.7 118.45-46.19 147.04-88.78zm25082.35-365.33l15.01 25.43-15.01-25.43zm-1291.91 0l-24155.92-13.04c-8.9 37.21 1.98 19.61-26.11 39.11 9.16-38.14-1.58-18.78 26.11-39.11l24155.92 13.04zm1291.91 0l-13-13.04 13 13.04zm-1278.87-26.11l-13.04 26.11 13.04-26.11zm-22903.09-39.15l15.08 25.46-15.08-25.46zm22903.09 39.15c7.76-92.66 172.18-259.02 243.76-317.28 61.2-49.7 260.81-169.66 350.92-157.27 13.69 1.87 7.8-.29 18.72 4.85-8.55 16.16-1.76 6.64-15.23 24.03-70.15 90.93-147.97 141.97-141.58 226.44.18 1.44.43 5.14.54 6.57l3.09 87.64c2.83 24.56.89 37.49.89 57.32.44 108.39 29.1 22.3-12.67 163.66-23.56 79.55-23.46 153.54 2.83 234.71 15.7 48.34 35.02 84.61 44.61 125.99-42.99-22.74-71.04-46.19-156.63 52.18-18.85-226.44-24.35-58.11 9.59-277.48 15.16-97.58 16.53-186.11 16.53-296.58-70.47-37.32-161.87-130.84-295.23 4.88-1.94 1.9-4.56 4.74-6.46 6.64l-63.68 53.7zm-22903.09-39.15l-36.49-80.92c-1.37-2.58-3.05-6.03-4.42-8.58l-31.07-47.19c-2.4-2.98-9.69-11.14-12.1-14.08l-94.56-101.1c-116.37-100.42-170.42-140.54-323.42-185.5-58.11-17.06-32.75-19.26-111.23-19.26 135.65 202.6 173.65 60.16 156.73 390.76-7.18 140.11 26.37 160.65 26.4 287.47 0 230.79-43.13 133.13-52.69 248.13 67.96-5.67 32.9-27.33 88.82 1.66 32.08 16.59 28.7 27.04 67.77 37.46 16.24-194.74 28.84-43.96-11.56-249.33-11.35-57.89-26.25-199.51-13.68-271.77 10.23-59.37 106.7-111.59 174.83-98.98 50.43 9.37 69.71 31.82 115.97 67.63 2.16 1.65 5.03 4.13 7.18 5.82 2.2 1.68 5 4.23 7.19 5.89l46.33 31.89zm23673.08-561.03l3.91 3.91c-.29-.25-5.21-2.62-3.91-3.91zm39.07-13.04L3974.13 660.04l24495.07 13.04zM3974.13 660.04l-13.14-13.07 13.14 13.07zM26276.8 3556.53c231.04 0 218.9-57.39 313.18-65.22 12.82 26.5 12.17 35.44 28.48 62.92 13.03 21.94 23.67 32.18 39.86 51.47 111.27 132.85 50.89 106.48 270.98 55.23 22.05 32.83 32.79 44.79 57.79 85.7 39.72 65.08 146.57 240.2 164.13 305.71-149.26 0-117.48-83.72-208.88-91.34-19 52.69-6.43.87-35.66 55.6l-16.78 35.41c-23.88 35.74-57.28 39.47-117.22 39.47 0-28.58-21.05-161.83-28.91-179.79-17.39-39.5-13.26-26.11-64.33-40.04-30.56-8.33-76.71-28.09-89.46-28.09-53.41 0-33.62 57.22-130.52 65.26-13.97-26.58-31.93-56.35-45.68-84.72-26.04-53.73-32.94-120.43-77.22-183.78-29.38-42.09-32.83-32.9-59.76-83.79zm-261.03-156.56l143.51-78.29c40.41-18.64 102.25-46.73 148.62-60.23 38.54-11.17 49.02-10.85 86.81-17.99 45.18-8.52 49.56-14.44 77.11-19.79 147.64-28.81 377.43-1.12 522.96 71.76 142.54 71.47 108.89 69.96 189.41 175.94l83.43 125.35c33.26 43.81 111.23 229.1 131.88 285.63 45.4 124.23 78.84 187.55 117.09 326.43 52.36 190.17 144.63 296.05-39.11 430.7-30.71-8.19-57.79-26.44-84.48-46.12-68.38-50.46-35.62-74.7-80.81-167.07-19.17-39.19-26.36-37.46-30.49-86.92-43.13 10.06-41.19 19.57-85.8 30.31-81.56 19.61-64.86-6.21-182.38 14.12-131.84 22.77-308.44 71.4-398.94-69-75.28-116.97-35.63-64.25-125.17-77.64l-59.47-24.21c-45.72-20.4-92.99-20.69-137.34-45.86l-37.39-27.87c-36.45-38.76-10.81-36.82-55.13-88.43l-128.29-145.78c-111.48-127.93-82.14-273.53-82.14-413.7 35.88-2.98 28.45-1.26 52.3-13.04-16.24-60.63-20.58-11.57-26.18-78.3zM5970.73 3882.71c14.72-40.48 4.09-6.86 13.65-25.5 1.29-2.51 3.12-5.96 4.41-8.58 70.07-141.55 60.95-169.7 151.6-305.14-323.7-26.94-248.1-159.46-383.64 46.98-89.07 135.72-67.38 97.01-192.65 72.58-62.14-12.1-32.61.94-76.21-28.23-3.74 45.62-28.7 67.67-56.32 100.21-52.51 61.63-61.23 107.96-107.92 192.21-22.6 40.73-26.87 62.14-44.54 98.99 114.68 0 107.1-57.61 195.7-78.26 53.01 35.48 66.48 117.4 117.52 117.4 73.41 0 61.45-6.46 73.41-83.18 6.75-43.81 14.97-77.28 17.88-112.52l182.78-52.18c14.11 52.83 39.14 63.78 104.33 65.22zm-1030.91 730.66c116.94-27.26 118.41-54.59 137.27-110.66 21.83-65.22 56.89-117.01 58.47-189.41 104.69 8.69-52.8 20.11 221.06 39.86 155.62 11.24 343.42 111.34 448.11-62.38 79.12-131.45 30.81-39.87 224.83-114.57 32.57-12.57 11.1-5.89 30.81-10.24 154.01-34.08 99.34-70.89 246.35-234.42 150.98-168.04 133.81-219.22 133.81-414.17 0-43.24-37.38-48.77-78.22-52.18 22.02-41.74 29.16-44 52.11-78.26-39.5-26.47-73.84-41.45-115.53-67.13-97.33-60.05-221.57-92.59-330.57-111.08l-15.84-3.09c-207.01-46.87-503.96-6.07-651.68 163.81-54.05 62.02-139.17 203.28-178.42 278.34l-67.63 154.15c-12.82 28.69-12.82 18.42-26.87 51.46l-175.94 515.67c-3.24 12.93-4.1 19.18-7.8 32.07-15.23 52.84-53.22 77.11 75.06 193.66 21.95 19.97-1 2.76 20.62 18.57zm9330.83-2178.9l50.17-458.71c41.88-145.03 92.52-302.69 161.51-438.78l36.17-68.13c41.84-80.88 64.47-124.73 126.35-160.79 125.13-73.09 85.19-82.93 273.24-144.31 170.71-55.77 339.9-38.68 507.02 12.14l620.47 293.07c-12.18 51.86-38.07 86.92-70.4 125.38-43.56 51.79-68.2 68.2-108.53 67.05-139.07-3.91-178.57-17.27-329.78-10.3-164.85 7.58-176.27 22.48-306.17 60.12-373.92 108.28-302.37 188.52-410.08 333.69l-145.17 220.12c-47.37 70.65-107.46 130.44-162.23 203.53-42.85 57.21-35.2 54.59-110.48 44.5-107.38-14.44-132.09-.93-132.09-78.58zm1879.22 730.66c-15.05-11.1-20.25-18.54-27.8-24.39-2.04-1.65-5.24-3.95-7.43-5.6l-15.59-10.53c-52.61-35.88-83.03-55.67-73.52-142.08 9.59-88.06 194.2-126.27 227.02-445.49 5.64-55.52-.57-105.91 6.79-162.77 7.33-56.49-4.16-109.43 47.16-109.43 247.27 0 287.1-2.01 287.1 417.51 0 160.54-134.53 323.46-265.19 413.35l-15.19 10.92c-61.28 43.89-66.09 35.84-163.35 58.51z" fill="#d7b56d"/></svg>